<?xml version="1.0" standalone="no"?>
<!DOCTYPE svg PUBLIC "-//W3C//DTD SVG 1.1//EN" "http://www.w3.org/Graphics/SVG/1.1/DTD/svg11.dtd">
<svg xmlns="http://www.w3.org/2000/svg">
<metadata>Copyright (C) 2018 by original authors @ fontello.com</metadata>
<defs>
<font id="italia-icon-font" horiz-adv-x="1000" >
<font-face font-family="italia-icon-font" font-weight="400" font-stretch="normal" units-per-em="1000" ascent="850" descent="-150" />
<missing-glyph horiz-adv-x="1000" />
<glyph glyph-name="app" unicode="&#xe800;" d="M0 600h250v250h-250v-250z m375-750h250v250h-250v-250z m-375 0h250v250h-250v-250z m0 375h250v250h-250v-250z m375 0h250v250h-250v-250z m375 625v-250h250v250h-250z m-375-250h250v250h-250v-250z m375-375h250v250h-250v-250z m0-375h250v250h-250v-250z" horiz-adv-x="1000" />

<glyph glyph-name="app-1" unicode="&#xe801;" d="M0 600h250v250h-250v-250z m375-750h250v250h-250v-250z m-375 0h250v250h-250v-250z m0 375h250v250h-250v-250z m375 0h250v250h-250v-250z m375 625v-250h250v250h-250z m-375-250h250v250h-250v-250z m375-375h250v250h-250v-250z m0-375h250v250h-250v-250z" horiz-adv-x="1000" />

<glyph glyph-name="arrow-down" unicode="&#xe802;" d="M438 850v-762l-350 350-88-88 500-500 88 87 412 407-87 94-350-350v762z" horiz-adv-x="1000" />

<glyph glyph-name="arrow-left" unicode="&#xe803;" d="M1000 413h-762l350 350-88 87-500-500 88-87 406-413 87 87-343 351h762z" horiz-adv-x="1000" />

<glyph glyph-name="arrow-right" unicode="&#xe804;" d="M0 288h763l-350-351 87-87 500 500-87 88-407 412-93-87 350-350h-763z" horiz-adv-x="1000" />

<glyph glyph-name="arrow-up" unicode="&#xe805;" d="M563-150v763l350-350 87 87-500 500-87-87-413-407 88-93 350 350v-763z" horiz-adv-x="1000" />

<glyph glyph-name="behance" unicode="&#xe806;" d="M864 550c11 0 18 7 18 18v50c0 11-7 18-18 18h-207c-11 0-18-7-18-18v-50c0-11 7-18 18-18h207z m-96-143c43 0 78-21 100-57h-200c21 36 57 57 100 57z m232-125c0 132-104 239-232 239s-232-107-232-239c0-132 103-239 232-239 78 0 150 39 193 107 7 7 10 18 14 25s0 14-7 14h-114c-4 0-4 0-8-3-21-22-46-32-78-32-57 0-104 42-114 100h325c14 0 21 10 21 21v7z m-689-118h-200v161h200c43 0 78-36 78-79 4-46-32-82-78-82z m-200 382h168c32 0 57-25 57-57s-25-57-57-57h-168v114z m310-146c18 29 29 61 25 93 0 93-78 164-171 164h-254c-10 0-21-11-21-21v-568c0-11 11-22 21-22h290c107 0 196 86 196 193-3 68-36 125-86 161z" horiz-adv-x="1000" />

<glyph glyph-name="calendar" unicode="&#xe807;" d="M752 223v-125h-125v125h125z m0 62h-125c-37 0-62-25-62-62v-125c0-37 25-62 62-62h125c37 0 62 25 62 62v125c0 37-25 62-62 62v0z m186 435h-131v68c0 37-24 62-62 62s-62-25-62-62v-68h-372v68c0 37-25 62-63 62s-62-25-62-62v-68h-124c-37 0-62-25-62-63v-745c0-37 25-62 62-62h870c37 0 62 25 62 62v745c6 32-19 63-56 63z m0-808h-870v553h870v-553z m0 615h-870v131h125c0-38 24-63 62-63s62 25 62 63v0h372c0-38 25-63 63-63s62 25 62 63v0h130v-131z" horiz-adv-x="1000" />

<glyph glyph-name="camera" unicode="&#xe808;" d="M944 628v-556h-888v556h888z m0 55h-888c-34 0-56-22-56-55v-556c0-33 22-55 56-55h888c34 0 56 22 56 55v556c0 33-22 55-56 55v0z m-277-166c94 0 166-73 166-167s-72-167-166-167-167 73-167 167 72 167 167 167z m0 55c-123 0-223-100-223-222s100-222 223-222 222 100 222 222-100 222-222 222v0z m-278-55c0-31-25-56-56-56s-55 25-55 56c0 30 25 55 55 55s56-25 56-55z" horiz-adv-x="1000" />

<glyph glyph-name="cancel" unicode="&#xe809;" d="M1000 350c0-275-225-500-500-500s-500 225-500 500 225 500 500 500 500-225 500-500z m-215 210l-70 70-215-210-210 215-75-75 210-210-210-210 70-70 210 210 210-210 70 70-205 210 215 210z" horiz-adv-x="1000" />

<glyph glyph-name="check" unicode="&#xe80a;" d="M1000 641l-88 83-577-583-253 253-82-88 253-247h-6l88-83 83 83z" horiz-adv-x="1000" />

<glyph glyph-name="chevron-left" unicode="&#xe80d;" d="M808 733l-116 117-500-500 500-500 116 117-383 383 383 383z" horiz-adv-x="1000" />

<glyph glyph-name="chevron-right" unicode="&#xe80e;" d="M192-33l116-117 500 500-500 500-116-117 383-383-383-383z" horiz-adv-x="1000" />

<glyph glyph-name="close" unicode="&#xe80f;" d="M1000 746l-104 104-396-395-395 395-105-104 396-396-396-396 105-104 395 396 396-396 104 104-395 396z" horiz-adv-x="1000" />

<glyph glyph-name="collapse" unicode="&#xe810;" d="M883 42l117 116-500 500-500-500 117-116 383 383 383-383z" horiz-adv-x="1000" />

<glyph glyph-name="comment" unicode="&#xe811;" d="M938 788v-625h-688c-19 0-31-7-44-19l-143-144v788h875z m0 62h-875c-38 0-63-25-63-62v-625c0-38 0-313 0-313l250 250h688c37 0 62 25 62 63v625c0 37-25 62-62 62v0z m-688-219h500v-62h-500v62z m0-187h500v-63h-500v63z" horiz-adv-x="1000" />

<glyph glyph-name="copy" unicode="&#xe812;" d="M944 739h-166v55c0 34-22 56-56 56h-666c-34 0-56-22-56-56v-777c0-34 22-56 56-56h166v-56c0-33 22-55 56-55h666c34 0 56 22 56 55v778c0 34-22 56-56 56z m-888-722v777h666v-777h-666z m888-111h-666v55h444c34 0 56 22 56 56v666h166v-777z" horiz-adv-x="1000" />

<glyph glyph-name="download" unicode="&#xe813;" d="M18-90h964v-60h-964v60z m627 880v-392h186l-331-313-331 313h180v392h296z m60 60h-416v-392h-271l482-451 482 451h-277v392z" horiz-adv-x="1000" />

<glyph glyph-name="drop-down" unicode="&#xe814;" d="M0 100l500 500 500-500z" horiz-adv-x="1000" />

<glyph glyph-name="drop-up" unicode="&#xe815;" d="M1000 600l-500-500-500 500z" horiz-adv-x="1000" />

<glyph glyph-name="help" unicode="&#xe816;" d="M454 810q190 2 326-130t140-322q2-190-131-327t-323-141q-190-2-327 131t-139 323q-4 190 130 327t324 139z m-2-740q30 0 49 19t19 47q2 30-17 49t-49 19l-2 0q-28 0-47-18t-21-46q0-30 19-49t47-21l2 0z m166 328q26 34 26 78 0 78-54 116-52 38-134 38-64 0-104-26-68-42-72-146l0-4 110 0 0 4q0 26 16 54 16 24 54 24 40 0 52-20 16-20 16-44 0-18-16-40-8-12-20-20l-6-4q-6-4-16-11t-20-15-21-17-17-17q-14-20-18-78l0-8 108 0 0 4q0 12 4 28 6 20 28 36l28 18q46 34 56 50z" horiz-adv-x="920" />

<glyph glyph-name="expand-media" unicode="&#xe817;" d="M978-150h-956c-11 0-22 11-22 22v950c0 17 11 28 22 28h950c17 0 28-11 28-28v-950c0-11-11-22-22-22z m-928 50h900v900h-900v-900z m700 539c-11 0-22 11-22 22v111h-111c-11 0-23 11-23 22-5 17 6 34 17 34h139c17 0 28-17 28-28v-139c0-11-11-22-28-22v0z m-500 0c-17 0-28 11-28 22v139c0 11 11 28 28 28h139c11 0 22-11 22-28 0-11-11-22-22-22h-111v-111c-6-17-17-28-28-28v0z m139-367h-139c-17 0-28 11-28 28v139c0 11 11 22 22 22s23-11 23-22v-111h111c11 0 22-11 22-22s0-34-11-34v0z m361 0h-139c-11 0-22 11-22 22s11 23 22 23h111v111c0 11 11 22 23 22s22-11 22-22v-139c11-6 0-17-17-17v0z" horiz-adv-x="1000" />

<glyph glyph-name="expand" unicode="&#xe818;" d="M117 658l-117-116 500-500 500 500-117 116-383-383-383 383z" horiz-adv-x="1000" />

<glyph glyph-name="external-link" unicode="&#xe819;" d="M438 725c-244 0-438-194-438-437s194-438 438-438 437 194 437 438h-62c0-207-169-376-375-376s-375 169-375 376 168 375 375 375v62z m500 125h-438v-62h388l-475-475 43-44 482 481v-400h62v500z" horiz-adv-x="1000" />

<glyph glyph-name="facebook" unicode="&#xe81a;" d="M578 522h155l-16-172h-139v-500h-206v500h-105v172h105v106c0 72 17 128 50 166 39 39 95 56 173 56h138v-172h-83c-17 0-28 0-39-6-11 0-16-5-22-11-6-11-6-17-11-22 0-6 0-17 0-28v-89z" horiz-adv-x="1000" />

<glyph glyph-name="favorite" unicode="&#xe81b;" d="M728 739v0c111 0 216-67 216-195 0-188-294-455-444-566-150 116-444 383-444 566 0 134 111 195 211 195 83 0 150-39 189-100 11-17 27-28 50-28 0 0 0 0 0 0 22 0 38 11 50 33 27 56 94 95 172 95z m0 55c-95 0-184-44-228-133-50 89-144 133-233 133-134 0-267-88-267-250 0-277 500-638 500-638s500 361 500 638c0 162-139 250-272 250v0z" horiz-adv-x="1000" />

<glyph glyph-name="file" unicode="&#xe81c;" d="M944 739h-166v55c0 34-22 56-56 56h-666c-34 0-56-22-56-56v-777c0-34 22-56 56-56h166v-56c0-33 22-55 56-55h666c34 0 56 22 56 55v778c0 34-22 56-56 56z m-888-722v777h666v-777h-666z m888-111h-666v55h444c34 0 56 22 56 56v666h166v-777z m-777 694h444v-56h-444v56z m0-167h444v-55h-444v55z m0-166h444v-56h-444v56z" horiz-adv-x="1000" />

<glyph glyph-name="flickr" unicode="&#xe81d;" d="M813 850c50 0 93-19 131-56s56-81 56-131v-625c0-51-19-94-56-132s-81-56-131-56h-625c-50 0-94 19-132 56s-56 81-56 132v625c0 50 19 93 56 131s82 56 132 56h625z m-357-500c0 38-12 69-43 100s-57 38-100 38c-38 0-69-13-94-44-25-25-44-56-44-100 0-38 13-69 44-100 25-19 62-31 94-31 37 0 68 12 100 43 25 25 43 57 43 94z m369 0c0 38-12 69-44 100-25 25-62 38-93 38-38 0-69-13-100-44-25-25-44-56-44-100 0-38 12-69 44-100 25-25 56-44 100-44 37 0 68 13 93 44 25 37 44 69 44 106z" horiz-adv-x="1000" />

<glyph glyph-name="github" unicode="&#xe81e;" d="M698-150h-265c0 0 0 80 0 135-180-40-235 100-235 100-35 65-65 100-65 100-65 40 0 35 0 35 65 0 100-65 100-65 60-100 165-85 200-65 0 35 15 85 35 100-145 10-270 95-270 260s35 200 70 235c-10 15-35 75 0 165 0 0 65 0 130-100 35 35 135 35 165 35 35 0 135 0 165-35 65 100 130 100 130 100 35-90 10-150 0-165 40-35 75-70 75-235s-120-250-265-265c20-15 35-75 35-100l-5-235z" horiz-adv-x="1000" />

<glyph glyph-name="googleplus" unicode="&#xe81f;" d="M525 44c0 6 0 19-6 25 0 6 0 12-6 19 0 6-7 12-13 18s-12 13-12 19c-7 6-13 13-19 19s-13 12-19 19c-6 0-12 6-19 12s-12 13-18 13c0 6-13 6-19 12-13 6-19 13-19 13-6 0-19 0-31 0-25 0-44 0-63-7s-43-6-62-18c-25-7-44-13-56-25-7 0-25-13-38-32s-19-37-19-62c0-25 7-50 19-69 13-25 31-38 56-50s44-25 69-25c25-6 50-13 75-13s44 0 69 7c19 6 37 12 56 25s31 25 44 43c25 13 31 32 31 57v0z m-69 525c0 25 0 50-6 75s-19 50-31 75c-13 25-31 44-50 62-25 19-50 25-75 25-38 0-63-12-88-43s-31-63-31-100c0-19 0-38 6-57s13-43 19-62c6-19 19-38 31-56s25-32 44-38c19-12 38-12 56-12 38 0 69 12 82 37 31 19 43 50 43 94v0z m-81 281h263l-82-44h-81c25-18 50-43 63-75 18-37 25-68 25-106 0-31-7-56-13-81-12-25-19-44-31-56s-25-25-38-38c-12-12-25-25-31-37-12-13-12-25-12-44 0-13 6-19 12-31s13-19 25-32c13-6 25-18 38-31 12-6 25-19 37-31s25-25 38-38c12-12 18-31 25-50s12-37 12-62c0-63-25-119-81-169-63-50-144-75-250-75-25 0-50 0-69 6-25 6-50 13-75 19-25 12-44 19-62 37s-32 32-44 50c-38 25-44 51-44 76s6 50 25 81c13 25 31 44 56 62s57 32 88 44c31 6 62 19 94 19 31 6 56 6 87 6-25 31-37 63-37 88 0 6 0 12 0 12 0 6 0 6 6 13 0 0 0 6 6 12 0 6 0 6 6 13-18 0-31-7-43-7-63 0-113 19-157 57-43 56-68 106-68 168 0 50 18 100 62 150 38 44 81 75 138 88 37 6 75 6 112 6v0z m625-156v-75h-156v-156h-75v156h-156v75h156v156h75v-156h156z" horiz-adv-x="1000" />

<glyph glyph-name="no" unicode="&#xe820;" d="M480 830q200 0 340-140t140-340q0-198-140-339t-340-141q-198 0-339 141t-141 339q0 200 141 340t339 140z m258-220z m-622-260q0-132 82-230l514 514q-100 82-232 82-152 0-258-107t-106-259z m106-258z m258-106q152 0 259 107t107 257q0 130-82 232l-514-514q98-82 230-82z" horiz-adv-x="960" />

<glyph glyph-name="instagram" unicode="&#xe821;" d="M778 850h-556c-122 0-222-100-222-222v-556c0-122 100-222 222-222h556c122 0 222 100 222 222v556c0 122-100 222-222 222z m-556-56h556c94 0 166-72 166-166v-145h-311c-39 17-89 34-133 34s-94-17-133-34h-311v145c0 94 72 166 166 166z m511-555c0-128-105-233-233-233s-233 100-233 233c0 83 44 161 116 200 34 17 73 33 117 33s83-11 117-33c72-45 116-117 116-200z m45-333h-556c-94 0-166 72-166 166v367h250c-50-50-84-122-84-200 0-156 122-278 278-278s278 122 278 278c0 78-34 150-84 200h250v-367c0-94-72-166-166-166z m-278 450c67 0 122-56 122-123s-55-122-122-122-122 56-122 122 55 123 122 123z m0 44c-94 0-167-72-167-167s73-166 167-166 167 72 167 166-73 167-167 167v0z m289 294v-116h-117v116h117z m5 45h-127c-23 0-39-17-39-39v-128c0-22 16-39 39-39h127c23 0 39 17 39 39v128c0 22-16 39-39 39v0z" horiz-adv-x="1000" />

<glyph glyph-name="link" unicode="&#xe822;" d="M489 489c33 0 61-22 61-56v-116h61v116c0 61-55 111-122 111v0h-367c-66 0-122-50-122-111v-222c0-61 56-111 122-111h245v56h-245c-33 0-61 22-61 55v222c0 34 28 56 61 56h367z m22-278c-33 0-61 22-61 56v116h-61v-116c0-61 55-111 122-111v0h367c66 0 122 50 122 111v222c0 61-56 111-122 111h-245v-55h245c33 0 61-23 61-56v-222c0-34-28-56-61-56h-367z" horiz-adv-x="1000" />

<glyph glyph-name="linkedin" unicode="&#xe823;" d="M1000 240v-370h-215v345c0 85-30 145-110 145-60 0-95-40-110-80-5-15-5-35-5-50v-360h-215c0 0 5 585 0 645h215v-90c0 0 0 0 0 0v0 0c30 45 80 105 195 105 140 0 245-90 245-290z m-880 590c-70 0-120-50-120-115 0-60 45-110 120-110v0c75 0 120 50 120 110 0 65-45 115-120 115z m-105-960h215v645h-215v-645z" horiz-adv-x="1000" />

<glyph glyph-name="list" unicode="&#xe824;" d="M0 406h111v-112h-111v112z m0-223h111v-111h-111v111z m0 445h111v-111h-111v111z m222-222h778v-112h-778v112z m0-223h778v-111h-778v111z m0 445h778v-111h-778v111z" horiz-adv-x="1000" />

<glyph glyph-name="lock" unicode="&#xe825;" d="M595 183c0-52-42-95-95-95s-95 43-95 95c0 53 42 96 95 96s95-43 95-96z m238 334h-90v95c0 133-105 238-238 238s-238-105-238-238v0-95h-100c-29 0-48-19-48-48v-571c0-29 19-48 48-48h666c29 0 48 19 48 48v571c0 29-19 48-48 48z m-519 95c0 105 86 190 191 190s190-85 190-190v-95h-381v95z m519-714h-666v571h666v-571z" horiz-adv-x="1000" />

<glyph glyph-name="mail" unicode="&#xe826;" d="M944 683h-888c-34 0-56-22-56-55v-556c0-33 22-55 56-55h888c34 0 56 22 56 55v556c0 33-22 55-56 55z m-27-55l-417-300-417 300h834z m-861-556v506l444-322 444 322v-506h-888z" horiz-adv-x="1000" />

<glyph glyph-name="medium" unicode="&#xe827;" d="M700 75l300-150c0 0 0 0 0 0s0 0 0 0v635l-300-485z m-20 700l-210-340 205-335 315 520z m-335-525l275-135-275 445z m-345-160c0-5 5-10 10-15l300-150c0 0 0 0 0 0s0 0 0 0v690l-310 155v-680z" horiz-adv-x="1000" />

<glyph glyph-name="more-actions" unicode="&#xe828;" d="M625 350c0-69-56-125-125-125s-125 56-125 125c0 69 56 125 125 125s125-56 125-125z m-375 0c0-69-56-125-125-125s-125 56-125 125c0 69 56 125 125 125s125-56 125-125z m750 0c0-69-56-125-125-125s-125 56-125 125c0 69 56 125 125 125s125-56 125-125z" horiz-adv-x="1000" />

<glyph glyph-name="more-items" unicode="&#xe829;" d="M625 350c0-69-56-125-125-125s-125 56-125 125c0 69 56 125 125 125s125-56 125-125z m0 375c0-69-56-125-125-125s-125 56-125 125c0 69 56 125 125 125s125-56 125-125z m0-750c0-69-56-125-125-125s-125 56-125 125c0 69 56 125 125 125s125-56 125-125z" horiz-adv-x="1000" />

<glyph glyph-name="pdf" unicode="&#xe82a;" d="M944 739h-166v55c0 34-22 56-56 56h-666c-34 0-56-22-56-56v-777c0-34 22-56 56-56h166v-56c0-33 22-55 56-55h666c34 0 56 22 56 55v778c0 34-22 56-56 56z m-888-722v777h666v-777h-666z m888-111h-666v55h444c34 0 56 22 56 56v666h166v-777z m-755 488h-39v-72h-44v245h89c55 0 83-28 83-84 0-27-6-50-22-66s-39-23-67-23z m-39 45h39c22 0 39 17 39 44 0 17-6 28-11 34-6 0-11 5-28 5h-39v-83z m239-111h-78v239h78c22 0 39 0 50-6s22-11 33-22c6-11 11-22 17-33s5-34 5-50 0-39-5-56c0-17-6-28-17-39-5-11-16-17-33-22-11-11-28-11-50-11z m50 94c0 6 0 17 0 34s0 22 0 33c0 6-6 17-6 22 0 0-5 6-16 6-6 0-17 5-28 5h-28v-155h28c17 0 28 5 39 11 5 11 11 22 11 44z m94-94v239h150v-45h-105v-72h89v-44h-84v-84h-50z" horiz-adv-x="1000" />

<glyph glyph-name="pin" unicode="&#xe82b;" d="M794 556c0-162-294-706-294-706s-294 544-294 706c0 163 132 294 294 294s294-131 294-294z" horiz-adv-x="1000" />

<glyph glyph-name="print" unicode="&#xe82c;" d="M921 634v-421h-842v421h842z m0 53h-842c-32 0-53-21-53-53v-421c0-31 21-52 53-52h842c32 0 53 21 53 52v421c0 32-21 53-53 53v0z m-53-158c0-29-23-53-52-53s-53 24-53 53c0 29 24 53 53 53s52-24 52-53z m-105 268v-105h-526v105h526z m53 53h-632v-210h632v210z m-53-689v-258h-526v258h526z m53 52h-632v-363h632v363z m-526-105h421v-53h-421v53z m0-105h421v-53h-421v53z" horiz-adv-x="1000" />

<glyph glyph-name="refresh" unicode="&#xe82f;" d="M889 350c0-217-172-389-389-389s-389 172-389 389c0 217 172 389 389 389 94 0 183-33 256-95l-128-127h316v311l-111-111c-89 89-211 133-333 133-278 0-500-222-500-500s222-500 500-500 500 222 500 500h-111z" horiz-adv-x="1000" />

<glyph glyph-name="rss" unicode="&#xe830;" d="M274-6c0-39-17-72-39-94-28-33-61-45-94-45-39 0-72 12-94 39s-44 61-44 100 11 72 38 94 56 38 94 38c39 0 72-11 94-38 28-28 44-61 44-94z m364-89c0-11 0-22-11-33-5-11-22-17-33-17h-94c-11 0-22 6-28 12-11 5-16 16-16 27-11 105-55 199-133 277s-166 116-276 127c-11 0-22 5-28 16-16 11-16 22-16 33v94c0 11 5 22 16 33 6 11 17 11 28 11h6c71-5 143-22 215-55s127-72 182-127c56-50 94-116 127-182s50-144 61-216v0z m359-5c0-11 0-22-11-33-5-12-22-17-33-17h-99c-11 0-22 5-34 11-5 6-11 22-11 28-5 99-27 199-71 287-45 94-94 171-166 238-66 66-144 121-238 165s-188 78-287 78c-11 0-22 5-28 16-11 11-16 22-16 33v100c0 11 5 22 16 33 6 11 17 11 28 11v0c122-5 243-33 354-83 116-50 215-116 303-210 89-88 155-188 210-298 50-116 78-232 83-359v0z" horiz-adv-x="1000" />

<glyph glyph-name="search" unicode="&#xe831;" d="M0-111l313 313c-62 67-95 156-95 257 0 218 173 391 391 391s391-173 391-391c0-218-173-391-391-391-101 0-190 39-257 95l-313-313-39 39z m603 229c185 0 336 151 336 335s-151 336-336 336-335-151-335-336 151-335 335-335z" horiz-adv-x="1000" />

<glyph glyph-name="settings" unicode="&#xe832;" d="M578 800l15-110 5-30 25-10c25-10 50-25 75-40l25-15 20 5 105 45 80-135-90-70-20-15 5-30c0-15 5-30 5-45s0-25-5-45l-5-30 20-15 90-70-80-135-105 45-25 10-20-15c-25-20-50-35-75-45l-25-10-5-30-15-110h-155l-15 110-10 30-25 10c-25 10-50 25-75 40l-25 15-20-5-105-45-80 135 90 70 20 15-5 30c0 15-5 30-5 45s0 25 5 45l5 30-20 15-90 65 80 140 105-45 25-10 20 20c25 15 50 30 75 40l25 10 5 30 15 110h160z m-80-675c125 0 225 100 225 225s-100 225-225 225-225-100-225-225 100-225 225-225z m100 725h-200c-10 0-25-10-25-20l-20-135c-30-10-55-30-85-50l-120 50c-5 5-10 5-10 5-10 0-20-5-25-15l-100-175c-5-5 0-20 10-30l105-80c0-15-5-30-5-50s0-35 5-50l-105-85c-10-5-10-20-5-30l100-175c0-5 10-10 20-10 5 0 5 0 10 0l125 50c25-20 55-35 85-50l20-130c0-10 10-20 25-20h200c10 0 25 10 25 20l20 130c30 10 60 30 85 50l125-50c5 0 5 0 10 0 10 0 15 5 20 15l100 175c5 10 5 25-5 30l-115 80c0 15 5 30 5 50s0 35-5 50l105 85c10 5 10 20 5 30l-100 175c0 5-10 10-20 10-5 0-5 0-10 0l-125-50c-25 20-55 35-85 50l-20 135c5 5-5 15-20 15v0z m-100-675c-95 0-175 80-175 175s80 175 175 175 175-80 175-175-80-175-175-175v0z" horiz-adv-x="1000" />

<glyph glyph-name="share" unicode="&#xe833;" d="M350 350c0-6 0-6 0-12l356-182c32 25 69 44 113 44 100 0 175-81 175-175 0-100-81-175-175-175-100 0-175 81-175 175 0 6 0 6 0 13l-356 181c-32-25-69-44-113-44-94 0-175 75-175 175s81 175 175 175c44 0 81-12 113-44l362 182c0 6 0 6 0 12 0 100 81 175 175 175s175-81 175-175-81-175-175-175c-44 0-81 13-112 44l-357-181c-6-7-6-7-6-13z" horiz-adv-x="1000" />

<glyph glyph-name="slideshare" unicode="&#xe834;" d="M59 850v-481c-12 6-31 19-43 6s6-25 6-37c62-63 131-107 206-138-19-50-25-106-19-162 13-94 75-188 175-188 50 0 100 31 100 87v213c13 0 25-6 38-12v-194c0-13 0-25 6-38 19-31 56-50 94-50 106 6 162 94 175 188 6 56 0 112-19 162 69 32 200 88 219 169 0 13-6 13-19 13s-25-7-31-13v475h-888z m57-50h800v-462c-13-7-25-13-38-19l-712-13c-19 7-38 19-50 25v469z m262-244c-69 0-119-50-119-118 0-63 50-119 119-119 63 0 119 56 119 119s-50 118-119 118z m281 0c-62 0-118-50-118-118 0-63 56-119 118-119 69 0 119 56 119 119s-50 118-119 118z" horiz-adv-x="1000" />

<glyph glyph-name="twitter" unicode="&#xe835;" d="M1000 658c-28-38-61-72-106-105v-28c0-94-22-183-61-272-44-89-111-161-205-222-89-62-195-89-311-89s-223 27-317 89c11 0 28 0 50 0 94 0 178 27 256 83-45 0-84 17-117 44s-61 62-72 100c5 0 16-5 33-5s39 0 56 5c-50 12-89 34-117 73-33 50-44 88-44 138v0c27-11 55-22 88-27-61 50-88 105-88 177 0 34 11 67 27 100 111-133 250-205 423-211-6 11-6 28-6 45 0 55 17 105 61 144 39 39 89 61 145 61 61 0 105-16 150-61 44 11 88 22 127 45-16-45-44-84-89-111 39 5 78 16 117 27z" horiz-adv-x="1000" />

<glyph glyph-name="unlock" unicode="&#xe836;" d="M595 183c0-52-42-95-95-95s-95 43-95 95c0 53 42 96 95 96s95-43 95-96z m238 334h-90v95c0 133-105 238-238 238s-238-105-238-238v0h47c0 105 86 190 191 190s190-85 190-190v-95h-528c-29 0-48-19-48-48v-571c0-29 19-48 48-48h666c29 0 48 19 48 48v571c0 29-19 48-48 48z m0-619h-666v571h666v-571z" horiz-adv-x="1000" />

<glyph glyph-name="upload" unicode="&#xe837;" d="M15 850h970v-61h-970v61z m485-236l333-315h-181v-388h-291v394h-194l333 309z m0 85l-485-455h279v-394h418v394h273l-485 455z" horiz-adv-x="1000" />

<glyph glyph-name="video" unicode="&#xe838;" d="M972 639c-5 5-16 5-22 5-11 0-22-5-33-11l-139-111v106c0 33-22 55-56 55h-666c-34 0-56-22-56-55v-556c0-33 22-55 56-55h666c34 0 56 22 56 55v95l139-111c11-6 22-12 33-12 6 0 17 0 22 6 17 11 28 28 28 44v500c0 17-11 39-28 45z m-250-567h-666v556h666v-556z m228 28l-172 133v223l172 144v-500z" horiz-adv-x="1000" />

<glyph glyph-name="warning" unicode="&#xe839;" d="M957-24q10-16 0-34-10-16-30-16l-892 0q-18 0-28 16-13 18-2 34l446 782q8 18 30 18t30-18z m-420 50l0 100-110 0 0-100 110 0z m0 174l0 300-110 0 0-300 110 0z" horiz-adv-x="962" />

<glyph glyph-name="whatsapp" unicode="&#xe83a;" d="M636 300c6 0 28-11 61-28 39-16 56-28 56-33 0 0 0-6 0-11 0-17-6-34-11-50s-22-34-45-45c-22-11-44-16-66-16s-67 11-123 39c-38 22-77 44-111 77s-61 73-94 123c-28 44-39 88-39 122v5c0 39 17 73 50 100 6 11 17 17 28 17 0 0 5 0 11 0s11 0 11 0 11 0 17-6c5 0 5-5 11-16 0-11 11-28 22-61 11-28 17-45 17-50 0-11-6-23-23-39-11-6-22-17-22-22 0 0 0-6 0-12 17-33 39-61 67-88 22-23 55-45 100-67 5 0 11-6 17-6s16 11 33 34c17 22 28 33 33 33v0z m-128-344c56 0 106 11 162 33 50 22 94 50 127 83s67 78 84 128c22 50 33 106 33 161s-11 106-33 156c-23 55-50 100-89 133s-78 67-128 89c-50 22-106 33-161 33s-106-16-156-33c-50-22-94-50-127-89s-67-78-89-128c-23-50-28-105-28-161 0-89 22-166 78-239l-50-150 155 50c67-44 139-66 222-66z m0 894c67 0 128-11 189-39 61-22 111-61 156-105s78-95 105-156c28-61 39-122 39-189s-11-128-39-189c-22-61-61-111-105-155s-95-78-156-106c-61-22-122-39-189-39-83 0-161 22-233 61l-272-83 83 261c-44 72-66 161-66 250 0 67 11 128 38 189 23 61 62 111 106 156s94 77 156 105c55 28 122 39 188 39z" horiz-adv-x="1000" />

<glyph glyph-name="youtube-text" unicode="&#xe83b;" d="M613 155v-118c0-24-9-39-19-39s-20 5-25 10v167c10 10 15 15 25 15 14 0 19-15 19-35v0z m192-4v-25h-49v25c0 24 10 39 25 39s24-15 24-39v0z m-546 123h59v49h-173v-49h60v-321h59v321z m162-321h49v276h-49v-211c-10-15-19-25-29-25s-10 5-10 10c0 0 0 10 0 19v202h-49v-221c0-20 0-30 5-40 4-15 14-19 34-19s39 9 59 34v-25z m242 84v114c0 24 0 44-5 54-5 19-20 29-40 29s-39-10-54-29v123h-49v-375h49v30c20-20 35-30 54-30s35 10 40 30c5 10 5 25 5 54z m192 5v10h-50c0-20 0-30 0-34 0-10-9-20-19-20-20 0-25 15-25 39v49h99v60c0 29-5 49-15 64-15 19-35 29-59 29s-45-10-59-29c-10-15-15-35-15-64v-99c0-29 5-49 20-64 14-20 34-30 59-30s49 10 59 30c10 10 10 20 10 30-5 0-5 14-5 29z m-345 512v119c0 24-10 39-25 39s-24-15-24-39v-119c0-24 9-39 24-39 20 0 25 15 25 39z m409-418c0-89-5-153-15-197-5-20-15-40-30-55-19-14-34-24-59-24-69-10-172-10-315-10s-246 0-315 5c-20 0-40 10-59 25-15 14-30 34-30 54-10 44-15 108-15 197s5 153 15 197c5 25 15 39 30 59 19 15 34 25 59 25 69 9 172 9 310 9s246-4 315-9c20 0 40-10 59-25 15-15 30-34 30-59 15-40 20-104 20-192v0z m-562 714h59l-74-222v-152h-54v152c-5 25-15 64-34 119-15 39-25 73-35 103h59l40-148 39 148z m207-187v-99c0-29-5-54-15-69-14-19-34-29-59-29s-44 10-59 29c-10 15-15 40-15 69v99c0 29 5 49 15 64 15 20 35 29 59 29s45-9 59-29c10-10 15-35 15-64z m187 93v-280h-49v29c-20-24-39-34-59-34s-30 5-35 19c-5 10-5 25-5 45v222h50v-207c0-10 0-20 0-20 0-10 5-10 10-10 9 0 19 10 29 25v211h59z" horiz-adv-x="1000" />

<glyph glyph-name="youtube" unicode="&#xe83c;" d="M985 585c-10 55-55 90-110 100-125 15-250 15-375 15s-250 0-375-15c-50-5-95-45-110-100-15-75-15-155-15-235s0-160 15-235c10-55 55-90 110-100 125-15 250-15 375-15s250 0 375 15c50 5 95 45 110 100 15 75 15 155 15 235s0 160-15 235z m-615-390c0 110 0 220 0 330 105-55 210-110 320-165-105-55-215-110-320-165z" horiz-adv-x="1000" />

<glyph glyph-name="zoom-in" unicode="&#xe83d;" d="M0-111l313 313c-62 67-95 156-95 257 0 218 173 391 391 391s391-173 391-391c0-218-173-391-391-391-101 0-190 39-257 95l-313-313-39 39z m609 229c184 0 335 151 335 335s-151 336-335 336-335-151-335-336 151-335 335-335z m-168 358h140v139h56v-139h140v-56h-140v-140h-56v140h-140z" horiz-adv-x="1000" />

<glyph glyph-name="zoom-out" unicode="&#xe83e;" d="M0-111l313 313c-62 67-95 156-95 257 0 218 173 391 391 391s391-173 391-391c0-218-173-391-391-391-101 0-190 39-257 95l-313-313-39 39z m603 229c185 0 336 151 336 335s-151 336-336 336-335-151-335-336 151-335 335-335z m174 369h-336v-56h336v56z" horiz-adv-x="1000" />

<glyph glyph-name="error" unicode="&#xe83f;" d="M885 234q20-16 16-33t-28-23l-78-22q-24-6-40-28t-14-48l4-82q2-24-14-34t-38 0l-86 44q-22 12-47 4t-35-30l-46-88q-12-22-29-23t-33 19l-50 78q-34 48-88 20l-122-70q-22-14-32-6t-2 32l54 164q8 24-4 44t-36 22l-106 12q-24 4-29 18t15 30l86 76q20 16 20 41t-20 41l-86 76q-20 16-16 33t28 23l78 22q24 6 41 28t15 48l-6 82q0 26 15 36t37 0l80-38q24-10 49-2t37 30l46 80q12 22 30 21t30-23l50-86q12-22 35-29t45 7l136 84q22 14 30 6t0-32l-60-170q-10-22 2-41t38-21l114-12q26-2 30-16t-16-30l-86-76q-18-16-18-41t18-41z m-384-92l0 104-100 0 0-104 100 0z m0 160l0 260-100 0 0-260 100 0z" horiz-adv-x="901" />

<glyph glyph-name="info" unicode="&#xe840;" d="M454 810q190 2 326-130t140-322q2-190-131-327t-323-141q-190-2-327 131t-139 323q-4 190 130 327t324 139z m52-152q-42 0-65-24t-23-50q-2-28 15-44t49-16q38 0 61 22t23 54q0 58-60 58z m-120-594q30 0 84 26t106 78l-18 24q-48-36-72-36-14 0-4 38l42 160q26 96-22 96-30 0-89-29t-115-75l16-26q52 34 74 34 12 0 0-34l-36-152q-26-104 34-104z" horiz-adv-x="920" />

<glyph glyph-name="paper-plane" unicode="&#xe841;" d="M894 720q14 4 22-3t4-19q-2-6-72-310t-74-316q-2-14-14-19t-24 1l-248 134-30 16 22 26q388 420 394 426 4 4-1 9t-9 1l-550-402-112 44-190 76q-12 4-12 12t12 12q8 4 441 157t441 155z m-582-728l0 204 160-82q-130-116-142-128-18-14-18 6z" horiz-adv-x="921" />
</font>
</defs>
</svg>
