<?xml version="1.0" encoding="utf-8"?>
<!-- Generator: Adobe Illustrator 19.0.0, SVG Export Plug-In . SVG Version: 6.00 Build 0)  -->
<svg version="1.1" id="Layer_1" xmlns="http://www.w3.org/2000/svg" xmlns:xlink="http://www.w3.org/1999/xlink" x="0px" y="0px"
	 viewBox="0 0 483.3 128.8" style="enable-background:new 0 0 483.3 128.8;" xml:space="preserve">
<style type="text/css">
	.st0{fill:#1B72B8;}
	.st1{fill:#E5092E;}
	.st2{fill:#012E6D;}
</style>
<g>
	<path class="st0" d="M75.7,128.2C52.8,124,35.8,110,26.8,87.8c-1.7-4.2-3.9-11.6-3.5-11.9c0.1-0.1,7.2-0.3,15.7-0.3h15.5L87.8,92
		l33.3,16.4h7.4c4.7,0,7.4,0.2,7.4,0.5c0,1-6.4,6.6-10.3,9.2c-6.9,4.5-14.1,7.4-22.8,9.4C97.1,128.9,81.4,129.2,75.7,128.2
		L75.7,128.2z M88,79.6L54.5,63.3H0v-9.5h54.7l33.3,16.4l33.3,16.4H483v9.5l-180.7,0l-180.7,0L88,79.6z M452.2,75.7
		c-6.4-1.2-9.5-8.3-7.6-17.1c2-9.3,7.3-14.7,14.9-15.2c3.2-0.2,5.8,0.5,8.4,2.4c0.5,0.3,1,0.5,1.1,0.3c0.2-0.2,0.7-2.9,1.3-6.2
		c1.4-8.7,0.9-8,7.3-8c4.2,0,5.4,0.1,5.6,0.7c0.1,0.4-1,7.7-2.5,16.3c-1.5,8.6-3.1,17.5-3.5,19.9c-1.1,6.8-0.7,6.4-6.7,6.4h-5.1
		v-1.7c0-2-0.6-2.1-2.6-0.4C460.1,75.3,455.9,76.4,452.2,75.7L452.2,75.7z M463,66.4c1.8-0.9,3.2-3.2,3.9-6.6c1-4.7-0.7-7.5-4.4-7.5
		c-3.6,0-5.8,3.3-6.2,8.9c-0.2,3.2-0.1,3.5,1,4.6C458.8,67.2,460.8,67.4,463,66.4L463,66.4z M188.3,74.2c-3.6-1.1-5.8-2.8-7.5-5.6
		c-1.4-2.4-2.7-6.4-2.2-6.9c0.2-0.2,2.7-0.5,5.7-0.6l5.4-0.3l0.6,1.8c1.1,3.5,3.8,5.4,7.5,5.4c3.9,0,6.6-2.1,6.6-5.1
		c0-2.3-2.1-4.1-5.6-5.1c-11-3-15-4.8-17-7.8c-2.5-3.7-2.5-8.4,0.1-12.4c1.1-1.8,2.1-2.6,4.8-3.9l3.3-1.7h7.4c6.7,0,7.6,0.1,9.9,1.1
		c3.1,1.4,5.5,3.9,6.7,6.9c1.3,3.3,0.9,3.7-3.3,3.7c-1.9,0-4.3,0.1-5.2,0.3c-1.6,0.2-1.8,0.1-2.7-1.5c-1.5-2.7-3.2-3.7-6.3-3.7
		c-2.2,0-2.9,0.2-4,1.2c-1.5,1.5-1.7,3.4-0.4,4.7c0.5,0.5,3.7,1.6,7.5,2.6c10.2,2.7,13.6,4.5,15.5,8.6c0.7,1.5,1,3.1,1,5.4
		c0,5.6-2.9,10-8.3,12.5c-2.4,1.1-3.3,1.2-9.7,1.3C192.3,75.1,190.6,75,188.3,74.2L188.3,74.2z M423.4,74.8
		c-0.4-0.7,5.1-30.3,5.7-30.7c0.8-0.5,9.7-0.4,10.5,0.1c0.6,0.4,0.3,2.7-1.9,15.1c-1.4,8.1-2.7,14.9-2.8,15.3
		C434.6,75.2,423.8,75.4,423.4,74.8L423.4,74.8z M87.9,58.2L54.8,41.9l-14.5,0c-8,0-14.5-0.2-14.5-0.4c0-0.2,1.1-2.6,2.4-5.2
		l2.4-4.9h24l67,33.3h33.8l-0.3,4.3c-0.2,2.4-0.5,4.6-0.6,5c-0.2,0.6-2.6,0.7-16.9,0.6L121,74.6L87.9,58.2z M225.5,53.6l0.1-21.1
		h11.7v41.9l-11.9,0.3L225.5,53.6z M248.9,53.6l0.1-21.1l17.2-0.1l17.2-0.1v8.1h-10.7c-8.6,0-10.8,0.1-11.2,0.7
		c-0.4,0.4-0.5,1.9-0.4,3.9l0.1,3.3l10.2,0.2l10.2,0.2v7.6l-10.2,0.2l-10.2,0.2l-0.1,4.1c-0.1,3,0,4.2,0.5,4.6
		c0.4,0.4,4.3,0.6,11.6,0.7l10.9,0.1v8.1l-17.7,0.1l-17.7,0.1L248.9,53.6z M293.2,53.6l0.1-21.1H305l0.2,16.2l0.2,16.2l10.3,0.1
		l10.3,0.1v9.5h-33.1L293.2,53.6z M341.6,74.4c-0.2-0.2-0.3-7.5-0.3-16.2V42.3l-1.1-0.2c-0.6-0.1-3.6-0.3-6.7-0.4l-5.6-0.1v-9h39.4
		v9l-6.4,0.2c-3.5,0.1-6.6,0.4-6.8,0.6c-0.2,0.2-0.5,7.5-0.5,16.2l-0.1,15.8l-5.8,0.1C344.6,74.6,341.8,74.6,341.6,74.4L341.6,74.4z
		 M375.1,74.1c-0.1-0.3-0.2-9.8-0.1-21.1l0.1-20.5h34.6v7.6l-11,0.2l-11,0.2l-0.3,7.8l20.2,0.3v7.6l-10.1,0.1l-10.1,0.1l0.1,4.6
		l0.1,4.6l11.3,0.1l11.3,0.1v8.5h-17.5C379.3,74.7,375.3,74.5,375.1,74.1L375.1,74.1z M88.1,36.1L55.3,20l-7.4,0
		c-4.4,0-7.4-0.2-7.4-0.5c0-1.6,8.1-8.1,14.2-11.3C59.3,5.7,66.6,3,73,1.6c7.1-1.6,20.5-2.1,27.8-0.9C121.5,4,137.6,16,147,35
		c2.3,4.6,5.6,13.5,5.9,15.9l0.2,1.2l-16.1,0.1L121,52.3L88.1,36.1z M429.4,39.3c0-1.4,1.1-6.3,1.6-6.9c0.3-0.4,2.1-0.6,5.8-0.6
		c3.9,0,5.3,0.2,5.4,0.6c0.1,1-0.1,2.4-0.6,5l-0.5,2.5h-5.8C430.7,39.9,429.4,39.8,429.4,39.3L429.4,39.3z M429.4,39.3"/>
	<path class="st1" d="M75.7,128.2C52.8,124,35.8,110,26.8,87.8c-1.7-4.2-3.9-11.6-3.5-11.9c0.1-0.1,7.2-0.3,15.7-0.3h15.5L87.8,92
		l33.3,16.4h7.4c4.7,0,7.4,0.2,7.4,0.5c0,1-6.4,6.6-10.3,9.2c-6.9,4.5-14.1,7.4-22.8,9.4C97.1,128.9,81.4,129.2,75.7,128.2
		L75.7,128.2z M452.2,75.7c-6.4-1.2-9.5-8.3-7.6-17.1c2-9.3,7.3-14.7,14.9-15.2c3.2-0.2,5.8,0.5,8.4,2.4c0.5,0.3,1,0.5,1.1,0.3
		c0.2-0.2,0.7-2.9,1.3-6.2c1.4-8.7,0.9-8,7.3-8c4.2,0,5.4,0.1,5.6,0.7c0.1,0.4-1,7.7-2.5,16.3c-1.5,8.6-3.1,17.5-3.5,19.9
		c-1.1,6.8-0.7,6.4-6.7,6.4h-5.1v-1.7c0-2-0.6-2.1-2.6-0.4C460.1,75.3,455.9,76.4,452.2,75.7L452.2,75.7z M463,66.4
		c1.8-0.9,3.2-3.2,3.9-6.6c1-4.7-0.7-7.5-4.4-7.5c-3.6,0-5.8,3.3-6.2,8.9c-0.2,3.2-0.1,3.5,1,4.6C458.8,67.2,460.8,67.4,463,66.4
		L463,66.4z M188.3,74.2c-3.6-1.1-5.8-2.8-7.5-5.6c-1.4-2.4-2.7-6.4-2.2-6.9c0.2-0.2,2.7-0.5,5.7-0.6l5.4-0.3l0.6,1.8
		c1.1,3.5,3.8,5.4,7.5,5.4c3.9,0,6.6-2.1,6.6-5.1c0-2.3-2.1-4.1-5.6-5.1c-11-3-15-4.8-17-7.8c-2.5-3.7-2.5-8.4,0.1-12.4
		c1.1-1.8,2.1-2.6,4.8-3.9l3.3-1.7h7.4c6.7,0,7.6,0.1,9.9,1.1c3.1,1.4,5.5,3.9,6.7,6.9c1.3,3.3,0.9,3.7-3.3,3.7
		c-1.9,0-4.3,0.1-5.2,0.3c-1.6,0.2-1.8,0.1-2.7-1.5c-1.5-2.7-3.2-3.7-6.3-3.7c-2.2,0-2.9,0.2-4,1.2c-1.5,1.5-1.7,3.4-0.4,4.7
		c0.5,0.5,3.7,1.6,7.5,2.6c10.2,2.7,13.6,4.5,15.5,8.6c0.7,1.5,1,3.1,1,5.4c0,5.6-2.9,10-8.3,12.5c-2.4,1.1-3.3,1.2-9.7,1.3
		C192.3,75.1,190.6,75,188.3,74.2L188.3,74.2z M423.4,74.8c-0.4-0.7,5.1-30.3,5.7-30.7c0.8-0.5,9.7-0.4,10.5,0.1
		c0.6,0.4,0.3,2.7-1.9,15.1c-1.4,8.1-2.7,14.9-2.8,15.3C434.6,75.2,423.8,75.4,423.4,74.8L423.4,74.8z M87.9,58.2L54.8,41.9l-14.5,0
		c-8,0-14.5-0.2-14.5-0.4c0-0.2,1.1-2.6,2.4-5.2l2.4-4.9h24l67,33.3h33.8l-0.3,4.3c-0.2,2.4-0.5,4.6-0.6,5
		c-0.2,0.6-2.6,0.7-16.9,0.6L121,74.6L87.9,58.2z M225.5,53.6l0.1-21.1h11.7v41.9l-11.9,0.3L225.5,53.6z M248.9,53.6l0.1-21.1
		l17.2-0.1l17.2-0.1v8.1h-10.7c-8.6,0-10.8,0.1-11.2,0.7c-0.4,0.4-0.5,1.9-0.4,3.9l0.1,3.3l10.2,0.2l10.2,0.2v7.6l-10.2,0.2
		l-10.2,0.2l-0.1,4.1c-0.1,3,0,4.2,0.5,4.6c0.4,0.4,4.3,0.6,11.6,0.7l10.9,0.1v8.1l-17.7,0.1l-17.7,0.1L248.9,53.6z M293.2,53.6
		l0.1-21.1H305l0.2,16.2l0.2,16.2l10.3,0.1l10.3,0.1v9.5h-33.1L293.2,53.6z M341.6,74.4c-0.2-0.2-0.3-7.5-0.3-16.2V42.3l-1.1-0.2
		c-0.6-0.1-3.6-0.3-6.7-0.4l-5.6-0.1v-9h39.4v9l-6.4,0.2c-3.5,0.1-6.6,0.4-6.8,0.6c-0.2,0.2-0.5,7.5-0.5,16.2l-0.1,15.8l-5.8,0.1
		C344.6,74.6,341.8,74.6,341.6,74.4L341.6,74.4z M375.1,74.1c-0.1-0.3-0.2-9.8-0.1-21.1l0.1-20.5h34.6v7.6l-11,0.2l-11,0.2l-0.3,7.8
		l20.2,0.3v7.6l-10.1,0.1l-10.1,0.1l0.1,4.6l0.1,4.6l11.3,0.1l11.3,0.1v8.5h-17.5C379.3,74.7,375.3,74.5,375.1,74.1L375.1,74.1z
		 M429.4,39.3c0-1.4,1.1-6.3,1.6-6.9c0.3-0.4,2.1-0.6,5.8-0.6c3.9,0,5.3,0.2,5.4,0.6c0.1,1-0.1,2.4-0.6,5l-0.5,2.5h-5.8
		C430.7,39.9,429.4,39.8,429.4,39.3L429.4,39.3z M429.4,39.3"/>
	<path class="st2" d="M75.7,128.2C52.8,124,35.8,110,26.8,87.8c-1.7-4.2-3.9-11.6-3.5-11.9c0.1-0.1,7.2-0.3,15.7-0.3h15.5L87.8,92
		l33.3,16.4h7.4c4.7,0,7.4,0.2,7.4,0.5c0,1-6.4,6.6-10.3,9.2c-6.9,4.5-14.1,7.4-22.8,9.4C97.1,128.9,81.4,129.2,75.7,128.2
		L75.7,128.2z M188.3,74.2c-3.6-1.1-5.8-2.8-7.5-5.6c-1.4-2.4-2.7-6.4-2.2-6.9c0.2-0.2,2.7-0.5,5.7-0.6l5.4-0.3l0.6,1.8
		c1.1,3.5,3.8,5.4,7.5,5.4c3.9,0,6.6-2.1,6.6-5.1c0-2.3-2.1-4.1-5.6-5.1c-11-3-15-4.8-17-7.8c-2.5-3.7-2.5-8.4,0.1-12.4
		c1.1-1.8,2.1-2.6,4.8-3.9l3.2-1.7l3.2-0.6c8.3-1.5,11.9,0.7,14.2,1.7c3.1,1.4,5.5,3.9,6.7,6.9c1.3,3.3,0.9,3.7-3.3,3.7
		c-1.9,0-4.3,0.1-5.2,0.3c-1.6,0.2-1.8,0.1-2.7-1.5c-1.5-2.7-3.2-3.7-6.3-3.7c-2.2,0-2.9,0.2-4,1.2c-1.5,1.5-1.7,3.4-0.4,4.7
		c0.5,0.5,3.7,1.6,7.5,2.6c10.2,2.7,13.6,4.5,15.5,8.6c0.7,1.5,1,3.1,1,5.4c0,5.6-2.9,10-8.3,12.5c-2.4,1.1-3.3,1.2-9.7,1.3
		C192.3,75.1,190.6,75,188.3,74.2L188.3,74.2z M87.9,58.2L54.8,41.9l-14.5,0c-8,0-14.5-0.2-14.5-0.4c0-0.2,1.1-2.6,2.4-5.2l2.4-4.9
		h24l67,33.3h33.8l-0.3,4.3c-0.2,2.4-0.3,5.5-0.7,5.5c-1.1,0.1-2.5,0.2-16.8,0.1L121,74.6L87.9,58.2z M225.5,53.6l0.1-21.1h11.7
		v41.9l-11.9,0.3L225.5,53.6z M248.9,53.6l0.1-21.1l17.2-0.1l17.2-0.1v8.1h-10.7c-8.6,0-10.8,0.1-11.2,0.7c-0.4,0.4-0.5,1.9-0.4,3.9
		l0.1,3.3l10.2,0.2l10.2,0.2v7.6l-10.2,0.2l-10.2,0.2l-0.1,4.1c-0.1,3,0,4.2,0.5,4.6c0.4,0.4,4.3,0.6,11.6,0.7l10.9,0.1v8.1
		l-17.7,0.1l-17.7,0.1L248.9,53.6z M293.2,53.6l0.1-21.1H305l0.2,16.2l0.2,16.2l10.3,0.1l10.3,0.1v9.5h-33.1L293.2,53.6z
		 M341.6,74.4c-0.2-0.2-0.3-7.5-0.3-16.2V42.3l-1.1-0.2c-0.6-0.1-3.6-0.3-6.7-0.4l-5.6-0.1v-9h39.4v9l-6.4,0.2
		c-3.5,0.1-6.6,0.4-6.8,0.6c-0.2,0.2-0.5,7.5-0.5,16.2l-0.1,15.8l-5.8,0.1C344.6,74.6,341.8,74.6,341.6,74.4L341.6,74.4z
		 M375.1,74.1c-0.1-0.3-0.2-9.8-0.1-21.1l0.1-20.5h34.6v7.6l-11,0.2l-11,0.2l-0.3,7.8l20.2,0.3v7.6l-10.1,0.1l-10.1,0.1l0.1,4.6
		l0.1,4.6l11.3,0.1l11.3,0.1v8.5h-17.5C379.3,74.7,375.3,74.5,375.1,74.1L375.1,74.1z M375.1,74.1"/>
</g>
</svg>
