<?xml version="1.0" encoding="utf-8"?>
<!-- Generator: Adobe Illustrator 19.0.0, SVG Export Plug-In . SVG Version: 6.00 Build 0)  -->
<svg version="1.1" id="Livello_1" xmlns="http://www.w3.org/2000/svg" xmlns:xlink="http://www.w3.org/1999/xlink" x="0px" y="0px"
	 viewBox="-210.7 255.1 332.5 83.5" style="enable-background:new -210.7 255.1 332.5 83.5;" xml:space="preserve">
<style type="text/css">
	.st0{fill:#2864AE;}
	.st1{fill:#343434;}
</style>
<g>
	<path class="st0" d="M-34.9,338.7V324h4.5c0.9,0,1.6,0.1,2.2,0.3c0.6,0.2,1.1,0.5,1.6,0.9c1,0.9,1.6,2.1,1.6,3.4
		c0,0.7-0.1,1.4-0.4,2s-0.6,1.2-1.1,1.6c-0.6,0.5-1.3,0.9-2.3,1.1l4,5.4h-3.3l-3.9-5.6v5.6H-34.9z M-32.2,331h1.7
		c0.9,0,1.5-0.2,2-0.7c0.4-0.4,0.6-0.9,0.6-1.6c0-0.7-0.2-1.2-0.7-1.6s-1.1-0.6-1.9-0.6h-1.8L-32.2,331L-32.2,331z"/>
	<path class="st0" d="M-17.7,338.7V324h7.9v2.5H-15v3.6h5v2.5h-5v3.5h5.2v2.5h-7.9V338.7z"/>
	<path class="st0" d="M3.2,333.7v-2.5h9.6c0,0.2,0,0.3,0,0.3c0,1.3-0.4,2.5-1.1,3.7c-0.7,1.2-1.7,2.1-2.9,2.7c-1.2,0.7-2.5,1-3.8,1
		c-1.4,0-2.7-0.3-3.9-1c-1.2-0.7-2.2-1.6-2.9-2.8c-0.7-1.2-1.1-2.5-1.1-3.8c0-1.6,0.5-3.1,1.4-4.4c0.9-1.2,2-2,3.4-2.6
		c1-0.4,2-0.6,3-0.6s1.9,0.2,2.8,0.5c0.9,0.3,1.7,0.8,2.4,1.5c0.9,0.8,1.5,1.7,1.9,2.6H8.8c-0.4-0.6-1-1.1-1.7-1.5s-1.4-0.5-2.2-0.5
		c-1.5,0-2.7,0.5-3.6,1.5c-0.4,0.5-0.8,1-1,1.7c-0.2,0.7-0.4,1.3-0.4,1.9c0,1,0.3,2,0.9,2.9c0.5,0.8,1.3,1.4,2.2,1.8
		c0.6,0.3,1.3,0.4,2.1,0.4c0.9,0,1.8-0.2,2.5-0.7c0.8-0.5,1.4-1.1,1.8-2L3.2,333.7L3.2,333.7z"/>
	<path class="st0" d="M20.1,338.7V324h2.7v14.7C22.8,338.7,20.1,338.7,20.1,338.7z"/>
	<path class="st0" d="M29.9,334.5h2.8c0,0.6,0.2,1.1,0.6,1.4c0.4,0.4,0.8,0.5,1.4,0.5s1.1-0.2,1.4-0.5c0.4-0.3,0.6-0.8,0.6-1.3
		s-0.1-0.9-0.4-1.3c-0.3-0.3-0.8-0.6-1.5-0.9c-1.1-0.4-1.8-0.7-2.1-0.8c-0.3-0.2-0.7-0.4-1-0.7c-0.8-0.8-1.2-1.8-1.2-3
		c0-1.1,0.4-2,1.2-2.8c0.9-0.9,1.9-1.3,3.1-1.3c0.6,0,1.3,0.1,1.9,0.4c0.6,0.3,1.1,0.7,1.5,1.2c0.6,0.7,0.9,1.6,0.9,2.6h-2.8
		c0-0.5-0.2-0.9-0.5-1.2s-0.7-0.4-1.1-0.4c-0.5,0-0.8,0.1-1.1,0.4c-0.3,0.3-0.4,0.6-0.4,1.1s0.2,0.9,0.6,1.2
		c0.3,0.2,0.9,0.5,1.9,0.9c1.1,0.4,2,0.8,2.5,1.4c0.9,0.8,1.3,1.9,1.3,3.1c0,1.3-0.4,2.4-1.3,3.3c-1,1-2.1,1.4-3.4,1.4
		c-0.7,0-1.4-0.2-2.1-0.5c-0.7-0.3-1.2-0.8-1.7-1.3C30.3,336.4,30,335.5,29.9,334.5z"/>
	<path class="st0" d="M48.3,338.7v-12.2h-2.7V324h8.1v2.5H51v12.1h-2.7V338.7z"/>
	<path class="st0" d="M60.7,338.7V324h7.9v2.5h-5.2v3.6h5v2.5h-5v3.5h5.2v2.5h-7.9V338.7z"/>
	<path class="st0" d="M76.2,338.7V324h4.5c0.9,0,1.6,0.1,2.2,0.3c0.6,0.2,1.1,0.5,1.6,0.9c1,0.9,1.6,2.1,1.6,3.4
		c0,0.7-0.1,1.4-0.4,2s-0.6,1.2-1.1,1.6c-0.6,0.5-1.3,0.9-2.3,1.1l4,5.4H83l-3.9-5.6v5.6H76.2z M78.9,331h1.7c0.9,0,1.5-0.2,2-0.7
		c0.4-0.4,0.6-0.9,0.6-1.6c0-0.7-0.2-1.2-0.7-1.6s-1.1-0.6-1.9-0.6h-1.8L78.9,331L78.9,331z"/>
	<path class="st0" d="M93.3,338.7v-2.6h2.6v2.6H93.3z"/>
	<path class="st0" d="M103.9,338.7V324h2.7v14.7C106.6,338.7,103.9,338.7,103.9,338.7z"/>
	<path class="st0" d="M116.2,338.7v-12.2h-2.7V324h8.1v2.5h-2.7v12.1h-2.7V338.7z"/>
</g>
<path class="st1" d="M-210.7,294.5h5.7c0.3,3,1.2,5.4,2.5,7.1c0.9,1.2,2.2,2.2,3.7,2.9c1.5,0.7,3.1,1.1,4.7,1.1
	c1.4,0,2.8-0.3,4.3-0.9c1.5-0.6,2.7-1.5,3.7-2.5c1.9-2,2.9-4.4,2.9-7.2c0-3.1-1.2-5.7-3.7-7.7c-1.7-1.4-4.5-2.6-8.3-3.6
	c-2.8-0.7-4.9-1.4-6.3-2c-1.4-0.7-2.7-1.5-3.8-2.7c-2.5-2.5-3.8-5.7-3.8-9.5c0-4,1.4-7.3,4.1-10c2.9-2.9,6.6-4.4,10.9-4.4
	c4.2,0,7.7,1.4,10.5,4.2s4.3,6.2,4.3,10.3h-5.6c-0.2-2.9-1.2-5.2-3-7c-1.8-1.8-4-2.7-6.7-2.7c-2.5,0-4.6,0.8-6.3,2.5
	c-2,1.9-2.9,4.2-2.9,6.9s0.8,4.7,2.5,6.2c1.4,1.2,4,2.3,7.9,3.4c3.2,0.9,5.4,1.6,6.5,2.1c1.1,0.5,2.3,1.2,3.5,2.2
	c1.7,1.4,3,3.1,3.9,5.2c0.9,2.1,1.4,4.2,1.4,6.4c0,4.1-1.5,7.7-4.5,10.7c-3.2,3.3-7.1,5-11.8,5c-2.8,0-5.3-0.6-7.7-1.7
	c-2.4-1.1-4.3-2.8-5.8-4.8C-209.5,301.3-210.5,298.2-210.7,294.5z"/>
<path class="st1" d="M-167.8,269.9h5.1v6.8c1.5-2.1,3.3-3.8,5.5-5c3.2-1.8,6.6-2.7,10.4-2.7c2.6,0,5.2,0.5,7.7,1.5s4.8,2.4,6.7,4.3
	c4.3,4.1,6.4,9.1,6.4,15s-2.2,10.9-6.7,15c-4.1,3.8-9,5.6-14.5,5.6c-3.2,0-6.1-0.7-8.8-2c-2.6-1.3-4.8-3.3-6.5-5.8v20.7h-5.4v-53.4
	H-167.8z M-147,273.5c-4.3,0-8.1,1.6-11.2,4.7c-3,3.1-4.6,6.8-4.6,11.2c0,5,1.6,9,4.9,12.1c3,2.9,6.7,4.3,10.9,4.3
	c4.1,0,7.7-1.4,10.8-4.3c3.4-3.2,5-7.1,5-11.7c0-5-1.7-9-5.2-12.2C-139.3,274.9-142.9,273.5-147,273.5z"/>
<path class="st0" d="M-35.3,309.4v-53.3h5.4v53.3H-35.3z"/>
<path class="st0" d="M-17.3,309.4v-34.9h-8.3v-4.6h8.3v-13.8h5.1v13.8h9.4v4.5h-9.4v34.9h-5.1V309.4z"/>
<path class="st0" d="M39.8,269.9v39.5h-5.1v-6.9c-3.9,5.3-9,7.9-15.5,7.9c-3.9,0-7.6-1-11.1-3c-3.3-1.9-5.9-4.6-7.7-8.1
	c-1.6-3.1-2.5-6.3-2.5-9.6c0-2.6,0.5-5.1,1.5-7.6s2.4-4.7,4.1-6.6c2-2.1,4.4-3.7,7.2-4.9c2.7-1.1,5.5-1.6,8.4-1.6
	c3.2,0,6.2,0.7,8.8,2c2.6,1.4,4.9,3.3,6.7,5.9v-7C34.6,269.9,39.8,269.9,39.8,269.9z M19.2,273.5c-4.3,0-8.1,1.6-11.4,4.8
	c-3.2,3.2-4.7,6.9-4.7,11.1c0,4.5,1.5,8.3,4.5,11.5c1.5,1.5,3.2,2.7,5.3,3.6s4.2,1.3,6.3,1.3c4.2,0,7.9-1.6,11-4.8
	c3-3.1,4.5-6.9,4.5-11.3c0-4.5-1.5-8.2-4.5-11.4C27.2,275.2,23.6,273.6,19.2,273.5z"/>
<path class="st0" d="M49.8,309.4v-53.3h5.1v53.3H49.8z"/>
<path class="st0" d="M64.9,261.2v-5.1H70v5.1H64.9z M64.9,309.4v-39.5H70v39.5H64.9z"/>
<path class="st0" d="M121.8,269.9v39.5h-5.1v-6.9c-3.9,5.3-9,7.9-15.5,7.9c-3.9,0-7.6-1-11.1-3c-3.3-1.9-5.9-4.6-7.7-8.1
	c-1.6-3.1-2.5-6.3-2.5-9.6c0-2.6,0.5-5.1,1.5-7.6s2.4-4.7,4.1-6.6c2-2.1,4.4-3.7,7.2-4.9c2.7-1.1,5.5-1.6,8.4-1.6
	c3.2,0,6.2,0.7,8.8,2c2.6,1.4,4.9,3.3,6.7,5.9v-7C116.6,269.9,121.8,269.9,121.8,269.9z M101.2,273.5c-4.3,0-8.1,1.6-11.4,4.8
	c-3.2,3.2-4.7,6.9-4.7,11.1c0,4.5,1.5,8.3,4.5,11.5c1.5,1.5,3.2,2.7,5.3,3.6c2.1,0.9,4.2,1.3,6.3,1.3c4.2,0,7.9-1.6,11-4.8
	c3-3.1,4.5-6.9,4.5-11.3c0-4.5-1.5-8.2-4.5-11.4C109.2,275.2,105.5,273.6,101.2,273.5z"/>
<path class="st0" d="M-116,324h69.8v14.6H-116V324z"/>
<path class="st1" d="M-55.6,256.1v16.5c-3.3-2.3-7.3-3.6-11.6-3.6c-11.4,0-20.7,9.3-20.7,20.7c0,11.4,9.3,20.7,20.7,20.7
	c4.3,0,8.3-1.3,11.6-3.6v2.6h9.1v-53.3H-55.6z M-67.2,301.2c-6.4,0-11.5-5.2-11.5-11.5c0-6.4,5.2-11.5,11.5-11.5
	c6.4,0,11.5,5.2,11.5,11.5C-55.7,296-60.9,301.2-67.2,301.2z"/>
<g>
	<circle class="st1" cx="-107" cy="264.1" r="9"/>
	<path class="st1" d="M-107,278.2c-5,0-9,4-9,9v22.2h18.1v-22.2C-97.9,282.2-102,278.2-107,278.2z"/>
</g>
</svg>
