<svg baseProfile="basic" id="Layer_3" xmlns="http://www.w3.org/2000/svg" viewBox="0 0 849.7 150.1"><style>.st0{fill:url(#XMLID_87_)}.st1{fill:url(#XMLID_88_)}.st2{fill:#1f63a7}.st2,.st3{fill-rule:evenodd;clip-rule:evenodd}.st3{fill:#a6a8ac}</style><g id="XMLID_5_"><g id="XMLID_19_"><linearGradient id="XMLID_87_" gradientUnits="userSpaceOnUse" x1="664.852" y1="214.425" x2="664.852" y2="86.3"><stop offset="0" stop-color="#29aae1"/><stop offset="1" stop-color="#176c98"/></linearGradient><path id="XMLID_44_" class="st0" d="M642.1-.1h45.6v148.3h-45.6V-.1z"/><linearGradient id="XMLID_88_" gradientUnits="userSpaceOnUse" x1="779.333" y1="217.108" x2="779.333" y2="86.81"><stop offset="0" stop-color="#29aae1"/><stop offset="1" stop-color="#176c98"/></linearGradient><path id="XMLID_20_" class="st1" d="M781.5 0H709v148h63.4c52.7 0 77.3-27.8 77.3-74.2 0-38.1-17.8-73.8-68.2-73.8zm15.2 106h-45.9c-4.2 0-7.6-4.5-7.6-8.7 0-12.5 7.5-23.7 18.2-28.5-3.4-3.2-5.5-8.1-5.5-13.1 0-9.9 8-18 17.8-18s17.8 7.9 17.8 17.8c0 5-2.1 9.6-5.5 12.8 10.7 4.8 18.3 16.5 18.3 29 0 4.3-3.4 8.7-7.6 8.7z"/></g><g id="XMLID_6_"><path id="XMLID_16_" class="st2" d="M264.5 105.7c0 7.4-.2 14.8.1 22.2.3 9.4-4.2 15.6-12.6 18.7-12.9 4.8-26.1 4.8-38.9-.3-7.7-3-12-9.1-12-17.8.1-15.8 0-31.5 0-47.3.1-8.3 4-14.3 11.5-17.3 13.8-5.6 27.8-5.7 41.5.3 6.9 3.1 10.4 8.7 10.4 16.4-.1 8.4 0 16.8 0 25.1zm-46.1-.8c0 6.2-.1 12.3 0 18.5.1 8.1 2.8 11.2 10.8 11.8 3.4.3 7 0 10.3-.7 5.6-1.2 7.5-3.7 7.5-9.3.1-13.5.1-27.1-.1-40.6 0-2.2-.9-5-2.4-6.6-4.4-4.8-19.1-4.9-23.4-.2-1.6 1.8-2.5 4.8-2.6 7.3-.3 6.5-.1 13.2-.1 19.8z"/><path id="XMLID_13_" class="st3" d="M420.5 125.4h14.6c2.3 6.8.5 12.9-5.2 17-10 7.3-21.4 8-33.1 6.4-6.6-.9-13-2.4-17.9-7.6-3-3.2-5.1-6.6-5.1-11.1 0-17 .1-33.9 0-50.9 0-10 7.3-14.6 15-16.8 13.2-3.7 26.6-4.2 39.1 3.4 4.3 2.6 7.1 5.9 7.6 11 .2 1.5.4 2.9.6 4.4 2.2 15.7-6.8 26.3-22.7 26.8-4 .1-7.9-.1-11.8.1-7.2.3-11.1 4.2-11.8 11.5-.8 9.2 2.2 14.3 9.7 15.5 3.6.6 7.3.3 11-.1 5.7-.5 8.6-4.3 10-9.6zm-29.8-30.2c7.5-.3 14.4-.4 21.2-1 4.2-.4 7.2-3.6 7.8-7.7.8-4.5-.7-8.1-4.1-10.2-6.6-4.2-19.5-2.3-24.9 3.7v15.2z"/><path id="XMLID_12_" class="st3" d="M334.9 130.7c.6-2 1.3-4 2-6.4h14.6c2.7 9.2.4 16.6-8.3 20.4-15.2 6.5-30.9 7.7-45.8-1.8-5-3.1-7.5-7.8-7.5-13.6-.1-27.1-.2-54.2 0-81.3.1-12.1 7.7-17.7 19.9-19.9 7.6-1.4 15.8-.8 23.5 0 6.4.7 12.3 3.6 16.3 9.1 3 4.2 3.6 8.9 2.4 14.5h-14.8c-1-2.4-2-4.6-3-6.8-6.8-5.1-14.1-5.3-21.8-2.9-3.4 1-5.4 3.4-5.7 6.9-.1 1.5-.1 2.9-.1 4.4v69.4c0 9.2 3 12.3 12.3 12.8 5.7.3 11.1.2 16-4.8z"/><path id="XMLID_11_" class="st2" d="M60 148H43.1c-.2-2.1-.6-4.2-.6-6.4 0-19.9.2-39.8-.1-59.7-.1-9.1 3.9-15.2 12-18.4 13.6-5.3 27.4-5.4 40.9.6 6.8 3 10.7 8.7 10.7 16.2.1 21.9 0 43.8-.1 65.7 0 .4-.4.9-.8 1.8H88.6v-8.1-52.4c0-9.5-3.1-12.7-12.8-13-5.5-.2-10.9.1-15.7 6-.1 21.8-.1 44.5-.1 67.7z"/><path id="XMLID_10_" class="st2" d="M174.8 74.8h-15.2c-.5 24.6 0 48.5-.3 73.1h-17.1V75.5c-4.2-.5-7.5-.8-11.3-1.2V62.1c3.3-.4 6.6-.8 10.7-1.3.2-4 .4-7.8.4-11.7 0-8.8 4-15 11.9-18.7 7.3-3.4 21.9-4.5 30.9-1.9-1.1 3.9-2.2 7.8-3.3 11.8-4.2.5-7.9.8-11.5 1.3-8.4 1.2-10.5 3.6-10.6 12 0 2.2.2 4.3.3 7.1 5.1.3 9.8.7 15 1 .1 4.4.1 8.2.1 13.1z"/><path id="XMLID_9_" class="st3" d="M530.8 74c-4.1-.6-7.4-1.1-11.2-1.6V61.1c3.1-.4 6.4-.9 10.7-1.5.3-6.7.5-13.4.8-20.7h16.1c.3 6.7.5 13.3.8 20.7 4.8.4 9.1.8 14.2 1.2.2 3.6.4 7.2.6 11.5-5.1.5-9.6.9-14.7 1.5-.2 3.1-.5 5.7-.5 8.3-.1 12.8-.1 25.6 0 38.4 0 10.3 1.6 12.2 12 13.9.7.1 1.4.4 2.6.8V148c-10.2.6-19.3-1.2-26.6-8.4-3.9-3.8-4.9-8.8-4.9-14.2V82.6c.1-2.7.1-5.4.1-8.6z"/><path id="XMLID_8_" class="st2" d="M1 28.8h16v119H1.3c-1.4-5-1.9-108.4-.3-119z"/><path id="XMLID_7_" class="st3" d="M474.9 147.8H459c-.2-2.3-.5-4.4-.5-6.5 0-19.2-.1-38.4 0-57.5.1-11.4 4.9-18.1 15.6-21.3 8.3-2.5 16.8-2.6 26.5-1.7-1.2 4.6-2.2 8.7-3.4 13.5h-8.3c-10.7.4-13.5 3.3-13.5 13.8v53.1c-.1 1.9-.3 3.8-.5 6.6z"/></g></g></svg>