<?xml version="1.0" encoding="utf-8"?>
<!-- Generator: Adobe Illustrator 19.0.0, SVG Export Plug-In . SVG Version: 6.00 Build 0)  -->
<svg version="1.1" id="Layer_2" xmlns="http://www.w3.org/2000/svg" xmlns:xlink="http://www.w3.org/1999/xlink" x="0px" y="0px"
	 viewBox="4 223.2 601.7 146" style="enable-background:new 4 223.2 601.7 146;" xml:space="preserve">
<style type="text/css">
	.st0{fill:#0066CC;}
	.st1{fill:#895247;}
	.st2{fill:#FFFFFF;}
	.st3{fill-rule:evenodd;clip-rule:evenodd;fill:#F26E3D;}
	.st4{fill-rule:evenodd;clip-rule:evenodd;fill:#F06E3E;}
	.st5{fill:#841723;}
	.st6{fill-rule:evenodd;clip-rule:evenodd;fill:#FFFFFF;}
	.st7{fill:#891A1C;}
</style>
<g id="XMLID_1_">
	<g>
		<path class="st0" d="M605.7,270.4v98.8h-96.8c0,0-16.1-1-29.2-11c-21.7-16.5-21-32.8-21-32.8v-32v-36.9v-33.3h115.4
			c0,0,13.2,6.5,22.8,20.8C605.1,256.3,605.7,270.4,605.7,270.4z"/>
	</g>
	<g>
	</g>
</g>
<path class="st1" d="M458.7,293.5"/>
<path class="st1" d="M458.7,256.3"/>
<path class="st2" d="M458.7,256.3v37.2c0,0,15.9-2.4,15.9-19.5C474.6,258.8,458.7,256.3,458.7,256.3z"/>
<path id="XMLID_85_" class="st2" d="M502.7,244.5c-3.9-0.5-6.7-0.7-8.2-0.7c-1.5,0-2.6,0.1-3,0.4c-0.4,0.3-0.7,0.7-0.7,1.4
	c0,0.6,0.3,1.1,0.9,1.3c0.6,0.2,2.2,0.6,4.8,1.1c2.5,0.4,4.4,1.2,5.4,2.2c1.1,1.1,1.6,2.7,1.6,5.1c0,5.1-3.2,7.7-9.5,7.7
	c-2.1,0-4.6-0.3-7.6-0.9l-1.5-0.3l0.2-5.3c3.9,0.5,6.7,0.7,8.2,0.7c1.5,0,2.6-0.1,3.2-0.4c0.6-0.3,0.8-0.7,0.8-1.4
	c0-0.6-0.3-1.1-0.9-1.3c-0.6-0.3-2.1-0.6-4.6-1.1c-2.5-0.4-4.3-1.1-5.5-2.1c-1.2-1-1.8-2.7-1.8-5.3c0-2.5,0.9-4.4,2.5-5.7
	c1.7-1.3,3.9-1.9,6.6-1.9c1.9,0,4.4,0.3,7.7,0.9l1.5,0.3L502.7,244.5z"/>
<path id="XMLID_82_" class="st2" d="M518.6,243.7c-1.2,0-2.4,0.2-3.6,0.7l-0.6,0.2v12.4c1.4,0.2,2.6,0.3,3.5,0.3
	c1.9,0,3.1-0.6,3.8-1.6c0.7-1.1,1.1-2.9,1.1-5.5C522.7,245.9,521.4,243.7,518.6,243.7 M508.1,272.3v-33.7h6.3v1.3
	c2-1.2,3.8-1.9,5.4-1.9c3.2,0,5.6,1,7.1,2.8c1.5,1.9,2.3,5.2,2.3,9.8c0,4.6-0.9,7.8-2.5,9.6c-1.7,1.8-4.5,2.7-8.3,2.7
	c-1.1,0-2.2-0.1-3.4-0.3l-0.6-0.1v9.8L508.1,272.3L508.1,272.3z"/>
<path id="XMLID_79_" class="st2" d="M565.8,256.6l0.7-0.1V244c-1.7-0.3-3.3-0.5-4.6-0.5c-2.5,0-3.8,2.3-3.8,6.9
	c0,2.5,0.3,4.2,0.9,5.3c0.6,1.1,1.5,1.5,2.8,1.5C563,257.2,564.3,257,565.8,256.6 M572.8,229.1v33.3h-6.3v-1
	c-2.2,1.1-4.1,1.5-5.8,1.5c-3.5,0-5.9-1-7.2-3c-1.4-2-2-5.1-2-9.5c0-4.3,0.8-7.5,2.5-9.5c1.6-2,4.1-3,7.4-3c1,0,2.4,0.2,4.2,0.5
	l0.9,0.2v-9.7H572.8z"/>
<path id="XMLID_78_" class="st2" d="M540.3,252.4c-2,0-3.6-0.7-4.8-2c-1.2-1.3-1.9-3-1.9-5c0-2,0.6-3.6,1.9-4.9
	c1.2-1.3,2.8-1.9,4.8-1.9c2,0,3.6,0.7,4.8,2c1.2,1.4,1.9,3,1.9,5c0,2-0.6,3.6-1.9,4.9C543.9,251.7,542.3,252.4,540.3,252.4"/>
<path id="XMLID_77_" class="st2" d="M533.6,262c0-2,0.6-3.6,1.9-4.9c1.2-1.3,2.8-1.9,4.8-1.9c2,0,3.6,0.7,4.8,2c1.2,1.4,1.9,3,1.9,5
	"/>
<g>
	<path class="st2" d="M489.9,354v-80.7H505V354H489.9z"/>
	<path class="st2" d="M587.2,313c0.3,20.4-12.1,41.1-40.4,41.1c-9.9,0-21.8,0-31.7,0v-80.7c9.9,0,21.8,0,31.7,0
		C574.5,273.3,586.8,293,587.2,313z M530.2,339.4h16.6c18.3,0,25.6-13.4,25.3-26.5c-0.3-12.6-7.7-25.1-25.3-25.1h-16.6V339.4z"/>
</g>
<g>
	<g>
		<path class="st3" d="M459.7,285.9c4.5-1.9,7.4-5.8,7.9-10.1v-2.3c-0.2-1.7-0.8-3.5-1.9-5.2c-4-5.3-9.3-5.4-15.2-5.1
			c-0.2-7.4,0.2-15.3-1.1-22.6c-1.5-8.8-9.4-14.1-17.7-9.1c-5.9,3.9-6.3,9.9-6.4,16.3c-0.1,5.8,0.2,11.6,0.4,17.4
			c-7.3,0.6-16.1,0.8-19.7,7.4v11.1c1.2,2,3.1,3.7,5.6,4.7c4.4,1.5,9.3,0.9,13.9,0.4c0.2,11,0.4,22,0.4,33c0.1,9.8-3,26.4,11,28.3
			c9.3,0.4,13.3-8,13.7-16c0.1-2.7,0.1-5.3,0-8c-0.5-12.9-0.2-25.9-0.1-38.8C453.7,287.2,456.7,287.1,459.7,285.9 M405.9,334.5
			v-27.4c0.4,4.3,0.7,8.7,1,13c0.3,4.3,1,8.7-0.4,12.9C406.4,333.5,406.1,334,405.9,334.5 M405.9,266.6v-10.3
			C406.7,259.6,406.7,263.2,405.9,266.6 M405.9,272.5c-0.6,1.1-1.1,2.4-1.4,3.9c-0.3,2.7,0.2,5.2,1.4,7.2V272.5z M405.9,256.3v10.3
			c-0.7,3.1-2,6-3.9,8.5c0.6,1.4,0.9,2.8,1.1,4.3c1.2,9.2,2.1,18.5,2.8,27.8v27.4c-5.5,11-21.1,6.6-22.6-5.3
			c-0.6-4.5-0.8-9.1-1.1-13.7l-2.3-27.6c-1-3.3-1.3-7.2-0.4-10.5c-1.4-1.8-2.9-3.6-4.2-5.5c-0.7-1-1.2-2.1-1.7-3.2v-16
			c2.5-6.1,8-10.6,16-10c2.9,0.2,5.9,1.1,8.4,2.5C402.2,247.8,404.8,251.8,405.9,256.3 M373.6,342.5c0.7-1.2,1.1-2.6,1.4-4.1
			c0.4-3.1-0.2-5.7-1.4-7.9V342.5z M373.6,252.7v16C371.5,263.6,371.6,257.6,373.6,252.7 M373.6,330.5c-2.1-3.9-6.1-6.6-10.2-9
			L360,321c-6,2.1-12.3,4.2-13.8,11.2c-0.2-7-0.3-14-0.4-21c-0.1-10.4,3.4-47.9-18-40c-2.7,1.2-4.6,3-6.1,5.6
			c-3.3-1-6.7-1.8-10.2-2.2c-0.6-0.1-1.2-0.1-1.9-0.2v24.8c1.8,0,3.7,0.2,5.4,0.4c6.7,6,7.4,15.5,2.4,22.7c-0.9,1.3-1.9,2.4-3.3,3.3
			c-1.1,0.7-2.7,0.9-4.5,0.7V351c5.6,0.3,10.9-0.5,16.3-4c6.8,8.5,18.6,3.6,19.9-6.5c0-0.1,0.1-0.7,0.1-0.6
			c3.8,12.4,21.8,13,27.5,2.5V330.5z M309.8,274.4v24.8c-2.6,0-5.2,0.6-7.1,2.5c-4.6,4.6-4,12.4-3.7,18.4c0.2,3.3,6.1,6,10.8,6.3
			V351c-3.3-0.2-6.6-0.7-10.2-1.3c-9.8-1.6-17.6-9.6-22.1-18.1c-4.1-7.7-2.9-20.9-1.1-29.2c1.3-6.1,4.6-15,9.1-19.4
			C291.2,277.6,301.8,274.1,309.8,274.4 M238.7,351.5c3.9-0.1,7.9-0.8,11.8-1.7c8.7-2.1,14.4-8.2,19.2-15.3
			c7.1-10.5,4.4-28.3,0-39.5c-4.6-11.7-10.7-16.1-22.5-19.3c-2.8-0.7-5.6-0.9-8.4-0.8v24.8c2.7,0,5.3,0.6,7.2,2.5
			c4.9,4.9,4.1,13.3,3.6,19.6c-3.5,2.6-7.3,4.9-10.8,5.1V351.5z M238.7,274.9v24.8c-1.9,0-3.8,0.2-5.5,0.4c-6.5,5.5-7.4,15-2.8,22
			c2.5,3.7,5.4,5,8.4,4.8v24.5c-5.7,0.2-11.3-0.8-16.5-4.1c-5.7,7.1-16.1,5.1-19.3-3.3c-1.8-5.9,1.2-28-1.4-29.9l-0.5,0
			c-4.7,20.2-22.6,27.2-41.8,24.1c-9.8-1.8-19.1-8.9-23.1-18c-2.5-6-2-12.5-1.2-18.8c0.5-3.2-1.6-0.1-2.4,0.6
			c-7.3,6.7-15.5,1.8-21.6-3.6c-3.2-2.9-8-0.2-10,3c0.2,12.6,1,25.8,0.1,38.3l-0.1,1.3c-1.6,14-20.2,13.6-22.7,1.5
			c-1.4-8.4-1-17.7-1.3-26.2c0-1.5,0.1-2.1-0.6-3.4c-1.9,1.9-0.6,15.8-0.4,19.5c0.1,2.7,0.2,5.5-0.1,8.2c-1.1,10.1-12.8,15.9-20,7
			c-4.6,3-10.4,4.3-16.5,4.2v-24.6c3,0.2,5.9-1.1,8.4-4.9c4.3-6.7,3.6-16.5-2.9-21.7c-1.8-0.2-3.6-0.5-5.5-0.4v-24.6
			c2.6,0.1,5.4,0.5,8.5,1.2c1.2,0.3,2.4,0.6,3.7,1c2.9-5.2,8.4-7.5,14.1-6c6.7,2.5,8.4,8.3,9.1,14.7l1.3-0.5
			c2.7-6.7,9-11.7,16.5-8.6c5.8-3.4,13.2-3.9,19.7-3.3c8.8,1,21.7,7.2,24,16.4c0.4,1.4,0.8-0.3,0.9-0.8c2-6.6,5.2-12.8,8.2-19
			c5.6-3.8,11.4-6.3,17.5-1.5c3,2.7,4.4,6.3,4.3,10.3c-0.4,7.5-19.7,36.3-0.5,36.2c8.3-0.1,9.7-5.7,9.9-12.9
			c0.2-10.4-12.9-21.2-1-30c6.5-4.2,14.4-3.2,18.8,3.3c3.5,5.5,5.7,12.5,7,18.8c1.8,0.9,1.7-9.6,1.7-11.2
			c0.5-16.3-0.4-32.9,1.1-49.1c1.8-16.7,23.9-13.6,23.6,2.2c-0.8,13.5-0.9,27-1.1,40.5C230.8,276.1,234.8,275.2,238.7,274.9
			 M39.4,275.4V300c-2.7,0-5.2,0.6-7.2,2.5c-4.8,4.8-4.1,13.3-3.6,19.5c3.5,2.6,7.2,4.8,10.7,5.1v24.6c-11.1-0.1-22.8-5-28.4-13.4
			c-0.6-0.9-1.2-1.8-1.8-2.6c-3-4.5-4.7-10.7-5-17.3v-5.2c0.7-14.3,7-29.4,18.1-34.1C28.6,276.5,33.7,275.3,39.4,275.4"/>
	</g>
	<g>
		<path class="st4" d="M459.7,285.9c7-3,10.3-10.9,6-17.7c-4-5.3-9.3-5.4-15.2-5.1c-0.2-7.4,0.2-15.3-1.1-22.6
			c-1.5-8.8-9.4-14.1-17.7-9.1c-5.9,3.9-6.3,9.9-6.4,16.3c-0.1,5.8,0.2,11.6,0.4,17.4c-8.5,0.8-19.1,0.8-21.1,11.3
			c-0.6,5.4,2,9.8,7,11.9c4.4,1.5,9.3,0.9,13.9,0.4c0.2,11,0.4,22,0.4,33c0.1,9.8-3,26.4,11,28.3c9.3,0.4,13.3-8,13.7-16
			c0.1-2.7,0.1-5.3,0-8c-0.5-12.9-0.2-25.9-0.1-38.8C453.7,287.2,456.7,287.1,459.7,285.9 M382.2,315.6c0.4,4.5,0.6,9.2,1.1,13.7
			c1.6,12.4,18.4,16.6,23.3,3.7c1.3-4.2,0.7-8.6,0.4-12.9c-1.1-13.6-2.1-27.3-3.8-40.8c-0.2-1.5-0.6-2.9-1.1-4.3
			c6.9-9,6.2-23.6-3.9-29.8c-2.6-1.4-5.5-2.3-8.4-2.5c-15.9-1.2-21.8,17.7-14.3,29.3c1.3,1.9,2.7,3.7,4.2,5.5
			c-0.9,3.3-0.6,7.2,0.4,10.5L382.2,315.6z M285.5,282.9c-4.5,4.4-7.7,13.3-9.1,19.4c-1.8,8.3-3,21.6,1.1,29.2
			c4.5,8.5,12.3,16.5,22.1,18.1c9.6,1.5,17.8,2.9,26.6-2.7c6.8,8.5,18.6,3.6,19.9-6.5c0-0.1,0.1-0.7,0.1-0.6
			c4.2,13.9,26.2,12.9,28.9-1.5c1-8.4-5.1-13.1-11.6-16.9L360,321c-6,2.1-12.3,4.2-13.8,11.2c-0.2-7-0.3-14-0.4-21
			c-0.1-10.4,3.4-47.9-18-40c-2.7,1.2-4.6,3-6.1,5.6c-3.3-1-6.7-1.8-10.2-2.2C303.5,273.5,291.6,277.2,285.5,282.9 M317.6,322.4
			c-0.9,1.3-1.9,2.4-3.3,3.3c-3.9,2.4-15-1.1-15.3-5.6c-0.4-6-1-13.8,3.7-18.4c3.2-3.2,8.3-2.6,12.5-2
			C321.9,305.7,322.6,315.2,317.6,322.4 M76.4,312.8c-1.9,1.9-0.6,15.8-0.4,19.5c0.1,2.7,0.2,5.5-0.1,8.2c-1.1,10.1-12.8,15.9-20,7
			c-13,8.4-36.2,3.8-44.8-9.1c-0.6-0.9-1.2-1.8-1.8-2.6c-10.1-15-4.7-49,13.2-56.6c9-3.7,15.8-4.8,25.5-2.5c1.2,0.3,2.4,0.6,3.7,1
			c2.9-5.2,8.4-7.5,14.1-6c6.7,2.4,8.4,8.3,9.1,14.7l1.3-0.5c2.7-6.7,9-11.7,16.5-8.6c5.8-3.4,13.2-3.9,19.7-3.3
			c8.8,1,21.7,7.2,24,16.4c0.4,1.4,0.8-0.3,0.9-0.8c2-6.6,5.2-12.8,8.2-19c5.6-3.8,11.4-6.3,17.5-1.5c3,2.7,4.4,6.3,4.3,10.3
			c-0.4,7.5-19.7,36.3-0.5,36.2c8.3-0.1,9.7-5.7,9.9-12.9c0.2-10.4-12.9-21.2-1-30c6.5-4.2,14.4-3.2,18.8,3.3
			c3.5,5.5,5.7,12.5,7,18.8c1.8,0.9,1.7-9.6,1.7-11.2c0.5-16.3-0.4-32.9,1.1-49.1c1.8-16.7,23.9-13.6,23.6,2.2
			c-0.8,13.5-0.9,27-1.1,40.5c6.6-1.9,13.3-3.3,20.1-1.5c11.8,3.2,17.9,7.6,22.5,19.3c4.4,11.2,7.1,28.9,0,39.5
			c-4.8,7.1-10.5,13.2-19.2,15.3c-9.7,2.1-19.6,3.2-28.3-2.4c-5.7,7.1-16.1,5.1-19.3-3.3c-1.8-5.9,1.2-28-1.4-29.9l-0.5,0
			c-4.7,20.2-22.6,27.2-41.8,24.1c-9.8-1.8-19.1-8.9-23.1-18c-2.5-6-2-12.5-1.2-18.8c0.5-3.2-1.6-0.1-2.4,0.6
			c-7.3,6.7-15.5,1.8-21.6-3.6c-3.2-2.9-8-0.2-10,3c0.2,12.6,1,25.8,0.1,38.3l-0.1,1.3c-1.6,14-20.2,13.6-22.7,1.5
			c-1.4-8.4-1-17.7-1.3-26.2C77.1,314.7,77.2,314.1,76.4,312.8 M230.4,322.2c5.5,8.2,12.6,4.4,19.2-0.4c0.5-6.3,1.3-14.7-3.6-19.6
			c-3.3-3.2-8.4-2.6-12.7-2C226.7,305.7,225.8,315.2,230.4,322.2 M47.8,322.2c-5.4,8.3-12.6,4.6-19.2-0.2
			c-0.6-6.2-1.2-14.7,3.6-19.5c3.3-3.2,8.4-2.6,12.7-2C51.5,305.7,52.2,315.4,47.8,322.2"/>
	</g>
	<g>
		<path class="st5" d="M64.3,352c-2.2,0-5.5-0.8-8.5-4.3c-4.3,2.7-9.9,4.2-16,4.2c-11.9,0-23.6-5.4-28.9-13.5
			c-0.4-0.7-0.9-1.3-1.4-2l-0.4-0.6c-5.6-8.3-6.7-22.6-2.8-35.7c3.1-10.6,8.8-18,16-21.1c6.3-2.6,11.1-3.7,16-3.7
			c3,0,6.1,0.4,9.5,1.2c1.3,0.3,2.5,0.6,3.5,0.9c2.3-4.1,6.2-6.4,10.8-6.4c1.2,0,2.3,0.2,3.5,0.5c6.9,2.5,8.5,8.8,9.2,14.6l1-0.4
			c2.3-5.8,7.1-9.6,12.2-9.6c1.5,0,3,0.3,4.4,0.9c4-2.3,9-3.5,14.9-3.5c1.6,0,3.2,0.1,4.8,0.3c8.7,1,21.9,7.2,24.1,16.5
			c0.1,0.3,0.1,0.4,0.2,0.4c0.1-0.1,0.2-0.4,0.4-1l0-0.2c1.8-5.9,4.6-11.5,7.2-17c0.3-0.7,0.7-1.4,1-2c0,0,0-0.1,0.1-0.1
			c2.8-2,6.6-4.2,10.6-4.2c2.5,0,4.9,0.9,7.2,2.7c3,2.7,4.5,6.3,4.4,10.5c-0.1,2.1-1.6,5.7-3.4,9.9c-3.4,8.2-7.7,18.3-4.4,23.2
			c1.3,1.9,3.7,2.9,7.1,2.9h0.1c7.8-0.1,9.5-5,9.8-12.7c0.1-3.6-1.5-7.4-3-11c-2.8-6.6-5.7-13.4,2.1-19.1c2.6-1.7,5.4-2.6,8.2-2.6
			c4.4,0,8.2,2.1,10.8,5.9c3.9,6,6,13.5,7,18.8c0,0,0,0,0,0c0.5,0,1.2-1.8,1.3-10.2c0-0.4,0-0.7,0-0.9c0.2-5.8,0.2-11.8,0.2-17.5
			c0-10.4,0-21.1,1-31.6c0.9-8.4,6.7-11.3,11.4-11.3c3.3,0,6.6,1.4,9,3.8c2.5,2.5,3.7,5.9,3.7,9.7c-0.8,12.3-0.9,24.9-1,37l0,3.3
			c4-1.1,8.7-2.3,13.4-2.3c2.3,0,4.5,0.3,6.6,0.8c12.6,3.4,18.3,8.3,22.7,19.4c4.8,12,6.8,29.5,0,39.6c-4,6-9.9,13.1-19.3,15.4
			c-3.7,0.8-8.5,1.7-13.3,1.7c-5.8,0-10.7-1.3-15-4.1c-2.3,2.8-5.4,4.3-8.7,4.3c-4.8,0-9-3.1-10.7-7.8c-0.9-2.8-0.7-9.2-0.5-15.3
			c0.2-6.6,0.4-13.4-0.8-14.5l-0.3,0c-3.7,15.8-15.8,24.8-33.3,24.8c-2.8,0-5.7-0.2-8.7-0.7c-10-1.8-19.3-9.1-23.2-18.2
			c-2.4-6-2-12.4-1.3-18.9c0.1-0.9,0-1.1,0-1.2c0,0,0,0,0,0c-0.3,0-1.1,0.9-1.5,1.4c-0.2,0.2-0.4,0.4-0.5,0.6
			c-2.4,2.2-5,3.3-7.9,3.3c-4.2,0-8.7-2.3-13.9-6.9c-0.9-0.8-1.9-1.2-3.1-1.2c-2.7,0-5.3,2.1-6.6,4.1c0.1,3,0.1,6.2,0.2,9.2
			c0.3,9.6,0.5,19.6-0.1,29l-0.1,1.3c-0.9,7.4-6.4,10.7-11.5,10.7c-4.8,0-10.2-2.9-11.5-9.2c-1-5.9-1.1-12.3-1.2-18.5
			c0-2.6-0.1-5.2-0.2-7.7l0-0.5c0-1.1,0-1.7-0.5-2.6c-1.3,1.9-0.7,11.2-0.4,16.2c0.1,1.2,0.1,2.3,0.2,3c0.1,2.6,0.2,5.4-0.1,8.2
			C75.3,347,70.2,352,64.3,352z M55.9,347.3c0.1,0,0.1,0,0.1,0.1c2.3,2.8,5.2,4.3,8.3,4.3c5.7,0,10.7-4.9,11.4-11.2
			c0.3-2.8,0.2-5.5,0.1-8.2c0-0.7-0.1-1.7-0.2-3c-0.4-5.6-1-15.1,0.7-16.7c0,0,0.1-0.1,0.1,0c0.1,0,0.1,0,0.1,0.1
			c0.7,1.2,0.7,1.8,0.7,3l0,0.4c0.1,2.5,0.1,5.2,0.2,7.7c0.1,6.2,0.2,12.5,1.2,18.4c1.3,6.2,6.5,8.9,11.2,8.9
			c5,0,10.3-3.2,11.2-10.4l0.1-1.3c0.6-9.5,0.4-19.4,0.1-29c-0.1-3.1-0.2-6.2-0.2-9.3c0,0,0-0.1,0-0.1c1.3-2.1,4.1-4.3,7-4.3
			c1.3,0,2.4,0.4,3.3,1.3c5.2,4.6,9.6,6.8,13.7,6.8c2.8,0,5.3-1.1,7.6-3.2c0.1-0.1,0.3-0.3,0.5-0.6c0.7-0.9,1.3-1.5,1.8-1.5
			c0.1,0,0.2,0,0.3,0.1c0.2,0.2,0.2,0.7,0.1,1.5c-0.7,6.5-1.2,12.8,1.2,18.7c3.8,8.9,13.1,16.1,22.9,17.9c2.9,0.5,5.8,0.7,8.6,0.7
			c17.3,0,29.4-9,33-24.7c0-0.1,0.1-0.1,0.2-0.1l0.5,0c0,0,0.1,0,0.1,0c1.4,1,1.2,7.4,1,14.8c-0.2,6.1-0.4,12.4,0.4,15.2
			c1.7,4.6,5.8,7.5,10.4,7.5c3.3,0,6.3-1.5,8.6-4.3c0.1-0.1,0.2-0.1,0.2,0c4.3,2.8,9.2,4.1,15,4.1c4.8,0,9.5-0.9,13.2-1.7
			c9.3-2.2,15.1-9.3,19-15.2c6.7-10,4.7-27.4-0.1-39.3c-4.3-10.9-10-15.8-22.4-19.2c-2.1-0.5-4.2-0.8-6.5-0.8
			c-4.7,0-9.5,1.2-13.5,2.3c-0.1,0-0.1,0-0.2,0c0,0-0.1-0.1-0.1-0.1l0-3.5c0.1-12.1,0.3-24.7,1-37c0.1-3.8-1.2-7-3.6-9.5
			c-2.3-2.3-5.5-3.6-8.7-3.6c-4.5,0-10.2,2.9-11,11c-1,10.4-1,21.2-0.9,31.5c0,5.8,0,11.7-0.2,17.5c0,0.2,0,0.5,0,0.8
			c-0.1,7.4-0.6,10.6-1.7,10.6c-0.1,0-0.2,0-0.3-0.1c-0.1,0-0.1-0.1-0.1-0.1c-1.1-5.2-3.1-12.7-7-18.8c-2.5-3.7-6.3-5.8-10.5-5.8
			c-2.7,0-5.5,0.9-8,2.5c-7.6,5.6-4.9,12-2,18.7c1.5,3.6,3.1,7.4,3.1,11.1c-0.2,7.8-2,13-10.1,13.1h-0.1c-3.6,0-6.1-1-7.4-3
			c-3.4-5,1-15.3,4.4-23.5c1.8-4.2,3.3-7.8,3.4-9.8c0.1-4.1-1.4-7.6-4.3-10.2c-2.2-1.7-4.5-2.6-6.9-2.6c-3.8,0-7.5,2.2-10.3,4.1
			c-0.3,0.7-0.7,1.3-1,2c-2.7,5.4-5.5,11.1-7.2,16.9l0,0.2c-0.2,0.7-0.4,1.3-0.7,1.3c-0.3,0-0.4-0.4-0.5-0.7
			c-2.2-9.1-15.3-15.3-23.8-16.3c-1.6-0.2-3.2-0.3-4.8-0.3c-5.9,0-10.9,1.2-14.8,3.5c0,0-0.1,0-0.2,0c-1.5-0.6-2.9-0.9-4.4-0.9
			c-5,0-9.6,3.7-11.9,9.4c0,0-0.1,0.1-0.1,0.1l-1.3,0.5c-0.1,0-0.1,0-0.2,0c0,0-0.1-0.1-0.1-0.1c-0.6-6.1-2.2-12-9-14.5
			c-1.1-0.3-2.3-0.4-3.4-0.4c-4.4,0-8.3,2.3-10.5,6.3c0,0.1-0.1,0.1-0.2,0.1c-1.1-0.3-2.3-0.6-3.6-1c-3.4-0.8-6.5-1.2-9.5-1.2
			c-4.9,0-9.7,1.1-15.9,3.7c-7.1,3-12.7,10.4-15.8,20.9c-3.9,13-2.8,27.3,2.7,35.4l0.4,0.6c0.5,0.7,0.9,1.3,1.4,2
			c5.3,8,16.8,13.3,28.6,13.3C46,351.5,51.5,350,55.9,347.3C55.8,347.3,55.8,347.3,55.9,347.3z M334.6,351.5c-3.2,0-6.2-1.5-8.5-4.3
			c-4.3,2.7-8.8,4-14.2,4c-3.9,0-8-0.6-12.3-1.3c-12.4-2-19.7-13.4-22.3-18.2c-4-7.4-3.2-20-1.1-29.3c1.5-6.7,4.9-15.3,9.1-19.5
			c5.3-5,15.1-8.6,23.3-8.6c1.1,0,2.1,0.1,3,0.2c3.1,0.4,6.4,1.1,10,2.2c1.4-2.5,3.4-4.3,6.1-5.5c5.2-1.9,9.3-1.3,12.3,1.7
			c6.6,6.7,6.2,23.7,6,33.8c0,1.8-0.1,3.4-0.1,4.6l0,1.7c0.1,5.9,0.2,12.1,0.3,18.1c1.9-6.1,7.8-8.2,13.4-10.1l0.1,0
			c0,0,0.1,0,0.1,0l3.4,0.5c0,0,0,0,0.1,0c6.7,3.9,12.7,8.6,11.7,17.1c-1.5,8-8.5,11.6-14.9,11.6c-6.6,0-12.1-3.6-14.1-9.3
			C345.4,346.9,340.4,351.5,334.6,351.5z M326.2,346.8c0.1,0,0.1,0,0.1,0.1c2.2,2.8,5.1,4.3,8.3,4.3c5.6,0,10.5-4.6,11.3-10.7l0-0.1
			c0.1-0.6,0.1-0.6,0.2-0.6c0.1,0,0.2,0.1,0.2,0.2c1.8,5.9,7.3,9.7,14,9.7c6.2,0,13.1-3.5,14.5-11.3c1-8.3-4.9-12.9-11.5-16.7
			l-3.3-0.4l-0.1,0c-5.9,2-12.1,4.2-13.5,11.1c0,0.1-0.1,0.1-0.2,0.1c-0.1,0-0.2-0.1-0.2-0.2c-0.2-6.5-0.3-13-0.4-19.4l0-1.7
			c0-1.2,0-2.8,0.1-4.6c0.2-10.1,0.6-27-5.9-33.6c-1.8-1.8-4-2.7-6.5-2.7c-1.6,0-3.4,0.4-5.4,1.1c-2.7,1.2-4.6,3-6,5.5
			c0,0.1-0.1,0.1-0.2,0.1c-3.7-1.1-7-1.8-10.1-2.2c-0.9-0.1-1.9-0.2-3-0.2c-8.1,0-17.8,3.6-23.1,8.5c-4.2,4.1-7.6,12.7-9,19.3
			c-2,9.3-2.8,21.8,1.1,29.1c2.6,4.8,9.8,16,22,18c4.3,0.7,8.4,1.3,12.3,1.3C317.3,350.8,321.8,349.6,326.2,346.8
			C326.1,346.8,326.1,346.8,326.2,346.8z M437.5,350.2C437.5,350.2,437.5,350.2,437.5,350.2c-0.2,0-0.4,0-0.7,0
			c-12.1-1.6-11.7-13.9-11.3-23.8c0.1-1.7,0.1-3.3,0.1-4.7c0-8.1-0.2-16.4-0.3-24.3c0-2.8-0.1-5.6-0.1-8.4l-0.8,0.1
			c-2.1,0.2-4.2,0.4-6.4,0.4c-2.5,0-4.7-0.3-6.6-1c-5.1-2.1-7.8-6.7-7.1-12.1c2-9.9,11.3-10.7,19.5-11.3c0.5,0,1.1-0.1,1.6-0.1
			c0-0.8-0.1-1.6-0.1-2.4c-0.2-4.9-0.3-9.9-0.3-14.8c0.1-6.7,0.7-12.6,6.5-16.4c2.2-1.3,4.4-1.9,6.5-1.9c5.6,0,10.4,4.6,11.5,11.2
			c0.9,5.4,1,11.2,1,16.7c0,1.9,0,3.9,0.1,5.8c1.2-0.1,2.1-0.1,2.9-0.1c4.3,0,8.8,0.6,12.3,5.3c2,3.1,2.5,6.6,1.4,9.9
			c-1.1,3.5-3.9,6.5-7.5,8.1c-2.9,1.2-5.7,1.3-9,1.3c0,2,0,4-0.1,6c-0.1,10.7-0.3,21.8,0.1,32.6c0.1,2.4,0.2,5.2,0,8
			C450.4,341.5,446.7,350.2,437.5,350.2z M425.4,288.5c0,0,0.1,0,0.1,0c0,0,0.1,0.1,0.1,0.1c0,2.9,0.1,5.7,0.1,8.6
			c0.1,8,0.2,16.2,0.3,24.3c0,1.4-0.1,3-0.1,4.7c-0.4,9.7-0.8,21.8,11,23.4c0.2,0,0.4,0,0.6,0c8.9,0,12.5-8.5,12.9-15.8
			c0.1-2.8,0.1-5.5,0-8c-0.4-10.9-0.3-21.9-0.1-32.6c0-2.1,0.1-4.1,0.1-6.2c0-0.1,0.1-0.2,0.2-0.2c3.4,0,6.2-0.2,9.1-1.3
			c3.6-1.5,6.3-4.4,7.3-7.8c1-3.2,0.5-6.6-1.4-9.6c-3.4-4.5-7.8-5.1-12-5.1c-0.9,0-1.8,0-3.1,0.1c0,0-0.1,0-0.1,0
			c0,0-0.1-0.1-0.1-0.1c-0.1-2-0.1-4-0.1-5.9c0-5.5-0.1-11.2-1-16.6c-1.1-6.4-5.7-10.9-11.1-10.9c-2.1,0-4.2,0.6-6.4,1.9
			c-5.6,3.7-6.2,9.5-6.3,16.2c-0.1,4.9,0.1,9.9,0.3,14.8c0,0.9,0.1,1.7,0.1,2.6c0,0.1-0.1,0.2-0.2,0.2c-0.6,0.1-1.2,0.1-1.8,0.2
			c-8.1,0.7-17.3,1.4-19.2,11c-0.6,5.3,1.9,9.6,6.9,11.7c1.8,0.6,3.9,0.9,6.4,0.9c2.1,0,4.3-0.2,6.3-0.4L425.4,288.5
			C425.4,288.5,425.4,288.5,425.4,288.5z M396.1,341C396.1,341,396.1,341,396.1,341c-5.5,0-12-4.1-12.9-11.7c-0.4-3-0.6-6.2-0.8-9.2
			c-0.1-1.5-0.2-3-0.3-4.5l-2.3-27.6c-1.1-3.5-1.3-7.4-0.5-10.5l-0.4-0.5c-1.3-1.6-2.6-3.2-3.7-4.9c-4-6.2-4.4-14.8-0.8-21.3
			c3.1-5.8,8.6-8.7,15.3-8.2c3,0.2,5.9,1.1,8.5,2.5c4.3,2.7,7.2,7,8.2,12.3c1.1,6.2-0.4,12.8-4.2,17.7c0.5,1.4,0.9,2.8,1.1,4.2
			c1.7,13,2.7,26.4,3.7,39.4l0.1,1.4c0,0.6,0.1,1.2,0.1,1.7c0.3,3.7,0.7,7.6-0.5,11.2C404.9,338.1,401,341,396.1,341z M388.1,242.8
			c-5.9,0-10.7,2.9-13.5,8.1c-3.5,6.4-3.2,14.8,0.8,20.9c1.1,1.7,2.4,3.3,3.7,4.9l0.5,0.6c0,0,0,0.1,0,0.2c-0.8,3-0.7,6.9,0.4,10.4
			c0,0,0,0,0,0l2.3,27.6c0.1,1.5,0.2,3,0.3,4.5c0.2,3,0.4,6.2,0.8,9.2c0.9,7.4,7.2,11.4,12.6,11.4c0,0,0,0,0,0
			c4.7,0,8.5-2.8,10.4-7.7c1.1-3.6,0.8-7.4,0.5-11.1c0-0.6-0.1-1.2-0.1-1.7l-0.1-1.4c-1-13-2-26.4-3.7-39.4
			c-0.2-1.5-0.5-2.9-1.1-4.2c0-0.1,0-0.1,0-0.2c3.7-4.9,5.3-11.4,4.1-17.5c-1-5.2-3.8-9.5-8-12.1c-2.5-1.4-5.4-2.3-8.4-2.5
			C389.1,242.8,388.6,242.8,388.1,242.8z M40.1,327.3c-3.9,0-8-2.6-11.5-5.2c0,0-0.1-0.1-0.1-0.1c-0.5-5.9-1.3-14.7,3.6-19.6
			c1.8-1.7,4.2-2.5,7.6-2.5c1.7,0,3.5,0.2,5.3,0.4c0,0,0.1,0,0.1,0c6.3,5.1,7.6,14.7,3,22C45.8,325.6,43.2,327.3,40.1,327.3z
			 M28.8,321.9c3.4,2.5,7.4,5,11.2,5c3,0,5.5-1.6,7.6-4.8c4.6-7.1,3.3-16.5-2.9-21.5c-1.7-0.2-3.4-0.4-5.2-0.4
			c-3.3,0-5.6,0.8-7.3,2.4C27.6,307.4,28.3,316.1,28.8,321.9z M238.1,327.1C238.1,327.1,238.1,327.1,238.1,327.1
			c-3.1,0-5.7-1.6-7.8-4.9c-4.8-7.3-3.5-16.8,2.9-22.2c0,0,0.1,0,0.1,0c1.8-0.2,3.5-0.5,5.3-0.5c3.3,0,5.8,0.8,7.6,2.5
			c4.9,4.9,4.2,13.3,3.7,19.5l0,0.2c0,0.1,0,0.1-0.1,0.1C246.1,324.5,242,327.1,238.1,327.1z M233.3,300.4
			c-6.2,5.3-7.4,14.6-2.8,21.7c2.1,3.2,4.6,4.7,7.5,4.7c3.8,0,7.8-2.6,11.3-5.1l0-0.1c0.5-6.1,1.2-14.5-3.6-19.2
			c-1.7-1.7-4.1-2.4-7.3-2.4C236.7,299.9,235,300.1,233.3,300.4z M310.8,326.6c-5.1,0-11.7-3.1-11.9-6.5l0-0.6
			c-0.4-6-0.8-13.4,3.8-17.9c1.7-1.7,4.2-2.5,7.4-2.5c1.7,0,3.5,0.2,5.2,0.4c0,0,0.1,0,0.1,0c6.6,5.9,7.6,15.6,2.4,23
			c-0.8,1.1-1.8,2.4-3.4,3.3C313.5,326.4,312.3,326.6,310.8,326.6z M310,299.4c-3.2,0-5.5,0.8-7.2,2.4c-4.4,4.4-4,11.7-3.6,17.7
			l0,0.6c0.2,3.3,6.6,6.2,11.6,6.2c1.4,0,2.6-0.3,3.4-0.7c1.2-0.7,2.2-1.7,3.3-3.2c5.1-7.2,4.1-16.7-2.3-22.4
			C313.5,299.6,311.7,299.4,310,299.4z"/>
	</g>
	<g>
		<path class="st6" d="M432.8,283.7c0.2,16.9,0.8,33.9,0.4,50.9c-0.1,3.4,0.5,8.4,4.9,8.6c7.1-0.4,5.6-13.6,5.4-17.7
			c-0.5-14.9-0.1-29.8,0-44.7c4.7-1,10.9,0.9,15-2c1.1-0.9,1.9-2,2.1-3.4c0.5-7.5-12.8-4-16.9-4.4c-0.8-9.1-0.1-18.3-1.1-27.5
			c-0.3-2.4-0.7-5.8-3.6-6.4c-7-0.8-6.4,8.4-6.4,12.8c0,7.4,0.3,14.8,0.6,22.2c-5.6,0.4-11.5,0.6-17,1.7c-5,1.1-6.6,7.6-0.3,8.4
			c5.6,0.6,11.2-1.3,16.8-0.9L432.8,283.7z"/>
	</g>
	<g>
		<path class="st7" d="M438.1,343.3C438.1,343.3,438.1,343.3,438.1,343.3c-3.4-0.2-5.2-3.2-5.1-8.8c0.3-12.8,0.1-25.8-0.2-38.4
			c-0.1-4.1-0.2-8.3-0.2-12.4l0-2.1c-0.5,0-1,0-1.5,0c-2.1,0-4.3,0.3-6.3,0.5c-2.1,0.3-4.3,0.5-6.4,0.5c-0.9,0-1.6,0-2.4-0.1
			c-2.6-0.3-4.2-1.7-4.3-3.6c-0.1-2,1.6-4.5,4.6-5.1c4.6-0.9,9.4-1.2,14-1.5c1-0.1,1.9-0.1,2.9-0.2c-0.3-7.1-0.6-14.6-0.6-22.1
			c0-0.3,0-0.6,0-1c0-3.3-0.1-8.3,2.3-10.7c1.1-1.1,2.5-1.5,4.3-1.3c3,0.6,3.5,4.3,3.7,6.5c0.5,4.7,0.6,9.6,0.6,14.3
			c0,4.3,0.1,8.7,0.5,13c0.9,0.1,2.5,0,4.1-0.2c1.6-0.1,3.4-0.3,5.1-0.3c3.4,0,5.5,0.6,6.7,1.9c0.8,0.8,1.1,1.9,1,3.2
			c-0.2,1.4-1,2.6-2.2,3.5c-2.1,1.5-4.9,1.7-7.5,1.7c-0.6,0-1.2,0-1.8,0c-0.6,0-1.2,0-1.7,0c-1.1,0-2.5,0-3.9,0.3
			c0,3.5-0.1,6.9-0.1,10.4c-0.1,11.2-0.3,22.8,0.1,34.1c0,0.4,0,0.9,0.1,1.4C444.1,332.1,444.6,342.9,438.1,343.3
			C438.1,343.3,438.1,343.3,438.1,343.3z M431.1,281.2c0.6,0,1.1,0,1.7,0.1c0.1,0,0.2,0.1,0.2,0.2l0,2.3c0.1,4.1,0.1,8.4,0.2,12.4
			c0.2,12.6,0.5,25.6,0.2,38.4c-0.1,5.4,1.5,8.3,4.7,8.4c6.2-0.4,5.6-11,5.3-16.1c0-0.5-0.1-1-0.1-1.4c-0.4-11.4-0.2-22.9-0.1-34.1
			c0-3.5,0.1-7,0.1-10.5c0-0.1,0.1-0.2,0.1-0.2c1.4-0.3,2.9-0.3,4.1-0.3c0.6,0,1.2,0,1.7,0c0.6,0,1.2,0,1.8,0c2.6,0,5.3-0.2,7.3-1.6
			c1.1-0.9,1.8-2,2.1-3.3c0.1-1.2-0.2-2.2-0.9-2.9c-1.1-1.2-3.2-1.7-6.4-1.7c-1.7,0-3.5,0.2-5.1,0.3c-1.8,0.1-3.4,0.3-4.3,0.2
			c-0.1,0-0.2-0.1-0.2-0.2c-0.4-4.4-0.5-8.9-0.5-13.2c-0.1-4.7-0.1-9.5-0.6-14.3c-0.2-2.1-0.7-5.6-3.4-6.2c-0.3,0-0.5,0-0.8,0
			c-1.3,0-2.4,0.4-3.2,1.2c-2.2,2.3-2.2,7.2-2.2,10.4c0,0.3,0,0.7,0,1c0,7.5,0.3,15.1,0.6,22.2c0,0.1-0.1,0.2-0.2,0.2
			c-1,0.1-2,0.1-3,0.2c-4.6,0.3-9.4,0.6-14,1.5c-2.8,0.6-4.4,2.9-4.3,4.8c0.1,1.8,1.5,3,3.9,3.3c0.7,0.1,1.5,0.1,2.4,0.1
			c2.1,0,4.3-0.3,6.4-0.5C426.8,281.4,429,281.2,431.1,281.2z"/>
	</g>
	<g>
		<path class="st6" d="M389.5,274c2.1,0.1,4.2-0.4,5.8-1.8c1.7-1.7,2.8-4.1,3.5-6.4c1.3-4.8,0.1-11.1-4.4-13.8
			c-1.5-0.8-3.1-1.3-4.8-1.5c0,0-0.1,0-0.1,0v8.7c0.4,0.1,0.8,0.2,1,0.5c1,1.5,0.8,3.3,0.1,4.8c-0.3,0.5-0.4,0.7-1,0.7h-0.1V274z
			 M384.6,272.9c0.7,0.3,1.5,0.6,2.2,0.8c0.8,0.2,1.7,0.3,2.6,0.4v-8.8c-0.1,0-0.3,0-0.4-0.1c-0.5-0.6-1.1-1.2-1.3-2
			c-0.1-0.4-0.1-0.7-0.1-1.1c0-1.2-0.2-3.1,1.5-2.8c0.1,0,0.2,0,0.3,0v-8.7c-4.1-0.4-8,1.5-9.4,5.5c-0.6,1.9-0.8,4-0.8,6v0.7v0.1
			C379.4,266.8,382.3,270,384.6,272.9"/>
	</g>
	<g>
		<path class="st5" d="M389.8,274.2L389.8,274.2c-1,0-2-0.1-3-0.4c-0.8-0.2-1.6-0.5-2.3-0.8c0,0-0.1,0-0.1-0.1
			c-0.2-0.2-0.4-0.5-0.6-0.7c-2.2-2.7-4.7-5.7-4.8-9.4c0-2.8,0.2-5,0.9-6.9c1.2-3.5,4.5-5.7,8.4-5.7c0.4,0,0.8,0,1.2,0.1
			c1.8,0.2,3.5,0.8,4.8,1.5c4.7,2.9,5.8,9.2,4.5,14c-0.8,2.8-2,5-3.5,6.4C393.6,273.9,391.4,274.2,389.8,274.2z M384.7,272.7
			c0.7,0.3,1.4,0.5,2.2,0.8c0.9,0.2,1.9,0.4,2.9,0.4c2.2,0,4.1-0.6,5.4-1.7c1.5-1.4,2.6-3.5,3.4-6.3c1.3-4.7,0.2-10.8-4.3-13.6
			c-1.3-0.7-2.9-1.2-4.7-1.5c-0.4,0-0.8-0.1-1.2-0.1c-3.8,0-6.9,2.1-8.1,5.5c-0.6,1.9-0.9,4-0.8,6.8c0.1,3.5,2.6,6.5,4.7,9.2
			C384.4,272.3,384.5,272.5,384.7,272.7z M389.6,265.4c-0.2,0-0.4,0-0.5-0.1c0,0,0,0-0.1,0l0,0c-0.5-0.6-1.1-1.3-1.3-2.1
			c-0.1-0.4-0.1-0.7-0.1-1.1l0,0c0-0.1,0-0.3,0-0.4c0-0.8,0-1.8,0.5-2.3c0.3-0.3,0.7-0.4,1.2-0.3c0.5,0.1,1.1,0.2,1.4,0.7
			c1,1.4,1,3.2,0.1,5C390.5,265.1,390.3,265.4,389.6,265.4C389.6,265.4,389.6,265.4,389.6,265.4z M389.2,265c0.1,0,0.2,0.1,0.3,0.1
			c0.5,0,0.6-0.1,0.9-0.6c0.9-1.7,0.9-3.3,0-4.6c-0.3-0.3-0.8-0.4-1.2-0.5c-0.4-0.1-0.7,0-0.9,0.2c-0.4,0.4-0.4,1.3-0.4,2
			c0,0.2,0,0.3,0,0.5l0,0c0,0.3,0,0.7,0.1,1C388.2,263.8,388.7,264.4,389.2,265L389.2,265z"/>
	</g>
	<g>
		<path class="st6" d="M388.1,299.6c0.8,9.4,1.5,18.8,2.3,28.2c0.3,3.2,2.1,5.9,5.6,5.8c4.1-0.4,4.2-4.7,4-7.9
			c-0.7-12.3-2-24.6-3.2-36.8c-0.3-2.9-0.5-5.8-0.9-8.7c-0.5-3.5-2.6-5.8-6.2-4.6c-4.3,1.6-3.9,7.2-2.6,10.8L388.1,299.6z"/>
	</g>
	<g>
		<path class="st5" d="M395.9,333.8c-3.7,0-5.4-3.2-5.6-6c-0.5-6.2-1-12.5-1.5-18.7c-0.3-3.2-0.5-6.4-0.8-9.5l-1.1-13.1
			c-1.1-3-2-9.2,2.7-11c0.7-0.2,1.3-0.3,1.9-0.3c2.4,0,4.2,1.9,4.6,5.1c0.3,2.5,0.6,5,0.8,7.4l0.1,1.3c0.2,2.1,0.4,4.3,0.6,6.4
			c1,9.9,2,20.2,2.6,30.4c0.2,3.7-0.1,7.6-4.2,8.1C396,333.8,395.9,333.8,395.9,333.8z M391.5,275.5c-0.5,0-1.1,0.1-1.8,0.3
			c-4.1,1.6-3.8,7.2-2.5,10.5c0,0,0,0,0,0l1.1,13.2c0.3,3.2,0.5,6.4,0.8,9.5c0.5,6.1,1,12.4,1.5,18.6c0.2,2.7,1.8,5.8,5.4,5.7
			c3.7-0.4,4-4.1,3.8-7.7c-0.6-10.1-1.6-20.4-2.6-30.3c-0.2-2.1-0.4-4.3-0.6-6.4l-0.1-1.3c-0.2-2.4-0.5-5-0.8-7.4
			C395.3,277.3,393.8,275.5,391.5,275.5z"/>
	</g>
	<g>
		<path class="st6" d="M353,335.6c-0.1,0.8-0.1,1.6,0,2.5c0.4,2.9,3.3,4.4,6,4.9c2.3,0.5,4.5-0.1,6.4-1.5c1.5-1.1,2.4-2.5,2.5-4.3
			c0-1.7-0.6-3.2-1.7-4.4c-1.2-1.3-3-2.3-4.8-2.7c-0.1,0-0.2,0-0.3,0l-0.2-1.3c-2.9,1.1-6.7,2.1-7.6,5.5
			C353.1,334.7,353,335.2,353,335.6"/>
	</g>
	<g>
		<path class="st5" d="M360.5,343.4L360.5,343.4c-0.5,0-1.1-0.1-1.6-0.2c-1.7-0.4-5.7-1.6-6.1-5.1c-0.1-0.8-0.1-1.6,0-2.5
			c0.1-0.4,0.1-0.9,0.2-1.3c0.8-3.1,3.9-4.3,6.7-5.3c0.4-0.1,0.7-0.3,1-0.4c0.1,0,0.1,0,0.2,0c0,0,0.1,0.1,0.1,0.1l0.2,1.2
			c0,0,0.1,0,0.1,0l0.1,0c1.7,0.3,3.5,1.3,4.9,2.7c1.2,1.3,1.8,2.8,1.8,4.5c-0.1,1.8-0.9,3.2-2.5,4.5
			C363.9,342.8,362.2,343.4,360.5,343.4z M360.7,329c-0.3,0.1-0.6,0.2-0.8,0.3c-2.6,1-5.6,2.1-6.4,5c-0.1,0.4-0.2,0.9-0.2,1.3
			c-0.1,0.9-0.1,1.7,0,2.4c0.4,3.3,4.2,4.5,5.9,4.8c2.2,0.4,4.3-0.1,6.2-1.4c1.5-1.2,2.3-2.5,2.4-4.2c0-1.6-0.6-3-1.7-4.3
			c-1.3-1.3-3-2.3-4.7-2.6l-0.1,0c-0.1,0-0.2,0-0.2,0c-0.1,0-0.1-0.1-0.2-0.2L360.7,329z"/>
	</g>
	<g>
		<path class="st6" d="M337.9,290.3c-0.2-4.2-0.4-14-7.1-12c-4,1.5-3.7,6-3.4,9.5c-3.3-2.4-7.5-3.5-11.4-4.5
			c-2.3-0.5-4.4-0.9-6.4-1.1v10.4c1.9,0,3.8,0.1,5.6,0.3c1.8,0.2,3.2,0.7,4.5,1.9c6.4,5.7,9.6,15.3,7.6,23.6
			c-1.9,7.7-8.9,17-17.7,16.1v9.8c1.3,0.1,2.5,0.1,3.8,0.1c7.2-0.4,11.9-5.5,16.4-10.5c0.1,3.4-0.3,8.8,3.6,10.4
			c6.3,2,5.5-8,5.3-11.5C338.4,318.7,338.7,304.5,337.9,290.3 M309.7,282.3c-3.1-0.2-6.1,0.2-9.6,1.5c-2.3,0.8-4.7,1.7-6.8,2.8
			c-5.5,3.1-7.1,9.3-9.2,14.9c-0.7,2-1.1,4.1-1.4,6.2c-0.4,3.3-0.8,6.9-0.9,10.4v1.2c0.1,4,0.8,7.8,2.9,11.1
			c0.6,0.9,1.2,1.8,1.8,2.7c3.5,5.2,8.8,9.1,15.1,10.1c2.6,0.4,5.4,0.9,8.1,1.1v-9.8c-0.1,0-0.3,0-0.4-0.1
			c-4.4-0.7-9.1-2.4-12.6-5.2c-2.3-1.8-4.4-2.5-4.8-5.5c-0.7-5.4-0.8-11.4,0.3-16.7c1.1-5,3.4-8.6,7.4-11.8c1.3-0.5,2.5-1.1,3.7-1.8
			c0.9-0.6,1.7-0.7,2.8-0.7c1.2,0,2.4,0,3.6,0V282.3z"/>
	</g>
	<g>
		<path class="st5" d="M335.1,344.8L335.1,344.8c-0.5,0-1-0.1-1.6-0.3c-3.6-1.5-3.7-6.1-3.7-9.4c0-0.2,0-0.5,0-0.7
			c-4.5,4.8-9.1,9.8-16.3,10.2c-3.4,0.1-6.9-0.4-10.2-1c-0.6-0.1-1.1-0.2-1.7-0.3c-6-1-11.4-4.6-15.2-10.2c-0.6-0.9-1.2-1.8-1.8-2.7
			c-3.9-5.9-3-13.9-2.2-20.9c0.1-0.6,0.1-1.3,0.2-1.9c0.3-2.3,0.7-4.4,1.4-6.3c0.2-0.6,0.4-1.1,0.6-1.7c1.8-5.1,3.7-10.5,8.6-13.3
			c2-1.1,4.1-1.9,6.2-2.6l0.6-0.2c2.9-1,5.4-1.5,8.1-1.5c2.3,0,4.7,0.3,8,1.1c4,1,7.9,2,11.1,4.3c-0.3-2.9-0.6-7.7,3.5-9.2
			c0.6-0.2,1.2-0.3,1.7-0.3c5,0,5.4,7.6,5.6,11.7c0,0.2,0,0.5,0,0.7c0.5,8.3,0.5,16.8,0.6,25c0.1,5.8,0.1,11.7,0.3,17.6
			c0,0.2,0,0.5,0,0.7c0.1,2.8,0.3,8.1-1.7,10.2C336.8,344.5,336,344.8,335.1,344.8z M329.9,333.8C330,333.8,330,333.8,329.9,333.8
			c0.1,0,0.2,0.1,0.2,0.2c0,0.4,0,0.7,0,1.1c0.1,3.4,0.1,7.7,3.5,9.1c0.5,0.2,1,0.2,1.4,0.2h0c0.8,0,1.5-0.3,2.1-0.9
			c1.9-2,1.7-7.2,1.6-9.9c0-0.3,0-0.5,0-0.7c-0.2-5.9-0.3-11.8-0.3-17.6c-0.1-8.2-0.2-16.7-0.6-25c0-0.2,0-0.5,0-0.7
			c-0.2-4-0.6-11.4-5.2-11.4c-0.5,0-1,0.1-1.6,0.3c-3.7,1.4-3.6,5.5-3.2,9.3c0,0.1,0,0.1-0.1,0.2c-0.1,0-0.1,0-0.2,0
			c-3.2-2.3-7.1-3.4-11.3-4.4c-3.3-0.8-5.6-1.1-7.9-1.1c-2.6,0-5.2,0.5-8,1.5l-0.6,0.2c-2.1,0.8-4.2,1.5-6.1,2.6
			c-4.9,2.8-6.7,8-8.5,13.1c-0.2,0.6-0.4,1.1-0.6,1.7c-0.7,1.9-1.1,3.9-1.4,6.2c-0.1,0.6-0.1,1.2-0.2,1.9c-0.8,7-1.7,14.9,2.2,20.7
			c0.6,0.9,1.2,1.8,1.8,2.7c3.7,5.5,9,9.1,15,10c0.6,0.1,1.1,0.2,1.7,0.3c3.3,0.5,6.8,1.1,10.1,0.9c7.1-0.4,11.7-5.4,16.1-10.2
			l0.2-0.2C329.8,333.8,329.9,333.8,329.9,333.8z M311,334.8c-0.6,0-1.2,0-1.7-0.1c-4.9-0.8-9.4-2.6-12.7-5.2c-0.5-0.4-1-0.7-1.4-1
			c-1.7-1.2-3.1-2.1-3.4-4.6c-0.5-4.4-0.9-10.8,0.3-16.8c1.1-5,3.4-8.7,7.5-11.9c0,0,0,0,0,0c1.2-0.5,2.5-1.1,3.7-1.8
			c0.9-0.6,1.7-0.7,2.9-0.7c0.5,0,1.1,0,1.6,0c0.5,0,1.1,0,1.6,0c1.9,0,4,0,6.1,0.3c2,0.2,3.4,0.8,4.6,1.9
			c6.5,5.9,9.6,15.4,7.6,23.8C325.7,326.5,318.9,334.8,311,334.8z M299.7,295.4c-4,3.2-6.3,6.8-7.3,11.7c-1.2,5.9-0.9,12.4-0.3,16.7
			c0.3,2.3,1.6,3.2,3.3,4.4c0.5,0.3,0.9,0.6,1.4,1c3.3,2.5,7.7,4.3,12.5,5.1c0.6,0.1,1.1,0.1,1.7,0.1c7.8,0,14.4-8.1,16.3-16
			c2-8.3-1.1-17.7-7.5-23.5c-1.2-1.1-2.5-1.6-4.4-1.8c-2.1-0.2-4.1-0.3-6-0.3c-0.5,0-1.1,0-1.6,0c-0.5,0-1.1,0-1.6,0
			c-1.1,0-1.8,0.1-2.7,0.7C302.2,294.3,300.9,294.9,299.7,295.4z"/>
	</g>
	<g>
		<path class="st6" d="M238.2,282.5c5.6-0.4,11.1,1.5,16.1,4.1c4.6,2.4,6,5.8,7.9,10.5c1.4,3.6,2.7,6.9,3.2,10.8
			c0.4,3.3,0.8,6.9,0.9,10.4v1.2c-0.1,4-0.8,7.8-2.9,11c-0.7,1.1-1.5,2.2-2.2,3.3c-3.7,5.6-9.4,8.7-15.9,9.7c-2.3,0.3-4.6,0.7-7,0.9
			v-9.9c0.8-0.1,1.7-0.2,2.6-0.4c2.9-0.8,6-1.7,8.6-3.3c3.9-2.4,6.5-3.8,6.9-8.4c0.5-6.1,0.6-12.5-1.3-18.3
			c-1.2-3.6-3.7-6.4-6.6-8.7c-1.5-0.6-3.1-1.8-4.6-2.3c-0.4-0.1-0.8-0.2-1.2-0.2c-1.5-0.1-2.9-0.2-4.4-0.2V282.5z M209.1,323.8
			c0.2-10.6,0.2-21.2,0.7-31.8c0.9-18.4,0-36.9,1.3-55.3c0.2-2.8,0.4-5.7,3.9-5.8c7,0.3,5.1,7.8,5,12.5c-0.5,15.2-1,30.5-0.7,45.7
			c4.4-4,11.5-5.4,17.1-6.3c0.6-0.1,1.2-0.2,1.8-0.2v10.3c-4.3-0.1-8.4,0.4-11.6,3.5c-3,3-4.9,7.2-6.1,11.2
			c-3.3,11.3,4.9,28.1,17.7,27v9.9c-1,0.1-2,0.1-3,0.1c-7.7-0.1-12.5-5.2-17.4-10.5c-0.1,3.5,0.2,8.8-3.6,10.4
			c-6.3,2-5.5-8-5.4-11.4C209,330,209.1,326.9,209.1,323.8"/>
	</g>
	<g>
		<path class="st5" d="M212.7,345c-0.9,0-1.7-0.3-2.3-1c-2.1-2.1-1.8-7.4-1.7-10.2c0-0.3,0-0.5,0-0.8c0.1-3.1,0.2-6.2,0.2-9.3
			c0-2.9,0.1-5.8,0.1-8.7c0.1-7.6,0.2-15.4,0.5-23.1c0.4-8.2,0.4-16.6,0.5-24.7c0.1-10,0.1-20.4,0.8-30.6l0-0.1
			c0.2-2.8,0.5-5.7,4.1-5.9c1.8,0.1,3.1,0.6,4,1.6c1.8,2.1,1.5,5.7,1.3,8.8c-0.1,0.8-0.1,1.6-0.2,2.3c-0.5,15.3-1,30.2-0.7,45.3
			c4.2-3.6,10.6-5.1,16.9-6.1c5.4-0.8,11.2,0.5,18,3.9c4.7,2.5,6.1,6.1,7.9,10.6l0.1,0.2c1.4,3.5,2.7,6.8,3.1,10.6
			c0.1,0.6,0.1,1.2,0.2,1.9c0.8,7,1.7,15-2.3,20.9l-1,1.5c-0.4,0.6-0.8,1.2-1.2,1.8c-3.6,5.3-9.1,8.7-16,9.8
			c-0.4,0.1-0.8,0.1-1.2,0.2c-2.8,0.4-5.7,0.9-8.6,0.9l-0.2,0c-7.7-0.1-12.6-5.2-17.2-10.2c0,0.2,0,0.4,0,0.7
			c-0.1,3.4-0.1,8-3.7,9.5C213.7,344.9,213.2,345,212.7,345z M215.1,231c-3.3,0.1-3.5,2.7-3.7,5.5l0,0.1
			c-0.7,10.1-0.8,20.5-0.8,30.6c0,8.1-0.1,16.5-0.5,24.7c-0.4,7.7-0.4,15.5-0.5,23.1c0,2.9-0.1,5.8-0.1,8.7
			c-0.1,3.2-0.1,6.3-0.2,9.3c0,0.2,0,0.5,0,0.8c-0.1,2.7-0.3,7.9,1.6,9.9c0.8,0.9,2,1.1,3.5,0.6c3.4-1.4,3.4-5.7,3.5-9.1
			c0-0.4,0-0.7,0-1.1c0-0.1,0-0.1,0.1-0.2c0.1,0,0.1,0,0.2,0c4.7,5.1,9.6,10.3,17.3,10.4l0.2,0c2.9,0,5.7-0.4,8.5-0.9
			c0.4-0.1,0.8-0.1,1.2-0.2c6.8-1,12.3-4.4,15.8-9.6c0.4-0.6,0.8-1.2,1.2-1.8l1-1.5c3.9-5.8,3-13.7,2.2-20.7
			c-0.1-0.6-0.1-1.3-0.2-1.9c-0.4-3.8-1.7-7.1-3.1-10.5l-0.1-0.2c-1.8-4.5-3.2-8-7.8-10.4c-6.7-3.4-12.5-4.7-17.8-3.9
			c-6.4,1-12.9,2.5-17,6.2c-0.1,0-0.1,0.1-0.2,0c-0.1,0-0.1-0.1-0.1-0.2c-0.3-15.2,0.2-30.3,0.7-45.7c0-0.7,0.1-1.5,0.2-2.3
			c0.3-3.1,0.6-6.6-1.2-8.6C218,231.6,216.8,231.1,215.1,231z M237.1,334.8C237.1,334.8,237.1,334.8,237.1,334.8
			c-4.7,0-9.1-2.4-12.5-6.9c-4.4-5.8-6.1-14-4.3-20.4c1.5-4.9,3.5-8.7,6.2-11.3c3.3-3.2,7.3-3.6,10.9-3.6c1.5,0,3,0.1,4.4,0.2l0.8,0
			c0.4,0,0.8,0.1,1.2,0.2c0.9,0.3,1.8,0.8,2.7,1.3c0.6,0.4,1.3,0.7,2,1c0,0,0,0,0,0c3.4,2.7,5.6,5.5,6.7,8.8c2,6,1.8,12.7,1.3,18.4
			c-0.4,4.4-2.9,6-6.4,8.2l-0.6,0.4c-2.7,1.6-5.9,2.6-8.7,3.3C239.6,334.7,238.3,334.8,237.1,334.8z M237.5,293
			c-3.5,0-7.5,0.4-10.7,3.5c-2.6,2.6-4.6,6.3-6.1,11.2c-1.8,6.3-0.1,14.4,4.2,20.1c3.3,4.3,7.6,6.7,12.2,6.7c0,0,0,0,0,0
			c1.2,0,2.4-0.2,3.7-0.5c2.7-0.7,5.9-1.6,8.6-3.2l0.6-0.4c3.5-2.2,5.9-3.6,6.2-7.9c0.5-5.7,0.7-12.3-1.3-18.3
			c-1.1-3.1-3.2-6-6.5-8.6c-0.7-0.3-1.3-0.7-2-1c-0.9-0.5-1.7-1-2.6-1.3c-0.4-0.1-0.8-0.2-1.2-0.2l-0.8,0
			C240.4,293.1,238.9,293,237.5,293z"/>
	</g>
	<g>
		<path class="st6" d="M149.8,278.2c-2.5,5.2-5.1,10.6-6.3,16.2c-1.1,5.3-1.8,10.8-1.7,16.2c0.1,7.6,4.5,13.4,10.9,17.1
			c3.2,1.9,6.7,3.4,10.5,3.5c3.7,0,7.4,0.1,11-0.1c4.9-0.4,9.2-2.7,13-5.7c1.9-1.5,3.4-3.3,4.4-5.5c4-8.9,4.5-19,1.8-28.3
			c-1.2-4-2.7-8.7-5.2-12.1c-1.9-2.4-4.5-2.6-7.2-1.5c-5.4,2.6-2,8-0.2,11.8c1.5,3.3,2.8,6,3.1,9.7c0.3,3.8-0.1,7.7-0.9,11.4
			c-1.5,5.9-5.6,10-11.5,11.3c-5.3,1.1-11.1,0.5-15.5-3c-4.3-3.4-4.7-8-4.7-13.3c0.2-6.4,2.6-12.9,5.2-18.7
			c1.6-3.5,4.6-6.6,3.2-10.7c-1.5-3.6-5-3.5-7.9-1.6l-0.7,0.5C150.6,276.4,150.2,277.3,149.8,278.2"/>
	</g>
	<g>
		<path class="st5" d="M168.8,331.5C168.8,331.5,168.8,331.5,168.8,331.5c-1,0-1.9,0-2.9,0c-1,0-1.9,0-2.9,0
			c-4.1,0-7.6-1.8-10.6-3.5c-7-4.1-10.9-10.2-11-17.3c0-4.9,0.5-10.2,1.7-16.2c1.1-5.4,3.6-10.6,6-15.5l0.4-0.7
			c0.4-0.9,0.9-1.8,1.3-2.7c0,0,0-0.1,0.1-0.1l0.7-0.5c1.3-0.9,2.7-1.3,4-1.3c1.9,0,3.4,1.1,4.2,3c1.1,3.1-0.4,5.7-1.8,8.2
			c-0.5,0.8-1,1.7-1.4,2.6c-2.5,5.6-5,12.2-5.2,18.6c-0.1,4.9,0.2,9.7,4.6,13.2c2.9,2.3,6.5,3.5,10.6,3.5c1.5,0,3.1-0.2,4.7-0.5
			c5.9-1.3,9.9-5.3,11.4-11.2c0.9-3.6,1.2-7.5,0.9-11.3c-0.3-3.6-1.6-6.3-3-9.4l-0.1-0.2c-0.2-0.4-0.4-0.8-0.6-1.2
			c-1.3-2.6-2.7-5.6-1.9-8c0.4-1.2,1.3-2.1,2.7-2.8c1.1-0.5,2.1-0.7,3.1-0.7c1.7,0,3.2,0.8,4.4,2.2c2.4,3.3,3.8,7.7,5.2,12.2
			c2.8,9.6,2.2,19.7-1.8,28.5c-1,2.1-2.5,3.9-4.5,5.5c-4.5,3.5-8.7,5.4-13.1,5.7C172.6,331.4,171,331.5,168.8,331.5z M151.2,275.6
			c-0.4,0.9-0.9,1.8-1.3,2.7l-0.4,0.7c-2.4,4.9-4.8,10.1-5.9,15.5c-1.2,6-1.8,11.3-1.7,16.2c0.1,6.9,3.9,12.9,10.8,17
			c2.9,1.7,6.4,3.4,10.4,3.4c0.9,0,1.9,0,2.9,0c1,0,1.9,0,2.9,0h0c2.1,0,3.8,0,5.3-0.1c4.3-0.3,8.5-2.2,12.9-5.7
			c2-1.6,3.4-3.4,4.4-5.4c3.9-8.7,4.5-18.7,1.8-28.2c-1.3-4.5-2.8-8.8-5.1-12.1c-1.1-1.4-2.4-2.1-4.1-2.1c-0.9,0-1.9,0.2-2.9,0.7
			c-1.3,0.7-2.2,1.5-2.6,2.6c-0.8,2.3,0.6,5.2,1.9,7.8c0.2,0.4,0.4,0.8,0.6,1.2l0.1,0.2c1.5,3.2,2.8,5.9,3.1,9.6
			c0.3,3.9-0.1,7.8-0.9,11.5c-1.5,6.1-5.7,10.1-11.7,11.5c-1.6,0.3-3.2,0.5-4.8,0.5c-4.2,0-7.9-1.2-10.8-3.5
			c-4.5-3.6-4.8-8.4-4.7-13.5c0.2-6.5,2.7-13.1,5.2-18.8c0.4-0.9,0.9-1.8,1.4-2.6c1.4-2.5,2.8-4.9,1.8-7.9c-0.9-2.3-2.6-2.8-3.8-2.8
			c-1.2,0-2.5,0.4-3.8,1.3L151.2,275.6z"/>
	</g>
	<g>
		<path class="st6" d="M94,338.5c0.3-5.1,0-10.3-0.1-15.4c-0.1-7.8,0.3-15.7-0.2-23.5c0-0.4,0.7-1.4,1-1.8c3.5-5.5,9.7-9.1,16.4-7.6
			c0.2,0.1,0.5,0.1,0.7,0.2c4.6,1.5,11.1,11.5,16.1,6.1c2.1-2.6,1.5-5.9-1.1-7.9c-3-2.2-5.7-4.8-9.2-6.1c-1.4-0.5-2.9-0.8-4.3-1
			c-7.3-1.1-15.6-0.6-20.9,5.1c-0.5-1.1-1.5-2-2.6-2.6c-3.1-1.2-5.1,0.9-6.9,3.1c0.6,15.7,1.3,31.5,2,47.2
			c0.2,3.5-0.4,12.5,5.6,11.1C93.7,344.3,93.9,341.2,94,338.5"/>
	</g>
	<g>
		<path class="st5" d="M89.5,345.7C89.5,345.7,89.5,345.7,89.5,345.7c-4.4,0-4.5-6.3-4.6-10.1c0-0.5,0-0.9,0-1.3
			c-0.5-12.1-1-24.4-1.5-36.3L82.9,287c0,0,0-0.1,0-0.1c1.4-1.8,3-3.5,5.2-3.5c0.6,0,1.2,0.1,1.8,0.4c1.1,0.5,2,1.4,2.5,2.4
			c3.5-3.6,8.5-5.5,14.9-5.5c1.9,0,3.9,0.2,5.9,0.5c1.7,0.3,3.1,0.6,4.4,1.1c2.6,1,4.8,2.7,6.9,4.3c0.8,0.6,1.6,1.2,2.4,1.8
			c1.4,1.1,2.2,2.5,2.4,4.1c0.2,1.5-0.3,2.9-1.3,4.1c-1,1.1-2.1,1.7-3.4,1.7c-2.6,0-5.2-2.2-7.8-4.3c-1.8-1.5-3.5-2.9-5-3.4
			c-0.2-0.1-0.5-0.1-0.7-0.2c-1-0.2-2-0.3-2.9-0.3c-5.2,0-10.2,2.9-13.3,7.9c-0.1,0.1-0.1,0.2-0.2,0.3c-0.3,0.4-0.8,1.1-0.7,1.4
			c0.4,5.1,0.3,10.3,0.2,15.3c0,2.7-0.1,5.5,0,8.1c0,1.5,0.1,3,0.1,4.5c0.1,3.6,0.2,7.3,0,11l0,0.1c-0.2,2.8-0.3,5.9-3.5,6.9
			C90.3,345.6,89.9,345.7,89.5,345.7z M83.3,287.1l0.4,10.8c0.5,11.9,1,24.2,1.5,36.3c0,0.4,0,0.8,0,1.3c0.1,3.7,0.2,9.8,4.2,9.8
			c0,0,0,0,0,0c0.3,0,0.7,0,1.1-0.1c2.9-1,3.1-3.8,3.3-6.6l0-0.1c0.2-3.6,0.1-7.3,0-10.9c0-1.5-0.1-3-0.1-4.5c0-2.7,0-5.5,0-8.2
			c0.1-5,0.1-10.3-0.2-15.3c0-0.4,0.3-1,0.8-1.6c0.1-0.1,0.2-0.2,0.2-0.3c3.2-5,8.2-8,13.6-8c1,0,2,0.1,3,0.3
			c0.3,0.1,0.5,0.1,0.8,0.2c1.6,0.5,3.3,1.9,5.2,3.4c2.5,2.1,5.1,4.2,7.6,4.2c1.2,0,2.2-0.5,3.2-1.5c0.9-1.1,1.4-2.4,1.2-3.8
			c-0.2-1.5-1-2.8-2.2-3.9c-0.8-0.6-1.6-1.2-2.4-1.8c-2.1-1.6-4.2-3.3-6.8-4.3c-1.2-0.4-2.6-0.8-4.3-1c-2.1-0.3-4-0.5-5.9-0.5
			c-6.4,0-11.4,1.9-14.8,5.5c0,0-0.1,0.1-0.2,0.1c-0.1,0-0.1,0-0.1-0.1c-0.4-1-1.4-1.9-2.5-2.5c-0.6-0.2-1.1-0.3-1.7-0.3
			C86.2,283.7,84.6,285.4,83.3,287.1z"/>
	</g>
	<g>
		<path class="st6" d="M67.8,290.1c-0.3-4.2-0.5-13.4-7.1-11.5c-4,1.5-3.7,6-3.4,9.4c-4.3-3.2-10.6-4.5-15.8-5.3
			c-0.7-0.1-1.4-0.2-2.1-0.2v10.4c1.9,0,3.8,0.1,5.7,0.3c1.8,0.2,3.2,0.7,4.6,1.8c6.5,5.8,9.7,15.5,7.5,23.9
			c-2.1,7.7-9,16.4-17.7,15.5v9.8c1.3,0.1,2.5,0.1,3.8,0.1c7.3-0.4,11.9-5.5,16.5-10.4c0.1,3.4-0.3,8.7,3.6,10.4
			c6.4,2,5.5-8.3,5.3-11.8C68.3,318.4,68.6,304.2,67.8,290.1 M39.5,282.5c-3.4-0.2-6.4,0.3-9.8,1.6c-2.2,0.8-4.5,1.6-6.6,2.8
			c-5.5,3.1-7.2,9.3-9.2,14.8c-1.7,4.9-1.9,10.7-2.1,15.9c0,0.6,0,1.1,0,1.7v1.2c0,3,0.4,6,1.9,8.6c0.9,1.4,1.8,2.8,2.8,4.1
			c3.4,5,8.7,8.9,14.8,9.9c2.7,0.4,5.5,0.9,8.3,1.1v-9.8c-0.6-0.1-1.1-0.2-1.7-0.3c-3.6-0.9-7.5-1.9-10.5-4.2
			c-2.5-1.9-5.2-2.9-5.7-6.2c-0.6-5.1-0.8-10.9,0.2-16c1-5.3,3.3-9,7.6-12.4c1.3-0.5,2.5-1.1,3.7-1.8c0.9-0.6,1.7-0.7,2.8-0.7
			c1.2,0,2.4,0,3.6,0V282.5z"/>
	</g>
	<g>
		<path class="st5" d="M64.9,344.7C64.9,344.7,64.9,344.7,64.9,344.7c-0.5,0-1-0.1-1.6-0.3c-3.6-1.5-3.7-6.1-3.7-9.4
			c0-0.2,0-0.5,0-0.7c-4.5,4.8-9.2,9.8-16.4,10.2c-0.4,0-0.8,0-1.2,0c-3.1,0-6.2-0.5-9.2-1c-0.6-0.1-1.2-0.2-1.7-0.3
			c-5.9-0.9-11.3-4.5-15-10c-0.3-0.4-0.6-0.9-0.9-1.3c-0.6-0.9-1.3-1.9-1.9-2.8c-2-3.4-2-7.3-1.9-11.6c0.2-5.1,0.4-10.9,2.1-15.9
			c0.2-0.5,0.4-1.1,0.6-1.6c1.8-5.2,3.7-10.5,8.7-13.3c2-1.1,4.1-1.9,6.2-2.6l0.5-0.2c3.2-1.2,5.7-1.7,8.4-1.7
			c1.2,0,2.3,0.1,3.6,0.3c5.3,0.9,11.3,2.2,15.5,5.1c-0.3-2.9-0.6-7.7,3.5-9.2c0.6-0.2,1.2-0.3,1.7-0.3c4.9,0,5.3,7.4,5.6,11.3
			l0,0.6c0.5,8.3,0.6,16.8,0.7,25c0.1,5.7,0.1,11.6,0.3,17.4c0,0.2,0,0.5,0,0.8c0.1,2.9,0.4,8.2-1.7,10.4
			C66.6,344.4,65.9,344.7,64.9,344.7z M59.8,333.8C59.8,333.8,59.8,333.8,59.8,333.8c0.1,0,0.2,0.1,0.2,0.2c0,0.4,0,0.7,0,1.1
			c0.1,3.4,0.1,7.7,3.5,9.1c0.5,0.2,1,0.2,1.4,0.2c0,0,0,0,0,0c0.8,0,1.5-0.3,2.1-0.9c2-2.1,1.7-7.3,1.6-10.1c0-0.3,0-0.6,0-0.8
			c-0.2-5.8-0.3-11.7-0.3-17.4c-0.1-8.2-0.2-16.7-0.7-25l0-0.6c-0.2-3.8-0.6-11-5.2-11c-0.5,0-1.1,0.1-1.6,0.3
			c-3.6,1.3-3.7,5.2-3.2,9.2c0,0.1,0,0.1-0.1,0.2c-0.1,0-0.1,0-0.2,0c-4.2-3.1-10.3-4.4-15.7-5.3c-1.2-0.2-2.4-0.3-3.6-0.3
			c-2.6,0-5.1,0.5-8.3,1.6l-0.5,0.2c-2.1,0.7-4.2,1.5-6.1,2.6c-4.9,2.7-6.7,8-8.5,13.1c-0.2,0.5-0.4,1.1-0.6,1.6
			c-1.7,5-1.9,10.7-2.1,15.8c-0.1,4.3-0.1,8.1,1.9,11.4c0.6,1,1.2,1.9,1.9,2.8c0.3,0.4,0.6,0.9,0.9,1.3c3.6,5.3,9,8.9,14.7,9.8
			c0.6,0.1,1.2,0.2,1.7,0.3c3,0.5,6.1,1,9.1,1c0.4,0,0.8,0,1.1,0c7.1-0.4,11.7-5.3,16.2-10.1l0.2-0.3
			C59.7,333.8,59.8,333.8,59.8,333.8z M40.7,334.7c-1,0-2-0.1-3-0.4c-3.7-0.9-7.6-2-10.5-4.2c-0.5-0.4-1.1-0.8-1.7-1.2
			c-1.9-1.3-3.7-2.5-4.1-5.1c-0.7-5.8-0.7-11.5,0.2-16.1c1-5.3,3.4-9.2,7.6-12.5c0,0,0,0,0,0c1.2-0.5,2.5-1.1,3.7-1.8
			c0.9-0.6,1.7-0.7,2.9-0.7c0.6,0,1.1,0,1.7,0c0.5,0,1.1,0,1.6,0c1.9,0,3.9,0,6,0.3c2,0.2,3.4,0.8,4.7,1.9c6.7,6,9.8,15.7,7.6,24.1
			C55.3,326.6,48.8,334.7,40.7,334.7z M29.4,295.5c-4.2,3.3-6.4,7-7.5,12.3c-0.8,4.5-0.9,10.2-0.2,15.9c0.4,2.5,2,3.6,3.9,4.9
			c0.6,0.4,1.1,0.8,1.7,1.2c2.9,2.2,6.7,3.2,10.4,4.1c1,0.2,1.9,0.3,2.9,0.3c7.9,0,14.3-8,16.3-15.4c2.2-8.3-0.8-17.9-7.4-23.8
			c-1.2-1.1-2.5-1.6-4.5-1.8c-2.1-0.2-4.1-0.3-6-0.3c-0.5,0-1.1,0-1.6,0c-0.6,0-1.1,0-1.7,0c-1.1,0-1.8,0.1-2.7,0.7
			C31.9,294.5,30.6,295,29.4,295.5z"/>
	</g>
</g>
</svg>
