<?xml version="1.0" encoding="utf-8"?>
<!-- Generator: Adobe Illustrator 19.0.0, SVG Export Plug-In . SVG Version: 6.00 Build 0)  -->
<svg version="1.1" id="Livello_1" xmlns="http://www.w3.org/2000/svg" xmlns:xlink="http://www.w3.org/1999/xlink" x="0px" y="0px"
	 viewBox="0 0 374.9 57.4" style="enable-background:new 0 0 374.9 57.4;" xml:space="preserve">
<style type="text/css">
	.st0{fill:#632D4F;}
</style>
<path class="st0" d="M35.1,28.7c0,3.7-3,6.8-6.8,6.8c-3.7,0-6.8-3-6.8-6.8c0-3.7,3-6.8,6.8-6.8C32.1,21.9,35.1,25,35.1,28.7"/>
<path d="M29.3,39.1v3.1c6.7-0.4,12.1-5.8,12.5-12.5h-3.1C38.3,34.6,34.3,38.6,29.3,39.1"/>
<path d="M18,28.7c0-5.7,4.7-10.4,10.4-10.4c5.4,0,9.9,4.1,10.3,9.4h3.1c-0.5-7-6.3-12.5-13.4-12.5c-7.4,0-13.5,6-13.5,13.5
	c0,7.1,5.5,13,12.5,13.4v-3.1C22.1,38.6,18,34.1,18,28.7"/>
<path d="M3.1,28.7c0-13.9,11.3-25.2,25.2-25.2c13.6,0,24.7,10.8,25.2,24.3h3.1C56.2,12.3,43.7,0,28.4,0C12.7,0,0,12.9,0,28.7
	c0,15.5,12.2,28.2,27.5,28.7v-3.5C13.9,53.5,3.1,42.3,3.1,28.7"/>
<path d="M29.3,53.9v3.5c15-0.5,27-12.7,27.4-27.8h-3.1C53.1,42.8,42.5,53.5,29.3,53.9"/>
<path d="M29.3,49v3.1c12.2-0.5,22-10.3,22.4-22.5h-3.1C48.2,40.1,39.8,48.5,29.3,49"/>
<path d="M8.1,28.7c0-11.2,9.1-20.3,20.3-20.3c10.9,0,19.8,8.6,20.3,19.3h3.1C51.2,15.3,41,5.3,28.4,5.3C15.5,5.3,5,15.8,5,28.7
	c0,12.6,10,22.9,22.5,23.3V49C16.7,48.5,8.1,39.6,8.1,28.7"/>
<path d="M13,28.7c0-8.5,6.9-15.3,15.3-15.3c8.1,0,14.8,6.4,15.3,14.4h3.1c-0.5-9.7-8.5-17.5-18.4-17.5C18.2,10.3,10,18.5,10,28.7
	c0,9.9,7.8,17.9,17.5,18.4V44C19.4,43.5,13,36.9,13,28.7"/>
<path d="M29.3,44v3.1c9.5-0.5,17-8,17.5-17.5h-3.1C43.2,37.3,37,43.6,29.3,44"/>
<g>
	<path class="st0" d="M333.1,6.2h22.1c14.6,0,19.7,10.8,19.7,21.8c0,13.4-7.1,21.9-22.4,21.9h-19.5V6.2z M346.6,38.7h5.3
		c8.4,0,9.6-6.8,9.6-10.9c0-2.8-0.9-10.4-10.6-10.4h-4.3V38.7z"/>
</g>
<polygon points="62.8,6.4 74.5,6.4 89.6,33.2 89.7,33.2 89.7,6.4 100.4,6.4 100.4,49.9 88.7,49.9 73.6,22.8 73.5,22.8 73.5,49.9 
	62.8,49.9 "/>
<path d="M105.2,28c0.2-4.1,2.1-6.8,4.9-8.5c2.8-1.6,6.5-2.2,10-2.2c7.5,0,14.7,1.6,14.7,10.6v13.8c0,2.7,0,5.6,1.2,8.1h-10.4
	c-0.4-1-0.5-1.9-0.6-3c-2.7,2.8-6.6,3.9-10.4,3.9c-6,0-10.8-3-10.8-9.6c0-10.3,11.2-9.5,18.4-11c1.8-0.4,2.7-1,2.7-2.9
	c0-2.4-2.9-3.3-5-3.3c-2.9,0-4.7,1.3-5.2,4H105.2z M118.6,44.4c4.9,0,6.6-2.8,6.3-9.3c-1.5,0.9-4.1,1.1-6.4,1.7
	c-2.3,0.5-4.3,1.5-4.3,4C114.3,43.4,116.3,44.4,118.6,44.4"/>
<path d="M139.7,18.3h10v4.3h0.1c1.9-3.2,5.2-5.2,9.1-5.2c4,0,7.5,1.3,9.2,5.1c2.5-3.3,5.6-5.1,9.9-5.1c10,0,11.1,7.6,11.1,13.6v18.9
	h-10.3V31.3c0-3.4-1.6-5.4-4.3-5.4c-4.4,0-4.9,3.4-4.9,8.5v15.5h-10.4v-18c0-3.7-1.1-6-3.9-6c-3.7,0-5.3,2.1-5.3,8.6v15.4h-10.4
	V18.3z"/>
<path d="M204.8,14.3h-10.4V6.4h10.4V14.3z M194.5,18.3h10.4v31.6h-10.4V18.3z"/>
<path d="M210.5,18.3h10v5.5h0.1c1.5-4,5.1-6.2,9.5-6.2c0.8,0,1.6,0.1,2.4,0.2v9.4c-1.3-0.4-2.6-0.6-4-0.6c-5.1,0-7.8,3.5-7.8,7.5
	v15.6h-10.4V18.3z"/>
<path d="M244.8,14.3h-10.4V6.4h10.4V14.3z M234.4,18.3h10.4v31.6h-10.4V18.3z"/>
<path d="M249.7,28c0.2-4.1,2.1-6.8,4.9-8.5c2.8-1.6,6.5-2.2,10-2.2c7.5,0,14.7,1.6,14.7,10.6v13.8c0,2.7,0,5.6,1.2,8.1h-10.4
	c-0.4-1-0.5-1.9-0.6-3c-2.7,2.8-6.6,3.9-10.4,3.9c-6,0-10.8-3-10.8-9.6c0-10.3,11.2-9.5,18.4-11c1.8-0.4,2.7-1,2.7-2.9
	c0-2.4-2.9-3.3-5-3.3c-2.9,0-4.7,1.3-5.2,4H249.7z M263.1,44.4c4.9,0,6.6-2.8,6.3-9.3c-1.5,0.9-4.1,1.1-6.4,1.7
	c-2.3,0.5-4.3,1.5-4.3,4C258.7,43.4,260.7,44.4,263.1,44.4"/>
<rect x="284.6" y="6.4" width="10.4" height="43.5"/>
<path class="st0" d="M314,30.1c-3.5,0-6.4-1.2-8.7-3.6c-2.3-2.4-3.4-5.3-3.4-8.8c0-3.5,1.1-6.5,3.4-8.8c2.3-2.3,5.2-3.5,8.7-3.5
	c3.5,0,6.4,1.2,8.6,3.6c2.2,2.4,3.3,5.3,3.3,8.8c0,3.5-1.1,6.4-3.3,8.8C320.4,28.9,317.5,30.1,314,30.1"/>
<path class="st0" d="M300.1,49.9c0-4.1,1.3-7.5,3.9-10.2c2.6-2.7,6-4,10-4c4,0,7.4,1.4,9.9,4.1c2.6,2.7,3.8,6.1,3.8,10.1"/>
</svg>
