<?xml version="1.0" encoding="utf-8"?>
<!-- Generator: Adobe Illustrator 19.0.0, SVG Export Plug-In . SVG Version: 6.00 Build 0)  -->
<svg version="1.1" id="Livello_1" xmlns="http://www.w3.org/2000/svg" xmlns:xlink="http://www.w3.org/1999/xlink" x="0px" y="0px"
	 viewBox="0 0 423.1 130.2" style="enable-background:new 0 0 423.1 130.2;" xml:space="preserve">
<style type="text/css">
	.st0{fill:#F47B3F;}
	.st1{fill:#FFFFFF;}
	.st2{fill:#137AB9;}
</style>
<circle class="st0" cx="358" cy="65.1" r="65.1"/>
<g>
	<path class="st1" d="M319.6,94.2V36.4h9.3v57.8H319.6z"/>
	<path class="st1" d="M379.7,92.4c-4.7,1.3-10,1.8-16.5,1.8h-18.5V36.4h21.7c5.4,0,10,0.4,14.1,1.4c13.4,3.2,22.3,11.9,22.3,26.6
		C402.7,79.1,393.6,88.5,379.7,92.4z M378,46c-3.7-1-7.8-1.2-12.8-1.2H354v41.1h9c5.7,0,10.4-0.5,14.5-1.7
		c9.6-2.8,15.5-9.1,15.5-19.8C393,53.6,386.8,48.3,378,46z"/>
</g>
<g>
	<path class="st2" d="M19.3,94.7c-6.2,0-10.3-2.9-10.3-9.4V59.8H0v-8h18.1v32c0,1.8,1.1,2.6,3.1,2.6c1,0,2.5-0.2,3.7-0.5l1.8,7.7
		C24.1,94.3,21.8,94.7,19.3,94.7z M13.4,44.5c-3.4,0-6.1-2.5-6.1-6s2.7-6,6.1-6c3.4,0,6.1,2.5,6.1,6S16.8,44.5,13.4,44.5z"/>
	<path class="st2" d="M83.2,94.7c-6.2,0-10.3-2.9-10.3-9.4V67c0-4.9-1.5-8.1-6.9-8.1c-8.2,0-15.3,9.3-17.9,19.6
		c-1.1,4.4-1.3,7.9-1.3,11.6v4.1h-9.1V59.8h-9.3v-8h18.4v12.9h0.2c4-8,10.9-14,20.4-14c9.3,0,14.6,5.1,14.6,14.9v18.2
		c0,1.8,1.1,2.6,3.1,2.6c1,0,2.5-0.2,3.7-0.5l1.8,7.7C88.1,94.3,85.8,94.7,83.2,94.7z"/>
	<path class="st2" d="M116.3,95.1c-6.8,0-13.3-3.2-13.3-12.6V59.8H91.6v-8H103V41.1h9.1v10.7h15.8v8h-15.8v20.9
		c0,4.8,2.5,6.1,5.9,6.1c3.2,0,6.3-1.2,9.2-2.8l3.4,7.2C126.7,93.3,122.3,95.1,116.3,95.1z"/>
	<path class="st2" d="M155.1,77c-3.2,0-6.7-0.1-9.7-0.4c0.4,6.7,6,10.2,14.2,10.2c5.8,0,9.8-1.2,14.5-3.2L177,91
		c-5.2,2.5-10.8,4.1-18.4,4.1c-14.1,0-23.2-8.3-23.2-21.3c0-14.5,10.3-23.2,24.5-23.2c9.6,0,18.1,4.1,18.1,12.9
		C178,72,170.1,77,155.1,77z M160,59c-7.3,0-12.8,3.2-14.2,9.6c2.9,0.4,6.1,0.4,8.9,0.4c10.9,0,13.8-3,13.8-5.7
		C168.4,60.5,165,59,160,59z"/>
	<path class="st2" d="M204.4,95.1c-7.4,0-14.4-1.8-19.4-4.7l3.7-7.5c4.1,2.3,9.2,3.9,15.4,3.9c4.9,0,9.9-1,9.9-5
		c0-0.8-0.3-1.5-0.7-2c-3.7-4.2-19.6-1.3-24.6-9.6c-1-1.6-1.6-3.7-1.6-6.2c0-8.9,7.5-13.3,17-13.3c6.3,0,12.5,1.4,18.9,4l-3.1,7.5
		c-5.9-2.2-10.2-3.2-15.4-3.2c-5.4,0-7.8,1.8-7.8,4.5c0,0.8,0.2,1.4,0.5,1.9c2.9,4.7,17.5,2.1,23.7,8.2c1.7,1.7,2.7,4,2.7,7.5
		C223.6,91.4,214.5,95.1,204.4,95.1z"/>
	<path class="st2" d="M275.9,94.7c-4.9,0-9.4-2-10.2-8.3c-0.1-0.7-0.2-1.5-0.2-2.4h-0.2c-3.6,6.9-9.9,11.1-18,11.1
		c-8.7,0-16.8-5.8-16.8-18.4c0-8.9,3.8-16.3,10.6-20.9c4.8-3.2,11.1-5.2,20.2-5.2c3.9,0,9.2,0.4,12.9,0.9v31.7c0,2,1.1,3.2,3.3,3.2
		c0.7,0,2.2-0.2,3.4-0.5l1.8,7.7C280.4,94.3,278.1,94.7,275.9,94.7z M265.2,59.2c-1.8-0.2-3.2-0.3-5.2-0.3c-5.6,0-10.2,1.4-13.5,3.9
		c-4,3.1-6.3,7.8-6.3,13.4c0,6.9,3.4,10.4,8.4,10.4c7.6,0,16.6-8.2,16.6-26.7V59.2z"/>
</g>
</svg>
