<?xml version="1.0" encoding="utf-8"?>
<!-- Generator: Adobe Illustrator 19.0.0, SVG Export Plug-In . SVG Version: 6.00 Build 0)  -->
<svg version="1.1" id="Livello_1" xmlns="http://www.w3.org/2000/svg" xmlns:xlink="http://www.w3.org/1999/xlink" x="0px" y="0px"
	 viewBox="0 0 551.1 150.6" style="enable-background:new 0 0 551.1 150.6;" xml:space="preserve">
<style type="text/css">
	.st0{fill:#007CBA;}
	.st1{fill:#004A97;}
</style>
<g>
	<path class="st0" d="M405.2,16c0-8.6,7-16,16.3-16c9.3,0,16.3,7.4,16.3,16c0,8.6-7,16-16.3,16C412.2,31.9,405.2,24.5,405.2,16z
		 M408.7,147.3V50.4c0-2.1,0.4-2.9,13-2.9h1c11.5,0,12.7,0.8,12.7,2.9v96.9c0,2.1-1.2,2.9-12.7,2.9h-1
		C409.1,150.2,408.7,149.5,408.7,147.3z"/>
	<path class="st0" d="M450.3,98.9c0-34.4,17.3-54.9,42.8-54.9c9.1,0,16.7,3.1,23.2,8.8v-49c0-2.1,0.4-2.9,13-2.9h1
		c11.5,0,12.7,0.8,12.7,2.9v118.9c0,4.3,1.8,5.4,5.6,5.4c2.3,0,2.5,1,2.5,8v2.1c0,6.8-0.4,8.4-1.8,9c-3.5,1.4-8.8,2.3-14,2.3
		c-8.6,0-14.4-3.9-16.9-9.7c-6.6,7-16.3,10.9-27.1,10.9C465.8,150.6,450.3,130.8,450.3,98.9z M513.5,122.8c2.1-2.3,2.7-5.5,2.7-10.5
		V75.9c-4.9-5.8-10.7-9-17.5-9c-14.2,0-21,11.3-21,31.9c0,11.5,2.7,18.9,6.6,23.4c3.5,4.1,9.1,5.6,14.6,5.6
		C504.4,127.9,510.6,125.9,513.5,122.8z"/>
	<path class="st1" d="M106,0c3,0,3.6,0.4,3.6,11l0,9.8c0,10.2-0.8,11.4-3.6,11.4l-34.1,0l0,114.1c0,2.6-3.2,3.2-14.6,3.2l-6,0
		c-11.6,0-13.6-0.6-13.6-3.2l0-114.1l-34.1,0C0.8,32.1,0,31.3,0,20.7L0,11C0,0,0.6,0,3.6,0L106,0z M167.1,3.2
		c0-2.2-3.2-3.2-14.2-3.2l-6.4,0c-11.6,0-13.6,1-13.6,3.2l0,143c0,2.6,2,3.2,13.6,3.2l6.4,0c11,0,14.2-0.6,14.2-3.2L167.1,3.2z
		 M333.5,0l-10,0c-12.8,0-13.6,1.4-14.6,3.6L289,51c-6.6,15.7-13.4,32.7-16,41.4c-2.4-8.8-6.8-20.5-16-42.2L237.1,3.6
		c-1.2-2.8-6.2-3.6-17-3.6l-11.2,0c-11,0-13.2,1-13.2,3.2l0,143c0,2.6,2.2,3.2,13.6,3.2l6.2,0c11.2,0,14.4-0.6,14.4-3.2l0-84.8h0.8
		c0,0,1,4,2.6,7.6l22.8,53.2c1,2.4,2.2,3.4,12.8,3.4l6.8,0c10.8,0,11.6-0.8,12.6-3.4l20.8-51.2c2-4.8,3.4-9.6,3.4-9.6l0.8,0l0,84.8
		c0,2.6,2.2,3.2,14,3.2l6,0c11,0,14.2-0.6,14.2-3.2l0-143C347.7,1,344.5,0,333.5,0z"/>
</g>
</svg>
