<?xml version="1.0" standalone="no"?>
<!DOCTYPE svg PUBLIC "-//W3C//DTD SVG 20010904//EN"
 "http://www.w3.org/TR/2001/REC-SVG-20010904/DTD/svg10.dtd">
<svg version="1.0" xmlns="http://www.w3.org/2000/svg"
 width="512.000000pt" height="512.000000pt" viewBox="0 0 512.000000 512.000000"
 preserveAspectRatio="xMidYMid meet">
<metadata>
Created by potrace 1.11, written by Peter Selinger 2001-2013
</metadata>
<g transform="translate(0.000000,512.000000) scale(0.100000,-0.100000)"
fill="#000000" stroke="none">
<path d="M0 2560 l0 -2560 2560 0 2560 0 0 2560 0 2560 -2560 0 -2560 0 0
-2560z m3810 1165 l0 -315 275 0 275 0 0 -255 0 -255 -275 0 -276 0 3 -578 3
-578 25 -37 c42 -62 63 -67 288 -67 l200 0 6 -57 c3 -32 8 -110 11 -173 3 -63
8 -145 11 -181 l6 -66 -139 -28 c-280 -56 -554 -43 -716 34 -159 76 -246 241
-277 523 -6 61 -10 513 -10 1223 l0 1125 295 0 295 0 0 -315z m-2563 -287 c79
-29 161 -112 193 -193 20 -49 24 -79 24 -160 0 -87 -3 -107 -26 -157 -37 -80
-96 -140 -171 -174 -52 -23 -75 -28 -148 -28 -77 0 -93 3 -152 32 -109 54
-178 149 -200 276 -30 176 71 362 223 410 70 23 189 20 257 -6z m1363 -1158
l0 -1130 -300 0 -300 0 0 1123 c0 618 3 1127 7 1130 3 4 138 7 300 7 l293 0 0
-1130z"/>
</g>
</svg>
