<?xml version="1.0" encoding="utf-8"?>
<svg version="1.1" id="Layer_1" xmlns="http://www.w3.org/2000/svg" width="100%" height="100%" xmlns:xlink="http://www.w3.org/1999/xlink" x="0" y="0" viewBox="0 0 409.1 409.1" xml:space="preserve">
  <path fill="#FFF" id="XMLID_16_" class="st0" d="M403.1,409.1H6c-3.3,0-6-2.7-6-6V6c0-3.3,2.7-6,6-6h397.1c3.3,0,6,2.7,6,6v397.1 C409.1,406.4,406.4,409.1,403.1,409.1z"/>
  <circle fill="#455B71" id="XMLID_1_" class="st1" cx="99.1" cy="173.8" r="27.2"/>
  <path fill="#455B71" id="XMLID_39_" class="st1" d="M164.9,316V92.6h75.2c77.9,0,95,33.2,95,107.5c0,76.2-14.8,116-95,116H164.9z M240.1,132h-29.9 v144.6h29.9c44,0,48.3-26.9,48.3-76.6C288.4,151.1,284.1,132,240.1,132z"/>
</svg>
