<svg xmlns="http://www.w3.org/2000/svg" width="100%" height="100%" viewBox="0 0 130 150">
  <path fill-rule="evenodd" clip-rule="evenodd" fill="#06C"
        d="M102.538 100.415c.67 0 1.612.34 1.376.904-.234.567-.5 1.52-1.03 1.584-.53.06-1.56-.688-1.56-1.354s.544-1.135 1.214-1.135zM44.217 118.69c.737.367 1.474.367 2.21 0l-.552-.87-1.263-1.105c-.685-.368-1.238-.027-1.66 1.024l1.265.95z"/>
  <path fill-rule="evenodd" clip-rule="evenodd" fill="#6F7072"
        d="M81.96 144.27c-.21.37-.08.737.396 1.105.474.37.867.448 1.183.238l-1.58-1.342z"/>
  <path fill-rule="evenodd" clip-rule="evenodd" fill="#FFF"
        d="M133.047 71.312c.42-2.842.132-4.632-.867-5.37-1.054-.736-2.344-.5-3.87.71-.895-.473-2.104-.025-3.632 1.343.264-.684.29-1.29.08-1.815 1.368-.632 2.25-1.33 2.645-2.092.395-.763.593-1.96.593-3.593.157-1 1.078-2.79 2.763-5.37 1.156-2.58.34-3.474-2.448-2.684 1.525-1.368 2.29-2.553 2.29-3.553.104-.948-.29-2.158-1.186-3.632-.368-.842-.92-1-1.658-.474.263-.525.408-1.157.435-1.894.026-.736-.46-2.29-1.46-4.66-.158-3.104-.897-4.394-2.21-3.868a12.56 12.56 0 0 0-1.58-4.658c-1.265-1.895-2.264-2.396-3-1.5-2.055-3.053-3.977-4.316-5.765-3.79-.054-1.316-.5-2.5-1.343-3.553-.474-2-1.054-3.395-1.737-4.186-.948-.367-1.605.16-1.974 1.58-.158-1.157-.526-2.368-1.106-3.632-.58-1.263-1.5-1.92-2.763-1.973a2.36 2.36 0 0 0-1.344.237c-.84-.527-1.55-.79-2.13-.79-1.79-1.895-3.42-2.053-4.895-.475l-.238-1.657c-.527-1.948-1.58-2.37-3.16-1.263-2.577-2.685-4.788-4.45-6.63-5.29-1.528-.527-2.53-.396-3.002.395-.79-.79-1.633-1.29-2.526-1.5a28.345 28.345 0 0 1-2.527-.712c-1.21-.052-1.737.606-1.58 1.974-1.895.106-3.197.435-3.91.987-.71.554-.893 1.33-.55 2.33.34 1 1.117 1.817 2.33 2.448-.317.37-.448.948-.396 1.737.053.79.894 1.448 2.525 1.974 1.212.315 2.396.34 3.554.078-.263 1.21.158 1.974 1.263 2.29 1.525 1.58 3.42 1.975 5.685 1.185l-.237 1.5 3.08 1.263c.105 1.475.79 2.527 2.054 3.158l1.207.522c-.262.03-1.393.965-1.408 1.114-.25.292-.928 1.746.717 2.067 1.25.143 2.622.27 3.938.243.033.388.27 1.018.52 1.467.224.475.774 1.167 1.696 2.167.855.93 2.467 1.848 3.827 2.425-.087.097-.46 1.123-.8 2.066-.418 1.152-.634 3.02.17 4.024-.174-.086-.928.44-1.2.86-.98 1.52 1.15 3.7 1.487 4.45-.165-.02-.754.278-1.064.5-.732.52-.483 3.138 1.598 3.585.522.25 2.913 1.64 4.106 2.856.233.24.903 1.5 1.858 2.753.51.67 1.05 1.8 2.297 1.827 1.14 3.693 3.02 7.22 5.272 10.664-.01.107 2.057 2.302 2.8 4.29-.25 1.284-.222 2.39-.227 2.452-.27 2.54-.73 4.87-1.37 6.99-2.24-1.08-2.603.394-2.936 1.842.056-.073-1.042-.214-1.188.29.097-.875-1.345-1.646-2-1.18-.017.01-.718.504-1.152.834-.147.112-.276-.723-.324-1.347-.022-.428-.106-1.894.167-2.468.043-.094.572-.727.9-1.315.665-1.192.18-4.948-.642-7.547-.246-.78-.758-1.15-1.207-1.328-.182-.07-1.36-.004-1.586.9-.063-.513-.893-.818-1.508-.964-1.728-.41-3.575 2.907-3.37 5.988-1.256-.995-2.914-.678-2.713 1.05.282 2.414 3.915 6.706 4.025 8.644-1.087-.97-3.552-.995-3.555 1.36-.002.716.583 1.93.827 2.447-.503 2.512 2.395 4.353 4.76 6.723-.042 1.122.343 1.137.704 1.574-.43.663-3.078 4.835-3.113 4.934-.128.054-1.956-.97-2.558-.44-.64.567-1.16 1.34-1.46 1.798l.318 2.925c.21 1.21-.435 2.566-1.936 4.063-1.5 1.5-2.488 2.882-2.962 4.147-.263.947-1.29 1.975-3.078 3.08-.105-.316-.527-.818-1.264-1.502-.105-.21-.316-.286-.632-.233-1.79.473-5.396 2.536-10.818 5.222-.943.476-2.286 1.67-4.023 4.67h-3.08c-.842-1-1.736-1.617-2.685-2.46-.684-.525-1.895-.58-3.63.313-1.633-.37-3.264-.148-4.897.903-1 .37-1.736.384-2.21.174l-3.868-4.214c-8-3.37-12.37-4.88-13.108-4.513-.79.474-1.368 1.15-1.736 2.043-.79-.367-1.974-1.37-3.554-3.005l-2.447-2.763c-1.79-2-2.527-3.896-2.21-5.688l.394-2.448c.054-.368 0-.66-.157-.87-.58-.63-1.604-1.01-2.13-1.117-.114-.046-.456-.165-.845 1.262.103.34-2.526-3.464-2.562-3.594.708-.758 1.964-3.005 2.68-5.617.812-2.96 1.188-6.224 1.155-7.472.125-.234.157-.298.3-.438 1.224-.94 2.777-9.728 2.43-11.842-.158-.843-.356-1.276-.593-1.303s-.46.04-.67.198l.473-.948c.263-.685.263-1.13 0-1.342-.157-.167-1.582-.145-2.82.482-.15-1.372-.8-3.384-1.134-4.112-.11-.243-.454.018-.465.024-2.21 1.34-3.19 4.27-3.977 7.905l-.634.58c-2.835 3.552-5.103 7.686-6.07 12.335-.475-.74-.745-1.806-1.166-3.2-.42-1.393-.552-2.33-.395-2.802.42-.736.29-1.42-.396-2.054-.527-.527-1.21-2.895-2.053-7.106.053-1.105.5-2.764 1.343-4.974.842-2.21 2.25-5.01 4.093-8.17.1-.137.917-1.024 1.168-1.087 2.734-.68 14.88-16.417 13.605-23.744-.203.878 5.215-8.647 5.65-10.605l.67-.217.79-.315c2.633-1.053 4.87-2.177 6.924-3.125l3.184-1.69c2.21-.948 4.317-2.238 6.317-3.87C59.51 11.67 60.642 9.75 60.8 7.75c-.368-.475-1.447-.738-3.237-.79.948-1.054 1.448-2.16 1.5-3.318-.685-.947-2.737-1.105-6.16-.473-3.578.894-6.71 2.29-9.395 4.184a33.84 33.84 0 0 0-7.383 6.356c-2.185 2.5-3.935 5.093-5.25 7.778l1.58-3.632c.79-1.737 1.63-3.764 2.526-6.08.264-1.105.277-1.895.04-2.37-.236-.472-.75-.604-1.54-.394-.84.21-2.368 1.316-4.58 3.316-2.42 2.475-4.566 5.528-6.434 9.16-1.87 3.63-3.146 6.5-3.83 8.606.368-2.368.316-4.395-.158-6.08-.263-.685-.842-.87-1.736-.553-.843.58-1.685 1.45-2.527 2.607s-1.658 2.277-2.447 3.355c-.79 1.08-1.725 2.62-2.803 4.62-1.08 2-2.027 4.37-2.843 7.106-.816 2.738-1.435 6.37-1.856 10.896-.263 2.896-.052 6.002.632 9.318.842 3.316 1.684 5.764 2.526 7.343.843 1.58 1.632 2.5 2.37 2.764.473 1.157 1.105 3.08 1.895 5.765.42 1.262.604 2.223.55 2.882-.05.655.12 1.118.515 1.382.395.262.723.787.987 1.576.684 2.528 1.605 4.87 2.763 7.03a19.4 19.4 0 0 0-.315 3.47c-2.526-7.312-4.58-12.842-6.16-16.58-3.052-6.79-5.448-9.895-7.185-9.316-.845.316-1.37 1.08-1.58 2.29-.054.473-.054 1.684 0 3.63.05 1.95.235 4.003.55 6.16 1.58 7 4.292 12.846 8.135 17.53l5.764 6.79c1.158 1.158 2.263 2.014 3.316 2.564 1.053.554 2.027.697 2.922.435 1.315 2.106 2.974 4.315 4.975 6.633 1.263 1.946 2.58 2.868 3.948 2.763.58 1.263 1.447 1.896 2.606 1.896l1.185-.157c1.63 1.578 3.106 2.84 4.42 3.79l-1.5 4.264c-2.63.367-5.053.577-7.264.63-2.052-1.476-4.946-3.475-8.684-6.002l-.237-4.737c-.107-1.63.183-3 .867-4.104.158-.895-.342-1.712-1.5-2.447-1.737-.843-2.475-1.187-3.212-1.028-.315.104-.054.396-.054.87v.294c0-.24.104-.32.406-.218 2.21.582 3.208 1.318 3.05 2.213-.686 1.157-1.016 2.476-.963 3.948l.07 4.106a61.485 61.485 0 0 0-9.004-4.896c.367-.052.787-.095 1.26-.12.474-.026.79-.195.947-.51.157-.32-.133-.502-.87-.555-1.63 0-2.683.13-3.158.396-.37.42-.29.864.236 1.338 3.79 1.896 7.132 3.79 10.028 5.688 4.58 2.896 8.132 5.263 10.66 7.106 2.474-.052 5.947-.396 10.422-1.027l6.79-1.262c2.79-.53 5.686-.975 8.686-1.343 1.105-.158 2.5-.264 4.186-.315a40.958 40.958 0 0 0 4.658-.396c1.37 2.58 2.21 4.84 2.527 6.79.158 1 .026 1.554-.395 1.66-6.265 2.312-10.765 3.774-13.502 4.378-2.737.606-5.212 1.146-7.423 1.62a267.25 267.25 0 0 1-16.344 2.447c-1.37-.368-5.318-2.395-11.845-6.08-4.633-2.787-7.87-5.053-9.712-6.788-2.105-2.265-2.948-3.632-2.526-4.11 1.368-2.26 2.29-4.263 2.763-5.998.21-.737.263-1.315.158-1.736-.58-1.792-.158-2.714 1.264-2.767 3.526-.21 5.896-.263 7.106-.157.526.052.87-.105 1.026-.474l1.185-2.367-.712-.316-.967 1.578-.01-1.596v2.07l-8 .156c-.684 0-1.498.263-1.947.79-.447.525-.584 1.58-.164 3.158a4.39 4.39 0 0 1-.142 1.5c-.368 1.684-1.373 3.738-2.953 6.157-.21.372-.133.923.26 1.66.397.738 1.376 1.895 2.955 3.474.685.685 1.72 1.53 3.115 2.528s3.854 2.528 7.38 4.58c4.16 2.475 8.132 4.525 11.922 6.16.79.052 6.053-.66 15.79-2.132l.08.865c-2.79 2.108-4.58 2.98-5.37 2.606-1.105.105-1.447.922-1.025 2.45.315.685.895 1.158 1.736 1.42l1.027 1.186 2.92 1.736c1.106.315 2.16.315 3.16 0 .947-.368 1.58-1.186 1.894-2.447l.31-.31 3.164-3.164 2.29-1.735c1.79-.314 2.947-.945 3.474-1.895.105-.842.342-1.367.71-1.578l2.764-1.896c.105-.262 1.237.187 3.396 1.344 1.053.263 1.974.21 2.764-.158l2.053-1.185c1.843.425 5.08 2.715 9.712 6.873-.053.474.237 1.023.868 1.658.368.475 1.37.867 3 1.183l1.105 2.055 1.106.396c1.63.053 3.157-.53 4.58-1.74l1.736-.553c.895-.683 1.29-1.367 1.186-2.05l-.712-.713-1.5-.393c-1.897-.897-3.815-2.106-5.764-3.632l-1.264-.95c5.738 1.003 12.87 1.79 21.398 2.37 1.052.21 2.46-.33 4.224-1.62 1.763-1.287 7.093-5.09 15.99-11.41a16.92 16.92 0 0 0 3.157-4.894c-.79-.736-1.487-1.788-2.092-3.16-.604-1.366-.987-2.523-1.145-3.474-.21-.895-.237-1.697-.08-2.41.158-.707-.078-1.38-.71-2.012-.264-.368-.87-.603-1.815-.708-1.685-.157-3.58-.133-5.686.077-1.002-.104-1.58-.34-1.738-.71l.08-1.894c.157-.842-.08-1.21-.71-1.104-2.318.578-3.713 1.156-4.188 1.735-.684.736-.657 1.525.08 2.37.58.525.868 1.13.868 1.816-.315 3.475-.604 5.816-.867 7.026-3.845 3.053-6.45 4.922-7.82 5.605-1.103.368-3.577.21-7.42-.474-.843-.735-1.448-2-1.816-3.79 1.314-.788 2.71-1.738 4.184-2.843 1-.157 1.843-.354 2.526-.593.686-.234 1.027-.88 1.027-1.935.684-.265 1.184-.843 1.5-1.737l4.58-5.525c1.473-1.266 3.078-2.002 4.815-2.213 2.105-.157 4.844-1.343 8.212-3.552.527-.582.527-1.396 0-2.45 1-.58 2.633-2.21 4.896-4.896.894-1.262 1.104-2.657.63-4.183 2.106-2.528 3.292-4.526 3.555-6.003.21-1.313.184-2.737-.08-4.262 1-.632 1.698-1.172 2.095-1.62.395-.445.59-1.066.59-1.855 0-.788-.29-1.447-.867-1.974 1.53-2.153 1.713-4.1.554-5.838zM59.483 8.302c0 1-.5 2.105-1.71 3.316-1.844 1.685-4.044 3.238-6.808 4.66C48.2 17.697 44.5 19.38 40.5 21.33v-.473c5-4 10.03-7.264 14.61-9.792 1.21-.737.74-.947-.682-.632-1.58.79-3.29 1.764-5.184 2.922a940.775 940.775 0 0 0-9.225 6.08l.084-.948c6-5.264 10.926-8.658 14.77-10.186 1.895-.42 3.503-.42 4.61.002zm-17.91 1.895c2.87-2.37 6.303-4.21 10.304-5.528 1.948-.527 3.632-.764 5.053-.71.685.157.87.55.553 1.183l-1.737 2.29c-1.527.21-3.62 1.08-6.277 2.606-2.66 1.526-5.516 3.553-8.568 6.08l-1.105.71c-.58-.422-1.632-.237-3.158.552 4.842-4.053 9.053-7.133 12.633-9.238C51.59 6.986 52.93 6.17 53.3 5.696c-1.16.316-2.79 1.04-4.896 2.172-2.106 1.13-5.58 3.487-10.423 7.066l-4.658 4.185c2.63-3.58 5.382-6.554 8.25-8.923zm-4.856 8.765c.842-.475 1.42-.66 1.737-.553.21.526.263 1.25.158 2.17s-.79 2.857-2.054 5.804l-2.92 5.686c-2.054.263-4 1.21-5.844 2.843.948-1.63 2.093-3.5 3.435-5.606 1.342-2.105 3.434-5.264 6.277-9.475.473-.79.487-.987.04-.592-.448.396-1.646 1.908-3.593 4.54-1.948 2.632-4.553 6.713-7.817 12.24-.895 1.368-3.04 4.666-6.58 10.096l.43-1.224 4.745-8.4 4.563-8.527c2.157-3.845 4.632-6.845 7.422-9.003zM17.37 38.306c2.106-3.42 4.634-8.264 7.582-14.528.895-1.843 2.21-3.922 3.948-6.237.526-1.21.237-1.185-.87.08-2.578 3.21-5.58 8.29-9 15.24l1.5-3.79c.264-.843 1.106-2.75 2.527-5.726 1.42-2.974 2.816-5.33 4.185-7.067 1.37-1.737 2.316-2.87 2.843-3.395 1.895-1.632 3-2.395 3.316-2.29.264.21.343.552.238 1.025l-3.87 9.95c-2.526 4.895-5.842 10-9.948 15.317-1.737 1.896-2.816 3.106-3.238 3.633a11.06 11.06 0 0 0-1.026 1.5l.316-1.342 1.5-2.37zm2.134 9.003c-1.106 2.052-1.95 3.894-2.527 5.526l-.632-.08 1.658-5.13 1.5-.317zM13.66 60.73l.553-2.29.474-2.29 1.263-.237-1.58 4.265-1.105 3.71.396-3.157zm-.316-8.605c.37-2.37.87-4.527 1.5-6.474l.632.79-2.132 5.685zm-3 15.712l-.315-.63c-.316-.475.235-3.555 1.657-9.24-.527 4.212-.974 7.502-1.343 9.87zm-1.184-4.5c-.422-2.158-.17-6.7.75-13.62.92-6.923 2.092-11.858 3.513-14.806.685-1.525.658-1.763-.08-.71-3.21 5.475-5.08 13.555-5.604 24.24-.107 3.738.104 6.436.63 8.094.527 1.658 1.132 2.62 1.816 2.882.368.21.763.184 1.187-.08-.048-.013-.3 1.42-.245 1.737-1.41-.633-2.445-1.704-3.074-3.197-.632-1.5-1.224-3.46-1.777-5.883-.553-2.42-.776-5.316-.67-8.685.263-4 .84-7.896 1.736-11.687 1.316-5.263 4-10.263 8.054-15 .895-1 1.448-1.238 1.66-.712.21 2.105.196 4.145-.04 6.12s-.75 4.17-1.54 6.593c-2.055 6.844-3.29 11.45-3.712 13.82-.79 2.79-1.658 6.422-2.605 10.897zm2.34 7.58v-1.263c2-2.158 1.765-4.21 2.5-6.16l2.774-7.105 3.22-7.502c1.737-3.37 4.19-7.21 7.295-11.528 1.84-2.157 3.49-3.316 4.91-3.474.37.527.376 1.606.007 3.237-.368 1.632-.997 3.343-1.892 5.132-.06.022-.133.054-.052.098-3.403 6.267-6.702 10.813-9.896 13.64l5.446-8.843 2.6-4.737c1-1.79 1.172-2.422.54-1.895-5.316 8-8.526 13.028-9.58 15.08-1.052 2.054-2.13 3.975-3.128 5.765-1 1.79-2.007 3.185-2.322 4.185s-.423 2.79-2.423 5.37zm21.19 3.238c-.16 2.37-.686 5.317-1.58 8.844-.053-2.897-.184-4.845-.395-5.846l.71-1.973c.054-.684-.08-.71-.395-.078l-.473.867-.08-1.58 1.185-1.5c.79-.788 1.133-.368 1.027 1.265zm-1.185-4.264c.684-.157.815.16.395.948l-1.5 2.21a18.52 18.52 0 0 0-.395-2.29 9.212 9.212 0 0 1 1.5-.867zm-6.238 3.712c1.105-4.37 2.158-6.685 3.158-6.948.58 1.527 1.054 4.356 1.422 8.488.368 4.134.368 7.857 0 11.175-.474 4.21-1.184 7.05-2.132 8.527l-1.026 2.208c0-3.264.04-5.922.117-7.973.08-2.056.158-4.78.237-8.174.08-3.396.302-7.252.67-11.568.21-1.053.16-1.29-.157-.71-.843 4.37-1.343 9.975-1.5 16.82l-.08 4.498-.158 6.16-1.027-1.186c-.737-3.685-1.053-7.552-.948-11.605.16-3.002.633-6.238 1.422-9.713zM18.28 86.828c.868-3.87 2.854-7.882 5.96-12.042-.526 2.158-.816 3.764-.87 4.815-2.315 4.002-4.105 7.978-5.368 11.926-.315 1.21-.58 2.657-.79 4.34-.156-2.155.2-5.17 1.067-9.038zm5.172 6.592l-1.737-2.21 1.263-3.158a23.618 23.618 0 0 0 .474 5.368zm15.95 32.61l1.104-3.158 3.632 2.37-4.737.79zm8.684-1.577l-5.922-3.555-5.448-3.633-1.026-1.343c-.316-.368-.75-.445-1.303-.235-.553.21-.987-.105-1.304-.946-1.42.842-2.87.526-4.342-.95l-2.605-3.155-2.447-4.186-.87-.633a2.35 2.35 0 0 1-1.656.344c-1.03-.136-2.21-.82-3.396-2.078-.737-.688-2.317-3.397-4.738-8.135-3.21-6.107-5.395-10.71-6.553-13.817-.842-2.58-1.395-4.21-1.658-4.895-.264-.685-.37-.698-.317-.04.053.657.448 2.133 1.185 4.423.736 2.29 2.105 5.645 4.106 10.066 1.737 3.58 3.45 6.844 5.133 9.79-3.896-4.212-6.712-8.16-8.45-11.845-1.736-3.634-2.895-7-3.473-10.106-.263-1.106-.422-2.805-.475-5.094-.052-2.29-.026-3.565.08-3.83.262-.79.63-1.13 1.105-1.026.315 0 1.04.75 2.17 2.25 1.133 1.5 2.672 4.87 4.62 10.108 1.948 5.234 3.145 8.67 3.593 10.305a53.4 53.4 0 0 0 1.342 4.264c.448 1.21.987 2.448 1.62 3.71.946 1.894 1.894 3.184 2.842 3.87 1.25.885 2.16 1.042 2.76.468l-2.89-5.165c-.26-.115-.557-.137-.897-.042-.058.005-.093-.017-.147-.017-.003 0-.004.02-.005.02-.12-.003-.205-.045-.31-.062-.12-.02-.253-.03-.352-.072-.093-.04-.153-.116-.228-.176-.09-.07-.19-.126-.255-.225-.058-.088-.08-.214-.116-.322-.038-.112-.094-.207-.11-.34a3.578 3.578 0 0 1 .023-.937c.105-.946.448-2.577 1.026-4.895 1.16-3.896 2.816-7.763 4.975-11.605-.262 1.683-.394 3.103-.394 4.264-1.948 4.368-3.37 7.896-4.264 10.578-.474 1.95-.448 2.896.08 2.844l.63-.316-.473-1.104.314-.87.948 1.66.553-.397.474.71-.475.713 3.553 5.13.87-.708.63.708c-1.052 1.056-1.474 1.74-1.263 2.055.95 1.735 1.816 3.13 2.606 4.187 1.58 2.313 2.87 2.973 3.87 1.974.315-.263.71-.21 1.184.158s1 1.157 1.58 2.366l-.08-1.816-2.92-2.763-1.66-3.315c-1.368-1.946-2.34-3.447-2.92-4.5a146.762 146.762 0 0 0-2.17-3.79c-.87-1.475-1.935-3.134-3.198-4.975l.237-.87 2.527 3.08c2.264 2.895 3.855 5.094 4.776 6.595.92 1.5 1.46 1.854 1.62 1.065l.473-1.5.71.396-.474 3.08-.158.945c-.054.737.092 1.172.434 1.306.342.13.645.617.908 1.458.158.526.987 1.62 2.488 3.278 1.5 1.658 3.08 3.054 4.737 4.184a321.458 321.458 0 0 0 4.106 2.766c1.08.71 1.594 1.406 1.54 2.09l1.5.315-.393-1.893.947-.24c.474.317.87.9 1.185 1.74 1.368 1.052 2.552 1.894 3.552 2.524l-3.476.635zM22.188 98.79l.475-.472 2.21 3.71-.238.473-2.447-3.71zm3.71 7.424l.87-1.108 2.053 2.925 1.186 2.133.395 1.182c-.735-.368-1.367-.92-1.895-1.658l-1.263-1.655-1.343-1.818zm27.48 17.29l-3.397-2.367a524.402 524.402 0 0 0-3-3.556c-.63-.735-1.236-1.262-1.814-1.577-.844-.473-1.527-.63-2.054-.473-.368.104-.762.63-1.184 1.577l-.158-.157c.21-.895.54-1.448.987-1.66.447-.21 1.014-.156 1.698.16l3.79 1.815 6.474 2.447c1.58 1.687 2.552 2.844 2.92 3.475a50.17 50.17 0 0 1-4.263.316zm2.052 16.503c-2.21 2.16-4.71 4.21-7.5 6.16l-.95-.315c1.633-1.003 3.95-2.633 6.95-4.898l1.343-1.5-.71-.077a40.44 40.44 0 0 1-3.436 2.724c-1.29.924-2.776 1.804-4.46 2.646l-2.292 1.107.396.474 1.738.234c1 .633 1.42 1.268 1.263 1.898-.526.79-1.368.894-2.525.315l-1.895-1.027c-.685-.684-1.37-1.157-2.053-1.42l-.79-.63.315-.718 2.37 1.022h.71l-.395-1.496 2.843-1.773c.736-.26 1.053-.73.947-1.36l.237-1.432c1.21.263 2.526.06 3.948-.597 1.42-.658 2.763-1.04 4.026-1.146.79.526.764 1.13-.078 1.813zm33.005-123.02l.16-1.815-1.502.315c-1.42.475-2.843.053-4.263-1.263-.95.158-1.344-.21-1.186-1.105.368-.79.263-1.21-.315-1.264l-2.29.237c-1.476-.21-2.448-.632-2.923-1.263-.316-.527-.105-1.185.633-1.974-1.422-.58-2.304-1.21-2.646-1.895s-.132-1.236.63-1.658c.764-.42 2.173-.5 4.227-.236-.473-.58-.606-1.185-.394-1.816.052-.63 1.42-.29 4.105 1.026l1.58.948c.42-.79 1.13-1.026 2.132-.71a18.73 18.73 0 0 1 3.395 2.09c1.054.817 2.236 1.988 3.554 3.515 1.106-.738 1.896-.58 2.37.472l.235 1.895c-1.157-1.105-2.578-1.184-4.264-.236l-1.103-.473C89.04 9.935 88.12 8.54 87.802 7.59c-.315-1.21-.473-1.314-.473-.314.052 1.053.683 2.396 1.894 4.027-2.315-.736-4.015-1.684-5.093-2.843-1.078-1.158-1.908-2.13-2.486-2.92-.578-.948-.815-.948-.71 0 .63 1.158 1.5 2.237 2.604 3.237-.84-.37-1.632-.737-2.368-1.106-1.843-.788-3.37-1.21-4.58-1.262-.58 0-.605.105-.078.315 2.054.527 3.54 1.014 4.46 1.46.923.45 1.54.856 1.857 1.225a10.61 10.61 0 0 1-4.582.87c-1-.054-1.446-.027-1.342.078.105.105.42.21.947.315 1.895.212 3.816.002 5.764-.63 1.422.737 3.08 1.447 4.976 2.132-1.16.263-2.29.79-3.396 1.58-.42.526-.21.552.63.08.844-.633 2.106-1.028 3.79-1.186l1.344.552c-.103 1.422.238 2.87 1.027 4.344l-.868.315-2.685-.87zm9.003 8.447c-2.95.053-3.542-.02-3.71-.472-.11-.35-.172-.67.866-1.263l.533-.897c-1.713-.783-3.294-1.713-3.377-3.84l1.422-.554c.63-.737.646-1.29.04-1.66-.606-.368-.936-1.342-.988-2.92.58-1.263 2-1.263 4.266 0 1-1.948 2.21-2.527 3.63-1.737-1.524 0-2.42.658-2.684 1.974-.158.842-.158 1.87 0 3.08a8.102 8.102 0 0 0-1.896-1.895c-1.422-.736-1.685-.658-.79.236a22.627 22.627 0 0 1 2.37 2.764c-1.16.947-2.42 1.37-3.79 1.264-.474.21-.395.342.236.395.63.16 1.37.106 2.21-.157-.104.842.173 2.24.54 3.08.5.72 1.166 1.355 1.948 1.932-.367.105-.668.3-.826.67zm1.657 1.503c-.053-.632.5-.987 1.658-1.066 1.157-.078 1.342-.407.553-.986a8.12 8.12 0 0 1-3.79-2.685c-.684-.896-.684-1.527 0-1.896l1.185-.315.554-.712-.71-2.764c-.21-1.42.184-2.42 1.183-3 1.422-.21 2.817.21 4.185 1.264.053-.737.54-.96 1.463-.67.92.29 1.775 2.25 2.564 5.882l1.263.473c.42-1 .763-1.5 1.027-1.5.42 0 .842.868 1.263 2.606 1.054.946 1.554 2.5 1.5 4.657-.683.895-1.053 2-1.103 3.317l-.633-1.422a19.29 19.29 0 0 1-.474-4.974c-.053-.736-.132-.736-.236 0-.158 1.527-.185 2.816-.08 3.87a37.827 37.827 0 0 0-4.58-4.976c-.315-1.158-.42-2.474-.315-3.948-.158-1.263-.29-1.552-.395-.87-.105 1.58-.053 3.054.157 4.423-1.21-1.21-2.63-2.974-4.264-5.29-.42-.737-.604-.895-.552-.474 1 1.895 2.053 3.474 3.157 4.738 1.106 1.264 2 2.264 2.686 3-1.368-.42-2.553-.697-3.552-.828a8.658 8.658 0 0 1-2.764-.83c-.79-.158-.764.026.077.552.477.316 1.438.606 2.884.87 1.448.263 2.803.71 4.067 1.342.685.42 1.606 1.5 2.764 3.237l.948 2.132c-1.475-.79-3.106-1.342-4.896-1.658-1.788-.316-2.842-.605-3.157-.87-1.37-.578-1.528-.525-.475.16.315.315 1.434.67 3.355 1.065 1.922.395 3.776 1.145 5.566 2.25l.157.473c-.368.422-.5 1-.395 1.737l.553 1.58c-.473-.58-1.13-.315-1.973.79.315-.685.236-1.316-.237-1.895-.736-1.105-2.526-2.29-5.37-3.553l-.473.87c-2.316-.74-3.763-2.107-4.342-4.107zm19.226 39.36c-.55-.815-1.342-2.065-2.367-3.75s-1.776-3.053-2.25-4.105a4.584 4.584 0 0 1-.238-3.237c.315-1.106.58-1.948.79-2.527.21-.58.185-.685-.078-.316-.633 1.105-1.08 2.185-1.343 3.237l-1.58-4.502c.158-1.79 1.106-4.078 2.844-6.868.526-.948.474-1.027-.16-.238-1.577 2.105-2.604 4.238-3.077 6.396l-2.446-5.448c-.053-1 .578-2.896 1.895-5.685.683-1.475.525-1.422-.476.158-.842 1.58-1.446 3.053-1.816 4.42-.736-3-1.446-5.553-2.132-7.658l-.553-.158.316.87c.42 2.63 1 4.92 1.736 6.87-1-.896-2.132-1.633-3.395-2.21-.685-.37-.685-.29 0 .236 1.526.895 2.686 1.79 3.474 2.685.632 1.474 1.212 2.816 1.737 4.027-.945-.685-2.55-1.473-4.814-2.37-.843-.157-.843-.052 0 .317 2.842 1.158 4.605 2.29 5.29 3.395l1.58 4.185c-.58 0-1.344-.868-2.29-2.605-.792-1.475-2.766-2.896-5.923-4.265-.63-.263-.922-.815-.868-1.658.105-.58.71-.816 1.816-.71-.316-.896-.685-1.606-1.105-2.133l-.63-.946c-.844-1.737-.345-2.605 1.498-2.606-.684-1.053-.92-1.868-.71-2.447-.053-1 .184-1.973.71-2.92a9.318 9.318 0 0 0 .712-1.896c1 .58 1.907 1.066 2.725 1.46.814.396 1.25 1.12 1.302 2.17l-.394 2.45c.157.473.578.314 1.262-.475.684-.948 1.237-1.5 1.658-1.66.58.264 1.133.738 1.658 1.422.526 1 .342 2.843-.552 5.527l-.87 2.21c1.79-2.37 3.238-3.5 4.343-3.395.368.263.487.803.356 1.618a8.36 8.36 0 0 0 0 2.566c.13.894-.172 1.658-.908 2.29-.736.63-1.238 1.657-1.5 3.078 1.684-1.263 2.367-1.026 2.052.71l-.946 3.397c-.263 1.63 0 2.395.79 2.29.79-.105 1.276 0 1.462.315.183.315.223.87.117 1.66-.475 1.104-.685 1.828-.632 2.17.053.342.196.632.433.87.24.236.752.183 1.542-.16.79-.34 1.184-.104 1.184.71 0 .818.014 1.607.04 2.37.026.764.275 1.515.75 2.25.37.528.842.87 1.42 1.027l.713-.87c-1.055.054-1.542-.63-1.462-2.052.077-1.42.065-2.526-.04-3.316-.42-1-.842-1.554-1.264-1.66-.42-.105-1.395-2.737-2.92-7.896l1.657.08c1.21 4.42 2.186 6.803 2.922 7.145.736.34 1.08.735 1.027 1.183-.054.447.078 1.408.394 2.882.946-.264 1.5-1.132 1.658-2.606.263-1.37-.132-2.422-1.186-3.16-1.104-.63-1.737-1.21-1.895-1.737-.314-.895.027-1.447 1.028-1.658.578-.315-.817-1.58-4.185-3.79-1.737-1.21-2.266-2.29-1.58-3.237.263-.473.75-.46 1.46.04s1.172.62 1.382.356c.368-.737.08-1.25-.867-1.54-.95-.29-1.396-.62-1.343-.987-.053-1.63-.027-2.736.078-3.316s.053-1.262-.157-2.052c-.58-.842-1.685-.79-3.317.158.37-.895.46-1.764.276-2.606-.185-.842-.593-1.658-1.224-2.448l-.79-2.448c-.21-.843.264-1.42 1.42-1.737-.367-1.632-.367-2.79 0-3.475.37-.737.634-1.342.792-1.816.157-.474.63-.526 1.42-.158.79.368 2.053 1.763 3.79 4.185.844-.948 1.658-.605 2.45 1.026.945 1.473 1.313 3.237 1.103 5.29 1.947-1.053 2.63-.343 2.053 2.132.843 1.737 1.355 3.092 1.54 4.066a3.788 3.788 0 0 1-.475 2.725c-.5.84-.736 1.486-.71 1.935.026.447.21.434.553-.04.342-.474 1.04-.87 2.093-1.185.685 1.474.975 2.448.87 2.92 0 .58-.357 1.212-1.066 1.896-.71.684-1.12 1.5-1.225 2.447 0 .474.236.71.71.71l1.42-.395c.737-.105.764.474.08 1.737-.736 1.367-1.276 2.525-1.618 3.473s-.514 1.71-.514 2.29c-.053 1.21-.263 1.922-.63 2.133a26.78 26.78 0 0 0-.12-4.777c-.185-1.66-.514-3.514-.987-5.568.422-.368 1.002-1.605 1.738-3.71.368-1.053.29-1.185-.236-.396-.58 1.58-1.16 2.553-1.737 2.92-.578-1.946-1.212-4.315-1.896-7.105.788-1.315 1.29-2.973 1.5-4.974.053-1.685-.053-1.816-.315-.395-.317 2.002-.896 3.554-1.737 4.66a79.076 79.076 0 0 0-2.21-6.238c.262-1.105.367-2.395.314-3.87-.053-1.472-.184-1.525-.395-.157 0 1.105-.133 2.053-.396 2.843l-1.735-4.422-1.105-2.526c-.368-.842-.5-.842-.395 0l1.025 3.316c-.79-.895-1.527-1.552-2.21-1.974-.685-.42-.816-.395-.396.08 1.16 1 2.158 2.078 3 3.236a271.62 271.62 0 0 1 2.055 5.212c-2.003-1.685-3.397-2.632-4.188-2.842-1-.37-1-.184 0 .552 1.422.895 3.106 2.475 5.054 4.738a671.72 671.72 0 0 1 1.816 5.37c-1-.58-2.21-1.737-3.633-3.475-.632-.63-.658-.526-.08.315a22.462 22.462 0 0 0 4.027 4.58l1.186 4.816c-1.212-1.21-2.79-2.448-4.74-3.71-.84-.527-.893-.422-.156.314 1.685 1.21 3.448 3 5.29 5.37.526 1.475.764 4.185.71 8.133-.052 1-.788 1.738-2.21 2.21l-.315 3.792-1.974.08a179.272 179.272 0 0 1-2.407-3.434zm2.576 3.704c.315-.104 1.025-.017 1.71-.017-.737 4-1.587 8.383-2.27 11.12l-1.107-.632c.948-3.79 1.457-8.047 1.666-10.47zm-14.024 22.512c-.29-.235-1.172-.96-2.644-2.17-1.317-1.157-1.738-2.21-1.265-3.16a8.42 8.42 0 0 1-.987-1.658c-.29-.63-.224-1.248.198-1.854.42-.606 1.394-.33 2.92.83.264-.896.264-1.738 0-2.527s-.577-1.577-.945-2.37c-.687-1.262-1.344-2.342-1.976-3.236-.58-1.21-.712-1.895-.396-2.053.315-.158.816.053 1.5.632 1.316-1.42 2.185-1.83 2.605-1.224.422.605.765 1.62 1.027 3.04.263 1.422.29 2.895.08 4.423l-.316.316.315.316c.103.315-.027 1.5-.396 3.552 0 .42.13.845.395 1.266-.106-.635-.133-1.108-.08-1.424.053-.263.225-.88.514-1.854s.433-1.525.433-1.658c0-.13.017-.225-.404-.277.473-.157.55-.38.682-.67.132-.29.157-.577.08-.868-.08-.288-.133-1.12-.16-2.486-.025-1.37-.156-2.41-.394-3.12-.235-.71-.38-1.263-.434-1.658-.053-.395-.368-.618-.946-.67-.58-.053-1.396.526-2.45 1.736.476-2.263.962-3.777 1.463-4.54.5-.764 1.013-.987 1.54-.67.525.314.867.657 1.024 1.025.158.367.396.3.712-.198.314-.5.577-.67.788-.514.21.16.435.474.672.947.236.475.408.974.514 1.5.104.527.196 1.487.274 2.883.08 1.395-.09 2.33-.512 2.803-.423.476-.633 1.055-.633 1.738.105 2.738.315 4.092.633 4.067.315-.028.696-.24 1.145-.632.448-.396.843-.54 1.185-.435s.54.87.593 2.29.184 1.567.395.435c.21-1.133.606-1.697 1.185-1.697.58 0 .685 1.525.315 4.58-2.053 1.84-3.526 3.368-4.42 4.578-.316-1.314-.33-2.236-.04-2.763s.55-1.117.79-1.776c.236-.66.433-1.252.592-1.778.42-1.262.342-1.367-.238-.315-.315.632-.593 1.187-.827 1.66-.238.473-.514.946-.83 1.423-.106-.845-.448-2.346-1.026-4.502-.474-1.472-.605-1.447-.395.078.42 2.476.71 4.87.866 7.188a20.87 20.87 0 0 0-2.724-2.447 15.167 15.167 0 0 1-2.407-2.213c-.58-.368-.686-.315-.315.157.63.842 1.565 1.83 2.8 2.963 1.24 1.13 1.99 1.88 2.252 2.248.264.37.42.687.474.95-.474.63-1.025 1.29-1.658 1.974-.368-.212-.58-.57-.63-1.067-.055-.505-.227-.873-.516-1.11zm-28.306 28.86c.63-.737 1.446-1.393 2.447-1.975 4.474-2.21 7.448-3.5 8.92-3.867.265-.105.503-.028.713.234l.63.793-.866.55c-.527.42-1.186.607-1.976.555-.685-.053-1.604.172-2.763.67-1.156.5-1.79 1.198-1.895 2.093-.21.63-.5 1.027-.868 1.185a98.113 98.113 0 0 1-3.16 1.66l-2.446-.16 1.266-1.74zm6.71 2.628h-.394l-.01-.187c-.274.108-.557.136-.86.253l-2.604-.362 2.763-1.362.702 1.312c.126-.053.242-.105.36-.154l-.35-1.337c-.264-.894.053-1.722.946-2.25.843-.633 1.764-.952 2.765-.847.42.052.447.753.08 2.23-.268.62-1.42 1.522-3.44 2.367l.044.337zM73.75 134.166l-.395-1.267-2.13 2.686-1.74 1.104c-.788.684-1.604.946-2.446.788l-2.764-1.34 1.42-.71.395.314c-.263.79.053.684.95-.315l2.446-2.37c.158-1.42-.184-3.25-1.026-5.487s-1.474-3.643-1.895-4.225c-.105-.474-1.316-.58-3.633-.316 1.37-.685 2.975-.737 4.817-.158l1.895.79 1.03-.44-.146-.14-1.753-.84.948.08.806.76.223.105-.076.035.55.52c2.683 2.895 4.195 4.87 4.54 5.92.34 1.054.38 2.08.116 3.08-1 1.32-1.71 1.79-2.132 1.424zm18.873 11.366l.868.162-.315.393-2.053.63a6.918 6.918 0 0 1-3.16 1.582l-1.34-.24-.317-.945a2.717 2.717 0 0 1 1.225-1.027c.5-.21 1.146-.393 1.935-.555l1.895.32 1.263-.32zm-2.922-.435c-1.422 0-2.315.903-2.685.903h-1.105c-1.527-2-2.736-2.457-3.63-3.35l-3.712-3.14c.684-.366 2.157-.128 4.42.504l6.712 5.083zm11.292-16.5c1.526.13 2.684.067 3.475-.195 1.42-.58 4.342-2.738 8.764-6.476 4.263-3.212 7.868-5.45 10.817-6.71.895-.527.935-.91.117-1.147-.814-.236-2.04-.355-3.67-.355-.528.42-.476.765.157 1.027.737-.053 1.263 0 1.58.157-3.527 1.84-6.476 3.685-8.844 5.525.21-1.21.394-3.29.552-6.237a4.407 4.407 0 0 0-.946-2.528c-.368-.526.082-1 1.45-1.42l1.058-.315v1.735l-1.45-.393.182.79c.315.577.906.974 1.75 1.184l4.267.236 1.898-.077c2.21.052 3.293.59 3.24 1.618a10.283 10.283 0 0 0 .235 2.883c.37 2.263 1.266 4.422 2.688 6.474-.314.946-1 2.055-2.05 3.316l-4.11 2.686c-3.524 2.524-8.316 5.817-14.37 9.87-4.315.105-9.5-.238-15.555-1.027-4.37-.58-9.395-1.684-15.08-3.317l-1.265-.315.553-.555c.896-1.156 1.383-1.932 1.462-2.328.08-.396-.072-1.29-.416-2.686-.343-1.397-.98-3.04-2.98-4.935v-.473l1.203-.158c3.265.21 6.183.63 8.734 1.263 2.553.63 5.597 1.21 9.124 1.735 3.423.634 5.903 1.013 7.43 1.146zm-5.922-2.093c-1.37-.21-3.58-.603-6.634-1.185l2.765-.947c1.473.315 2.314 0 2.524-.947a7.69 7.69 0 0 0 1.344 3.078zm16.502-23.29c-1.052 1.155-1.396 2.365-1.025 3.63-1.475.79-2.896 1.947-4.264 3.476-1.368 1.525-2.408 2.815-3.12 3.868-.71 1.052-1.46 1.683-2.25 1.896-.895.42-1.92.21-3.08-.635l-.314 1.974-5.29 3.24-2.606 1.103c.21-.526.342-1.42.395-2.686l.948-.788c3.633-1.894 5.738-3.633 6.316-5.21.735-1.318 1.526-2.41 2.368-3.278.843-.87 1.448-1.936 1.815-3.198l.08-1.894-.237-1.974c.842.946 1.605 1.157 2.29.63a52.658 52.658 0 0 1 3.553-5.725 49.603 49.603 0 0 1 4.026-4.933c1.422-1.53 2.63-2.82 3.632-3.87l-.078 1.973c-3.16 3.896-5.134 6.554-5.923 7.977-2.684 4.054-4.5 7.266-5.448 9.632-.58 1.314-1.423 2.37-2.527 3.16-.843.42-1.475.868-1.895 1.342-.368.684-.158.866.63.55a5.36 5.36 0 0 1 1.738-1.18c1.16-.583 3.632-3.318 7.423-8.213l-.08-2.766.868-1.5c-.053 1.528.078 2.37.395 2.527.315.16.75-.275 1.304-1.303.552-1.024 1.907-3.854 4.065-8.485-.474 1.42-.5 2.657-.08 3.71-1.263.894-1.604 2.423-1.024 4.58l-2.608 2.37zm17.728-17.532c-.185 1.318-.62 2.45-1.303 3.397-2.16 2.47-3.054 3.947-2.687 4.42.58 1 .474 2.132-.315 3.395-1.158 1.424-2.684 3-4.58 4.736.527 1.057.133 1.95-1.184 2.688-1.528.84-3.213 1.577-5.054 2.212 3.42-2.58 5.526-5.344 6.316-8.292 1.104-1 2.08-1.658 2.92-1.974.74-.474.87-.684.397-.632-.95.368-1.95.947-3.003 1.736 1-2 1.71-4.16 2.132-6.473 2.052-2.002 3.343-3.58 3.868-4.74.736-1.104.763-1.34.08-.71-.79 1.316-2 2.712-3.634 4.185.738-2.262 1.396-4.79 1.975-7.58.262-1.63.183-1.922-.238-.867l-.788 2.764c-.37-1.104-.79-1.95-1.265-2.528l1.026 3.315c-.212 1.315-.712 3.184-1.5 5.606-.738-2.103-1.712-4-2.923-5.682-1.104-1.37-1.29-1.396-.553-.08 1.212 1.738 2.21 4.027 3.002 6.867-.633 2.528-1.37 4.632-2.21 6.318-.634-.946-1.29-1.605-1.977-1.974-.526-.264-.526-.106 0 .473.686.684 1.237 1.367 1.658 2.055-.63 1.524-1.46 2.867-2.485 4.024-1.027 1.157-2.04 2.132-3.042 2.92 1.264-1.945 1.685-4.104 1.264-6.472 0-.42.33-.764.987-1.027.657-.263.882-.554.672-.87-.58-1.156-.87-2.078-.87-2.762.422-.21 1.053-.21 1.895 0 .686-.473.62-1.145-.196-2.012-.818-.87-1.33-2.12-1.54-3.752 0-.946.63-1.29 1.895-1.027.58-.054.63-.737.158-2.052l-1.343-1.816c-.95-2.107-.553-2.868 1.185-2.29l2.053 1.263c1.368.525 2.026-.396 1.975-2.763 0-.526.406-.646 1.224-.358.814.29 1.565-.325 2.25-1.854.685-.736 1.21-.053 1.578 2.055-.157 2.79.526 4.106 2.053 3.948.263.158.303.894.12 2.21zm2.368-6.792c.08.526-.04.96-.355 1.305-.315.34-.92.642-1.815.904l-.868-1.586c.053-1.262-.368-2.482-1.264-3.64.368-.317.948-.65 1.737-.966.578-.265.473.025-.315.13-.843.158-1.502.962-1.975.962h-.157c.473-2 1.237-3.62 2.29-5.146.263-.686.104-.787-.474-.05-.897 1.263-1.687 2.505-2.37 3.926-.317-.316-.554-.946-.712-1.788-.21-1-.368-1.053-.473-.105.157 1.21.394 2.067.71 2.593-1.157 1.79-2.08 2.495-2.764 2.126.422-2.526.975-5.188 1.66-7.98 1.21-1.21 2.263-1.606 3.157-1.185 1.264-1 2.344-1.185 3.238-.553.473.79.684 1.565.63 2.33-.052.762-.314 1.617-.788 2.564 1 0 1.527.397 1.58 1.186-.423 1.79-1.265 3.08-2.528 3.868 1.158.214 1.777.58 1.856 1.106z"/>
  <path fill-rule="evenodd" clip-rule="evenodd" fill="#FFF"
        d="M21.09 129.312c.01.183.193.172.384.337.735.493 1.446.28 1.942-.64.668-.922.444-1.63-.292-2.117-.383-.344-.383-.344-.713.214l-1.32 2.205zm-10.42-6.976c.943.67 1.5 1.17 2.508-.134.5-.736.45-1.623-.104-1.956-.185-.16-.55-.323-.55-.323-.187.008-.177.19-.355.2l-1.5 2.213zm14.976 7.366c.14-.723.282-1.263-.27-1.768l.167-.192c.357.165.75.5 1.11.66.374.156.744.493 1.292.637l-.173.182c-.178-.165-.726-.31-.89.05-.163.375-.603 2.173-.766 2.724l-.542 3.058 2.237-1.894c.334-.375 1.7-1.707 1.86-2.065.332-.558-.04-.71-.226-.887l-.02-.348c.376.33.737.495.932.66.373.16.73.318.925.49l.01.168c-.742-.487-1.414.438-2.104 1.007l-4.443 4.17-.365-.17 1.268-6.483zm-5.73 1.098c-.157.368-.648 1.114-.63 1.462-.16.368.195.533.578.87l-.17.178c-.37-.33-.746-.487-1.305-.83-.367-.15-.74-.48-1.107-.64l-.02-.363c.368.168.74.505.91.137.34-.204.85-.937 1.01-1.31l1.642-2.758c.154-.365.66-1.098.826-1.298.152-.536-.213-.697-.582-.855l.172-.19c.374.338.922.49 1.302.822.364.157.743.497 1.11.66.916.48 1.693 1.503.86 2.804-.822 1.468-2.274 1.185-3.2.528-.182.01-.555-.33-.555-.33l-.84 1.112zm-3.972-6.336c.157-.368.656-1.11.824-1.298.15-.54-.216-.7-.583-.858l.348-.21 3.902 2.478-1.004 1.476-.184-.164c.663-1.098.275-1.438-.646-2.104l-.562-.326c-.178-.17-.178-.17-.52.204l-1.49 2.398c1.117.838 1.633.276 2.133-.295l.18-.01c-.318.563-.66.936-.83 1.3-.326.555-.487.908-.824 1.29l-.19-.175c.66-1.098.284-1.434-.636-1.925l-.994 1.662c-.163.357-.498.74-.48 1.087.03.54.404.89.776 1.034.926.49 1.468.635 2.312-.284l.18-.01-.985 1.64-4.46-2.977.16-.186c.2.166.557.334.91.13.162-.188.666-.93 1.006-1.293l1.658-2.583zm-4.312 2.458c.028.536.038.712.417 1.055l-.163.19a10.778 10.778 0 0 1-.57-.516c-.193-.164-.554-.144-.74-.308l.13-.908.027-2.85c-.028-.534-.028-.534-.405-.874l-.834 1.118c-.167.368-.66 1.1-.82 1.466.02.357.208.525.575.688l-.168.186c-.368-.158-.744-.494-1.104-.663-.386-.326-.763-.67-1.302-.81l.16-.19c.37.162.558.323.903.13.35-.195.853-.938 1.012-1.293l1.822-2.78c.172-.193.67-.93.84-1.29.153-.365-.217-.53-.405-.694l-.02-.358c.56.33.935.667 1.495.993.366.154.74.497.932.662.932.666 1.692 1.515.862 2.805-.838 1.122-1.734 1.172-2.648.674v3.568zm51.287 2.366l-1.477-2.76-.456 2.98 1.932-.22zm-22.893 5.207c.178.344.192.873.377 1.217.19.344.538.337.884.326.7-.2 1.032-.9.833-1.77-.018-.7-.384-1.046-.743-1.376-.522-.154-.865.02-1.223.03l-.344.012.217 1.56zm-.23-2.08l.175-.003c.34-.2.686-.21.863-.386.337-.357.324-.876.31-1.396-.198-.865-.56-1.202-1.25-1.182-.172.176-.535.183-.535.183l.014.523.423 2.263zm-5.506 2.932c.01.344.207 1.042.382 1.393.194.337.54.326.887.144.87-.024 1.206-.726 1.003-1.77-.193-.52-.385-1.04-.913-1.204-.35-.157-.873-.144-1.397.04l-.182.002.22 1.395zm-.4-1.917l.346-.172c.344-.01.69-.018.866-.368.342-.358.332-.72.318-1.23-.198-.874-.572-1.382-1.44-1.19 0 0-.347.012-.524.194l.01.347.424 2.42zm26.776-3.08c.014.523-.31 1.403-.13 1.744.015.53.54.336.895.326l.01.354c-.355.01-.71.02-1.057.028-.35.183-.69.192-1.043.2l-.004-.172c.518-.187.685-.372.852-.905.15-.873.13-1.567.284-2.282l.76-4.716.348-.007 2.773 5.333c.182.34.545.862.733 1.2.183.17.53.16.877.152l.01.344c-.348.01-.873.024-1.22.21-.524.014-1.042.2-1.393.207l-.004-.17c.164-.185.693-.195.497-.714-.004-.172-.18-.52-.184-.69l-.744-1.214-2.27.42.01.35zm-3.265-4.455l.18-.004.42 2.26-.186.003c-.387-1.213-1.285-2.055-2.328-1.858-1.753.22-1.87 2.31-1.65 4.05.405 1.735 1.145 3.46 2.893 3.24 1.22-.38 1.545-1.43 1.508-2.826l.17-.184.42 2.605-.365-.512c-.51.712-1.205.9-1.905 1.095-1.915.406-3.534-.947-3.945-3.2-.238-2.267.77-4.216 2.68-4.434.884-.2 1.415-.04 2.12.287l-.012-.522zm-7.167 3.327c-.01-.354-.197-1.04-.206-1.39-.367-.34-.71-.328-.892-.325l-.18-.16c.52-.197 1.053-.21 1.406-.222.52-.01 1.042-.203 1.394-.214l.005.18c-.176.004-.527.193-.69.533.01.364.028 1.048.208 1.398l.445 3.308c.01.344.207 1.21.377 1.378.19.344.55.333.89.322l.01.358c-.517.014-.88.02-1.4.035-.346.18-.868.193-1.393.207l-.004-.168c.354-.012.697-.02.683-.548.167-.35-.028-1.04-.036-1.385l-.617-3.305zm-6.098 1.164c-.01-.35-.21-1.213-.22-1.567-.188-.34-.7-.33-.88-.15l-.19-.345c.527-.014 1.056-.024 1.405-.203.523-.015 1.058-.028 1.4-.218l.175.344c-.348.01-.694.018-.86.368.008.347.207 1.21.217 1.57l.435 3.296c.22 1.396.575 1.732 1.8 1.525.343-.183.878-.196 1.212-.56.347-.355.333-.874.32-1.403l.344-.187.222 2.094-.515.015c-1.58.218-3.327.606-4.9.827l-.004-.18c.35-.174.698-.185.688-.535.166-.35-.033-1.224-.042-1.574l-.607-3.117zm-5.598 1.01c-.01-.354-.205-1.213-.392-1.39-.184-.335-.53-.325-.888-.317l-.004-.17c.527-.192.874-.203 1.41-.217.337-.008.683-.193 1.045-.204 1.044-.21 2.274-.06 2.487 1.332.21 1.04-.49 1.574-1.18 1.953.53-.015 1.056-.028 1.422.312.525.33.895.842 1.084 1.354.024.878-.314 1.407-.653 1.77-.515.538-1.216.556-1.744.57-.167.182-.696.196-1.04.207-.538.014-1.057.196-1.57.382l-.01-.34c.172-.008.69-.022.677-.545-.01-.347-.2-1.048-.208-1.39l-.435-3.31zm-5.908 1.02c-.01-.34-.21-1.213-.218-1.554-.18-.343-.538-.336-.88-.146l-.01-.35c.348-.012.876-.026 1.22-.216.534-.014.88-.02 1.224-.2.868-.195 2.28-.06 2.5 1.502.203 1.048-.314 1.577-1 1.935.53-.014 1.05-.027 1.403.15.54.327.902.846.92 1.54.19.7-.134 1.228-.655 1.764-.342.358-1.034.548-1.562.562-.536.015-.883.024-1.222.21-.71.02-1.048.21-1.753.23l-.005-.183c.344-.188.7-.198.87-.55-.01-.34-.21-1.208-.22-1.556l-.613-3.138zm59.423.922l-.53-3.204-1.423 2.854 1.953.35zm11.9-.792c0-.35-.176-1.238-.176-1.424-.17-.536-.536-.35-.885-.35v-.365h1.414c.35 0 .888-.176 1.422-.176v.355c-.35 0-.72 0-.885.364v1.595l.35 3.212c0 .357 0 1.24.185 1.602.177.353.53.353.878.353v.175h-1.412c-.537.176-.89.176-1.42.176v-.176c.184 0 .715 0 .715-.53.167-.36 0-1.068 0-1.426l-.186-3.386zm-6.975-.68c0-.362.188-1.25.188-1.6a1 1 0 0 0-.89-.544l.183-.164c.347 0 .88.164 1.235.164.534.187 1.065.187 1.594.187l-.172.356c-.177 0-.717-.175-.89.175-.176.353-.176 1.25-.36 1.597l-.53 3.397c-.172 1.417 0 1.774 1.063 1.957.54 0 1.065.176 1.416 0 .724-.36.724-.722.893-1.43h.358l-.528 2.14c0-.177-.362-.177-.362-.177-1.776-.357-3.37-.532-5.134-.894v-.18c.344 0 .698 0 1.056-.354 0-.172.177-1.062.36-1.424l.518-3.207zm-7.41 1.833c-.177.353-.53 1.24-.705 1.602 0 .525.528.525.705.712v.175c-.357 0-.705-.176-1.057-.176-.362 0-.717-.187-1.063-.187l.17-.164c.53 0 .7-.187 1.07-.723.352-.712.704-1.42 1.063-2.136l2.125-4.27.35.168 1.063 6.062c.188.354.188 1.062.36 1.424.17.368.35.368.7.536v.18c-.35 0-.872-.18-1.412-.18-.36-.168-.885-.168-1.416-.168l.177-.368c.178 0 .705.183.705-.175v-1.073l-.177-1.24-2.476-.362-.182.36zm-.683-3.647l-.183-.172c.183-1.072-.175-1.437-1.06-1.615-.53 0-1.072-.168-1.072.18l-.878 5.518c0 .897 0 1.073.878 1.435v.172c-.523 0-1.06-.172-1.583-.35-.54 0-1.07 0-1.603-.184v-.176c1.062 0 1.252-.175 1.42-1.072l.707-5.522c.182-.168-.358-.354-.705-.354-1.07-.164-1.42-.164-1.592 1.248l-.358-.175.358-1.788 6.023 1.07-.35 1.786zm-8.98-1.196c0-.36.174-1.066 0-1.43 0-.352-.35-.534-.697-.534v-.35c.517.17 1.06.35 1.413.35.533 0 1.06.183 1.593.183l-.18.172c-.19 0-.71 0-.88.36-.186.355-.186 1.063-.357 1.428l-.36 3.38c-.17.36-.17 1.244-.17 1.43 0 .53.355.53.702.53v.36c-.53-.188-.89-.188-1.413-.36-.538 0-.885 0-1.413-.183v-.175c.344 0 .692 0 .875-.358.19-.175.357-1.07.357-1.416l.53-3.387zm42.778-5.34l-2.653-1.78 1.062 3.032 1.59-1.252zm-11.948 8.59l-2.307-2.132.534 3.033 1.773-.9zm10.53-6.633c0 .533.36 1.427.54 1.78.355.358.708 0 .878-.178l.183.357c-.183.18-.527.364-.882.54-.18.16-.542.35-.72.712l-.173-.36c.352-.352.352-.527.352-1.07-.35-.89-.53-1.603-.7-2.314l-1.42-4.627.17-.186 5.15 3.572c.17.17.874.71 1.06.71.346.177.707 0 1.064-.182v.358c-.357.182-.72.354-1.065.708-.35.357-.71.54-1.058.897l-.178-.185c.178-.172.524-.533.348-.89-.17-.177-.524-.35-.708-.53l-1.056-.716-1.957 1.423.175.18zm-8.86 1.29c-.53-.186-.894-.186-1.24.183l-.18-.368c.353-.173.526-.173.71-.527.18 0 .532-.175.71-.354l6.915 2.316-1.953-2.683c-.354-.347-.704-1.065-1.065-1.416-.52-.357-.712-.18-1.236 0l-.18-.18c.353-.178.704-.36 1.07-.536.172-.36.346-.528.707-.72l.177.19c-.177.358-.538.358-.354.89.178.356.882 1.247 1.245 1.772l2.83 3.93-.177.173c-.354 0-.705-.172-1.062-.357l-6.386-2.132 2.306 3.2c.188.365.716.895 1.062 1.25.36.182.712 0 1.065-.187v.185c-.18.364-.527.54-.882.712-.357.175-.53.354-.896.715l-.164-.18c.354-.36.528-.535.354-1.064a5.905 5.905 0 0 0-.896-1.26l-2.48-3.554zm-3.258 7.128c0 .354.17 1.252.347 1.774.18.36.698.176.88 0l.18.176c-.36.186-.524.36-.88.547-.356.17-.71.346-.888.52l-.183-.175c.36-.347.544-.532.36-1.244 0-.715-.178-1.6-.36-2.31l-.887-4.81h.36l4.6 4.09c.187.183.718.72 1.07.89.348.18.707 0 .888 0l.177.18c-.356.176-.886.36-1.242.716-.35.18-.89.354-1.243.712l-.18-.357c.358 0 .718-.353.532-.708-.174-.186-.353-.54-.706-.71l-.883-.72-2.125 1.07.185.36z"/>
  <g fill="#FFF">
    <path
      d="M18.78 83.35c-.472-1.43-1.014-3.135-1.18-3.695l-.104-.347 4.07-2.314c-.435-2.085-.726-3.957-.887-5.702l-4.586-.945-.012-.358c-.035-.98-.035-5.014 0-5.994l.012-.357 4.584-.946a47.28 47.28 0 0 1 .884-5.7l-2.256-1.265 1.542-.18 1.746.98-.073.328c-.49 2.23-.806 4.273-.966 6.25l-.027.338-4.547.937c-.023 1.207-.023 4.01 0 5.216l4.547.936.028.338c.158 1.893.474 3.938.968 6.252l.07.326-4.02 2.284c.19.617.512 1.627.832 2.608l-.626 1.006zm8.106 13.29c.398.55.764 1.05 1.018 1.388l4.192-1.904.223.25c1.305 1.468 2.775 2.927 4.493 4.46l.25.22-1.91 4.235c.944.725 3.218 2.366 4.208 3.043l3.402-3.124.29.174a45.882 45.882 0 0 0 5.662 2.865l.314.132-.52 4.614c1.155.403 3.813 1.266 4.97 1.616l2.253-4.02.33.072c2.182.48 4.285.807 6.25.965l.34.026.937 4.548c.576.01 1.54.018 2.62.018 1.076 0 2.028-.007 2.594-.018l.902-4.506.335-.03c2.28-.226 4.323-.555 6.25-1.004l.33-.077 2.29 4.025c1.18-.354 3.846-1.213 4.975-1.613l-.52-4.58.308-.137a47.592 47.592 0 0 0 5.63-2.9l.288-.174 3.44 3.126c.984-.666 3.242-2.328 4.2-3.05l-1.94-4.197.255-.226c1.73-1.504 3.198-2.97 4.484-4.484l.222-.26 4.24 1.91c.727-.942 2.367-3.214 3.046-4.203l-3.124-3.404.174-.29a47.95 47.95 0 0 0 2.864-5.628l.134-.31 4.614.488c.41-1.16 1.286-3.808 1.595-4.938l-4-2.293.073-.326c.49-2.233.807-4.277.966-6.25l.028-.34 4.555-.937a97.27 97.27 0 0 0 0-5.21l-4.555-.905-.028-.34c-.186-2.23-.522-4.33-1-6.24l-.082-.333 4.038-2.297c-.33-1.167-1.19-3.847-1.587-4.966l-4.62.555-.132-.32a41.25 41.25 0 0 0-2.862-5.655l-.176-.292 3.13-3.407c-.677-1.012-2.326-3.295-3.075-4.235l-4.174 1.948-.224-.26a45.804 45.804 0 0 0-4.488-4.486l-.256-.223 1.91-4.203c-.947-.74-3.216-2.413-4.23-3.082l-3.374 3.13-.292-.174a45.885 45.885 0 0 0-5.66-2.865l-.314-.133.52-4.592c-1.113-.418-3.79-1.28-4.967-1.612l-2.26 4.034-.335-.08a41.14 41.14 0 0 0-6.24-1l-.34-.027-.94-4.523c-.562-.02-1.52-.034-2.607-.034a79.45 79.45 0 0 0-2.604.034l-.905 4.52-.34.028c-2.232.187-4.33.522-6.238 1l-.333.082-2.33-4.036c-1.15.333-3.804 1.195-4.94 1.615l.522 4.59-.314.132A42.957 42.957 0 0 0 43.09 28.6l-.29.175-3.44-3.126c-.477.33-1.252.886-2.034 1.456l.146-1.23c.73-.526 1.375-.983 1.682-1.184l.294-.192 3.46 3.147a44.364 44.364 0 0 1 5.137-2.617l-.524-4.605.32-.13c.95-.387 4.75-1.62 5.706-1.866l.335-.088 2.338 4.048a40.27 40.27 0 0 1 5.708-.912l.907-4.537.345-.023h.02l.01-.002h.01l.3-.022h.014l.08-.007h.383c.644-.015 1.48-.02 2.196-.02 1.096 0 2.463.013 3.015.052l.344.024.94 4.537c1.888.167 3.76.467 5.703.913l2.27-4.048.335.084c1.007.25 4.844 1.486 5.75 1.87l.312.13-.522 4.603a46.535 46.535 0 0 1 5.167 2.616l3.383-3.14.293.175c.894.536 4.14 2.938 4.9 3.56l.27.22-1.923 4.23a46.387 46.387 0 0 1 4.095 4.093l4.187-1.953.224.26c.652.757 3.017 4.03 3.562 4.902l.183.294-3.144 3.422a42.362 42.362 0 0 1 2.618 5.167l4.646-.56.126.33c.35.912 1.576 4.724 1.83 5.735l.085.335-4.046 2.302c.423 1.767.728 3.682.912 5.705l4.572.907.024.345c.07.985.07 5.04 0 6.025l-.024.343-4.572.94a46.71 46.71 0 0 1-.886 5.706l4.01 2.302-.072.326c-.223 1.006-1.506 4.83-1.83 5.704l-.12.333-4.657-.49a48.488 48.488 0 0 1-2.614 5.136l3.148 3.43-.193.294c-.55.845-2.886 4.08-3.514 4.85l-.22.27-4.26-1.922c-1.2 1.382-2.545 2.725-4.102 4.095l1.96 4.24-.284.22c-.778.604-4 2.98-4.85 3.514l-.29.183-3.456-3.142a49.01 49.01 0 0 1-5.137 2.644l.524 4.62-.327.127c-.91.347-4.727 1.573-5.72 1.857l-.344.1-2.312-4.062c-1.772.4-3.646.698-5.7.91l-.91 4.556-.36.016c-.547.018-1.9.024-2.985.024-1.084 0-2.444-.007-3.01-.024l-.356-.015-.944-4.58a48.164 48.164 0 0 1-5.7-.89l-2.278 4.065-.345-.1c-.944-.27-4.75-1.5-5.715-1.857l-.334-.122.526-4.653a47.24 47.24 0 0 1-5.168-2.615l-3.428 3.148-.295-.193c-.846-.554-4.083-2.89-4.85-3.517l-.27-.22 1.924-4.268a55.93 55.93 0 0 1-4.098-4.06l-4.24 1.928-.22-.288c-.21-.27-.623-.83-1.098-1.483l.582-.746z"/>
    <path
      d="M66.137 103.875a36.638 36.638 0 0 1-15.43-3.376l-.653-.303L66.182 79.9l15.76 20.447-.65.29a37.285 37.285 0 0 1-15.155 3.238zM51.834 99.77a35.482 35.482 0 0 0 14.302 2.977c4.795 0 9.63-.98 14.037-2.85L66.17 81.73 51.833 99.77zM92.77 92.6L78.448 71.008l24.325-8.673.076.71a36.878 36.878 0 0 1-9.594 29.03l-.486.525zM80.186 71.586l12.727 19.186a35.74 35.74 0 0 0 8.888-26.894l-21.614 7.708zm-40.862 20.7l-.48-.532a37.06 37.06 0 0 1-9.273-29.134l.085-.712 24.287 9.043-14.618 21.337zm-8.71-28.818a35.925 35.925 0 0 0 8.594 26.993l12.987-18.956-21.582-8.036zm43.175-6.877l-.737-25.835.7.147c10.48 2.204 19.458 8.81 24.638 18.125l.348.625-24.95 6.94zm.43-24.43l.656 22.958L97.05 48.95C92.1 40.46 83.844 34.387 74.22 32.16zm-15.6 24.405l-24.768-7.31.357-.62c5.333-9.263 14.38-15.752 24.816-17.805l.702-.14-1.107 25.875zm-23.07-7.983l22.006 6.493.984-22.992c-9.588 2.087-17.9 8.053-22.99 16.5z"/>
    <path
      d="M66.176 33.47l-7.792 22.237-.123.35-.368.008-23.58.57 18.742 14.277.294.223-.105.354-6.753 22.645L65.872 80.73l.302-.21.305.21 19.414 13.404-6.75-22.574-.106-.352.295-.226 18.744-14.345-23.544-.537-.372-.01-.12-.346-7.864-22.274zm-8.68 21.537l8.174-23.322.503-1.435.506 1.432 8.243 23.36 24.696.563 1.52.035-1.207.923-19.66 15.045 7.08 23.677.438 1.455-1.25-.862-20.365-14.06-20.33 14.06-1.25.862.435-1.455 7.082-23.748-19.66-14.973-1.21-.92 1.522-.038 24.733-.6z"/>
    <g fill-rule="evenodd" clip-rule="evenodd">
      <path d="M22.658 104.55l.004.006zM20.53 100.21l2.128 4.34z"/>
    </g>
  </g>
</svg>
