<?xml version="1.0" encoding="UTF-8"?>
<svg width="1398px" height="414px" viewBox="0 0 1398 414" version="1.1" xmlns="http://www.w3.org/2000/svg" xmlns:xlink="http://www.w3.org/1999/xlink">
    <title>logo-team-digitale-full</title>
    <defs>
        <path d="M1.378,10.884 L1.378,0.39 L54.378,0.39 L54.378,10.884 L33.92,10.884 L33.92,73 L22.048,73 L22.048,10.884 L1.378,10.884 Z M64.13,73 L64.13,0.39 L109.922,0.39 L109.922,10.672 L75.896,10.672 L75.896,31.236 L103.562,31.236 L103.562,41.412 L75.896,41.412 L75.896,62.612 L109.922,62.612 L109.922,73 L64.13,73 Z M116.494,73 L134.408,0.39 L157.834,0.39 L175.854,73 L163.982,73 L160.06,57.418 L132.182,57.418 L128.26,73 L116.494,73 Z M143.524,10.248 L134.514,47.03 L157.728,47.03 L148.824,10.248 L143.524,10.248 Z M186.242,73 L186.242,0.39 L206.7,0.39 L222.918,57.1 L239.136,0.39 L259.7,0.39 L259.7,73 L247.828,73 L247.828,13.428 L246.238,13.428 L229.066,70.032 L216.77,70.032 L199.598,13.428 L198.008,13.428 L198.008,73 L186.242,73 Z M326.268,50.422 L311.428,50.422 L311.428,73 L299.662,73 L299.662,0.39 L326.268,0.39 C342.733416,0.39 350.966,8.5165854 350.966,24.77 C350.966,33.1087084 348.899021,39.4686448 344.765,43.85 C340.630979,48.2313552 334.465374,50.422 326.268,50.422 Z M311.428,40.246 L326.162,40.246 C334.642042,40.246 338.882,35.0873849 338.882,24.77 C338.882,19.8233086 337.857344,16.2193446 335.808,13.958 C333.758656,11.6966554 330.543355,10.566 326.162,10.566 L311.428,10.566 L311.428,40.246 Z M362.308,73 L362.308,0.39 L408.1,0.39 L408.1,10.672 L374.074,10.672 L374.074,31.236 L401.74,31.236 L401.74,41.412 L374.074,41.412 L374.074,62.612 L408.1,62.612 L408.1,73 L362.308,73 Z M432.692,47.136 L432.692,73 L420.926,73 L420.926,0.39 L448.486,0.39 C464.880749,0.39 473.078,8.09258964 473.078,23.498 C473.078,33.8153849 469.120706,40.811315 461.206,44.486 L473.184,73 L460.252,73 L449.758,47.136 L432.692,47.136 Z M460.994,23.604 C460.994,14.9119565 456.824708,10.566 448.486,10.566 L432.692,10.566 L432.692,36.96 L448.698,36.96 C452.938021,36.96 456.047323,35.7410122 458.026,33.303 C460.004677,30.8649878 460.994,27.6320201 460.994,23.604 Z M550.458,73 L509.754,73 L509.754,0.39 L521.52,0.39 L521.52,62.506 L550.458,62.506 L550.458,73 Z M553.85,73 L571.764,0.39 L595.19,0.39 L613.21,73 L601.338,73 L597.416,57.418 L569.538,57.418 L565.616,73 L553.85,73 Z M580.88,10.248 L571.87,47.03 L595.084,47.03 L586.18,10.248 L580.88,10.248 Z" id="path-line-1"></path>
        <path d="M1.378,171.884 L1.378,161.39 L54.378,161.39 L54.378,171.884 L33.92,171.884 L33.92,234 L22.048,234 L22.048,171.884 L1.378,171.884 Z M75.896,208.136 L75.896,234 L64.13,234 L64.13,161.39 L91.69,161.39 C108.084749,161.39 116.282,169.09259 116.282,184.498 C116.282,194.815385 112.324706,201.811315 104.41,205.486 L116.388,234 L103.456,234 L92.962,208.136 L75.896,208.136 Z M104.198,184.604 C104.198,175.911957 100.028708,171.566 91.69,171.566 L75.896,171.566 L75.896,197.96 L91.902,197.96 C96.1420212,197.96 99.2513234,196.741012 101.23,194.303 C103.208677,191.864988 104.198,188.63202 104.198,184.604 Z M122.642,234 L140.556,161.39 L163.982,161.39 L182.002,234 L170.13,234 L166.208,218.418 L138.33,218.418 L134.408,234 L122.642,234 Z M149.672,171.248 L140.662,208.03 L163.876,208.03 L154.972,171.248 L149.672,171.248 Z M212.954,170.506 C203.979288,170.506 199.492,173.650635 199.492,179.94 C199.492,183.190683 200.551989,185.504993 202.672,186.883 C204.792011,188.261007 209.47363,189.95699 216.717,191.971 C223.96037,193.98501 229.065985,196.387653 232.034,199.179 C235.002015,201.970347 236.486,206.369303 236.486,212.376 C236.486,220.008038 234.313022,225.714314 229.967,229.495 C225.620978,233.275686 219.702704,235.166 212.212,235.166 C206.205303,235.166 199.562703,234.45934 192.284,233.046 L188.468,232.304 L189.634,222.87 C199.174048,224.142006 206.452642,224.778 211.47,224.778 C220.23271,224.778 224.614,220.891372 224.614,213.118 C224.614,210.079318 223.624677,207.835674 221.646,206.387 C219.667323,204.938326 215.215368,203.348342 208.29,201.617 C201.364632,199.885658 196.206017,197.500682 192.814,194.462 C189.421983,191.423318 187.726,186.618033 187.726,180.046 C187.726,173.473967 189.863645,168.509683 194.139,165.153 C198.414355,161.796317 204.332629,160.118 211.894,160.118 C217.335361,160.118 223.765963,160.753994 231.186,162.026 L234.896,162.662 L233.942,172.202 C224.048617,171.071328 217.052687,170.506 212.954,170.506 Z M249.206,234 L249.206,161.39 L294.256,161.39 L294.256,171.672 L260.972,171.672 L260.972,196.158 L288.638,196.158 L288.638,206.44 L260.972,206.44 L260.972,234 L249.206,234 Z M317.47,218.63 C319.872679,222.799354 324.465966,224.884 331.25,224.884 C338.034034,224.884 342.609655,222.834687 344.977,218.736 C347.344345,214.637313 348.528,207.765048 348.528,198.119 C348.528,188.472952 347.309012,181.459355 344.871,177.078 C342.432988,172.696645 337.8927,170.506 331.25,170.506 C324.6073,170.506 320.049346,172.696645 317.576,177.078 C315.102654,181.459355 313.866,188.437619 313.866,198.013 C313.866,207.588381 315.067321,214.460646 317.47,218.63 Z M354.146,226.262 C349.835312,232.19803 342.203388,235.166 331.25,235.166 C320.296612,235.166 312.629355,232.180363 308.248,226.209 C303.866645,220.237637 301.676,210.856731 301.676,198.066 C301.676,185.275269 303.884311,175.770698 308.301,169.552 C312.717689,163.333302 320.367279,160.224 331.25,160.224 C342.132721,160.224 349.764645,163.315636 354.146,169.499 C358.527355,175.682364 360.718,185.204602 360.718,198.066 C360.718,210.927398 358.527355,220.32597 354.146,226.262 Z M386.158,208.136 L386.158,234 L374.392,234 L374.392,161.39 L401.952,161.39 C418.346749,161.39 426.544,169.09259 426.544,184.498 C426.544,194.815385 422.586706,201.811315 414.672,205.486 L426.65,234 L413.718,234 L403.224,208.136 L386.158,208.136 Z M414.46,184.604 C414.46,175.911957 410.290708,171.566 401.952,171.566 L386.158,171.566 L386.158,197.96 L402.164,197.96 C406.404021,197.96 409.513323,196.741012 411.492,194.303 C413.470677,191.864988 414.46,188.63202 414.46,184.604 Z M439.9,234 L439.9,161.39 L460.358,161.39 L476.576,218.1 L492.794,161.39 L513.358,161.39 L513.358,234 L501.486,234 L501.486,174.428 L499.896,174.428 L482.724,231.032 L470.428,231.032 L453.256,174.428 L451.666,174.428 L451.666,234 L439.9,234 Z M523.746,234 L541.66,161.39 L565.086,161.39 L583.106,234 L571.234,234 L567.312,218.418 L539.434,218.418 L535.512,234 L523.746,234 Z M550.776,171.248 L541.766,208.03 L564.98,208.03 L556.076,171.248 L550.776,171.248 Z M589.572,171.672 L589.572,161.39 L637.272,161.39 L637.272,172.732 L603.564,221.704 L603.564,223.718 L637.272,223.718 L637.272,234 L589.572,234 L589.572,222.764 L623.174,173.792 L623.174,171.672 L589.572,171.672 Z M650.098,234 L650.098,161.39 L661.864,161.39 L661.864,234 L650.098,234 Z M691.226,218.63 C693.628679,222.799354 698.221966,224.884 705.006,224.884 C711.790034,224.884 716.365655,222.834687 718.733,218.736 C721.100345,214.637313 722.284,207.765048 722.284,198.119 C722.284,188.472952 721.065012,181.459355 718.627,177.078 C716.188988,172.696645 711.6487,170.506 705.006,170.506 C698.3633,170.506 693.805346,172.696645 691.332,177.078 C688.858654,181.459355 687.622,188.437619 687.622,198.013 C687.622,207.588381 688.823321,214.460646 691.226,218.63 Z M727.902,226.262 C723.591312,232.19803 715.959388,235.166 705.006,235.166 C694.052612,235.166 686.385355,232.180363 682.004,226.209 C677.622645,220.237637 675.432,210.856731 675.432,198.066 C675.432,185.275269 677.640311,175.770698 682.057,169.552 C686.473689,163.333302 694.123279,160.224 705.006,160.224 C715.888721,160.224 723.520645,163.315636 727.902,169.499 C732.283355,175.682364 734.474,185.204602 734.474,198.066 C734.474,210.927398 732.283355,220.32597 727.902,226.262 Z M748.148,234 L748.148,161.39 L768.712,161.39 L790.76,223.612 L792.35,223.612 L792.35,161.39 L804.116,161.39 L804.116,234 L783.976,234 L761.398,171.672 L759.914,171.672 L759.914,234 L748.148,234 Z M820.864,234 L820.864,161.39 L866.656,161.39 L866.656,171.672 L832.63,171.672 L832.63,192.236 L860.296,192.236 L860.296,202.412 L832.63,202.412 L832.63,223.612 L866.656,223.612 L866.656,234 L820.864,234 Z" id="path-line-2"></path>
        <path d="M33.496,395 L8.374,395 L8.374,322.39 L33.496,322.39 C44.6613892,322.39 52.2933128,325.216638 56.392,330.87 C60.4906872,336.523362 62.54,345.39194 62.54,357.476 C62.54,363.624031 62.1336707,368.835645 61.321,373.111 C60.5083293,377.386355 59.0773436,381.255316 57.028,384.718 C52.9999799,391.572701 45.1560583,395 33.496,395 Z M50.35,357.476 C50.35,348.71329 49.2546776,342.388686 47.064,338.502 C44.8733224,334.615314 40.3507009,332.672 33.496,332.672 L20.14,332.672 L20.14,384.612 L33.496,384.612 C40.492035,384.612 45.1559883,382.032692 47.488,376.874 C48.6186723,374.25932 49.3783314,371.468015 49.767,368.5 C50.1556686,365.531985 50.35,361.857355 50.35,357.476 Z M76.32,395 L76.32,322.39 L88.086,322.39 L88.086,395 L76.32,395 Z M134.408,367.228 L134.408,356.84 L155.078,356.84 L155.078,393.728 C153.16999,394.222669 149.301029,394.752664 143.471,395.318 C137.640971,395.883336 133.41868,396.166 130.804,396.166 C119.779945,396.166 112.183354,393.127364 108.014,387.05 C103.844646,380.972636 101.76,371.450398 101.76,358.483 C101.76,345.515602 103.897645,336.06403 108.173,330.128 C112.448355,324.19197 119.850614,321.224 130.38,321.224 C136.598698,321.224 143.594628,321.93066 151.368,323.344 L155.078,324.086 L154.654,333.414 C146.103291,332.283328 138.436034,331.718 131.652,331.718 C124.867966,331.718 120.221679,333.625981 117.713,337.442 C115.204321,341.258019 113.95,348.324615 113.95,358.642 C113.95,368.959385 115.133655,376.07898 117.501,380.001 C119.868345,383.92302 124.655964,385.884 131.864,385.884 C137.022692,385.884 140.873987,385.566003 143.418,384.93 L143.418,367.228 L134.408,367.228 Z M169.812,395 L169.812,322.39 L181.578,322.39 L181.578,395 L169.812,395 Z M191.33,332.884 L191.33,322.39 L244.33,322.39 L244.33,332.884 L223.872,332.884 L223.872,395 L212,395 L212,332.884 L191.33,332.884 Z M243.482,395 L261.396,322.39 L284.822,322.39 L302.842,395 L290.97,395 L287.048,379.418 L259.17,379.418 L255.248,395 L243.482,395 Z M270.512,332.248 L261.502,369.03 L284.716,369.03 L275.812,332.248 L270.512,332.248 Z M353.934,395 L313.23,395 L313.23,322.39 L324.996,322.39 L324.996,384.506 L353.934,384.506 L353.934,395 Z M363.58,395 L363.58,322.39 L409.372,322.39 L409.372,332.672 L375.346,332.672 L375.346,353.236 L403.012,353.236 L403.012,363.412 L375.346,363.412 L375.346,384.612 L409.372,384.612 L409.372,395 L363.58,395 Z" id="path-line-3"></path>
    </defs>
    <g id="logo-team-digitale" stroke="none" stroke-width="1" fill="none" fill-rule="evenodd">
        <g transform="translate(0.000000, 2.000000)">
            <g fill="#FFFFFF" fill-rule="nonzero">
                <path d="M403.1,409.1 L6,409.1 C2.7,409.1 0,406.4 0,403.1 L0,6 C0,2.7 2.7,0 6,0 L403.1,0 C406.4,0 409.1,2.7 409.1,6 L409.1,403.1 C409.1,406.4 406.4,409.1 403.1,409.1 Z M99.1,201 C114.122145,201 126.3,188.822145 126.3,173.8 C126.3,158.777855 114.122145,146.6 99.1,146.6 C84.0778548,146.6 71.9,158.777855 71.9,173.8 C71.9,188.822145 84.0778548,201 99.1,201 Z M164.9,316 L164.9,316.1 L240.1,316.1 C320.3,316.1 335.1,276.3 335.1,200.1 C335.1,125.8 318,92.6 240.1,92.6 L164.9,92.6 L164.9,316 Z M240.1,132 C284.1,132 288.4,151.1 288.4,200 C288.4,249.7 284.1,276.6 240.1,276.6 L210.2,276.6 L210.2,132 L240.1,132 Z"></path>
            </g>
            <path d="M470.5,0 L470.5,409.1" stroke="#FFFFFF" stroke-width="4" stroke-linecap="square"></path>
            <g transform="translate(531.000000, 3.000000)">
                <g><use fill="#FFFFFF" xlink:href="#path-line-1"></use></g>
                <g><use fill="#FFFFFF" xlink:href="#path-line-2"></use></g>
                <g><use fill="#FFFFFF" xlink:href="#path-line-3"></use></g>
            </g>
        </g>
    </g>
</svg>
