<?xml version="1.0" encoding="utf-8"?><svg xmlns="http://www.w3.org/2000/svg" xmlns:xlink="http://www.w3.org/1999/xlink"><defs><svg viewBox="0 0 24 24" id="it-arrow-down" xmlns="http://www.w3.org/2000/svg"><defs><style>.aacls-1{fill:#06c}</style></defs><path class="aacls-1" d="M13.09 21l6.54-6.54a.75.75 0 1 0-1.06-1.06l-5.8 5.79v-15a.75.75 0 1 0-1.5 0v15l-5.79-5.77a.75.75 0 1 0-1.06 1.06L11 21a1.5 1.5 0 0 0 2.09 0z" id="aaLivello_10" data-name="Livello 10"/></svg><svg viewBox="0 0 24 24" id="it-arrow-left" xmlns="http://www.w3.org/2000/svg"><defs><style>.abcls-1{fill:#06c}</style></defs><path class="abcls-1" d="M3.48 13.53L10 20.07a.74.74 0 0 0 1.06 0 .75.75 0 0 0 0-1.06l-5.77-5.79h15a.75.75 0 0 0 0-1.5h-15l5.79-5.79A.75.75 0 1 0 10 4.87l-6.52 6.54a1.49 1.49 0 0 0 0 2.12z" id="abLivello_8" data-name="Livello 8"/></svg><svg viewBox="0 0 24 24" id="it-arrow-right" xmlns="http://www.w3.org/2000/svg"><defs><style>.accls-1{fill:#06c}</style></defs><path class="accls-1" d="M20.55 11.26L14 4.72a.75.75 0 0 0-1.06 0 .74.74 0 0 0 0 1.06l5.79 5.79h-15a.75.75 0 1 0 0 1.5h15L13 18.86a.75.75 0 0 0 1 1.06l6.54-6.54a1.51 1.51 0 0 0 .01-2.12z" id="acLivello_7" data-name="Livello 7"/></svg><svg viewBox="0 0 24 24" id="it-arrow-up" xmlns="http://www.w3.org/2000/svg"><defs><style>.adcls-1{fill:#06c}</style></defs><path class="adcls-1" d="M11 3.92l-6.58 6.54a.75.75 0 0 0 0 1.06.74.74 0 0 0 1.06 0l5.79-5.79v15a.75.75 0 0 0 1.5 0v-15l5.8 5.79a.74.74 0 0 0 1.06 0 .75.75 0 0 0 0-1.06l-6.54-6.54a1.52 1.52 0 0 0-2.09 0z" id="adLivello_9" data-name="Livello 9"/></svg><svg viewBox="0 0 24 24" id="it-burger" xmlns="http://www.w3.org/2000/svg"><defs><style>.aecls-1{fill:#06c}</style></defs><g id="aeLivello_15" data-name="Livello 15"><rect class="aecls-1" x="2.06" y="17.96" width="19.92" height="1.5" rx=".75"/><rect class="aecls-1" x="2.06" y="4.57" width="19.92" height="1.5" rx=".75"/><rect class="aecls-1" x="2.06" y="11.27" width="19.92" height="1.5" rx=".75"/></g></svg><svg viewBox="0 0 24 24" id="it-calendar" xmlns="http://www.w3.org/2000/svg"><defs><style>.afcls-1{fill:#06c}</style></defs><path class="afcls-1" d="M21 9V8a3 3 0 0 0-3-3h-.55V4a1 1 0 0 0-2 0v1h-7V4a1 1 0 1 0-2 0v1H6a3 3 0 0 0-3 3v10a3 3 0 0 0 3 3h12a3 3 0 0 0 3-3V9zm-5.54-4h2v1a1 1 0 1 1-2 0zm-9 0h2v1a1 1 0 1 1-2 0zM20 18a2 2 0 0 1-2 2H6a2 2 0 0 1-2-2v-8h16z" id="afLayer_42" data-name="Layer 42"/></svg><svg viewBox="0 0 24 24" id="it-camera" xmlns="http://www.w3.org/2000/svg"><defs><style>.agcls-1{fill:#06c}</style></defs><path class="agcls-1" d="M18.52 6.49h-.95a.5.5 0 0 1-.48-.37l-.32-1.24a.5.5 0 0 0-.49-.37h-6.17a.5.5 0 0 0-.48.37l-.32 1.24a.5.5 0 0 1-.48.37H7.52a.76.76 0 0 0-.76-.76H5.29a.77.77 0 0 0-.77.76.66.66 0 0 0 0 .15A3.5 3.5 0 0 0 2 10v6a3.49 3.49 0 0 0 3.48 3.5h13A3.49 3.49 0 0 0 22 16v-6a3.5 3.5 0 0 0-3.48-3.51zM21 16a2.49 2.49 0 0 1-2.48 2.5h-13A2.49 2.49 0 0 1 3 16v-3h6a4.25 4.25 0 0 0 8.44 0H21zm-11-3.53a3.28 3.28 0 0 1 6.55 0 3.28 3.28 0 0 1-6.55 0zM21 12h-3.52A4.25 4.25 0 0 0 9 12H3v-2a2.5 2.5 0 0 1 2.48-2.51h3.35a1.51 1.51 0 0 0 1.45-1.12l.22-.86h5.4l.22.86a1.5 1.5 0 0 0 1.45 1.12h.95A2.5 2.5 0 0 1 21 10z" id="agLivello_38" data-name="Livello 38"/></svg><svg viewBox="0 0 24 24" id="it-card" xmlns="http://www.w3.org/2000/svg"><defs><style>.ahcls-1{fill:#06c}</style></defs><g id="ahmateriale"><path class="ahcls-1" d="M19 5H5a3 3 0 0 0-3 3v8a3 3 0 0 0 3 3h14a3 3 0 0 0 3-3V8a3 3 0 0 0-3-3zM5 6h14a2 2 0 0 1 2 2H3a2 2 0 0 1 2-2zm14 12H5a2 2 0 0 1-2-2v-5.48h18V16a2 2 0 0 1-2 2z"/><path class="ahcls-1" d="M6.01 12.47h4.01v1H6.01z"/></g></svg><svg id="it-check" viewBox="0 0 24 24" xmlns="http://www.w3.org/2000/svg"><defs><style>.aicls-1{fill:#06c}</style></defs><path class="aicls-1" d="M19.78 7.8a.74.74 0 0 0-1.06 0l-7.6 7.6L7.76 12a.75.75 0 0 0-1.06 1.1l3.36 3.36a1.51 1.51 0 0 0 2.12 0l7.6-7.6a.75.75 0 0 0 0-1.06z"/></svg><svg viewBox="0 0 24 24" id="it-check-circle" xmlns="http://www.w3.org/2000/svg"><defs><style>.ajcls-1{fill:#06c}</style></defs><path class="ajcls-1" d="M20 12.05v-.81a.5.5 0 1 0-1 .1v.71A7 7 0 1 1 15.53 6l.19.12a.5.5 0 1 0 .53-.85l-.2-.12a8 8 0 1 0 3.95 7z" id="ajconstructions"/><path class="ajcls-1" d="M20.69 5.91a.75.75 0 0 0-1.06 0L12 13.51l-2.62-2.65a.75.75 0 0 0-1.06 1.06L11 14.57a1.49 1.49 0 0 0 2.12 0L20.69 7a.74.74 0 0 0 0-1.09z" id="ajLivello_31" data-name="Livello 31"/></svg><svg viewBox="0 0 24 24" id="it-chevron-left" xmlns="http://www.w3.org/2000/svg"><defs><style>.akcls-1{fill:#06c}</style></defs><path class="akcls-1" d="M10.25 12L15 7.23a.75.75 0 0 0 0-1.06.74.74 0 0 0-1.06 0l-4.75 4.77a1.51 1.51 0 0 0 0 2.12L14 17.83a.74.74 0 0 0 1.06 0 .75.75 0 0 0 0-1.06z" id="akLivello_6" data-name="Livello 6"/></svg><svg viewBox="0 0 24 24" id="it-chevron-right" xmlns="http://www.w3.org/2000/svg"><defs><style>.alcls-1{fill:#06c}</style></defs><path class="alcls-1" d="M13.75 12L9 16.77a.75.75 0 0 0 0 1.06.74.74 0 0 0 1.06 0l4.78-4.77a1.51 1.51 0 0 0 0-2.12L10 6.17a.74.74 0 0 0-1 0 .75.75 0 0 0 0 1.06z" id="alLivello_11" data-name="Livello 11"/></svg><svg viewBox="0 0 24 24" id="it-close" xmlns="http://www.w3.org/2000/svg"><defs><style>.amcls-1{fill:#06c}</style></defs><path class="amcls-1" d="M16.24 15.18L13.06 12l3.18-3.18a.75.75 0 1 0-1.06-1.06L12 10.94 8.82 7.76a.75.75 0 1 0-1.06 1.06L10.94 12l-3.18 3.18a.75.75 0 1 0 1.06 1.06L12 13.06l3.18 3.18a.75.75 0 0 0 1.06-1.06z" id="amLivello_18" data-name="Livello 18"/></svg><svg viewBox="0 0 24 24" id="it-close-big" xmlns="http://www.w3.org/2000/svg"><defs><style>.ancls-1{fill:#06c}</style></defs><path class="ancls-1" d="M12.71 12l7.45-7.45a.5.5 0 0 0-.71-.71L12 11.29 4.58 3.87a.5.5 0 1 0-.71.71L11.29 12l-7.45 7.45a.5.5 0 0 0 .71.71L12 12.71l7.42 7.42a.5.5 0 0 0 .71-.71z" id="anLivello_19" data-name="Livello 19"/></svg><svg viewBox="0 0 24 24" id="it-close-circle" xmlns="http://www.w3.org/2000/svg"><defs><style>.aocls-1{fill:#06c}</style></defs><g id="aoLivello_32" data-name="Livello 32"><path class="aocls-1" d="M12 3a9 9 0 1 1-6.34 2.62A8.94 8.94 0 0 1 12 3m0-1a10 10 0 1 0 7.1 2.92A10 10 0 0 0 12 2z"/><path class="aocls-1" d="M15.56 14.47L13.09 12l2.47-2.47a.77.77 0 0 0 0-1.07.75.75 0 0 0-1.06 0L12 10.94 9.55 8.46a.75.75 0 0 0-1.06 0 .77.77 0 0 0 0 1.07L11 12l-2.51 2.47a.77.77 0 0 0 0 1.07.75.75 0 0 0 1.06 0L12 13.06l2.48 2.48a.75.75 0 0 0 1.06 0 .77.77 0 0 0 .02-1.07z"/></g></svg><svg viewBox="0 0 24 24" id="it-code-circle" xmlns="http://www.w3.org/2000/svg"><defs><style>.apcls-1{fill:#06c}</style></defs><g id="apLayer_50" data-name="Layer 50"><path class="apcls-1" d="M12 3a9 9 0 1 1-9 9 9 9 0 0 1 9-9m0-1a10 10 0 1 0 10 10A10 10 0 0 0 12 2z"/><rect class="apcls-1" x="7" y="11.5" width="10" height="1" rx=".5" transform="rotate(-78.28 11.997 12)"/><path class="apcls-1" d="M8 12l1.78-1.78a.5.5 0 0 0 0-.7.5.5 0 0 0-.71 0l-1.78 1.77a1 1 0 0 0 0 1.42l1.78 1.77a.5.5 0 0 0 .71 0 .5.5 0 0 0 0-.7zM16.71 11.29l-1.78-1.77a.5.5 0 0 0-.71 0 .5.5 0 0 0 0 .7L16 12l-1.78 1.78a.5.5 0 0 0 0 .7.5.5 0 0 0 .71 0l1.78-1.77a1 1 0 0 0 0-1.42z"/></g></svg><svg viewBox="0 0 24 24" id="it-collapse" xmlns="http://www.w3.org/2000/svg"><defs><style>.aqcls-1{fill:#06c}</style></defs><path class="aqcls-1" d="M12 10.25L16.77 15a.75.75 0 0 0 1.06 0 .74.74 0 0 0 0-1.06l-4.77-4.75a1.51 1.51 0 0 0-2.12 0L6.17 14a.74.74 0 0 0 0 1.06.75.75 0 0 0 1.06 0z" id="aqLivello_13" data-name="Livello 13"/></svg><svg viewBox="0 0 24 24" id="it-comment" xmlns="http://www.w3.org/2000/svg"><defs><style>.arcls-1{fill:#06c}</style></defs><g id="arLivello_22" data-name="Livello 22"><path class="arcls-1" d="M18 4.23a2 2 0 0 1 2.05 2v8a2 2 0 0 1-2.05 2h-6.87l-.28.23-3.36 2.77v-3H6a2 2 0 0 1-2.05-2v-8a2 2 0 0 1 2.05-2h12m0-1H6a3 3 0 0 0-3 3v8a3 3 0 0 0 3.05 3h.46v3a.51.51 0 0 0 .51.51.54.54 0 0 0 .27-.07l4.21-3.44H18a3 3 0 0 0 3.05-3v-8a3 3 0 0 0-3.05-3z"/><circle class="arcls-1" cx="11.98" cy="10.26" r="1"/><circle class="arcls-1" cx="15.49" cy="10.26" r="1"/><circle class="arcls-1" cx="8.47" cy="10.26" r="1"/></g></svg><svg viewBox="0 0 24 24" id="it-copy" xmlns="http://www.w3.org/2000/svg"><defs><style>.ascls-1{fill:#06c}</style></defs><path class="ascls-1" d="M18.5 5H17V3.49A1.5 1.5 0 0 0 15.5 2h-10A1.5 1.5 0 0 0 4 3.49v14A1.5 1.5 0 0 0 5.5 19H7v1.5A1.5 1.5 0 0 0 8.5 22h10a1.5 1.5 0 0 0 1.5-1.5v-14A1.5 1.5 0 0 0 18.5 5zm-13 13a.51.51 0 0 1-.5-.5v-14a.5.5 0 0 1 .5-.5h10a.5.5 0 0 1 .5.5v14a.51.51 0 0 1-.5.5h-10zM19 20.5a.51.51 0 0 1-.5.5h-10a.51.51 0 0 1-.5-.5V19h7.5a1.5 1.5 0 0 0 1.5-1.5V6h1.5a.51.51 0 0 1 .5.5z" id="asLayer_34" data-name="Layer 34"/></svg><svg viewBox="0 0 24 24" id="it-download" xmlns="http://www.w3.org/2000/svg"><defs><style>.atcls-1{fill:#06c}</style></defs><g id="atLivello_20" data-name="Livello 20"><path class="atcls-1" d="M20.54 15.5h-.13a.5.5 0 0 0-.5.5v3a1.07 1.07 0 0 1-1.13 1H5.27a1.07 1.07 0 0 1-1.13-1v-3a.5.5 0 0 0-.5-.5h-.13A.5.5 0 0 0 3 16v3a2.14 2.14 0 0 0 2.26 2h13.52A2.14 2.14 0 0 0 21 19v-3a.5.5 0 0 0-.46-.5z"/><path class="atcls-1" d="M16.07 12.49a.75.75 0 0 0-1.06 0l-2.26 2.26v-11a.75.75 0 0 0-1.5 0v11L9 12.49a.75.75 0 0 0-1.06 0 .77.77 0 0 0 0 1.07l3 3a1.49 1.49 0 0 0 2.12 0l3-3a.77.77 0 0 0 .01-1.07z"/></g></svg><svg viewBox="0 0 24 24" id="it-error" xmlns="http://www.w3.org/2000/svg"><defs><style>.aucls-1{fill:#d1344c}</style></defs><g id="auLayer_48" data-name="Layer 48"><path class="aucls-1" d="M11.25 6.98h1.5v7h-1.5z"/><circle class="aucls-1" cx="12" cy="16.01" r="1.01"/><path class="aucls-1" d="M15.31 4L20 8.69v6.62L15.31 20H8.69L4 15.31V8.69L8.69 4h6.62m.42-1H8.27L3 8.27v7.46L8.27 21h7.46L21 15.73V8.27L15.73 3z"/></g></svg><svg viewBox="0 0 24 24" id="it-expand" xmlns="http://www.w3.org/2000/svg"><defs><style>.avcls-1{fill:#06c}</style></defs><path class="avcls-1" d="M12 13.75L7.23 9a.75.75 0 0 0-1.06 0 .74.74 0 0 0 0 1.06l4.77 4.78a1.51 1.51 0 0 0 2.12 0L17.83 10a.74.74 0 0 0 0-1.06.75.75 0 0 0-1.06 0z" id="avLivello_12" data-name="Livello 12"/></svg><svg viewBox="0 0 24 24" id="it-external-link" xmlns="http://www.w3.org/2000/svg"><defs><style>.awcls-1{fill:#06c}</style></defs><g id="awmateriale"><path class="awcls-1" d="M16.5 7H23a1 1 0 0 1-1 1h-5.5a.5.5 0 0 1-.5-.5.5.5 0 0 1 .5-.5z" transform="rotate(-90 19.5 7.5)"/><path class="awcls-1" d="M13.5 4H19a1 1 0 0 1 1 1h-6.5a.5.5 0 0 1-.5-.5.5.5 0 0 1 .5-.5z"/><rect class="awcls-1" x="7.93" y="8.98" width="13" height="1" rx=".5" transform="rotate(-45 14.428 9.484)"/><path class="awcls-1" d="M17.51 12a.5.5 0 0 0-.5.5V18a2 2 0 0 1-2 2H6a2 2 0 0 1-2-2V9a2 2 0 0 1 2-2h5a.5.5 0 0 0 .5-.5.51.51 0 0 0-.5-.5H6a3 3 0 0 0-3 3v9a3 3 0 0 0 3 3h9a3 3 0 0 0 3-3v-5.51a.5.5 0 0 0-.49-.49z"/></g></svg><svg viewBox="0 0 24 24" id="it-file" xmlns="http://www.w3.org/2000/svg"><defs><style>.axcls-1{fill:#06c}</style></defs><g id="axLivello_14" data-name="Livello 14"><path class="axcls-1" d="M19 5.41L16.59 3l-.92-.92-.08-.08H5.5A1.5 1.5 0 0 0 4 3.5v17A1.5 1.5 0 0 0 5.5 22h13a1.5 1.5 0 0 0 1.5-1.5V6.41zm-.37 1H16.1a.5.5 0 0 1-.5-.5V3.42zM18.5 21h-13a.5.5 0 0 1-.5-.5v-17a.5.5 0 0 1 .5-.5h9.1v3a1.5 1.5 0 0 0 1.5 1.5H19v13a.5.5 0 0 1-.5.5z"/><rect class="axcls-1" x="6.98" y="13.01" width="10.02" height="1.01" rx=".5"/><rect class="axcls-1" x="6.98" y="15.99" width="10.02" height="1.01" rx=".5"/></g></svg><svg viewBox="0 0 24 24" id="it-help" xmlns="http://www.w3.org/2000/svg"><defs><style>.aycls-1{fill:#06c}</style></defs><g id="ayLayer_37" data-name="Layer 37"><path class="aycls-1" d="M11.76 19a1 1 0 0 0-.76.3 1 1 0 0 0-.28.72.94.94 0 0 0 .28.69 1 1 0 0 0 .76.28 1 1 0 0 0 .76-.28.88.88 0 0 0 .29-.69 1 1 0 0 0-.29-.72 1 1 0 0 0-.76-.3zM16.54 5.64a3.92 3.92 0 0 0-1-1.43 4.21 4.21 0 0 0-1.5-.92 6 6 0 0 0-2-.32 5.74 5.74 0 0 0-1.93.31 4.76 4.76 0 0 0-1.56.88 4.22 4.22 0 0 0-1 1.38 4.41 4.41 0 0 0-.42 1.8.73.73 0 1 0 1.45 0A3.2 3.2 0 0 1 8.88 6a2.93 2.93 0 0 1 .76-1 3.44 3.44 0 0 1 1.1-.6 4.52 4.52 0 0 1 1.34-.2 3.84 3.84 0 0 1 1.4.23 2.79 2.79 0 0 1 1 .65 2.83 2.83 0 0 1 .67 1 3.8 3.8 0 0 1 .23 1.34 3.74 3.74 0 0 1-.21 1.28 4.56 4.56 0 0 1-.56 1.1 8.07 8.07 0 0 1-.79 1c-.3.32-.61.62-.92.92a10 10 0 0 0-.92.93 3.93 3.93 0 0 0-.59.91 4.08 4.08 0 0 0-.32 1A8.18 8.18 0 0 0 11 16h1.46a7.06 7.06 0 0 1 .06-1 3.84 3.84 0 0 1 .22-.84 3.57 3.57 0 0 1 .41-.74 4.32 4.32 0 0 1 .66-.72c.39-.33.77-.69 1.14-1.06a8.13 8.13 0 0 0 1-1.22 6.33 6.33 0 0 0 .68-1.38 4.56 4.56 0 0 0 .26-1.58 4.78 4.78 0 0 0-.35-1.82z"/></g></svg><svg viewBox="0 0 24 24" id="it-help-circle" xmlns="http://www.w3.org/2000/svg"><defs><style>.azcls-1{fill:#06c}</style></defs><g id="azLayer_35" data-name="Layer 35"><path class="azcls-1" d="M12 3a9 9 0 1 1-9 9 9 9 0 0 1 9-9m0-1a10 10 0 1 0 10 10A10 10 0 0 0 12 2z"/><path class="azcls-1" d="M11.89 15.2a.88.88 0 0 0-1 .91.9.9 0 0 0 .25.64.92.92 0 0 0 .7.25 1 1 0 0 0 .71-.25.86.86 0 0 0 .25-.64.88.88 0 0 0-.25-.65 1 1 0 0 0-.66-.26zM14.83 8.48a2.2 2.2 0 0 0-.6-.81 2.73 2.73 0 0 0-1-.5A4.51 4.51 0 0 0 12 7a4.2 4.2 0 0 0-1.2.16 2.9 2.9 0 0 0-1 .49 2.45 2.45 0 0 0-.65.81 2.52 2.52 0 0 0-.24 1.08.78.78 0 0 0 .78.76.79.79 0 0 0 .79-.76 1.22 1.22 0 0 1 .19-.54 1.1 1.1 0 0 1 .33-.37 1.4 1.4 0 0 1 .46-.22 2.33 2.33 0 0 1 .54-.07 1.53 1.53 0 0 1 1.06.33 1.25 1.25 0 0 1 .37 1 1.39 1.39 0 0 1-.12.57 2.67 2.67 0 0 1-.32.53 4 4 0 0 1-.42.5l-.46.46a6.52 6.52 0 0 0-.52.5 1.63 1.63 0 0 0-.28.47 2.2 2.2 0 0 0-.12.57v.8h1.51v-.46a1.1 1.1 0 0 1 .06-.37 1 1 0 0 1 .16-.33 2.7 2.7 0 0 1 .3-.36q.33-.29.66-.6a5.43 5.43 0 0 0 .59-.68 3.3 3.3 0 0 0 .43-.78 2.35 2.35 0 0 0 .1-.9 2.82 2.82 0 0 0-.17-1.11z"/></g></svg><svg viewBox="0 0 24 24" id="it-horn" xmlns="http://www.w3.org/2000/svg"><defs><style>.bacls-1{fill:#06c}</style></defs><path class="bacls-1" d="M19.68 4a1.14 1.14 0 0 0-.68.23l-3.64 2.62-.18.15H7a4 4 0 0 0-.39 8v4.5A1.5 1.5 0 0 0 8.12 21h1a1.5 1.5 0 0 0 1.5-1.5V15h4.58l.14.1L19 17.72a1.14 1.14 0 0 0 .68.23A1.57 1.57 0 0 0 21 16.23V5.73A1.57 1.57 0 0 0 19.68 4zM9.62 19.5a.5.5 0 0 1-.5.5h-1a.5.5 0 0 1-.5-.5V15h2zM15 8.34V14H6.93A3 3 0 0 1 7 8h5.87v6h1V8H15zM20 11v5.25c0 .48-.27.72-.38.72a.21.21 0 0 1-.1 0L16 14.33V7.62L19.58 5h.1a.22.22 0 0 1 .15.09.85.85 0 0 1 .22.63z" id="baLayer_34" data-name="Layer 34"/></svg><svg viewBox="0 0 24 24" id="it-info-circle" xmlns="http://www.w3.org/2000/svg"><defs><style>.bbcls-1{fill:#06c}</style></defs><g id="bbLivello_33" data-name="Livello 33"><path class="bbcls-1" d="M12 3a9 9 0 1 1-9 9 9 9 0 0 1 9-9m0-1a10 10 0 1 0 10 10A10 10 0 0 0 12 2z"/><path class="bbcls-1" d="M9.12 9.84h3.7v5.67h2.06v1.27H9.12v-1.27h2.15v-4.39H9.12zm2-1.8a.8.8 0 0 1 .23-.59 1 1 0 0 1 1.3 0 .86.86 0 0 1 0 1.19 1 1 0 0 1-1.3 0 .81.81 0 0 1-.2-.64z"/></g></svg><svg viewBox="0 0 24 24" id="it-key" xmlns="http://www.w3.org/2000/svg"><defs><style>.bccls-1{fill:#06c}</style></defs><g id="bcLayer_51" data-name="Layer 51"><path class="bccls-1" d="M12 5.75a1.75 1.75 0 1 1-1.75 1.75A1.75 1.75 0 0 1 12 5.75m0-1a2.75 2.75 0 1 0 2.75 2.75A2.75 2.75 0 0 0 12 4.75z"/><path class="bccls-1" d="M12 3a4.51 4.51 0 0 1 4.5 4.5 4.46 4.46 0 0 1-2.46 4l-.54.28v8.68l-1 .49-1.68-1.48.44-.69.35-.54-.34-.54-.56-.88.56-.85.37-.56-.37-.55-.57-.86.47-.75.69-1.09-1.23-.39a4.54 4.54 0 0 1-3-5.2A4.46 4.46 0 0 1 11 3.1a4.73 4.73 0 0 1 1-.1m0-1a6 6 0 0 0-1.18.12 5.5 5.5 0 0 0-.49 10.62l-.72 1.14a.29.29 0 0 0 0 .32l.81 1.21-.82 1.24a.27.27 0 0 0 0 .32l.8 1.27-.77 1.19a.3.3 0 0 0 0 .39l2.38 2.1a.85.85 0 0 0 .72 0l1.71-.84V12.4A5.5 5.5 0 0 0 12 2z"/></g></svg><svg viewBox="0 0 24 24" id="it-less-circle" xmlns="http://www.w3.org/2000/svg"><defs><style>.bdcls-1{fill:#06c}</style></defs><g id="bdLivello_30" data-name="Livello 30"><path class="bdcls-1" d="M12 3a9 9 0 0 1 6.36 15.36A9 9 0 0 1 5.64 5.62 8.93 8.93 0 0 1 12 3m0-1a10 10 0 1 0 7.07 2.93A9.93 9.93 0 0 0 12 2z"/><rect class="bdcls-1" x="7" y="11.25" width="10" height="1.5" rx=".75"/></g></svg><svg viewBox="0 0 24 24" id="it-link" xmlns="http://www.w3.org/2000/svg"><defs><style>.becls-1{fill:#06c}</style></defs><g id="beLayer_44" data-name="Layer 44"><path class="becls-1" d="M8.12 20a4.12 4.12 0 0 1-2.91-7l2.55-2.55a4.14 4.14 0 0 1 5.83 0 4.25 4.25 0 0 1 .63.82.51.51 0 0 1-.88.52 3.12 3.12 0 0 0-4.86-.61l-2.55 2.51a3.1 3.1 0 0 0 4.38 4.38l1.94-1.94a.5.5 0 0 1 .73 0 .51.51 0 0 1 0 .72L11 18.79A4.11 4.11 0 0 1 8.12 20z"/><path class="becls-1" d="M13.33 14.79a4.1 4.1 0 0 1-2.92-1.2 4.71 4.71 0 0 1-.64-.83.52.52 0 0 1 .18-.7.51.51 0 0 1 .71.18 2.64 2.64 0 0 0 .48.62 3.17 3.17 0 0 0 4.38 0l2.55-2.55a3.1 3.1 0 0 0-4.38-4.38l-1.94 1.94a.5.5 0 0 1-.73 0 .51.51 0 0 1 0-.72L13 5.21A4.12 4.12 0 0 1 18.79 11l-2.55 2.55a4.08 4.08 0 0 1-2.91 1.24z"/></g></svg><svg viewBox="0 0 24 24" id="it-list" xmlns="http://www.w3.org/2000/svg"><defs><style>.bfcls-1{fill:#06c}</style></defs><g id="bfLivello_16" data-name="Livello 16"><rect class="bfcls-1" x="7" y="17.99" width="15.01" height="1.5" rx=".75"/><circle class="bfcls-1" cx="3" cy="18.74" r="1"/><rect class="bfcls-1" x="7.02" y="4.48" width="15.01" height="1.5" rx=".75"/><circle class="bfcls-1" cx="3.02" cy="5.23" r="1"/><rect class="bfcls-1" x="7.02" y="11.24" width="15.01" height="1.5" rx=".75"/><circle class="bfcls-1" cx="3.02" cy="11.99" r="1"/></g></svg><svg viewBox="0 0 24 24" id="it-lock" xmlns="http://www.w3.org/2000/svg"><defs><style>.bgcls-1{fill:#06c}</style></defs><g id="bgLivello_21" data-name="Livello 21"><path class="bgcls-1" d="M18.5 8.5H17V8A5 5 0 0 0 7 8v.5H5.5A1.5 1.5 0 0 0 4 10v8.5A1.5 1.5 0 0 0 5.5 20h13a1.5 1.5 0 0 0 1.5-1.5V10a1.5 1.5 0 0 0-1.5-1.5zM8 8a4 4 0 0 1 8 0v.5H8zm11 10.5a.5.5 0 0 1-.5.5h-13a.5.5 0 0 1-.5-.5V10a.5.5 0 0 1 .5-.5h13a.5.5 0 0 1 .5.5z"/><path class="bgcls-1" d="M12 13.25a1 1 0 1 1-1 1 1 1 0 0 1 1-1m0-1a2 2 0 1 0 2 2 2 2 0 0 0-2-2z"/></g></svg><svg viewBox="0 0 24 24" id="it-locked" xmlns="http://www.w3.org/2000/svg"><defs><style>.bhcls-1{fill:#06c}</style></defs><g id="bhLivello_21" data-name="Livello 21"><path class="bhcls-1" d="M18.5 9H17v-.5a5 5 0 0 0-10 0V9H5.5A1.5 1.5 0 0 0 4 10.49V19a1.5 1.5 0 0 0 1.5 1.5h13A1.5 1.5 0 0 0 20 19v-8.5A1.5 1.5 0 0 0 18.5 9zM8 8.51a4 4 0 1 1 8 0V9H8zM19 19a.5.5 0 0 1-.5.5h-13A.5.5 0 0 1 5 19v-8.5a.5.5 0 0 1 .5-.5h13a.5.5 0 0 1 .5.5z"/><path class="bhcls-1" d="M12 13.74a1 1 0 1 1-1 1 1 1 0 0 1 1-1m0-1a2 2 0 1 0 2 2 2 2 0 0 0-2-2z"/></g></svg><svg viewBox="0 0 24 24" id="it-mail" xmlns="http://www.w3.org/2000/svg"><defs><style>.bicls-1{fill:#06c}</style></defs><g id="biLayer_43" data-name="Layer 43"><path class="bicls-1" d="M19 6a2 2 0 0 1 1.84 1 1.3 1.3 0 0 1 .16.62v8.76A1.85 1.85 0 0 1 19 18H5a1.85 1.85 0 0 1-2-1.62V7.62A1.25 1.25 0 0 1 3.17 7 2 2 0 0 1 5 6h14m0-1H5a3 3 0 0 0-2.71 1.51A2.27 2.27 0 0 0 2 7.62v8.76A2.83 2.83 0 0 0 5 19h14a2.83 2.83 0 0 0 3-2.62V7.62a2.37 2.37 0 0 0-.27-1.08A3 3 0 0 0 19 5z"/><path class="bicls-1" d="M19 6a2 2 0 0 1 1.45.62l-7 7a2 2 0 0 1-1.42.59 1.94 1.94 0 0 1-1.41-.59l-7-7A2 2 0 0 1 5 6h14m0-1H5a3 3 0 0 0-2.71 1.73l7.61 7.61a3 3 0 0 0 4.25 0l7.58-7.58A3 3 0 0 0 19 5z"/><path class="bicls-1" d="M15.32 12.37l-.71.71 5.62 5.63.71-.71-5.62-5.63zM8.79 12.27L3.06 18l.71.71 5.73-5.73-.71-.71z"/></g></svg><svg viewBox="0 0 24 24" id="it-minus" xmlns="http://www.w3.org/2000/svg"><defs><style>.bjcls-1{fill:#06c}</style></defs><rect class="bjcls-1" x="6" y="11.25" width="12" height="1.5" rx=".75" id="bjLivello_17" data-name="Livello 17"/></svg><svg viewBox="0 0 24 24" id="it-more-actions" xmlns="http://www.w3.org/2000/svg"><defs><style>.bkcls-1{fill:#06c}</style></defs><g id="bkLivello_17" data-name="Livello 17"><circle class="bkcls-1" cx="4.5" cy="11.99" r="1.5"/><circle class="bkcls-1" cx="12.02" cy="11.99" r="1.5"/><circle class="bkcls-1" cx="19.53" cy="11.99" r="1.5"/></g></svg><svg viewBox="0 0 24 24" id="it-more-items" xmlns="http://www.w3.org/2000/svg"><defs><style>.blcls-1{fill:#06c}</style></defs><g id="blLivello_17" data-name="Livello 17"><circle class="blcls-1" cx="12.02" cy="4.47" r="1.5"/><circle class="blcls-1" cx="12.02" cy="11.99" r="1.5"/><circle class="blcls-1" cx="12.02" cy="19.5" r="1.5"/></g></svg><svg viewBox="0 0 24 24" id="it-pa" xmlns="http://www.w3.org/2000/svg"><defs><style>.bmcls-1{fill:#06c}</style></defs><g id="bmLayer_49" data-name="Layer 49"><path class="bmcls-1" d="M12 4.17l4.88 3.11 2.31 1.47H4.81l2.31-1.47L12 4.17M12 3a.53.53 0 0 0-.27.08L6.54 6.36 3.33 8.41c-.56.36-.36 1.43.27 1.43h16.8c.63 0 .83-1.07.27-1.43l-3.21-2-5.19-3.36A.53.53 0 0 0 12 3zM19.51 18h-1.05v-7a.48.48 0 0 0-.48-.47h-.05a.47.47 0 0 0-.47.47v7h-2v-7a.47.47 0 0 0-.47-.47h-.05a.47.47 0 0 0-.48.47v7h-2v-7a.48.48 0 0 0-.48-.47h-.05a.47.47 0 0 0-.47.47v7h-2v-7a.47.47 0 0 0-.46-.53h-.09a.47.47 0 0 0-.47.47v7h-2v-7.01a.45.45 0 0 0-.44-.46.49.49 0 0 0-.49.49v7H4.49a1.51 1.51 0 1 0 0 3h15a1.51 1.51 0 1 0 0-3zm0 2h-15a.5.5 0 0 1-.51-.5.51.51 0 0 1 .49-.5h15a.51.51 0 0 1 .51.51.5.5 0 0 1-.49.49z"/></g></svg><svg viewBox="0 0 24 24" id="it-password-invisible" xmlns="http://www.w3.org/2000/svg"><defs><style>.bncls-1{fill:#06c}</style></defs><g id="bnLayer_46" data-name="Layer 46"><path class="bncls-1" d="M12 8.5A3.5 3.5 0 0 0 8.5 12a3.41 3.41 0 0 0 .21 1.16l4.45-4.45A3.41 3.41 0 0 0 12 8.5zM15.29 10.84l-4.45 4.45a3.41 3.41 0 0 0 1.16.21 3.5 3.5 0 0 0 3.5-3.5 3.41 3.41 0 0 0-.21-1.16z"/><path class="bncls-1" d="M5.24 16.64l.76-.72A10.91 10.91 0 0 1 3.09 12 9.37 9.37 0 0 1 12 6a10 10 0 0 1 3.34.54l.78-.78A10.89 10.89 0 0 0 12 5c-5.42 0-8.39 3.27-9.91 6.8a.47.47 0 0 0 0 .4 12 12 0 0 0 3.15 4.44zM21.91 11.8a12 12 0 0 0-3.15-4.44l-.76.72A10.91 10.91 0 0 1 20.91 12c-1.25 2.78-3.8 6-8.91 6a10 10 0 0 1-3.34-.54l-.78.78A10.89 10.89 0 0 0 12 19c5.42 0 8.39-3.27 9.91-6.8a.47.47 0 0 0 0-.4z"/><rect class="bncls-1" x="2" y="11.5" width="20" height="1" rx=".5" transform="rotate(-45 12 12)"/></g></svg><svg viewBox="0 0 24 24" id="it-password-visible" xmlns="http://www.w3.org/2000/svg"><defs><style>.bocls-1{fill:#06c}</style></defs><g id="boLayer_45" data-name="Layer 45"><path class="bocls-1" d="M12 6c5.11 0 7.66 3.22 8.91 6-1.25 2.78-3.8 6-8.91 6a9.35 9.35 0 0 1-8.91-6C4.34 9.21 6.89 6 12 6m0-1c-5.42 0-8.39 3.28-9.91 6.8a.49.49 0 0 0 0 .41C3.61 15.72 6.58 19 12 19s8.39-3.27 9.91-6.79a.49.49 0 0 0 0-.41C20.39 8.27 17.42 5 12 5z"/><path class="bocls-1" d="M12 10a2 2 0 1 1-2 2 2 2 0 0 1 2-2m0-1.5a3.5 3.5 0 1 0 3.5 3.5A3.5 3.5 0 0 0 12 8.5z"/></g></svg><svg viewBox="0 0 24 24" id="it-pin" xmlns="http://www.w3.org/2000/svg"><defs><style>.bpcls-1{fill:#06c}</style></defs><path class="bpcls-1" d="M18.17 5.74c-1.65-1.65-3.44-2.67-4.53-2.67a1 1 0 0 0-.73.26c-.49.49-.26 1.57.48 2.83L8.59 11a4.47 4.47 0 0 0-2.09-.74 1 1 0 0 0-.74.26c-.75.75.21 2.93 2.14 5l-3.63 3.55s-.58.89-.38 1.09S5 19.8 5 19.77l3.6-3.62c1.52 1.4 3.1 2.25 4.09 2.25a1 1 0 0 0 .74-.25c.46-.47.27-1.47-.39-2.65l4.89-4.89a4.22 4.22 0 0 0 1.92.65 1 1 0 0 0 .73-.26c.78-.79-.29-3.14-2.41-5.26zm.24 4l-.66-.37-.53.54-4.88 4.88-.54.53.37.66a3.7 3.7 0 0 1 .52 1.42c-.71 0-2.28-.83-3.81-2.37-1.81-1.81-2.39-3.32-2.38-3.81a3.51 3.51 0 0 1 1.58.6l.67.4.55-.55 4.8-4.8.55-.55-.4-.67a3.57 3.57 0 0 1-.6-1.58 7.56 7.56 0 0 1 3.81 2.38c1.8 1.8 2.39 3.31 2.38 3.81a3.58 3.58 0 0 1-1.43-.52z" id="bpLayer_47" data-name="Layer 47"/></svg><svg viewBox="0 0 24 24" id="it-plus" xmlns="http://www.w3.org/2000/svg"><defs><style>.bqcls-1{fill:#06c}</style></defs><path class="bqcls-1" d="M17.25 11.25h-4.5v-4.5a.75.75 0 0 0-1.5 0v4.5h-4.5a.75.75 0 0 0 0 1.5h4.5v4.5a.75.75 0 0 0 1.5 0v-4.5h4.5a.75.75 0 0 0 0-1.5z" id="bqLivello_17" data-name="Livello 17"/></svg><svg viewBox="0 0 24 24" id="it-plus-circle" xmlns="http://www.w3.org/2000/svg"><defs><style>.brcls-1{fill:#06c}</style></defs><g id="brLivello_29" data-name="Livello 29"><path class="brcls-1" d="M19.07 4.92a10 10 0 1 0 0 14.14 9.93 9.93 0 0 0 0-14.14zm-.71 13.43A9 9 0 0 1 5.64 5.62a9 9 0 0 1 12.72 12.73z"/><path class="brcls-1" d="M16.25 11.25h-3.5v-3.5a.75.75 0 0 0-1.5 0v3.5h-3.5a.75.75 0 0 0 0 1.5h3.5v3.5a.75.75 0 0 0 1.5 0v-3.5h3.5a.75.75 0 0 0 0-1.5z"/></g></svg><svg viewBox="0 0 24 24" id="it-presentation" xmlns="http://www.w3.org/2000/svg"><defs><style>.bscls-1{fill:#06c}</style></defs><g id="bsLayer_41" data-name="Layer 41"><rect class="bscls-1" x="7.74" y="11.83" width="1.5" height="3.65" rx=".75"/><rect class="bscls-1" x="11.25" y="7.02" width="1.5" height="8.46" rx=".75"/><rect class="bscls-1" x="14.76" y="9.4" width="1.5" height="6.08" rx=".75"/><path class="bscls-1" d="M20 3H3v1h1v12.49A1.5 1.5 0 0 0 5.5 18h4.86L9 22h1l1.41-4h1.2L14 22h1.06l-1.36-4h4.8a1.5 1.5 0 0 0 1.5-1.51V4h1V3zm-1 13.49a.49.49 0 0 1-.5.49h-13a.49.49 0 0 1-.5-.49V4h14z"/></g></svg><svg viewBox="0 0 24 24" id="it-print" xmlns="http://www.w3.org/2000/svg"><defs><style>.btcls-1{fill:#06c}</style></defs><g id="btLayer_5" data-name="Layer 5"><path class="btcls-1" d="M19.5 8.5H19V4.55a1.5 1.5 0 0 0-1.5-1.5h-11A1.5 1.5 0 0 0 5 4.55v4h-.5A1.5 1.5 0 0 0 3 10v5a1.5 1.5 0 0 0 1.5 1.5H5v3A1.5 1.5 0 0 0 6.5 21h11a1.5 1.5 0 0 0 1.5-1.5v-3h.5A1.5 1.5 0 0 0 21 15v-5a1.5 1.5 0 0 0-1.5-1.5zM6 4.55a.5.5 0 0 1 .5-.5h11a.5.5 0 0 1 .5.5v3.94H6zm12 15a.5.5 0 0 1-.5.5h-11a.5.5 0 0 1-.5-.5v-5a.5.5 0 0 1 .5-.5h11a.5.5 0 0 1 .5.5v5zM20 15a.5.5 0 0 1-.5.5H19v-1a1.5 1.5 0 0 0-1.5-1.5h-11A1.5 1.5 0 0 0 5 14.5v1h-.5A.5.5 0 0 1 4 15v-5a.5.5 0 0 1 .5-.5h15a.5.5 0 0 1 .5.5z"/><rect class="btcls-1" x="7.99" y="16.42" width="8" height="1" rx=".5"/></g></svg><svg id="it-search" viewBox="0 0 24 24" xmlns="http://www.w3.org/2000/svg"><defs><style>.bucls-1{fill:#06c}</style></defs><path class="bucls-1" d="M10.48 2.54A7.5 7.5 0 1 0 15 16l4.76 4.75a.75.75 0 0 0 1.06 0 .75.75 0 0 0 0-1.06L16.09 15a7.49 7.49 0 0 0-5.61-12.46zm0 13.5a6 6 0 1 1 6-6 6 6 0 0 1-6 6z"/></svg><svg viewBox="0 0 24 24" id="it-settings" xmlns="http://www.w3.org/2000/svg"><defs><style>.bvcls-1{fill:#06c}</style></defs><g id="bvLayer_46" data-name="Layer 46"><path class="bvcls-1" d="M13 3v2l.75.2a6.9 6.9 0 0 1 1.8.74l.67.39.54-.54.89-.89 1.42 1.41-.89.89-.55.55.39.67a6.54 6.54 0 0 1 .75 1.79L19 11h2v2h-2l-.19.75a6.54 6.54 0 0 1-.81 1.8l-.39.67.55.55.89.89-1.42 1.41-.89-.89-.54-.54-.67.39a6.9 6.9 0 0 1-1.8.74L13 19v2h-2v-2l-.75-.2a6.9 6.9 0 0 1-1.8-.8l-.67-.39-.54.54-.89.89-1.42-1.38.89-.89.55-.55-.37-.67a6.54 6.54 0 0 1-.75-1.79L5 13H3v-2h2l.19-.76A6.54 6.54 0 0 1 6 8.46l.39-.67-.55-.55-.89-.89 1.4-1.41.89.89.54.54.67-.37a6.9 6.9 0 0 1 1.8-.74L11 5V3h2m.5-1h-3a.5.5 0 0 0-.5.5v1.77a7.92 7.92 0 0 0-2.06.85L6.7 3.88a.5.5 0 0 0-.35-.15.51.51 0 0 0-.35.15L3.87 6a.51.51 0 0 0 0 .71L5.11 8a8 8 0 0 0-.85 2H2.51a.5.5 0 0 0-.5.5v3a.5.5 0 0 0 .5.5h1.75a8.06 8.06 0 0 0 .85 2l-1.24 1.3a.51.51 0 0 0 0 .71L6 20.13a.51.51 0 0 0 .36.15.5.5 0 0 0 .35-.15l1.24-1.24a7.92 7.92 0 0 0 2.06.85v1.76a.5.5 0 0 0 .5.5h3a.5.5 0 0 0 .5-.5v-1.76a7.92 7.92 0 0 0 2.06-.85l1.24 1.24a.5.5 0 0 0 .35.15.51.51 0 0 0 .36-.15L20.13 18a.51.51 0 0 0 0-.71l-1.24-1.24a8.06 8.06 0 0 0 .85-2h1.75a.5.5 0 0 0 .5-.5v-3a.5.5 0 0 0-.5-.5h-1.75A8 8 0 0 0 18.89 8l1.24-1.24a.51.51 0 0 0 0-.71L18 3.88a.51.51 0 0 0-.36-.15.5.5 0 0 0-.35.15l-1.23 1.24A7.92 7.92 0 0 0 14 4.27V2.51a.5.5 0 0 0-.5-.5z"/><path class="bvcls-1" d="M12 9.25A2.75 2.75 0 1 1 9.25 12 2.75 2.75 0 0 1 12 9.25m0-1A3.75 3.75 0 1 0 15.75 12 3.75 3.75 0 0 0 12 8.25z"/></g></svg><svg viewBox="0 0 24 24" id="it-share" xmlns="http://www.w3.org/2000/svg"><defs><style>.bwcls-1{fill:#06c}</style></defs><path class="bwcls-1" d="M17.54 3a3.48 3.48 0 0 0-3.26 4.75L9.38 10a3.5 3.5 0 1 0 0 4l4.89 2.28A3.46 3.46 0 0 0 14 17.5a3.55 3.55 0 1 0 .73-2.11l-4.91-2.31A3.5 3.5 0 0 0 10 12a3.63 3.63 0 0 0-.19-1.1l4.95-2.31A3.5 3.5 0 1 0 17.54 3zm0 6A2.5 2.5 0 1 1 20 6.47 2.5 2.5 0 0 1 17.54 9zm-11 5.53A2.5 2.5 0 1 1 9 12a2.5 2.5 0 0 1-2.5 2.5zm11 5.5A2.5 2.5 0 1 1 20 17.5a2.5 2.5 0 0 1-2.5 2.5z" id="bwLayer_39" data-name="Layer 39"/></svg><svg viewBox="0 0 24 24" id="it-star-full" xmlns="http://www.w3.org/2000/svg"><defs><style>.bxcls-1{fill:#06c}</style></defs><path class="bxcls-1" d="M12 3.07l2.9 5.88 6.49.94-4.7 4.58 1.11 6.46-5.8-3.05-5.8 3.05 1.11-6.46-4.69-4.58 6.48-.94L12 3.07z" id="bxLayer_40" data-name="Layer 40"/></svg><svg viewBox="0 0 24 24" id="it-star-outline" xmlns="http://www.w3.org/2000/svg"><defs><style>.bycls-1{fill:#06c}</style></defs><path class="bycls-1" d="M12 5.33l2 4.06.24.47.52.08 4.48.65L16 13.75l-.37.37.09.52.76 4.46-4-2.11-.48-.24-.47.24-4 2.11.76-4.46.09-.52-.38-.37-3.24-3.16 4.48-.65.52-.08.24-.47 2-4.06m0-2.26L9.1 9l-6.49.94 4.7 4.58-1.11 6.41 5.8-3.05 5.8 3.05-1.11-6.46 4.7-4.58L14.9 9 12 3.07z" id="byLayer_39" data-name="Layer 39"/></svg><svg viewBox="0 0 24 24" id="it-tool" xmlns="http://www.w3.org/2000/svg"><defs><style>.bzcls-1{fill:#06c}</style></defs><path class="bzcls-1" d="M20.42 7.19a5.09 5.09 0 0 0-.39-1l-.76.76-.85.85a1.5 1.5 0 1 1-2.12-2.14l.85-.85.76-.76a5.09 5.09 0 0 0-1-.39 5 5 0 0 0-6 6.65L5 16.22a2 2 0 0 0 2.83 2.83l5.91-5.91a5 5 0 0 0 6.65-5.95zm-6.28 5a1 1 0 0 0-1.08.22l-5.91 5.93a1 1 0 0 1-1.41-1.41L11.65 11a1 1 0 0 0 .22-1.08A4 4 0 0 1 16 4.51l-.41.49a2.52 2.52 0 0 0 0 3.54 2.51 2.51 0 0 0 3.54 0l.44-.44a4 4 0 0 1-5.43 4.16z" id="bzLayer_46" data-name="Layer 46"/></svg><svg viewBox="0 0 24 24" id="it-unlocked" xmlns="http://www.w3.org/2000/svg"><defs><style>.cacls-1{fill:#06c}</style></defs><g id="caLivello_24" data-name="Livello 24"><path class="cacls-1" d="M12 12.77a2 2 0 1 0 2 2 2 2 0 0 0-2-2zm0 3a1 1 0 1 1 1-1 1 1 0 0 1-1 1z"/><path class="cacls-1" d="M18.5 9h-1.9v-.2a5 5 0 0 0-8.09-4.66.51.51 0 0 0-.06.71.49.49 0 0 0 .7.06 4 4 0 0 1 6.51 3.74c0 .13-.06.25-.09.37H5.5a1.5 1.5 0 0 0-1.5 1.5V19a1.51 1.51 0 0 0 1.5 1.51h13A1.51 1.51 0 0 0 20 19v-8.48A1.5 1.5 0 0 0 18.5 9zm.5 10a.51.51 0 0 1-.5.51h-13A.51.51 0 0 1 5 19v-8.48a.5.5 0 0 1 .5-.5h13a.5.5 0 0 1 .5.5z"/></g></svg><svg viewBox="0 0 24 24" id="it-upload" xmlns="http://www.w3.org/2000/svg"><defs><style>.cbcls-1{fill:#06c}</style></defs><g id="cbLayer_36" data-name="Layer 36"><path class="cbcls-1" d="M3.51 8.48h.13a.5.5 0 0 0 .5-.5V5a1.08 1.08 0 0 1 1.13-1h13.51a1.08 1.08 0 0 1 1.13 1v3a.5.5 0 0 0 .5.5h.13A.5.5 0 0 0 21 8V5a2.14 2.14 0 0 0-2.26-2H5.27A2.14 2.14 0 0 0 3 5v3a.5.5 0 0 0 .51.48z"/><path class="cbcls-1" d="M8 11.49a.75.75 0 0 0 1.06 0l2.24-2.26v11a.75.75 0 0 0 1.5 0v-11l2.25 2.26a.77.77 0 0 0 1.07 0 .75.75 0 0 0 0-1.06l-3-3a1.51 1.51 0 0 0-2.12 0l-3 3a.75.75 0 0 0 0 1.06z"/></g></svg><svg viewBox="0 0 24 24" id="it-user" xmlns="http://www.w3.org/2000/svg"><defs><style>.cccls-1{fill:#06c}</style></defs><g id="ccLivello_27" data-name="Livello 27"><path class="cccls-1" d="M19 21a.5.5 0 0 1-.5-.46 6.51 6.51 0 0 0-13 0 .5.5 0 0 1-1-.07 7.52 7.52 0 0 1 15 0 .5.5 0 0 1-.5.53z"/><path class="cccls-1" d="M12 4a3.75 3.75 0 1 1-3.75 3.72A3.75 3.75 0 0 1 12 4m0-1a4.75 4.75 0 1 0 4.75 4.75A4.75 4.75 0 0 0 12 3z"/></g></svg><svg viewBox="0 0 24 24" id="it-video" xmlns="http://www.w3.org/2000/svg"><defs><style>.cdcls-1{fill:#06c}</style></defs><g id="cdLayer_47" data-name="Layer 47"><path class="cdcls-1" d="M13.08 5h-8a3 3 0 0 0-3 3v8a3 3 0 0 0 3 3h8a3 3 0 0 0 3-3V8a3 3 0 0 0-3-3zm2 11a2 2 0 0 1-2 2h-8a2 2 0 0 1-2-2V8a2 2 0 0 1 2-2h8a2 2 0 0 1 2 2z"/><path class="cdcls-1" d="M20.9 7.06a1.1 1.1 0 0 0-.57.16L17 9.11l-1 .55-1 .58v1.16l1-.58 1.54-.82 3.29-1.9h.07a.15.15 0 0 1 .15.15v7.58a.15.15 0 0 1-.15.15h-.07L17.54 14l-1.46-.84-1-.58v1.16l1 .58 1 .55 3.29 1.89a1.1 1.1 0 0 0 .57.16 1.15 1.15 0 0 0 1.15-1.15V8.21a1.15 1.15 0 0 0-1.19-1.15z"/><rect class="cdcls-1" x="5.52" y="14.5" width="3.05" height="1.49" rx=".75"/></g></svg><svg viewBox="0 0 24 24" id="it-zoom-in" xmlns="http://www.w3.org/2000/svg"><defs><style>.cecls-1{fill:#06c}</style></defs><g id="ceLivello_25" data-name="Livello 25"><path class="cecls-1" d="M20.87 19.72L17.18 16a8 8 0 1 0-1.06 1.07l3.69 3.68a.74.74 0 0 0 1.06 0 .75.75 0 0 0 0-1.03zM4 11a7 7 0 1 1 7 7 7 7 0 0 1-7-7z"/><path class="cecls-1" d="M14.23 10.22h-2.5v-2.5a.75.75 0 1 0-1.5 0v2.5h-2.5a.75.75 0 0 0 0 1.5h2.5v2.5a.75.75 0 1 0 1.5 0v-2.5h2.5a.75.75 0 0 0 0-1.5z"/></g></svg><svg viewBox="0 0 24 24" id="it-zoom-out" xmlns="http://www.w3.org/2000/svg"><defs><style>.cfcls-1{fill:#06c}</style></defs><g id="cfLivello_28" data-name="Livello 28"><path class="cfcls-1" d="M20.8 19.74l-3.63-3.63a8 8 0 1 0-1.06 1.06l3.63 3.63a.75.75 0 0 0 1.06-1.06zM6.06 16A7 7 0 1 1 11 18a7 7 0 0 1-4.94-2z"/><path class="cfcls-1" d="M14.26 10.26h-6.5a.75.75 0 0 0 0 1.5h6.5a.75.75 0 0 0 0-1.5z"/></g></svg></defs></svg>