<?xml version="1.0" encoding="utf-8"?><svg xmlns="http://www.w3.org/2000/svg" xmlns:xlink="http://www.w3.org/1999/xlink"><defs><svg viewBox="0 0 24 24" id="it-arrow-down" xmlns="http://www.w3.org/2000/svg"><path d="M13.09 21l6.54-6.54a.75.75 0 1 0-1.06-1.06l-5.8 5.79v-15a.75.75 0 1 0-1.5 0v15l-5.79-5.77a.75.75 0 1 0-1.06 1.06L11 21a1.5 1.5 0 0 0 2.09 0z" data-name="Livello 10"/></svg><svg viewBox="0 0 24 24" id="it-arrow-left" xmlns="http://www.w3.org/2000/svg"><path d="M3.48 13.53L10 20.07a.74.74 0 0 0 1.06 0 .75.75 0 0 0 0-1.06l-5.77-5.79h15a.75.75 0 0 0 0-1.5h-15l5.79-5.79A.75.75 0 1 0 10 4.87l-6.52 6.54a1.49 1.49 0 0 0 0 2.12z" data-name="Livello 8"/></svg><svg viewBox="0 0 24 24" id="it-arrow-right" xmlns="http://www.w3.org/2000/svg"><path d="M20.55 11.26L14 4.72a.75.75 0 0 0-1.06 0 .74.74 0 0 0 0 1.06l5.79 5.79h-15a.75.75 0 1 0 0 1.5h15L13 18.86a.75.75 0 0 0 1 1.06l6.54-6.54a1.51 1.51 0 0 0 .01-2.12z" data-name="Livello 7"/></svg><svg viewBox="0 0 24 24" id="it-arrow-up" xmlns="http://www.w3.org/2000/svg"><path d="M11 3.92l-6.58 6.54a.75.75 0 0 0 0 1.06.74.74 0 0 0 1.06 0l5.79-5.79v15a.75.75 0 0 0 1.5 0v-15l5.8 5.79a.74.74 0 0 0 1.06 0 .75.75 0 0 0 0-1.06l-6.54-6.54a1.52 1.52 0 0 0-2.09 0z" data-name="Livello 9"/></svg><svg viewBox="0 0 24 24" id="it-behance" xmlns="http://www.w3.org/2000/svg"><g data-name="Layer 5"><path d="M7.83 5.75a8 8 0 0 1 1.6.15 3.38 3.38 0 0 1 1.24.51 2.34 2.34 0 0 1 .8.93 3.29 3.29 0 0 1 .28 1.45 2.68 2.68 0 0 1-.42 1.54 3.05 3.05 0 0 1-1.25 1 2.92 2.92 0 0 1 1.68 1.15 3.36 3.36 0 0 1 .56 2 3.39 3.39 0 0 1-.32 1.59 3.08 3.08 0 0 1-1 1.11 4.27 4.27 0 0 1-1.4.64A6 6 0 0 1 8 18H2V5.75zm-.35 5a2 2 0 0 0 1.19-.35 1.28 1.28 0 0 0 .46-1.11A1.47 1.47 0 0 0 9 8.54a1.16 1.16 0 0 0-.42-.43A1.8 1.8 0 0 0 8 7.9a3.26 3.26 0 0 0-.7-.06H4.74v2.87zm.15 5.22a3.61 3.61 0 0 0 .75-.07 2 2 0 0 0 .62-.3 1.39 1.39 0 0 0 .44-.49 1.73 1.73 0 0 0 .16-.8A1.64 1.64 0 0 0 9.09 13a2.33 2.33 0 0 0-1.41-.4H4.74v3.38zM16.17 15.89a2.18 2.18 0 0 0 1.58.54 2.24 2.24 0 0 0 1.25-.37 1.6 1.6 0 0 0 .65-.79h2.15a4.06 4.06 0 0 1-1.58 2.29 4.64 4.64 0 0 1-2.58.69 5.23 5.23 0 0 1-1.9-.33 4 4 0 0 1-2.33-2.44 5.25 5.25 0 0 1-.32-1.89 5.12 5.12 0 0 1 .33-1.86 4.14 4.14 0 0 1 .93-1.49 4.48 4.48 0 0 1 1.44-1 4.59 4.59 0 0 1 1.85-.36 4.31 4.31 0 0 1 2 .44A4 4 0 0 1 21 10.5a4.68 4.68 0 0 1 .78 1.69 6.18 6.18 0 0 1 .17 2h-6.38a2.5 2.5 0 0 0 .6 1.7zM19 11.22a1.83 1.83 0 0 0-1.38-.49 2 2 0 0 0-1 .2 1.8 1.8 0 0 0-.62.49 1.62 1.62 0 0 0-.33.62 2.87 2.87 0 0 0-.11.59h4a2.4 2.4 0 0 0-.56-1.41zM15.07 6.57h4.98v1.21h-4.98z"/></g></svg><svg viewBox="0 0 24 24" id="it-burger" xmlns="http://www.w3.org/2000/svg"><g data-name="Livello 15"><rect x="2.06" y="17.96" width="19.92" height="1.5" rx=".75"/><rect x="2.06" y="4.57" width="19.92" height="1.5" rx=".75"/><rect x="2.06" y="11.27" width="19.92" height="1.5" rx=".75"/></g></svg><svg viewBox="0 0 24 24" id="it-calendar" xmlns="http://www.w3.org/2000/svg"><path d="M21 9V8a3 3 0 0 0-3-3h-.55V4a1 1 0 0 0-2 0v1h-7V4a1 1 0 1 0-2 0v1H6a3 3 0 0 0-3 3v10a3 3 0 0 0 3 3h12a3 3 0 0 0 3-3V9zm-5.54-4h2v1a1 1 0 1 1-2 0zm-9 0h2v1a1 1 0 1 1-2 0zM20 18a2 2 0 0 1-2 2H6a2 2 0 0 1-2-2v-8h16z" data-name="Layer 42"/></svg><svg viewBox="0 0 24 24" id="it-camera" xmlns="http://www.w3.org/2000/svg"><path d="M18.52 6.49h-.95a.5.5 0 0 1-.48-.37l-.32-1.24a.5.5 0 0 0-.49-.37h-6.17a.5.5 0 0 0-.48.37l-.32 1.24a.5.5 0 0 1-.48.37H7.52a.76.76 0 0 0-.76-.76H5.29a.77.77 0 0 0-.77.76.66.66 0 0 0 0 .15A3.5 3.5 0 0 0 2 10v6a3.49 3.49 0 0 0 3.48 3.5h13A3.49 3.49 0 0 0 22 16v-6a3.5 3.5 0 0 0-3.48-3.51zM21 16a2.49 2.49 0 0 1-2.48 2.5h-13A2.49 2.49 0 0 1 3 16v-3h6a4.25 4.25 0 0 0 8.44 0H21zm-11-3.53a3.28 3.28 0 0 1 6.55 0 3.28 3.28 0 0 1-6.55 0zM21 12h-3.52A4.25 4.25 0 0 0 9 12H3v-2a2.5 2.5 0 0 1 2.48-2.51h3.35a1.51 1.51 0 0 0 1.45-1.12l.22-.86h5.4l.22.86a1.5 1.5 0 0 0 1.45 1.12h.95A2.5 2.5 0 0 1 21 10z" data-name="Livello 38"/></svg><svg viewBox="0 0 24 24" id="it-card" xmlns="http://www.w3.org/2000/svg"><path d="M19 5H5a3 3 0 0 0-3 3v8a3 3 0 0 0 3 3h14a3 3 0 0 0 3-3V8a3 3 0 0 0-3-3zM5 6h14a2 2 0 0 1 2 2H3a2 2 0 0 1 2-2zm14 12H5a2 2 0 0 1-2-2v-5.48h18V16a2 2 0 0 1-2 2z"/><path d="M6.01 12.47h4.01v1H6.01z"/></svg><svg viewBox="0 0 24 24" id="it-check" xmlns="http://www.w3.org/2000/svg"><path d="M19.78 7.8a.74.74 0 0 0-1.06 0l-7.6 7.6L7.76 12a.75.75 0 0 0-1.06 1.1l3.36 3.36a1.51 1.51 0 0 0 2.12 0l7.6-7.6a.75.75 0 0 0 0-1.06z"/></svg><svg viewBox="0 0 24 24" id="it-check-circle" xmlns="http://www.w3.org/2000/svg"><path d="M20 12.05v-.81a.5.5 0 1 0-1 .1v.71A7 7 0 1 1 15.53 6l.19.12a.5.5 0 1 0 .53-.85l-.2-.12a8 8 0 1 0 3.95 7z"/><path d="M20.69 5.91a.75.75 0 0 0-1.06 0L12 13.51l-2.62-2.65a.75.75 0 0 0-1.06 1.06L11 14.57a1.49 1.49 0 0 0 2.12 0L20.69 7a.74.74 0 0 0 0-1.09z" data-name="Livello 31"/></svg><svg viewBox="0 0 24 24" id="it-chevron-left" xmlns="http://www.w3.org/2000/svg"><path d="M10.25 12L15 7.23a.75.75 0 0 0 0-1.06.74.74 0 0 0-1.06 0l-4.75 4.77a1.51 1.51 0 0 0 0 2.12L14 17.83a.74.74 0 0 0 1.06 0 .75.75 0 0 0 0-1.06z" data-name="Livello 6"/></svg><svg viewBox="0 0 24 24" id="it-chevron-right" xmlns="http://www.w3.org/2000/svg"><path d="M13.75 12L9 16.77a.75.75 0 0 0 0 1.06.74.74 0 0 0 1.06 0l4.78-4.77a1.51 1.51 0 0 0 0-2.12L10 6.17a.74.74 0 0 0-1 0 .75.75 0 0 0 0 1.06z" data-name="Livello 11"/></svg><svg viewBox="0 0 24 24" id="it-close" xmlns="http://www.w3.org/2000/svg"><path d="M16.24 15.18L13.06 12l3.18-3.18a.75.75 0 1 0-1.06-1.06L12 10.94 8.82 7.76a.75.75 0 1 0-1.06 1.06L10.94 12l-3.18 3.18a.75.75 0 1 0 1.06 1.06L12 13.06l3.18 3.18a.75.75 0 0 0 1.06-1.06z" data-name="Livello 18"/></svg><svg viewBox="0 0 24 24" id="it-close-big" xmlns="http://www.w3.org/2000/svg"><path d="M12.71 12l7.45-7.45a.5.5 0 0 0-.71-.71L12 11.29 4.58 3.87a.5.5 0 1 0-.71.71L11.29 12l-7.45 7.45a.5.5 0 0 0 .71.71L12 12.71l7.42 7.42a.5.5 0 0 0 .71-.71z" data-name="Livello 19"/></svg><svg viewBox="0 0 24 24" id="it-close-circle" xmlns="http://www.w3.org/2000/svg"><g data-name="Livello 32"><path d="M12 3a9 9 0 1 1-6.34 2.62A8.94 8.94 0 0 1 12 3m0-1a10 10 0 1 0 7.1 2.92A10 10 0 0 0 12 2z"/><path d="M15.56 14.47L13.09 12l2.47-2.47a.77.77 0 0 0 0-1.07.75.75 0 0 0-1.06 0L12 10.94 9.55 8.46a.75.75 0 0 0-1.06 0 .77.77 0 0 0 0 1.07L11 12l-2.51 2.47a.77.77 0 0 0 0 1.07.75.75 0 0 0 1.06 0L12 13.06l2.48 2.48a.75.75 0 0 0 1.06 0 .77.77 0 0 0 .02-1.07z"/></g></svg><svg viewBox="0 0 24 24" id="it-code-circle" xmlns="http://www.w3.org/2000/svg"><g data-name="Layer 50"><path d="M12 3a9 9 0 1 1-9 9 9 9 0 0 1 9-9m0-1a10 10 0 1 0 10 10A10 10 0 0 0 12 2z"/><rect x="7" y="11.5" width="10" height="1" rx=".5" transform="rotate(-78.28 11.997 12)"/><path d="M8 12l1.78-1.78a.5.5 0 0 0 0-.7.5.5 0 0 0-.71 0l-1.78 1.77a1 1 0 0 0 0 1.42l1.78 1.77a.5.5 0 0 0 .71 0 .5.5 0 0 0 0-.7zM16.71 11.29l-1.78-1.77a.5.5 0 0 0-.71 0 .5.5 0 0 0 0 .7L16 12l-1.78 1.78a.5.5 0 0 0 0 .7.5.5 0 0 0 .71 0l1.78-1.77a1 1 0 0 0 0-1.42z"/></g></svg><svg viewBox="0 0 24 24" id="it-collapse" xmlns="http://www.w3.org/2000/svg"><path d="M12 10.25L16.77 15a.75.75 0 0 0 1.06 0 .74.74 0 0 0 0-1.06l-4.77-4.75a1.51 1.51 0 0 0-2.12 0L6.17 14a.74.74 0 0 0 0 1.06.75.75 0 0 0 1.06 0z" data-name="Livello 13"/></svg><svg viewBox="0 0 24 24" id="it-comment" xmlns="http://www.w3.org/2000/svg"><g data-name="Livello 22"><path d="M18 4.23a2 2 0 0 1 2.05 2v8a2 2 0 0 1-2.05 2h-6.87l-.28.23-3.36 2.77v-3H6a2 2 0 0 1-2.05-2v-8a2 2 0 0 1 2.05-2h12m0-1H6a3 3 0 0 0-3 3v8a3 3 0 0 0 3.05 3h.46v3a.51.51 0 0 0 .51.51.54.54 0 0 0 .27-.07l4.21-3.44H18a3 3 0 0 0 3.05-3v-8a3 3 0 0 0-3.05-3z"/><circle cx="11.98" cy="10.26" r="1"/><circle cx="15.49" cy="10.26" r="1"/><circle cx="8.47" cy="10.26" r="1"/></g></svg><svg viewBox="0 0 24 24" id="it-copy" xmlns="http://www.w3.org/2000/svg"><path d="M18.5 5H17V3.49A1.5 1.5 0 0 0 15.5 2h-10A1.5 1.5 0 0 0 4 3.49v14A1.5 1.5 0 0 0 5.5 19H7v1.5A1.5 1.5 0 0 0 8.5 22h10a1.5 1.5 0 0 0 1.5-1.5v-14A1.5 1.5 0 0 0 18.5 5zm-13 13a.51.51 0 0 1-.5-.5v-14a.5.5 0 0 1 .5-.5h10a.5.5 0 0 1 .5.5v14a.51.51 0 0 1-.5.5h-10zM19 20.5a.51.51 0 0 1-.5.5h-10a.51.51 0 0 1-.5-.5V19h7.5a1.5 1.5 0 0 0 1.5-1.5V6h1.5a.51.51 0 0 1 .5.5z" data-name="Layer 34"/></svg><svg viewBox="0 0 24 24" id="it-download" xmlns="http://www.w3.org/2000/svg"><g data-name="Livello 20"><path d="M20.54 15.5h-.13a.5.5 0 0 0-.5.5v3a1.07 1.07 0 0 1-1.13 1H5.27a1.07 1.07 0 0 1-1.13-1v-3a.5.5 0 0 0-.5-.5h-.13A.5.5 0 0 0 3 16v3a2.14 2.14 0 0 0 2.26 2h13.52A2.14 2.14 0 0 0 21 19v-3a.5.5 0 0 0-.46-.5z"/><path d="M16.07 12.49a.75.75 0 0 0-1.06 0l-2.26 2.26v-11a.75.75 0 0 0-1.5 0v11L9 12.49a.75.75 0 0 0-1.06 0 .77.77 0 0 0 0 1.07l3 3a1.49 1.49 0 0 0 2.12 0l3-3a.77.77 0 0 0 .01-1.07z"/></g></svg><svg viewBox="0 0 24 24" id="it-error" xmlns="http://www.w3.org/2000/svg"><g data-name="Layer 48"><path d="M11.25 6.98h1.5v7h-1.5z"/><circle cx="12" cy="16.01" r="1.01"/><path d="M15.31 4L20 8.69v6.62L15.31 20H8.69L4 15.31V8.69L8.69 4h6.62m.42-1H8.27L3 8.27v7.46L8.27 21h7.46L21 15.73V8.27L15.73 3z"/></g></svg><svg viewBox="0 0 24 24" id="it-expand" xmlns="http://www.w3.org/2000/svg"><path d="M12 13.75L7.23 9a.75.75 0 0 0-1.06 0 .74.74 0 0 0 0 1.06l4.77 4.78a1.51 1.51 0 0 0 2.12 0L17.83 10a.74.74 0 0 0 0-1.06.75.75 0 0 0-1.06 0z" data-name="Livello 12"/></svg><svg viewBox="0 0 24 24" id="it-external-link" xmlns="http://www.w3.org/2000/svg"><path d="M19 10.5V4a1 1 0 0 1 1 1v5.5a.5.5 0 0 1-.5.5.5.5 0 0 1-.5-.5z"/><path d="M13.5 4H19a1 1 0 0 1 1 1h-6.5a.5.5 0 0 1-.5-.5.5.5 0 0 1 .5-.5z"/><rect x="7.93" y="8.98" width="13" height="1" rx=".5" transform="rotate(-45 14.428 9.484)"/><path d="M17.51 12a.5.5 0 0 0-.5.5V18a2 2 0 0 1-2 2H6a2 2 0 0 1-2-2V9a2 2 0 0 1 2-2h5a.5.5 0 0 0 .5-.5.51.51 0 0 0-.5-.5H6a3 3 0 0 0-3 3v9a3 3 0 0 0 3 3h9a3 3 0 0 0 3-3v-5.51a.5.5 0 0 0-.49-.49z"/></svg><svg viewBox="0 0 24 24" id="it-facebook" xmlns="http://www.w3.org/2000/svg"><path d="M13.55 22v-9.11h3.07l.46-3.56h-3.53V7.05c0-1 .29-1.73 1.77-1.73h1.87V2.14A25.14 25.14 0 0 0 14.45 2c-2.72 0-4.58 1.66-4.58 4.7v2.62H6.81v3.57h3.06V22z" data-name="Layer 3"/></svg><svg viewBox="0 0 24 24" id="it-facebook-square" xmlns="http://www.w3.org/2000/svg"><path d="M20 3H4a1 1 0 0 0-1 1v16a1 1 0 0 0 1 1h8.63v-6.95h-2.37v-2.74h2.34v-2a3.28 3.28 0 0 1 3.5-3.6 18.79 18.79 0 0 1 2.11.12v2.44h-1.44c-1.13 0-1.34.53-1.34 1.32v1.74h2.7l-.35 2.72h-2.35v7H20a1 1 0 0 0 1-1V4a1 1 0 0 0-1-1z" data-name="Layer 8"/></svg><svg viewBox="0 0 24 24" id="it-file" xmlns="http://www.w3.org/2000/svg"><g data-name="Livello 14"><path d="M19 5.41L16.59 3l-.92-.92-.08-.08H5.5A1.5 1.5 0 0 0 4 3.5v17A1.5 1.5 0 0 0 5.5 22h13a1.5 1.5 0 0 0 1.5-1.5V6.41zm-.37 1H16.1a.5.5 0 0 1-.5-.5V3.42zM18.5 21h-13a.5.5 0 0 1-.5-.5v-17a.5.5 0 0 1 .5-.5h9.1v3a1.5 1.5 0 0 0 1.5 1.5H19v13a.5.5 0 0 1-.5.5z"/><rect x="6.98" y="13.01" width="10.02" height="1.01" rx=".5"/><rect x="6.98" y="15.99" width="10.02" height="1.01" rx=".5"/></g></svg><svg viewBox="0 0 24 24" id="it-flickr" xmlns="http://www.w3.org/2000/svg"><g data-name="Layer 10"><circle cx="6.73" cy="12" r="4.73"/><circle cx="17.27" cy="12" r="4.73"/></g></svg><svg viewBox="0 0 24 24" id="it-flickr-square" xmlns="http://www.w3.org/2000/svg"><path d="M20 4a3.26 3.26 0 0 0-2.38-1H6.38A3.26 3.26 0 0 0 4 4a3.26 3.26 0 0 0-1 2.37v11.25A3.26 3.26 0 0 0 4 20a3.26 3.26 0 0 0 2.39 1h11.24A3.38 3.38 0 0 0 21 17.62V6.37A3.26 3.26 0 0 0 20 4zm-9.56 9.77a2.5 2.5 0 0 1-3.51 0 2.49 2.49 0 0 1 0-3.52 2.5 2.5 0 0 1 3.51 0 2.49 2.49 0 0 1 0 3.52zm6.61 0A2.49 2.49 0 0 1 12.82 12a2.49 2.49 0 0 1 4.24-1.76 2.49 2.49 0 0 1 0 3.52z" data-name="Layer 9"/></svg><svg viewBox="0 0 24 24" id="it-github" xmlns="http://www.w3.org/2000/svg"><path d="M12 2a10 10 0 0 0-3.16 19.49c.5.09.68-.22.68-.48v-1.7C6.73 19.91 6.14 18 6.14 18A2.69 2.69 0 0 0 5 16.5c-.91-.62.07-.61.07-.61a2.13 2.13 0 0 1 1.53 1 2.14 2.14 0 0 0 2.91.83 2.16 2.16 0 0 1 .63-1.34c-2.14-.21-4.52-1.07-4.52-4.9a3.89 3.89 0 0 1 1-2.69 3.57 3.57 0 0 1 .1-2.64s.84-.27 2.75 1a9.63 9.63 0 0 1 5 0c1.91-1.29 2.75-1 2.75-1a3.57 3.57 0 0 1 .1 2.64 3.89 3.89 0 0 1 1 2.69c0 3.84-2.34 4.68-4.57 4.93a2.39 2.39 0 0 1 .68 1.85v2.75c0 .33.18.58.69.48A10 10 0 0 0 12 2z" data-name="Layer 11"/></svg><svg viewBox="0 0 24 24" id="it-help" xmlns="http://www.w3.org/2000/svg"><g data-name="Layer 37"><path d="M11.76 19a1 1 0 0 0-.76.3 1 1 0 0 0-.28.72.94.94 0 0 0 .28.69 1 1 0 0 0 .76.28 1 1 0 0 0 .76-.28.88.88 0 0 0 .29-.69 1 1 0 0 0-.29-.72 1 1 0 0 0-.76-.3zM16.54 5.64a3.92 3.92 0 0 0-1-1.43 4.21 4.21 0 0 0-1.5-.92 6 6 0 0 0-2-.32 5.74 5.74 0 0 0-1.93.31 4.76 4.76 0 0 0-1.56.88 4.22 4.22 0 0 0-1 1.38 4.41 4.41 0 0 0-.42 1.8.73.73 0 1 0 1.45 0A3.2 3.2 0 0 1 8.88 6a2.93 2.93 0 0 1 .76-1 3.44 3.44 0 0 1 1.1-.6 4.52 4.52 0 0 1 1.34-.2 3.84 3.84 0 0 1 1.4.23 2.79 2.79 0 0 1 1 .65 2.83 2.83 0 0 1 .67 1 3.8 3.8 0 0 1 .23 1.34 3.74 3.74 0 0 1-.21 1.28 4.56 4.56 0 0 1-.56 1.1 8.07 8.07 0 0 1-.79 1c-.3.32-.61.62-.92.92a10 10 0 0 0-.92.93 3.93 3.93 0 0 0-.59.91 4.08 4.08 0 0 0-.32 1A8.18 8.18 0 0 0 11 16h1.46a7.06 7.06 0 0 1 .06-1 3.84 3.84 0 0 1 .22-.84 3.57 3.57 0 0 1 .41-.74 4.32 4.32 0 0 1 .66-.72c.39-.33.77-.69 1.14-1.06a8.13 8.13 0 0 0 1-1.22 6.33 6.33 0 0 0 .68-1.38 4.56 4.56 0 0 0 .26-1.58 4.78 4.78 0 0 0-.35-1.82z"/></g></svg><svg viewBox="0 0 24 24" id="it-help-circle" xmlns="http://www.w3.org/2000/svg"><g data-name="Layer 35"><path d="M12 3a9 9 0 1 1-9 9 9 9 0 0 1 9-9m0-1a10 10 0 1 0 10 10A10 10 0 0 0 12 2z"/><path d="M11.89 15.2a.88.88 0 0 0-1 .91.9.9 0 0 0 .25.64.92.92 0 0 0 .7.25 1 1 0 0 0 .71-.25.86.86 0 0 0 .25-.64.88.88 0 0 0-.25-.65 1 1 0 0 0-.66-.26zM14.83 8.48a2.2 2.2 0 0 0-.6-.81 2.73 2.73 0 0 0-1-.5A4.51 4.51 0 0 0 12 7a4.2 4.2 0 0 0-1.2.16 2.9 2.9 0 0 0-1 .49 2.45 2.45 0 0 0-.65.81 2.52 2.52 0 0 0-.24 1.08.78.78 0 0 0 .78.76.79.79 0 0 0 .79-.76 1.22 1.22 0 0 1 .19-.54 1.1 1.1 0 0 1 .33-.37 1.4 1.4 0 0 1 .46-.22 2.33 2.33 0 0 1 .54-.07 1.53 1.53 0 0 1 1.06.33 1.25 1.25 0 0 1 .37 1 1.39 1.39 0 0 1-.12.57 2.67 2.67 0 0 1-.32.53 4 4 0 0 1-.42.5l-.46.46a6.52 6.52 0 0 0-.52.5 1.63 1.63 0 0 0-.28.47 2.2 2.2 0 0 0-.12.57v.8h1.51v-.46a1.1 1.1 0 0 1 .06-.37 1 1 0 0 1 .16-.33 2.7 2.7 0 0 1 .3-.36q.33-.29.66-.6a5.43 5.43 0 0 0 .59-.68 3.3 3.3 0 0 0 .43-.78 2.35 2.35 0 0 0 .1-.9 2.82 2.82 0 0 0-.17-1.11z"/></g></svg><svg viewBox="0 0 24 24" id="it-horn" xmlns="http://www.w3.org/2000/svg"><path d="M19.68 4a1.14 1.14 0 0 0-.68.23l-3.64 2.62-.18.15H7a4 4 0 0 0-.39 8v4.5A1.5 1.5 0 0 0 8.12 21h1a1.5 1.5 0 0 0 1.5-1.5V15h4.58l.14.1L19 17.72a1.14 1.14 0 0 0 .68.23A1.57 1.57 0 0 0 21 16.23V5.73A1.57 1.57 0 0 0 19.68 4zM9.62 19.5a.5.5 0 0 1-.5.5h-1a.5.5 0 0 1-.5-.5V15h2zM15 8.34V14H6.93A3 3 0 0 1 7 8h5.87v6h1V8H15zM20 11v5.25c0 .48-.27.72-.38.72a.21.21 0 0 1-.1 0L16 14.33V7.62L19.58 5h.1a.22.22 0 0 1 .15.09.85.85 0 0 1 .22.63z" data-name="Layer 34"/></svg><svg viewBox="0 0 24 24" id="it-info-circle" xmlns="http://www.w3.org/2000/svg"><g data-name="Livello 33"><path d="M12 3a9 9 0 1 1-9 9 9 9 0 0 1 9-9m0-1a10 10 0 1 0 10 10A10 10 0 0 0 12 2z"/><path d="M9.12 9.84h3.7v5.67h2.06v1.27H9.12v-1.27h2.15v-4.39H9.12zm2-1.8a.8.8 0 0 1 .23-.59 1 1 0 0 1 1.3 0 .86.86 0 0 1 0 1.19 1 1 0 0 1-1.3 0 .81.81 0 0 1-.2-.64z"/></g></svg><svg viewBox="0 0 24 24" id="it-instagram" xmlns="http://www.w3.org/2000/svg"><g data-name="Layer 6"><path d="M12 4.62h3.64a5.12 5.12 0 0 1 1.67.38 2.77 2.77 0 0 1 1 .68 2.77 2.77 0 0 1 .68 1 5.12 5.12 0 0 1 .31 1.67c0 1 .05 1.24.05 3.64s0 2.69-.05 3.64a5.12 5.12 0 0 1-.3 1.68A3.08 3.08 0 0 1 17.31 19a5.12 5.12 0 0 1-1.67.31c-1 0-1.24.05-3.64.05s-2.69 0-3.64-.05A5.12 5.12 0 0 1 6.69 19a2.77 2.77 0 0 1-1-.68 2.77 2.77 0 0 1-.68-1 5.12 5.12 0 0 1-.31-1.67v-3.64-3.64A5.12 5.12 0 0 1 5 6.69a2.77 2.77 0 0 1 .68-1 2.77 2.77 0 0 1 1-.68 5.12 5.12 0 0 1 1.67-.31h3.64M12 3H8.29a6.9 6.9 0 0 0-2.19.42A4.64 4.64 0 0 0 3.47 6.1a6.9 6.9 0 0 0-.42 2.19v7.42a6.9 6.9 0 0 0 .42 2.19 4.64 4.64 0 0 0 2.63 2.63 6.9 6.9 0 0 0 2.19.47c1 0 1.27.05 3.71.05s2.75 0 3.71-.05a6.9 6.9 0 0 0 2.19-.42 4.64 4.64 0 0 0 2.63-2.63 6.9 6.9 0 0 0 .47-2.24c0-1 .05-1.27.05-3.71S21 9.25 21 8.29a6.9 6.9 0 0 0-.42-2.19 4.64 4.64 0 0 0-2.68-2.63 6.9 6.9 0 0 0-2.19-.42H12z"/><path d="M12 7.38A4.62 4.62 0 1 0 16.62 12 4.62 4.62 0 0 0 12 7.38zM12 15a3 3 0 1 1 3-3 3 3 0 0 1-3 3z"/><circle cx="16.8" cy="7.2" r="1.08"/></g></svg><svg viewBox="0 0 24 24" id="it-key" xmlns="http://www.w3.org/2000/svg"><g data-name="Layer 51"><path d="M12 5.75a1.75 1.75 0 1 1-1.75 1.75A1.75 1.75 0 0 1 12 5.75m0-1a2.75 2.75 0 1 0 2.75 2.75A2.75 2.75 0 0 0 12 4.75z"/><path d="M12 3a4.51 4.51 0 0 1 4.5 4.5 4.46 4.46 0 0 1-2.46 4l-.54.28v8.68l-1 .49-1.68-1.48.44-.69.35-.54-.34-.54-.56-.88.56-.85.37-.56-.37-.55-.57-.86.47-.75.69-1.09-1.23-.39a4.54 4.54 0 0 1-3-5.2A4.46 4.46 0 0 1 11 3.1a4.73 4.73 0 0 1 1-.1m0-1a6 6 0 0 0-1.18.12 5.5 5.5 0 0 0-.49 10.62l-.72 1.14a.29.29 0 0 0 0 .32l.81 1.21-.82 1.24a.27.27 0 0 0 0 .32l.8 1.27-.77 1.19a.3.3 0 0 0 0 .39l2.38 2.1a.85.85 0 0 0 .72 0l1.71-.84V12.4A5.5 5.5 0 0 0 12 2z"/></g></svg><svg viewBox="0 0 24 24" id="it-less-circle" xmlns="http://www.w3.org/2000/svg"><g data-name="Livello 30"><path d="M12 3a9 9 0 0 1 6.36 15.36A9 9 0 0 1 5.64 5.62 8.93 8.93 0 0 1 12 3m0-1a10 10 0 1 0 7.07 2.93A9.93 9.93 0 0 0 12 2z"/><rect x="7" y="11.25" width="10" height="1.5" rx=".75"/></g></svg><svg viewBox="0 0 24 24" id="it-link" xmlns="http://www.w3.org/2000/svg"><g data-name="Layer 44"><path d="M8.12 20a4.12 4.12 0 0 1-2.91-7l2.55-2.55a4.14 4.14 0 0 1 5.83 0 4.25 4.25 0 0 1 .63.82.51.51 0 0 1-.88.52 3.12 3.12 0 0 0-4.86-.61l-2.55 2.51a3.1 3.1 0 0 0 4.38 4.38l1.94-1.94a.5.5 0 0 1 .73 0 .51.51 0 0 1 0 .72L11 18.79A4.11 4.11 0 0 1 8.12 20z"/><path d="M13.33 14.79a4.1 4.1 0 0 1-2.92-1.2 4.71 4.71 0 0 1-.64-.83.52.52 0 0 1 .18-.7.51.51 0 0 1 .71.18 2.64 2.64 0 0 0 .48.62 3.17 3.17 0 0 0 4.38 0l2.55-2.55a3.1 3.1 0 0 0-4.38-4.38l-1.94 1.94a.5.5 0 0 1-.73 0 .51.51 0 0 1 0-.72L13 5.21A4.12 4.12 0 0 1 18.79 11l-2.55 2.55a4.08 4.08 0 0 1-2.91 1.24z"/></g></svg><svg viewBox="0 0 24 24" id="it-linkedin" xmlns="http://www.w3.org/2000/svg"><path d="M16.53 8.68A3.94 3.94 0 0 0 13 10.62V9H9.37v12h3.73v-5.95c0-1.57.29-3.09 2.24-3.09s1.93 1.8 1.93 3.19V21H21v-6.6c0-3.23-.69-5.72-4.47-5.72zM5.16 3a2.17 2.17 0 1 0 2.16 2.18A2.16 2.16 0 0 0 5.16 3zM3.29 9v12H7V9zm13.24-.3A3.94 3.94 0 0 0 13 10.62V9H9.37v12h3.73v-5.95c0-1.57.29-3.09 2.24-3.09s1.93 1.8 1.93 3.19V21H21v-6.6c0-3.23-.69-5.72-4.47-5.72zM3.29 21H7V9H3.29zM5.16 3a2.17 2.17 0 1 0 2.16 2.18A2.16 2.16 0 0 0 5.16 3z" data-name="Layer 4"/></svg><svg viewBox="0 0 24 24" id="it-linkedin-square" xmlns="http://www.w3.org/2000/svg"><path d="M19.67 3H4.33A1.32 1.32 0 0 0 3 4.3v15.4A1.32 1.32 0 0 0 4.33 21h15.34A1.32 1.32 0 0 0 21 19.7V4.3A1.32 1.32 0 0 0 19.67 3zM8.34 18.34H5.67V9.75h2.67zM7 8.57A1.55 1.55 0 1 1 8.55 7 1.54 1.54 0 0 1 7 8.57zm11.34 9.77h-2.67v-4.18c0-1 0-2.28-1.39-2.28s-1.6 1.09-1.6 2.21v4.25H10V9.75h2.56v1.17a2.83 2.83 0 0 1 2.53-1.39c2.7 0 3.2 1.78 3.2 4.1z" data-name="Layer 2"/></svg><svg viewBox="0 0 24 24" id="it-list" xmlns="http://www.w3.org/2000/svg"><g data-name="Livello 16"><rect x="7" y="17.99" width="15.01" height="1.5" rx=".75"/><circle cx="3" cy="18.74" r="1"/><rect x="7.02" y="4.48" width="15.01" height="1.5" rx=".75"/><circle cx="3.02" cy="5.23" r="1"/><rect x="7.02" y="11.24" width="15.01" height="1.5" rx=".75"/><circle cx="3.02" cy="11.99" r="1"/></g></svg><svg viewBox="0 0 24 24" id="it-lock" xmlns="http://www.w3.org/2000/svg"><g data-name="Livello 21"><path d="M18.5 8.5H17V8A5 5 0 0 0 7 8v.5H5.5A1.5 1.5 0 0 0 4 10v8.5A1.5 1.5 0 0 0 5.5 20h13a1.5 1.5 0 0 0 1.5-1.5V10a1.5 1.5 0 0 0-1.5-1.5zM8 8a4 4 0 0 1 8 0v.5H8zm11 10.5a.5.5 0 0 1-.5.5h-13a.5.5 0 0 1-.5-.5V10a.5.5 0 0 1 .5-.5h13a.5.5 0 0 1 .5.5z"/><path d="M12 13.25a1 1 0 1 1-1 1 1 1 0 0 1 1-1m0-1a2 2 0 1 0 2 2 2 2 0 0 0-2-2z"/></g></svg><svg viewBox="0 0 24 24" id="it-locked" xmlns="http://www.w3.org/2000/svg"><g data-name="Livello 21"><path d="M18.5 9H17v-.5a5 5 0 0 0-10 0V9H5.5A1.5 1.5 0 0 0 4 10.49V19a1.5 1.5 0 0 0 1.5 1.5h13A1.5 1.5 0 0 0 20 19v-8.5A1.5 1.5 0 0 0 18.5 9zM8 8.51a4 4 0 1 1 8 0V9H8zM19 19a.5.5 0 0 1-.5.5h-13A.5.5 0 0 1 5 19v-8.5a.5.5 0 0 1 .5-.5h13a.5.5 0 0 1 .5.5z"/><path d="M12 13.74a1 1 0 1 1-1 1 1 1 0 0 1 1-1m0-1a2 2 0 1 0 2 2 2 2 0 0 0-2-2z"/></g></svg><svg viewBox="0 0 24 24" id="it-mail" xmlns="http://www.w3.org/2000/svg"><g data-name="Layer 43"><path d="M19 6a2 2 0 0 1 1.84 1 1.3 1.3 0 0 1 .16.62v8.76A1.85 1.85 0 0 1 19 18H5a1.85 1.85 0 0 1-2-1.62V7.62A1.25 1.25 0 0 1 3.17 7 2 2 0 0 1 5 6h14m0-1H5a3 3 0 0 0-2.71 1.51A2.27 2.27 0 0 0 2 7.62v8.76A2.83 2.83 0 0 0 5 19h14a2.83 2.83 0 0 0 3-2.62V7.62a2.37 2.37 0 0 0-.27-1.08A3 3 0 0 0 19 5z"/><path d="M19 6a2 2 0 0 1 1.45.62l-7 7a2 2 0 0 1-1.42.59 1.94 1.94 0 0 1-1.41-.59l-7-7A2 2 0 0 1 5 6h14m0-1H5a3 3 0 0 0-2.71 1.73l7.61 7.61a3 3 0 0 0 4.25 0l7.58-7.58A3 3 0 0 0 19 5z"/><path d="M15.32 12.37l-.71.71 5.62 5.63.71-.71-5.62-5.63zM8.79 12.27L3.06 18l.71.71 5.73-5.73-.71-.71z"/></g></svg><svg viewBox="0 0 24 24" id="it-medium" xmlns="http://www.w3.org/2000/svg"><path d="M5 7.63A.72.72 0 0 0 4.82 7L3.13 5v-.3h5.22l4 8.84 3.54-8.84h5V5l-1.42 1.4a.43.43 0 0 0-.16.4v10.12a.45.45 0 0 0 .16.41l1.4 1.37v.3h-7v-.3l1.45-1.41c.14-.14.14-.18.14-.4V8.71L11.37 19h-.55L6.12 8.71v6.88a.93.93 0 0 0 .26.79l1.89 2.29V19H2.91v-.3l1.89-2.32a.92.92 0 0 0 .2-.79z" data-name="Layer 16"/></svg><svg viewBox="0 0 24 24" id="it-medium-square" xmlns="http://www.w3.org/2000/svg"><path d="M3 3h18v18H3zm4.3 11.36a.64.64 0 0 1-.17.54l-1.27 1.54v.2h3.6v-.2L8.19 14.9a.67.67 0 0 1-.19-.54V9.74l3.16 6.9h.37l2.71-6.9v5.5c0 .15 0 .17-.09.27l-1 1v.2h4.74v-.2l-.89-.98a.27.27 0 0 1-.11-.27v-6.8a.28.28 0 0 1 .11-.27l1-.93v-.2h-3.39L12.23 13 9.52 7.06H6v.2l1.14 1.36A.5.5 0 0 1 7.3 9z" data-name="Layer 15"/></svg><svg viewBox="0 0 24 24" id="it-minus" xmlns="http://www.w3.org/2000/svg"><rect x="6" y="11.25" width="12" height="1.5" rx=".75" data-name="Livello 17"/></svg><svg viewBox="0 0 24 24" id="it-more-actions" xmlns="http://www.w3.org/2000/svg"><g data-name="Livello 17"><circle cx="4.5" cy="11.99" r="1.5"/><circle cx="12.02" cy="11.99" r="1.5"/><circle cx="19.53" cy="11.99" r="1.5"/></g></svg><svg viewBox="0 0 24 24" id="it-more-items" xmlns="http://www.w3.org/2000/svg"><g data-name="Livello 17"><circle cx="12.02" cy="4.47" r="1.5"/><circle cx="12.02" cy="11.99" r="1.5"/><circle cx="12.02" cy="19.5" r="1.5"/></g></svg><svg viewBox="0 0 24 24" id="it-note" xmlns="http://www.w3.org/2000/svg"><path d="M18 3H6a3 3 0 0 0-3 3v12a3 3 0 0 0 3 3h7.7l.38-.38.7-.7 5.14-5.14.7-.7.38-.38V6a3 3 0 0 0-3-3zM6 4.08h12A1.92 1.92 0 0 1 19.92 6v1H4.08V6A1.92 1.92 0 0 1 6 4.08zM4.08 18V8.5h15.84V13H16a3 3 0 0 0-3 3v3.92H6A1.92 1.92 0 0 1 4.08 18zm10 1.22V16A1.92 1.92 0 0 1 16 14.08h3.22z" data-name="Layer 59"/></svg><svg viewBox="0 0 24 24" id="it-pa" xmlns="http://www.w3.org/2000/svg"><g data-name="Layer 49"><path d="M12 4.17l4.88 3.11 2.31 1.47H4.81l2.31-1.47L12 4.17M12 3a.53.53 0 0 0-.27.08L6.54 6.36 3.33 8.41c-.56.36-.36 1.43.27 1.43h16.8c.63 0 .83-1.07.27-1.43l-3.21-2-5.19-3.36A.53.53 0 0 0 12 3zM19.51 18h-1.05v-7a.48.48 0 0 0-.48-.47h-.05a.47.47 0 0 0-.47.47v7h-2v-7a.47.47 0 0 0-.47-.47h-.05a.47.47 0 0 0-.48.47v7h-2v-7a.48.48 0 0 0-.48-.47h-.05a.47.47 0 0 0-.47.47v7h-2v-7a.47.47 0 0 0-.46-.53h-.09a.47.47 0 0 0-.47.47v7h-2v-7.01a.45.45 0 0 0-.44-.46.49.49 0 0 0-.49.49v7H4.49a1.51 1.51 0 1 0 0 3h15a1.51 1.51 0 1 0 0-3zm0 2h-15a.5.5 0 0 1-.51-.5.51.51 0 0 1 .49-.5h15a.51.51 0 0 1 .51.51.5.5 0 0 1-.49.49z"/></g></svg><svg viewBox="0 0 24 24" id="it-password-invisible" xmlns="http://www.w3.org/2000/svg"><g data-name="Layer 46"><path d="M12 8.5A3.5 3.5 0 0 0 8.5 12a3.41 3.41 0 0 0 .21 1.16l4.45-4.45A3.41 3.41 0 0 0 12 8.5zM15.29 10.84l-4.45 4.45a3.41 3.41 0 0 0 1.16.21 3.5 3.5 0 0 0 3.5-3.5 3.41 3.41 0 0 0-.21-1.16z"/><path d="M5.24 16.64l.76-.72A10.91 10.91 0 0 1 3.09 12 9.37 9.37 0 0 1 12 6a10 10 0 0 1 3.34.54l.78-.78A10.89 10.89 0 0 0 12 5c-5.42 0-8.39 3.27-9.91 6.8a.47.47 0 0 0 0 .4 12 12 0 0 0 3.15 4.44zM21.91 11.8a12 12 0 0 0-3.15-4.44l-.76.72A10.91 10.91 0 0 1 20.91 12c-1.25 2.78-3.8 6-8.91 6a10 10 0 0 1-3.34-.54l-.78.78A10.89 10.89 0 0 0 12 19c5.42 0 8.39-3.27 9.91-6.8a.47.47 0 0 0 0-.4z"/><rect x="2" y="11.5" width="20" height="1" rx=".5" transform="rotate(-45 12 12)"/></g></svg><svg viewBox="0 0 24 24" id="it-password-visible" xmlns="http://www.w3.org/2000/svg"><g data-name="Layer 45"><path d="M12 6c5.11 0 7.66 3.22 8.91 6-1.25 2.78-3.8 6-8.91 6a9.35 9.35 0 0 1-8.91-6C4.34 9.21 6.89 6 12 6m0-1c-5.42 0-8.39 3.28-9.91 6.8a.49.49 0 0 0 0 .41C3.61 15.72 6.58 19 12 19s8.39-3.27 9.91-6.79a.49.49 0 0 0 0-.41C20.39 8.27 17.42 5 12 5z"/><path d="M12 10a2 2 0 1 1-2 2 2 2 0 0 1 2-2m0-1.5a3.5 3.5 0 1 0 3.5 3.5A3.5 3.5 0 0 0 12 8.5z"/></g></svg><svg viewBox="0 0 24 24" id="it-pin" xmlns="http://www.w3.org/2000/svg"><path d="M18.17 5.74c-1.65-1.65-3.44-2.67-4.53-2.67a1 1 0 0 0-.73.26c-.49.49-.26 1.57.48 2.83L8.59 11a4.47 4.47 0 0 0-2.09-.74 1 1 0 0 0-.74.26c-.75.75.21 2.93 2.14 5l-3.63 3.55s-.58.89-.38 1.09S5 19.8 5 19.77l3.6-3.62c1.52 1.4 3.1 2.25 4.09 2.25a1 1 0 0 0 .74-.25c.46-.47.27-1.47-.39-2.65l4.89-4.89a4.22 4.22 0 0 0 1.92.65 1 1 0 0 0 .73-.26c.78-.79-.29-3.14-2.41-5.26zm.24 4l-.66-.37-.53.54-4.88 4.88-.54.53.37.66a3.7 3.7 0 0 1 .52 1.42c-.71 0-2.28-.83-3.81-2.37-1.81-1.81-2.39-3.32-2.38-3.81a3.51 3.51 0 0 1 1.58.6l.67.4.55-.55 4.8-4.8.55-.55-.4-.67a3.57 3.57 0 0 1-.6-1.58 7.56 7.56 0 0 1 3.81 2.38c1.8 1.8 2.39 3.31 2.38 3.81a3.58 3.58 0 0 1-1.43-.52z" data-name="Layer 47"/></svg><svg viewBox="0 0 24 24" id="it-plus" xmlns="http://www.w3.org/2000/svg"><path d="M17.25 11.25h-4.5v-4.5a.75.75 0 0 0-1.5 0v4.5h-4.5a.75.75 0 0 0 0 1.5h4.5v4.5a.75.75 0 0 0 1.5 0v-4.5h4.5a.75.75 0 0 0 0-1.5z" data-name="Livello 17"/></svg><svg viewBox="0 0 24 24" id="it-plus-circle" xmlns="http://www.w3.org/2000/svg"><g data-name="Livello 29"><path d="M19.07 4.92a10 10 0 1 0 0 14.14 9.93 9.93 0 0 0 0-14.14zm-.71 13.43A9 9 0 0 1 5.64 5.62a9 9 0 0 1 12.72 12.73z"/><path d="M16.25 11.25h-3.5v-3.5a.75.75 0 0 0-1.5 0v3.5h-3.5a.75.75 0 0 0 0 1.5h3.5v3.5a.75.75 0 0 0 1.5 0v-3.5h3.5a.75.75 0 0 0 0-1.5z"/></g></svg><svg viewBox="0 0 24 24" id="it-presentation" xmlns="http://www.w3.org/2000/svg"><g data-name="Layer 41"><rect x="7.74" y="11.83" width="1.5" height="3.65" rx=".75"/><rect x="11.25" y="7.02" width="1.5" height="8.46" rx=".75"/><rect x="14.76" y="9.4" width="1.5" height="6.08" rx=".75"/><path d="M20 3H3v1h1v12.49A1.5 1.5 0 0 0 5.5 18h4.86L9 22h1l1.41-4h1.2L14 22h1.06l-1.36-4h4.8a1.5 1.5 0 0 0 1.5-1.51V4h1V3zm-1 13.49a.49.49 0 0 1-.5.49h-13a.49.49 0 0 1-.5-.49V4h14z"/></g></svg><svg viewBox="0 0 24 24" id="it-print" xmlns="http://www.w3.org/2000/svg"><g data-name="Layer 5"><path d="M19.5 8.5H19V4.55a1.5 1.5 0 0 0-1.5-1.5h-11A1.5 1.5 0 0 0 5 4.55v4h-.5A1.5 1.5 0 0 0 3 10v5a1.5 1.5 0 0 0 1.5 1.5H5v3A1.5 1.5 0 0 0 6.5 21h11a1.5 1.5 0 0 0 1.5-1.5v-3h.5A1.5 1.5 0 0 0 21 15v-5a1.5 1.5 0 0 0-1.5-1.5zM6 4.55a.5.5 0 0 1 .5-.5h11a.5.5 0 0 1 .5.5v3.94H6zm12 15a.5.5 0 0 1-.5.5h-11a.5.5 0 0 1-.5-.5v-5a.5.5 0 0 1 .5-.5h11a.5.5 0 0 1 .5.5v5zM20 15a.5.5 0 0 1-.5.5H19v-1a1.5 1.5 0 0 0-1.5-1.5h-11A1.5 1.5 0 0 0 5 14.5v1h-.5A.5.5 0 0 1 4 15v-5a.5.5 0 0 1 .5-.5h15a.5.5 0 0 1 .5.5z"/><rect x="7.99" y="16.42" width="8" height="1" rx=".5"/></g></svg><svg viewBox="0 0 24 24" id="it-search" xmlns="http://www.w3.org/2000/svg"><path d="M10.48 2.54A7.5 7.5 0 1 0 15 16l4.76 4.75a.75.75 0 0 0 1.06 0 .75.75 0 0 0 0-1.06L16.09 15a7.49 7.49 0 0 0-5.61-12.46zm0 13.5a6 6 0 1 1 6-6 6 6 0 0 1-6 6z"/></svg><svg viewBox="0 0 24 24" id="it-settings" xmlns="http://www.w3.org/2000/svg"><g data-name="Layer 46"><path d="M13 3v2l.75.2a6.9 6.9 0 0 1 1.8.74l.67.39.54-.54.89-.89 1.42 1.41-.89.89-.55.55.39.67a6.54 6.54 0 0 1 .75 1.79L19 11h2v2h-2l-.19.75a6.54 6.54 0 0 1-.81 1.8l-.39.67.55.55.89.89-1.42 1.41-.89-.89-.54-.54-.67.39a6.9 6.9 0 0 1-1.8.74L13 19v2h-2v-2l-.75-.2a6.9 6.9 0 0 1-1.8-.8l-.67-.39-.54.54-.89.89-1.42-1.38.89-.89.55-.55-.37-.67a6.54 6.54 0 0 1-.75-1.79L5 13H3v-2h2l.19-.76A6.54 6.54 0 0 1 6 8.46l.39-.67-.55-.55-.89-.89 1.4-1.41.89.89.54.54.67-.37a6.9 6.9 0 0 1 1.8-.74L11 5V3h2m.5-1h-3a.5.5 0 0 0-.5.5v1.77a7.92 7.92 0 0 0-2.06.85L6.7 3.88a.5.5 0 0 0-.35-.15.51.51 0 0 0-.35.15L3.87 6a.51.51 0 0 0 0 .71L5.11 8a8 8 0 0 0-.85 2H2.51a.5.5 0 0 0-.5.5v3a.5.5 0 0 0 .5.5h1.75a8.06 8.06 0 0 0 .85 2l-1.24 1.3a.51.51 0 0 0 0 .71L6 20.13a.51.51 0 0 0 .36.15.5.5 0 0 0 .35-.15l1.24-1.24a7.92 7.92 0 0 0 2.06.85v1.76a.5.5 0 0 0 .5.5h3a.5.5 0 0 0 .5-.5v-1.76a7.92 7.92 0 0 0 2.06-.85l1.24 1.24a.5.5 0 0 0 .35.15.51.51 0 0 0 .36-.15L20.13 18a.51.51 0 0 0 0-.71l-1.24-1.24a8.06 8.06 0 0 0 .85-2h1.75a.5.5 0 0 0 .5-.5v-3a.5.5 0 0 0-.5-.5h-1.75A8 8 0 0 0 18.89 8l1.24-1.24a.51.51 0 0 0 0-.71L18 3.88a.51.51 0 0 0-.36-.15.5.5 0 0 0-.35.15l-1.23 1.24A7.92 7.92 0 0 0 14 4.27V2.51a.5.5 0 0 0-.5-.5z"/><path d="M12 9.25A2.75 2.75 0 1 1 9.25 12 2.75 2.75 0 0 1 12 9.25m0-1A3.75 3.75 0 1 0 15.75 12 3.75 3.75 0 0 0 12 8.25z"/></g></svg><svg viewBox="0 0 24 24" id="it-share" xmlns="http://www.w3.org/2000/svg"><path d="M17.54 3a3.48 3.48 0 0 0-3.26 4.75L9.38 10a3.5 3.5 0 1 0 0 4l4.89 2.28A3.46 3.46 0 0 0 14 17.5a3.55 3.55 0 1 0 .73-2.11l-4.91-2.31A3.5 3.5 0 0 0 10 12a3.63 3.63 0 0 0-.19-1.1l4.95-2.31A3.5 3.5 0 1 0 17.54 3zm0 6A2.5 2.5 0 1 1 20 6.47 2.5 2.5 0 0 1 17.54 9zm-11 5.53A2.5 2.5 0 1 1 9 12a2.5 2.5 0 0 1-2.5 2.5zm11 5.5A2.5 2.5 0 1 1 20 17.5a2.5 2.5 0 0 1-2.5 2.5z" data-name="Layer 39"/></svg><svg viewBox="0 0 24 24" id="it-star-full" xmlns="http://www.w3.org/2000/svg"><path d="M12 3.07l2.9 5.88 6.49.94-4.7 4.58 1.11 6.46-5.8-3.05-5.8 3.05 1.11-6.46-4.69-4.58 6.48-.94L12 3.07z" data-name="Layer 40"/></svg><svg viewBox="0 0 24 24" id="it-star-outline" xmlns="http://www.w3.org/2000/svg"><path d="M12 5.33l2 4.06.24.47.52.08 4.48.65L16 13.75l-.37.37.09.52.76 4.46-4-2.11-.48-.24-.47.24-4 2.11.76-4.46.09-.52-.38-.37-3.24-3.16 4.48-.65.52-.08.24-.47 2-4.06m0-2.26L9.1 9l-6.49.94 4.7 4.58-1.11 6.41 5.8-3.05 5.8 3.05-1.11-6.46 4.7-4.58L14.9 9 12 3.07z" data-name="Layer 39"/></svg><svg viewBox="0 0 24 24" id="it-tool" xmlns="http://www.w3.org/2000/svg"><path d="M20.42 7.19a5.09 5.09 0 0 0-.39-1l-.76.76-.85.85a1.5 1.5 0 1 1-2.12-2.14l.85-.85.76-.76a5.09 5.09 0 0 0-1-.39 5 5 0 0 0-6 6.65L5 16.22a2 2 0 0 0 2.83 2.83l5.91-5.91a5 5 0 0 0 6.65-5.95zm-6.28 5a1 1 0 0 0-1.08.22l-5.91 5.93a1 1 0 0 1-1.41-1.41L11.65 11a1 1 0 0 0 .22-1.08A4 4 0 0 1 16 4.51l-.41.49a2.52 2.52 0 0 0 0 3.54 2.51 2.51 0 0 0 3.54 0l.44-.44a4 4 0 0 1-5.43 4.16z" data-name="Layer 46"/></svg><svg viewBox="0 0 24 24" id="it-twitter" xmlns="http://www.w3.org/2000/svg"><path d="M8.08 20a10.93 10.93 0 0 0 11-11v-.5a8 8 0 0 0 1.92-2 7.85 7.85 0 0 1-2.22.61A3.89 3.89 0 0 0 20.48 5a8 8 0 0 1-2.48.91 3.87 3.87 0 0 0-6.69 2.64 3.65 3.65 0 0 0 .1.88 11 11 0 0 1-8-4 3.85 3.85 0 0 0 1.19 5.16 3.76 3.76 0 0 1-1.75-.48A3.87 3.87 0 0 0 6 13.91a3.73 3.73 0 0 1-1 .14 4.3 4.3 0 0 1-.73-.05 3.87 3.87 0 0 0 3.61 2.68 7.73 7.73 0 0 1-4.8 1.66 7 7 0 0 1-.92-.06A10.9 10.9 0 0 0 8.08 20" data-name="Layer 17"/></svg><svg viewBox="0 0 24 24" id="it-twitter-square" xmlns="http://www.w3.org/2000/svg"><path d="M19.5 22h-15A2.5 2.5 0 0 1 2 19.5v-15A2.5 2.5 0 0 1 4.5 2h15A2.5 2.5 0 0 1 22 4.5v15a2.5 2.5 0 0 1-2.5 2.5zm-9.82-4.92A7.24 7.24 0 0 0 17 9.79v-.33a5.22 5.22 0 0 0 1.28-1.33 5.22 5.22 0 0 1-1.48.4 2.56 2.56 0 0 0 1.14-1.42 4.93 4.93 0 0 1-1.64.62 2.53 2.53 0 0 0-1.86-.81 2.57 2.57 0 0 0-2.57 2.57 2.79 2.79 0 0 0 .07.58 7.26 7.26 0 0 1-5.32-2.68 2.59 2.59 0 0 0 .8 3.43 2.78 2.78 0 0 1-1.16-.32 2.57 2.57 0 0 0 2.05 2.52 2.46 2.46 0 0 1-.67.09 2.44 2.44 0 0 1-.48-.05 2.55 2.55 0 0 0 2.39 1.78A5.13 5.13 0 0 1 6.37 16a6.08 6.08 0 0 1-.61 0 7.23 7.23 0 0 0 3.92 1.14" data-name="Layer 12"/></svg><svg viewBox="0 0 24 24" id="it-unlocked" xmlns="http://www.w3.org/2000/svg"><g data-name="Livello 24"><path d="M12 12.77a2 2 0 1 0 2 2 2 2 0 0 0-2-2zm0 3a1 1 0 1 1 1-1 1 1 0 0 1-1 1z"/><path d="M18.5 9h-1.9v-.2a5 5 0 0 0-8.09-4.66.51.51 0 0 0-.06.71.49.49 0 0 0 .7.06 4 4 0 0 1 6.51 3.74c0 .13-.06.25-.09.37H5.5a1.5 1.5 0 0 0-1.5 1.5V19a1.51 1.51 0 0 0 1.5 1.51h13A1.51 1.51 0 0 0 20 19v-8.48A1.5 1.5 0 0 0 18.5 9zm.5 10a.51.51 0 0 1-.5.51h-13A.51.51 0 0 1 5 19v-8.48a.5.5 0 0 1 .5-.5h13a.5.5 0 0 1 .5.5z"/></g></svg><svg viewBox="0 0 24 24" id="it-upload" xmlns="http://www.w3.org/2000/svg"><g data-name="Layer 36"><path d="M3.51 8.48h.13a.5.5 0 0 0 .5-.5V5a1.08 1.08 0 0 1 1.13-1h13.51a1.08 1.08 0 0 1 1.13 1v3a.5.5 0 0 0 .5.5h.13A.5.5 0 0 0 21 8V5a2.14 2.14 0 0 0-2.26-2H5.27A2.14 2.14 0 0 0 3 5v3a.5.5 0 0 0 .51.48z"/><path d="M8 11.49a.75.75 0 0 0 1.06 0l2.24-2.26v11a.75.75 0 0 0 1.5 0v-11l2.25 2.26a.77.77 0 0 0 1.07 0 .75.75 0 0 0 0-1.06l-3-3a1.51 1.51 0 0 0-2.12 0l-3 3a.75.75 0 0 0 0 1.06z"/></g></svg><svg viewBox="0 0 24 24" id="it-user" xmlns="http://www.w3.org/2000/svg"><g data-name="Livello 27"><path d="M19 21a.5.5 0 0 1-.5-.46 6.51 6.51 0 0 0-13 0 .5.5 0 0 1-1-.07 7.52 7.52 0 0 1 15 0 .5.5 0 0 1-.5.53z"/><path d="M12 4a3.75 3.75 0 1 1-3.75 3.72A3.75 3.75 0 0 1 12 4m0-1a4.75 4.75 0 1 0 4.75 4.75A4.75 4.75 0 0 0 12 3z"/></g></svg><svg viewBox="0 0 24 24" id="it-video" xmlns="http://www.w3.org/2000/svg"><g data-name="Layer 47"><path d="M13.08 5h-8a3 3 0 0 0-3 3v8a3 3 0 0 0 3 3h8a3 3 0 0 0 3-3V8a3 3 0 0 0-3-3zm2 11a2 2 0 0 1-2 2h-8a2 2 0 0 1-2-2V8a2 2 0 0 1 2-2h8a2 2 0 0 1 2 2z"/><path d="M20.9 7.06a1.1 1.1 0 0 0-.57.16L17 9.11l-1 .55-1 .58v1.16l1-.58 1.54-.82 3.29-1.9h.07a.15.15 0 0 1 .15.15v7.58a.15.15 0 0 1-.15.15h-.07L17.54 14l-1.46-.84-1-.58v1.16l1 .58 1 .55 3.29 1.89a1.1 1.1 0 0 0 .57.16 1.15 1.15 0 0 0 1.15-1.15V8.21a1.15 1.15 0 0 0-1.19-1.15z"/><rect x="5.52" y="14.5" width="3.05" height="1.49" rx=".75"/></g></svg><svg viewBox="0 0 24 24" id="it-warning" xmlns="http://www.w3.org/2000/svg"><g data-name="Layer 57"><path d="M11.25 4h1.5v12h-1.5z"/><circle cx="12" cy="19" r="1"/></g></svg><svg viewBox="0 0 24 24" id="it-warning-circle" xmlns="http://www.w3.org/2000/svg"><g data-name="Layer 56"><path d="M12 3a9 9 0 0 1 6.36 15.36A9 9 0 0 1 5.64 5.62 8.93 8.93 0 0 1 12 3m0-1a10 10 0 1 0 7.07 2.93A9.93 9.93 0 0 0 12 2z"/><path d="M11.25 5.01h1.5v10h-1.5z"/><circle cx="12" cy="18" r="1"/></g></svg><svg data-name="Layer 13" viewBox="0 0 24 24" id="it-whatsapp" xmlns="http://www.w3.org/2000/svg"><path d="M19.09 4.63a10 10 0 0 0-15.68 12L2 21.8l5.28-1.38A10 10 0 0 0 12 21.63a10 10 0 0 0 7.05-17zM12 20a8.18 8.18 0 0 1-4.21-1.16l-.31-.18-3.13.83.84-3.06-.19-.36A8.28 8.28 0 1 1 12 20zm4.54-6.2c-.25-.13-1.47-.73-1.7-.81s-.39-.13-.56.12a12.44 12.44 0 0 1-.79 1c-.14.16-.29.18-.54.06a6.92 6.92 0 0 1-2-1.23 7.27 7.27 0 0 1-1.38-1.73c-.15-.25 0-.38.11-.51s.25-.29.37-.43a1.51 1.51 0 0 0 .25-.42.46.46 0 0 0 0-.43c-.04-.2-.54-1.42-.75-1.92s-.4-.42-.56-.43h-.47a1 1 0 0 0-.67.31A2.81 2.81 0 0 0 7 9.45 4.73 4.73 0 0 0 8 12a11 11 0 0 0 4.25 3.76 14.84 14.84 0 0 0 1.42.53 3.28 3.28 0 0 0 1.56.09 2.54 2.54 0 0 0 1.68-1.18 2.09 2.09 0 0 0 .15-1.2c-.06-.07-.23-.13-.48-.25z" data-name="WA Logo"/></svg><svg viewBox="0 0 24 24" id="it-whatsapp-square" xmlns="http://www.w3.org/2000/svg"><g data-name="Layer 14"><path d="M16 8.07a5.34 5.34 0 0 0-9.11 3.77 5.28 5.28 0 0 0 .82 2.84l.12.2-.53 2 2-.53.2.11a5.29 5.29 0 0 0 2.71.75A5.34 5.34 0 0 0 16 8.07zm-.83 5.83a1.66 1.66 0 0 1-1.08.76 2.23 2.23 0 0 1-1-.06c-.23-.08-.53-.18-.91-.34a7.16 7.16 0 0 1-2.78-2.42 3.13 3.13 0 0 1-.66-1.66 1.83 1.83 0 0 1 .56-1.34.59.59 0 0 1 .43-.2H10c.1 0 .23 0 .36.27s.45 1.11.49 1.19a.3.3 0 0 1 0 .28 1.2 1.2 0 0 1-.16.27c-.08.1-.17.21-.24.28s-.17.17-.07.33a4.73 4.73 0 0 0 .89 1.11 4.31 4.31 0 0 0 1.29.8c.16.08.25.06.34 0s.4-.47.51-.63.21-.14.36-.08.94.44 1.1.52.26.12.3.19a1.36 1.36 0 0 1-.03.73z"/><path d="M21 7.09a8.26 8.26 0 0 0-.09-1.15 3.49 3.49 0 0 0-1.85-2.51 3.89 3.89 0 0 0-1-.32A8.36 8.36 0 0 0 16.91 3H7.09a8.26 8.26 0 0 0-1.15.09A3.49 3.49 0 0 0 3.43 5a3.89 3.89 0 0 0-.32 1A8.36 8.36 0 0 0 3 7.09v9.82a8.26 8.26 0 0 0 .09 1.15A3.49 3.49 0 0 0 5 20.57a3.89 3.89 0 0 0 1 .32 8.36 8.36 0 0 0 1.16.1h9.82a8.26 8.26 0 0 0 1.15-.09 3.49 3.49 0 0 0 2.51-1.85 3.89 3.89 0 0 0 .32-1 8.36 8.36 0 0 0 .1-1.16V7.57c-.06-.1-.06-.31-.06-.48zm-8.8 11.17a6.39 6.39 0 0 1-3.06-.78l-3.41.89.92-3.32a6.33 6.33 0 0 1-.86-3.21 6.41 6.41 0 0 1 11-4.53 6.33 6.33 0 0 1 1.88 4.54 6.42 6.42 0 0 1-6.47 6.41z"/></g></svg><svg viewBox="0 0 24 24" id="it-youtube" xmlns="http://www.w3.org/2000/svg"><path d="M21.56 7.2a2.5 2.5 0 0 0-1.76-1.77C18.24 5 12 5 12 5s-6.24 0-7.8.42A2.5 2.5 0 0 0 2.44 7.2 25.72 25.72 0 0 0 2 12a25.72 25.72 0 0 0 .42 4.8 2.5 2.5 0 0 0 1.78 1.77C5.76 19 12 19 12 19s6.24 0 7.8-.42a2.5 2.5 0 0 0 1.76-1.77A25.72 25.72 0 0 0 22 12a25.72 25.72 0 0 0-.44-4.8zM10 15V9l5.19 3z" data-name="Layer 7"/></svg><svg viewBox="0 0 24 24" id="it-zoom-in" xmlns="http://www.w3.org/2000/svg"><g data-name="Livello 25"><path d="M20.87 19.72L17.18 16a8 8 0 1 0-1.06 1.07l3.69 3.68a.74.74 0 0 0 1.06 0 .75.75 0 0 0 0-1.03zM4 11a7 7 0 1 1 7 7 7 7 0 0 1-7-7z"/><path d="M14.23 10.22h-2.5v-2.5a.75.75 0 1 0-1.5 0v2.5h-2.5a.75.75 0 0 0 0 1.5h2.5v2.5a.75.75 0 1 0 1.5 0v-2.5h2.5a.75.75 0 0 0 0-1.5z"/></g></svg><svg viewBox="0 0 24 24" id="it-zoom-out" xmlns="http://www.w3.org/2000/svg"><g data-name="Livello 28"><path d="M20.8 19.74l-3.63-3.63a8 8 0 1 0-1.06 1.06l3.63 3.63a.75.75 0 0 0 1.06-1.06zM6.06 16A7 7 0 1 1 11 18a7 7 0 0 1-4.94-2z"/><path d="M14.26 10.26h-6.5a.75.75 0 0 0 0 1.5h6.5a.75.75 0 0 0 0-1.5z"/></g></svg></defs></svg>