<svg xmlns="http://www.w3.org/2000/svg"><symbol id="it-arrow-down-circle" viewBox="0 0 24 24"><path d="M15.6 13.2l.7.7-4.3 4.3-4.3-4.3.7-.7 3.1 3.1V7h1v9.2l3.1-3zM22 12c0 5.5-4.5 10-10 10S2 17.5 2 12 6.5 2 12 2s10 4.5 10 10zm-1 0c0-5-4-9-9-9s-9 4-9 9 4 9 9 9 9-4 9-9z"/></symbol><symbol id="it-arrow-down-triangle" viewBox="0 0 24 24"><path d="M9.2 12h5.6c.6 0 1 .5 1 1 0 .3-.1.5-.3.7L12 17.3l-3.5-3.6c-.4-.4-.4-1 0-1.4.2-.2.4-.3.7-.3z"/></symbol><symbol id="it-arrow-down" viewBox="0 0 24 24"><path d="M17.9 13.2l-5.4 5.3V3h-1v15.5l-5.4-5.3-.7.7 6.6 6.5 6.6-6.5-.7-.7z"/></symbol><symbol id="it-arrow-left-circle" viewBox="0 0 24 24"><path d="M7.7 11.5H17v1H7.8l3 3.1-.7.7L5.8 12l4.3-4.3.7.7-3.1 3.1zM22 12c0 5.5-4.5 10-10 10S2 17.5 2 12 6.5 2 12 2s10 4.5 10 10zm-1 0c0-5-4-9-9-9s-9 4-9 9 4 9 9 9 9-4 9-9z"/></symbol><symbol id="it-arrow-left-triangle" viewBox="0 0 24 24"><path d="M12 9.2v5.6c0 .6-.5 1-1 1-.3 0-.5-.1-.7-.3L6.8 12l3.5-3.5c.4-.4 1-.4 1.4 0 .2.2.3.4.3.7z"/></symbol><symbol id="it-arrow-left" viewBox="0 0 24 24"><path d="M21 11.5H5.5l5.3-5.4-.7-.7L3.6 12l6.5 6.6.7-.7-5.3-5.4H21v-1z"/></symbol><symbol id="it-arrow-right-circle" viewBox="0 0 24 24"><path d="M13.9 7.7l4.3 4.3-4.3 4.3-.7-.7 3.1-3.1H7v-1h9.2l-3-3.1.7-.7zM22 12c0 5.5-4.5 10-10 10S2 17.5 2 12 6.5 2 12 2s10 4.5 10 10zm-1 0c0-5-4-9-9-9s-9 4-9 9 4 9 9 9 9-4 9-9z"/></symbol><symbol id="it-arrow-right-triangle" viewBox="0 0 24 24"><path d="M12 14.8V9.2c0-.6.5-1 1-1 .3 0 .5.1.7.3l3.5 3.5-3.5 3.5c-.4.4-1 .4-1.4 0-.2-.2-.3-.4-.3-.7z"/></symbol><symbol id="it-arrow-right" viewBox="0 0 24 24"><path d="M13.9 5.4l-.7.7 5.3 5.4H3v1h15.5l-5.3 5.4.7.7 6.6-6.6-6.6-6.6z"/></symbol><symbol id="it-arrow-up-circle" viewBox="0 0 24 24"><path d="M12 5.8l4.3 4.3-.7.7-3.1-3.1V17h-1V7.8l-3.1 3-.7-.7L12 5.8zM22 12c0 5.5-4.5 10-10 10S2 17.5 2 12 6.5 2 12 2s10 4.5 10 10zm-1 0c0-5-4-9-9-9s-9 4-9 9 4 9 9 9 9-4 9-9z"/></symbol><symbol id="it-arrow-up-triangle" viewBox="0 0 24 24"><path d="M14.8 12H9.2c-.6 0-1-.5-1-1 0-.3.1-.5.3-.7L12 6.8l3.5 3.5c.4.4.4 1 0 1.4-.2.2-.4.3-.7.3z"/></symbol><symbol id="it-arrow-up" viewBox="0 0 24 24"><path d="M18.6 10.1L12 3.5l-6.6 6.6.7.7 5.4-5.3V21h1V5.5l5.4 5.3.7-.7z"/></symbol><symbol id="it-ban" viewBox="0 0 24 24"><path d="M12 2C6.5 2 2 6.5 2 12s4.5 10 10 10 10-4.5 10-10S17.5 2 12 2zM5.2 17.6C3.8 16 3.1 14 3.1 11.9s.7-4.1 2.1-5.7l12.7 12.7C14 22 8.3 21.4 5.2 17.6zm13.4.5L5.9 5.4c3.7-3.3 9.4-3 12.7.7 3.1 3.4 3.1 8.6 0 12z"/></symbol><symbol id="it-bookmark" viewBox="0 0 24 24"><path d="M18 22.7l-6-6-6 6V2h12v20.7zm-6-7.4l5 5V3H7v17.3l5-5z"/></symbol><symbol id="it-box" viewBox="0 0 24 24"><path d="M21 2H3v4h1v16h16V6h1V2zm-2 19H5V6h14v15zm1-16H4V3h16v2z"/><path d="M8 8h8v1H8z"/></symbol><symbol id="it-burger" viewBox="0 0 24 24"><path d="M22 5v1H2V5h20zM2 12.5h20v-1H2v1zM2 19h20v-1H2v1z"/></symbol><symbol id="it-calendar" viewBox="0 0 24 24"><path d="M20.5 4H17V3h-1v1H8V3H7v1H3.5C2.7 4 2 4.7 2 5.5v13c0 .8.7 1.5 1.5 1.5h17c.8 0 1.5-.7 1.5-1.5v-13c0-.8-.7-1.5-1.5-1.5zm.5 14.5c0 .3-.2.5-.5.5h-17c-.3 0-.5-.2-.5-.5v-13c0-.3.2-.5.5-.5H7v1h1V5h8v1h1V5h3.5c.3 0 .5.2.5.5v13zM4 8h16v1H4V8z"/></symbol><symbol id="it-camera" viewBox="0 0 24 24"><path d="M20.5 20h-17c-.8 0-1.5-.7-1.5-1.5v-10C2 7.7 2.7 7 3.5 7h4.3l1.5-2.3c.3-.4.7-.7 1.2-.7h3c.5 0 .9.3 1.2.7L16.2 7h4.3c.8 0 1.5.7 1.5 1.5v10c0 .8-.7 1.5-1.5 1.5zM3.5 8c-.3 0-.5.2-.5.5v10c0 .3.2.5.5.5h17c.3 0 .5-.2.5-.5v-10c0-.3-.2-.5-.5-.5h-4.8l-1.8-2.8-.4-.2h-3l-.4.2L8.3 8H3.5zM12 18c-2.8 0-5-2.2-5-5s2.2-5 5-5 5 2.2 5 5-2.2 5-5 5zm0-9c-2.2 0-4 1.8-4 4s1.8 4 4 4 4-1.8 4-4-1.8-4-4-4zM7 5H4v1h3V5z"/></symbol><symbol id="it-card" viewBox="0 0 24 24"><path d="M20.5 5h-17C2.7 5 2 5.7 2 6.5v11c0 .8.7 1.5 1.5 1.5h17c.8 0 1.5-.7 1.5-1.5v-11c0-.8-.7-1.5-1.5-1.5zM3 9h18v3H3V9zm18 8.5c0 .3-.2.5-.5.5h-17c-.3 0-.5-.2-.5-.5V13h18v4.5zM3 8V6.5c0-.3.2-.5.5-.5h17c.3 0 .5.2.5.5V8H3zm5 7H4v-1h4v1z"/></symbol><symbol id="it-chart-line" viewBox="0 0 24 24"><path d="M21 20v1H3V3h1v17z"/><path d="M10.5 9.2l2.5 2.5 6-6v3.8h1V4h-5.5v1h3.8L13 10.3l-2.5-2.5-4.3 4.3.6.8z"/></symbol><symbol id="it-check-circle" viewBox="0 0 24 24"><path d="M17.1 7.9l.7.7-7.8 7.6-4.7-4.6.7-.7 4 3.9 7.1-6.9zM22 12c0 5.5-4.5 10-10 10S2 17.5 2 12 6.5 2 12 2s10 4.5 10 10zm-1 0c0-5-4-9-9-9s-9 4-9 9 4 9 9 9 9-4 9-9z"/></symbol><symbol id="it-check" viewBox="0 0 24 24"><path d="M9.6 16.9L4 11.4l.8-.7 4.8 4.8 8.5-8.4.7.7-9.2 9.1z"/></symbol><symbol id="it-chevron-left" viewBox="0 0 24 24"><path d="M14.6 17.2L9 11.6 14.6 6l.8.7-4.9 4.9 4.9 4.9z"/></symbol><symbol id="it-chevron-right" viewBox="0 0 24 24"><path d="M9.8 17.2l-.8-.7 4.9-4.9L9 6.7l.8-.7 5.6 5.6z"/></symbol><symbol id="it-clip" viewBox="0 0 24 24"><path d="M11 22c-1.6.1-2.9-1.2-3-2.8V6c0-2.2 1.8-4 4-4s4 1.8 4 4v10h-1V6c0-1.7-1.3-3-3-3S9 4.3 9 6v13c0 1.1.9 2 2 2s2-.9 2-2V8c0-.6-.4-1-1-1s-1 .4-1 1v8h-1V8c0-1.1.9-2 2-2s2 .9 2 2v11c.1 1.6-1.2 2.9-2.8 3H11z"/></symbol><symbol id="it-clock" viewBox="0 0 24 24"><path d="M11.5 5h1v7.5H7v-1h4.5V5zM22 12c0 5.5-4.5 10-10 10S2 17.5 2 12 6.5 2 12 2s10 4.5 10 10zm-1 0c0-5-4-9-9-9s-9 4-9 9 4 9 9 9 9-4 9-9z"/></symbol><symbol id="it-close-big" viewBox="0 0 24 24"><path d="M12.7 12l6.7 6.6-.8.8-6.6-6.7-6.6 6.7-.8-.8 6.7-6.6-6.7-6.6.8-.8 6.6 6.7 6.6-6.7.8.8-6.7 6.6z"/></symbol><symbol id="it-close-circle" viewBox="0 0 24 24"><path d="M16.3 8.3L12.6 12l3.7 3.6-.7.7-3.7-3.6-3.6 3.6-.7-.7 3.6-3.6-3.6-3.7.7-.7 3.6 3.7 3.7-3.7.7.7zM22 12c0 5.5-4.5 10-10 10S2 17.5 2 12 6.5 2 12 2s10 4.5 10 10zm-1 0c0-5-4-9-9-9s-9 4-9 9 4 9 9 9 9-4 9-9z"/></symbol><symbol id="it-close" viewBox="0 0 24 24"><path d="M12.7 12l3.7 3.6-.8.8-3.6-3.7-3.6 3.7-.8-.8 3.7-3.6-3.7-3.6.8-.8 3.6 3.7 3.6-3.7.8.8-3.7 3.6z"/></symbol><symbol id="it-code-circle" viewBox="0 0 24 24"><path d="M19 12l-2.9 2.9-.7-.8 2.1-2.1-2.1-2.1.7-.8L19 12zM7.9 9.1L5 12l2.9 2.9.7-.8L6.5 12l2.1-2.1-.7-.8zM22 12c0 5.5-4.5 10-10 10S2 17.5 2 12 6.5 2 12 2s10 4.5 10 10zm-1 0c0-5-4-9-9-9s-9 4-9 9 4 9 9 9 9-4 9-9zM9.6 16.5l1 .3 3.7-9.3-.9-.3-3.8 9.3z"/></symbol><symbol id="it-collapse" viewBox="0 0 24 24"><path d="M16.5 15.4l-4.9-4.9-4.9 4.9-.7-.8L11.6 9l5.6 5.6z"/></symbol><symbol id="it-comment" viewBox="0 0 24 24"><path d="M19 3H5c-1.1 0-2 .9-2 2v10c0 1.1.9 2 2 2h2v5.4l1.7-1.7 3.7-3.7H19c1.1 0 2-.9 2-2V5c0-1.1-.9-2-2-2zm1 12c.1.5-.3.9-.8 1H12l-4 4v-4H5c-.5.1-.9-.3-1-.8V5c-.1-.5.3-.9.8-1H19c.5-.1.9.3 1 .8V15zM9 10c.1.5-.3.9-.8 1H8c-.5.1-.9-.3-1-.8V10c-.1-.5.3-.9.8-1H8c.5-.1.9.3 1 .8v.2zm4 0c0 .6-.4 1-1 1s-1-.4-1-1 .4-1 1-1 1 .4 1 1zm4 0c0 .6-.4 1-1 1s-1-.4-1-1 .4-1 1-1 1 .4 1 1z"/></symbol><symbol id="it-copy" viewBox="0 0 24 24"><path d="M19.5 4H18v-.6c-.1-.8-.7-1.4-1.5-1.4h-11c-.8 0-1.4.6-1.5 1.4v15.2c.1.8.7 1.4 1.5 1.4H7v.6c.1.8.7 1.4 1.5 1.4h11c.8 0 1.4-.6 1.5-1.4V5.4c-.1-.8-.7-1.4-1.5-1.4zM5 18.6V3.4c0-.2.3-.4.5-.4h11c.2 0 .5.2.5.4v15.2c0 .2-.3.4-.5.4h-11c-.2 0-.5-.2-.5-.4zm15 2c0 .2-.3.4-.5.4h-11c-.2 0-.5-.2-.5-.4V20h8.5c.8 0 1.4-.6 1.5-1.4V5h1.5c.2 0 .5.2.5.4v15.2z"/></symbol><symbol id="it-delete" viewBox="0 0 24 24"><path d="M15.5 4v-.5c0-.8-.7-1.5-1.5-1.5h-4c-.8 0-1.5.7-1.5 1.5V4H3v1h2v15.5c0 .8.7 1.5 1.5 1.5h11c.8 0 1.5-.7 1.5-1.5V5h2V4h-5.5zm-6-.5c0-.3.2-.5.5-.5h4c.3 0 .5.2.5.5V4h-5v-.5zm8.5 17c0 .3-.2.5-.5.5h-11c-.3 0-.5-.2-.5-.5V5h12v15.5z"/><path d="M11.5 8h1v10h-1zM8 8h1v10H8zM15 8h1v10h-1z"/></symbol><symbol id="it-designers-italia" viewBox="0 0 24 24"><path d="M8.7 20.2v-13h3.6v13.1l-3.6-.1zM23 10.1h-3.3v6.5c0 .2.1.4.3.6s.4.2.8.2h2.1l.2 2.8c-1.2.3-2.1.4-2.8.4-1.6 0-2.7-.3-3.3-1.1-.6-.7-.9-2-.9-3.9v-12h3.6v3.6H23v2.9zm-19.8 1c-.6 0-1.2-.2-1.6-.6-.4-.4-.6-.9-.6-1.5s.2-1.1.6-1.5c.4-.5.9-.7 1.6-.7s1.1.2 1.5.6c.4.5.6 1 .6 1.6s-.2 1.1-.6 1.5-.9.6-1.5.6z"/></symbol><symbol id="it-download" viewBox="0 0 24 24"><path d="M12 14.2L7.7 9.9l.7-.7 3.1 3.1V3h1v9.2l3.1-3 .7.7-4.3 4.3zm7-2.2v7.5c0 .3-.2.5-.5.5h-13c-.3 0-.5-.2-.5-.5V12H4v7.5c0 .8.7 1.5 1.5 1.5h13c.8 0 1.5-.7 1.5-1.5V12h-1z"/></symbol><symbol id="it-error" viewBox="0 0 24 24"><path d="M11.5 14.2V5.7h1.2v8.5h-1.2zm-.1 4.1h1.2v-1.8h-1.2v1.8zM22 7.9v8.3L16.1 22H7.9L2 16.2V7.9L7.9 2h8.2L22 7.9zm-1 .4L15.7 3H8.3L3 8.3v7.5L8.3 21h7.4l5.3-5.2V8.3z"/></symbol><symbol id="it-exchange-circle" viewBox="0 0 24 24"><path d="M12 2C6.5 2 2 6.5 2 12s4.5 10 10 10 10-4.5 10-10S17.5 2 12 2zm0 19c-5 0-9-4-9-9s4-9 9-9 9 4 9 9-4 9-9 9zm5.1-8.9l.8.8-4.3 4.3c-.3.3-.7.4-1.1.4-.4 0-.8-.1-1.1-.4L9 14.7V17H8v-4h4v1H9.7l2.4 2.5h.8l4.2-4.4zm-6-4.6l-4.2 4.4-.8-.8 4.3-4.3c.3-.3.7-.4 1.1-.4.4 0 .8.1 1.1.4L15 9.3V7h1v4h-4v-1h2.3l-2.4-2.5h-.8z"/></symbol><symbol id="it-expand" viewBox="0 0 24 24"><path d="M11.6 15.4L6 9.8l.7-.8 4.9 4.9L16.5 9l.7.8z"/></symbol><symbol id="it-external-link" viewBox="0 0 24 24"><path d="M21 3v6h-1V4.7l-7.6 7.7-.8-.8L19.3 4H15V3h6zm-4 16.5c0 .3-.2.5-.5.5h-12c-.3 0-.5-.2-.5-.5v-12c0-.3.2-.5.5-.5H12V6H4.5C3.7 6 3 6.7 3 7.5v12c0 .8.7 1.5 1.5 1.5h12c.8 0 1.5-.7 1.5-1.5V12h-1v7.5z"/></symbol><symbol id="it-facebook-square" viewBox="0 0 24 24"><path d="M17 0H1C.4 0 0 .4 0 1v16c0 .6.4 1 1 1h8.6v-6.9H7.3V8.3h2.3v-2c-.1-1 .2-1.9.9-2.6s1.6-1.1 2.6-1c.7 0 1.4 0 2.1.1v2.4h-1.4c-1.1 0-1.3.5-1.3 1.3v1.7h2.7l-.4 2.7h-2.3v7H17c.6 0 1-.4 1-1V1c0-.6-.4-1-1-1z" transform="translate(3 3)"/></symbol><symbol id="it-facebook" viewBox="0 0 24 24"><path d="M13.6 22v-9.1h3.1l.5-3.6h-3.5V7.1c0-1 .3-1.7 1.8-1.7h1.9V2.1c-1.1-.1-2-.1-3-.1-2.7 0-4.6 1.7-4.6 4.7v2.6h-3v3.6h3.1V22h3.7z"/></symbol><symbol id="it-file" viewBox="0 0 24 24"><path d="M14.7 2H6.5C5.7 2 5 2.7 5 3.5v17c0 .8.7 1.5 1.5 1.5h11c.8 0 1.5-.7 1.5-1.5V6.3L14.7 2zm.3 1.7L17.3 6h-1.8c-.3 0-.5-.2-.5-.5V3.7zM17.5 21h-11c-.3 0-.5-.2-.5-.5v-17c0-.3.2-.5.5-.5H14v2.5c0 .8.7 1.5 1.5 1.5H18v13.5c0 .3-.2.5-.5.5zM8 9h8v1H8V9zm0 2h8v1H8v-1zm0 2h4v1H8v-1z"/></symbol><symbol id="it-files" viewBox="0 0 24 24"><path d="M15.7 2H7.5C6.7 2 6 2.7 6 3.5V4h-.5C4.7 4 4 4.7 4 5.5v15c0 .8.7 1.5 1.5 1.5h11c.8 0 1.5-.7 1.5-1.5V20h.5c.8 0 1.5-.7 1.5-1.5V6.3L15.7 2zm.3 1.7L18.3 6h-1.8c-.3 0-.5-.2-.5-.5V3.7zm1 16.8c0 .3-.2.5-.5.5h-11c-.3 0-.5-.2-.5-.5v-15c0-.3.2-.5.5-.5H6v13.5c0 .8.7 1.5 1.5 1.5H17v.5zm1.5-1.5h-11c-.3 0-.5-.2-.5-.5v-15c0-.3.2-.5.5-.5H15v2.5c0 .8.7 1.5 1.5 1.5H19v11.5c0 .3-.2.5-.5.5zM9 9h8v1H9V9zm0 2h8v1H9v-1zm0 2h4v1H9v-1z"/></symbol><symbol id="it-flag" viewBox="0 0 24 24"><path d="M17.1 8l3.3-5H5V2H4v20h1v-9h15.4l-3.3-5zM5 4h13.6l-2.7 4 2.7 4H5V4z"/></symbol><symbol id="it-flickr-square" viewBox="0 0 24 24"><path d="M20 4c-.6-.6-1.5-1-2.4-1H6.4c-.9 0-1.8.4-2.4 1-.6.6-1 1.5-1 2.4v11.3c0 .9.4 1.8 1 2.4.6.6 1.5 1 2.4 1h11.2c1.9 0 3.4-1.5 3.4-3.4V6.4c0-.9-.4-1.8-1-2.4zm-9.6 9.8c-1 1-2.5 1-3.5 0s-1-2.5 0-3.5 2.5-1 3.5 0c1 .9 1 2.5 0 3.5zm6.6 0c-.7.7-1.8.9-2.7.5-.9-.4-1.5-1.3-1.5-2.3 0-1 .6-1.9 1.5-2.3.9-.4 2-.2 2.7.5 1 1 1 2.6 0 3.6z"/></symbol><symbol id="it-flickr" viewBox="0 0 24 24"><circle cx="6.7" cy="12" r="4.7"/><circle cx="17.3" cy="12" r="4.7"/></symbol><symbol id="it-folder" viewBox="0 0 24 24"><path d="M20 6h-8l-2-2H4c-1.1 0-2 .9-2 2v12c0 1.1.9 2 2 2h16c1.1 0 2-.9 2-2V8c0-1.1-.9-2-2-2zm1 12c.1.5-.3.9-.8 1H4c-.5.1-.9-.3-1-.8V6c-.1-.5.3-.9.8-1h5.8l1.7 1.7.3.3H20c.5-.1.9.3 1 .8V18zM4 8h16v1H4V8z"/></symbol><symbol id="it-fullscreen" viewBox="0 0 24 24"><path d="M4 20h4.5v1H3v-5.5h1zM3 8.5h1V4h4.5V3H3zM20 20h-4.5v1H21v-5.5h-1zM15.5 3v1H20v4.5h1V3z"/></symbol><symbol id="it-funnel" viewBox="0 0 24 24"><path d="M14 22h-1v-8.6L20 3H4l7 10.4V22h-1v-8.4L2 2h20l-8 11.6V22z"/></symbol><symbol id="it-github" viewBox="0 0 24 24"><path d="M12 2c-4.9 0-9.1 3.6-9.9 8.4s2.1 9.5 6.7 11.1c.5.1.7-.2.7-.5v-1.7c-2.8.6-3.4-1.3-3.4-1.3-.1-.6-.6-1.2-1.1-1.5-.9-.6.1-.6.1-.6.6.1 1.2.5 1.5 1 .6 1 1.9 1.4 2.9.8 0-.5.3-1 .6-1.3-2.1-.2-4.5-1.1-4.5-4.9 0-1 .3-2 1-2.7-.3-.9-.2-1.8.1-2.6 0 0 .8-.3 2.8 1 1.6-.4 3.4-.4 5 0 1.9-1.3 2.7-1 2.7-1 .4.8.4 1.8.1 2.6.7.7 1 1.7 1 2.7 0 3.8-2.3 4.7-4.6 4.9.5.5.7 1.2.7 1.9v2.8c0 .4.2.6.7.5 4.7-1.5 7.5-6.2 6.7-11.1S16.9 2 12 2z"/></symbol><symbol id="it-google" viewBox="0 0 24 24"><path d="M12.545 10.239v3.821h5.445c-.712 2.315-2.647 3.972-5.445 3.972a6.033 6.033 0 110-12.064c1.498 0 2.866.549 3.921 1.453l2.814-2.814A9.969 9.969 0 0012.545 2C7.021 2 2.543 6.477 2.543 12s4.478 10 10.002 10c8.396 0 10.249-7.85 9.426-11.748l-9.426-.013z"/></symbol><symbol id="it-hearing" viewBox="0 0 24 24"><path d="M20 9c0 2.5-1.3 4.8-3.5 6l-2 1.1c-.9.6-1.5 1.6-1.5 2.7 0 1.8-1.4 3.2-3.2 3.2h-.6c-1.3-.1-2.5-.9-3-2.1l.9-.5c.3.9 1.1 1.6 2.1 1.6h.6c.6 0 1.2-.2 1.6-.7.4-.4.6-.9.6-1.5 0-1.4.8-2.8 2-3.5l2-1.2c1.8-1 3-3 3-5.1 0-3.3-2.7-6-6-6-1.9 0-3.7.9-4.8 2.4l-.8-.6C8.7 3 10.8 2 13 2c3.9 0 7 3.1 7 7zM7.5 12C7.5 9 5 6.5 2 6.5v1c2.5 0 4.5 2 4.5 4.5s-2 4.5-4.5 4.5v1c3 0 5.5-2.5 5.5-5.5zM5 12c.1-1.6-1.2-2.9-2.8-3H2v1c1.1 0 2 .9 2 2s-.9 2-2 2v1c1.6.1 2.9-1.2 3-2.8V12zm5 0c0-4.4-3.6-8-8-8v1c3.9 0 7 3.1 7 7s-3.1 7-7 7v1c4.4 0 8-3.6 8-8zm5.9.3c.8-.9 1.2-2 1.2-3.2 0-1.2-.4-2.3-1.2-3.2-.8-.9-2-1.4-3.2-1.4-1.2.1-2.4.6-3.2 1.5l-.3.3.2.3c.6.9 1.1 1.9 1.3 3v.4h.4c.8 0 1.5.7 1.5 1.5s-.7 1.5-1.5 1.5v1c1.4 0 2.5-1.1 2.5-2.5 0-1.2-.8-2.2-2-2.5-.2-.9-.6-1.8-1.1-2.6.6-.5 1.4-.8 2.2-.9.9 0 1.8.4 2.4 1 .7.7 1 1.6 1 2.6s-.3 1.9-1 2.6l.8.6z"/></symbol><symbol id="it-help-circle" viewBox="0 0 24 24"><path d="M12 2C6.5 2 2 6.5 2 12s4.5 10 10 10 10-4.5 10-10S17.5 2 12 2zm0 19c-5 0-9-4-9-9s4-9 9-9 9 4 9 9-4 9-9 9zm-1.2-4.5H12v1.8h-1.2v-1.8zm4.5-8c0 .6-.1 1.2-.3 1.8-.3.5-.8 1-1.3 1.4L12.3 13c-.2.4-.4.8-.4 1.2v.6H11c-.1-.3-.2-.7-.2-1 0-.4.2-.9.5-1.2.4-.5.9-1 1.4-1.4.5-.4.9-.8 1.2-1.3.2-.4.3-.9.3-1.4 0-.5-.2-1.1-.6-1.4-.6-.3-1.3-.5-2-.4L9.3 7h-.5v-.8c1-.3 2-.5 3-.5.9-.1 1.9.1 2.7.6.6.6.9 1.4.8 2.2z"/></symbol><symbol id="it-help" viewBox="0 0 24 24"><path d="M12.8 22h-1.4v-2.1h1.4V22zm-.1-4.9h-1.2c-.1-.6-.1-1.1-.1-1.7 0-.4.1-.8.3-1.2.2-.5.4-.9.7-1.3l2.3-2.1c.7-.6 1.3-1.3 1.8-2.1.4-.7.5-1.5.5-2.3.1-1-.3-2-1.1-2.6-1-.6-2.2-.8-3.4-.7-1.2.1-2.4.2-3.6.5l-1 .3-.2-1.2h.1c1.5-.5 3.1-.7 4.7-.8 1.5-.1 3 .2 4.3 1 1 .9 1.5 2.2 1.4 3.5.1.9-.1 1.9-.5 2.7-.5.8-1.1 1.6-1.9 2.2-.6.5-1.2 1-1.8 1.6l-.9 1.2c-.3.4-.4.9-.4 1.4v1.6z"/></symbol><symbol id="it-horn" viewBox="0 0 24 24"><path d="M5 9c-1.7 0-3 1.3-3 3s1.3 3 3 3h.5L7 19.3c.3 1 1.3 1.7 2.3 1.7h.2c.5 0 .9-.2 1.2-.6.3-.4.4-.9.2-1.4l-1.3-4h1.8l8.6 3.8V4.7L11.4 9H5zm5 10.3c0 .2 0 .4-.1.5l-.4.2h-.2c-.6 0-1.2-.4-1.4-1l-1.3-4h1.9l1.5 4.3zM5 14c-1.1 0-2-.9-2-2s.9-2 2-2h6v4H5zm14 3.2l-7-3V9.8l7-3.5v10.9zM22 9v6h-1V9h1z"/></symbol><symbol id="it-inbox" viewBox="0 0 24 24"><path d="M4 2v14h3.7l1 2h6.6l1-2H20V2H4zm15 13h-3.3l-1 2H9.3l-1-2H5V3h14v12z"/><path d="M19 17h1v5H4v-5h1v4h14zM7 5h10v1H7zM7 8h10v1H7zM7 11h10v1H7z"/></symbol><symbol id="it-info-circle" viewBox="0 0 24 24"><path d="M12 2C6.5 2 2 6.5 2 12s4.5 10 10 10 10-4.5 10-10S17.5 2 12 2zm0 19c-5 0-9-4-9-9s4-9 9-9 9 4 9 9-4 9-9 9zm-.7-15h1.5v2h-1.5V6zm0 3h1.5v9h-1.5V9z"/></symbol><symbol id="it-instagram" viewBox="0 0 24 24"><path d="M12 4.6c-2.4.1-2.6.1-3.6.1-.6 0-1.2.1-1.7.3-.4.2-.7.4-1 .7-.3.3-.5.6-.7 1-.2.5-.3 1.1-.3 1.7v7.2c0 .6.1 1.1.3 1.7.2.4.4.7.7 1 .3.3.6.5 1 .7.5.2 1.1.3 1.7.3 1 .1 1.2.1 3.6.1s2.6-.1 3.6-.1c.6 0 1.1-.1 1.7-.3.8-.3 1.4-.9 1.7-1.7.2-.5.3-1.1.3-1.7.1-.9.1-1.2.1-3.6s-.1-2.6-.1-3.6c0-.6-.1-1.1-.3-1.7-.2-.4-.4-.7-.7-1-.3-.3-.6-.5-1-.7-.5-.2-1.1-.3-1.7-.4H12zM12 3h3.7c.7 0 1.5.2 2.2.4 1.2.5 2.2 1.4 2.7 2.6.2.8.4 1.5.4 2.3v7.4c0 .8-.2 1.5-.5 2.2-.5 1.2-1.4 2.2-2.6 2.6-.7.3-1.4.4-2.2.4H8.3c-.8 0-1.5-.2-2.2-.5-1.2-.5-2.2-1.4-2.6-2.6-.3-.7-.4-1.4-.4-2.2v-3.7-3.7c0-.7.2-1.5.4-2.2.5-1.2 1.4-2.2 2.6-2.7.7-.1 1.4-.3 2.2-.3H12zm0 4.4c1.2 0 2.4.5 3.3 1.4s1.4 2 1.4 3.3c0 2.6-2.1 4.6-4.6 4.6S7.4 14.6 7.4 12s2-4.6 4.6-4.6zm0 7.6c.8 0 1.6-.3 2.1-.9.6-.6.9-1.3.9-2.1 0-1.7-1.3-3-3-3s-3 1.3-3 3 1.3 3 3 3zm4.8-6.7c-.6 0-1.1-.5-1.1-1.1s.5-1.1 1.1-1.1c.6 0 1.1.5 1.1 1.1s-.5 1.1-1.1 1.1z"/></symbol><symbol id="it-key" viewBox="0 0 24 24"><path d="M18 10c-1.1 0-2 .9-2 2s.9 2 2 2 2-.9 2-2-.9-2-2-2zm0 3c-.6 0-1-.4-1-1s.4-1 1-1 1 .4 1 1c.1.5-.3.9-.8 1H18zm-1-6c-2 0-3.8 1.2-4.6 3H3.3l-2 2 3 3H7v-1h.3l1 1H11v-1h1.4c.8 1.8 2.6 3 4.6 3 2.8 0 5-2.2 5-5s-2.2-5-5-5zm0 9c-1.7 0-3.2-1.1-3.8-2.7V13H10v1H8.7l-1-1H6v1H4.7l-2-2 1-1h9.4v-.3C13.7 9.1 15.3 8 17 8c2.2 0 4 1.8 4 4s-1.8 4-4 4z"/></symbol><symbol id="it-less-circle" viewBox="0 0 24 24"><path d="M12 3c5 0 9 4 9 9 0 2.4-.9 4.7-2.6 6.4-3.5 3.5-9.2 3.5-12.7 0s-3.5-9.2 0-12.7C7.3 3.9 9.6 3 12 3m0-1C6.5 2 2 6.5 2 12s4.5 10 10 10 10-4.5 10-10c0-2.7-1.1-5.2-2.9-7.1C17.2 3 14.7 2 12 2z"/><path d="M7.8 11.3h8.5c.4 0 .8.3.8.8 0 .4-.3.8-.8.8H7.8c-.5-.1-.8-.5-.8-.9s.3-.7.8-.7z"/></symbol><symbol id="it-link" viewBox="0 0 24 24"><path d="M13.4 13.4l-.7-.7c.6-.5.9-1.3.9-2.1s-.3-1.6-.9-2.1L9.2 4.9C8 3.8 6.1 3.8 4.9 4.9 3.8 6.1 3.8 8 4.9 9.2L7.8 12l-.7.7-2.9-2.8c-1.5-1.6-1.5-4.1 0-5.7 1.6-1.5 4.1-1.5 5.7 0l3.5 3.6c.8.7 1.2 1.7 1.2 2.8 0 1.1-.4 2.1-1.2 2.8zm6.4 6.4c1.5-1.6 1.5-4.1 0-5.7l-2.9-2.8-.7.7 2.9 2.8c1.1 1.2 1.1 3.1 0 4.3-1.2 1.1-3.1 1.1-4.3 0l-3.5-3.6c-.6-.5-.9-1.3-.9-2.1s.3-1.6.9-2.1l-.7-.7c-.8.7-1.2 1.7-1.2 2.8 0 1.1.4 2.1 1.2 2.8l3.5 3.6c.7.7 1.8 1.1 2.8 1.1 1.1.1 2.1-.3 2.9-1.1z"/></symbol><symbol id="it-linkedin-square" viewBox="0 0 24 24"><path d="M19.7 3H4.3C3.6 3 3 3.6 3 4.3v15.4c0 .7.6 1.3 1.3 1.3h15.3c.7 0 1.3-.6 1.3-1.3V4.3c.1-.7-.5-1.3-1.2-1.3zM8.3 18.3H5.7V9.8h2.7v8.5zM7 8.6c-.9 0-1.5-.7-1.5-1.6 0-.9.7-1.5 1.5-1.6s1.5.7 1.6 1.6c0 .4-.2.8-.4 1.1-.4.3-.8.5-1.2.5zm11.3 9.7h-2.7v-4.2c0-1 0-2.3-1.4-2.3s-1.6 1.1-1.6 2.2v4.3H10V9.8h2.6V11c.5-.9 1.5-1.4 2.5-1.4 2.7 0 3.2 1.8 3.2 4.1v4.6z"/></symbol><symbol id="it-linkedin" viewBox="0 0 24 24"><path d="M16.5 8.7c-1.4 0-2.8.7-3.5 1.9V9H9.4v12h3.7v-5.9c0-1.6.3-3.1 2.2-3.1s1.9 1.8 1.9 3.2V21H21v-6.6c0-3.2-.7-5.7-4.5-5.7zM5.2 3C4 3 3 4 3 5.2c0 1.2 1 2.2 2.2 2.2s2.2-1 2.2-2.2c0-.6-.2-1.1-.6-1.5-.5-.5-1.1-.7-1.6-.7zM3.3 9v12H7V9H3.3zm13.2-.3c-1.4-.1-2.8.7-3.5 1.9V9H9.4v12h3.7v-5.9c0-1.6.3-3.1 2.2-3.1s1.9 1.8 1.9 3.2V21H21v-6.6c0-3.2-.7-5.7-4.5-5.7zM3.3 21H7V9H3.3v12zM5.2 3C4 3 3 4 3 5.2c0 1.2 1 2.2 2.2 2.2s2.2-1 2.2-2.2c0-.6-.2-1.1-.6-1.5-.5-.5-1.1-.7-1.6-.7z"/></symbol><symbol id="it-list" viewBox="0 0 24 24"><path d="M4 12c.1.5-.3.9-.8 1H3c-.6 0-1-.4-1-1s.4-1 1-1c.5-.1.9.3 1 .8v.2zM3 4.5c-.5-.1-.9.3-1 .8v.2c-.1.5.3.9.8 1H3c.5.1.9-.3 1-.8v-.2c.1-.5-.3-.9-.8-1H3zm0 13c-.6 0-1 .4-1 1s.4 1 1 1 1-.4 1-1-.4-1-1-1zM6 5v1h16V5H6zm0 7.5h16v-1H6v1zM6 19h16v-1H6v1z"/></symbol><symbol id="it-lock" viewBox="0 0 24 24"><path d="M18.5 8.5H17V8c0-2.8-2.2-5-5-5S7 5.2 7 8v.5H5.5C4.7 8.5 4 9.2 4 10v8.5c0 .8.7 1.5 1.5 1.5h13c.8 0 1.5-.7 1.5-1.5V10c0-.8-.7-1.5-1.5-1.5zM8 8c0-2.2 1.8-4 4-4s4 1.8 4 4v.5H8V8zm11 10.5c0 .3-.2.5-.5.5h-13c-.3 0-.5-.2-.5-.5V10c0-.3.2-.5.5-.5h13c.3 0 .5.2.5.5v8.5z"/><path d="M12 13.3c.6 0 1 .4 1 1s-.4 1-1 1-1-.4-1-1 .4-1 1-1m0-1c-1.1 0-2 .9-2 2s.9 2 2 2 2-.9 2-2-.9-2-2-2z"/></symbol><symbol id="it-locked" viewBox="0 0 24 24"><path d="M16.5 12H16V7c0-2.2-1.8-4-4-4S8 4.8 8 7v5h-.5c-.6 0-1.1.5-1.1 1.1v6.8c0 .6.5 1.1 1.1 1.1h9c.6 0 1.1-.5 1.1-1.1v-6.8c0-.6-.5-1.1-1.1-1.1zM9 7c0-1.7 1.3-3 3-3s3 1.3 3 3v5H9V7zm7.6 12.9c0 .1 0 .1-.1.1h-9c-.1 0-.1 0-.1-.1v-6.8h9.2v6.8zM13 15.5c0 .3-.2.7-.5.8v1.5h-1v-1.5c-.3-.1-.5-.5-.5-.8 0-.6.4-1 1-1s1 .4 1 1z"/></symbol><symbol id="it-mail" viewBox="0 0 24 24"><path d="M20.5 5h-17C2.7 5 2 5.7 2 6.5v11c0 .8.7 1.5 1.5 1.5h17c.8 0 1.5-.7 1.5-1.5v-11c0-.8-.7-1.5-1.5-1.5zm-.3 1l-7.1 7.2c-.6.6-1.6.6-2.2 0L3.8 6h16.4zM3 17.3V6.6L8.3 12 3 17.3zm.7.7L9 12.7l1.2 1.2c1 .9 2.6.9 3.6 0l1.2-1.2 5.3 5.3H3.7zm12-6L21 6.6v10.7L15.7 12z"/></symbol><symbol id="it-map-marker-circle" viewBox="0 0 24 24"><path d="M17.7 5.3C16 2.2 12 1.1 8.9 2.8s-4.3 5.7-2.5 8.8L12 22l5.7-10.4c.5-1 .8-2 .8-3.1s-.3-2.2-.8-3.2zm-.9 5.8L12 19.9l-4.8-8.8c-.5-.8-.7-1.7-.7-2.7C6.5 5.4 9 3 12 3s5.5 2.5 5.5 5.5c0 .9-.2 1.8-.7 2.6z"/><path d="M12 5c-1.9 0-3.5 1.6-3.5 3.5S10.1 12 12 12s3.5-1.6 3.5-3.5S13.9 5 12 5zm0 6c-1.4 0-2.5-1.1-2.5-2.5S10.6 6 12 6s2.5 1.1 2.5 2.5S13.4 11 12 11z"/></symbol><symbol id="it-map-marker-minus" viewBox="0 0 24 24"><path d="M17.7 5.3C16 2.2 12 1.1 8.9 2.8s-4.3 5.7-2.5 8.8L12 22l5.7-10.4c.5-1 .8-2 .8-3.1s-.3-2.2-.8-3.2zm-.9 5.8L12 19.9l-4.8-8.8c-.5-.8-.7-1.7-.7-2.7C6.5 5.4 9 3 12 3s5.5 2.5 5.5 5.5c0 .9-.2 1.8-.7 2.6z"/></symbol><symbol id="it-map-marker-plus" viewBox="0 0 24 24"><path d="M15.1 2.8c-1-.5-2-.8-3.1-.8-3.6 0-6.5 2.9-6.5 6.5 0 1.1.3 2.2.8 3.1L12 22l5.7-10.4c1.7-3.2.5-7.1-2.6-8.8zm1.7 8.3L12 19.9l-4.8-8.8c-1.5-2.7-.5-6 2.1-7.5 2.7-1.5 6-.5 7.5 2.1.5.8.7 1.7.7 2.7s-.2 1.9-.7 2.7z"/><path d="M12.5 8h3v1h-3v3h-1V9h-3V8h3V5h1z"/></symbol><symbol id="it-map-marker" viewBox="0 0 24 24"><path d="M12 22L6.3 11.6c-1.7-3.1-.6-7 2.6-8.8s7.1-.6 8.8 2.5c.5 1 .8 2 .8 3.1s-.3 2.2-.8 3.1L12 22zm0-19C9 3 6.5 5.5 6.5 8.5c0 .9.2 1.9.7 2.7L12 20l4.8-8.8c1.5-2.6.5-6-2.1-7.5-.8-.5-1.8-.7-2.7-.7z"/></symbol><symbol id="it-maximize-alt" viewBox="0 0 24 24"><path d="M15.1 18.1l.7.7-3.8 3.9-3.9-3.9.7-.7 2.7 2.7v-7.3h1v7.3zM18.9 8.1l-.8.7 2.7 2.7h-7.3v1h7.3l-2.6 2.6.7.7 3.8-3.8zM11.5 3.2v7.3h1V3.2l2.6 2.6.7-.7L12 1.3 8.1 5.1l.7.7zM10.5 12.5v-1H3.2l2.6-2.7-.6-.7L1.3 12l3.8 3.8.7-.7-2.6-2.6z"/></symbol><symbol id="it-maximize" viewBox="0 0 24 24"><path d="M4.7 4l6.7 6.6-.7.7L4 4.7v3.8H3V3h5.5v1zM20 19.3l-6.6-6.7-.7.7 6.6 6.7h-3.8v1H21v-5.5h-1zM15.5 3v1h3.8l-6.6 6.6.7.7L20 4.7v3.8h1V3zM10.6 12.6L4 19.3v-3.8H3V21h5.5v-1H4.7l6.7-6.7z"/></symbol><symbol id="it-medium-square" viewBox="0 0 24 24"><path d="M3 3h18v18H3V3zm4.3 11.4c0 .2 0 .4-.2.5l-1.3 1.5v.2h3.6v-.2l-1.3-1.5c-.1-.1-.1-.3-.1-.5V9.7l3.2 6.9h.4l2.7-6.9v5.5c0 .2 0 .2-.1.3l-1 1v.2h4.7v-.2l-.9-1c-.1-.1-.1-.2-.1-.3V8.5c0-.1 0-.2.1-.3l1-.9v-.2h-3.4L12.2 13 9.5 7.1H6v.2l1.1 1.4c.1 0 .2.2.2.3v5.4z"/></symbol><symbol id="it-medium" viewBox="0 0 24 24"><path d="M5 7.6c0-.2 0-.4-.2-.6L3.1 5v-.3h5.2l4 8.8 3.5-8.8h5V5l-1.4 1.4c-.1.1-.2.2-.2.4v10.1c0 .2 0 .3.2.4l1.4 1.4v.3h-7v-.3l1.4-1.4c.1-.1.1-.2.1-.4V8.7L11.4 19h-.6L6.1 8.7v6.9c0 .3.1.6.3.8l1.9 2.3v.3H2.9v-.3l1.9-2.3c.2-.2.3-.5.2-.8v-8z"/></symbol><symbol id="it-minimize" viewBox="0 0 24 24"><path d="M3 15.5h5.5V21h-1v-4.5H3zM7.5 7.5H3v1h5.5V3h-1zM15.5 21h1v-4.5H21v-1h-5.5zM16.5 7.5V3h-1v5.5H21v-1z"/></symbol><symbol id="it-minus-circle" viewBox="0 0 24 24"><path d="M6.9 11.5h10v1h-10v-1zM22 12c0 5.5-4.5 10-10 10S2 17.5 2 12 6.5 2 12 2s10 4.5 10 10zm-1 0c0-5-4-9-9-9s-9 4-9 9 4 9 9 9 9-4 9-9z"/></symbol><symbol id="it-minus" viewBox="0 0 24 24"><path d="M20 12.5H4v-1h16v1z"/></symbol><symbol id="it-more-actions" viewBox="0 0 24 24"><path d="M6 10c-1.1 0-2 .9-2 2s.9 2 2 2 2-.9 2-2-.9-2-2-2zm0 3c-.6 0-1-.4-1-1s.4-1 1-1 1 .4 1 1-.4 1-1 1zm6-3c-1.1 0-2 .9-2 2s.9 2 2 2 2-.9 2-2-.9-2-2-2zm0 3c-.6 0-1-.4-1-1s.4-1 1-1 1 .4 1 1c.1.5-.3.9-.8 1H12zm6-3c-1.1 0-2 .9-2 2s.9 2 2 2 2-.9 2-2-.9-2-2-2zm0 3c-.6 0-1-.4-1-1s.4-1 1-1 1 .4 1 1c.1.5-.3.9-.8 1H18z"/></symbol><symbol id="it-more-items" viewBox="0 0 24 24"><path d="M12 18c.6 0 1 .4 1 1s-.4 1-1 1-1-.4-1-1c-.1-.5.3-.9.8-1h.2m0-1c-1.1 0-2 .9-2 2s.9 2 2 2 2-.9 2-2-.9-2-2-2zm0-6c.6 0 1 .4 1 1s-.4 1-1 1-1-.4-1-1c-.1-.5.3-.9.8-1h.2m0-1c-1.1 0-2 .9-2 2s.9 2 2 2 2-.9 2-2-.9-2-2-2zm0-6c.5-.1.9.3 1 .8V5c0 .6-.4 1-1 1s-1-.4-1-1c-.1-.5.3-.9.8-1h.2m0-1c-1.1 0-2 .9-2 2s.9 2 2 2 2-.9 2-2-.9-2-2-2z"/></symbol><symbol id="it-note" viewBox="0 0 24 24"><path d="M18.5 4h-13C4.7 4 4 4.7 4 5.5v13c0 .8.7 1.5 1.5 1.5h10.2l4.3-4.3V5.5c0-.8-.7-1.5-1.5-1.5zM5 18.5v-13c0-.3.2-.5.5-.5h13c.3 0 .5.2.5.5V15h-2.5c-.8 0-1.5.7-1.5 1.5V19H5.5c-.3 0-.5-.2-.5-.5zM18.3 16L16 18.3v-1.8c0-.3.2-.5.5-.5h1.8zM16 9H8V8h8v1zm0 2H8v-1h8v1zm-2 1v1H8v-1h6z"/></symbol><symbol id="it-open-source" viewBox="0 0 24 24"><path d="M10 0C4.5 0 0 4.5 0 10c0 4.3 2.7 8.1 6.8 9.5l1.7-5.8.3-1C7.7 12.3 7 11.2 7 10c0-1.7 1.3-3 3-3s3 1.3 3 3c0 1.2-.7 2.3-1.9 2.8l.3 1 1.8 5.8c5.3-1.7 8.1-7.3 6.4-12.6-1.3-4.2-5.2-7-9.6-7zm3.8 18.1l-1.5-4.9c.1-.1.2-.1.2-.2.1-.1.2-.1.2-.2l.2-.2c.3-.3.6-.7.7-1.1l.1-.3c0-.1.1-.2.1-.3 0-.2.1-.3.1-.5V10c0-2.2-1.8-4-4-4s-4 1.8-4 4v.5c0 .2.1.3.1.4 0 .2.1.3.1.4.1.3.3.6.4.8.1.1.2.3.3.4l.3.3c.1.1.2.2.4.3L6 18C1.5 15.9-.4 10.5 1.7 6s7.5-6.4 12-4.3 6.4 7.5 4.3 12c-.7 2-2.3 3.6-4.2 4.4z" transform="translate(2 2)"/></symbol><symbol id="it-pa" viewBox="0 0 24 24"><path d="M3 21h18v1H3v-1zm0-1h18v-1H3v1zM22 9H2l10-7 10 7zM5.2 8h13.6L12 3.2 5.2 8zM6 18v-8H5v8h1zm4 0v-8H9v8h1zm5 0v-8h-1v8h1zm4 0v-8h-1v8h1z"/></symbol><symbol id="it-password-invisible" viewBox="0 0 24 24"><path d="M15 12c0-.7-.3-1.4-.7-1.9l.4-1.1c.8.8 1.3 1.9 1.3 3 0 2.2-1.7 3.9-3.9 4l.4-1.1c1.4-.2 2.5-1.4 2.5-2.9zM3.1 12C4.8 8.6 8.2 6.5 12 6.5h.4l.4-.9H12c-4.1 0-7.9 2.3-9.8 6L2 12l.2.5c1.3 2.5 3.5 4.4 6.1 5.3l.3-.9C6.2 16 4.2 14.3 3.1 12zm18.7-.5c-1.3-2.5-3.5-4.4-6.1-5.3l-.3.9c2.4.9 4.4 2.6 5.5 4.9a9.88 9.88 0 01-8.9 5.5h-.4l-.4.9h.8c4.1 0 7.9-2.3 9.8-6l.2-.4-.2-.5zM11.5 9.1l.4-1.1C9.7 8.1 8 9.8 8 12c0 1.1.5 2.2 1.3 3l.4-1.1c-.4-.5-.7-1.2-.7-1.9 0-1.5 1.1-2.7 2.5-2.9zm3.1-5.7L8.5 20.3l.9.3 6.1-16.9-.9-.3z"/></symbol><symbol id="it-password-visible" viewBox="0 0 24 24"><path d="M21.8 11.5C19 6.1 12.4 3.9 7 6.7c-2.1 1.1-3.7 2.7-4.8 4.8L2 12l.2.5c2.8 5.4 9.4 7.6 14.8 4.8 2.1-1.1 3.7-2.7 4.8-4.8l.2-.5-.2-.5zm-9.8 6c-3.8 0-7.2-2.1-8.9-5.5C4.8 8.6 8.2 6.5 12 6.5c3.8 0 7.2 2.1 8.9 5.5a9.88 9.88 0 01-8.9 5.5zM12 8c-2.2 0-4 1.8-4 4s1.8 4 4 4 4-1.8 4-4-1.8-4-4-4zm0 7c-1.7 0-3-1.3-3-3s1.3-3 3-3 3 1.3 3 3c.1 1.6-1.2 2.9-2.8 3H12z"/></symbol><symbol id="it-pencil" viewBox="0 0 24 24"><path d="M20.5 3.5c-.5-.6-1.3-.9-2.1-.9s-1.6.3-2.2.9L4.6 15.2l-1 5.2 5.2-1L20.5 7.8c1.2-1.2 1.2-3.1 0-4.3zm-5.7 2.8l.7-.7 2.9 2.9-.7.7-2.9-2.9zm-.7.8l1.1 1-8.4 8.4-1.1-1.1 8.4-8.3zM5.7 18.3c-.1-.2-.4-.3-.6-.3l.3-1.5 2.1 2.1-1.5.3c0-.2-.1-.5-.3-.6zm2.9 0l-1.1-1.1 8.4-8.4 1 1.1-8.3 8.4zM19.8 7.1l-.7.7-2.9-2.9.7-.7c.4-.4.9-.6 1.5-.6.5 0 1 .2 1.4.6.8.8.8 2.1 0 2.9z"/></symbol><symbol id="it-piattaforme" viewBox="0 0 24 24"><path d="M9 1.1L15.9 5 9 8.9 2.1 5 9 1.1M9 0L0 5l9 5 9-5-9-5zM18 11.7l-9 5-9-5 1-.5 8 4.4 8-4.5z" transform="translate(3 3)"/><path d="M18 8.5l-9 5-9-5L1 8l8 4.4 8-4.5z" transform="translate(3 3)"/></symbol><symbol id="it-pin" viewBox="0 0 24 24"><path d="M18.1 14L15 10.3V4.6L16.3 2H7.7L9 4.6v5.7L5.9 14h5.6v8h1v-8h5.6zM10 5h4v5h-4V5zm4.7-2l-.5 1H9.8l-.5-1h5.4zm-5 8h4.6l1.6 2H8.1l1.6-2z"/></symbol><symbol id="it-plus-circle" viewBox="0 0 24 24"><path d="M12.4 11.5h4.5v1h-4.5V17h-1v-4.5H6.9v-1h4.5V7h1v4.5zm9.6.5c0 5.5-4.5 10-10 10S2 17.5 2 12 6.5 2 12 2s10 4.5 10 10zm-1 0c0-5-4-9-9-9s-9 4-9 9 4 9 9 9 9-4 9-9z"/></symbol><symbol id="it-plus" viewBox="0 0 24 24"><path d="M20 12.5h-7.5V20h-1v-7.5H4v-1h7.5V4h1v7.5H20v1z"/></symbol><symbol id="it-presentation" viewBox="0 0 24 24"><path d="M4 5v10.6C4 16.9 5.1 18 6.4 18h3.1l-1.1 4h1l1.1-4h2.7l1.2 4h1l-1.2-4h3.5c1.3 0 2.3-1 2.3-2.3V5H4zm15 10.7c0 .7-.6 1.3-1.3 1.3H6.4c-.8 0-1.4-.6-1.4-1.4V6h14v9.7zM21 3v1H3V3h18zm-9 13c2.5 0 4.5-2 4.5-4.5S14.5 7 12 7s-4.5 2-4.5 4.5S9.5 16 12 16zm-.5-7.9V11H8.6c.2-1.5 1.4-2.7 2.9-2.9zm1 3.9V8c1.9.1 3.4 1.8 3.3 3.8S13.9 15.1 12 15c-1.7 0-3.2-1.3-3.4-3h3.9z"/></symbol><symbol id="it-print" viewBox="0 0 24 24"><path d="M21 9.5c0-.8-.7-1.5-1.5-1.5H17V3H7v5H4.5C3.7 8 3 8.7 3 9.5V16h2v3h2v2h10v-2h2v-3h2V9.5zM8 4h8v4H8V4zM6 18v-4h1v4H6zm10 2H8v-6h8v6zm2-2h-1v-4h1v4zm2-3h-1v-2H5v2H4V9.5c0-.3.2-.5.5-.5h15c.3 0 .5.2.5.5V15zM6 11h4v1H6v-1z"/></symbol><symbol id="it-refresh" viewBox="0 0 24 24"><path d="M21 12c0 5-4 9-9 9s-9-4-9-9 4-9 9-9c2.4 0 4.7.9 6.4 2.6.4.4.8.9 1.1 1.4h-4v1H21V2.5h-1V6c-.3-.4-.6-.7-.9-1.1C15.2 1 8.8 1 4.9 4.9S1 15.2 4.9 19.1s10.2 3.9 14.1 0c1.9-1.9 2.9-4.4 2.9-7.1H21z"/></symbol><symbol id="it-restore" viewBox="0 0 24 24"><path d="M12 2C9.3 2 6.8 3 4.9 4.9c-.3.4-.6.7-.9 1.1V2.5H3V8h5.5V7h-4c.3-.5.7-.9 1.1-1.4 3.5-3.5 9.2-3.6 12.7-.1s3.6 9.2.1 12.7-9.2 3.6-12.7.1C4 16.7 3 14.4 3 12H2c0 5.5 4.5 10 10 10s10-4.5 10-10S17.5 2 12 2z"/></symbol><symbol id="it-rss-square" viewBox="0 0 24 24"><path d="M14.6 0H3.4C1.5 0 0 1.5 0 3.4v11.2C0 16.5 1.5 18 3.4 18h11.3c1.9 0 3.4-1.5 3.4-3.4V3.4C18 1.5 16.5 0 14.6 0zM4.5 15.8c-1.2 0-2.3-1-2.3-2.3s1-2.3 2.3-2.3 2.3 1 2.3 2.3-1.1 2.3-2.3 2.3zm4.5 0C9 12 6 9 2.3 9V6.8c5 0 9 4 9 9H9zm4.5 0c0-6.2-5-11.3-11.3-11.3V2.3c7.5 0 13.5 6 13.5 13.5h-2.2z" transform="translate(3 3)"/></symbol><symbol id="it-rss" viewBox="0 0 24 24"><path d="M2.7 12.7c-1.5 0-2.7 1.2-2.7 2.7S1.2 18 2.7 18s2.7-1.2 2.7-2.7c-.1-1.4-1.3-2.6-2.7-2.6z" transform="translate(3 3)"/><path d="M.3 5.9c-.2 0-.3.1-.3.3v3.4c0 .2.1.3.3.3 4.4 0 7.9 3.5 7.9 7.9 0 .2.1.3.3.3h3.4c.2 0 .3-.1.3-.3C12.1 11.2 6.8 5.9.3 5.9z" transform="translate(3 3)"/><path d="M18 17.7C17.9 8 10 .1.3 0 .1 0 0 .1 0 .3v3.5c0 .1.1.2.3.2C7.8 4 14 10.1 14 17.7v.1c0 .2.1.3.3.3h3.5c.1-.1.3-.2.2-.4z" transform="translate(3 3)"/></symbol><symbol id="it-search" viewBox="0 0 24 24"><path d="M21.9 21.1L16 15.3c1.3-1.5 2-3.4 2-5.3 0-4.4-3.6-8-8-8s-8 3.6-8 8 3.6 8 8 8c1.9 0 3.8-.7 5.3-2l5.8 5.9.8-.8zM10 17c-3.9 0-7-3.1-7-7s3.1-7 7-7 7 3.1 7 7-3.1 7-7 7z"/></symbol><symbol id="it-settings" viewBox="0 0 24 24"><path d="M12 7.5c-2.5 0-4.5 2-4.5 4.5s2 4.5 4.5 4.5 4.5-2 4.5-4.5-2-4.5-4.5-4.5zm0 8c-1.9 0-3.5-1.6-3.5-3.5s1.6-3.5 3.5-3.5 3.5 1.6 3.5 3.5-1.6 3.5-3.5 3.5zm9.8-1.6c.1-.6.2-1.3.2-1.9 0-.6-.1-1.3-.2-1.9l-2.1-.3c-.2-.6-.4-1.2-.7-1.7l1.3-1.7c-.7-1.1-1.6-2-2.7-2.7L15.9 5l-1.7-.7-.3-2.1L12 2l-1.9.2-.3 2.1-1.7.7-1.7-1.3c-1.1.7-2 1.6-2.7 2.7L5 8.1c-.3.5-.5 1.1-.7 1.7l-2.1.3c-.1.6-.2 1.3-.2 1.9 0 .6.1 1.3.2 1.9l2.1.3c.2.6.4 1.2.7 1.7l-1.3 1.7c.7 1.1 1.6 2 2.7 2.7L8.1 19l1.7.7.3 2.1 1.9.2 1.9-.2.3-2.1 1.7-.7 1.7 1.3c1.1-.7 2-1.6 2.7-2.7L19 15.9c.3-.5.5-1.1.7-1.7l2.1-.3zm-2.9-.7l-.2.7c-.1.5-.3 1-.6 1.5l-.3.6.4.5.8 1.1c-.4.5-.9 1-1.4 1.4l-1.1-.8-.5-.4-.6.3c-.5.3-1 .5-1.5.6l-.7.2v.7l-.2 1.3h-2l-.2-1.3v-.7l-.7-.2c-.5-.1-1-.3-1.5-.6l-.6-.3-.5.4-1.1.8c-.5-.4-1-.9-1.4-1.4l.8-1.1.4-.5-.3-.6c-.3-.5-.5-1-.6-1.5l-.2-.7h-.7L3.1 13c-.1-.3-.1-.7-.1-1 0-.3 0-.7.1-1l1.3-.2h.7l.2-.7c.1-.5.3-1 .6-1.5l.3-.6-.4-.5L5 6.4 6.4 5l1.1.8.5.4.6-.3c.5-.3 1-.5 1.5-.6l.7-.2v-.7l.2-1.3h2l.2 1.3v.7l.7.2c.5.1 1 .3 1.5.6l.6.3.5-.4 1.1-.8c.5.4 1 .9 1.4 1.4l-.8 1.1-.4.5.3.6c.3.5.5 1 .6 1.5l.2.7h.7l1.3.2c.1.3.1.7.1 1 0 .3 0 .7-.1 1l-1.3.2h-.7z"/></symbol><symbol id="it-share" viewBox="0 0 24 24"><path d="M17.5 15c-.8 0-1.5.4-2 1l-7.6-3.4c.1-.2.1-.4.1-.6 0-.2 0-.4-.1-.6L15.5 8c.8 1.1 2.4 1.3 3.5.5s1.3-2.4.5-3.5-2.4-1.3-3.5-.5c-.6.5-1 1.2-1 2 0 .2 0 .4.1.6l-7.6 3.4C6.7 9.4 5.1 9.2 4 10s-1.3 2.4-.5 3.5 2.4 1.3 3.5.5c.2-.1.4-.3.5-.5l7.6 3.4c-.1.2-.1.4-.1.6 0 1.4 1.1 2.5 2.5 2.5s2.5-1.1 2.5-2.5-1.1-2.5-2.5-2.5zm0-10c.8 0 1.5.7 1.5 1.5S18.3 8 17.5 8 16 7.3 16 6.5 16.7 5 17.5 5zm-12 8.5c-.8 0-1.5-.7-1.5-1.5s.7-1.5 1.5-1.5S7 11.2 7 12s-.7 1.5-1.5 1.5zm12 5.5c-.8 0-1.5-.7-1.5-1.5s.7-1.5 1.5-1.5 1.5.7 1.5 1.5-.7 1.5-1.5 1.5z"/></symbol><symbol id="it-software" viewBox="0 0 24 24"><style>.st0{fill:none}</style><path d="M18.5 0h-17C.7 0 0 .7 0 1.5v15c0 .8.7 1.5 1.5 1.5h17c.8 0 1.5-.7 1.5-1.5v-15c0-.8-.7-1.5-1.5-1.5zm.5 16.5c0 .3-.2.5-.5.5h-17c-.3 0-.5-.2-.5-.5V5h18v11.5zM19 4H1V1.5c0-.3.2-.5.5-.5h17c.3 0 .5.2.5.5V4z" transform="translate(2 3)"/><path d="M10 13h5v1h-5zM10 11.1l-5.1 3.7v-1.3l3.4-2.4-3.4-2.5V7.4z" transform="translate(2 3)"/><path class="st0" d="M8.3 11.1l-3.4 2.4M8.3 11.1L4.9 8.6" transform="translate(2 3)"/></symbol><symbol id="it-star-full" viewBox="0 0 24 24"><path d="M12 1.7L9.5 9.2H1.6L8 13.9l-2.4 7.6 6.4-4.7 6.4 4.7-2.4-7.6 6.4-4.7h-7.9L12 1.7z"/></symbol><symbol id="it-star-outline" viewBox="0 0 24 24"><path d="M12 4.9l1.5 4.6.2.7h5.7l-4 2.9-.6.4.2.7 1.5 4.7-3.9-2.9-.6-.4-.6.4-3.9 2.9L9 14.2l.2-.7-.6-.4-4-2.9h5.7l.2-.7L12 4.9m0-3.2L9.5 9.2H1.6L8 13.9l-2.4 7.6 6.4-4.7 6.4 4.7-2.4-7.6 6.4-4.7h-7.9L12 1.7z"/></symbol><symbol id="it-team-digitale" viewBox="0 0 24 24"><path d="M23.6 24H.4c-.2 0-.4-.2-.4-.4V.4C0 .2.2 0 .4 0h23.3c.1 0 .3.2.3.4v23.3c0 .1-.2.3-.4.3zM5.8 11.8c.9 0 1.6-.7 1.6-1.6s-.7-1.6-1.6-1.6-1.6.7-1.6 1.6.7 1.6 1.6 1.6zM10 19h4.4c4.7 0 5.6-2.3 5.6-6.7S19 6 14.4 6H10v13zm4.4-10.7c2.6 0 2.8 1.1 2.8 4s-.3 4.5-2.8 4.5h-1.8V8.3h1.8z"/></symbol><symbol id="it-telegram" viewBox="0 0 24 24"><path d="M10 0A10 10 0 110 10 10 10 0 0110 0zM4.53 9.89c2.91-1.27 4.86-2.1 5.83-2.51C13.14 6.23 13.71 6 14.09 6a.67.67 0 01.39.12.4.4 0 01.14.27 2.12 2.12 0 010 .39c-.16 1.58-.81 5.42-1.14 7.19-.14.75-.41 1-.68 1-.58.05-1-.39-1.59-.76-.88-.57-1.37-.93-2.23-1.5s-.34-1 .22-1.59c.17-.12 2.72-2.43 2.8-2.64a.19.19 0 000-.18.26.26 0 00-.21 0c-.09 0-1.49 1-4.22 2.79a1.83 1.83 0 01-1.08.4 7 7 0 01-1.56-.37c-.62-.2-1.12-.31-1.08-.65-.04-.2.2-.39.68-.58z" fill-rule="evenodd" transform="translate(2 2)"/></symbol><symbol id="it-telephone" viewBox="0 0 24 24"><path d="M5 3h.2M20 11.6C20 7.4 16.6 4 12.5 4h-.1c-.3 0-.5.2-.5.5s.2.5.5.5C16 5 19 8 19 11.6c0 .3.3.5.5.5.3 0 .5-.2.5-.5z"/><path d="M16.9 11.7c0-2.5-2-4.5-4.5-4.5-.3.1-.5.3-.4.6 0 .2.2.4.4.4 1.9 0 3.5 1.6 3.5 3.5 0 .3.2.5.5.5s.5-.2.5-.5zM15.7 21.2C8.6 20.9 3 15.2 2.9 8.1c0-.4.2-.8.6-.9 1.7-.6 4-1 4.7.1.5.9.8 1.9.9 2.9v.2c.2.7-.1 1.3-.7 1.7-.3.1-.5.4-.5.7.9 1.4 2 2.6 3.4 3.5.2-.1.4-.3.5-.6.1-.5.6-1 1.7-.9h.2c1 .1 2 .4 2.8.9 1 .7.6 3 .1 4.7-.1.5-.5.8-.9.8zM6.6 7.5c-.9 0-1.9.2-2.8.5.1 6.6 5.3 12 11.9 12.2.7-2.3.7-3.5.3-3.8-.8-.4-1.6-.6-2.5-.7h-.2c-.3 0-.6 0-.7.1-.2.6-.6 1.1-1.3 1.3l-.2.1H11c-1.6-1-2.9-2.4-3.9-4L7 13c-.1-.7.3-1.4 1-1.7.1-.1.3-.2.3-.8v-.2c-.1-.9-.4-1.7-.7-2.5-.3-.2-.6-.3-1-.3z"/></symbol><symbol id="it-tool" viewBox="0 0 24 24"><path d="M7.7 5c.6 0 1.2.2 1.7.5 1.1.6 1.7 1.8 1.6 3-.1.9.2 1.8.8 2.4l6.3 6.3c.4.3.5.9.2 1.3-.2.3-.5.5-.8.5-.3 0-.5-.1-.7-.3l-6.4-6.4c-.6-.5-1.3-.8-2.1-.8h-.6c-.8 0-1.7-.4-2.2-1h2.7V6.4H5.1c.3-.4.6-.8 1.1-1 .5-.3 1-.4 1.5-.4m0-1c-.7 0-1.4.2-2 .5-1.1.6-1.9 1.7-2.1 2.9h3.6v2.1H3.7c.2.7.6 1.3 1 1.8.8.8 1.9 1.2 3 1.2h.6c.5 0 1 .2 1.4.5l6.4 6.4c.4.4.9.6 1.4.6.7 0 1.3-.3 1.6-.9.6-.8.4-1.9-.3-2.6l-6.3-6.3c-.4-.4-.6-1-.5-1.6.1-1.6-.7-3.1-2-4-.7-.4-1.5-.6-2.3-.6z"/></symbol><symbol id="it-twitter-square" viewBox="0 0 24 24"><path d="M19.5 22h-15C3.1 22 2 20.9 2 19.5v-15C2 3.1 3.1 2 4.5 2h15C20.9 2 22 3.1 22 4.5v15c0 1.4-1.1 2.5-2.5 2.5zm-9.8-4.9c1.9 0 3.8-.7 5.2-2.1S17 11.7 17 9.8v-.3c.5-.4.9-.8 1.3-1.3-.5.2-1 .3-1.5.4.5-.3.9-.8 1.1-1.4-.5.3-1.1.5-1.6.6-.5-.5-1.2-.8-1.9-.8-1.4 0-2.6 1.2-2.6 2.6 0 .2 0 .4.1.6-2-.2-4-1.2-5.3-2.8-.7 1.2-.3 2.7.8 3.4-.4 0-.8-.1-1.2-.3 0 1.2.9 2.3 2.1 2.5-.2.1-.4.1-.7.1h-.5c.3 1 1.3 1.8 2.4 1.8-.9.7-2 1.1-3.2 1.2h-.6c1.2.6 2.6 1 4 1z"/></symbol><symbol id="it-twitter" viewBox="0 0 24 24"><path d="M8.1 20c2.9 0 5.7-1.1 7.8-3.2s3.2-4.9 3.2-7.8v-.5c.8-.5 1.4-1.2 1.9-2-.7.3-1.5.5-2.2.6.8-.5 1.4-1.2 1.7-2.1-.8.4-1.6.7-2.5.9-1.1-1.2-2.8-1.5-4.2-.9s-2.4 2-2.4 3.6c0 .3 0 .6.1.9-3.1-.1-6-1.6-8-4-1 1.8-.5 4 1.2 5.2-.6 0-1.2-.2-1.8-.5 0 1.9 1.3 3.5 3.2 3.8-.4 0-.8 0-1.1.1-.2 0-.5 0-.7-.1.5 1.6 2 2.6 3.6 2.7-1.4 1.1-3.1 1.7-4.8 1.7-.3 0-.6 0-.9-.1C3.9 19.4 6 20 8.1 20"/></symbol><symbol id="it-unlocked" viewBox="0 0 24 24"><path d="M16.5 12H16V6c0-2.2-1.8-4-4-4S8 3.8 8 6v3h1V6c0-1.7 1.3-3 3-3s3 1.3 3 3v6H7.5c-.6 0-1.1.5-1.1 1.1v6.8c0 .6.5 1.1 1.1 1.1h9c.6 0 1.1-.5 1.1-1.1v-6.8c0-.6-.5-1.1-1.1-1.1zm.1 7.9c0 .1 0 .1-.1.1h-9c-.1 0-.1 0-.1-.1v-6.8h9.2v6.8zM13 15.5c0 .3-.2.7-.5.8v1.5h-1v-1.5c-.3-.1-.5-.5-.5-.8 0-.6.4-1 1-1s1 .4 1 1z"/></symbol><symbol id="it-upload" viewBox="0 0 24 24"><path d="M8.4 7.3l-.7-.7L12 2.3l4.3 4.3-.7.7-3.1-3.1v9.3h-1V4.2L8.4 7.3zM19 12v7.5c0 .3-.2.5-.5.5h-13c-.3 0-.5-.2-.5-.5V12H4v7.5c0 .8.7 1.5 1.5 1.5h13c.8 0 1.5-.7 1.5-1.5V12h-1z"/></symbol><symbol id="it-user" viewBox="0 0 24 24"><path d="M12 13c2.2 0 4-1.8 4-4V6c0-2.2-1.8-4-4-4S8 3.8 8 6v3c0 2.2 1.8 4 4 4zM9 6c0-1.7 1.3-3 3-3s3 1.3 3 3v3c0 1.7-1.3 3-3 3s-3-1.3-3-3V6zm11 16h-1c0-3.9-3.1-7-7-7s-7 3.1-7 7H4c0-4.4 3.6-8 8-8s8 3.6 8 8z"/></symbol><symbol id="it-video" viewBox="0 0 24 24"><path d="M17.5 7.3V6c0-.8-.7-1.5-1.5-1.5H5.5C4.7 4.5 4 5.2 4 6v8c0 .8.7 1.5 1.5 1.5h3.4L7.4 21h1l1.6-5.5h1.8l1.6 5.5h1l-1.6-5.5H16c.8 0 1.5-.7 1.5-1.5v-1.3l4 1.5V5.8l-4 1.5zm3 5.5l-4-1.5V14c0 .3-.2.5-.5.5H5.5c-.3 0-.5-.2-.5-.5V6c0-.3.2-.5.5-.5H16c.3 0 .5.2.5.5v2.7l4-1.5v5.6zM2 8h1v4H2V8z"/></symbol><symbol id="it-warning-circle" viewBox="0 0 24 24"><path d="M12 2C6.5 2 2 6.5 2 12s4.5 10 10 10 10-4.5 10-10S17.5 2 12 2zm0 19c-5 0-9-4-9-9s4-9 9-9 9 4 9 9-4 9-9 9zm-.5-6.8V5.7h1.2v8.5h-1.2zm-.1 2.3h1.2v1.8h-1.2v-1.8z"/></symbol><symbol id="it-warning" viewBox="0 0 24 24"><path d="M12.5 17h-1V2h1v15zm0 3h-1v2h1v-2z"/></symbol><symbol id="it-whatsapp-square" viewBox="0 0 24 24"><path d="M16 8.1c-1.5-1.5-3.8-2-5.8-1.2s-3.3 2.8-3.3 4.9c0 1 .3 2 .8 2.8l.1.2-.5 2 2-.5.2.1c.8.5 1.8.7 2.7.8 2.2 0 4.1-1.3 5-3.3.8-2 .3-4.3-1.2-5.8zm-.8 5.8c-.2.4-.6.7-1.1.8-.3.1-.7 0-1-.1-.2-.1-.5-.2-.9-.3-1.1-.6-2.1-1.4-2.8-2.4-.4-.5-.6-1.1-.7-1.7 0-.5.2-1 .6-1.3.1-.1.3-.2.4-.2h.3c.1 0 .2 0 .4.3.1.3.5 1.1.5 1.2v.3c0 .1-.1.2-.2.3-.1.1-.2.2-.2.3-.1.1-.2.2-.1.3.2.4.5.8.9 1.1.4.3.8.6 1.3.8.2.1.3.1.3 0 .1-.1.4-.5.5-.6.1-.2.2-.1.4-.1.1.1.9.4 1.1.5.2.1.3.1.3.2v.6z"/><path d="M21 7.1c0-.4 0-.8-.1-1.2-.2-1.1-.9-2-1.9-2.5-.3-.2-.7-.3-1-.3-.3-.1-.7-.1-1.1-.1H7.1c-.4 0-.8 0-1.2.1-1.1.2-2 .9-2.5 1.9-.1.3-.2.7-.3 1-.1.4-.1.7-.1 1.1V17c0 .4 0 .8.1 1.1.2 1.1.9 2 1.9 2.5.3.2.7.3 1 .3.4.1.8.1 1.2.1H17c.4 0 .8 0 1.1-.1 1.1-.2 2-.9 2.5-1.9.2-.3.3-.7.3-1 .1-.4.1-.8.1-1.2V7.6v-.5zm-8.8 11.2c-1.1 0-2.1-.3-3.1-.8l-3.4.9.9-3.3c-.6-1-.9-2.1-.9-3.2 0-2.6 1.5-5 4-6s5.2-.4 7 1.5c1.2 1.2 1.9 2.8 1.9 4.5 0 1.7-.7 3.3-1.9 4.6-1.1 1.1-2.8 1.8-4.5 1.8z"/></symbol><symbol id="it-whatsapp" viewBox="0 0 24 24"><path d="M19.1 4.6C15.5 1.3 10 1 6.1 4S1 12.4 3.4 16.7L2 21.8l5.3-1.4c1.4.8 3.1 1.2 4.7 1.2 4 0 7.6-2.5 9.1-6.2 1.6-3.6.8-7.9-2-10.8zM12 20c-1.5 0-2.9-.4-4.2-1.2l-.3-.2-3.1.8.8-3.1-.2-.2C3 12.9 3.5 8.7 6.1 6s6.7-3.3 10-1.5 4.9 5.7 4 9.3c-1 3.7-4.3 6.2-8.1 6.2zm4.5-6.2c-.3-.1-1.5-.7-1.7-.8-.2-.1-.4-.1-.6.1-.2.3-.5.7-.8 1-.1.2-.3.2-.5.1-.7-.3-1.4-.7-2-1.2-.5-.5-1-1.1-1.4-1.7-.1-.3 0-.4.1-.5l.4-.4c.1-.1.2-.3.3-.4.1-.1.1-.3 0-.4 0-.2-.5-1.4-.8-1.9s-.4-.6-.5-.6h-.5c-.2 0-.5.1-.7.3-.5.5-.8 1.3-.8 2 .1.9.4 1.8 1 2.6 1.1 1.6 2.5 2.9 4.3 3.8.5.2.9.4 1.4.5.5.2 1 .2 1.6.1.7-.1 1.3-.6 1.7-1.2.2-.4.2-.8.2-1.2-.2-.1-.4-.1-.7-.2z"/></symbol><symbol id="it-wifi" viewBox="0 0 24 24"><path d="M22 19h-1c0-8.8-7.2-16-16-16V2c9.4 0 17 7.6 17 17z"/><path d="M5 7v1c6.1 0 11 4.9 11 11h1c0-6.6-5.4-12-12-12zM5 12v1c3.3 0 6 2.7 6 6h1c0-3.9-3.1-7-7-7zM5 17c-1.1 0-2 .9-2 2s.9 2 2 2 2-.9 2-2-.9-2-2-2zm0 3c-.6 0-1-.4-1-1s.4-1 1-1 1 .4 1 1-.4 1-1 1z"/></symbol><symbol id="it-youtube" viewBox="0 0 24 24"><path d="M21.6 7.2c-.2-.9-.9-1.5-1.8-1.8C18.2 5 12 5 12 5s-6.2 0-7.8.4c-.9.3-1.5.9-1.8 1.8C2.1 8.8 2 10.4 2 12c0 1.6.1 3.2.4 4.8.2.9.9 1.5 1.8 1.8 1.6.4 7.8.4 7.8.4s6.2 0 7.8-.4c.9-.2 1.5-.9 1.8-1.8.3-1.6.4-3.2.4-4.8 0-1.6-.1-3.2-.4-4.8zM10 15V9l5.2 3-5.2 3z"/></symbol><symbol id="it-zoom-in" viewBox="0 0 24 24"><path d="M10.4 9.5h3.3v1h-3.3v3.2h-1v-3.2H6.2v-1h3.2V6.2h1v3.3zm10.7 12.4L15.3 16c-1.5 1.3-3.4 2-5.3 2-4.4 0-8-3.6-8-8s3.6-8 8-8 8 3.6 8 8c0 1.9-.7 3.8-2 5.3l5.9 5.8-.8.8zM17 10c0-3.9-3.1-7-7-7s-7 3.1-7 7 3.1 7 7 7 7-3.1 7-7z"/></symbol><symbol id="it-zoom-out" viewBox="0 0 24 24"><path d="M6.2 9.5h7.5v1H6.2v-1zm14.9 12.4L15.3 16c-1.5 1.3-3.4 2-5.3 2-4.4 0-8-3.6-8-8s3.6-8 8-8 8 3.6 8 8c0 1.9-.7 3.8-2 5.3l5.9 5.8-.8.8zM17 10c0-3.9-3.1-7-7-7s-7 3.1-7 7 3.1 7 7 7 7-3.1 7-7z"/></symbol><symbol id="it-plug" viewBox="0 0 24 24"><path d="M8.5 9.9l-2.8 2.8-1.1 1.1c-.6.6-.6 1.5 0 2.1L6 17.3l-3.8 3.9.7.7L6.7 18l1.4 1.4c.3.3.7.4 1.1.4.4 0 .8-.2 1.1-.4l1.1-1.1 2.8-2.8-5.7-5.6zm1 8.8c-.2.2-.5.2-.7 0l-3.5-3.5c-.2-.2-.2-.5 0-.7l.4-.4 4.2 4.2-.4.4zm-3.2-5.3l2.1-2.1 4.2 4.2-2.1 2.1-4.2-4.2zm9.6-8.8c-.6-.6-1.5-.6-2.1 0L11.3 7l1.4 1.4-2.1 2.1.7.7 2.1-2.1 1.4 1.4-2.1 2.1.7.7 2.1-2.1 1.5 1.4 2.5-2.5c.6-.6.6-1.5 0-2.1l-3.6-3.4zm2.8 4.9L17 11.3 12.7 7l1.8-1.8c.2-.2.5-.2.7 0l3.5 3.5c.2.3.2.6 0 .8zM8.5 12.7l.7.7-.7.7-.7-.7.7-.7zm2.8 2.8l-.7.7-.7-.7.7-.7.7.7zM18 6.7l-.7-.7 3.9-3.8.7.7L18 6.7z"/></symbol><symbol id="it-behance" viewBox="0 0 24 24"><path d="M7.8 5.8c.5 0 1.1 0 1.6.2.4.1.9.3 1.2.5.4.1.7.5.9.8.2.5.3 1 .3 1.4 0 .5-.1 1.1-.4 1.5-.3.4-.8.8-1.3 1 .7.2 1.3.6 1.7 1.1.4.6.6 1.3.6 2 0 .5-.1 1.1-.3 1.6-.2.4-.6.8-1 1.1-.4.3-.9.5-1.4.6-.6.4-1.2.4-1.7.4H2V5.8h5.8zm-.3 5c.4 0 .8-.1 1.2-.4.3-.3.5-.7.4-1.1 0-.3 0-.5-.1-.8-.1-.1-.2-.3-.4-.4-.2-.1-.4-.2-.6-.2-.2 0-.5-.1-.7-.1H4.7v2.9l2.8.1zm.1 5.2c.3 0 .5 0 .8-.1l.6-.3c.2-.1.3-.3.4-.5.1-.3.2-.5.2-.8 0-.5-.2-1-.5-1.3-.4-.3-.9-.4-1.4-.4h-3V16h2.9zm8.6-.1c.4.4 1 .6 1.6.5.4 0 .9-.1 1.3-.4.3-.2.5-.5.6-.8h2.1c-.2.9-.8 1.7-1.6 2.3-.8.5-1.7.7-2.6.7-.6 0-1.3-.1-1.9-.3-1.1-.4-2-1.3-2.3-2.4-.2-.6-.3-1.2-.3-1.9 0-.6.1-1.3.3-1.9.2-.6.5-1.1.9-1.5.4-.4.9-.8 1.4-1 .7-.2 1.3-.3 1.9-.3.7 0 1.4.1 2 .4.5.3 1 .7 1.4 1.2.4.5.6 1.1.8 1.7.2.7.2 1.3.2 2h-6.4c0 .6.2 1.2.6 1.7zm2.8-4.7c-.4-.3-.9-.5-1.4-.5-.3 0-.7 0-1 .2-.2.1-.5.3-.6.5-.2.2-.3.4-.3.6-.1.2-.1.4-.1.6h4c-.1-.5-.3-1-.6-1.4zm-3.9-4.6h5v1.2h-5V6.6z"/></symbol></svg>