<svg xmlns="http://www.w3.org/2000/svg"><symbol id="it-arrow-down" viewBox="0 0 24 24"><path d="m17.9 13.2-5.4 5.3V3h-1v15.5l-5.4-5.3-.7.7 6.6 6.5 6.6-6.5-.7-.7z"/></symbol><symbol id="it-arrow-down-circle" viewBox="0 0 24 24"><path d="m15.6 13.2.7.7-4.3 4.3-4.3-4.3.7-.7 3.1 3.1V7h1v9.2l3.1-3zM22 12c0 5.5-4.5 10-10 10S2 17.5 2 12 6.5 2 12 2s10 4.5 10 10zm-1 0c0-5-4-9-9-9s-9 4-9 9 4 9 9 9 9-4 9-9z"/></symbol><symbol id="it-arrow-down-triangle" viewBox="0 0 24 24"><path d="M9.2 12h5.6c.6 0 1 .5 1 1 0 .3-.1.5-.3.7L12 17.3l-3.5-3.6c-.4-.4-.4-1 0-1.4.2-.2.4-.3.7-.3z"/></symbol><symbol id="it-arrow-left" viewBox="0 0 24 24"><path d="M21 11.5H5.5l5.3-5.4-.7-.7L3.6 12l6.5 6.6.7-.7-5.3-5.4H21v-1z"/></symbol><symbol id="it-arrow-left-circle" viewBox="0 0 24 24"><path d="M7.7 11.5H17v1H7.8l3 3.1-.7.7L5.8 12l4.3-4.3.7.7-3.1 3.1zM22 12c0 5.5-4.5 10-10 10S2 17.5 2 12 6.5 2 12 2s10 4.5 10 10zm-1 0c0-5-4-9-9-9s-9 4-9 9 4 9 9 9 9-4 9-9z"/></symbol><symbol id="it-arrow-left-triangle" viewBox="0 0 24 24"><path d="M12 9.2v5.6c0 .6-.5 1-1 1-.3 0-.5-.1-.7-.3L6.8 12l3.5-3.5c.4-.4 1-.4 1.4 0 .2.2.3.4.3.7z"/></symbol><symbol id="it-arrow-right" viewBox="0 0 24 24"><path d="m13.9 5.4-.7.7 5.3 5.4H3v1h15.5l-5.3 5.4.7.7 6.6-6.6-6.6-6.6z"/></symbol><symbol id="it-arrow-right-circle" viewBox="0 0 24 24"><path d="m13.9 7.7 4.3 4.3-4.3 4.3-.7-.7 3.1-3.1H7v-1h9.2l-3-3.1.7-.7zM22 12c0 5.5-4.5 10-10 10S2 17.5 2 12 6.5 2 12 2s10 4.5 10 10zm-1 0c0-5-4-9-9-9s-9 4-9 9 4 9 9 9 9-4 9-9z"/></symbol><symbol id="it-arrow-right-triangle" viewBox="0 0 24 24"><path d="M12 14.8V9.2c0-.6.5-1 1-1 .3 0 .5.1.7.3l3.5 3.5-3.5 3.5c-.4.4-1 .4-1.4 0-.2-.2-.3-.4-.3-.7z"/></symbol><symbol id="it-arrow-up" viewBox="0 0 24 24"><path d="M18.6 10.1 12 3.5l-6.6 6.6.7.7 5.4-5.3V21h1V5.5l5.4 5.3.7-.7z"/></symbol><symbol id="it-arrow-up-circle" viewBox="0 0 24 24"><path d="m12 5.8 4.3 4.3-.7.7-3.1-3.1V17h-1V7.8l-3.1 3-.7-.7L12 5.8zM22 12c0 5.5-4.5 10-10 10S2 17.5 2 12 6.5 2 12 2s10 4.5 10 10zm-1 0c0-5-4-9-9-9s-9 4-9 9 4 9 9 9 9-4 9-9z"/></symbol><symbol id="it-arrow-up-triangle" viewBox="0 0 24 24"><path d="M14.8 12H9.2c-.6 0-1-.5-1-1 0-.3.1-.5.3-.7L12 6.8l3.5 3.5c.4.4.4 1 0 1.4-.2.2-.4.3-.7.3z"/></symbol><symbol id="it-ban" viewBox="0 0 24 24"><path d="M12 2C6.5 2 2 6.5 2 12s4.5 10 10 10 10-4.5 10-10S17.5 2 12 2zM5.2 17.6C3.8 16 3.1 14 3.1 11.9s.7-4.1 2.1-5.7l12.7 12.7C14 22 8.3 21.4 5.2 17.6zm13.4.5L5.9 5.4c3.7-3.3 9.4-3 12.7.7 3.1 3.4 3.1 8.6 0 12z"/></symbol><symbol id="it-behance" viewBox="0 0 24 24"><path d="M7.8 5.8c.5 0 1.1 0 1.6.2.4.1.9.3 1.2.5.4.1.7.5.9.8.2.5.3 1 .3 1.4 0 .5-.1 1.1-.4 1.5-.3.4-.8.8-1.3 1 .7.2 1.3.6 1.7 1.1.4.6.6 1.3.6 2 0 .5-.1 1.1-.3 1.6-.2.4-.6.8-1 1.1-.4.3-.9.5-1.4.6-.6.4-1.2.4-1.7.4H2V5.8h5.8zm-.3 5c.4 0 .8-.1 1.2-.4.3-.3.5-.7.4-1.1 0-.3 0-.5-.1-.8-.1-.1-.2-.3-.4-.4-.2-.1-.4-.2-.6-.2-.2 0-.5-.1-.7-.1H4.7v2.9l2.8.1zm.1 5.2c.3 0 .5 0 .8-.1l.6-.3c.2-.1.3-.3.4-.5.1-.3.2-.5.2-.8 0-.5-.2-1-.5-1.3-.4-.3-.9-.4-1.4-.4h-3V16h2.9zm8.6-.1c.4.4 1 .6 1.6.5.4 0 .9-.1 1.3-.4.3-.2.5-.5.6-.8h2.1c-.2.9-.8 1.7-1.6 2.3-.8.5-1.7.7-2.6.7-.6 0-1.3-.1-1.9-.3-1.1-.4-2-1.3-2.3-2.4-.2-.6-.3-1.2-.3-1.9 0-.6.1-1.3.3-1.9.2-.6.5-1.1.9-1.5.4-.4.9-.8 1.4-1 .7-.2 1.3-.3 1.9-.3.7 0 1.4.1 2 .4.5.3 1 .7 1.4 1.2.4.5.6 1.1.8 1.7.2.7.2 1.3.2 2h-6.4c0 .6.2 1.2.6 1.7zm2.8-4.7c-.4-.3-.9-.5-1.4-.5-.3 0-.7 0-1 .2-.2.1-.5.3-.6.5-.2.2-.3.4-.3.6-.1.2-.1.4-.1.6h4c-.1-.5-.3-1-.6-1.4zm-3.9-4.6h5v1.2h-5V6.6z"/></symbol><symbol id="it-bookmark" viewBox="0 0 24 24"><path d="m18 22.7-6-6-6 6V2h12v20.7zm-6-7.4 5 5V3H7v17.3l5-5z"/></symbol><symbol id="it-box" viewBox="0 0 24 24"><path d="M21 2H3v4h1v16h16V6h1V2zm-2 19H5V6h14v15zm1-16H4V3h16v2z"/><path d="M8 8h8v1H8z"/></symbol><symbol id="it-burger" viewBox="0 0 24 24"><path d="M22 5v1H2V5h20zM2 12.5h20v-1H2v1zM2 19h20v-1H2v1z"/></symbol><symbol id="it-calendar" viewBox="0 0 24 24"><path d="M20.5 4H17V3h-1v1H8V3H7v1H3.5C2.7 4 2 4.7 2 5.5v13c0 .8.7 1.5 1.5 1.5h17c.8 0 1.5-.7 1.5-1.5v-13c0-.8-.7-1.5-1.5-1.5zm.5 14.5c0 .3-.2.5-.5.5h-17c-.3 0-.5-.2-.5-.5v-13c0-.3.2-.5.5-.5H7v1h1V5h8v1h1V5h3.5c.3 0 .5.2.5.5v13zM4 8h16v1H4V8z"/></symbol><symbol id="it-camera" viewBox="0 0 24 24"><path d="M20.5 20h-17c-.8 0-1.5-.7-1.5-1.5v-10C2 7.7 2.7 7 3.5 7h4.3l1.5-2.3c.3-.4.7-.7 1.2-.7h3c.5 0 .9.3 1.2.7L16.2 7h4.3c.8 0 1.5.7 1.5 1.5v10c0 .8-.7 1.5-1.5 1.5zM3.5 8c-.3 0-.5.2-.5.5v10c0 .3.2.5.5.5h17c.3 0 .5-.2.5-.5v-10c0-.3-.2-.5-.5-.5h-4.8l-1.8-2.8-.4-.2h-3l-.4.2L8.3 8H3.5zM12 18c-2.8 0-5-2.2-5-5s2.2-5 5-5 5 2.2 5 5-2.2 5-5 5zm0-9c-2.2 0-4 1.8-4 4s1.8 4 4 4 4-1.8 4-4-1.8-4-4-4zM7 5H4v1h3V5z"/></symbol><symbol id="it-card" viewBox="0 0 24 24"><path d="M20.5 5h-17C2.7 5 2 5.7 2 6.5v11c0 .8.7 1.5 1.5 1.5h17c.8 0 1.5-.7 1.5-1.5v-11c0-.8-.7-1.5-1.5-1.5zM3 9h18v3H3V9zm18 8.5c0 .3-.2.5-.5.5h-17c-.3 0-.5-.2-.5-.5V13h18v4.5zM3 8V6.5c0-.3.2-.5.5-.5h17c.3 0 .5.2.5.5V8H3zm5 7H4v-1h4v1z"/></symbol><symbol id="it-chart-line" viewBox="0 0 24 24"><path d="M21 20v1H3V3h1v17z"/><path d="m10.5 9.2 2.5 2.5 6-6v3.8h1V4h-5.5v1h3.8L13 10.3l-2.5-2.5-4.3 4.3.6.8z"/></symbol><symbol id="it-check" viewBox="0 0 24 24"><path d="M9.6 16.9 4 11.4l.8-.7 4.8 4.8 8.5-8.4.7.7-9.2 9.1z"/></symbol><symbol id="it-check-circle" viewBox="0 0 24 24"><path d="m17.1 7.9.7.7-7.8 7.6-4.7-4.6.7-.7 4 3.9 7.1-6.9zM22 12c0 5.5-4.5 10-10 10S2 17.5 2 12 6.5 2 12 2s10 4.5 10 10zm-1 0c0-5-4-9-9-9s-9 4-9 9 4 9 9 9 9-4 9-9z"/></symbol><symbol id="it-chevron-left" viewBox="0 0 24 24"><path d="M14.6 17.2 9 11.6 14.6 6l.8.7-4.9 4.9 4.9 4.9z"/></symbol><symbol id="it-chevron-right" viewBox="0 0 24 24"><path d="m9.8 17.2-.8-.7 4.9-4.9L9 6.7l.8-.7 5.6 5.6z"/></symbol><symbol id="it-clip" viewBox="0 0 24 24"><path d="M11 22c-1.6.1-2.9-1.2-3-2.8V6c0-2.2 1.8-4 4-4s4 1.8 4 4v10h-1V6c0-1.7-1.3-3-3-3S9 4.3 9 6v13c0 1.1.9 2 2 2s2-.9 2-2V8c0-.6-.4-1-1-1s-1 .4-1 1v8h-1V8c0-1.1.9-2 2-2s2 .9 2 2v11c.1 1.6-1.2 2.9-2.8 3H11z"/></symbol><symbol id="it-clock" viewBox="0 0 24 24"><path d="M11.5 5h1v7.5H7v-1h4.5V5zM22 12c0 5.5-4.5 10-10 10S2 17.5 2 12 6.5 2 12 2s10 4.5 10 10zm-1 0c0-5-4-9-9-9s-9 4-9 9 4 9 9 9 9-4 9-9z"/></symbol><symbol id="it-close" viewBox="0 0 24 24"><path d="m12.7 12 3.7 3.6-.8.8-3.6-3.7-3.6 3.7-.8-.8 3.7-3.6-3.7-3.6.8-.8 3.6 3.7 3.6-3.7.8.8-3.7 3.6z"/></symbol><symbol id="it-close-big" viewBox="0 0 24 24"><path d="m12.7 12 6.7 6.6-.8.8-6.6-6.7-6.6 6.7-.8-.8 6.7-6.6-6.7-6.6.8-.8 6.6 6.7 6.6-6.7.8.8-6.7 6.6z"/></symbol><symbol id="it-close-circle" viewBox="0 0 24 24"><path d="M16.3 8.3 12.6 12l3.7 3.6-.7.7-3.7-3.6-3.6 3.6-.7-.7 3.6-3.6-3.6-3.7.7-.7 3.6 3.7 3.7-3.7.7.7zM22 12c0 5.5-4.5 10-10 10S2 17.5 2 12 6.5 2 12 2s10 4.5 10 10zm-1 0c0-5-4-9-9-9s-9 4-9 9 4 9 9 9 9-4 9-9z"/></symbol><symbol id="it-code-circle" viewBox="0 0 24 24"><path d="m19 12-2.9 2.9-.7-.8 2.1-2.1-2.1-2.1.7-.8L19 12zM7.9 9.1 5 12l2.9 2.9.7-.8L6.5 12l2.1-2.1-.7-.8zM22 12c0 5.5-4.5 10-10 10S2 17.5 2 12 6.5 2 12 2s10 4.5 10 10zm-1 0c0-5-4-9-9-9s-9 4-9 9 4 9 9 9 9-4 9-9zM9.6 16.5l1 .3 3.7-9.3-.9-.3-3.8 9.3z"/></symbol><symbol id="it-collapse" viewBox="0 0 24 24"><path d="m16.5 15.4-4.9-4.9-4.9 4.9-.7-.8L11.6 9l5.6 5.6z"/></symbol><symbol id="it-comment" viewBox="0 0 24 24"><path d="M19 3H5c-1.1 0-2 .9-2 2v10c0 1.1.9 2 2 2h2v5.4l1.7-1.7 3.7-3.7H19c1.1 0 2-.9 2-2V5c0-1.1-.9-2-2-2zm1 12c.1.5-.3.9-.8 1H12l-4 4v-4H5c-.5.1-.9-.3-1-.8V5c-.1-.5.3-.9.8-1H19c.5-.1.9.3 1 .8V15zM9 10c.1.5-.3.9-.8 1H8c-.5.1-.9-.3-1-.8V10c-.1-.5.3-.9.8-1H8c.5-.1.9.3 1 .8v.2zm4 0c0 .6-.4 1-1 1s-1-.4-1-1 .4-1 1-1 1 .4 1 1zm4 0c0 .6-.4 1-1 1s-1-.4-1-1 .4-1 1-1 1 .4 1 1z"/></symbol><symbol id="it-copy" viewBox="0 0 24 24"><path d="M19.5 4H18v-.6c-.1-.8-.7-1.4-1.5-1.4h-11c-.8 0-1.4.6-1.5 1.4v15.2c.1.8.7 1.4 1.5 1.4H7v.6c.1.8.7 1.4 1.5 1.4h11c.8 0 1.4-.6 1.5-1.4V5.4c-.1-.8-.7-1.4-1.5-1.4zM5 18.6V3.4c0-.2.3-.4.5-.4h11c.2 0 .5.2.5.4v15.2c0 .2-.3.4-.5.4h-11c-.2 0-.5-.2-.5-.4zm15 2c0 .2-.3.4-.5.4h-11c-.2 0-.5-.2-.5-.4V20h8.5c.8 0 1.4-.6 1.5-1.4V5h1.5c.2 0 .5.2.5.4v15.2z"/></symbol><symbol id="it-delete" viewBox="0 0 24 24"><path d="M15.5 4v-.5c0-.8-.7-1.5-1.5-1.5h-4c-.8 0-1.5.7-1.5 1.5V4H3v1h2v15.5c0 .8.7 1.5 1.5 1.5h11c.8 0 1.5-.7 1.5-1.5V5h2V4h-5.5zm-6-.5c0-.3.2-.5.5-.5h4c.3 0 .5.2.5.5V4h-5v-.5zm8.5 17c0 .3-.2.5-.5.5h-11c-.3 0-.5-.2-.5-.5V5h12v15.5z"/><path d="M11.5 8h1v10h-1zM8 8h1v10H8zM15 8h1v10h-1z"/></symbol><symbol id="it-designers-italia" viewBox="0 0 24 24"><path d="M8.7 20.2v-13h3.6v13.1l-3.6-.1zM23 10.1h-3.3v6.5c0 .2.1.4.3.6s.4.2.8.2h2.1l.2 2.8c-1.2.3-2.1.4-2.8.4-1.6 0-2.7-.3-3.3-1.1-.6-.7-.9-2-.9-3.9v-12h3.6v3.6H23v2.9zm-19.8 1c-.6 0-1.2-.2-1.6-.6-.4-.4-.6-.9-.6-1.5s.2-1.1.6-1.5c.4-.5.9-.7 1.6-.7s1.1.2 1.5.6c.4.5.6 1 .6 1.6s-.2 1.1-.6 1.5-.9.6-1.5.6z"/></symbol><symbol id="it-download" viewBox="0 0 24 24"><path d="M12 14.2 7.7 9.9l.7-.7 3.1 3.1V3h1v9.2l3.1-3 .7.7-4.3 4.3zm7-2.2v7.5c0 .3-.2.5-.5.5h-13c-.3 0-.5-.2-.5-.5V12H4v7.5c0 .8.7 1.5 1.5 1.5h13c.8 0 1.5-.7 1.5-1.5V12h-1z"/></symbol><symbol id="it-error" viewBox="0 0 24 24"><path d="M11.5 14.2V5.7h1.2v8.5h-1.2zm-.1 4.1h1.2v-1.8h-1.2v1.8zM22 7.9v8.3L16.1 22H7.9L2 16.2V7.9L7.9 2h8.2L22 7.9zm-1 .4L15.7 3H8.3L3 8.3v7.5L8.3 21h7.4l5.3-5.2V8.3z"/></symbol><symbol id="it-exchange-circle" viewBox="0 0 24 24"><path d="M12 2C6.5 2 2 6.5 2 12s4.5 10 10 10 10-4.5 10-10S17.5 2 12 2zm0 19c-5 0-9-4-9-9s4-9 9-9 9 4 9 9-4 9-9 9zm5.1-8.9.8.8-4.3 4.3c-.3.3-.7.4-1.1.4-.4 0-.8-.1-1.1-.4L9 14.7V17H8v-4h4v1H9.7l2.4 2.5h.8l4.2-4.4zm-6-4.6-4.2 4.4-.8-.8 4.3-4.3c.3-.3.7-.4 1.1-.4.4 0 .8.1 1.1.4L15 9.3V7h1v4h-4v-1h2.3l-2.4-2.5h-.8z"/></symbol><symbol id="it-expand" viewBox="0 0 24 24"><path d="M11.6 15.4 6 9.8l.7-.8 4.9 4.9L16.5 9l.7.8z"/></symbol><symbol id="it-external-link" viewBox="0 0 24 24"><path d="M21 3v6h-1V4.7l-7.6 7.7-.8-.8L19.3 4H15V3h6zm-4 16.5c0 .3-.2.5-.5.5h-12c-.3 0-.5-.2-.5-.5v-12c0-.3.2-.5.5-.5H12V6H4.5C3.7 6 3 6.7 3 7.5v12c0 .8.7 1.5 1.5 1.5h12c.8 0 1.5-.7 1.5-1.5V12h-1v7.5z"/></symbol><symbol id="it-facebook" viewBox="0 0 24 24"><path d="M13.6 22v-9.1h3.1l.5-3.6h-3.5V7.1c0-1 .3-1.7 1.8-1.7h1.9V2.1c-1.1-.1-2-.1-3-.1-2.7 0-4.6 1.7-4.6 4.7v2.6h-3v3.6h3.1V22h3.7z"/></symbol><symbol id="it-facebook-square" viewBox="0 0 24 24"><path d="M17 0H1C.4 0 0 .4 0 1v16c0 .6.4 1 1 1h8.6v-6.9H7.3V8.3h2.3v-2c-.1-1 .2-1.9.9-2.6s1.6-1.1 2.6-1c.7 0 1.4 0 2.1.1v2.4h-1.4c-1.1 0-1.3.5-1.3 1.3v1.7h2.7l-.4 2.7h-2.3v7H17c.6 0 1-.4 1-1V1c0-.6-.4-1-1-1z" transform="translate(3 3)"/></symbol><symbol id="it-figma" viewBox="0 0 24 24"><path fill-rule="evenodd" clip-rule="evenodd" d="M5.5 6A3.5 3.5 0 0 1 9 2.5h3.5v7H9A3.5 3.5 0 0 1 5.5 6ZM9 3.5a2.5 2.5 0 0 0 0 5h2.5v-5H9Z"/><path fill-rule="evenodd" clip-rule="evenodd" d="M18.5 6A3.5 3.5 0 0 0 15 2.5h-3.5v7H15A3.5 3.5 0 0 0 18.5 6ZM15 3.5a2.5 2.5 0 0 1 0 5h-2.5v-5H15Z"/><path fill-rule="evenodd" clip-rule="evenodd" d="M18.5 12a3.5 3.5 0 1 0-7 0 3.5 3.5 0 0 0 7 0ZM15 9.5a2.5 2.5 0 1 1 0 5 2.5 2.5 0 0 1 0-5Z"/><path fill-rule="evenodd" clip-rule="evenodd" d="M5.5 12A3.5 3.5 0 0 1 9 8.5h3.5v7H9A3.5 3.5 0 0 1 5.5 12ZM9 9.5a2.5 2.5 0 0 0 0 5h2.5v-5H9Z"/><path fill-rule="evenodd" clip-rule="evenodd" d="M5.5 18A3.5 3.5 0 0 1 9 14.5h3.5V18a3.5 3.5 0 1 1-7 0ZM9 15.5a2.5 2.5 0 1 0 2.5 2.5v-2.5H9Z"/></symbol><symbol id="it-figma-square" viewBox="0 0 24 24"><path fill-rule="evenodd" clip-rule="evenodd" d="M3.567 1.333h16.762a2.286 2.286 0 0 1 2.286 2.286v16.762a2.286 2.286 0 0 1-2.286 2.286H3.567a2.286 2.286 0 0 1-2.286-2.286V3.619a2.286 2.286 0 0 1 2.286-2.286ZM6.5 6.667A3.167 3.167 0 0 1 9.667 3.5H15a3.167 3.167 0 0 1 1.709 5.833 3.167 3.167 0 1 1-3.876 4.976v3.024a3.167 3.167 0 1 1-4.875-2.666A3.164 3.164 0 0 1 6.5 12c0-1.12.581-2.104 1.458-2.667A3.164 3.164 0 0 1 6.5 6.667Zm3.167 3.166h-.004a2.167 2.167 0 0 0 .004 4.334h2.166V9.833H9.667ZM11.833 4.5v4.333h-2.17A2.167 2.167 0 0 1 9.667 4.5h2.166ZM15 8.833h-2.166V4.5H15a2.167 2.167 0 0 1 .004 4.333H15Zm-.004 1a2.167 2.167 0 1 0 .004 0h-.004Zm-7.496 7.5c0-1.196.97-2.166 2.167-2.166h2.166v2.166a2.167 2.167 0 1 1-4.333 0Z"/></symbol><symbol id="it-file" viewBox="0 0 24 24"><path d="M14.7 2H6.5C5.7 2 5 2.7 5 3.5v17c0 .8.7 1.5 1.5 1.5h11c.8 0 1.5-.7 1.5-1.5V6.3L14.7 2zm.3 1.7L17.3 6h-1.8c-.3 0-.5-.2-.5-.5V3.7zM17.5 21h-11c-.3 0-.5-.2-.5-.5v-17c0-.3.2-.5.5-.5H14v2.5c0 .8.7 1.5 1.5 1.5H18v13.5c0 .3-.2.5-.5.5zM8 9h8v1H8V9zm0 2h8v1H8v-1zm0 2h4v1H8v-1z"/></symbol><symbol id="it-file-audio" viewBox="0 0 24 24"><g clip-path="url(#clip0_2_2591)"><path fill-rule="evenodd" clip-rule="evenodd" d="M6.5 2h8.2L19 6.3v14.2a1.5 1.5 0 0 1-1.5 1.5h-11A1.5 1.5 0 0 1 5 20.5v-17A1.5 1.5 0 0 1 6.5 2Zm10.8 4L15 3.7v1.8a.5.5 0 0 0 .5.5h1.8Zm.2 15h-11a.5.5 0 0 1-.5-.5v-17a.5.5 0 0 1 .5-.5H14v2.5A1.5 1.5 0 0 0 15.5 7H18v13.5a.5.5 0 0 1-.5.5ZM12 9.727 15 9v2.75l-2 .5v3.61c0 .495-.301.883-.662 1.123-.364.243-.839.377-1.338.377-.5 0-.974-.134-1.338-.377-.36-.24-.662-.628-.662-1.123s.301-.883.662-1.123c.364-.243.839-.377 1.338-.377.356 0 .7.068 1 .196v-4.83Z"/></g><defs><clipPath id="clip0_2_2591"><path d="M0 0h24v24H0z"/></clipPath></defs></symbol><symbol id="it-file-compressed" viewBox="0 0 24 24"><g clip-path="url(#clip0_2_2603)"><path fill-rule="evenodd" clip-rule="evenodd" d="M6.5 2h8.2L19 6.3v14.2a1.5 1.5 0 0 1-1.5 1.5h-11A1.5 1.5 0 0 1 5 20.5v-17A1.5 1.5 0 0 1 6.5 2Zm10.8 4L15 3.7v1.8a.5.5 0 0 0 .5.5h1.8Zm.2 15h-11a.5.5 0 0 1-.5-.5v-17a.5.5 0 0 1 .5-.5h2.612v.918h-.778v.917h.778v.918h-.778v.917h.778v.918h1.166V6.67H9.5v-.917h.778v-.918H9.5v-.917h.778V3H14v2.5A1.5 1.5 0 0 0 15.5 7H18v13.5a.5.5 0 0 1-.5.5ZM9.111 8.046c-.429 0-.777.411-.777.918v.86l-.31 1.467c-.08.377.049.771.322.986l.723.569a.68.68 0 0 0 .862 0l.723-.569c.273-.215.402-.61.323-.986l-.31-1.466v-.861c0-.507-.349-.918-.778-.918H9.11Zm0 .918h.778v.86c0 .076.007.15.023.223l.31 1.467-.722.569-.723-.569.311-1.467c.016-.072.023-.147.023-.222v-.861Z"/></g><defs><clipPath id="clip0_2_2603"><path d="M0 0h24v24H0z"/></clipPath></defs></symbol><symbol id="it-file-csv" viewBox="0 0 24 24"><g clip-path="url(#clip0_2_2555)"><path fill-rule="evenodd" clip-rule="evenodd" d="M14.7 2H6.5A1.5 1.5 0 0 0 5 3.5V16h1V3.5a.5.5 0 0 1 .5-.5H14v2.5A1.5 1.5 0 0 0 15.5 7H18v13.5a.5.5 0 0 1-.5.5H16v1h1.5a1.5 1.5 0 0 0 1.5-1.5V6.3L14.7 2Zm.3 1.7L17.3 6h-1.8a.5.5 0 0 1-.5-.5V3.7ZM5.002 17c.338 0 .737.045 1.197.134l.24.048-.039.824a12.344 12.344 0 0 0-1.12-.077c-.486 0-.811.109-.977.326-.166.217-.25.626-.25 1.226s.08 1.015.24 1.245c.16.23.492.345.996.345l1.121-.077.029.834c-.645.114-1.13.172-1.456.172-.728 0-1.242-.195-1.542-.584C3.147 21.02 3 20.375 3 19.48c0-.894.156-1.53.47-1.906.312-.383.823-.575 1.532-.575Zm5.77 1.092c-.754-.102-1.3-.153-1.638-.153-.339 0-.575.041-.709.124-.128.077-.191.201-.191.374 0 .172.07.293.21.364.147.07.486.153 1.016.249.536.09.916.233 1.14.43.223.199.335.55.335 1.055 0 .504-.163.874-.489 1.11-.32.237-.788.355-1.408.355-.39 0-.881-.054-1.475-.163l-.297-.048.038-.871c.767.102 1.32.153 1.658.153.338 0 .577-.042.718-.125.147-.083.22-.22.22-.412 0-.191-.07-.322-.21-.392-.135-.077-.463-.157-.987-.24-.517-.09-.897-.226-1.14-.412-.243-.185-.364-.523-.364-1.015 0-.492.166-.859.498-1.101.339-.243.77-.364 1.293-.364.409 0 .91.05 1.504.153l.297.057-.02.872Zm1.752-.987h-1.092l1.235 4.79h1.859l1.245-4.79h-1.063l-.958 3.899h-.307l-.92-3.899Z"/></g><defs><clipPath id="clip0_2_2555"><path d="M0 0h24v24H0z"/></clipPath></defs></symbol><symbol id="it-file-json" viewBox="0 0 24 24"><path fill-rule="evenodd" clip-rule="evenodd" d="M6.5 2h8.2L19 6.3V16h-1V7h-2.5A1.5 1.5 0 0 1 14 5.5V3H6.5a.5.5 0 0 0-.5.5V16H5V3.5A1.5 1.5 0 0 1 6.5 2Zm10.8 4L15 3.7v1.8a.5.5 0 0 0 .5.5h1.8Z"/><path d="M4.35 22.4v-.85c.19 0 .326-.036.411-.107.085-.07.128-.203.128-.396v-3.962h.97l.008 4.004c0 .515-.116.862-.348 1.042-.226.18-.616.269-1.169.269ZM8.36 17.85c-.516 0-.773.17-.773.51 0 .152.064.268.191.348.128.08.426.196.893.347.473.151.803.324.992.517.19.19.284.482.284.88 0 .505-.154.887-.46 1.147-.308.26-.71.39-1.206.39-.368 0-.82-.057-1.353-.17l-.255-.05.099-.758c.633.085 1.117.128 1.453.128.5 0 .75-.208.75-.624a.412.412 0 0 0-.176-.354c-.114-.085-.343-.178-.688-.277-.548-.156-.935-.34-1.162-.553-.222-.217-.333-.517-.333-.9 0-.481.147-.84.44-1.077.292-.236.694-.354 1.204-.354.35 0 .794.047 1.332.142l.256.05-.078.772c-.666-.076-1.137-.114-1.41-.114ZM11.732 20.77c.142.246.404.369.787.369s.642-.123.78-.369c.141-.25.212-.666.212-1.247 0-.586-.07-1.011-.213-1.276-.141-.264-.401-.397-.78-.397-.377 0-.637.133-.779.397-.141.265-.212.69-.212 1.276 0 .58.068.997.205 1.247Zm2.332.624c-.298.397-.813.595-1.545.595s-1.25-.198-1.552-.595c-.298-.402-.447-1.028-.447-1.878 0-.85.15-1.481.447-1.892.302-.416.82-.624 1.552-.624.732 0 1.247.208 1.545.624.302.41.453 1.041.453 1.892 0 .85-.15 1.476-.453 1.878ZM15.356 21.904v-4.819h1.651l1.162 3.968h.071v-3.968h.978v4.819H17.61l-1.205-3.969h-.071v3.969h-.978Z"/></symbol><symbol id="it-file-odp" viewBox="0 0 24 24"><path fill-rule="evenodd" clip-rule="evenodd" d="M6.5 2h8.2L19 6.3v14.2a1.5 1.5 0 0 1-1.5 1.5H16v-1h1.5a.5.5 0 0 0 .5-.5V7h-2.5A1.5 1.5 0 0 1 14 5.5V3H6.5a.5.5 0 0 0-.5.5V16H5V3.5A1.5 1.5 0 0 1 6.5 2Zm10.8 4L15 3.7v1.8a.5.5 0 0 0 .5.5h1.8Z"/><path d="M4.214 20.778c.143.247.405.37.789.37.383 0 .644-.123.781-.37.142-.25.213-.667.213-1.25 0-.587-.07-1.013-.213-1.278-.142-.265-.402-.398-.781-.398s-.64.133-.781.398c-.142.265-.213.691-.213 1.278 0 .583.068 1 .205 1.25Zm2.337.625c-.298.398-.814.597-1.548.597-.734 0-1.253-.199-1.556-.597C3.15 21.001 3 20.373 3 19.521c0-.852.15-1.484.447-1.896.303-.417.822-.625 1.556-.625.734 0 1.25.208 1.548.625.303.412.455 1.044.455 1.896 0 .853-.152 1.48-.455 1.882ZM9.473 21.915H7.846v-4.83h1.627c.416 0 .76.045 1.03.135.27.085.478.23.624.433.152.2.256.436.313.71.057.27.085.623.085 1.059 0 .436-.026.798-.078 1.087-.052.284-.151.54-.298.767-.142.222-.35.386-.625.49-.275.1-.625.149-1.051.149Zm1.03-1.918c.009-.151.014-.36.014-.625 0-.27-.01-.485-.029-.646a1.227 1.227 0 0 0-.135-.44.547.547 0 0 0-.32-.27 1.627 1.627 0 0 0-.56-.078h-.647v3.125h.647c.355 0 .613-.09.774-.27.137-.147.222-.412.255-.796ZM14.15 20.509h-.795v1.406h-.98v-4.83h1.776c1.146 0 1.719.559 1.719 1.676 0 .564-.147.997-.44 1.3-.29.298-.716.448-1.28.448Zm-.795-.838h.789c.487 0 .731-.304.731-.91 0-.298-.059-.511-.177-.639-.119-.132-.303-.199-.554-.199h-.789v1.748Z"/></symbol><symbol id="it-file-ods" viewBox="0 0 24 24"><path fill-rule="evenodd" clip-rule="evenodd" d="M6.5 2h8.2L19 6.3v14.2a1.5 1.5 0 0 1-1.5 1.5H16v-1h1.5a.5.5 0 0 0 .5-.5V7h-2.5A1.5 1.5 0 0 1 14 5.5V3H6.5a.5.5 0 0 0-.5.5V16H5V3.5A1.5 1.5 0 0 1 6.5 2Zm10.8 4L15 3.7v1.8a.5.5 0 0 0 .5.5h1.8Z"/><path d="M4.214 20.778c.143.247.405.37.789.37.383 0 .644-.123.781-.37.142-.25.213-.667.213-1.25 0-.587-.07-1.013-.213-1.278-.142-.265-.402-.398-.781-.398s-.64.133-.781.398c-.142.265-.213.691-.213 1.278 0 .583.068 1 .205 1.25Zm2.337.625c-.298.398-.814.597-1.548.597-.734 0-1.253-.199-1.556-.597C3.15 21.001 3 20.373 3 19.521c0-.852.15-1.484.447-1.896.303-.417.822-.625 1.556-.625.734 0 1.25.208 1.548.625.303.412.455 1.044.455 1.896 0 .853-.152 1.48-.455 1.882ZM9.473 21.915H7.846v-4.83h1.627c.416 0 .76.045 1.03.135.27.085.478.23.624.433.152.2.256.436.313.71.057.27.085.623.085 1.059 0 .436-.026.798-.078 1.087-.052.284-.151.54-.298.767-.142.222-.35.386-.625.49-.275.1-.625.149-1.051.149Zm1.03-1.918c.009-.151.014-.36.014-.625 0-.27-.01-.485-.029-.646a1.227 1.227 0 0 0-.135-.44.547.547 0 0 0-.32-.27 1.627 1.627 0 0 0-.56-.078h-.647v3.125h.647c.355 0 .613-.09.774-.27.137-.147.222-.412.255-.796ZM13.86 17.852c-.516 0-.774.17-.774.512 0 .151.063.267.191.348.128.08.426.196.895.348.474.151.805.324.994.518.19.19.285.483.285.88 0 .507-.154.891-.462 1.151-.308.26-.71.391-1.208.391-.369 0-.821-.057-1.356-.17l-.256-.05.1-.76c.634.085 1.12.128 1.456.128.502 0 .752-.209.752-.625 0-.152-.059-.27-.177-.355-.114-.086-.343-.178-.689-.277-.55-.157-.937-.341-1.165-.554-.222-.218-.333-.519-.333-.902 0-.483.146-.843.44-1.08.293-.237.696-.355 1.207-.355.35 0 .796.047 1.335.142l.256.05-.078.774c-.668-.076-1.139-.114-1.413-.114Z"/></symbol><symbol id="it-file-odt" viewBox="0 0 24 24"><path fill-rule="evenodd" clip-rule="evenodd" d="M6.5 2h8.2L19 6.3v14.2a1.5 1.5 0 0 1-1.5 1.5H16v-1h1.5a.5.5 0 0 0 .5-.5V7h-2.5A1.5 1.5 0 0 1 14 5.5V3H6.5a.5.5 0 0 0-.5.5V16H5V3.5A1.5 1.5 0 0 1 6.5 2Zm10.8 4L15 3.7v1.8a.5.5 0 0 0 .5.5h1.8Z"/><path d="M4.214 20.778c.143.247.405.37.789.37.383 0 .644-.123.781-.37.142-.25.213-.667.213-1.25 0-.587-.07-1.013-.213-1.278-.142-.265-.402-.398-.781-.398s-.64.133-.781.398c-.142.265-.213.691-.213 1.278 0 .583.068 1 .205 1.25Zm2.337.625c-.298.398-.814.597-1.548.597-.734 0-1.253-.199-1.556-.597C3.15 21.001 3 20.373 3 19.521c0-.852.15-1.484.447-1.896.303-.417.822-.625 1.556-.625.734 0 1.25.208 1.548.625.303.412.455 1.044.455 1.896 0 .853-.152 1.48-.455 1.882ZM9.473 21.915H7.846v-4.83h1.627c.416 0 .76.045 1.03.135.27.085.478.23.624.433.152.2.256.436.313.71.057.27.085.623.085 1.059 0 .436-.026.798-.078 1.087-.052.284-.151.54-.298.767-.142.222-.35.386-.625.49-.275.1-.625.149-1.051.149Zm1.03-1.918c.009-.151.014-.36.014-.625 0-.27-.01-.485-.029-.646a1.227 1.227 0 0 0-.135-.44.547.547 0 0 0-.32-.27 1.627 1.627 0 0 0-.56-.078h-.647v3.125h.647c.355 0 .613-.09.774-.27.137-.147.222-.412.255-.796ZM11.907 17.952v-.867h3.552v.867H14.18v3.963h-.98v-3.963h-1.293Z"/></symbol><symbol id="it-file-pdf" viewBox="0 0 24 24"><g clip-path="url(#clip0_2_2577)"><path fill-rule="evenodd" clip-rule="evenodd" d="M6.5 2h8.2L19 6.3v14.2a1.5 1.5 0 0 1-1.5 1.5h-11A1.5 1.5 0 0 1 5 20.5v-17A1.5 1.5 0 0 1 6.5 2Zm10.8 4L15 3.7v1.8a.5.5 0 0 0 .5.5h1.8Zm.2 15h-11a.5.5 0 0 1-.5-.5v-17a.5.5 0 0 1 .5-.5H14v2.5A1.5 1.5 0 0 0 15.5 7H18v13.5a.5.5 0 0 1-.5.5Zm-9.384-3.89c.09.18.23.343.439.419.207.076.411.04.58-.029.318-.131.635-.436.926-.787a11.31 11.31 0 0 0 1.02-1.51 11.648 11.648 0 0 1 1.998-.405c.3.382.61.712.91.95.28.22.603.403.934.416a.854.854 0 0 0 .51-.138c.154-.1.27-.247.354-.416.09-.18.145-.37.138-.562a.845.845 0 0 0-.2-.519c-.226-.27-.596-.4-.96-.465-.38-.068-.84-.08-1.335-.05a10.95 10.95 0 0 1-.98-1.686c.25-.66.437-1.284.52-1.794.036-.218.054-.426.047-.613a1.238 1.238 0 0 0-.126-.539.7.7 0 0 0-.477-.365c-.202-.043-.41 0-.602.077-.377.151-.575.47-.65.823-.073.34-.04.736.046 1.137.088.405.238.847.43 1.295a19.71 19.71 0 0 1-1.062 2.227 7.656 7.656 0 0 0-1.483.645c-.37.219-.698.48-.896.786-.21.326-.275.714-.08 1.103Zm1.359-1.243c.139-.083.293-.162.458-.239a7.859 7.859 0 0 1-.45.606c-.28.337-.497.516-.634.573a.266.266 0 0 1-.036.012.285.285 0 0 1-.026-.044c-.055-.111-.053-.217.04-.362.106-.164.32-.353.648-.546Zm2.455-1.647c-.119.024-.238.05-.356.077a21.155 21.155 0 0 0 .499-1.05 11.718 11.718 0 0 0 .51.858c-.217.032-.436.07-.653.115Zm2.524.939a3.892 3.892 0 0 1-.434-.41c.228.004.434.021.612.053.317.058.466.147.518.209a.096.096 0 0 1 .025.064.436.436 0 0 1-.059.2.307.307 0 0 1-.094.124.107.107 0 0 1-.069.016c-.091-.004-.258-.066-.499-.256Zm-2.224-4.746a6.67 6.67 0 0 1-.2.828 4.842 4.842 0 0 1-.089-.346c-.076-.353-.087-.63-.046-.821.037-.178.109-.249.196-.283a.518.518 0 0 1 .145-.04c.012.03.028.091.032.197.005.122-.007.277-.038.465Z"/></g><defs><clipPath id="clip0_2_2577"><path d="M0 0h24v24H0z"/></clipPath></defs></symbol><symbol id="it-file-pdf-ext" viewBox="0 0 24 24"><path fill-rule="evenodd" clip-rule="evenodd" d="M6.5 2h8.2L19 6.3v14.2a1.5 1.5 0 0 1-1.5 1.5H16v-1h1.5a.5.5 0 0 0 .5-.5V7h-2.5A1.5 1.5 0 0 1 14 5.5V3H6.5a.5.5 0 0 0-.5.5V16H5V3.5A1.5 1.5 0 0 1 6.5 2Zm10.8 4L15 3.7v1.8a.5.5 0 0 0 .5.5h1.8Z"/><path d="M4.957 20.544H4.08V22H3v-5h1.957c1.263 0 1.895.578 1.895 1.735 0 .584-.162 1.032-.486 1.346-.318.309-.788.463-1.409.463Zm-.877-.867h.87c.537 0 .806-.314.806-.942 0-.308-.066-.53-.196-.662-.13-.137-.334-.205-.61-.205h-.87v1.809ZM9.403 22H7.61v-5h1.793c.46 0 .838.047 1.135.14.297.088.527.238.689.448.167.206.282.451.344.735.063.28.094.645.094 1.096 0 .451-.028.826-.086 1.125a2.092 2.092 0 0 1-.329.794c-.156.23-.386.4-.688.508-.303.102-.69.154-1.16.154Zm1.135-1.985c.01-.157.016-.373.016-.647 0-.28-.01-.503-.032-.67a1.216 1.216 0 0 0-.148-.455.595.595 0 0 0-.353-.28 1.902 1.902 0 0 0-.618-.08H8.69v3.235h.713c.391 0 .676-.093.853-.28.152-.152.245-.426.282-.823ZM12.602 22v-5H16v.882h-2.317v1.47h1.894v.883h-1.894V22h-1.08Z"/></symbol><symbol id="it-file-sheet" viewBox="0 0 24 24"><g clip-path="url(#clip0_2_2570)"><path fill-rule="evenodd" clip-rule="evenodd" d="M6.5 2h8.2L19 6.3v14.2a1.5 1.5 0 0 1-1.5 1.5h-11A1.5 1.5 0 0 1 5 20.5v-17A1.5 1.5 0 0 1 6.5 2Zm10.8 4L15 3.7v1.8a.5.5 0 0 0 .5.5h1.8Zm.2 15h-11a.5.5 0 0 1-.5-.5v-17a.5.5 0 0 1 .5-.5H14v2.5A1.5 1.5 0 0 0 15.5 7H18v13.5a.5.5 0 0 1-.5.5ZM14 10v7h2v-7h-2Zm-3 7v-5h2v5h-2Zm-3-3v3h2v-3H8Z"/></g><defs><clipPath id="clip0_2_2570"><path d="M0 0h24v24H0z"/></clipPath></defs></symbol><symbol id="it-file-slides" viewBox="0 0 24 24"><path fill-rule="evenodd" clip-rule="evenodd" d="M6.5 2h8.2L19 6.3v14.2a1.5 1.5 0 0 1-1.5 1.5h-11A1.5 1.5 0 0 1 5 20.5v-17A1.5 1.5 0 0 1 6.5 2Zm10.8 4L15 3.7v1.8a.5.5 0 0 0 .5.5h1.8Zm.2 15h-11a.5.5 0 0 1-.5-.5v-17a.5.5 0 0 1 .5-.5H14v2.5A1.5 1.5 0 0 0 15.5 7H18v13.5a.5.5 0 0 1-.5.5ZM8.504 9.438A.5.5 0 0 1 9 9h6a.5.5 0 0 1 .496.438l.5 4A.5.5 0 0 1 15.5 14h-3v2H14v1h-4v-1h1.5v-2h-3a.5.5 0 0 1-.496-.562l.5-4Zm2.496.783v2.558c0 .097.106.157.19.107l2.131-1.279a.125.125 0 0 0 0-.214l-2.132-1.28a.125.125 0 0 0-.189.108Z"/></symbol><symbol id="it-file-txt" viewBox="0 0 24 24"><path fill-rule="evenodd" clip-rule="evenodd" d="M6.5 2h8.2L19 6.3v14.2a1.5 1.5 0 0 1-1.5 1.5H14v-1h3.5a.5.5 0 0 0 .5-.5V7h-2.5A1.5 1.5 0 0 1 14 5.5V3H6.5a.5.5 0 0 0-.5.5V16H5V3.5A1.5 1.5 0 0 1 6.5 2Zm10.8 4L15 3.7v1.8a.5.5 0 0 0 .5.5h1.8Z"/><path d="M3 17.897V17h3.525v.897H5.256V22h-.973v-4.103H3ZM7.761 17l.889 1.838L9.56 17h1.007l-1.381 2.552L10.567 22H9.49L8.6 20.272 7.691 22H6.683l1.382-2.397L6.683 17H7.76ZM10.725 17.897V17h3.525v.897h-1.269V22h-.973v-4.103h-1.283Z"/></symbol><symbol id="it-file-video" viewBox="0 0 24 24"><g clip-path="url(#clip0_2_2584)"><path fill-rule="evenodd" clip-rule="evenodd" d="M6.5 2h8.2L19 6.3v14.2a1.5 1.5 0 0 1-1.5 1.5h-11A1.5 1.5 0 0 1 5 20.5v-17A1.5 1.5 0 0 1 6.5 2Zm10.8 4L15 3.7v1.8a.5.5 0 0 0 .5.5h1.8Zm.2 15h-11a.5.5 0 0 1-.5-.5v-17a.5.5 0 0 1 .5-.5H14v2.5A1.5 1.5 0 0 0 15.5 7H18v13.5a.5.5 0 0 1-.5.5ZM10 15.426v-4.852c0-.445.468-.72.836-.492l3.896 2.427a.585.585 0 0 1 0 .982l-3.896 2.427c-.368.229-.836-.046-.836-.492Z"/></g><defs><clipPath id="clip0_2_2584"><path d="M0 0h24v24H0z"/></clipPath></defs></symbol><symbol id="it-file-xml" viewBox="0 0 24 24"><path fill-rule="evenodd" clip-rule="evenodd" d="M6.5 2h8.2L19 6.3v14.2a1.5 1.5 0 0 1-1.5 1.5H17v-1h.5a.5.5 0 0 0 .5-.5V7h-2.5A1.5 1.5 0 0 1 14 5.5V3H6.5a.5.5 0 0 0-.5.5V16H5V3.5A1.5 1.5 0 0 1 6.5 2Zm10.8 4L15 3.7v1.8a.5.5 0 0 0 .5.5h1.8Z"/><path d="m3.12 17 .92 1.838L4.985 17H6.03l-1.433 2.552L6.03 22H4.911l-.921-1.728L3.046 22H2l1.434-2.397L2 17h1.12ZM6.64 22v-5h1.72l.877 3.647.878-3.647h1.719v5h-1.01v-3.868h-.11l-.972 3.647h-1.01l-.973-3.647h-.11V22H6.64ZM15.75 22h-2.83v-5h1.009v4.103h1.821V22Z"/></symbol><symbol id="it-files" viewBox="0 0 24 24"><path d="M15.7 2H7.5C6.7 2 6 2.7 6 3.5V4h-.5C4.7 4 4 4.7 4 5.5v15c0 .8.7 1.5 1.5 1.5h11c.8 0 1.5-.7 1.5-1.5V20h.5c.8 0 1.5-.7 1.5-1.5V6.3L15.7 2zm.3 1.7L18.3 6h-1.8c-.3 0-.5-.2-.5-.5V3.7zm1 16.8c0 .3-.2.5-.5.5h-11c-.3 0-.5-.2-.5-.5v-15c0-.3.2-.5.5-.5H6v13.5c0 .8.7 1.5 1.5 1.5H17v.5zm1.5-1.5h-11c-.3 0-.5-.2-.5-.5v-15c0-.3.2-.5.5-.5H15v2.5c0 .8.7 1.5 1.5 1.5H19v11.5c0 .3-.2.5-.5.5zM9 9h8v1H9V9zm0 2h8v1H9v-1zm0 2h4v1H9v-1z"/></symbol><symbol id="it-flag" viewBox="0 0 24 24"><path d="m17.1 8 3.3-5H5V2H4v20h1v-9h15.4l-3.3-5zM5 4h13.6l-2.7 4 2.7 4H5V4z"/></symbol><symbol id="it-flickr" viewBox="0 0 24 24"><circle cx="6.7" cy="12" r="4.7"/><circle cx="17.3" cy="12" r="4.7"/></symbol><symbol id="it-flickr-square" viewBox="0 0 24 24"><path d="M20 4c-.6-.6-1.5-1-2.4-1H6.4c-.9 0-1.8.4-2.4 1-.6.6-1 1.5-1 2.4v11.3c0 .9.4 1.8 1 2.4.6.6 1.5 1 2.4 1h11.2c1.9 0 3.4-1.5 3.4-3.4V6.4c0-.9-.4-1.8-1-2.4zm-9.6 9.8c-1 1-2.5 1-3.5 0s-1-2.5 0-3.5 2.5-1 3.5 0c1 .9 1 2.5 0 3.5zm6.6 0c-.7.7-1.8.9-2.7.5-.9-.4-1.5-1.3-1.5-2.3 0-1 .6-1.9 1.5-2.3.9-.4 2-.2 2.7.5 1 1 1 2.6 0 3.6z"/></symbol><symbol id="it-folder" viewBox="0 0 24 24"><path d="M20 6h-8l-2-2H4c-1.1 0-2 .9-2 2v12c0 1.1.9 2 2 2h16c1.1 0 2-.9 2-2V8c0-1.1-.9-2-2-2zm1 12c.1.5-.3.9-.8 1H4c-.5.1-.9-.3-1-.8V6c-.1-.5.3-.9.8-1h5.8l1.7 1.7.3.3H20c.5-.1.9.3 1 .8V18zM4 8h16v1H4V8z"/></symbol><symbol id="it-fullscreen" viewBox="0 0 24 24"><path d="M4 20h4.5v1H3v-5.5h1zM3 8.5h1V4h4.5V3H3zM20 20h-4.5v1H21v-5.5h-1zM15.5 3v1H20v4.5h1V3z"/></symbol><symbol id="it-funnel" viewBox="0 0 24 24"><path d="M14 22h-1v-8.6L20 3H4l7 10.4V22h-1v-8.4L2 2h20l-8 11.6V22z"/></symbol><symbol id="it-github" viewBox="0 0 24 24"><path d="M12 2c-4.9 0-9.1 3.6-9.9 8.4s2.1 9.5 6.7 11.1c.5.1.7-.2.7-.5v-1.7c-2.8.6-3.4-1.3-3.4-1.3-.1-.6-.6-1.2-1.1-1.5-.9-.6.1-.6.1-.6.6.1 1.2.5 1.5 1 .6 1 1.9 1.4 2.9.8 0-.5.3-1 .6-1.3-2.1-.2-4.5-1.1-4.5-4.9 0-1 .3-2 1-2.7-.3-.9-.2-1.8.1-2.6 0 0 .8-.3 2.8 1 1.6-.4 3.4-.4 5 0 1.9-1.3 2.7-1 2.7-1 .4.8.4 1.8.1 2.6.7.7 1 1.7 1 2.7 0 3.8-2.3 4.7-4.6 4.9.5.5.7 1.2.7 1.9v2.8c0 .4.2.6.7.5 4.7-1.5 7.5-6.2 6.7-11.1S16.9 2 12 2z"/></symbol><symbol id="it-google" viewBox="0 0 24 24"><path d="M12.545 10.239v3.821h5.445c-.712 2.315-2.647 3.972-5.445 3.972a6.033 6.033 0 1 1 0-12.064c1.498 0 2.866.549 3.921 1.453l2.814-2.814A9.969 9.969 0 0 0 12.545 2C7.021 2 2.543 6.477 2.543 12s4.478 10 10.002 10c8.396 0 10.249-7.85 9.426-11.748l-9.426-.013z"/></symbol><symbol id="it-hearing" viewBox="0 0 24 24"><path d="M20 9c0 2.5-1.3 4.8-3.5 6l-2 1.1c-.9.6-1.5 1.6-1.5 2.7 0 1.8-1.4 3.2-3.2 3.2h-.6c-1.3-.1-2.5-.9-3-2.1l.9-.5c.3.9 1.1 1.6 2.1 1.6h.6c.6 0 1.2-.2 1.6-.7.4-.4.6-.9.6-1.5 0-1.4.8-2.8 2-3.5l2-1.2c1.8-1 3-3 3-5.1 0-3.3-2.7-6-6-6-1.9 0-3.7.9-4.8 2.4l-.8-.6C8.7 3 10.8 2 13 2c3.9 0 7 3.1 7 7zM7.5 12C7.5 9 5 6.5 2 6.5v1c2.5 0 4.5 2 4.5 4.5s-2 4.5-4.5 4.5v1c3 0 5.5-2.5 5.5-5.5zM5 12c.1-1.6-1.2-2.9-2.8-3H2v1c1.1 0 2 .9 2 2s-.9 2-2 2v1c1.6.1 2.9-1.2 3-2.8V12zm5 0c0-4.4-3.6-8-8-8v1c3.9 0 7 3.1 7 7s-3.1 7-7 7v1c4.4 0 8-3.6 8-8zm5.9.3c.8-.9 1.2-2 1.2-3.2 0-1.2-.4-2.3-1.2-3.2-.8-.9-2-1.4-3.2-1.4-1.2.1-2.4.6-3.2 1.5l-.3.3.2.3c.6.9 1.1 1.9 1.3 3v.4h.4c.8 0 1.5.7 1.5 1.5s-.7 1.5-1.5 1.5v1c1.4 0 2.5-1.1 2.5-2.5 0-1.2-.8-2.2-2-2.5-.2-.9-.6-1.8-1.1-2.6.6-.5 1.4-.8 2.2-.9.9 0 1.8.4 2.4 1 .7.7 1 1.6 1 2.6s-.3 1.9-1 2.6l.8.6z"/></symbol><symbol id="it-help" viewBox="0 0 24 24"><path d="M12.8 22h-1.4v-2.1h1.4V22zm-.1-4.9h-1.2c-.1-.6-.1-1.1-.1-1.7 0-.4.1-.8.3-1.2.2-.5.4-.9.7-1.3l2.3-2.1c.7-.6 1.3-1.3 1.8-2.1.4-.7.5-1.5.5-2.3.1-1-.3-2-1.1-2.6-1-.6-2.2-.8-3.4-.7-1.2.1-2.4.2-3.6.5l-1 .3-.2-1.2h.1c1.5-.5 3.1-.7 4.7-.8 1.5-.1 3 .2 4.3 1 1 .9 1.5 2.2 1.4 3.5.1.9-.1 1.9-.5 2.7-.5.8-1.1 1.6-1.9 2.2-.6.5-1.2 1-1.8 1.6l-.9 1.2c-.3.4-.4.9-.4 1.4v1.6z"/></symbol><symbol id="it-help-circle" viewBox="0 0 24 24"><path d="M12 2C6.5 2 2 6.5 2 12s4.5 10 10 10 10-4.5 10-10S17.5 2 12 2zm0 19c-5 0-9-4-9-9s4-9 9-9 9 4 9 9-4 9-9 9zm-1.2-4.5H12v1.8h-1.2v-1.8zm4.5-8c0 .6-.1 1.2-.3 1.8-.3.5-.8 1-1.3 1.4L12.3 13c-.2.4-.4.8-.4 1.2v.6H11c-.1-.3-.2-.7-.2-1 0-.4.2-.9.5-1.2.4-.5.9-1 1.4-1.4.5-.4.9-.8 1.2-1.3.2-.4.3-.9.3-1.4 0-.5-.2-1.1-.6-1.4-.6-.3-1.3-.5-2-.4L9.3 7h-.5v-.8c1-.3 2-.5 3-.5.9-.1 1.9.1 2.7.6.6.6.9 1.4.8 2.2z"/></symbol><symbol id="it-horn" viewBox="0 0 24 24"><path d="M5 9c-1.7 0-3 1.3-3 3s1.3 3 3 3h.5L7 19.3c.3 1 1.3 1.7 2.3 1.7h.2c.5 0 .9-.2 1.2-.6.3-.4.4-.9.2-1.4l-1.3-4h1.8l8.6 3.8V4.7L11.4 9H5zm5 10.3c0 .2 0 .4-.1.5l-.4.2h-.2c-.6 0-1.2-.4-1.4-1l-1.3-4h1.9l1.5 4.3zM5 14c-1.1 0-2-.9-2-2s.9-2 2-2h6v4H5zm14 3.2-7-3V9.8l7-3.5v10.9zM22 9v6h-1V9h1z"/></symbol><symbol id="it-inbox" viewBox="0 0 24 24"><path d="M4 2v14h3.7l1 2h6.6l1-2H20V2H4zm15 13h-3.3l-1 2H9.3l-1-2H5V3h14v12z"/><path d="M19 17h1v5H4v-5h1v4h14zM7 5h10v1H7zM7 8h10v1H7zM7 11h10v1H7z"/></symbol><symbol id="it-info-circle" viewBox="0 0 24 24"><path d="M12 2C6.5 2 2 6.5 2 12s4.5 10 10 10 10-4.5 10-10S17.5 2 12 2zm0 19c-5 0-9-4-9-9s4-9 9-9 9 4 9 9-4 9-9 9zm-.7-15h1.5v2h-1.5V6zm0 3h1.5v9h-1.5V9z"/></symbol><symbol id="it-instagram" viewBox="0 0 24 24"><path d="M12 4.6c-2.4.1-2.6.1-3.6.1-.6 0-1.2.1-1.7.3-.4.2-.7.4-1 .7-.3.3-.5.6-.7 1-.2.5-.3 1.1-.3 1.7v7.2c0 .6.1 1.1.3 1.7.2.4.4.7.7 1 .3.3.6.5 1 .7.5.2 1.1.3 1.7.3 1 .1 1.2.1 3.6.1s2.6-.1 3.6-.1c.6 0 1.1-.1 1.7-.3.8-.3 1.4-.9 1.7-1.7.2-.5.3-1.1.3-1.7.1-.9.1-1.2.1-3.6s-.1-2.6-.1-3.6c0-.6-.1-1.1-.3-1.7-.2-.4-.4-.7-.7-1-.3-.3-.6-.5-1-.7-.5-.2-1.1-.3-1.7-.4H12zM12 3h3.7c.7 0 1.5.2 2.2.4 1.2.5 2.2 1.4 2.7 2.6.2.8.4 1.5.4 2.3v7.4c0 .8-.2 1.5-.5 2.2-.5 1.2-1.4 2.2-2.6 2.6-.7.3-1.4.4-2.2.4H8.3c-.8 0-1.5-.2-2.2-.5-1.2-.5-2.2-1.4-2.6-2.6-.3-.7-.4-1.4-.4-2.2V8.2c0-.7.2-1.5.4-2.2.5-1.2 1.4-2.2 2.6-2.7.7-.1 1.4-.3 2.2-.3H12zm0 4.4c1.2 0 2.4.5 3.3 1.4s1.4 2 1.4 3.3c0 2.6-2.1 4.6-4.6 4.6S7.4 14.6 7.4 12s2-4.6 4.6-4.6zm0 7.6c.8 0 1.6-.3 2.1-.9.6-.6.9-1.3.9-2.1 0-1.7-1.3-3-3-3s-3 1.3-3 3 1.3 3 3 3zm4.8-6.7c-.6 0-1.1-.5-1.1-1.1s.5-1.1 1.1-1.1c.6 0 1.1.5 1.1 1.1s-.5 1.1-1.1 1.1z"/></symbol><symbol id="it-key" viewBox="0 0 24 24"><path d="M18 10c-1.1 0-2 .9-2 2s.9 2 2 2 2-.9 2-2-.9-2-2-2zm0 3c-.6 0-1-.4-1-1s.4-1 1-1 1 .4 1 1c.1.5-.3.9-.8 1H18zm-1-6c-2 0-3.8 1.2-4.6 3H3.3l-2 2 3 3H7v-1h.3l1 1H11v-1h1.4c.8 1.8 2.6 3 4.6 3 2.8 0 5-2.2 5-5s-2.2-5-5-5zm0 9c-1.7 0-3.2-1.1-3.8-2.7V13H10v1H8.7l-1-1H6v1H4.7l-2-2 1-1h9.4v-.3C13.7 9.1 15.3 8 17 8c2.2 0 4 1.8 4 4s-1.8 4-4 4z"/></symbol><symbol id="it-less-circle" viewBox="0 0 24 24"><path d="M12 3c5 0 9 4 9 9 0 2.4-.9 4.7-2.6 6.4-3.5 3.5-9.2 3.5-12.7 0s-3.5-9.2 0-12.7C7.3 3.9 9.6 3 12 3m0-1C6.5 2 2 6.5 2 12s4.5 10 10 10 10-4.5 10-10c0-2.7-1.1-5.2-2.9-7.1C17.2 3 14.7 2 12 2z"/><path d="M7.8 11.3h8.5c.4 0 .8.3.8.8 0 .4-.3.8-.8.8H7.8c-.5-.1-.8-.5-.8-.9s.3-.7.8-.7z"/></symbol><symbol id="it-link" viewBox="0 0 24 24"><path d="m13.4 13.4-.7-.7c.6-.5.9-1.3.9-2.1s-.3-1.6-.9-2.1L9.2 4.9C8 3.8 6.1 3.8 4.9 4.9 3.8 6.1 3.8 8 4.9 9.2L7.8 12l-.7.7-2.9-2.8c-1.5-1.6-1.5-4.1 0-5.7 1.6-1.5 4.1-1.5 5.7 0l3.5 3.6c.8.7 1.2 1.7 1.2 2.8 0 1.1-.4 2.1-1.2 2.8zm6.4 6.4c1.5-1.6 1.5-4.1 0-5.7l-2.9-2.8-.7.7 2.9 2.8c1.1 1.2 1.1 3.1 0 4.3-1.2 1.1-3.1 1.1-4.3 0l-3.5-3.6c-.6-.5-.9-1.3-.9-2.1s.3-1.6.9-2.1l-.7-.7c-.8.7-1.2 1.7-1.2 2.8 0 1.1.4 2.1 1.2 2.8l3.5 3.6c.7.7 1.8 1.1 2.8 1.1 1.1.1 2.1-.3 2.9-1.1z"/></symbol><symbol id="it-linkedin" viewBox="0 0 24 24"><path d="M16.5 8.7c-1.4 0-2.8.7-3.5 1.9V9H9.4v12h3.7v-5.9c0-1.6.3-3.1 2.2-3.1s1.9 1.8 1.9 3.2V21H21v-6.6c0-3.2-.7-5.7-4.5-5.7zM5.2 3C4 3 3 4 3 5.2c0 1.2 1 2.2 2.2 2.2s2.2-1 2.2-2.2c0-.6-.2-1.1-.6-1.5-.5-.5-1.1-.7-1.6-.7zM3.3 9v12H7V9H3.3zm13.2-.3c-1.4-.1-2.8.7-3.5 1.9V9H9.4v12h3.7v-5.9c0-1.6.3-3.1 2.2-3.1s1.9 1.8 1.9 3.2V21H21v-6.6c0-3.2-.7-5.7-4.5-5.7zM3.3 21H7V9H3.3v12zM5.2 3C4 3 3 4 3 5.2c0 1.2 1 2.2 2.2 2.2s2.2-1 2.2-2.2c0-.6-.2-1.1-.6-1.5-.5-.5-1.1-.7-1.6-.7z"/></symbol><symbol id="it-linkedin-square" viewBox="0 0 24 24"><path d="M19.7 3H4.3C3.6 3 3 3.6 3 4.3v15.4c0 .7.6 1.3 1.3 1.3h15.3c.7 0 1.3-.6 1.3-1.3V4.3c.1-.7-.5-1.3-1.2-1.3zM8.3 18.3H5.7V9.8h2.7v8.5zM7 8.6c-.9 0-1.5-.7-1.5-1.6 0-.9.7-1.5 1.5-1.6s1.5.7 1.6 1.6c0 .4-.2.8-.4 1.1-.4.3-.8.5-1.2.5zm11.3 9.7h-2.7v-4.2c0-1 0-2.3-1.4-2.3s-1.6 1.1-1.6 2.2v4.3H10V9.8h2.6V11c.5-.9 1.5-1.4 2.5-1.4 2.7 0 3.2 1.8 3.2 4.1v4.6z"/></symbol><symbol id="it-list" viewBox="0 0 24 24"><path d="M4 12c.1.5-.3.9-.8 1H3c-.6 0-1-.4-1-1s.4-1 1-1c.5-.1.9.3 1 .8v.2zM3 4.5c-.5-.1-.9.3-1 .8v.2c-.1.5.3.9.8 1H3c.5.1.9-.3 1-.8v-.2c.1-.5-.3-.9-.8-1H3zm0 13c-.6 0-1 .4-1 1s.4 1 1 1 1-.4 1-1-.4-1-1-1zM6 5v1h16V5H6zm0 7.5h16v-1H6v1zM6 19h16v-1H6v1z"/></symbol><symbol id="it-lock" viewBox="0 0 24 24"><path d="M18.5 8.5H17V8c0-2.8-2.2-5-5-5S7 5.2 7 8v.5H5.5C4.7 8.5 4 9.2 4 10v8.5c0 .8.7 1.5 1.5 1.5h13c.8 0 1.5-.7 1.5-1.5V10c0-.8-.7-1.5-1.5-1.5zM8 8c0-2.2 1.8-4 4-4s4 1.8 4 4v.5H8V8zm11 10.5c0 .3-.2.5-.5.5h-13c-.3 0-.5-.2-.5-.5V10c0-.3.2-.5.5-.5h13c.3 0 .5.2.5.5v8.5z"/><path d="M12 13.3c.6 0 1 .4 1 1s-.4 1-1 1-1-.4-1-1 .4-1 1-1m0-1c-1.1 0-2 .9-2 2s.9 2 2 2 2-.9 2-2-.9-2-2-2z"/></symbol><symbol id="it-locked" viewBox="0 0 24 24"><path d="M16.5 12H16V7c0-2.2-1.8-4-4-4S8 4.8 8 7v5h-.5c-.6 0-1.1.5-1.1 1.1v6.8c0 .6.5 1.1 1.1 1.1h9c.6 0 1.1-.5 1.1-1.1v-6.8c0-.6-.5-1.1-1.1-1.1zM9 7c0-1.7 1.3-3 3-3s3 1.3 3 3v5H9V7zm7.6 12.9c0 .1 0 .1-.1.1h-9c-.1 0-.1 0-.1-.1v-6.8h9.2v6.8zM13 15.5c0 .3-.2.7-.5.8v1.5h-1v-1.5c-.3-.1-.5-.5-.5-.8 0-.6.4-1 1-1s1 .4 1 1z"/></symbol><symbol id="it-logout" viewBox="0 0 24 24"><g clip-path="url(#clip0_2_2598)"><path fill-rule="evenodd" clip-rule="evenodd" d="M16.7 7.7 21 12l-4.3 4.3-.7-.7 3-3.1H9.8v-1h9.3L16 8.4l.7-.7ZM4.5 20H12v1H4.5A1.5 1.5 0 0 1 3 19.5v-15A1.5 1.5 0 0 1 4.5 3H12v1H4.5a.5.5 0 0 0-.5.5v15a.5.5 0 0 0 .5.5Z"/></g><defs><clipPath id="clip0_2_2598"><path d="M0 0h24v24H0z"/></clipPath></defs></symbol><symbol id="it-mail" viewBox="0 0 24 24"><path d="M20.5 5h-17C2.7 5 2 5.7 2 6.5v11c0 .8.7 1.5 1.5 1.5h17c.8 0 1.5-.7 1.5-1.5v-11c0-.8-.7-1.5-1.5-1.5zm-.3 1-7.1 7.2c-.6.6-1.6.6-2.2 0L3.8 6h16.4zM3 17.3V6.6L8.3 12 3 17.3zm.7.7L9 12.7l1.2 1.2c1 .9 2.6.9 3.6 0l1.2-1.2 5.3 5.3H3.7zm12-6L21 6.6v10.7L15.7 12z"/></symbol><symbol id="it-mail-open" viewBox="0 0 24 24"><path fill-rule="evenodd" clip-rule="evenodd" d="M21 19.858V20a1 1 0 0 1-1 1H4a1 1 0 0 1-1-1v-.142l9-5.4 9 5.4Zm0-1.166v-7.759l-6.466 3.88L21 18.692Zm0-8.925v-1.53a1 1 0 0 0-.553-.895l-8-4a1 1 0 0 0-.894 0l-8 4A1 1 0 0 0 3 8.236v1.53l7.437 4.463L12 13.292l1.562.937L21 9.767ZM3 10.933v7.759l6.466-3.88L3 10.934ZM2 8.236a2 2 0 0 1 1.106-1.789l8-4a2 2 0 0 1 1.788 0l8 4A2 2 0 0 1 22 8.237V20a2 2 0 0 1-2 2H4a2 2 0 0 1-2-2V8.236Z"/></symbol><symbol id="it-map-marker" viewBox="0 0 24 24"><path d="M12 22 6.3 11.6c-1.7-3.1-.6-7 2.6-8.8s7.1-.6 8.8 2.5c.5 1 .8 2 .8 3.1s-.3 2.2-.8 3.1L12 22zm0-19C9 3 6.5 5.5 6.5 8.5c0 .9.2 1.9.7 2.7L12 20l4.8-8.8c1.5-2.6.5-6-2.1-7.5-.8-.5-1.8-.7-2.7-.7z"/></symbol><symbol id="it-map-marker-circle" viewBox="0 0 24 24"><path d="M17.7 5.3C16 2.2 12 1.1 8.9 2.8s-4.3 5.7-2.5 8.8L12 22l5.7-10.4c.5-1 .8-2 .8-3.1s-.3-2.2-.8-3.2zm-.9 5.8L12 19.9l-4.8-8.8c-.5-.8-.7-1.7-.7-2.7C6.5 5.4 9 3 12 3s5.5 2.5 5.5 5.5c0 .9-.2 1.8-.7 2.6z"/><path d="M12 5c-1.9 0-3.5 1.6-3.5 3.5S10.1 12 12 12s3.5-1.6 3.5-3.5S13.9 5 12 5zm0 6c-1.4 0-2.5-1.1-2.5-2.5S10.6 6 12 6s2.5 1.1 2.5 2.5S13.4 11 12 11z"/></symbol><symbol id="it-map-marker-minus" viewBox="0 0 24 24"><path d="M17.7 5.3C16 2.2 12 1.1 8.9 2.8s-4.3 5.7-2.5 8.8L12 22l5.7-10.4c.5-1 .8-2 .8-3.1s-.3-2.2-.8-3.2zm-.9 5.8L12 19.9l-4.8-8.8c-.5-.8-.7-1.7-.7-2.7C6.5 5.4 9 3 12 3s5.5 2.5 5.5 5.5c0 .9-.2 1.8-.7 2.6z"/></symbol><symbol id="it-map-marker-plus" viewBox="0 0 24 24"><path d="M15.1 2.8c-1-.5-2-.8-3.1-.8-3.6 0-6.5 2.9-6.5 6.5 0 1.1.3 2.2.8 3.1L12 22l5.7-10.4c1.7-3.2.5-7.1-2.6-8.8zm1.7 8.3L12 19.9l-4.8-8.8c-1.5-2.7-.5-6 2.1-7.5 2.7-1.5 6-.5 7.5 2.1.5.8.7 1.7.7 2.7s-.2 1.9-.7 2.7z"/><path d="M12.5 8h3v1h-3v3h-1V9h-3V8h3V5h1z"/></symbol><symbol id="it-mastodon" viewBox="0 0 24 24"><path d="M15.527 16.72c2.267-.27 4.24-1.66 4.489-2.93.39-2 .358-4.88.358-4.88 0-3.905-2.57-5.05-2.57-5.05-1.297-.592-3.523-.841-5.836-.86h-.057c-2.313.019-4.538.268-5.834.86 0 0-2.572 1.145-2.572 5.05 0 .236 0 .485-.002.745a77.26 77.26 0 0 0 .013 2.352c.094 3.818.704 7.582 4.252 8.516 1.636.431 3.041.521 4.173.46 2.051-.114 3.203-.729 3.203-.729l-.068-1.481s-1.466.46-3.113.404c-1.63-.056-3.353-.175-3.617-2.168a4.067 4.067 0 0 1-.036-.559s1.601.39 3.63.482c1.242.057 2.405-.072 3.587-.212Zm1.814-2.78H15.46V9.353c0-.968-.41-1.459-1.228-1.459-.904 0-1.358.583-1.358 1.734v2.512h-1.871V9.627c0-1.151-.454-1.734-1.358-1.734-.819 0-1.228.491-1.228 1.459v4.589H6.534V9.213c0-.967.247-1.735.744-2.303.512-.568 1.183-.859 2.015-.859.964 0 1.693.368 2.176 1.105l.469.783.468-.783c.483-.737 1.212-1.105 2.176-1.105.832 0 1.503.291 2.015.86.497.567.744 1.335.744 2.302v4.728Z"/></symbol><symbol id="it-mastodon-square" viewBox="0 0 24 24"><path fill-rule="evenodd" clip-rule="evenodd" d="M3.567 1.333h16.762a2.286 2.286 0 0 1 2.286 2.286v16.762a2.286 2.286 0 0 1-2.286 2.286H3.567a2.286 2.286 0 0 1-2.286-2.286V3.619a2.286 2.286 0 0 1 2.286-2.286Zm15.614 12.259c-.22 1.128-1.975 2.364-3.99 2.603-1.05.125-2.085.24-3.188.19a18.815 18.815 0 0 1-3.228-.43c0 .175.011.342.033.497.234 1.772 1.765 1.878 3.215 1.927a9.33 9.33 0 0 0 2.767-.359l.06 1.317s-1.024.547-2.847.647c-1.006.055-2.255-.025-3.709-.408-3.154-.83-3.697-4.176-3.78-7.57a68.707 68.707 0 0 1-.011-2.09l.002-.663c0-3.47 2.285-4.488 2.285-4.488 1.153-.527 3.13-.748 5.186-.765h.05c2.057.017 4.035.238 5.188.765 0 0 2.285 1.017 2.285 4.488 0 0 .03 2.56-.318 4.339Zm-4.051.133h1.673V9.522c0-.859-.22-1.541-.66-2.046-.456-.505-1.052-.764-1.793-.764-.856 0-1.504.328-1.933.983L12 8.39l-.417-.695c-.429-.655-1.077-.983-1.933-.983-.74 0-1.337.259-1.792.764-.442.505-.661 1.187-.661 2.046v4.203H8.87v-4.08c0-.859.364-1.295 1.09-1.295.805 0 1.208.517 1.208 1.541v2.233h1.664V9.89c0-1.024.403-1.541 1.207-1.541.727 0 1.091.436 1.091 1.296v4.079Z"/></symbol><symbol id="it-maximize" viewBox="0 0 24 24"><path d="m4.7 4 6.7 6.6-.7.7L4 4.7v3.8H3V3h5.5v1zM20 19.3l-6.6-6.7-.7.7 6.6 6.7h-3.8v1H21v-5.5h-1zM15.5 3v1h3.8l-6.6 6.6.7.7L20 4.7v3.8h1V3zM10.6 12.6 4 19.3v-3.8H3V21h5.5v-1H4.7l6.7-6.7z"/></symbol><symbol id="it-maximize-alt" viewBox="0 0 24 24"><path d="m15.1 18.1.7.7-3.8 3.9-3.9-3.9.7-.7 2.7 2.7v-7.3h1v7.3zM18.9 8.1l-.8.7 2.7 2.7h-7.3v1h7.3l-2.6 2.6.7.7 3.8-3.8zM11.5 3.2v7.3h1V3.2l2.6 2.6.7-.7L12 1.3 8.1 5.1l.7.7zM10.5 12.5v-1H3.2l2.6-2.7-.6-.7L1.3 12l3.8 3.8.7-.7-2.6-2.6z"/></symbol><symbol id="it-medium" viewBox="0 0 24 24"><path d="M13.281 12.625c0 3.107-2.525 5.625-5.64 5.625C4.524 18.25 2 15.732 2 12.625S4.525 7 7.64 7c3.116 0 5.641 2.518 5.641 5.625Zm6.188 0c0 2.924-1.263 5.295-2.82 5.295-1.558 0-2.82-2.371-2.82-5.295s1.262-5.295 2.82-5.295c1.557 0 2.82 2.371 2.82 5.295Zm2.531 0c0 2.62-.444 4.744-.992 4.744s-.992-2.125-.992-4.744c0-2.62.444-4.744.992-4.744S22 10.005 22 12.625Z"/></symbol><symbol id="it-medium-square" viewBox="0 0 24 24"><path fill-rule="evenodd" clip-rule="evenodd" d="M3.567 1.333h16.762a2.286 2.286 0 0 1 2.286 2.286v16.762a2.286 2.286 0 0 1-2.286 2.286H3.567a2.286 2.286 0 0 1-2.286-2.286V3.619a2.286 2.286 0 0 1 2.286-2.286ZM8.512 16.5a4.506 4.506 0 0 0 4.513-4.5c0-2.485-2.02-4.5-4.513-4.5A4.506 4.506 0 0 0 4 12c0 2.486 2.02 4.5 4.512 4.5Zm7.207-.264c1.246 0 2.256-1.897 2.256-4.236 0-2.34-1.01-4.236-2.256-4.236-1.246 0-2.256 1.897-2.256 4.236 0 2.339 1.01 4.236 2.256 4.236Zm3.487-.44c.439 0 .794-1.7.794-3.796s-.355-3.795-.793-3.795c-.439 0-.794 1.7-.794 3.795 0 2.095.355 3.795.793 3.795Z"/></symbol><symbol id="it-minimize" viewBox="0 0 24 24"><path d="M3 15.5h5.5V21h-1v-4.5H3zM7.5 7.5H3v1h5.5V3h-1zM15.5 21h1v-4.5H21v-1h-5.5zM16.5 7.5V3h-1v5.5H21v-1z"/></symbol><symbol id="it-minus" viewBox="0 0 24 24"><path d="M20 12.5H4v-1h16v1z"/></symbol><symbol id="it-minus-circle" viewBox="0 0 24 24"><path d="M6.9 11.5h10v1h-10v-1zM22 12c0 5.5-4.5 10-10 10S2 17.5 2 12 6.5 2 12 2s10 4.5 10 10zm-1 0c0-5-4-9-9-9s-9 4-9 9 4 9 9 9 9-4 9-9z"/></symbol><symbol id="it-more-actions" viewBox="0 0 24 24"><path d="M6 10c-1.1 0-2 .9-2 2s.9 2 2 2 2-.9 2-2-.9-2-2-2zm0 3c-.6 0-1-.4-1-1s.4-1 1-1 1 .4 1 1-.4 1-1 1zm6-3c-1.1 0-2 .9-2 2s.9 2 2 2 2-.9 2-2-.9-2-2-2zm0 3c-.6 0-1-.4-1-1s.4-1 1-1 1 .4 1 1c.1.5-.3.9-.8 1H12zm6-3c-1.1 0-2 .9-2 2s.9 2 2 2 2-.9 2-2-.9-2-2-2zm0 3c-.6 0-1-.4-1-1s.4-1 1-1 1 .4 1 1c.1.5-.3.9-.8 1H18z"/></symbol><symbol id="it-more-items" viewBox="0 0 24 24"><path d="M12 18c.6 0 1 .4 1 1s-.4 1-1 1-1-.4-1-1c-.1-.5.3-.9.8-1h.2m0-1c-1.1 0-2 .9-2 2s.9 2 2 2 2-.9 2-2-.9-2-2-2zm0-6c.6 0 1 .4 1 1s-.4 1-1 1-1-.4-1-1c-.1-.5.3-.9.8-1h.2m0-1c-1.1 0-2 .9-2 2s.9 2 2 2 2-.9 2-2-.9-2-2-2zm0-6c.5-.1.9.3 1 .8V5c0 .6-.4 1-1 1s-1-.4-1-1c-.1-.5.3-.9.8-1h.2m0-1c-1.1 0-2 .9-2 2s.9 2 2 2 2-.9 2-2-.9-2-2-2z"/></symbol><symbol id="it-note" viewBox="0 0 24 24"><path d="M18.5 4h-13C4.7 4 4 4.7 4 5.5v13c0 .8.7 1.5 1.5 1.5h10.2l4.3-4.3V5.5c0-.8-.7-1.5-1.5-1.5zM5 18.5v-13c0-.3.2-.5.5-.5h13c.3 0 .5.2.5.5V15h-2.5c-.8 0-1.5.7-1.5 1.5V19H5.5c-.3 0-.5-.2-.5-.5zM18.3 16 16 18.3v-1.8c0-.3.2-.5.5-.5h1.8zM16 9H8V8h8v1zm0 2H8v-1h8v1zm-2 1v1H8v-1h6z"/></symbol><symbol id="it-open-source" viewBox="0 0 24 24"><path d="M10 0C4.5 0 0 4.5 0 10c0 4.3 2.7 8.1 6.8 9.5l1.7-5.8.3-1C7.7 12.3 7 11.2 7 10c0-1.7 1.3-3 3-3s3 1.3 3 3c0 1.2-.7 2.3-1.9 2.8l.3 1 1.8 5.8c5.3-1.7 8.1-7.3 6.4-12.6-1.3-4.2-5.2-7-9.6-7zm3.8 18.1-1.5-4.9c.1-.1.2-.1.2-.2.1-.1.2-.1.2-.2l.2-.2c.3-.3.6-.7.7-1.1l.1-.3c0-.1.1-.2.1-.3 0-.2.1-.3.1-.5V10c0-2.2-1.8-4-4-4s-4 1.8-4 4v.5c0 .2.1.3.1.4 0 .2.1.3.1.4.1.3.3.6.4.8.1.1.2.3.3.4l.3.3c.1.1.2.2.4.3L6 18C1.5 15.9-.4 10.5 1.7 6s7.5-6.4 12-4.3 6.4 7.5 4.3 12c-.7 2-2.3 3.6-4.2 4.4z" transform="translate(2 2)"/></symbol><symbol id="it-pa" viewBox="0 0 24 24"><path d="M3 21h18v1H3v-1zm0-1h18v-1H3v1zM22 9H2l10-7 10 7zM5.2 8h13.6L12 3.2 5.2 8zM6 18v-8H5v8h1zm4 0v-8H9v8h1zm5 0v-8h-1v8h1zm4 0v-8h-1v8h1z"/></symbol><symbol id="it-password-invisible" viewBox="0 0 24 24"><path d="M15 12c0-.7-.3-1.4-.7-1.9l.4-1.1c.8.8 1.3 1.9 1.3 3 0 2.2-1.7 3.9-3.9 4l.4-1.1c1.4-.2 2.5-1.4 2.5-2.9zM3.1 12C4.8 8.6 8.2 6.5 12 6.5h.4l.4-.9H12c-4.1 0-7.9 2.3-9.8 6L2 12l.2.5c1.3 2.5 3.5 4.4 6.1 5.3l.3-.9C6.2 16 4.2 14.3 3.1 12zm18.7-.5c-1.3-2.5-3.5-4.4-6.1-5.3l-.3.9c2.4.9 4.4 2.6 5.5 4.9a9.88 9.88 0 0 1-8.9 5.5h-.4l-.4.9h.8c4.1 0 7.9-2.3 9.8-6l.2-.4-.2-.5zM11.5 9.1l.4-1.1C9.7 8.1 8 9.8 8 12c0 1.1.5 2.2 1.3 3l.4-1.1c-.4-.5-.7-1.2-.7-1.9 0-1.5 1.1-2.7 2.5-2.9zm3.1-5.7L8.5 20.3l.9.3 6.1-16.9-.9-.3z"/></symbol><symbol id="it-password-visible" viewBox="0 0 24 24"><path d="M21.8 11.5C19 6.1 12.4 3.9 7 6.7c-2.1 1.1-3.7 2.7-4.8 4.8L2 12l.2.5c2.8 5.4 9.4 7.6 14.8 4.8 2.1-1.1 3.7-2.7 4.8-4.8l.2-.5-.2-.5zm-9.8 6c-3.8 0-7.2-2.1-8.9-5.5C4.8 8.6 8.2 6.5 12 6.5c3.8 0 7.2 2.1 8.9 5.5a9.88 9.88 0 0 1-8.9 5.5zM12 8c-2.2 0-4 1.8-4 4s1.8 4 4 4 4-1.8 4-4-1.8-4-4-4zm0 7c-1.7 0-3-1.3-3-3s1.3-3 3-3 3 1.3 3 3c.1 1.6-1.2 2.9-2.8 3H12z"/></symbol><symbol id="it-pencil" viewBox="0 0 24 24"><path d="M20.5 3.5c-.5-.6-1.3-.9-2.1-.9s-1.6.3-2.2.9L4.6 15.2l-1 5.2 5.2-1L20.5 7.8c1.2-1.2 1.2-3.1 0-4.3zm-5.7 2.8.7-.7 2.9 2.9-.7.7-2.9-2.9zm-.7.8 1.1 1-8.4 8.4-1.1-1.1 8.4-8.3zM5.7 18.3c-.1-.2-.4-.3-.6-.3l.3-1.5 2.1 2.1-1.5.3c0-.2-.1-.5-.3-.6zm2.9 0-1.1-1.1 8.4-8.4 1 1.1-8.3 8.4zM19.8 7.1l-.7.7-2.9-2.9.7-.7c.4-.4.9-.6 1.5-.6.5 0 1 .2 1.4.6.8.8.8 2.1 0 2.9z"/></symbol><symbol id="it-piattaforme" viewBox="0 0 24 24"><path d="M9 1.1 15.9 5 9 8.9 2.1 5 9 1.1M9 0 0 5l9 5 9-5-9-5zM18 11.7l-9 5-9-5 1-.5 8 4.4 8-4.5z" transform="translate(3 3)"/><path d="m18 8.5-9 5-9-5L1 8l8 4.4 8-4.5z" transform="translate(3 3)"/></symbol><symbol id="it-pin" viewBox="0 0 24 24"><path d="M18.1 14 15 10.3V4.6L16.3 2H7.7L9 4.6v5.7L5.9 14h5.6v8h1v-8h5.6zM10 5h4v5h-4V5zm4.7-2-.5 1H9.8l-.5-1h5.4zm-5 8h4.6l1.6 2H8.1l1.6-2z"/></symbol><symbol id="it-pinterest" viewBox="0 0 24 24"><path d="M12 3a9 9 0 0 0-3.28 17.384c-.079-.712-.15-1.808.031-2.585.164-.702 1.056-4.473 1.056-4.473s-.27-.54-.27-1.337c0-1.251.726-2.185 1.629-2.185.768 0 1.139.576 1.139 1.267 0 .773-.492 1.927-.746 2.997-.212.896.45 1.626 1.333 1.626 1.6 0 2.83-1.686 2.83-4.121 0-2.155-1.55-3.662-3.76-3.662-2.56 0-4.064 1.921-4.064 3.906 0 .774.298 1.603.67 2.054.073.09.084.167.062.258-.068.284-.22.896-.25 1.02-.039.166-.13.2-.3.121-1.125-.523-1.827-2.166-1.827-3.486 0-2.84 2.062-5.447 5.946-5.447 3.122 0 5.548 2.225 5.548 5.198 0 3.102-1.955 5.598-4.67 5.598-.912 0-1.769-.474-2.063-1.033l-.56 2.14c-.203.781-.752 1.76-1.119 2.359.842.26 1.737.401 2.665.401a9 9 0 1 0 0-18Z"/></symbol><symbol id="it-pinterest-square" viewBox="0 0 24 24"><path fill-rule="evenodd" clip-rule="evenodd" d="M3.567 1.333h16.762a2.286 2.286 0 0 1 2.286 2.286v16.762a2.286 2.286 0 0 1-2.286 2.286H3.567a2.286 2.286 0 0 1-2.286-2.286V3.619a2.286 2.286 0 0 1 2.286-2.286ZM4 12a8 8 0 1 1 5.631 7.643c.326-.531.814-1.402.995-2.097l.498-1.902c.26.498 1.023.919 1.834.919 2.412 0 4.15-2.219 4.15-4.976 0-2.643-2.156-4.62-4.93-4.62-3.453 0-5.287 2.317-5.287 4.84 0 1.174.625 2.635 1.624 3.1.152.07.233.04.268-.107l.081-.332.14-.575a.24.24 0 0 0-.055-.23c-.33-.4-.595-1.138-.595-1.826 0-1.764 1.336-3.471 3.612-3.471 1.966 0 3.342 1.339 3.342 3.254 0 2.165-1.093 3.664-2.515 3.664-.785 0-1.373-.65-1.185-1.446.082-.344.191-.698.297-1.042.188-.607.366-1.183.366-1.621 0-.615-.33-1.127-1.012-1.127-.803 0-1.448.83-1.448 1.943 0 .708.24 1.187.24 1.187s-.793 3.352-.939 3.977c-.16.69-.097 1.664-.027 2.297A8.005 8.005 0 0 1 4 12Z"/></symbol><symbol id="it-plug" viewBox="0 0 24 24"><path d="m8.5 9.9-2.8 2.8-1.1 1.1c-.6.6-.6 1.5 0 2.1L6 17.3l-3.8 3.9.7.7L6.7 18l1.4 1.4c.3.3.7.4 1.1.4.4 0 .8-.2 1.1-.4l1.1-1.1 2.8-2.8-5.7-5.6zm1 8.8c-.2.2-.5.2-.7 0l-3.5-3.5c-.2-.2-.2-.5 0-.7l.4-.4 4.2 4.2-.4.4zm-3.2-5.3 2.1-2.1 4.2 4.2-2.1 2.1-4.2-4.2zm9.6-8.8c-.6-.6-1.5-.6-2.1 0L11.3 7l1.4 1.4-2.1 2.1.7.7 2.1-2.1 1.4 1.4-2.1 2.1.7.7 2.1-2.1 1.5 1.4 2.5-2.5c.6-.6.6-1.5 0-2.1l-3.6-3.4zm2.8 4.9L17 11.3 12.7 7l1.8-1.8c.2-.2.5-.2.7 0l3.5 3.5c.2.3.2.6 0 .8zM8.5 12.7l.7.7-.7.7-.7-.7.7-.7zm2.8 2.8-.7.7-.7-.7.7-.7.7.7zM18 6.7l-.7-.7 3.9-3.8.7.7L18 6.7z"/></symbol><symbol id="it-plus" viewBox="0 0 24 24"><path d="M20 12.5h-7.5V20h-1v-7.5H4v-1h7.5V4h1v7.5H20v1z"/></symbol><symbol id="it-plus-circle" viewBox="0 0 24 24"><path d="M12.4 11.5h4.5v1h-4.5V17h-1v-4.5H6.9v-1h4.5V7h1v4.5zm9.6.5c0 5.5-4.5 10-10 10S2 17.5 2 12 6.5 2 12 2s10 4.5 10 10zm-1 0c0-5-4-9-9-9s-9 4-9 9 4 9 9 9 9-4 9-9z"/></symbol><symbol id="it-presentation" viewBox="0 0 24 24"><path d="M4 5v10.6C4 16.9 5.1 18 6.4 18h3.1l-1.1 4h1l1.1-4h2.7l1.2 4h1l-1.2-4h3.5c1.3 0 2.3-1 2.3-2.3V5H4zm15 10.7c0 .7-.6 1.3-1.3 1.3H6.4c-.8 0-1.4-.6-1.4-1.4V6h14v9.7zM21 3v1H3V3h18zm-9 13c2.5 0 4.5-2 4.5-4.5S14.5 7 12 7s-4.5 2-4.5 4.5S9.5 16 12 16zm-.5-7.9V11H8.6c.2-1.5 1.4-2.7 2.9-2.9zm1 3.9V8c1.9.1 3.4 1.8 3.3 3.8S13.9 15.1 12 15c-1.7 0-3.2-1.3-3.4-3h3.9z"/></symbol><symbol id="it-print" viewBox="0 0 24 24"><path d="M21 9.5c0-.8-.7-1.5-1.5-1.5H17V3H7v5H4.5C3.7 8 3 8.7 3 9.5V16h2v3h2v2h10v-2h2v-3h2V9.5zM8 4h8v4H8V4zM6 18v-4h1v4H6zm10 2H8v-6h8v6zm2-2h-1v-4h1v4zm2-3h-1v-2H5v2H4V9.5c0-.3.2-.5.5-.5h15c.3 0 .5.2.5.5V15zM6 11h4v1H6v-1z"/></symbol><symbol id="it-quora" viewBox="0 0 24 24"><path d="M12.73 16.476c-.554-1.091-1.204-2.193-2.473-2.193-.242 0-.484.04-.707.142l-.43-.863c.525-.45 1.373-.808 2.464-.808 1.697 0 2.568.818 3.26 1.86.41-.89.605-2.093.605-3.584 0-3.724-1.165-5.636-3.885-5.636-2.68 0-3.839 1.912-3.839 5.636 0 3.704 1.159 5.596 3.84 5.596.425 0 .811-.047 1.166-.15Zm.665 1.3a7.128 7.128 0 0 1-1.83.244c-3.57 0-7.065-2.848-7.065-6.99C4.5 6.849 7.995 4 11.564 4c3.63 0 7.09 2.828 7.09 7.03 0 2.337-1.09 4.236-2.675 5.464.512.767 1.04 1.277 1.773 1.277.802 0 1.125-.62 1.179-1.105h1.043c.061.647-.262 3.334-3.178 3.334-1.767 0-2.7-1.024-3.4-2.224Z"/></symbol><symbol id="it-quora-square" viewBox="0 0 24 24"><path fill-rule="evenodd" clip-rule="evenodd" d="M3.567 1.333h16.762a2.286 2.286 0 0 1 2.286 2.286v16.762a2.286 2.286 0 0 1-2.286 2.286H3.567a2.286 2.286 0 0 1-2.286-2.286V3.619a2.286 2.286 0 0 1 2.286-2.286Zm6.19 12.95c1.269 0 1.92 1.102 2.474 2.193-.355.104-.74.15-1.167.15-2.68 0-3.839-1.892-3.839-5.596 0-3.724 1.159-5.636 3.84-5.636 2.72 0 3.884 1.912 3.884 5.636 0 1.491-.195 2.694-.606 3.585-.691-1.043-1.562-1.86-3.259-1.86-1.09 0-1.94.356-2.465.807l.431.863c.223-.102.465-.142.707-.142Zm1.307 3.737c.62 0 1.243-.087 1.831-.244.7 1.2 1.634 2.224 3.4 2.224 2.917 0 3.24-2.687 3.18-3.334H18.43c-.054.486-.377 1.105-1.179 1.105-.734 0-1.261-.51-1.773-1.277 1.585-1.228 2.675-3.127 2.675-5.464 0-4.202-3.46-7.03-7.09-7.03C7.494 4 4 6.849 4 11.03c0 4.142 3.495 6.99 7.064 6.99Z"/></symbol><symbol id="it-reddit" viewBox="0 0 24 24"><path d="M10.167 12a.831.831 0 0 0-.83.83c0 .459.372.84.83.831a.831.831 0 0 0 0-1.661ZM12.01 15.647c.315 0 1.403-.038 1.976-.611a.232.232 0 0 0 0-.306.213.213 0 0 0-.306 0c-.353.363-1.126.487-1.67.487-.545 0-1.308-.124-1.671-.487a.213.213 0 0 0-.306 0 .213.213 0 0 0 0 .306c.564.563 1.652.61 1.977.61ZM13.002 12.84c0 .458.373.83.831.83.458 0 .83-.381.83-.83a.831.831 0 0 0-1.66 0Z"/><path d="M20 12a8 8 0 1 1-16 0 8 8 0 0 1 16 0Zm-3.828-1.165c-.315 0-.602.124-.812.325-.801-.573-1.9-.945-3.121-.993l.534-2.501 1.738.372a.83.83 0 1 0 .83-.869.83.83 0 0 0-.744.468l-1.938-.41a.203.203 0 0 0-.153.028.186.186 0 0 0-.086.134l-.592 2.788c-1.24.038-2.358.41-3.17.992-.21-.2-.496-.324-.81-.324a1.163 1.163 0 0 0-.478 2.224c-.02.115-.029.23-.029.353 0 1.795 2.091 3.256 4.669 3.256 2.577 0 4.668-1.451 4.668-3.256 0-.114-.01-.238-.029-.353.401-.181.688-.592.688-1.069 0-.65-.526-1.165-1.165-1.165Z"/></symbol><symbol id="it-reddit-square" viewBox="0 0 24 24"><path fill-rule="evenodd" clip-rule="evenodd" d="M3.567 1.333h16.762a2.286 2.286 0 0 1 2.286 2.286v16.762a2.286 2.286 0 0 1-2.286 2.286H3.567a2.286 2.286 0 0 1-2.286-2.286V3.619a2.286 2.286 0 0 1 2.286-2.286ZM12 20a8 8 0 1 0 0-16 8 8 0 0 0 0 16Zm3.36-8.84c.21-.2.497-.325.812-.325.64 0 1.165.516 1.165 1.165 0 .477-.287.888-.688 1.07.02.114.029.238.029.352 0 1.805-2.09 3.256-4.668 3.256-2.578 0-4.669-1.46-4.669-3.256 0-.124.01-.238.029-.353a1.162 1.162 0 0 1 .477-2.224c.315 0 .602.124.812.324.811-.582 1.928-.954 3.17-.992l.591-2.788a.186.186 0 0 1 .086-.134c.038-.028.095-.038.153-.028l1.938.41a.83.83 0 1 1 .744 1.194.83.83 0 0 1-.83-.793l-1.738-.372-.534 2.501c1.222.048 2.32.42 3.121.993Zm-6.023 1.67a.831.831 0 1 1 .83.831.825.825 0 0 1-.83-.83Zm4.649 2.206c-.573.573-1.661.61-1.976.61-.325 0-1.413-.047-1.976-.61a.213.213 0 0 1 0-.306.213.213 0 0 1 .305 0c.363.363 1.126.487 1.67.487.545 0 1.318-.124 1.671-.487a.213.213 0 0 1 .306 0 .232.232 0 0 1 0 .306Zm-.984-2.196c0 .458.373.83.831.83.458 0 .83-.381.83-.83a.831.831 0 0 0-1.66 0Z"/></symbol><symbol id="it-refresh" viewBox="0 0 24 24"><path d="M21 12c0 5-4 9-9 9s-9-4-9-9 4-9 9-9c2.4 0 4.7.9 6.4 2.6.4.4.8.9 1.1 1.4h-4v1H21V2.5h-1V6c-.3-.4-.6-.7-.9-1.1C15.2 1 8.8 1 4.9 4.9S1 15.2 4.9 19.1s10.2 3.9 14.1 0c1.9-1.9 2.9-4.4 2.9-7.1H21z"/></symbol><symbol id="it-restore" viewBox="0 0 24 24"><path d="M12 2C9.3 2 6.8 3 4.9 4.9c-.3.4-.6.7-.9 1.1V2.5H3V8h5.5V7h-4c.3-.5.7-.9 1.1-1.4 3.5-3.5 9.2-3.6 12.7-.1s3.6 9.2.1 12.7-9.2 3.6-12.7.1C4 16.7 3 14.4 3 12H2c0 5.5 4.5 10 10 10s10-4.5 10-10S17.5 2 12 2z"/></symbol><symbol id="it-rss" viewBox="0 0 24 24"><path d="M2.7 12.7c-1.5 0-2.7 1.2-2.7 2.7S1.2 18 2.7 18s2.7-1.2 2.7-2.7c-.1-1.4-1.3-2.6-2.7-2.6z" transform="translate(3 3)"/><path d="M.3 5.9c-.2 0-.3.1-.3.3v3.4c0 .2.1.3.3.3 4.4 0 7.9 3.5 7.9 7.9 0 .2.1.3.3.3h3.4c.2 0 .3-.1.3-.3C12.1 11.2 6.8 5.9.3 5.9z" transform="translate(3 3)"/><path d="M18 17.7C17.9 8 10 .1.3 0 .1 0 0 .1 0 .3v3.5c0 .1.1.2.3.2C7.8 4 14 10.1 14 17.7v.1c0 .2.1.3.3.3h3.5c.1-.1.3-.2.2-.4z" transform="translate(3 3)"/></symbol><symbol id="it-rss-square" viewBox="0 0 24 24"><path d="M14.6 0H3.4C1.5 0 0 1.5 0 3.4v11.2C0 16.5 1.5 18 3.4 18h11.3c1.9 0 3.4-1.5 3.4-3.4V3.4C18 1.5 16.5 0 14.6 0zM4.5 15.8c-1.2 0-2.3-1-2.3-2.3s1-2.3 2.3-2.3 2.3 1 2.3 2.3-1.1 2.3-2.3 2.3zm4.5 0C9 12 6 9 2.3 9V6.8c5 0 9 4 9 9H9zm4.5 0c0-6.2-5-11.3-11.3-11.3V2.3c7.5 0 13.5 6 13.5 13.5h-2.2z" transform="translate(3 3)"/></symbol><symbol id="it-search" viewBox="0 0 24 24"><path d="M21.9 21.1 16 15.3c1.3-1.5 2-3.4 2-5.3 0-4.4-3.6-8-8-8s-8 3.6-8 8 3.6 8 8 8c1.9 0 3.8-.7 5.3-2l5.8 5.9.8-.8zM10 17c-3.9 0-7-3.1-7-7s3.1-7 7-7 7 3.1 7 7-3.1 7-7 7z"/></symbol><symbol id="it-settings" viewBox="0 0 24 24"><path d="M12 7.5c-2.5 0-4.5 2-4.5 4.5s2 4.5 4.5 4.5 4.5-2 4.5-4.5-2-4.5-4.5-4.5zm0 8c-1.9 0-3.5-1.6-3.5-3.5s1.6-3.5 3.5-3.5 3.5 1.6 3.5 3.5-1.6 3.5-3.5 3.5zm9.8-1.6c.1-.6.2-1.3.2-1.9 0-.6-.1-1.3-.2-1.9l-2.1-.3c-.2-.6-.4-1.2-.7-1.7l1.3-1.7c-.7-1.1-1.6-2-2.7-2.7L15.9 5l-1.7-.7-.3-2.1L12 2l-1.9.2-.3 2.1-1.7.7-1.7-1.3c-1.1.7-2 1.6-2.7 2.7L5 8.1c-.3.5-.5 1.1-.7 1.7l-2.1.3c-.1.6-.2 1.3-.2 1.9 0 .6.1 1.3.2 1.9l2.1.3c.2.6.4 1.2.7 1.7l-1.3 1.7c.7 1.1 1.6 2 2.7 2.7L8.1 19l1.7.7.3 2.1 1.9.2 1.9-.2.3-2.1 1.7-.7 1.7 1.3c1.1-.7 2-1.6 2.7-2.7L19 15.9c.3-.5.5-1.1.7-1.7l2.1-.3zm-2.9-.7-.2.7c-.1.5-.3 1-.6 1.5l-.3.6.4.5.8 1.1c-.4.5-.9 1-1.4 1.4l-1.1-.8-.5-.4-.6.3c-.5.3-1 .5-1.5.6l-.7.2v.7l-.2 1.3h-2l-.2-1.3v-.7l-.7-.2c-.5-.1-1-.3-1.5-.6l-.6-.3-.5.4-1.1.8c-.5-.4-1-.9-1.4-1.4l.8-1.1.4-.5-.3-.6c-.3-.5-.5-1-.6-1.5l-.2-.7h-.7L3.1 13c-.1-.3-.1-.7-.1-1 0-.3 0-.7.1-1l1.3-.2h.7l.2-.7c.1-.5.3-1 .6-1.5l.3-.6-.4-.5L5 6.4 6.4 5l1.1.8.5.4.6-.3c.5-.3 1-.5 1.5-.6l.7-.2v-.7l.2-1.3h2l.2 1.3v.7l.7.2c.5.1 1 .3 1.5.6l.6.3.5-.4 1.1-.8c.5.4 1 .9 1.4 1.4l-.8 1.1-.4.5.3.6c.3.5.5 1 .6 1.5l.2.7h.7l1.3.2c.1.3.1.7.1 1 0 .3 0 .7-.1 1l-1.3.2h-.7z"/></symbol><symbol id="it-share" viewBox="0 0 24 24"><path d="M17.5 15c-.8 0-1.5.4-2 1l-7.6-3.4c.1-.2.1-.4.1-.6 0-.2 0-.4-.1-.6L15.5 8c.8 1.1 2.4 1.3 3.5.5s1.3-2.4.5-3.5-2.4-1.3-3.5-.5c-.6.5-1 1.2-1 2 0 .2 0 .4.1.6l-7.6 3.4C6.7 9.4 5.1 9.2 4 10s-1.3 2.4-.5 3.5 2.4 1.3 3.5.5c.2-.1.4-.3.5-.5l7.6 3.4c-.1.2-.1.4-.1.6 0 1.4 1.1 2.5 2.5 2.5s2.5-1.1 2.5-2.5-1.1-2.5-2.5-2.5zm0-10c.8 0 1.5.7 1.5 1.5S18.3 8 17.5 8 16 7.3 16 6.5 16.7 5 17.5 5zm-12 8.5c-.8 0-1.5-.7-1.5-1.5s.7-1.5 1.5-1.5S7 11.2 7 12s-.7 1.5-1.5 1.5zm12 5.5c-.8 0-1.5-.7-1.5-1.5s.7-1.5 1.5-1.5 1.5.7 1.5 1.5-.7 1.5-1.5 1.5z"/></symbol><symbol id="it-slack" viewBox="0 0 24 24"><path d="M6.782 14.375c0 1.04-.85 1.89-1.891 1.89-1.04 0-1.891-.85-1.891-1.89 0-1.041.85-1.891 1.89-1.891h1.892v1.89ZM7.735 14.375c0-1.041.85-1.891 1.89-1.891 1.041 0 1.891.85 1.891 1.89v4.735c0 1.04-.85 1.891-1.89 1.891-1.041 0-1.891-.85-1.891-1.89v-4.735ZM9.625 6.782c-1.04 0-1.89-.85-1.89-1.891 0-1.04.85-1.891 1.89-1.891 1.041 0 1.891.85 1.891 1.89v1.892h-1.89ZM9.625 7.735c1.041 0 1.891.85 1.891 1.89 0 1.041-.85 1.891-1.89 1.891H4.89c-1.04 0-1.891-.85-1.891-1.89 0-1.041.85-1.891 1.89-1.891h4.735ZM17.218 9.625c0-1.04.85-1.89 1.891-1.89 1.04 0 1.891.85 1.891 1.89 0 1.041-.85 1.891-1.89 1.891h-1.892v-1.89ZM16.265 9.625c0 1.041-.85 1.891-1.89 1.891-1.041 0-1.891-.85-1.891-1.89V4.89c0-1.04.85-1.891 1.89-1.891 1.041 0 1.891.85 1.891 1.89v4.735ZM14.375 17.218c1.04 0 1.89.85 1.89 1.891 0 1.04-.85 1.891-1.89 1.891-1.041 0-1.891-.85-1.891-1.89v-1.892h1.89ZM14.375 16.265c-1.041 0-1.891-.85-1.891-1.89 0-1.041.85-1.891 1.89-1.891h4.735c1.04 0 1.891.85 1.891 1.89 0 1.041-.85 1.891-1.89 1.891h-4.735Z"/></symbol><symbol id="it-slack-square" viewBox="0 0 24 24"><path fill-rule="evenodd" clip-rule="evenodd" d="M3.567 1.333h16.762a2.286 2.286 0 0 1 2.286 2.286v16.762a2.286 2.286 0 0 1-2.286 2.286H3.567a2.286 2.286 0 0 1-2.286-2.286V3.619a2.286 2.286 0 0 1 2.286-2.286Zm6.322 6.029c-.925 0-1.68-.756-1.68-1.681S8.963 4 9.888 4c.925 0 1.681.756 1.681 1.68v1.682H9.89Zm-4.208 8.43c.925 0 1.68-.756 1.68-1.681V12.43h-1.68c-.925 0-1.681.756-1.681 1.68 0 .926.756 1.681 1.68 1.681Zm4.208-3.362c-.925 0-1.68.756-1.68 1.68v4.21c0 .924.755 1.68 1.68 1.68.925 0 1.681-.756 1.681-1.68v-4.21c0-.924-.756-1.68-1.68-1.68Zm1.681-2.54c0-.926-.756-1.682-1.68-1.682H5.68C4.757 8.208 4 8.964 4 9.89s.756 1.681 1.68 1.681h4.21c.924 0 1.68-.756 1.68-1.68Zm5.069 0c0-.926.755-1.682 1.68-1.682.925 0 1.681.756 1.681 1.681s-.756 1.681-1.68 1.681h-1.681V9.89Zm-2.528 1.68c.925 0 1.68-.756 1.68-1.68V5.68c0-.924-.755-1.68-1.68-1.68-.925 0-1.681.756-1.681 1.68v4.21c0 .924.756 1.68 1.68 1.68Zm0 5.068c.925 0 1.68.756 1.68 1.681S15.037 20 14.112 20c-.925 0-1.681-.756-1.681-1.68v-1.682h1.68Zm-1.681-2.527c0 .925.756 1.68 1.68 1.68h4.21c.924 0 1.68-.755 1.68-1.68 0-.925-.756-1.681-1.68-1.681h-4.21c-.924 0-1.68.756-1.68 1.68Z"/></symbol><symbol id="it-snapchat" viewBox="0 0 24 24"><path d="M19.943 15.526c-.111-.303-.323-.465-.564-.599a1.416 1.416 0 0 0-.123-.064l-.219-.111c-.752-.399-1.338-.902-1.746-1.498a3.39 3.39 0 0 1-.3-.531c-.034-.1-.032-.156-.008-.207a.339.339 0 0 1 .097-.1c.129-.086.262-.173.352-.231.162-.104.289-.187.371-.245.309-.216.525-.446.66-.702a1.397 1.397 0 0 0 .069-1.16c-.205-.538-.713-.872-1.329-.872a1.829 1.829 0 0 0-.487.065c.006-.368-.002-.757-.035-1.139-.116-1.344-.587-2.048-1.077-2.61a4.294 4.294 0 0 0-1.095-.881C13.764 4.216 12.92 4 11.999 4c-.92 0-1.76.216-2.505.641-.412.232-.782.53-1.097.883-.49.562-.96 1.267-1.077 2.61-.033.382-.04.772-.036 1.138a1.83 1.83 0 0 0-.487-.065c-.615 0-1.124.335-1.328.873a1.398 1.398 0 0 0 .067 1.161c.136.256.352.486.66.702.082.057.21.14.371.245l.339.221c.044.028.08.066.109.11.026.053.027.11-.012.217a3.359 3.359 0 0 1-.295.52c-.398.583-.968 1.077-1.696 1.472-.385.204-.786.34-.955.8-.128.348-.044.743.28 1.075.119.125.257.23.409.31a4.43 4.43 0 0 0 1 .4.66.66 0 0 1 .202.09c.118.104.102.26.259.488.079.118.18.22.296.3.33.229.701.243 1.095.258.355.014.758.03 1.217.18.19.064.389.186.618.328.55.338 1.305.802 2.566.802 1.262 0 2.02-.466 2.575-.806.228-.14.425-.26.61-.321.46-.152.863-.168 1.218-.181.393-.015.764-.03 1.095-.258a1.14 1.14 0 0 0 .336-.368c.114-.192.11-.327.217-.42a.625.625 0 0 1 .19-.087 4.446 4.446 0 0 0 1.014-.404c.16-.087.306-.2.429-.336l.004-.005c.304-.326.38-.709.256-1.047Zm-1.122.602c-.683.378-1.138.337-1.492.565-.3.193-.122.61-.34.76-.269.186-1.061-.012-2.085.326-.845.279-1.384 1.082-2.903 1.082-1.519 0-2.045-.801-2.904-1.084-1.022-.338-1.816-.14-2.084-.325-.218-.15-.041-.568-.341-.761-.354-.228-.809-.187-1.492-.563-.436-.24-.189-.39-.044-.46 2.478-1.199 2.873-3.05 2.89-3.188.022-.166.045-.297-.138-.466-.177-.164-.962-.65-1.18-.802-.36-.252-.52-.503-.402-.812.082-.214.281-.295.49-.295.067 0 .132.008.197.022.396.086.78.284 1.002.338.027.007.054.01.082.011.118 0 .16-.06.152-.195-.026-.433-.087-1.277-.019-2.066.094-1.084.444-1.622.859-2.097.2-.229 1.137-1.22 2.93-1.22 1.792 0 2.732.987 2.931 1.215.416.475.766 1.013.859 2.098.068.788.009 1.632-.019 2.065-.01.143.034.195.152.195a.348.348 0 0 0 .082-.01c.222-.054.607-.253 1.002-.338a.91.91 0 0 1 .197-.023c.21 0 .409.082.49.295.117.309-.04.56-.401.812-.218.152-1.003.638-1.18.802-.184.169-.16.3-.139.466.018.14.413 1.991 2.89 3.189.147.073.394.222-.041.464Z"/></symbol><symbol id="it-snapchat-square" viewBox="0 0 24 24"><path fill-rule="evenodd" clip-rule="evenodd" d="M3.567 1.333h16.762a2.286 2.286 0 0 1 2.286 2.286v16.762a2.286 2.286 0 0 1-2.286 2.286H3.567a2.286 2.286 0 0 1-2.286-2.286V3.619a2.286 2.286 0 0 1 2.286-2.286Zm15.812 13.594c.24.134.453.296.564.599.124.338.048.721-.256 1.047l-.004.005c-.123.136-.268.25-.43.336-.32.176-.66.311-1.013.404a.625.625 0 0 0-.19.086c-.06.054-.085.12-.117.204-.024.062-.05.134-.1.217a1.14 1.14 0 0 1-.336.368c-.33.229-.702.243-1.095.258H16.4c-.354.013-.757.029-1.216.18-.185.062-.382.183-.61.322l-.001.001c-.555.34-1.314.805-2.574.805-1.261 0-2.015-.463-2.566-.802-.23-.142-.427-.264-.618-.327-.46-.152-.862-.167-1.217-.18-.394-.016-.765-.03-1.095-.258a1.136 1.136 0 0 1-.296-.301c-.077-.111-.112-.205-.142-.284-.031-.084-.056-.15-.117-.203a.66.66 0 0 0-.202-.09 4.43 4.43 0 0 1-1-.401 1.62 1.62 0 0 1-.409-.31c-.324-.332-.407-.727-.28-1.074.144-.393.457-.55.786-.714l.17-.087c.727-.395 1.297-.89 1.695-1.472.114-.164.212-.338.295-.52.039-.106.038-.164.012-.218a.363.363 0 0 0-.11-.109 154.273 154.273 0 0 1-.71-.467c-.307-.215-.523-.445-.659-.701a1.399 1.399 0 0 1-.067-1.161c.204-.538.713-.872 1.329-.872a1.83 1.83 0 0 1 .486.064c-.005-.366.003-.756.036-1.138.116-1.343.587-2.048 1.077-2.61a4.277 4.277 0 0 1 1.097-.883C10.24 4.216 11.08 4 12 4c.92 0 1.764.216 2.509.641.41.232.78.53 1.095.881.49.562.96 1.266 1.077 2.61.033.382.04.77.035 1.139a1.829 1.829 0 0 1 .487-.065c.616 0 1.124.334 1.329.872a1.396 1.396 0 0 1-.07 1.16c-.134.256-.35.486-.659.702-.082.058-.21.14-.37.245-.091.058-.224.145-.353.23a.339.339 0 0 0-.096.1c-.025.052-.027.108.008.208.083.186.184.363.3.531.406.596.993 1.1 1.745 1.498l.115.058a11.162 11.162 0 0 1 .227.117Zm-1.496 1.558c.258-.069.564-.15.939-.357.435-.242.188-.391.042-.464-2.478-1.198-2.873-3.05-2.89-3.189a.965.965 0 0 0-.003-.017c-.02-.158-.037-.286.14-.45.121-.11.523-.371.836-.574.147-.095.275-.178.345-.227.36-.252.518-.503.402-.812-.082-.213-.28-.295-.49-.295a.91.91 0 0 0-.198.023c-.233.05-.462.14-.657.216-.135.053-.254.1-.345.121a.348.348 0 0 1-.082.011c-.118 0-.161-.053-.152-.195l.003-.047c.029-.444.082-1.257.016-2.018-.093-1.085-.443-1.623-.859-2.098-.2-.228-1.14-1.214-2.932-1.214s-2.73.99-2.93 1.219c-.414.475-.764 1.013-.858 2.097-.062.725-.016 1.497.012 1.953l.007.113c.008.135-.034.195-.152.195a.353.353 0 0 1-.082-.01 3.032 3.032 0 0 1-.344-.122c-.195-.076-.425-.166-.658-.217a.916.916 0 0 0-.197-.022c-.209 0-.408.08-.49.295-.117.309.042.56.402.812.07.049.198.132.345.227.314.203.715.463.835.575.178.163.161.291.14.45 0 .005 0 .01-.002.016-.017.137-.412 1.99-2.89 3.189-.145.07-.392.219.044.46.373.204.678.285.936.354.214.057.395.105.556.208.162.105.185.274.206.432.018.134.035.26.135.329.116.08.331.088.62.1.38.014.885.033 1.464.225.291.096.544.25.81.414.52.32 1.09.67 2.094.67 1.008 0 1.585-.354 2.106-.673.263-.162.513-.315.797-.41.58-.19 1.086-.21 1.464-.225.29-.01.504-.019.62-.1.1-.068.117-.194.135-.328.021-.157.044-.327.206-.432.16-.103.341-.151.554-.208Z"/></symbol><symbol id="it-software" viewBox="0 0 24 24"><style>.st0{fill:none}</style><path d="M18.5 0h-17C.7 0 0 .7 0 1.5v15c0 .8.7 1.5 1.5 1.5h17c.8 0 1.5-.7 1.5-1.5v-15c0-.8-.7-1.5-1.5-1.5zm.5 16.5c0 .3-.2.5-.5.5h-17c-.3 0-.5-.2-.5-.5V5h18v11.5zM19 4H1V1.5c0-.3.2-.5.5-.5h17c.3 0 .5.2.5.5V4z" transform="translate(2 3)"/><path d="M10 13h5v1h-5zM10 11.1l-5.1 3.7v-1.3l3.4-2.4-3.4-2.5V7.4z" transform="translate(2 3)"/><path class="st0" d="m8.3 11.1-3.4 2.4M8.3 11.1 4.9 8.6" transform="translate(2 3)"/></symbol><symbol id="it-stackexchange" viewBox="0 0 24 24"><path d="M4.48 11.5h14.96v3.08H4.48V11.5ZM4.48 7.52h14.96v3.08H4.48V7.52ZM17.1 3.4H6.88c-1.32 0-2.4 1.1-2.4 2.46v.8h14.96v-.8c0-1.36-1.04-2.46-2.34-2.46ZM4.48 15.46v.8c0 1.36 1.08 2.46 2.4 2.46h6.4v3.26l3.16-3.26h.7c1.32 0 2.4-1.1 2.4-2.46v-.8H4.48Z"/></symbol><symbol id="it-stackexchange-square" viewBox="0 0 24 24"><path fill-rule="evenodd" clip-rule="evenodd" d="M3.567 1.333h16.762a2.286 2.286 0 0 1 2.286 2.286v16.762a2.286 2.286 0 0 1-2.286 2.286H3.567a2.286 2.286 0 0 1-2.286-2.286V3.619a2.286 2.286 0 0 1 2.286-2.286ZM8.012 5h8.57c1.09 0 1.962.922 1.962 2.063v.67H6v-.67C6 5.923 6.906 5 8.012 5ZM6 8.455h12.544v2.582H6V8.456Zm0 3.337h12.544v2.583H6v-2.583Zm0 3.32v.672c0 1.14.906 2.062 2.012 2.062h5.367v2.734l2.65-2.734h.587c1.107 0 2.012-.922 2.012-2.062v-.671H6Z"/></symbol><symbol id="it-stackoverflow" viewBox="0 0 24 24"><path d="M16.412 18.572V14.29h1.428V20H5v-5.71h1.428v4.282h9.984Z"/><path d="M7.857 17.145h7.137v-1.428H7.857v1.428ZM14.254 4l-1.146.852 4.26 5.727 1.146-.852L14.254 4Zm-3.54 3.377 5.484 4.567.913-1.097-5.484-4.567-.914 1.097ZM8.922 10.55l6.47 3.013.603-1.294-6.47-3.013-.603 1.294Zm-.925 3.344 6.985 1.469.294-1.398-6.985-1.468-.294 1.397Z"/></symbol><symbol id="it-stackoverflow-square" viewBox="0 0 24 24"><path fill-rule="evenodd" clip-rule="evenodd" d="M3.567 1.333h16.762a2.286 2.286 0 0 1 2.286 2.286v16.762a2.286 2.286 0 0 1-2.286 2.286H3.567a2.286 2.286 0 0 1-2.286-2.286V3.619a2.286 2.286 0 0 1 2.286-2.286Zm11.427 15.812H7.857v-1.428h7.137v1.428ZM13.108 4.852 14.254 4l4.26 5.727-1.146.852-4.26-5.727Zm3.09 7.092-5.485-4.567.914-1.097 5.484 4.567-.913 1.097Zm-.805 1.62-6.47-3.013.602-1.294 6.47 3.013-.602 1.294Zm-.41 1.8-6.985-1.469.294-1.397 6.985 1.469-.293 1.396Zm1.43-1.075v4.283H6.427V14.29H5V20h12.84v-5.71h-1.428Z"/></symbol><symbol id="it-star-full" viewBox="0 0 24 24"><path d="M12 1.7 9.5 9.2H1.6L8 13.9l-2.4 7.6 6.4-4.7 6.4 4.7-2.4-7.6 6.4-4.7h-7.9L12 1.7z"/></symbol><symbol id="it-star-outline" viewBox="0 0 24 24"><path d="m12 4.9 1.5 4.6.2.7h5.7l-4 2.9-.6.4.2.7 1.5 4.7-3.9-2.9-.6-.4-.6.4-3.9 2.9L9 14.2l.2-.7-.6-.4-4-2.9h5.7l.2-.7L12 4.9m0-3.2L9.5 9.2H1.6L8 13.9l-2.4 7.6 6.4-4.7 6.4 4.7-2.4-7.6 6.4-4.7h-7.9L12 1.7z"/></symbol><symbol id="it-team-digitale" viewBox="0 0 24 24"><path d="M23.6 24H.4c-.2 0-.4-.2-.4-.4V.4C0 .2.2 0 .4 0h23.3c.1 0 .3.2.3.4v23.3c0 .1-.2.3-.4.3zM5.8 11.8c.9 0 1.6-.7 1.6-1.6s-.7-1.6-1.6-1.6-1.6.7-1.6 1.6.7 1.6 1.6 1.6zM10 19h4.4c4.7 0 5.6-2.3 5.6-6.7S19 6 14.4 6H10v13zm4.4-10.7c2.6 0 2.8 1.1 2.8 4s-.3 4.5-2.8 4.5h-1.8V8.3h1.8z"/></symbol><symbol id="it-telegram" viewBox="0 0 24 24"><path style="fill-rule:evenodd" d="M10 0A10 10 0 1 1 0 10 10 10 0 0 1 10 0ZM4.53 9.89c2.91-1.27 4.86-2.1 5.83-2.51C13.14 6.23 13.71 6 14.09 6a.67.67 0 0 1 .39.12.4.4 0 0 1 .14.27 2.12 2.12 0 0 1 0 .39c-.16 1.58-.81 5.42-1.14 7.19-.14.75-.41 1-.68 1-.58.05-1-.39-1.59-.76-.88-.57-1.37-.93-2.23-1.5s-.34-1 .22-1.59c.17-.12 2.72-2.43 2.8-2.64a.19.19 0 0 0 0-.18.26.26 0 0 0-.21 0c-.09 0-1.49 1-4.22 2.79a1.83 1.83 0 0 1-1.08.4 7 7 0 0 1-1.56-.37c-.62-.2-1.12-.31-1.08-.65-.04-.2.2-.39.68-.58Z" transform="translate(2 2)"/></symbol><symbol id="it-telephone" viewBox="0 0 24 24"><path d="M5 3h.2M20 11.6C20 7.4 16.6 4 12.5 4h-.1c-.3 0-.5.2-.5.5s.2.5.5.5C16 5 19 8 19 11.6c0 .3.3.5.5.5.3 0 .5-.2.5-.5z"/><path d="M16.9 11.7c0-2.5-2-4.5-4.5-4.5-.3.1-.5.3-.4.6 0 .2.2.4.4.4 1.9 0 3.5 1.6 3.5 3.5 0 .3.2.5.5.5s.5-.2.5-.5zM15.7 21.2C8.6 20.9 3 15.2 2.9 8.1c0-.4.2-.8.6-.9 1.7-.6 4-1 4.7.1.5.9.8 1.9.9 2.9v.2c.2.7-.1 1.3-.7 1.7-.3.1-.5.4-.5.7.9 1.4 2 2.6 3.4 3.5.2-.1.4-.3.5-.6.1-.5.6-1 1.7-.9h.2c1 .1 2 .4 2.8.9 1 .7.6 3 .1 4.7-.1.5-.5.8-.9.8zM6.6 7.5c-.9 0-1.9.2-2.8.5.1 6.6 5.3 12 11.9 12.2.7-2.3.7-3.5.3-3.8-.8-.4-1.6-.6-2.5-.7h-.2c-.3 0-.6 0-.7.1-.2.6-.6 1.1-1.3 1.3l-.2.1H11c-1.6-1-2.9-2.4-3.9-4L7 13c-.1-.7.3-1.4 1-1.7.1-.1.3-.2.3-.8v-.2c-.1-.9-.4-1.7-.7-2.5-.3-.2-.6-.3-1-.3z"/></symbol><symbol id="it-tiktok" viewBox="0 0 24 24"><path d="M13.125 3h2.228c.161.804.608 1.82 1.389 2.826.765.986 1.78 1.674 3.133 1.674v2.25c-1.973 0-3.455-.915-4.5-2.057v7.682A5.625 5.625 0 1 1 9.75 9.75V12a3.375 3.375 0 1 0 3.375 3.375V3Z"/></symbol><symbol id="it-tiktok-square" viewBox="0 0 24 24"><path fill-rule="evenodd" clip-rule="evenodd" d="M3.567 1.333h16.762a2.286 2.286 0 0 1 2.286 2.286v16.762a2.286 2.286 0 0 1-2.286 2.286H3.567a2.286 2.286 0 0 1-2.286-2.286V3.619a2.286 2.286 0 0 1 2.286-2.286ZM14.981 4H13v11a3 3 0 1 1-3-3v-2a5 5 0 1 0 5 5V8.171C15.93 9.186 17.247 10 19 10V8c-1.203 0-2.105-.611-2.785-1.488-.694-.895-1.091-1.797-1.234-2.512Z"/></symbol><symbol id="it-tool" viewBox="0 0 24 24"><path d="M7.7 5c.6 0 1.2.2 1.7.5 1.1.6 1.7 1.8 1.6 3-.1.9.2 1.8.8 2.4l6.3 6.3c.4.3.5.9.2 1.3-.2.3-.5.5-.8.5-.3 0-.5-.1-.7-.3l-6.4-6.4c-.6-.5-1.3-.8-2.1-.8h-.6c-.8 0-1.7-.4-2.2-1h2.7V6.4H5.1c.3-.4.6-.8 1.1-1 .5-.3 1-.4 1.5-.4m0-1c-.7 0-1.4.2-2 .5-1.1.6-1.9 1.7-2.1 2.9h3.6v2.1H3.7c.2.7.6 1.3 1 1.8.8.8 1.9 1.2 3 1.2h.6c.5 0 1 .2 1.4.5l6.4 6.4c.4.4.9.6 1.4.6.7 0 1.3-.3 1.6-.9.6-.8.4-1.9-.3-2.6l-6.3-6.3c-.4-.4-.6-1-.5-1.6.1-1.6-.7-3.1-2-4-.7-.4-1.5-.6-2.3-.6z"/></symbol><symbol id="it-twitter" viewBox="0 0 24 24"><path d="M8.1 20c2.9 0 5.7-1.1 7.8-3.2s3.2-4.9 3.2-7.8v-.5c.8-.5 1.4-1.2 1.9-2-.7.3-1.5.5-2.2.6.8-.5 1.4-1.2 1.7-2.1-.8.4-1.6.7-2.5.9-1.1-1.2-2.8-1.5-4.2-.9s-2.4 2-2.4 3.6c0 .3 0 .6.1.9-3.1-.1-6-1.6-8-4-1 1.8-.5 4 1.2 5.2-.6 0-1.2-.2-1.8-.5 0 1.9 1.3 3.5 3.2 3.8-.4 0-.8 0-1.1.1-.2 0-.5 0-.7-.1.5 1.6 2 2.6 3.6 2.7-1.4 1.1-3.1 1.7-4.8 1.7-.3 0-.6 0-.9-.1C3.9 19.4 6 20 8.1 20"/></symbol><symbol id="it-twitter-square" viewBox="0 0 24 24"><path d="M19.5 22h-15C3.1 22 2 20.9 2 19.5v-15C2 3.1 3.1 2 4.5 2h15C20.9 2 22 3.1 22 4.5v15c0 1.4-1.1 2.5-2.5 2.5zm-9.8-4.9c1.9 0 3.8-.7 5.2-2.1S17 11.7 17 9.8v-.3c.5-.4.9-.8 1.3-1.3-.5.2-1 .3-1.5.4.5-.3.9-.8 1.1-1.4-.5.3-1.1.5-1.6.6-.5-.5-1.2-.8-1.9-.8-1.4 0-2.6 1.2-2.6 2.6 0 .2 0 .4.1.6-2-.2-4-1.2-5.3-2.8-.7 1.2-.3 2.7.8 3.4-.4 0-.8-.1-1.2-.3 0 1.2.9 2.3 2.1 2.5-.2.1-.4.1-.7.1h-.5c.3 1 1.3 1.8 2.4 1.8-.9.7-2 1.1-3.2 1.2h-.6c1.2.6 2.6 1 4 1z"/></symbol><symbol id="it-unlocked" viewBox="0 0 24 24"><path d="M16.5 12H16V6c0-2.2-1.8-4-4-4S8 3.8 8 6v3h1V6c0-1.7 1.3-3 3-3s3 1.3 3 3v6H7.5c-.6 0-1.1.5-1.1 1.1v6.8c0 .6.5 1.1 1.1 1.1h9c.6 0 1.1-.5 1.1-1.1v-6.8c0-.6-.5-1.1-1.1-1.1zm.1 7.9c0 .1 0 .1-.1.1h-9c-.1 0-.1 0-.1-.1v-6.8h9.2v6.8zM13 15.5c0 .3-.2.7-.5.8v1.5h-1v-1.5c-.3-.1-.5-.5-.5-.8 0-.6.4-1 1-1s1 .4 1 1z"/></symbol><symbol id="it-upload" viewBox="0 0 24 24"><path d="m8.4 7.3-.7-.7L12 2.3l4.3 4.3-.7.7-3.1-3.1v9.3h-1V4.2L8.4 7.3zM19 12v7.5c0 .3-.2.5-.5.5h-13c-.3 0-.5-.2-.5-.5V12H4v7.5c0 .8.7 1.5 1.5 1.5h13c.8 0 1.5-.7 1.5-1.5V12h-1z"/></symbol><symbol id="it-user" viewBox="0 0 24 24"><path d="M12 13c2.2 0 4-1.8 4-4V6c0-2.2-1.8-4-4-4S8 3.8 8 6v3c0 2.2 1.8 4 4 4zM9 6c0-1.7 1.3-3 3-3s3 1.3 3 3v3c0 1.7-1.3 3-3 3s-3-1.3-3-3V6zm11 16h-1c0-3.9-3.1-7-7-7s-7 3.1-7 7H4c0-4.4 3.6-8 8-8s8 3.6 8 8z"/></symbol><symbol id="it-video" viewBox="0 0 24 24"><path d="M17.5 7.3V6c0-.8-.7-1.5-1.5-1.5H5.5C4.7 4.5 4 5.2 4 6v8c0 .8.7 1.5 1.5 1.5h3.4L7.4 21h1l1.6-5.5h1.8l1.6 5.5h1l-1.6-5.5H16c.8 0 1.5-.7 1.5-1.5v-1.3l4 1.5V5.8l-4 1.5zm3 5.5-4-1.5V14c0 .3-.2.5-.5.5H5.5c-.3 0-.5-.2-.5-.5V6c0-.3.2-.5.5-.5H16c.3 0 .5.2.5.5v2.7l4-1.5v5.6zM2 8h1v4H2V8z"/></symbol><symbol id="it-vimeo" viewBox="0 0 24 24"><path d="M20.991 7.73c-.08 1.75-1.303 4.147-3.67 7.191-2.447 3.183-4.518 4.774-6.212 4.774-1.05 0-1.938-.969-2.663-2.906l-1.453-5.326c-.54-1.937-1.118-2.906-1.735-2.906-.133 0-.604.285-1.411.85L3 8.314c.888-.78 1.764-1.561 2.626-2.342C6.81 4.951 7.7 4.412 8.295 4.356c1.399-.138 2.26.82 2.586 2.873.349 2.214.59 3.589.726 4.124.406 1.835.85 2.752 1.335 2.75.375 0 .94-.595 1.696-1.785.755-1.19 1.16-2.095 1.212-2.717.108-1.026-.296-1.54-1.212-1.542a3.4 3.4 0 0 0-1.333.295c.887-2.895 2.578-4.303 5.071-4.226 1.85.057 2.722 1.257 2.615 3.601Z"/></symbol><symbol id="it-vimeo-square" viewBox="0 0 24 24"><path fill-rule="evenodd" clip-rule="evenodd" d="M3.567 1.333h16.762a2.286 2.286 0 0 1 2.286 2.286v16.762a2.286 2.286 0 0 1-2.286 2.286H3.567a2.286 2.286 0 0 1-2.286-2.286V3.619a2.286 2.286 0 0 1 2.286-2.286ZM16.73 14.597c2.104-2.706 3.19-4.837 3.262-6.393.095-2.084-.68-3.15-2.324-3.201-2.217-.07-3.72 1.183-4.508 3.756a3.022 3.022 0 0 1 1.185-.262c.814.001 1.173.458 1.077 1.37-.046.553-.406 1.358-1.077 2.416-.672 1.058-1.174 1.587-1.508 1.587-.43 0-.825-.814-1.186-2.445-.12-.476-.336-1.698-.646-3.666-.289-1.825-1.055-2.676-2.298-2.553-.528.049-1.319.528-2.373 1.437A209.56 209.56 0 0 1 4 8.724l.753.97c.717-.501 1.136-.754 1.254-.754.549 0 1.063.86 1.543 2.583l1.291 4.734c.645 1.722 1.434 2.583 2.367 2.583 1.506 0 3.347-1.415 5.522-4.243Z"/></symbol><symbol id="it-warning" viewBox="0 0 24 24"><path d="M12.5 17h-1V2h1v15zm0 3h-1v2h1v-2z"/></symbol><symbol id="it-warning-circle" viewBox="0 0 24 24"><path d="M12 2C6.5 2 2 6.5 2 12s4.5 10 10 10 10-4.5 10-10S17.5 2 12 2zm0 19c-5 0-9-4-9-9s4-9 9-9 9 4 9 9-4 9-9 9zm-.5-6.8V5.7h1.2v8.5h-1.2zm-.1 2.3h1.2v1.8h-1.2v-1.8z"/></symbol><symbol id="it-whatsapp" viewBox="0 0 24 24"><path d="M19.1 4.6C15.5 1.3 10 1 6.1 4S1 12.4 3.4 16.7L2 21.8l5.3-1.4c1.4.8 3.1 1.2 4.7 1.2 4 0 7.6-2.5 9.1-6.2 1.6-3.6.8-7.9-2-10.8zM12 20c-1.5 0-2.9-.4-4.2-1.2l-.3-.2-3.1.8.8-3.1-.2-.2C3 12.9 3.5 8.7 6.1 6s6.7-3.3 10-1.5 4.9 5.7 4 9.3c-1 3.7-4.3 6.2-8.1 6.2zm4.5-6.2c-.3-.1-1.5-.7-1.7-.8-.2-.1-.4-.1-.6.1-.2.3-.5.7-.8 1-.1.2-.3.2-.5.1-.7-.3-1.4-.7-2-1.2-.5-.5-1-1.1-1.4-1.7-.1-.3 0-.4.1-.5l.4-.4c.1-.1.2-.3.3-.4.1-.1.1-.3 0-.4 0-.2-.5-1.4-.8-1.9s-.4-.6-.5-.6h-.5c-.2 0-.5.1-.7.3-.5.5-.8 1.3-.8 2 .1.9.4 1.8 1 2.6 1.1 1.6 2.5 2.9 4.3 3.8.5.2.9.4 1.4.5.5.2 1 .2 1.6.1.7-.1 1.3-.6 1.7-1.2.2-.4.2-.8.2-1.2-.2-.1-.4-.1-.7-.2z"/></symbol><symbol id="it-whatsapp-square" viewBox="0 0 24 24"><path d="M16 8.1c-1.5-1.5-3.8-2-5.8-1.2s-3.3 2.8-3.3 4.9c0 1 .3 2 .8 2.8l.1.2-.5 2 2-.5.2.1c.8.5 1.8.7 2.7.8 2.2 0 4.1-1.3 5-3.3.8-2 .3-4.3-1.2-5.8zm-.8 5.8c-.2.4-.6.7-1.1.8-.3.1-.7 0-1-.1-.2-.1-.5-.2-.9-.3-1.1-.6-2.1-1.4-2.8-2.4-.4-.5-.6-1.1-.7-1.7 0-.5.2-1 .6-1.3.1-.1.3-.2.4-.2h.3c.1 0 .2 0 .4.3.1.3.5 1.1.5 1.2v.3c0 .1-.1.2-.2.3-.1.1-.2.2-.2.3-.1.1-.2.2-.1.3.2.4.5.8.9 1.1.4.3.8.6 1.3.8.2.1.3.1.3 0 .1-.1.4-.5.5-.6.1-.2.2-.1.4-.1.1.1.9.4 1.1.5.2.1.3.1.3.2v.6z"/><path d="M21 7.1c0-.4 0-.8-.1-1.2-.2-1.1-.9-2-1.9-2.5-.3-.2-.7-.3-1-.3-.3-.1-.7-.1-1.1-.1H7.1c-.4 0-.8 0-1.2.1-1.1.2-2 .9-2.5 1.9-.1.3-.2.7-.3 1-.1.4-.1.7-.1 1.1V17c0 .4 0 .8.1 1.1.2 1.1.9 2 1.9 2.5.3.2.7.3 1 .3.4.1.8.1 1.2.1H17c.4 0 .8 0 1.1-.1 1.1-.2 2-.9 2.5-1.9.2-.3.3-.7.3-1 .1-.4.1-.8.1-1.2V7.1zm-8.8 11.2c-1.1 0-2.1-.3-3.1-.8l-3.4.9.9-3.3c-.6-1-.9-2.1-.9-3.2 0-2.6 1.5-5 4-6s5.2-.4 7 1.5c1.2 1.2 1.9 2.8 1.9 4.5 0 1.7-.7 3.3-1.9 4.6-1.1 1.1-2.8 1.8-4.5 1.8z"/></symbol><symbol id="it-wifi" viewBox="0 0 24 24"><path d="M22 19h-1c0-8.8-7.2-16-16-16V2c9.4 0 17 7.6 17 17z"/><path d="M5 7v1c6.1 0 11 4.9 11 11h1c0-6.6-5.4-12-12-12zM5 12v1c3.3 0 6 2.7 6 6h1c0-3.9-3.1-7-7-7zM5 17c-1.1 0-2 .9-2 2s.9 2 2 2 2-.9 2-2-.9-2-2-2zm0 3c-.6 0-1-.4-1-1s.4-1 1-1 1 .4 1 1-.4 1-1 1z"/></symbol><symbol id="it-youtube" viewBox="0 0 24 24"><path d="M21.6 7.2c-.2-.9-.9-1.5-1.8-1.8C18.2 5 12 5 12 5s-6.2 0-7.8.4c-.9.3-1.5.9-1.8 1.8C2.1 8.8 2 10.4 2 12c0 1.6.1 3.2.4 4.8.2.9.9 1.5 1.8 1.8 1.6.4 7.8.4 7.8.4s6.2 0 7.8-.4c.9-.2 1.5-.9 1.8-1.8.3-1.6.4-3.2.4-4.8 0-1.6-.1-3.2-.4-4.8zM10 15V9l5.2 3-5.2 3z"/></symbol><symbol id="it-zoom-in" viewBox="0 0 24 24"><path d="M10.4 9.5h3.3v1h-3.3v3.2h-1v-3.2H6.2v-1h3.2V6.2h1v3.3zm10.7 12.4L15.3 16c-1.5 1.3-3.4 2-5.3 2-4.4 0-8-3.6-8-8s3.6-8 8-8 8 3.6 8 8c0 1.9-.7 3.8-2 5.3l5.9 5.8-.8.8zM17 10c0-3.9-3.1-7-7-7s-7 3.1-7 7 3.1 7 7 7 7-3.1 7-7z"/></symbol><symbol id="it-zoom-out" viewBox="0 0 24 24"><path d="M6.2 9.5h7.5v1H6.2v-1zm14.9 12.4L15.3 16c-1.5 1.3-3.4 2-5.3 2-4.4 0-8-3.6-8-8s3.6-8 8-8 8 3.6 8 8c0 1.9-.7 3.8-2 5.3l5.9 5.8-.8.8zM17 10c0-3.9-3.1-7-7-7s-7 3.1-7 7 3.1 7 7 7 7-3.1 7-7z"/></symbol></svg>