<?xml version="1.0" encoding="UTF-8" standalone="no"?>
<svg
   xmlns:dc="http://purl.org/dc/elements/1.1/"
   xmlns:cc="http://creativecommons.org/ns#"
   xmlns:rdf="http://www.w3.org/1999/02/22-rdf-syntax-ns#"
   xmlns:svg="http://www.w3.org/2000/svg"
   xmlns="http://www.w3.org/2000/svg"
   xmlns:sodipodi="http://sodipodi.sourceforge.net/DTD/sodipodi-0.dtd"
   xmlns:inkscape="http://www.inkscape.org/namespaces/inkscape"
   width="886px"
   height="163px"
   viewBox="0 0 886 163"
   version="1.1"
   id="svg10"
   sodipodi:docname="blue-nofill-text-right.svg"
   inkscape:version="0.92.4 (5da689c313, 2019-01-14)">
  <metadata
     id="metadata16">
    <rdf:RDF>
      <cc:Work
         rdf:about="">
        <dc:format>image/svg+xml</dc:format>
        <dc:type
           rdf:resource="http://purl.org/dc/dcmitype/StillImage" />
        <dc:title>blue-nofill-text-right</dc:title>
      </cc:Work>
    </rdf:RDF>
  </metadata>
  <defs
     id="defs14" />
  <sodipodi:namedview
     pagecolor="#ffffff"
     bordercolor="#666666"
     borderopacity="1"
     objecttolerance="10"
     gridtolerance="10"
     guidetolerance="10"
     inkscape:pageopacity="0"
     inkscape:pageshadow="2"
     inkscape:window-width="1366"
     inkscape:window-height="704"
     id="namedview12"
     showgrid="false"
     inkscape:zoom="0.99322799"
     inkscape:cx="209.4149"
     inkscape:cy="6.9324964"
     inkscape:window-x="0"
     inkscape:window-y="27"
     inkscape:window-maximized="1"
     inkscape:current-layer="svg10" />
  <!-- Generator: Sketch 62 (91390) - https://sketch.com -->
  <title
     id="title2">blue-nofill-text-right</title>
  <desc
     id="desc4">Created with Sketch.</desc>
  <g
     id="Page-1"
     stroke="none"
     stroke-width="1"
     fill="none"
     fill-rule="evenodd"
     style="fill:#ffffff">
    <g
       id="blue-nofill-text-right"
       fill="#0066CC"
       fill-rule="nonzero"
       style="fill:#ffffff">
      <path
         d="M220.18,41.52 C223.78,41.52 226.74,41.09 229.06,40.23 C231.38,39.37 233.15,37.99 234.37,36.09 C235.59,34.19 236.42,32.03 236.86,29.61 C237.3,27.19 237.52,24.14 237.52,20.46 C237.52,16.78 237.28,13.79 236.8,11.49 C236.32,9.19 235.45,7.19 234.19,5.49 C232.93,3.79 231.16,2.57 228.88,1.83 C226.6,1.09 223.7,0.72 220.18,0.72 L220.18,0.72 L206.44,0.72 L206.44,41.52 L220.18,41.52 Z M220.18,34.32 L214.72,34.32 L214.72,7.92 L220.18,7.92 C222.18,7.92 223.77,8.13 224.95,8.55 C226.13,8.97 227.02,9.74 227.62,10.86 C228.22,11.98 228.6,13.22 228.76,14.58 C228.92,15.94 229,17.75 229,20.01 C229,22.27 228.96,24.04 228.88,25.32 C228.6,28.56 227.88,30.8 226.72,32.04 C225.36,33.56 223.18,34.32 220.18,34.32 L220.18,34.32 Z M253,41.52 L253,0.72 L244.72,0.72 L244.72,41.52 L253,41.52 Z M270.16,41.52 L270.16,29.64 L276.88,29.64 C281.64,29.64 285.25,28.37 287.71,25.83 C290.17,23.29 291.4,19.64 291.4,14.88 C291.4,5.44 286.56,0.72 276.88,0.72 L276.88,0.72 L261.88,0.72 L261.88,41.52 L270.16,41.52 Z M276.82,22.56 L270.16,22.56 L270.16,7.8 L276.82,7.8 C278.94,7.8 280.5,8.35 281.5,9.45 C282.5,10.55 283,12.36 283,14.88 C283,20 280.94,22.56 276.82,22.56 L276.82,22.56 Z M302.08,41.52 L303.7,34.14 L317.98,34.14 L319.6,41.52 L327.88,41.52 L318.7,0.72 L302.98,0.72 L293.8,41.52 L302.08,41.52 Z M316.42,26.94 L305.26,26.94 L309.4,7.56 L312.28,7.56 L316.42,26.94 Z M341.62,41.52 L341.62,27.84 L349.6,27.84 L354.34,41.52 L363.4,41.52 L357.58,25.92 C361.58,23.4 363.58,19.48 363.58,14.16 C363.58,5.2 358.78,0.72 349.18,0.72 L349.18,0.72 L333.34,0.72 L333.34,41.52 L341.62,41.52 Z M349.3,20.76 L341.62,20.76 L341.62,7.8 L349.18,7.8 C351.1,7.8 352.57,8.38 353.59,9.54 C354.61,10.7 355.12,12.26 355.12,14.22 C355.12,16.18 354.64,17.76 353.68,18.96 C352.72,20.16 351.26,20.76 349.3,20.76 L349.3,20.76 Z M386.08,41.52 L386.08,8.04 L396.88,8.04 L396.88,0.72 L366.88,0.72 L366.88,8.04 L377.8,8.04 L377.8,41.52 L386.08,41.52 Z M410.38,41.52 L410.38,0.72 L402.1,0.72 L402.1,41.52 L410.38,41.52 Z M427.54,41.52 L427.54,9.96 L428.44,9.96 L436.42,39.72 L444.7,39.72 L452.68,9.96 L453.58,9.96 L453.58,41.52 L461.86,41.52 L461.86,0.72 L447.76,0.72 L440.56,30.48 L433.36,0.72 L419.26,0.72 L419.26,41.52 L427.54,41.52 Z M497.14,41.52 L497.14,34.32 L479.02,34.32 L479.02,24.54 L493.54,24.54 L493.54,17.46 L479.02,17.46 L479.02,7.92 L497.14,7.92 L497.14,0.72 L470.74,0.72 L470.74,41.52 L497.14,41.52 Z M512.26,41.52 L512.26,7.92 L512.86,7.92 L523.06,41.52 L536.68,41.52 L536.68,0.72 L528.4,0.72 L528.4,34.32 L527.8,34.32 L517.96,0.72 L503.98,0.72 L503.98,41.52 L512.26,41.52 Z M561.1,41.52 L561.1,8.04 L571.9,8.04 L571.9,0.72 L541.9,0.72 L541.9,8.04 L552.82,8.04 L552.82,41.52 L561.1,41.52 Z M592.24,42.24 C598.44,42.24 602.8,40.56 605.32,37.2 C607.88,33.8 609.16,28.5 609.16,21.3 C609.16,14.1 607.89,8.75 605.35,5.25 C602.81,1.75 598.44,0 592.24,0 C586.04,0 581.67,1.75 579.13,5.25 C576.59,8.75 575.32,14.1 575.32,21.3 C575.32,28.5 576.59,33.79 579.13,37.17 C581.67,40.55 586.04,42.24 592.24,42.24 Z M592.24,35.04 C589,35.04 586.78,34 585.58,31.92 C584.42,29.8 583.84,26.27 583.84,21.33 C583.84,16.39 584.44,12.8 585.64,10.56 C586.84,8.32 589.04,7.2 592.24,7.2 C595.44,7.2 597.64,8.32 598.84,10.56 C600.04,12.8 600.64,16.39 600.64,21.33 C600.64,26.27 600.05,29.79 598.87,31.89 C597.69,33.99 595.48,35.04 592.24,35.04 Z M210.94,101.52 L210.94,87 L222.46,87 C231.1,87 235.42,82.34 235.42,73.02 C235.42,68.54 234.37,65.22 232.27,63.06 C230.17,60.9 226.9,59.82 222.46,59.82 L222.46,59.82 L207.22,59.82 L207.22,101.52 L210.94,101.52 Z M222.46,83.7 L210.94,83.7 L210.94,63.12 L222.46,63.12 C225.66,63.12 227.98,63.92 229.42,65.52 C230.86,67.12 231.58,69.62 231.58,73.02 C231.58,80.14 228.54,83.7 222.46,83.7 L222.46,83.7 Z M267.82,101.52 L267.82,98.22 L246.52,98.22 L246.52,81.96 L264.22,81.96 L264.22,78.66 L246.52,78.66 L246.52,63.18 L267.82,63.18 L267.82,59.82 L242.8,59.82 L242.8,101.52 L267.82,101.52 Z M279.64,101.52 L279.64,85.08 L292.36,85.08 L300.58,101.52 L304.72,101.52 L296.14,84.36 C301.5,82.92 304.18,78.86 304.18,72.18 C304.18,67.9 303.11,64.77 300.97,62.79 C298.83,60.81 295.58,59.82 291.22,59.82 L291.22,59.82 L275.92,59.82 L275.92,101.52 L279.64,101.52 Z M291.22,81.78 L279.64,81.78 L279.64,63.12 L291.22,63.12 C294.34,63.12 296.64,63.86 298.12,65.34 C299.6,66.82 300.34,69.12 300.34,72.24 C300.34,78.6 297.3,81.78 291.22,81.78 L291.22,81.78 Z M348.82,101.52 L348.82,98.16 L329.74,98.16 L329.74,59.82 L326.02,59.82 L326.02,101.52 L348.82,101.52 Z M354.82,101.52 L358.12,90 L376.72,90 L380.08,101.52 L383.74,101.52 L371.8,59.82 L363.1,59.82 L351.1,101.52 L354.82,101.52 Z M375.82,86.7 L359.02,86.7 L365.8,63.06 L369.04,63.06 L375.82,86.7 Z M416.14,101.52 L416.14,63.18 L429.22,63.18 L429.22,59.82 L399.22,59.82 L399.22,63.18 L412.42,63.18 L412.42,101.52 L416.14,101.52 Z M438.94,101.52 L438.94,85.08 L451.66,85.08 L459.88,101.52 L464.02,101.52 L455.44,84.36 C460.8,82.92 463.48,78.86 463.48,72.18 C463.48,67.9 462.41,64.77 460.27,62.79 C458.13,60.81 454.88,59.82 450.52,59.82 L450.52,59.82 L435.22,59.82 L435.22,101.52 L438.94,101.52 Z M450.52,81.78 L438.94,81.78 L438.94,63.12 L450.52,63.12 C453.64,63.12 455.94,63.86 457.42,65.34 C458.9,66.82 459.64,69.12 459.64,72.24 C459.64,78.6 456.6,81.78 450.52,81.78 L450.52,81.78 Z M472.12,101.52 L475.42,90 L494.02,90 L497.38,101.52 L501.04,101.52 L489.1,59.82 L480.4,59.82 L468.4,101.52 L472.12,101.52 Z M493.12,86.7 L476.32,86.7 L483.1,63.06 L486.34,63.06 L493.12,86.7 Z M518.92,102 C523.2,102 526.45,101.01 528.67,99.03 C530.89,97.05 532,93.82 532,89.34 C532,85.86 531.09,83.38 529.27,81.9 C527.45,80.42 524.41,79.26 520.15,78.42 C515.89,77.58 513.03,76.66 511.57,75.66 C510.11,74.66 509.38,72.72 509.38,69.84 C509.38,64.92 512.6,62.46 519.04,62.46 C521.36,62.46 525.28,62.8 530.8,63.48 L530.8,63.48 L531.1,60.3 L529.12,60 C524.88,59.44 521.44,59.16 518.8,59.16 C510,59.16 505.6,62.8 505.6,70.08 C505.6,72.12 505.86,73.81 506.38,75.15 C506.9,76.49 507.77,77.59 508.99,78.45 C510.21,79.31 511.52,79.97 512.92,80.43 C514.32,80.89 516.53,81.4 519.55,81.96 C522.57,82.52 524.77,83.31 526.15,84.33 C527.53,85.35 528.22,87.27 528.22,90.09 C528.22,92.91 527.44,95.05 525.88,96.51 C524.32,97.97 522.04,98.7 519.04,98.7 C516.04,98.7 511.8,98.36 506.32,97.68 L506.32,97.68 L505.9,100.86 L508.06,101.16 C512.18,101.72 515.8,102 518.92,102 Z M543.94,101.52 L543.94,83.7 L561.7,83.7 L561.7,80.4 L543.94,80.4 L543.94,63.18 L564.82,63.18 L564.82,59.82 L540.22,59.82 L540.22,101.52 L543.94,101.52 Z M586.39,102.12 C592.57,102.12 596.83,100.46 599.17,97.14 C601.51,93.82 602.68,88.44 602.68,81 C602.68,73.56 601.49,68.07 599.11,64.53 C596.73,60.99 592.48,59.22 586.36,59.22 C580.24,59.22 576,61 573.64,64.56 C571.28,68.12 570.1,73.57 570.1,80.91 C570.1,88.25 571.27,93.62 573.61,97.02 C575.95,100.42 580.21,102.12 586.39,102.12 Z M586.39,98.76 C581.45,98.76 578.14,97.37 576.46,94.59 C574.78,91.81 573.94,87.24 573.94,80.88 C573.94,77.76 574.11,75.14 574.45,73.02 C574.79,70.9 575.42,69.02 576.34,67.38 C578.06,64.18 581.4,62.58 586.36,62.58 C591.16,62.58 594.44,64.06 596.2,67.02 C597.96,69.98 598.84,74.65 598.84,81.03 C598.84,87.41 598,91.96 596.32,94.68 C594.64,97.4 591.33,98.76 586.39,98.76 Z M615.16,101.52 L615.16,85.08 L627.88,85.08 L636.1,101.52 L640.24,101.52 L631.66,84.36 C637.02,82.92 639.7,78.86 639.7,72.18 C639.7,67.9 638.63,64.77 636.49,62.79 C634.35,60.81 631.1,59.82 626.74,59.82 L626.74,59.82 L611.44,59.82 L611.44,101.52 L615.16,101.52 Z M626.74,81.78 L615.16,81.78 L615.16,63.12 L626.74,63.12 C629.86,63.12 632.16,63.86 633.64,65.34 C635.12,66.82 635.86,69.12 635.86,72.24 C635.86,78.6 632.82,81.78 626.74,81.78 L626.74,81.78 Z M652.06,101.52 L652.06,63.66 L652.9,63.66 L665.98,100.14 L670.36,100.14 L683.44,63.66 L684.28,63.66 L684.28,101.52 L688,101.52 L688,59.82 L681.04,59.82 L668.2,96.3 L655.3,59.82 L648.34,59.82 L648.34,101.52 L652.06,101.52 Z M698.44,101.52 L701.74,90 L720.34,90 L723.7,101.52 L727.36,101.52 L715.42,59.82 L706.72,59.82 L694.72,101.52 L698.44,101.52 Z M719.44,86.7 L702.64,86.7 L709.42,63.06 L712.66,63.06 L719.44,86.7 Z M758.44,101.58 L758.44,98.22 L735.58,98.22 L735.58,96.96 L758.44,64.8 L758.44,59.82 L731.44,59.82 L731.44,63.18 L754.3,63.18 L754.3,64.5 L731.44,96.66 L731.44,101.58 L758.44,101.58 Z M770.02,101.52 L770.02,59.82 L766.3,59.82 L766.3,101.52 L770.02,101.52 Z M795.13,102.12 C801.31,102.12 805.57,100.46 807.91,97.14 C810.25,93.82 811.42,88.44 811.42,81 C811.42,73.56 810.23,68.07 807.85,64.53 C805.47,60.99 801.22,59.22 795.1,59.22 C788.98,59.22 784.74,61 782.38,64.56 C780.02,68.12 778.84,73.57 778.84,80.91 C778.84,88.25 780.01,93.62 782.35,97.02 C784.69,100.42 788.95,102.12 795.13,102.12 Z M795.13,98.76 C790.19,98.76 786.88,97.37 785.2,94.59 C783.52,91.81 782.68,87.24 782.68,80.88 C782.68,77.76 782.85,75.14 783.19,73.02 C783.53,70.9 784.16,69.02 785.08,67.38 C786.8,64.18 790.14,62.58 795.1,62.58 C799.9,62.58 803.18,64.06 804.94,67.02 C806.7,69.98 807.58,74.65 807.58,81.03 C807.58,87.41 806.74,91.96 805.06,94.68 C803.38,97.4 800.07,98.76 795.13,98.76 Z M823.9,101.52 L823.9,63.18 L825.22,63.18 L842.8,101.52 L850,101.52 L850,59.82 L846.34,59.82 L846.34,98.22 L844.96,98.22 L827.5,59.82 L820.18,59.82 L820.18,101.52 L823.9,101.52 Z M885.52,101.52 L885.52,98.22 L864.22,98.22 L864.22,81.96 L881.92,81.96 L881.92,78.66 L864.22,78.66 L864.22,63.18 L885.52,63.18 L885.52,59.82 L860.5,59.82 L860.5,101.52 L885.52,101.52 Z M222.4,161.52 C232.28,161.52 237.22,154.38 237.22,140.1 C237.22,126.58 232.28,119.82 222.4,119.82 L222.4,119.82 L207.22,119.82 L207.22,161.52 L222.4,161.52 Z M222.4,158.22 L210.94,158.22 L210.94,123.18 L222.4,123.18 C229.72,123.18 233.38,128.82 233.38,140.1 C233.38,152.18 229.72,158.22 222.4,158.22 L222.4,158.22 Z M249.7,161.52 L249.7,119.82 L245.98,119.82 L245.98,161.52 L249.7,161.52 Z M274.48,162.12 C276.4,162.12 278.82,161.93 281.74,161.55 C284.66,161.17 286.7,160.86 287.86,160.62 L287.86,160.62 L287.86,140.46 L276.52,140.46 L276.52,143.76 L284.2,143.76 L284.2,157.8 C280.68,158.44 277.5,158.76 274.66,158.76 C269.86,158.76 266.61,157.34 264.91,154.5 C263.21,151.66 262.36,147.08 262.36,140.76 C262.36,134.44 263.21,129.83 264.91,126.93 C266.61,124.03 269.88,122.58 274.72,122.58 C278.36,122.58 282.68,123.04 287.68,123.96 L287.68,123.96 L287.86,120.78 L285.88,120.36 C282,119.6 278.18,119.22 274.42,119.22 C268.26,119.22 264.04,121.14 261.76,124.98 C260.56,126.94 259.72,129.18 259.24,131.7 C258.76,134.22 258.52,137.26 258.52,140.82 C258.52,147.98 259.68,153.32 262,156.84 C264.32,160.36 268.48,162.12 274.48,162.12 Z M300.88,161.52 L300.88,119.82 L297.16,119.82 L297.16,161.52 L300.88,161.52 Z M323.8,161.52 L323.8,123.18 L336.88,123.18 L336.88,119.82 L306.88,119.82 L306.88,123.18 L320.08,123.18 L320.08,161.52 L323.8,161.52 Z M342.88,161.52 L346.18,150 L364.78,150 L368.14,161.52 L371.8,161.52 L359.86,119.82 L351.16,119.82 L339.16,161.52 L342.88,161.52 Z M363.88,146.7 L347.08,146.7 L353.86,123.06 L357.1,123.06 L363.88,146.7 Z M401.32,161.52 L401.32,158.16 L382.24,158.16 L382.24,119.82 L378.52,119.82 L378.52,161.52 L401.32,161.52 Z M432.34,161.52 L432.34,158.22 L411.04,158.22 L411.04,141.96 L428.74,141.96 L428.74,138.66 L411.04,138.66 L411.04,123.18 L432.34,123.18 L432.34,119.82 L407.32,119.82 L407.32,161.52 L432.34,161.52 Z"
         id="DIPARTIMENTOPERLATRASFORMAZIONEDIGITALE"
         style="fill:#ffffff" />
      <path
         d="M162,0.52 L162,162.52 L0,162.52 L0,0.52 L162,0.52 Z M96.36,42.92 L68.88,42.92 L68.88,124.52 L96.36,124.52 C103.56,124.52 109.48,123.66 114.12,121.94 C118.76,120.22 122.3,117.46 124.74,113.66 C127.18,109.86 128.84,105.54 129.72,100.7 C130.6,95.86 131.04,89.76 131.04,82.4 C131.04,75.04 130.56,69.06 129.6,64.46 C128.64,59.86 126.9,55.86 124.38,52.46 C121.86,49.06 118.32,46.62 113.76,45.14 C109.362857,43.7128571 103.812704,42.973801 97.1095408,42.9228316 L96.36,42.92 Z M96.36,57.32 C100.36,57.32 103.54,57.74 105.9,58.58 C108.26,59.42 110.04,60.96 111.24,63.2 C112.44,65.44 113.2,67.92 113.52,70.64 C113.84,73.36 114,76.98 114,81.5 C114,86.02 113.92,89.56 113.76,92.12 C113.2,98.6 111.76,103.08 109.44,105.56 C106.72,108.6 102.36,110.12 96.36,110.12 L85.44,110.12 L85.44,57.32 L96.36,57.32 Z M40.0734796,63.52 C37.1363802,63.52 34.7172859,64.4596177 32.8318307,66.3509902 C30.9463755,68.2484313 30,70.6151755 30,73.4674057 C30,76.3206473 30.9588827,78.7086315 32.8578873,80.6333812 C34.7527229,82.556108 37.1676481,83.52 40.0984939,83.52 C43.0230861,83.52 45.4036167,82.5743137 47.2442545,80.6890098 C49.0734275,78.794603 50,76.4349388 50,73.5908 C50,70.750707 49.0734275,68.3596885 47.2442545,66.4278588 C45.4036167,64.4869263 43.0126635,63.52 40.0734796,63.52 Z"
         id="Combined-Shape"
         style="fill:#ffffff" />
    </g>
  </g>
</svg>
