<svg {% if include.width %} width="{{ include.width }}"{% endif %}{% if include.height %} height="{{ include.height }}"{% endif %} viewBox="0 0 43 48" version="1.1" xmlns="http://www.w3.org/2000/svg" xmlns:xlink="http://www.w3.org/1999/xlink">
    <defs></defs>
    <g stroke="none" stroke-width="1" fill="none" fill-rule="evenodd">
        <g transform="translate(-284.000000, -2880.000000)" fill-rule="nonzero" fill="#FFF">
            <g transform="translate(209.000000, 2880.000000)">
                <g transform="translate(75.000000, 0.000000)">
                    <path d="M27.6581377,17.7213003 L27.6581377,3.31034483 L0,3.31034483 L0,19.178089 L14.548665,19.178089 L14.548665,32.1322559 L0,32.1322559 L0,48 L27.6582315,48 L27.6582315,33.5888587 L42.2068966,33.5888587 L42.2068966,17.7213003 L27.6581377,17.7213003 Z M1.47070953,17.7213003 L1.47070953,4.76713345 L26.1876158,4.76713345 L26.1876158,17.7213003 L14.548665,17.7213003 L1.47070953,17.7213003 L1.47070953,17.7213003 Z M26.1876158,46.5430256 L26.187522,46.5430256 L1.47070953,46.5430256 L1.47070953,33.5888587 L14.548665,33.5888587 L26.1876158,33.5888587 L26.1876158,46.5430256 Z M40.736187,32.13207 L40.7360932,32.13207 L27.6581377,32.13207 L16.0192808,32.13207 L16.0192808,19.1779961 L27.6582315,19.1779961 L40.736187,19.1779961 L40.736187,32.13207 Z"></path>
                    <polygon points="6.62068966 31.4482759 6.62068966 28.9655172 1.65517241 28.9655172 1.65517241 31.4482759 3.08489924 31.4482759 3.08489924 30.6325989 5.19096282 30.6325989 5.19096282 31.4482759"></polygon>
                    <polygon points="13.2413793 31.4482759 13.2413793 28.9655172 8.27586207 28.9655172 8.27586207 31.4482759 9.7055889 31.4482759 9.7055889 30.6325989 11.8116525 30.6325989 11.8116525 31.4482759"></polygon>
                    <polygon points="30.3952178 16.5637397 32.5013339 16.5637397 32.5013339 17.3793103 33.9310345 17.3793103 33.9310345 14.8965517 28.9655172 14.8965517 28.9655172 17.3793103 30.3952178 17.3793103"></polygon>
                    <polygon points="37.0159337 16.5637397 39.1219973 16.5637397 39.1219973 17.3793103 40.5517241 17.3793103 40.5517241 14.8965517 35.5862069 14.8965517 35.5862069 17.3793103 37.0159337 17.3793103"></polygon>
                    <rect x="3.31034483" y="43.862069" width="2.48275862" height="1.65517241"></rect>
                    <rect x="6.62068966" y="43.862069" width="4.96551724" height="1.65517241"></rect>
                    <polygon points="17.3793103 24 18.7148976 24 18.7148976 22.3582375 20.6896552 22.3582375 20.6896552 20.6896552 17.3793103 20.6896552"></polygon>
                    <rect x="17.3793103" y="24.8275862" width="1.65517241" height="1.65517241"></rect>
                    <polygon points="9.7055889 1.66718799 11.8116525 1.66718799 11.8116525 2.48275862 13.2413793 2.48275862 13.2413793 0 8.27586207 0 8.27586207 2.48275862 9.7055889 2.48275862"></polygon>
                    <polygon points="3.08480806 1.66718799 5.19096282 1.66718799 5.19096282 2.48275862 6.62068966 2.48275862 6.62068966 0 1.65517241 0 1.65517241 2.48275862 3.08480806 2.48275862"></polygon>
                    <polygon points="22.9469682 1.66718799 25.053123 1.66718799 25.053123 2.48275862 26.4827586 2.48275862 26.4827586 0 21.5172414 0 21.5172414 2.48275862 22.9469682 2.48275862"></polygon>
                    <polygon points="16.3262523 1.66718799 18.4323684 1.66718799 18.4323684 2.48275862 19.862069 2.48275862 19.862069 0 14.8965517 0 14.8965517 2.48275862 16.3262523 2.48275862"></polygon>
                    <rect x="3.31034483" y="14.8965517" width="10.7586207" height="1.65517241"></rect>
                </g>
            </g>
        </g>
    </g>
</svg>
