<svg xmlns="http://www.w3.org/2000/svg" viewBox="0 0 92 74"
  {% if include.width %} width="{{ include.width }}"{% endif %}
  {% if include.height %} height="{{ include.height }}"{% endif %}
  >
  <g fill="#FFF">
    <path d="M31.799 71.9V15.7h15.1V72h-15.1zM91.099 28.5h-13.8v23.1c0 2.3.1 3.8.2 4.8.1.9.5 1.7 1.2 2.4s1.8 1 3.3 1l8.6-.2.7 12c-5 1.1-8.9 1.7-11.5 1.7-6.8 0-11.4-1.5-13.8-4.6-2.5-3-3.7-8.6-3.7-16.8V0h15.1v15.6h13.8v12.9zM9.099 32.8c-2.6 0-4.8-.9-6.5-2.7s-2.6-4-2.6-6.6.9-4.8 2.5-6.6c1.7-1.8 3.9-2.6 6.5-2.6s4.8.9 6.5 2.7 2.5 4 2.5 6.7-.8 4.8-2.5 6.6c-1.6 1.6-3.7 2.5-6.4 2.5z"></path>
  </g>
</svg>
