<?xml version="1.0" encoding="UTF-8"?>
<svg width="32px" height="25px" viewBox="0 0 32 25" version="1.1" xmlns="http://www.w3.org/2000/svg" xmlns:xlink="http://www.w3.org/1999/xlink">
    <title>Bootstrap Italia logo</title>
    <g id="Page-1" stroke="none" stroke-width="1" fill="none" fill-rule="evenodd">
        <g id="Group" transform="translate(0.000000, -1.000000)" fill="#0066CC" fill-rule="nonzero">
            <g transform="translate(16.000000, 0.000000)" id="Shape">
                <path d="M6.2183,1.7075 L8.9343,6.2345 L6.0353,10.1005 C6.0243,10.1145 6.0303,10.1335 6.0223,10.1485 C6.0103,10.1735 6.0003,10.1935 5.9973,10.2205 C5.9963,10.2315 5.9853,10.2385 5.9853,10.2495 C5.9853,10.2565 5.9923,10.2605 5.9923,10.2675 C5.9943,10.2905 6.0063,10.3075 6.0133,10.3285 C6.0193,10.3455 6.0113,10.3625 6.0213,10.3785 L8.9343,15.2345 L6.2533,18.8095 L0.5353,9.7575 L6.2183,1.7075 Z M9.3773,14.9995 L6.6763,10.4995 L12.0933,10.4995 L14.7943,14.9995 L9.3773,14.9995 Z M12.0933,1.4995 L14.7943,5.9995 L9.3773,5.9995 L6.6763,1.4995 L12.0933,1.4995 Z M15.4783,15.2325 C15.4763,15.2095 15.4653,15.1925 15.4573,15.1715 C15.4513,15.1545 15.4593,15.1375 15.4493,15.1215 L12.5363,10.2655 L15.4353,6.3995 C15.4463,6.3855 15.4413,6.3665 15.4483,6.3515 C15.4603,6.3265 15.4703,6.3065 15.4733,6.2795 C15.4743,6.2685 15.4853,6.2615 15.4853,6.2495 C15.4853,6.2435 15.4783,6.2395 15.4783,6.2325 C15.4763,6.2095 15.4653,6.1925 15.4573,6.1715 C15.4513,6.1545 15.4593,6.1375 15.4493,6.1215 L12.4493,1.1215 C12.4443,1.1115 12.4313,1.1115 12.4243,1.1035 C12.4043,1.0765 12.3793,1.0635 12.3493,1.0475 C12.3213,1.0315 12.2973,1.0165 12.2643,1.0125 C12.2543,1.0105 12.2473,0.9995 12.2353,0.9995 L6.2353,0.9995 C6.2273,0.9995 6.2233,1.0075 6.2153,1.0085 C6.1923,1.0105 6.1753,1.0205 6.1533,1.0285 C6.1373,1.0345 6.1213,1.0265 6.1073,1.0355 C6.0973,1.0415 6.0963,1.0545 6.0883,1.0615 C6.0733,1.0725 6.0613,1.0805 6.0503,1.0945 C6.0453,1.1005 6.0353,1.0995 6.0313,1.1055 L0.0313,9.6055 C0.0213,9.6205 0.0273,9.6385 0.0203,9.6535 C0.0073,9.6845 0.0013,9.7105 0.0003,9.7445 C-0.0007,9.7775 0.0033,9.8035 0.0153,9.8335 C0.0213,9.8505 0.0143,9.8685 0.0243,9.8835 L6.0243,19.3835 C6.0313,19.3945 6.0433,19.3985 6.0513,19.4085 C6.0593,19.4185 6.0663,19.4255 6.0753,19.4345 C6.0813,19.4385 6.0803,19.4465 6.0853,19.4505 C6.0903,19.4535 6.0963,19.4525 6.1013,19.4555 C6.1413,19.4815 6.1873,19.4995 6.2353,19.4995 L12.2353,19.4995 C12.3123,19.4995 12.3743,19.4615 12.4203,19.4075 C12.4243,19.4025 12.4313,19.4045 12.4353,19.3995 L15.4353,15.3995 C15.4463,15.3855 15.4413,15.3665 15.4483,15.3515 C15.4603,15.3265 15.4703,15.3065 15.4733,15.2795 C15.4743,15.2685 15.4853,15.2615 15.4853,15.2495 C15.4853,15.2435 15.4783,15.2395 15.4783,15.2325 Z"></path>
            </g>
            <g transform="translate(0.000000, 6.000000)" id="Shape">
                <path d="M2.7716,0.7574 L5.3096,4.9864 L2.7716,9.2164 L0.5156,4.9864 L2.7716,0.7574 Z M8.3016,0.5004 L10.8436,4.7364 L5.7426,4.7364 L3.2006,0.5004 L8.3016,0.5004 Z M8.5976,9.9094 C8.6096,9.9004 8.6186,9.8924 8.6276,9.8804 C8.6376,9.8694 8.6496,9.8644 8.6576,9.8524 L11.4996,5.1154 C11.5066,5.1034 11.5006,5.0904 11.5046,5.0784 C11.5146,5.0564 11.5206,5.0394 11.5226,5.0164 C11.5246,5.0054 11.5356,4.9984 11.5356,4.9864 C11.5356,4.9754 11.5246,4.9684 11.5226,4.9574 C11.5206,4.9344 11.5146,4.9174 11.5046,4.8954 C11.5006,4.8834 11.5066,4.8704 11.4996,4.8584 L8.6576,0.1214 C8.6516,0.1114 8.6386,0.1114 8.6316,0.1034 C8.6116,0.0764 8.5856,0.0644 8.5566,0.0474 C8.5276,0.0314 8.5046,0.0164 8.4726,0.0124 C8.4616,0.0104 8.4546,0.0004 8.4426,0.0004 L2.7586,0.0004 C2.7456,0.0004 2.7366,0.0124 2.7236,0.0144 C2.7006,0.0184 2.6836,0.0214 2.6626,0.0304 C2.6516,0.0354 2.6406,0.0294 2.6306,0.0354 C2.6206,0.0414 2.6206,0.0544 2.6116,0.0614 C2.5926,0.0754 2.5816,0.0894 2.5676,0.1084 C2.5596,0.1184 2.5446,0.1204 2.5386,0.1324 L0.0116,4.8694 C0.0076,4.8774 0.0126,4.8864 0.0096,4.8944 C-0.0034,4.9244 0.0006,4.9534 0.0006,4.9864 C0.0006,5.0204 -0.0034,5.0494 0.0096,5.0794 C0.0126,5.0874 0.0076,5.0964 0.0116,5.1044 L2.5386,9.8414 C2.5466,9.8574 2.5616,9.8644 2.5726,9.8774 C2.5826,9.8894 2.5906,9.8994 2.6036,9.9094 C2.6126,9.9174 2.6186,9.9304 2.6296,9.9364 C2.6296,9.9374 2.6296,9.9374 2.6306,9.9384 C2.6696,9.9614 2.7136,9.9734 2.7586,9.9734 L8.4426,9.9734 C8.5006,9.9734 8.5526,9.9474 8.5976,9.9094 Z"></path>
                <path d="M8.9713,11.5074 L13.4763,13.5164 L13.8233,18.4374 L9.5493,16.2664 L8.9713,11.5074 Z M13.3533,8.1254 L17.8663,10.1374 L13.6883,13.0634 L9.1753,11.0504 L13.3533,8.1254 Z M18.9993,15.6114 C19.0003,15.6004 19.0113,15.5934 19.0103,15.5814 L18.6213,10.0714 C18.6203,10.0584 18.6073,10.0514 18.6043,10.0394 C18.5993,10.0154 18.5943,9.9974 18.5833,9.9764 C18.5783,9.9664 18.5823,9.9544 18.5763,9.9454 C18.5683,9.9344 18.5543,9.9344 18.5443,9.9254 C18.5303,9.9094 18.5183,9.9004 18.5003,9.8884 C18.4893,9.8814 18.4863,9.8664 18.4733,9.8604 L13.4283,7.6104 C13.4173,7.6054 13.4073,7.6124 13.3963,7.6094 C13.3653,7.6004 13.3373,7.6044 13.3043,7.6074 C13.2713,7.6104 13.2423,7.6114 13.2133,7.6274 C13.2033,7.6324 13.1923,7.6284 13.1823,7.6344 L8.5263,10.8944 C8.5153,10.9024 8.5153,10.9174 8.5063,10.9264 C8.4893,10.9424 8.4763,10.9554 8.4653,10.9754 C8.4593,10.9844 8.4463,10.9864 8.4413,10.9974 C8.4363,11.0074 8.4443,11.0184 8.4403,11.0294 C8.4333,11.0514 8.4323,11.0704 8.4323,11.0934 C8.4313,11.1064 8.4203,11.1154 8.4223,11.1294 L9.0693,16.4584 C9.0703,16.4674 9.0793,16.4724 9.0813,16.4824 C9.0873,16.5084 9.1033,16.5264 9.1173,16.5494 C9.1363,16.5814 9.1543,16.6084 9.1843,16.6284 C9.1933,16.6344 9.1943,16.6464 9.2043,16.6514 L13.9913,19.0824 C14.0263,19.1014 14.0653,19.1094 14.1023,19.1094 C14.1033,19.1094 14.1033,19.1104 14.1033,19.1104 L14.1043,19.1104 C14.1103,19.1104 14.1163,19.1104 14.1213,19.1094 C14.1293,19.1094 14.1343,19.1004 14.1413,19.0994 C14.1763,19.0944 14.2103,19.0864 14.2393,19.0674 C14.2423,19.0654 14.2453,19.0664 14.2473,19.0644 L18.9043,15.8034 C18.9133,15.7974 18.9123,15.7844 18.9213,15.7774 C18.9453,15.7554 18.9563,15.7294 18.9713,15.6984 C18.9853,15.6694 18.9983,15.6444 18.9993,15.6114 Z"></path>
            </g>
        </g>
    </g>
</svg>
