<!-- Generated by IcoMoon.io -->
<svg version="1.1" xmlns="http://www.w3.org/2000/svg" width="32" height="32" viewBox="0 0 32 32">
<title>behance</title>
<path d="M27.657 9.6c0.343 0 0.571-0.229 0.571-0.571v-1.6c0-0.343-0.229-0.571-0.571-0.571h-6.629c-0.343 0-0.571 0.229-0.571 0.571v1.6c0 0.343 0.229 0.571 0.571 0.571h6.629zM24.571 14.171c1.371 0 2.514 0.686 3.2 1.829h-6.4c0.686-1.143 1.829-1.829 3.2-1.829zM32 18.171c0-4.229-3.314-7.657-7.429-7.657s-7.429 3.429-7.429 7.657c0 4.229 3.314 7.657 7.429 7.657 2.514 0 4.8-1.257 6.171-3.429 0.229-0.229 0.343-0.571 0.457-0.8s0-0.457-0.229-0.457h-3.657c-0.114 0-0.114 0-0.229 0.114-0.686 0.686-1.486 1.029-2.514 1.029-1.829 0-3.314-1.371-3.657-3.2h10.4c0.457 0 0.686-0.343 0.686-0.686v-0.229zM9.943 21.943h-6.4v-5.143h6.4c1.371 0 2.514 1.143 2.514 2.514 0.114 1.486-1.029 2.629-2.514 2.629zM3.543 9.714h5.371c1.029 0 1.829 0.8 1.829 1.829s-0.8 1.829-1.829 1.829h-5.371v-3.657zM13.486 14.4c0.571-0.914 0.914-1.943 0.8-2.971 0-2.971-2.514-5.257-5.486-5.257h-8.114c-0.343 0-0.686 0.343-0.686 0.686v18.171c0 0.343 0.343 0.686 0.686 0.686h9.257c3.429 0 6.286-2.743 6.286-6.171-0.114-2.171-1.143-4-2.743-5.143z"></path>
</svg>
