<!-- Generated by IcoMoon.io -->
<svg version="1.1" xmlns="http://www.w3.org/2000/svg" width="32" height="32" viewBox="0 0 32 32">
<title>calendar</title>
<path d="M24.050 20.075v3.975h-3.975v-3.975h3.975zM24.050 18.087h-3.975c-1.193 0-1.988 0.795-1.988 1.988v3.975c0 1.193 0.795 1.988 1.988 1.988h3.975c1.193 0 1.988-0.795 1.988-1.988v-3.975c0-1.193-0.795-1.988-1.988-1.988v0zM30.012 4.174h-4.174v-2.186c0-1.193-0.795-1.988-1.988-1.988s-1.988 0.795-1.988 1.988v2.186h-11.925v-2.186c0-1.193-0.795-1.988-1.988-1.988s-1.988 0.795-1.988 1.988v2.186h-3.975c-1.193 0-1.988 0.795-1.988 1.988v23.851c0 1.193 0.795 1.988 1.988 1.988h27.826c1.193 0 1.988-0.795 1.988-1.988v-23.851c0.199-0.994-0.596-1.988-1.789-1.988zM30.012 30.012h-27.826v-17.689h27.826v17.689zM30.012 10.335h-27.826v-4.174h3.975c0 1.193 0.795 1.988 1.988 1.988s1.988-0.795 1.988-1.988v0h11.925c0 1.193 0.795 1.988 1.988 1.988s1.988-0.795 1.988-1.988v0h4.174v4.174z"></path>
</svg>
