<!-- Generated by IcoMoon.io -->
<svg version="1.1" xmlns="http://www.w3.org/2000/svg" width="32" height="32" viewBox="0 0 32 32">
<title>copy</title>
<path d="M30.222 3.556h-5.333v-1.778c0-1.067-0.711-1.778-1.778-1.778h-21.333c-1.067 0-1.778 0.711-1.778 1.778v24.889c0 1.067 0.711 1.778 1.778 1.778h5.333v1.778c0 1.067 0.711 1.778 1.778 1.778h21.333c1.067 0 1.778-0.711 1.778-1.778v-24.889c0-1.067-0.711-1.778-1.778-1.778zM1.778 26.667v-24.889h21.333v24.889h-21.333zM30.222 30.222h-21.333v-1.778h14.222c1.067 0 1.778-0.711 1.778-1.778v-21.333h5.333v24.889z"></path>
</svg>
