<!-- Generated by IcoMoon.io -->
<svg version="1.1" xmlns="http://www.w3.org/2000/svg" width="32" height="32" viewBox="0 0 32 32">
<title>expand-media</title>
<path d="M31.289 32h-30.578c-0.356 0-0.711-0.356-0.711-0.711v-30.4c0-0.533 0.356-0.889 0.711-0.889h30.4c0.533 0 0.889 0.356 0.889 0.889v30.4c0 0.356-0.356 0.711-0.711 0.711zM1.6 30.4h28.8v-28.8h-28.8v28.8zM24 13.156c-0.356 0-0.711-0.356-0.711-0.711v-3.556h-3.556c-0.356 0-0.711-0.356-0.711-0.711-0.178-0.533 0.178-1.067 0.533-1.067h4.444c0.533 0 0.889 0.533 0.889 0.889v4.444c0 0.356-0.356 0.711-0.889 0.711v0zM8 13.156c-0.533 0-0.889-0.356-0.889-0.711v-4.444c0-0.356 0.356-0.889 0.889-0.889h4.444c0.356 0 0.711 0.356 0.711 0.889 0 0.356-0.356 0.711-0.711 0.711h-3.556v3.556c-0.178 0.533-0.533 0.889-0.889 0.889v0zM12.444 24.889h-4.444c-0.533 0-0.889-0.356-0.889-0.889v-4.444c0-0.356 0.356-0.711 0.711-0.711s0.711 0.356 0.711 0.711v3.556h3.556c0.356 0 0.711 0.356 0.711 0.711s0 1.067-0.356 1.067v0zM24 24.889h-4.444c-0.356 0-0.711-0.356-0.711-0.711s0.356-0.711 0.711-0.711h3.556v-3.556c0-0.356 0.356-0.711 0.711-0.711s0.711 0.356 0.711 0.711v4.444c0.356 0.178 0 0.533-0.533 0.533v0z"></path>
</svg>
