<!-- Generated by IcoMoon.io -->
<svg version="1.1" xmlns="http://www.w3.org/2000/svg" width="32" height="32" viewBox="0 0 32 32">
<title>favorite</title>
<path d="M23.289 3.556v0c3.556 0 6.933 2.133 6.933 6.222 0 6.044-9.422 14.578-14.222 18.133-4.8-3.733-14.222-12.267-14.222-18.133 0-4.267 3.556-6.222 6.756-6.222 2.667 0 4.8 1.244 6.044 3.2 0.356 0.533 0.889 0.889 1.6 0.889 0 0 0 0 0 0 0.711 0 1.244-0.356 1.6-1.067 0.889-1.778 3.022-3.022 5.511-3.022zM23.289 1.778c-3.022 0-5.867 1.422-7.289 4.267-1.6-2.844-4.622-4.267-7.467-4.267-4.267 0-8.533 2.844-8.533 8 0 8.889 16 20.444 16 20.444s16-11.556 16-20.444c0-5.156-4.444-8-8.711-8v0z"></path>
</svg>
