<!-- Generated by IcoMoon.io -->
<svg version="1.1" xmlns="http://www.w3.org/2000/svg" width="32" height="32" viewBox="0 0 32 32">
<title>flickr</title>
<path d="M26 0c1.6 0 3 0.6 4.2 1.8s1.8 2.6 1.8 4.2v20c0 1.6-0.6 3-1.8 4.2s-2.6 1.8-4.2 1.8h-20c-1.6 0-3-0.6-4.2-1.8s-1.8-2.6-1.8-4.2v-20c0-1.6 0.6-3 1.8-4.2s2.6-1.8 4.2-1.8h20zM14.6 16c0-1.2-0.4-2.2-1.4-3.2s-1.8-1.2-3.2-1.2c-1.2 0-2.2 0.4-3 1.4-0.8 0.8-1.4 1.8-1.4 3.2 0 1.2 0.4 2.2 1.4 3.2 0.8 0.6 2 1 3 1 1.2 0 2.2-0.4 3.2-1.4 0.8-0.8 1.4-1.8 1.4-3zM26.4 16c0-1.2-0.4-2.2-1.4-3.2-0.8-0.8-2-1.2-3-1.2-1.2 0-2.2 0.4-3.2 1.4-0.8 0.8-1.4 1.8-1.4 3.2 0 1.2 0.4 2.2 1.4 3.2 0.8 0.8 1.8 1.4 3.2 1.4 1.2 0 2.2-0.4 3-1.4 0.8-1.2 1.4-2.2 1.4-3.4z"></path>
</svg>
