<!-- Generated by IcoMoon.io -->
<svg version="1.1" xmlns="http://www.w3.org/2000/svg" width="32" height="32" viewBox="0 0 32 32">
<title>googleplus</title>
<path d="M16.8 25.8c0-0.2 0-0.6-0.2-0.8 0-0.2 0-0.4-0.2-0.6 0-0.2-0.2-0.4-0.4-0.6s-0.4-0.4-0.4-0.6c-0.2-0.2-0.4-0.4-0.6-0.6s-0.4-0.4-0.6-0.6c-0.2 0-0.4-0.2-0.6-0.4s-0.4-0.4-0.6-0.4c0-0.2-0.4-0.2-0.6-0.4-0.4-0.2-0.6-0.4-0.6-0.4-0.2 0-0.6 0-1 0-0.8 0-1.4 0-2 0.2s-1.4 0.2-2 0.6c-0.8 0.2-1.4 0.4-1.8 0.8-0.2 0-0.8 0.4-1.2 1s-0.6 1.2-0.6 2c0 0.8 0.2 1.6 0.6 2.2 0.4 0.8 1 1.2 1.8 1.6s1.4 0.8 2.2 0.8c0.8 0.2 1.6 0.4 2.4 0.4s1.4 0 2.2-0.2c0.6-0.2 1.2-0.4 1.8-0.8s1-0.8 1.4-1.4c0.8-0.4 1-1 1-1.8v0zM14.6 9c0-0.8 0-1.6-0.2-2.4s-0.6-1.6-1-2.4c-0.4-0.8-1-1.4-1.6-2-0.8-0.6-1.6-0.8-2.4-0.8-1.2 0-2 0.4-2.8 1.4s-1 2-1 3.2c0 0.6 0 1.2 0.2 1.8s0.4 1.4 0.6 2c0.2 0.6 0.6 1.2 1 1.8s0.8 1 1.4 1.2c0.6 0.4 1.2 0.4 1.8 0.4 1.2 0 2.2-0.4 2.6-1.2 1-0.6 1.4-1.6 1.4-3v0zM12 0h8.4l-2.6 1.4h-2.6c0.8 0.6 1.6 1.4 2 2.4 0.6 1.2 0.8 2.2 0.8 3.4 0 1-0.2 1.8-0.4 2.6-0.4 0.8-0.6 1.4-1 1.8s-0.8 0.8-1.2 1.2c-0.4 0.4-0.8 0.8-1 1.2-0.4 0.4-0.4 0.8-0.4 1.4 0 0.4 0.2 0.6 0.4 1s0.4 0.6 0.8 1c0.4 0.2 0.8 0.6 1.2 1 0.4 0.2 0.8 0.6 1.2 1s0.8 0.8 1.2 1.2c0.4 0.4 0.6 1 0.8 1.6s0.4 1.2 0.4 2c0 2-0.8 3.8-2.6 5.4-2 1.6-4.6 2.4-8 2.4-0.8 0-1.6 0-2.2-0.2-0.8-0.2-1.6-0.4-2.4-0.6-0.8-0.4-1.4-0.6-2-1.2s-1-1-1.4-1.6c-1.2-0.8-1.4-1.6-1.4-2.4s0.2-1.6 0.8-2.6c0.4-0.8 1-1.4 1.8-2s1.8-1 2.8-1.4c1-0.2 2-0.6 3-0.6 1-0.2 1.8-0.2 2.8-0.2-0.8-1-1.2-2-1.2-2.8 0-0.2 0-0.4 0-0.4 0-0.2 0-0.2 0.2-0.4 0 0 0-0.2 0.2-0.4 0-0.2 0-0.2 0.2-0.4-0.6 0-1 0.2-1.4 0.2-2 0-3.6-0.6-5-1.8-1.4-1.8-2.2-3.4-2.2-5.4 0-1.6 0.6-3.2 2-4.8 1.2-1.4 2.6-2.4 4.4-2.8 1.2-0.2 2.4-0.2 3.6-0.2v0zM32 5v2.4h-5v5h-2.4v-5h-5v-2.4h5v-5h2.4v5h5z"></path>
</svg>
