<!-- Generated by IcoMoon.io -->
<svg version="1.1" xmlns="http://www.w3.org/2000/svg" width="32" height="32" viewBox="0 0 32 32">
<title>instagram</title>
<path d="M24.889 0h-17.778c-3.911 0-7.111 3.2-7.111 7.111v17.778c0 3.911 3.2 7.111 7.111 7.111h17.778c3.911 0 7.111-3.2 7.111-7.111v-17.778c0-3.911-3.2-7.111-7.111-7.111zM7.111 1.778h17.778c3.022 0 5.333 2.311 5.333 5.333v4.622h-9.956c-1.244-0.533-2.844-1.067-4.267-1.067s-3.022 0.533-4.267 1.067h-9.956v-4.622c0-3.022 2.311-5.333 5.333-5.333zM23.467 19.556c0 4.089-3.378 7.467-7.467 7.467s-7.467-3.2-7.467-7.467c0-2.667 1.422-5.156 3.733-6.4 1.067-0.533 2.311-1.067 3.733-1.067s2.667 0.356 3.733 1.067c2.311 1.422 3.733 3.733 3.733 6.4zM24.889 30.222h-17.778c-3.022 0-5.333-2.311-5.333-5.333v-11.733h8c-1.6 1.6-2.667 3.911-2.667 6.4 0 4.978 3.911 8.889 8.889 8.889s8.889-3.911 8.889-8.889c0-2.489-1.067-4.8-2.667-6.4h8v11.733c0 3.022-2.311 5.333-5.333 5.333zM16 15.822c2.133 0 3.911 1.778 3.911 3.911s-1.778 3.911-3.911 3.911-3.911-1.778-3.911-3.911 1.778-3.911 3.911-3.911zM16 14.4c-3.022 0-5.333 2.311-5.333 5.333s2.311 5.333 5.333 5.333 5.333-2.311 5.333-5.333-2.311-5.333-5.333-5.333v0zM25.244 4.978v3.733h-3.733v-3.733h3.733zM25.422 3.556h-4.089c-0.711 0-1.244 0.533-1.244 1.244v4.089c0 0.711 0.533 1.244 1.244 1.244h4.089c0.711 0 1.244-0.533 1.244-1.244v-4.089c0-0.711-0.533-1.244-1.244-1.244v0z"></path>
</svg>
