<svg width="24" height="24" viewBox="0 0 24 24" fill="none" xmlns="http://www.w3.org/2000/svg">
<path d="M15.682 13.7349C15.3147 13.7349 15.0158 13.4358 15.0158 13.0685C15.0158 12.7011 15.3147 12.4022 15.682 12.4022C16.0494 12.4022 16.3482 12.7011 16.3482 13.0685C16.3482 13.4358 16.0494 13.7349 15.682 13.7349ZM8.31797 13.7349C7.95058 13.7349 7.65176 13.4358 7.65176 13.0685C7.65176 12.7011 7.95058 12.4022 8.31797 12.4022C8.68535 12.4022 8.98419 12.7011 8.98419 13.0685C8.98419 13.4358 8.68535 13.7349 8.31797 13.7349ZM15.921 9.72159L17.2525 7.41546C17.3289 7.2829 17.2835 7.11359 17.1511 7.03705C17.0188 6.96072 16.8493 7.00612 16.7727 7.13846L15.4245 9.47378C14.3935 9.00326 13.2356 8.74119 12 8.74119C10.7644 8.74119 9.60651 9.00326 8.5755 9.47378L7.22729 7.13846C7.15074 7.00612 6.98121 6.96072 6.84888 7.03705C6.71654 7.11359 6.67092 7.2829 6.74747 7.41546L8.07903 9.72159C5.79257 10.9651 4.22877 13.2799 4 16.0146H20C19.771 13.2799 18.2072 10.9651 15.921 9.72159Z" fill="black"/>
</svg>
