<svg width="24" height="24" viewBox="0 0 24 24" fill="none" xmlns="http://www.w3.org/2000/svg">
<path d="M14.5277 5.75774C15.1213 5.01537 15.524 4.01859 15.4178 3C14.549 3.0432 13.4887 3.5732 12.8749 4.31615C12.3237 4.95237 11.8359 5.99089 11.9631 6.96678C12.9384 7.05138 13.9128 6.47928 14.5277 5.75774Z" fill="black"/>
<path d="M15.4067 7.15732C13.9903 7.07295 12.7861 7.96119 12.1097 7.96119C11.4329 7.96119 10.3971 7.19984 9.27682 7.22036C7.8187 7.24177 6.46573 8.06621 5.7258 9.37744C4.20388 12.0006 5.32417 15.8916 6.80415 18.0279C7.52287 19.0849 8.38904 20.2486 9.53036 20.2068C10.6087 20.1645 11.0314 19.5086 12.3422 19.5086C13.652 19.5086 14.0327 20.2068 15.1742 20.1857C16.358 20.1645 17.098 19.1282 17.8168 18.0703C18.6413 16.8654 18.9788 15.702 19 15.6382C18.9788 15.617 16.7174 14.7495 16.6964 12.1482C16.675 9.97004 18.4719 8.934 18.5564 8.86975C17.5417 7.36905 15.9563 7.19984 15.4067 7.15732Z" fill="black"/>
</svg>
