<svg width="24" height="24" viewBox="0 0 24 24" fill="none" xmlns="http://www.w3.org/2000/svg">
<path fill-rule="evenodd" clip-rule="evenodd" d="M3.56696 1.33333H20.3289C20.9351 1.33333 21.5165 1.57414 21.9451 2.0028C22.3738 2.43145 22.6146 3.01283 22.6146 3.61904V20.3809C22.6146 20.9872 22.3738 21.5685 21.9451 21.9972C21.5165 22.4258 20.9351 22.6667 20.3289 22.6667H3.56696C2.96076 22.6667 2.37937 22.4258 1.95072 21.9972C1.52207 21.5685 1.28125 20.9872 1.28125 20.3809V3.61904C1.28125 3.01283 1.52207 2.43145 1.95072 2.0028C2.37937 1.57414 2.96076 1.33333 3.56696 1.33333ZM15.4178 3C15.524 4.01859 15.1213 5.01537 14.5277 5.75774C13.9128 6.47928 12.9384 7.05138 11.9631 6.96678C11.8359 5.99089 12.3237 4.95237 12.8749 4.31615C13.4887 3.5732 14.549 3.0432 15.4178 3ZM13.1287 7.66411C13.7622 7.41451 14.5452 7.10601 15.4067 7.15732C15.9563 7.19984 17.5417 7.36905 18.5564 8.86975C18.5513 8.87361 18.5401 8.88095 18.5235 8.89182C18.263 9.0623 16.6763 10.1006 16.6964 12.1482C16.7161 14.5877 18.7062 15.5024 18.9711 15.6242C18.9887 15.6322 18.9987 15.6368 19 15.6382L18.9941 15.6569C18.9424 15.823 18.5984 16.928 17.8168 18.0703C17.098 19.1282 16.358 20.1645 15.1742 20.1857C14.617 20.196 14.2411 20.0349 13.8499 19.8673C13.4397 19.6915 13.0127 19.5086 12.3422 19.5086C11.6389 19.5086 11.1913 19.6974 10.7608 19.879C10.3891 20.0358 10.0301 20.1872 9.53036 20.2068C8.38904 20.2486 7.52287 19.0849 6.80415 18.0279C5.32417 15.8916 4.20388 12.0006 5.7258 9.37744C6.46573 8.06621 7.8187 7.24177 9.27682 7.22036C9.91341 7.2087 10.5227 7.4495 11.0544 7.65961C11.4583 7.81926 11.8175 7.96119 12.1097 7.96119C12.3746 7.96119 12.7206 7.82487 13.1287 7.66411Z" fill="black"/>
</svg>
