<svg width="24" height="24" viewBox="0 0 24 24" fill="none" xmlns="http://www.w3.org/2000/svg">
<path fill-rule="evenodd" clip-rule="evenodd" d="M3.56696 1.33333H20.3289C20.9351 1.33333 21.5165 1.57414 21.9451 2.0028C22.3738 2.43145 22.6146 3.01283 22.6146 3.61904V20.3809C22.6146 20.9872 22.3738 21.5685 21.9451 21.9972C21.5165 22.4258 20.9351 22.6667 20.3289 22.6667H3.56696C2.96076 22.6667 2.37937 22.4258 1.95072 21.9972C1.52207 21.5685 1.28125 20.9872 1.28125 20.3809V3.61904C1.28125 3.01283 1.52207 2.43145 1.95072 2.0028C2.37937 1.57414 2.96076 1.33333 3.56696 1.33333ZM15.0158 13.0685C15.0158 13.4358 15.3147 13.7349 15.682 13.7349C16.0494 13.7349 16.3482 13.4358 16.3482 13.0685C16.3482 12.7011 16.0494 12.4022 15.682 12.4022C15.3147 12.4022 15.0158 12.7011 15.0158 13.0685ZM7.65176 13.0685C7.65176 13.4358 7.95058 13.7349 8.31797 13.7349C8.68535 13.7349 8.98419 13.4358 8.98419 13.0685C8.98419 12.7011 8.68535 12.4022 8.31797 12.4022C7.95058 12.4022 7.65176 12.7011 7.65176 13.0685ZM17.2525 7.41546L15.921 9.72159C18.2072 10.9651 19.771 13.2799 20 16.0146H4C4.22877 13.2799 5.79257 10.9651 8.07903 9.72159L6.74747 7.41546C6.67092 7.2829 6.71654 7.11359 6.84888 7.03705C6.98121 6.96072 7.15074 7.00612 7.22729 7.13846L8.5755 9.47378C9.60651 9.00326 10.7644 8.74119 12 8.74119C13.2356 8.74119 14.3935 9.00326 15.4245 9.47378L16.7727 7.13846C16.8493 7.00612 17.0188 6.96072 17.1511 7.03705C17.2835 7.11359 17.3289 7.2829 17.2525 7.41546Z" fill="black"/>
</svg>
