<svg xmlns="http://www.w3.org/2000/svg" viewBox="0 0 24 24"><title>it-behance</title><g><path d="M7.83,5.75a8,8,0,0,1,1.6.15,3.38,3.38,0,0,1,1.24.51,2.34,2.34,0,0,1,.8.93,3.29,3.29,0,0,1,.28,1.45,2.68,2.68,0,0,1-.42,1.54,3.05,3.05,0,0,1-1.25,1,2.92,2.92,0,0,1,1.68,1.15,3.36,3.36,0,0,1,.56,2A3.39,3.39,0,0,1,12,16.07a3.08,3.08,0,0,1-1,1.11,4.27,4.27,0,0,1-1.4.64A6,6,0,0,1,8,18H2V5.75Zm-.35,5a2,2,0,0,0,1.19-.35,1.28,1.28,0,0,0,.46-1.11A1.47,1.47,0,0,0,9,8.54a1.16,1.16,0,0,0-.42-.43A1.8,1.8,0,0,0,8,7.9a3.26,3.26,0,0,0-.7-.06H4.74v2.87Zm.15,5.22a3.61,3.61,0,0,0,.75-.07A2,2,0,0,0,9,15.6a1.39,1.39,0,0,0,.44-.49,1.73,1.73,0,0,0,.16-.8A1.64,1.64,0,0,0,9.09,13a2.33,2.33,0,0,0-1.41-.4H4.74v3.38Z"/><path d="M16.17,15.89a2.18,2.18,0,0,0,1.58.54A2.24,2.24,0,0,0,19,16.06a1.6,1.6,0,0,0,.65-.79h2.15a4.06,4.06,0,0,1-1.58,2.29,4.64,4.64,0,0,1-2.58.69,5.23,5.23,0,0,1-1.9-.33,4,4,0,0,1-2.33-2.44,5.25,5.25,0,0,1-.32-1.89,5.12,5.12,0,0,1,.33-1.86,4.14,4.14,0,0,1,.93-1.49,4.48,4.48,0,0,1,1.44-1,4.59,4.59,0,0,1,1.85-.36,4.31,4.31,0,0,1,2,.44A4,4,0,0,1,21,10.5a4.68,4.68,0,0,1,.78,1.69,6.18,6.18,0,0,1,.17,2H15.57A2.5,2.5,0,0,0,16.17,15.89ZM19,11.22a1.83,1.83,0,0,0-1.38-.49,2,2,0,0,0-1,.2,1.8,1.8,0,0,0-.62.49,1.62,1.62,0,0,0-.33.62,2.87,2.87,0,0,0-.11.59h4A2.4,2.4,0,0,0,19,11.22Z"/><rect x="15.07" y="6.57" width="4.98" height="1.21"/></g></svg>
