<svg xmlns="http://www.w3.org/2000/svg" width="24" height="24" viewBox="0 0 568 501">
  <path
    d="M 148.9 78 C 203.3 118.7 261.9 201.2 283.3 245.4 c 21.5 -44.2 80 -126.7 134.4 -167.3 C 457 48.8 520.6 26.1 520.6 98.3 c 0 14.4 -8.3 121.2 -13.2 138.5 c -16.9 60.2 -78.7 75.7 -133.6 66.4 C 469.9 319.3 494.2 373.2 441.5 427.1 c -100.2 102.3 -144 -25.7 -155.2 -58.4 c -2.1 -6 -3 -8.8 -3 -6.4 c 0 -2.4 -1 0.4 -3 6.4 c -11.2 32.8 -55 160.7 -155.2 58.4 c -52.7 -53.9 -28.4 -107.7 67.6 -124 c -54.9 9.3 -116.6 -6 -133.6 -66.4 C 54.3 219.5 46.1 112.7 46.1 98.3 C 46.1 26.1 109.6 48.7 148.9 78 Z">
  </path>
</svg>
