<svg xmlns="http://www.w3.org/2000/svg" width="24" height="24" viewBox="0 0 568 501">
  <path
    d="M 146.1 72.2 C 203.3 114.6 264.8 200.6 287.3 246.7 c 22.6 -46.1 84.1 -132.1 141.3 -174.5 C 469.9 41.7 536.7 18 536.7 93.3 c 0 15 -8.7 126.4 -13.9 144.4 c -17.8 62.8 -82.7 78.9 -140.4 69.2 C 483.4 323.8 509 380 453.6 436.2 c -105.3 106.7 -151.3 -26.8 -163.1 -60.9 c -2.2 -6.3 -3.2 -9.2 -3.2 -6.7 c 0 -2.5 -1 0.4 -3.2 6.7 c -11.8 34.2 -57.8 167.6 -163.1 60.9 c -55.4 -56.2 -29.8 -112.3 71.1 -129.3 c -57.7 9.7 -122.6 -6.3 -140.4 -69.2 C 46.7 219.7 38 108.3 38 93.3 C 38 18 104.8 41.6 146.1 72.2 Z">
  </path>
</svg>
