<svg xmlns="http://www.w3.org/2000/svg" width="24" height="24"
     viewBox="0 0 24 24">
  <title>Comment</title>
  <g>
    <path
      d="M19,3H5A2,2,0,0,0,3,5V15a2,2,0,0,0,2,2H7v5.4l1.7-1.7L12.4,17H19a2,2,0,0,0,2-2V5A2,2,0,0,0,19,3Zm1,12a.9.9,0,0,1-1,1H12L8,20V16H5a.9.9,0,0,1-1-1V5A.9.9,0,0,1,5,4H19a.9.9,0,0,1,1,1ZM9,10a.9.9,0,0,1-1,1,.9.9,0,0,1-1-1A.9.9,0,0,1,8,9,.9.9,0,0,1,9,10Zm4,0a1,1,0,0,1-2,0,1,1,0,0,1,2,0Zm4,0a1,1,0,0,1-2,0,1,1,0,0,1,2,0Z"
    />
  </g>
  <g>
    <rect width="24" height="24" fill="none"/>
  </g>
</svg>
