<svg xmlns="http://www.w3.org/2000/svg" width="24" height="24"
     viewBox="0 0 24 24">
  <title>Camera</title>
  <g>
    <path
      d="M20.5,20H3.5A1.5,1.5,0,0,1,2,18.5V8.5A1.5,1.5,0,0,1,3.5,7H7.8L9.3,4.7A1.5,1.5,0,0,1,10.5,4h3a1.5,1.5,0,0,1,1.2.7L16.2,7h4.3A1.5,1.5,0,0,1,22,8.5v10A1.5,1.5,0,0,1,20.5,20ZM3.5,8a.5.5,0,0,0-.5.5v10a.5.5,0,0,0,.5.5h17a.5.5,0,0,0,.5-.5V8.5a.5.5,0,0,0-.5-.5H15.7L13.9,5.2,13.5,5h-3l-.4.2L8.3,8ZM12,18a5,5,0,1,1,5-5A5,5,0,0,1,12,18Zm0-9a4,4,0,1,0,4,4A4,4,0,0,0,12,9ZM7,5H4V6H7Z"
    />
  </g>
  <g>
    <rect width="24" height="24" fill="none"/>
  </g>
</svg>
