<svg xmlns="http://www.w3.org/2000/svg" viewBox="0 0 24 24"><title>it-code-circle</title><g><path d="M12,3a9,9,0,1,1-9,9,9,9,0,0,1,9-9m0-1A10,10,0,1,0,22,12,10,10,0,0,0,12,2Z"/><rect x="7" y="11.5" width="10" height="1" rx="0.5" transform="translate(-2.19 21.31) rotate(-78.28)"/><path d="M8,12l1.78-1.78a.5.5,0,0,0,0-.7.5.5,0,0,0-.71,0L7.29,11.29a1,1,0,0,0,0,1.42l1.78,1.77a.5.5,0,0,0,.71,0,.5.5,0,0,0,0-.7Z"/><path d="M16.71,11.29,14.93,9.52a.5.5,0,0,0-.71,0,.5.5,0,0,0,0,.7L16,12l-1.78,1.78a.5.5,0,0,0,0,.7.5.5,0,0,0,.71,0l1.78-1.77A1,1,0,0,0,16.71,11.29Z"/></g></svg>
