<?xml version="1.0" encoding="utf-8"?>
<!-- Generator: Adobe Illustrator 25.4.1, SVG Export Plug-In . SVG Version: 6.00 Build 0)  -->
<svg version="1.1" id="Livello_1" xmlns="http://www.w3.org/2000/svg" xmlns:xlink="http://www.w3.org/1999/xlink" x="0px" y="0px"
	 viewBox="0 0 24 24" style="enable-background:new 0 0 24 24;" xml:space="preserve">
<g>
	<path d="M11,22c-1.6,0.1-2.9-1.2-3-2.8c0-0.1,0-0.1,0-0.2V6c0-2.2,1.8-4,4-4s4,1.8,4,4v10h-1V6c0-1.7-1.3-3-3-3S9,4.3,9,6v13
		c0,1.1,0.9,2,2,2s2-0.9,2-2V8c0-0.6-0.4-1-1-1s-1,0.4-1,1v8h-1V8c0-1.1,0.9-2,2-2s2,0.9,2,2v11c0.1,1.6-1.2,2.9-2.8,3
		C11.1,22,11.1,22,11,22z"/>
</g>
</svg>
