<svg xmlns="http://www.w3.org/2000/svg" viewBox="0 0 24 24"><title>it-camera</title><g><path d="M18.52,6.49h-.95a.5.5,0,0,1-.48-.37l-.32-1.24a.5.5,0,0,0-.49-.37H10.11a.5.5,0,0,0-.48.37L9.31,6.12a.5.5,0,0,1-.48.37H7.52a.76.76,0,0,0-.76-.76H5.29a.77.77,0,0,0-.77.76.66.66,0,0,0,0,.15A3.5,3.5,0,0,0,2,10v6a3.49,3.49,0,0,0,3.48,3.5h13A3.49,3.49,0,0,0,22,16V10A3.5,3.5,0,0,0,18.52,6.49ZM21,16a2.49,2.49,0,0,1-2.48,2.5h-13A2.49,2.49,0,0,1,3,16V13H9a4.25,4.25,0,0,0,8.44,0H21ZM10,12.47a3.28,3.28,0,0,1,6.55,0v0a3.28,3.28,0,0,1-6.55,0ZM21,12H17.48A4.25,4.25,0,0,0,9,12H3V10A2.5,2.5,0,0,1,5.48,7.49H8.83a1.51,1.51,0,0,0,1.45-1.12l.22-.86h5.4l.22.86a1.5,1.5,0,0,0,1.45,1.12h.95A2.5,2.5,0,0,1,21,10Z"/></g></svg>
