<svg xmlns="http://www.w3.org/2000/svg" width="24" height="24"
     viewBox="0 0 24 24">
  <title>Copy</title>
  <g>
    <path
      d="M19.5,4H18V3.4A1.5,1.5,0,0,0,16.5,2H5.5A1.5,1.5,0,0,0,4,3.4V18.6A1.5,1.5,0,0,0,5.5,20H7v.6A1.5,1.5,0,0,0,8.5,22h11A1.5,1.5,0,0,0,21,20.6V5.4A1.5,1.5,0,0,0,19.5,4ZM5,18.6V3.4A.5.5,0,0,1,5.5,3h11a.5.5,0,0,1,.5.4V18.6a.5.5,0,0,1-.5.4H5.5A.5.5,0,0,1,5,18.6Zm15,2a.5.5,0,0,1-.5.4H8.5a.5.5,0,0,1-.5-.4V20h8.5A1.5,1.5,0,0,0,18,18.6V5h1.5a.5.5,0,0,1,.5.4Z"
    />
  </g>
  <g>
    <rect width="24" height="24" fill="none"/>
  </g>
</svg>
