<?xml version="1.0" encoding="utf-8"?>
<!-- Generator: Adobe Illustrator 25.4.1, SVG Export Plug-In . SVG Version: 6.00 Build 0)  -->
<svg version="1.1" id="Livello_1" xmlns="http://www.w3.org/2000/svg" xmlns:xlink="http://www.w3.org/1999/xlink" x="0px" y="0px"
	 viewBox="0 0 24 24" style="enable-background:new 0 0 24 24;" xml:space="preserve">
<g>
	<path d="M20.5,20h-17C2.7,20,2,19.3,2,18.5v-10C2,7.7,2.7,7,3.5,7h4.3l1.5-2.3C9.6,4.3,10,4,10.5,4h3c0.5,0,0.9,0.3,1.2,0.7L16.2,7
		h4.3C21.3,7,22,7.7,22,8.5v10C22,19.3,21.3,20,20.5,20z M3.5,8C3.2,8,3,8.2,3,8.5v10C3,18.8,3.2,19,3.5,19h17
		c0.3,0,0.5-0.2,0.5-0.5v-10C21,8.2,20.8,8,20.5,8h-4.8l-1.8-2.8L13.5,5h-3l-0.4,0.2L8.3,8H3.5z M12,18c-2.8,0-5-2.2-5-5s2.2-5,5-5
		s5,2.2,5,5S14.8,18,12,18z M12,9c-2.2,0-4,1.8-4,4s1.8,4,4,4s4-1.8,4-4S14.2,9,12,9z M7,5H4v1h3V5z"/>
</g>
</svg>
