<?xml version="1.0" encoding="utf-8"?>
<!-- Generator: Adobe Illustrator 25.4.1, SVG Export Plug-In . SVG Version: 6.00 Build 0)  -->
<svg version="1.1" id="Livello_1" xmlns="http://www.w3.org/2000/svg" xmlns:xlink="http://www.w3.org/1999/xlink" x="0px" y="0px"
	 viewBox="0 0 24 24" style="enable-background:new 0 0 24 24;" xml:space="preserve">
<g>
	<path d="M16.3,8.3L12.6,12l3.7,3.6l-0.7,0.7l-3.7-3.6l-3.6,3.6l-0.7-0.7l3.6-3.6L7.6,8.3l0.7-0.7l3.6,3.7l3.7-3.7L16.3,8.3z M22,12
		c0,5.5-4.5,10-10,10S2,17.5,2,12S6.5,2,12,2S22,6.5,22,12z M21,12c0-5-4-9-9-9s-9,4-9,9s4,9,9,9S21,17,21,12z"/>
</g>
</svg>
