<svg width="24" height="24" viewBox="0 0 6.3500001 6.3500001" xmlns="http://www.w3.org/2000/svg">
  <path
    d="M 4.2150772,1.8364729 H 3.9523459 L 3.7822188,4.2074042 h 0.26035 z M 2.9376688,1.8280063 H 2.6752021 l 0.1703917,2.3709313 h 0.26035 z M 4.9911001,2.5273 H 1.8896542 V 2.7884438 H 4.9791939 Z M 4.8122418,3.2631063 H 2.0862396 v 0.26035 H 4.8003355 Z M 1.6684625,1.9809354 H 5.014648 L 4.5817897,3.7266563 c -0.0127,0.0508 -0.032544,0.096837 -0.059531,0.1391709 -0.026987,0.041539 -0.060325,0.077523 -0.09869,0.10795 -0.038365,0.030427 -0.080963,0.05371 -0.1277937,0.070644 -0.04736,0.016933 -0.096308,0.0254 -0.1476375,0.0254 H 2.7426709 c -0.049742,0 -0.097896,-0.00794 -0.1441979,-0.024077 C 2.551906,4.0296042 2.509838,4.0068502 2.4722667,3.9780112 2.4346957,3.9491712 2.4021517,3.9145112 2.3738417,3.8735008 2.3460605,3.8327542 2.325423,3.7883042 2.312723,3.7393563 L 1.5351125,0.8598958 H 0.78713544 V 1.120775 H 1.3342938 l 0.7244291,2.6886959 c 0.020373,0.0762 0.052387,0.14605 0.096573,0.2100792 0.043921,0.064294 0.095515,0.1193271 0.1558396,0.1653646 0.060325,0.045773 0.1277937,0.081756 0.2008187,0.1071562 0.073819,0.026194 0.1505479,0.038894 0.2307167,0.038894 h 1.4054667 c 0.082285,0 0.1611312,-0.013494 0.2362729,-0.040481 0.074612,-0.026723 0.1426104,-0.064029 0.2029354,-0.1119187 0.060325,-0.048154 0.1121834,-0.1053042 0.155575,-0.1717146 0.043921,-0.066146 0.075142,-0.1389063 0.094192,-0.217223 L 5.3488168,1.7200563 H 1.6684625 Z m 2.7352626,2.8297189 c 0.036777,0 0.071702,0.00714 0.1029229,0.020373 0.03175,0.013494 0.059531,0.032544 0.083608,0.055827 0.024077,0.024077 0.042598,0.051594 0.056092,0.083344 0.013494,0.03175 0.020638,0.064823 0.020638,0.1008063 0,0.035983 -0.00714,0.06985 -0.020638,0.1016 -0.013494,0.032544 -0.032015,0.06006 -0.056092,0.084137 -0.024077,0.023283 -0.051858,0.042333 -0.083608,0.055563 -0.032015,0.013494 -0.066675,0.020637 -0.1029229,0.020637 -0.035454,0 -0.069585,-0.00714 -0.1016,-0.020637 -0.031221,-0.013229 -0.059531,-0.032279 -0.082815,-0.055563 -0.024342,-0.024077 -0.042598,-0.051594 -0.056092,-0.084137 -0.014288,-0.03175 -0.020638,-0.065617 -0.020638,-0.1016 0,-0.035983 0.00635,-0.06985 0.020638,-0.1016 0.013494,-0.03175 0.03175,-0.059267 0.056092,-0.08255 0.023283,-0.023283 0.051594,-0.042333 0.082815,-0.055827 0.032015,-0.013229 0.066146,-0.020373 0.1016,-0.020373 z m 0,-0.26035 c -0.071702,0 -0.1397,0.013494 -0.2037292,0.04101 -0.063235,0.027517 -0.1185333,0.064029 -0.1658937,0.1113896 -0.047625,0.046567 -0.085196,0.1016 -0.1129771,0.1651 -0.026988,0.0635 -0.04101,0.1312333 -0.04101,0.2032 0,0.071967 0.014023,0.1397 0.04101,0.2032 0.027781,0.0635 0.065352,0.1193271 0.1129771,0.1666875 0.04736,0.046567 0.1026583,0.083873 0.1658937,0.1113896 0.064029,0.027517 0.1320271,0.04101 0.2037292,0.04101 0.073025,0 0.1410229,-0.013494 0.2050521,-0.04101 0.063765,-0.027517 0.1190625,-0.064823 0.1666875,-0.1113896 0.047625,-0.04736 0.085196,-0.1031875 0.1121833,-0.1666875 0.027517,-0.0635 0.041804,-0.1312334 0.041804,-0.2032 0,-0.072496 -0.014288,-0.1404938 -0.041804,-0.2032 C 4.8606605,4.8043043 4.8230897,4.7492709 4.7746709,4.7019105 4.7273105,4.6548147 4.671748,4.6180376 4.6079834,4.5905209 4.544748,4.563798 4.4767501,4.5503043 4.4037251,4.5503043 Z m -1.9163771,0.26035 c 0.036777,0 0.070908,0.00714 0.1026583,0.020373 0.032015,0.013494 0.059796,0.032544 0.083873,0.055827 0.023283,0.024077 0.042598,0.051594 0.056092,0.083344 0.013494,0.03175 0.020373,0.064823 0.020373,0.1008063 0,0.035983 -0.00688,0.06985 -0.020373,0.1016 -0.013494,0.032544 -0.032808,0.06006 -0.056092,0.084137 -0.024077,0.023283 -0.051858,0.042333 -0.083873,0.055563 -0.032544,0.013494 -0.066675,0.020637 -0.1026583,0.020637 -0.035719,0 -0.069586,-0.00714 -0.1016,-0.020637 C 2.353733,5.2990756 2.326217,5.2800256 2.302669,5.2567416 2.278592,5.2326646 2.260071,5.2051476 2.246048,5.1726046 c -0.013494,-0.03175 -0.019844,-0.065617 -0.019844,-0.1016 0,-0.035983 0.00635,-0.06985 0.019844,-0.1016 0.014023,-0.03175 0.032544,-0.059267 0.056621,-0.08255 0.023548,-0.023283 0.051065,-0.042333 0.083079,-0.055827 0.032014,-0.013229 0.065881,-0.020373 0.1016,-0.020373 z m 0,-0.26035 c -0.072496,0 -0.1399646,0.013494 -0.2037292,0.04101 -0.063235,0.027517 -0.1193271,0.064029 -0.1661583,0.1113896 -0.047625,0.046567 -0.084931,0.1016 -0.1127126,0.1651 -0.027781,0.0635 -0.041275,0.1312333 -0.041275,0.2032 0,0.071967 0.013494,0.1397 0.041275,0.2032 0.027781,0.0635 0.065088,0.1193271 0.1127126,0.1666875 0.046831,0.046567 0.1029229,0.083873 0.1661583,0.1113896 0.063765,0.027517 0.1312333,0.04101 0.2037292,0.04101 0.072231,0 0.1410229,-0.013494 0.2047875,-0.04101 0.064029,-0.027517 0.1193271,-0.064823 0.1669521,-0.1113896 0.047625,-0.04736 0.084402,-0.1031875 0.1121833,-0.1666875 0.027517,-0.0635 0.04101,-0.1312334 0.04101,-0.2032 0,-0.072496 -0.013494,-0.1404938 -0.04101,-0.2032 C 2.9434896,4.8043043 2.9059188,4.7492709 2.8582938,4.7019105 2.8106688,4.6548147 2.7553709,4.6180376 2.6916063,4.5905209 2.6275771,4.563798 2.5595792,4.5503043 2.487348,4.5503043 Z"
    clip-rule="evenodd" fill-rule="nonzero" />
</svg>
