<svg xmlns="http://www.w3.org/2000/svg" viewBox="0 0 24 24"><title>it-download</title><g><path d="M20.54,15.5h-.13a.5.5,0,0,0-.5.5v.5h0V19a1.07,1.07,0,0,1-1.13,1H5.27a1.07,1.07,0,0,1-1.13-1V16a.5.5,0,0,0-.5-.5H3.51A.5.5,0,0,0,3,16v3a2.14,2.14,0,0,0,2.26,2H18.78A2.14,2.14,0,0,0,21,19V16.5h0V16A.5.5,0,0,0,20.54,15.5Z"/><path d="M16.07,12.49a.75.75,0,0,0-1.06,0l-2.26,2.26v-11a.75.75,0,0,0-1.5,0v11L9,12.49a.75.75,0,0,0-1.06,0,.77.77,0,0,0,0,1.07l3,3a1.49,1.49,0,0,0,2.12,0l3-3A.77.77,0,0,0,16.07,12.49Z"/></g></svg>
