<svg viewBox="0 0 24 24" version="1.1" xmlns="http://www.w3.org/2000/svg">
  <title>Logo Designers Italia</title>
  <g transform="translate(1.000000, 4.000000)">
    <path d="M7.6626506,16.675307 L7.6626506,3.64120055 L11.3012048,3.64120055 L11.3012048,16.6984993 L7.6626506,16.6984993 L7.6626506,16.675307 Z M21.9518072,6.60982265 L18.626506,6.60982265 L18.626506,11.9672578 C18.626506,12.5006821 18.6506024,12.8485675 18.6746988,13.0804911 C18.6987952,13.2892224 18.7951807,13.4747613 18.9638554,13.6371078 C19.1325301,13.7994543 19.3975904,13.8690314 19.7590361,13.8690314 L21.8313253,13.8226467 L22,16.6057299 C20.7951807,16.8608458 19.8554217,17 19.2289157,17 C17.5903614,17 16.4819277,16.6521146 15.9036145,15.9331514 C15.3012048,15.2373806 15.0120482,13.9386085 15.0120482,12.0368349 L15.0120482,0 L18.6506024,0 L18.6506024,3.61800819 L21.9759036,3.61800819 L21.9759036,6.60982265 L21.9518072,6.60982265 Z M2.19277108,7.60709413 C1.56626506,7.60709413 1.03614458,7.39836289 0.626506024,6.98090041 C0.21686747,6.56343793 0,6.053206 0,5.45020464 C0,4.84720327 0.21686747,4.33697135 0.602409639,3.91950887 C1.01204819,3.50204638 1.54216867,3.3165075 2.1686747,3.3165075 C2.79518072,3.3165075 3.3253012,3.52523874 3.73493976,3.94270123 C4.14457831,4.36016371 4.3373494,4.87039563 4.3373494,5.49658936 C4.3373494,6.12278308 4.14457831,6.60982265 3.73493976,7.02728513 C3.34939759,7.39836289 2.84337349,7.60709413 2.19277108,7.60709413 Z"></path>
  </g>
</svg>
