<?xml version="1.0" encoding="utf-8"?>
<!-- Generator: Adobe Illustrator 25.4.1, SVG Export Plug-In . SVG Version: 6.00 Build 0)  -->
<svg version="1.1" id="Livello_1" xmlns="http://www.w3.org/2000/svg" xmlns:xlink="http://www.w3.org/1999/xlink" x="0px" y="0px"
	 viewBox="0 0 24 24" style="enable-background:new 0 0 24 24;" xml:space="preserve">
<g>
	<path d="M8.7,20.2v-13h3.6v13.1L8.7,20.2L8.7,20.2z M23,10.1h-3.3v5.4c0,0.5,0,0.9,0,1.1s0.1,0.4,0.3,0.6s0.4,0.2,0.8,0.2h2.1
		l0.2,2.8c-1.2,0.3-2.1,0.4-2.8,0.4c-1.6,0-2.7-0.3-3.3-1.1c-0.6-0.7-0.9-2-0.9-3.9v-12h3.6v3.6H23V10.1L23,10.1z M3.2,11.1
		c-0.6,0-1.2-0.2-1.6-0.6C1.2,10.1,1,9.6,1,9s0.2-1.1,0.6-1.5C2,7,2.5,6.8,3.2,6.8S4.3,7,4.7,7.4c0.4,0.5,0.6,1,0.6,1.6
		s-0.2,1.1-0.6,1.5S3.8,11.1,3.2,11.1z"/>
</g>
</svg>
