<svg xmlns="http://www.w3.org/2000/svg" width="24" height="24"
     viewBox="0 0 24 24">
  <title>Exchange Circle</title>
  <g>
    <path
      d="M12,2A10,10,0,1,0,22,12,10,10,0,0,0,12,2Zm0,19a9,9,0,1,1,9-9A9,9,0,0,1,12,21Zm5.1-8.9.8.8-4.3,4.3a1.5,1.5,0,0,1-1.1.4h0a1.5,1.5,0,0,1-1.1-.4L9,14.7V17H8V13h4v1H9.7l2.4,2.5h.8Zm-6-4.6L6.9,11.9l-.8-.8,4.3-4.3a1.5,1.5,0,0,1,1.1-.4h0a1.5,1.5,0,0,1,1.1.4L15,9.3V7h1v4H12V10h2.3L11.9,7.5h-.8Z"
    />
  </g>
  <g>
    <rect width="24" height="24" fill="none"/>
  </g>
</svg>
