<svg xmlns="http://www.w3.org/2000/svg" viewBox="0 0 24 24">
    <title>it-exchange-circle</title>
    <g>
        <path d="M12,3a9,9,0,0,1,6.36,15.36A9,9,0,0,1,5.64,5.62,8.93,8.93,0,0,1,12,3m0-1a10,10,0,1,0,7.07,2.93A9.93,9.93,0,0,0,12,2Z"/>
        <path d="M17,12.59a.5.5,0,0,0-.5.5v1.39a.5.5,0,0,1-.5.5H8.49l1.29-1.29a.5.5,0,0,0,0-.71.5.5,0,0,0-.7,0L7.31,14.75a1,1,0,0,0,0,1.42l1.77,1.76a.49.49,0,0,0,.7-.7L8.54,16H16a1.5,1.5,0,0,0,1.5-1.5V13.09A.5.5,0,0,0,17,12.59Z"/>
        <path d="M17.19,7.83,15.42,6.06a.5.5,0,0,0-.71.71L16,8H8.53A1.5,1.5,0,0,0,7,9.51v1.4a.5.5,0,1,0,1,0V9.51a.51.51,0,0,1,.5-.5H16L14.71,10.3a.51.51,0,0,0,0,.71.5.5,0,0,0,.71,0l1.77-1.77A1,1,0,0,0,17.19,7.83Z"/>
    </g>
</svg>
