<?xml version="1.0" encoding="utf-8"?>
<!-- Generator: Adobe Illustrator 25.4.1, SVG Export Plug-In . SVG Version: 6.00 Build 0)  -->
<svg version="1.1" id="Livello_1" xmlns="http://www.w3.org/2000/svg" xmlns:xlink="http://www.w3.org/1999/xlink" x="0px" y="0px"
	 viewBox="0 0 24 24" style="enable-background:new 0 0 24 24;" xml:space="preserve">
<g>
	<path d="M21,3v6h-1V4.7l-7.6,7.7l-0.8-0.8L19.3,4H15V3H21z M17,19.5c0,0.3-0.2,0.5-0.5,0.5h-12C4.2,20,4,19.8,4,19.5v-12
		C4,7.2,4.2,7,4.5,7H12V6H4.5C3.7,6,3,6.7,3,7.5v12C3,20.3,3.7,21,4.5,21h12c0.8,0,1.5-0.7,1.5-1.5V12h-1V19.5z"/>
</g>
</svg>
