<?xml version="1.0" encoding="utf-8"?>
<!-- Generator: Adobe Illustrator 25.4.1, SVG Export Plug-In . SVG Version: 6.00 Build 0)  -->
<svg version="1.1" id="Livello_1" xmlns="http://www.w3.org/2000/svg" xmlns:xlink="http://www.w3.org/1999/xlink" x="0px" y="0px"
	 viewBox="0 0 24 24" style="enable-background:new 0 0 24 24;" xml:space="preserve">
<g>
	<path d="M12,2C6.5,2,2,6.5,2,12s4.5,10,10,10s10-4.5,10-10S17.5,2,12,2z M12,21c-5,0-9-4-9-9s4-9,9-9s9,4,9,9S17,21,12,21L12,21z
		 M17.1,12.1l0.8,0.8l-4.3,4.3c-0.3,0.3-0.7,0.4-1.1,0.4l0,0c-0.4,0-0.8-0.1-1.1-0.4L9,14.7V17H8v-4h4v1H9.7l2.4,2.5h0.8L17.1,12.1z
		 M11.1,7.5l-4.2,4.4l-0.8-0.8l4.3-4.3c0.3-0.3,0.7-0.4,1.1-0.4l0,0c0.4,0,0.8,0.1,1.1,0.4L15,9.3V7h1v4h-4v-1h2.3l-2.4-2.5
		C11.9,7.5,11.1,7.5,11.1,7.5z"/>
</g>
</svg>
