<svg width="24" height="24" viewBox="0 0 24 24" xmlns="http://www.w3.org/2000/svg">
  <path
    d="m 20.115001,12.685 -2.671,-3.5440001 c -0.086,-0.1149996 -0.185001,-0.216 -0.296999,-0.3069996 -0.11,-0.090002 -0.228,-0.168 -0.354002,-0.2319988 -0.126002,-0.061002 -0.260999,-0.1090016 -0.4,-0.144 -0.139,-0.032013 -0.282002,-0.048 -0.429,-0.048 -0.145001,0 -0.286998,0.015987 -0.426,0.048 -0.140001,0.034998 -0.274001,0.082998 -0.4,0.144 -0.126002,0.063999 -0.243999,0.1420006 -0.356999,0.2319988 -0.11,0.091 -0.209001,0.192 -0.296999,0.3069996 L 11.941001,12.515 c 0,0 0,0 0,0 0,0 0,0 0,0 L 11.469,12.043 c -0.093,-0.096 -0.198002,-0.178998 -0.308001,-0.248001 -0.113,-0.072 -0.231001,-0.130998 -0.354002,-0.176001 -0.123001,-0.046 -0.248999,-0.078 -0.381,-0.096 -0.130998,-0.01901 -0.262998,-0.024 -0.394,-0.01599 -0.1339992,0.007 -0.2629983,0.03201 -0.386,0.072 -0.1260019,0.037 -0.2439987,0.088 -0.3589984,0.152002 -0.1130004,0.061 -0.2199988,0.135998 -0.3220007,0.217999 -0.099999,0.083 -0.1939993,0.176001 -0.276,0.277999 L 5.5289976,16.011 l 0.762,0.63 3.1620001,-3.782001 c 0.096,-0.118 0.200999,-0.207998 0.3139994,-0.267001 0.1119987,-0.059 0.2219981,-0.093 0.3320009,-0.101 0.121002,-0.011 0.241002,0.008 0.358999,0.048 0.116001,0.042 0.219998,0.106001 0.308999,0.197 l 0.472005,0.474999 c 0.106998,0.106001 0.228,0.183999 0.361999,0.231999 0.135999,0.048 0.272999,0.066 0.41,0.056 0.139,-0.008 0.271,-0.048 0.397,-0.111999 0.128999,-0.067 0.236001,-0.159998 0.327001,-0.279998 l 2.542,-3.3740018 c 0.081,-0.1069984 0.183001,-0.188999 0.303001,-0.2480013 0.120997,-0.061002 0.25,-0.091 0.384,-0.091 0.137,0 0.265001,0.030009 0.385999,0.091 0.121002,0.058998 0.223,0.1409991 0.303001,0.2480013 L 19.324001,13.277 Z M 2.6630001,15.942 v 0.987 H 21.338001 V 15.942 Z M 7.0450005,5.8869998 c 0.1660007,0 0.3189997,0.032013 0.4639998,0.094001 0.144,0.060998 0.2700019,0.1459994 0.378,0.2530016 0.1069984,0.1069984 0.1930016,0.2319987 0.2539994,0.3759987 0.061999,0.144 0.094001,0.2960013 0.094001,0.461 0,0.1660006 -0.032013,0.3179981 -0.094001,0.462 -0.061002,0.144 -0.147001,0.2690003 -0.2539994,0.3759987 -0.108,0.1060007 -0.2340019,0.192 -0.378,0.2530016 -0.1450016,0.061002 -0.2980006,0.092999 -0.4639998,0.092999 -0.1669984,0 -0.3189996,-0.032013 -0.4640001,-0.092999 -0.1450016,-0.061002 -0.2709997,-0.1470013 -0.378,-0.253002 -0.108,-0.1069984 -0.1939994,-0.2319987 -0.2550009,-0.3759987 -0.061999,-0.144 -0.094001,-0.2960013 -0.094001,-0.462 0,-0.1649991 0.032013,-0.3170003 0.094001,-0.461 0.061001,-0.144 0.1470009,-0.2690003 0.2550009,-0.3759987 0.1069984,-0.1069984 0.2330003,-0.192 0.378,-0.2530016 0.1450016,-0.061999 0.2969991,-0.094001 0.4640001,-0.094001 z m 0,-0.9860002 c -0.1989996,0 -0.3920001,0.026003 -0.5800002,0.077 C 6.2780006,5.0279986 6.1060019,5.103 5.9450004,5.1970006 c -0.1610003,0.096 -0.3080013,0.2100019 -0.4420003,0.3410003 -0.132,0.1330016 -0.2469996,0.2799988 -0.3440012,0.4400001 -0.092999,0.1599988 -0.168,0.3299982 -0.219001,0.5170001 -0.051999,0.1869997 -0.078002,0.3790001 -0.078002,0.576 0,0.1980019 0.026003,0.39 0.080001,0.576 0.051001,0.1869997 0.1260019,0.3580007 0.2199987,0.5180002 C 5.2559966,8.325 5.370996,8.4710032 5.502996,8.605001 c 0.1339993,0.1300007 0.2810003,0.2450003 0.4420002,0.339001 0.1610003,0.092999 0.3329991,0.168 0.5199999,0.2179993 0.1880013,0.053998 0.3810002,0.080001 0.5800003,0.080001 0.200999,0 0.3939998,-0.026003 0.582,-0.080001 0.1850007,-0.049999 0.3560016,-0.125 0.5170001,-0.217999 C 8.3049968,8.8500016 8.4519977,8.735002 8.5869968,8.6050013 8.7179952,8.471002 8.8329949,8.3250026 8.9299965,8.1650016 9.0239971,8.0050028 9.0989981,7.8340019 9.1499952,7.6470014 c 0.051001,-0.1860019 0.077,-0.378 0.077,-0.576 0,-0.2000012 -0.026003,-0.3920001 -0.077,-0.5780001 C 9.0989943,6.308001 9.0239933,6.1380016 8.9299965,5.9780013 8.8329987,5.8180026 8.7179952,5.6710017 8.5869968,5.5380012 8.4519958,5.4070028 8.3049949,5.2930009 8.1439965,5.1970009 7.9829962,5.1030003 7.8119952,5.0279993 7.6239966,4.9779999 7.4359953,4.926999 7.2429968,4.9009996 7.0449968,4.9009996 Z M 3.5740002,3.1299999 H 20.426001 c 0.049,0 0.101998,0.013002 0.161,0.041998 0.057,0.03001 0.109999,0.067 0.161,0.1119988 0.049,0.046001 0.089,0.099001 0.123999,0.1579993 0.03201,0.058001 0.048,0.1169991 0.048,0.1780007 V 20.379998 c 0,0.061 -0.01599,0.12 -0.048,0.178 -0.035,0.059 -0.075,0.111999 -0.123999,0.158 -0.051,0.045 -0.104001,0.082 -0.161,0.111998 -0.059,0.02899 -0.111999,0.042 -0.161,0.042 H 3.5740002 c -0.048,0 -0.1010003,-0.013 -0.1599987,-0.042 -0.056999,-0.03001 -0.1099994,-0.067 -0.1610003,-0.111998 -0.048,-0.046 -0.089,-0.099 -0.1239988,-0.158 -0.032013,-0.058 -0.048,-0.116999 -0.048,-0.178 V 3.6199968 c 0,-0.061002 0.015987,-0.12 0.048,-0.1780007 C 3.1640004,3.3829981 3.2050014,3.3299974 3.2530012,3.2839968 3.3040022,3.2389978 3.3570024,3.2019958 3.4140015,3.171998 3.4729995,3.143009 3.5260002,3.13 3.5740002,3.1299999 Z m 0,-0.9870002 c -0.1280012,0 -0.2570003,0.015987 -0.3829999,0.049999 -0.1260019,0.032013 -0.2439988,0.080002 -0.351001,0.145002 C 2.7299992,2.3990022 2.6279992,2.4760026 2.5369991,2.5640013 2.4429993,2.652 2.3649993,2.751001 2.2979992,2.8600026 c -0.067,0.1099993 -0.1179999,0.2269984 -0.1549999,0.3549997 -0.034998,0.1280012 -0.054,0.264 -0.054,0.4050001 V 20.380003 c 0,0.140999 0.019,0.277002 0.054,0.405 0.037002,0.128001 0.088,0.245 0.1549999,0.355 0.067,0.109001 0.1450001,0.207998 0.2389999,0.296001 0.091,0.088 0.1930001,0.164999 0.3030002,0.226001 0.1069985,0.065 0.2249991,0.113 0.348,0.144 0.1260019,0.035 0.255001,0.051 0.3860002,0.051 H 20.426 c 0.132,0 0.260001,-0.01599 0.387,-0.051 0.123001,-0.03099 0.241002,-0.079 0.348,-0.144 0.11,-0.061 0.212002,-0.137999 0.303001,-0.226001 0.094,-0.088 0.171999,-0.187 0.238999,-0.296001 0.067,-0.11 0.118,-0.226999 0.154998,-0.355 0.035,-0.128001 0.054,-0.264 0.054,-0.405 V 3.6200024 c 0,-0.140999 -0.01901,-0.2770015 -0.054,-0.4050001 C 21.820996,3.087001 21.769999,2.9700019 21.703,2.8600026 21.636,2.751001 21.557998,2.6520038 21.464001,2.5640013 21.373002,2.4760026 21.271,2.3990022 21.161,2.3380007 c -0.106998,-0.065 -0.224999,-0.1130004 -0.351001,-0.1450016 -0.126002,-0.034016 -0.255001,-0.049999 -0.384,-0.049999 z"
    clip-rule="evenodd" fill-rule="nonzero" />
</svg>
