<svg width="24" height="24" viewBox="0 0 24 24" fill="none" xmlns="http://www.w3.org/2000/svg">
<g clip-path="url(#clip0_2_2570)">
<path fill-rule="evenodd" clip-rule="evenodd" d="M6.5 2H14.7L19 6.3V20.5C19 21.3284 18.3284 22 17.5 22H6.5C5.67157 22 5 21.3284 5 20.5V3.5C5 2.67157 5.67157 2 6.5 2ZM17.3 6L15 3.7V5.5C15 5.77614 15.2239 6 15.5 6H17.3ZM17.5 21H6.5C6.22386 21 6 20.7761 6 20.5V3.5C6 3.22386 6.22386 3 6.5 3H14V5.5C14 6.32843 14.6716 7 15.5 7H18V20.5C18 20.7761 17.7761 21 17.5 21ZM14 10V17H16V10L14 10ZM11 17V12H13V17H11ZM8.00007 14C7.99975 15 7.99975 16 8.00007 17H10V14H8.00007Z" />
</g>
<defs>
<clipPath id="clip0_2_2570">
<rect width="24" height="24" />
</clipPath>
</defs>
</svg>
