<svg width="24" height="24" viewBox="0 0 6.3500001 6.3500001" xmlns="http://www.w3.org/2000/svg">
  <path
    d="M 5.3220939,3.3562396 4.6153918,2.4185562 c -0.022754,-0.030427 -0.048948,-0.05715 -0.078581,-0.081227 -0.029104,-0.023813 -0.060325,-0.04445 -0.093663,-0.061383 -0.033338,-0.01614 -0.069056,-0.02884 -0.1058333,-0.0381 -0.036777,-0.00847 -0.074613,-0.0127 -0.1135062,-0.0127 -0.038365,0 -0.075935,0.00423 -0.1127125,0.0127 -0.037042,0.00926 -0.072496,0.02196 -0.1058334,0.0381 -0.033338,0.016933 -0.064558,0.037571 -0.094456,0.061383 -0.029104,0.024077 -0.055298,0.0508 -0.078581,0.081227 L 3.1593897,3.3112604 c 0,0 0,0 0,0 0,0 0,0 0,0 L 3.0345063,3.1863771 c -0.024606,-0.0254 -0.052388,-0.04736 -0.081492,-0.065617 -0.029898,-0.01905 -0.061119,-0.03466 -0.093663,-0.046567 -0.032544,-0.012171 -0.065881,-0.020637 -0.1008063,-0.0254 -0.03466,-0.00503 -0.069585,-0.00635 -0.1042458,-0.00423 -0.035454,0.00185 -0.069585,0.00847 -0.1021292,0.01905 -0.033338,0.00979 -0.064558,0.023283 -0.094985,0.040217 -0.029898,0.01614 -0.058208,0.035983 -0.085196,0.057679 -0.026458,0.02196 -0.051329,0.046567 -0.073025,0.073554 L 1.4628806,4.2362441 1.6644931,4.4029316 2.5011056,3.4022774 c 0.0254,-0.031221 0.053181,-0.055033 0.083079,-0.070644 0.029633,-0.01561 0.058737,-0.024606 0.087842,-0.026723 0.032015,-0.00291 0.063765,0.00212 0.094985,0.0127 0.030692,0.011112 0.058208,0.028046 0.081756,0.052123 l 0.1248846,0.1256767 c 0.02831,0.028046 0.060325,0.048683 0.095779,0.061383 0.035983,0.0127 0.072231,0.017463 0.1084792,0.014817 0.036777,-0.00212 0.071702,-0.0127 0.1050396,-0.029633 0.034131,-0.017727 0.062442,-0.042333 0.086519,-0.074083 L 4.0420397,2.5751896 c 0.021431,-0.02831 0.048419,-0.050006 0.080169,-0.065617 0.032014,-0.01614 0.066146,-0.024077 0.1016,-0.024077 0.036248,0 0.070115,0.00794 0.1021291,0.024077 0.032015,0.01561 0.059002,0.037306 0.080169,0.065617 L 5.1128085,3.5128729 Z M 0.70458543,4.2179875 V 4.4791313 H 5.6456793 V 4.2179875 Z M 1.8639897,1.557602 c 0.043921,0 0.084402,0.00847 0.1227666,0.024871 0.0381,0.016139 0.071438,0.038629 0.1000125,0.06694 0.02831,0.02831 0.051065,0.061383 0.067204,0.099483 0.016404,0.0381 0.024871,0.078317 0.024871,0.1219729 0,0.043921 -0.00847,0.084137 -0.024871,0.1222375 -0.01614,0.0381 -0.038894,0.071173 -0.067204,0.099483 -0.028575,0.028046 -0.061913,0.0508 -0.1000125,0.06694 -0.038365,0.01614 -0.078846,0.024606 -0.1227666,0.024606 -0.044185,0 -0.084402,-0.00847 -0.1227667,-0.024606 -0.038365,-0.01614 -0.071702,-0.038894 -0.1000125,-0.06694 -0.028575,-0.02831 -0.051329,-0.061383 -0.067469,-0.099483 -0.016404,-0.0381 -0.024871,-0.078317 -0.024871,-0.1222375 0,-0.043656 0.00847,-0.083873 0.024871,-0.1219729 0.01614,-0.0381 0.038894,-0.071173 0.067469,-0.099483 0.02831,-0.02831 0.061648,-0.0508 0.1000125,-0.06694 C 1.779588,1.566069 1.819804,1.557602 1.8639897,1.557602 Z m 0,-0.2608792 c -0.052652,0 -0.1037167,0.00688 -0.1534584,0.020373 -0.049477,0.013229 -0.094985,0.033073 -0.1375833,0.057944 -0.042598,0.0254 -0.081492,0.055563 -0.1169459,0.090223 -0.034925,0.03519 -0.065352,0.074083 -0.091017,0.1164167 -0.024606,0.042333 -0.04445,0.087312 -0.057944,0.1367896 -0.013758,0.049477 -0.020638,0.1002771 -0.020638,0.1524 0,0.052388 0.00688,0.1031875 0.021167,0.1524 0.013494,0.049477 0.033338,0.094721 0.058208,0.1370542 0.024871,0.042333 0.055298,0.080963 0.090223,0.1164166 0.035454,0.034396 0.074348,0.064823 0.1169459,0.089694 0.042598,0.024606 0.088106,0.04445 0.1375833,0.057679 0.049742,0.014287 0.1008063,0.021167 0.1534584,0.021167 0.053181,0 0.1042458,-0.00688 0.1539875,-0.021167 0.048948,-0.013229 0.094192,-0.033073 0.1367895,-0.057679 0.042598,-0.024871 0.081492,-0.055298 0.1172105,-0.089694 0.03466,-0.035454 0.065087,-0.074083 0.090752,-0.1164166 0.024871,-0.042333 0.044715,-0.087577 0.058208,-0.1370542 0.013494,-0.049213 0.020373,-0.1000125 0.020373,-0.1524 0,-0.052917 -0.00688,-0.1037167 -0.020373,-0.1529292 C 2.4074422,1.6689919 2.3875982,1.6240129 2.3627282,1.5816795 2.3370642,1.5393465 2.3066362,1.5004525 2.2719762,1.4652628 2.2362572,1.4306028 2.1973632,1.4004398 2.1547657,1.3750398 2.1121677,1.3501688 2.0669237,1.3303248 2.0171824,1.3170958 1.9674404,1.3036018 1.9163762,1.2967228 1.8639887,1.2967228 Z M 0.94562088,0.8281458 H 5.4043793 c 0.012965,0 0.026987,0.00344 0.042598,0.011112 0.015081,0.00794 0.029104,0.017727 0.042598,0.029633 0.012964,0.012171 0.023548,0.026194 0.032808,0.041804 0.00847,0.015346 0.0127,0.030956 0.0127,0.047096 v 4.4344168 c 0,0.01614 -0.00423,0.03175 -0.0127,0.047096 -0.00926,0.01561 -0.019844,0.029633 -0.032808,0.041804 -0.013494,0.011906 -0.027517,0.021696 -0.042598,0.029633 -0.01561,0.00767 -0.029633,0.011113 -0.042598,0.011113 H 0.94562088 c -0.0127,0 -0.026723,-0.00344 -0.042333,-0.011113 -0.015081,-0.00794 -0.029104,-0.017727 -0.042598,-0.029633 -0.0127,-0.012171 -0.023548,-0.026194 -0.032808,-0.041804 -0.00847,-0.015346 -0.0127,-0.030956 -0.0127,-0.047096 V 0.9577908 c 0,-0.01614 0.00423,-0.03175 0.0127,-0.047096 0.00926,-0.01561 0.020108,-0.029633 0.032808,-0.041804 0.013494,-0.011906 0.027517,-0.021696 0.042598,-0.029633 0.01561,-0.00767 0.029633,-0.011112 0.042333,-0.011112 z m 0,-0.2611438 c -0.033867,0 -0.067998,0.00423 -0.1013354,0.013229 -0.033338,0.00847 -0.064558,0.021167 -0.092869,0.038365 -0.0291042,0.01614 -0.0560917,0.036513 -0.0801688,0.059796 -0.0248708,0.023283 -0.0455083,0.049477 -0.0632354,0.078317 -0.0177271,0.029104 -0.0312208,0.06006 -0.0410104,0.093927 -0.00926,0.033867 -0.0142875,0.06985 -0.0142875,0.1071563 v 4.4344168 c 0,0.037306 0.005027,0.07329 0.0142875,0.1071562 0.00979,0.033867 0.0232833,0.064823 0.0410104,0.093927 0.0177271,0.02884 0.0383646,0.055033 0.0632354,0.078317 0.0240771,0.023283 0.0510646,0.043656 0.0801688,0.059796 0.02831,0.017198 0.059531,0.029898 0.092075,0.0381 0.033338,0.00926 0.067469,0.013494 0.1021292,0.013494 H 5.4043791 c 0.034925,0 0.068792,-0.00423 0.1023938,-0.013494 0.032544,-0.0082 0.063765,-0.020902 0.092075,-0.0381 0.029104,-0.01614 0.056092,-0.036512 0.080169,-0.059796 0.024871,-0.023283 0.045508,-0.049477 0.063235,-0.078317 0.017727,-0.029104 0.031221,-0.06006 0.04101,-0.093927 0.00926,-0.033867 0.014288,-0.06985 0.014288,-0.1071562 V 0.9577923 c 0,-0.037306 -0.00503,-0.07329 -0.014288,-0.1071563 C 5.7734719,0.816769 5.7599789,0.785813 5.7422519,0.756709 5.7245249,0.727869 5.7038869,0.701676 5.6790169,0.678392 5.6549399,0.655109 5.6279519,0.634736 5.5988479,0.618596 5.5705379,0.601398 5.5393169,0.588698 5.5059789,0.580231 c -0.033338,-0.009 -0.067469,-0.013229 -0.1016,-0.013229 z"
    clip-rule="evenodd" fill-rule="nonzero" />
</svg>
