<svg xmlns="http://www.w3.org/2000/svg" width="24" height="24"
     viewBox="0 0 24 24">
  <title>Files</title>
  <g>
    <path
      d="M15.7,2H7.5A1.5,1.5,0,0,0,6,3.5V4H5.5A1.5,1.5,0,0,0,4,5.5v15A1.5,1.5,0,0,0,5.5,22h11A1.5,1.5,0,0,0,18,20.5V20h.5A1.5,1.5,0,0,0,20,18.5V6.3ZM16,3.7,18.3,6H16.5a.5.5,0,0,1-.5-.5Zm1,16.8a.5.5,0,0,1-.5.5H5.5a.5.5,0,0,1-.5-.5V5.5A.5.5,0,0,1,5.5,5H6V18.5A1.5,1.5,0,0,0,7.5,20H17ZM18.5,19H7.5a.5.5,0,0,1-.5-.5V3.5A.5.5,0,0,1,7.5,3H15V5.5A1.5,1.5,0,0,0,16.5,7H19V18.5A.5.5,0,0,1,18.5,19ZM9,9h8v1H9Zm0,2h8v1H9Zm0,2h4v1H9Z"
    />
  </g>
  <g>
    <rect width="24" height="24" fill="none"/>
  </g>
</svg>
