<svg width="24" height="24" viewBox="0 0 24 24" fill="none" xmlns="http://www.w3.org/2000/svg">
<g clip-path="url(#clip0_2_2577)">
<path fill-rule="evenodd" clip-rule="evenodd" d="M6.5 2H14.7L19 6.3V20.5C19 21.3284 18.3284 22 17.5 22H6.5C5.67157 22 5 21.3284 5 20.5V3.5C5 2.67157 5.67157 2 6.5 2ZM17.3 6L15 3.7V5.5C15 5.77614 15.2239 6 15.5 6H17.3ZM17.5 21H6.5C6.22386 21 6 20.7761 6 20.5V3.5C6 3.22386 6.22386 3 6.5 3H14V5.5C14 6.32843 14.6716 7 15.5 7H18V20.5C18 20.7761 17.7761 21 17.5 21ZM8.11635 17.1101C8.20668 17.2907 8.34658 17.453 8.55474 17.529C8.76156 17.6045 8.96631 17.5694 9.13467 17.5C9.45298 17.3689 9.77004 17.0635 10.0607 16.713C10.3934 16.312 10.7438 15.7864 11.0818 15.2032C11.404 15.1073 11.7405 15.0235 12.079 14.9547C12.421 14.8852 12.7584 14.8324 13.0786 14.7976C13.3783 15.18 13.6888 15.51 13.9894 15.7473C14.269 15.9681 14.5917 16.1506 14.923 16.1639C15.0988 16.171 15.2745 16.1299 15.4325 16.0265C15.5873 15.9252 15.7027 15.7789 15.7871 15.61C15.8776 15.4291 15.9317 15.2395 15.9248 15.0478C15.9175 14.8495 15.8456 14.6734 15.7247 14.5291C15.4987 14.2596 15.1286 14.1298 14.7647 14.0644C14.3846 13.996 13.9248 13.9832 13.4299 14.0145C13.267 13.7858 13.1063 13.5385 12.953 13.2797C12.7683 12.9681 12.5981 12.6465 12.45 12.3287C12.6998 11.6687 12.8869 11.044 12.9703 10.5341C13.006 10.3158 13.0245 10.1078 13.0175 9.92061C13.0107 9.73789 12.9788 9.5467 12.8906 9.38227C12.7948 9.20377 12.635 9.06437 12.4138 9.01706C12.2116 8.97383 12.004 9.01757 11.8124 9.09419C11.4352 9.24509 11.2366 9.56348 11.1612 9.91728C11.0888 10.2571 11.1214 10.6533 11.208 11.0537C11.2957 11.459 11.4459 11.9012 11.6375 12.3486C11.4993 12.6941 11.3434 13.0509 11.1752 13.4072C10.9856 13.8088 10.7829 14.2039 10.5758 14.5757C10.024 14.7565 9.51032 14.9743 9.09323 15.2207C8.72273 15.4395 8.39486 15.7002 8.19704 16.0069C7.98645 16.3334 7.92189 16.7212 8.11635 17.1101ZM9.47464 15.8665C9.61383 15.7842 9.76769 15.7046 9.93324 15.6282C9.77971 15.855 9.62861 16.0592 9.48349 16.2342C9.20385 16.5713 8.98575 16.7502 8.84897 16.8066C8.83339 16.813 8.82173 16.8166 8.81344 16.8187C8.80693 16.8101 8.79793 16.7962 8.78717 16.7747C8.73161 16.6635 8.73392 16.5582 8.8273 16.4134C8.93347 16.2488 9.1467 16.0602 9.47464 15.8665ZM11.9296 14.2197C11.8111 14.2438 11.6923 14.2698 11.5737 14.2975C11.6697 14.1091 11.7632 13.9185 11.8534 13.7275C11.9286 13.5681 12.002 13.4076 12.0729 13.2471C12.1486 13.3874 12.2271 13.5261 12.3078 13.6621C12.3966 13.8121 12.4889 13.9602 12.5837 14.105C12.3664 14.137 12.1473 14.1755 11.9296 14.2197ZM14.4542 15.1588C14.3155 15.0492 14.1694 14.9108 14.0199 14.7491C14.2475 14.753 14.454 14.7705 14.6319 14.8025C14.949 14.8596 15.0981 14.9492 15.1499 15.011C15.1678 15.0324 15.1743 15.0499 15.1753 15.0751C15.1764 15.1068 15.1684 15.1705 15.1163 15.2746C15.0758 15.3557 15.0399 15.3871 15.0219 15.3989C15.0071 15.4086 14.9885 15.4159 14.9531 15.4145C14.862 15.4108 14.6947 15.3487 14.4542 15.1588ZM12.2301 10.4131C12.1903 10.6565 12.1219 10.9364 12.0301 11.2411C11.995 11.122 11.9651 11.0064 11.9411 10.8952C11.8647 10.5421 11.8539 10.2651 11.8947 10.0737C11.9325 9.89622 12.004 9.82535 12.091 9.79055C12.1657 9.76067 12.2119 9.75252 12.236 9.75059C12.2483 9.78097 12.2641 9.84222 12.2681 9.94849C12.2726 10.0699 12.2608 10.2251 12.2301 10.4131Z" />
</g>
<defs>
<clipPath id="clip0_2_2577">
<rect width="24" height="24" />
</clipPath>
</defs>
</svg>
