<svg width="24" height="24" viewBox="0 0 24 24" fill="none" xmlns="http://www.w3.org/2000/svg">
<path fill-rule="evenodd" clip-rule="evenodd" d="M3.56696 1.33333H20.3289C20.9351 1.33333 21.5165 1.57414 21.9451 2.0028C22.3738 2.43145 22.6146 3.01283 22.6146 3.61904V20.3809C22.6146 20.9872 22.3738 21.5685 21.9451 21.9972C21.5165 22.4258 20.9351 22.6667 20.3289 22.6667H3.56696C2.96076 22.6667 2.37937 22.4258 1.95072 21.9972C1.52207 21.5685 1.28125 20.9872 1.28125 20.3809V3.61904C1.28125 3.01283 1.52207 2.43145 1.95072 2.0028C2.37937 1.57414 2.96076 1.33333 3.56696 1.33333ZM6.5 6.66667C6.5 4.91777 7.91776 3.5 9.66667 3.5H11.8337H12.8333H15.0003C16.7492 3.5 18.167 4.91777 18.167 6.66667C18.167 7.78631 17.5859 8.77024 16.7089 9.33333C17.5859 9.89642 18.167 10.8803 18.167 12C18.167 13.7489 16.7492 15.1667 15.0003 15.1667C14.162 15.1667 13.3998 14.8409 12.8333 14.3091V15.1667V17.3333C12.8333 19.0822 11.4156 20.5 9.66667 20.5C7.91777 20.5 6.5 19.0822 6.5 17.3333C6.5 16.2137 7.08109 15.2298 7.95813 14.6667C7.08109 14.1036 6.5 13.1196 6.5 12C6.5 10.8803 7.08108 9.89642 7.95812 9.33333C7.08108 8.77024 6.5 7.78631 6.5 6.66667ZM9.66667 9.83333L9.66312 9.83333C8.46813 9.83524 7.5 10.8046 7.5 12C7.5 13.1966 8.47005 14.1667 9.66667 14.1667H11.8333V9.83333H9.66667ZM11.8333 4.5V8.83333H9.66667L9.66313 8.83333C8.46814 8.83142 7.5 7.8621 7.5 6.66667C7.5 5.47005 8.47005 4.5 9.66667 4.5H11.8333ZM15.0003 8.83333H14.9948H12.8337V4.5H15.0003C16.1969 4.5 17.167 5.47005 17.167 6.66667C17.167 7.8621 16.1989 8.83142 15.0039 8.83333L15.0003 8.83333ZM14.9957 9.83333C13.8012 9.83581 12.8337 10.8049 12.8337 12C12.8337 13.1966 13.8037 14.1667 15.0003 14.1667C16.1969 14.1667 17.167 13.1966 17.167 12C17.167 10.8034 16.1969 9.83333 15.0003 9.83333H14.9957ZM7.5 17.3333C7.5 16.1367 8.47005 15.1667 9.66667 15.1667H11.8333V17.3333C11.8333 18.53 10.8633 19.5 9.66667 19.5C8.47005 19.5 7.5 18.53 7.5 17.3333Z" />
</svg>
