<svg width="24" height="24" viewBox="0 0 24 24" fill="none" xmlns="http://www.w3.org/2000/svg">
<path fill-rule="evenodd" clip-rule="evenodd" d="M6.5 2H14.7L19 6.3V20.5C19 21.3284 18.3284 22 17.5 22H16V21H17.5C17.7761 21 18 20.7761 18 20.5V7H15.5C14.6716 7 14 6.32843 14 5.5V3H6.5C6.22386 3 6 3.22386 6 3.5V16H5V3.5C5 2.67157 5.67157 2 6.5 2ZM17.3 6L15 3.7V5.5C15 5.77614 15.2239 6 15.5 6H17.3Z" />
<path d="M4.95717 20.5441H4.08036V22H3V17H4.95717C6.22019 17 6.85171 17.5784 6.85171 18.7353C6.85171 19.3186 6.68991 19.7672 6.36633 20.0809C6.04796 20.3897 5.57824 20.5441 4.95717 20.5441ZM4.08036 19.6765H4.94934C5.48691 19.6765 5.75569 19.3627 5.75569 18.7353C5.75569 18.4265 5.69045 18.2059 5.55998 18.0735C5.4295 17.9363 5.22595 17.8676 4.94934 17.8676H4.08036V19.6765Z" />
<path d="M9.40281 22H7.61005V17H9.40281C9.8621 17 10.2405 17.0466 10.538 17.1397C10.8355 17.2279 11.0651 17.3775 11.2269 17.5882C11.3939 17.7941 11.5087 18.0392 11.5714 18.3235C11.634 18.6029 11.6653 18.9681 11.6653 19.4191C11.6653 19.8701 11.6366 20.2451 11.5792 20.5441C11.5218 20.8382 11.4122 21.1029 11.2504 21.3382C11.0938 21.5686 10.8642 21.7377 10.5615 21.8456C10.2587 21.9485 9.87253 22 9.40281 22ZM10.538 20.0147C10.5484 19.8578 10.5536 19.6422 10.5536 19.3676C10.5536 19.0882 10.5432 18.8652 10.5223 18.6985C10.5014 18.5319 10.4519 18.3799 10.3736 18.2426C10.2953 18.1054 10.1779 18.0123 10.0213 17.9632C9.86992 17.9093 9.66377 17.8824 9.40281 17.8824H8.69041V21.1176H9.40281C9.79425 21.1176 10.0787 21.0245 10.2561 20.8382C10.4075 20.6863 10.5014 20.4118 10.538 20.0147Z" />
<path d="M12.6024 22V17H16V17.8824H13.6827V19.3529H15.5773V20.2353H13.6827V22H12.6024Z" />
</svg>
