<svg width="24" height="24" viewBox="0 0 24 24" xmlns="http://www.w3.org/2000/svg">
  <path
    d="m 11.079001,18.027 c -0.083,-0.085 -0.154999,-0.178 -0.214001,-0.288 -0.062,-0.106 -0.118001,-0.216 -0.171999,-0.327998 -0.056,-0.111999 -0.113,-0.221001 -0.173998,-0.327999 -0.059,-0.106001 -0.132,-0.202001 -0.219998,-0.288 -0.086,-0.082 -0.190999,-0.152001 -0.3139999,-0.202001 -0.1230009,-0.051 -0.276,-0.078 -0.456,-0.078 -0.091,0 -0.1869997,0.008 -0.2899994,0.024 -0.1010003,0.01599 -0.2090003,0.046 -0.324,0.088 -0.1180006,0.04 -0.2389984,0.096 -0.3669997,0.163 -0.128999,0.069 -0.2659993,0.157001 -0.4050001,0.264 -0.03001,-0.048 -0.065,-0.093 -0.1049991,-0.139 -0.043,-0.045 -0.094001,-0.082 -0.1549984,-0.116999 -0.061999,-0.035 -0.1339994,-0.061 -0.2149985,-0.083 -0.082998,-0.01901 -0.18,-0.02899 -0.2869984,-0.02899 -0.1819994,0 -0.3700006,0.024 -0.5629999,0.077 -0.1900007,0.051 -0.3810002,0.118001 -0.5740003,0.198002 -0.1900006,0.08 -0.3809998,0.169999 -0.5679999,0.269 -0.1880012,0.101001 -0.3709984,0.197001 -0.5499999,0.296002 -0.176999,0.096 -0.3490015,0.186999 -0.5150003,0.269 -0.1640012,0.08 -0.3220006,0.147001 -0.4689997,0.192 l 0.303001,0.942 c 0.1470009,-0.048 0.3030009,-0.111999 0.4640001,-0.190001 0.1610003,-0.08 0.324,-0.162002 0.4899999,-0.248001 0.1669984,-0.088 0.3329991,-0.176001 0.4990001,-0.265999 0.1690015,-0.091 0.3299981,-0.173999 0.4909999,-0.248002 0.1579994,-0.075 0.3109984,-0.142 0.456,-0.195001 0.1450016,-0.053 0.2810003,-0.085 0.4050002,-0.101 -0.003,0.02899 -0.003,0.058 -0.00601,0.088 -0.002,0.02899 -0.00499,0.058 -0.00801,0.085 0,0.02899 -0.002,0.059 -0.002,0.088 -0.003,0.03201 -0.003,0.061 -0.003,0.091 0,0.104001 0.026986,0.193999 0.082998,0.274 0.054002,0.078 0.1210016,0.134 0.2040001,0.171001 0.080001,0.037 0.1690015,0.054 0.2650015,0.045 0.094001,-0.008 0.183001,-0.045 0.2629985,-0.111998 0.1099993,-0.096 0.228,-0.194 0.3519987,-0.301002 0.123001,-0.106998 0.2489991,-0.205001 0.375001,-0.296001 0.1260018,-0.088 0.252,-0.163 0.3810002,-0.224001 0.1280012,-0.059 0.252,-0.088 0.3750009,-0.088 0.043,0 0.080999,0.01599 0.1099994,0.048 0.032013,0.03201 0.061999,0.077 0.091,0.133001 0.030009,0.059 0.058998,0.126002 0.094001,0.202999 0.032013,0.08 0.073002,0.163 0.1210016,0.253001 0.048,0.091 0.1069984,0.187 0.1769984,0.286001 0.07,0.098 0.154999,0.200001 0.257001,0.299002 z"
    clip-rule="evenodd" fill-rule="nonzero" />
  <polygon points="32891,12000 32891,11013 28927,11013 28927,12000 " clip-rule="evenodd" fill-rule="nonzero" />
  <polygon points="36857,10029 36857,9042 28927,9042 28927,10029 " clip-rule="evenodd" fill-rule="nonzero" />
  <path
    d="m 20.076001,8.9220001 -7.004,6.9719999 c -0.108,0.106001 -0.212001,0.24 -0.310999,0.397 -0.1,0.154999 -0.190998,0.322999 -0.274,0.496 -0.086,0.176001 -0.161001,0.351999 -0.224999,0.528 -0.067,0.176001 -0.121002,0.336 -0.164002,0.48 -0.043,0.144 -0.069,0.264 -0.086,0.363001 -0.013,0.099 -0.013,0.157002 0.009,0.176001 0.01799,0.01901 0.077,0.02101 0.176999,0.005 0.096,-0.013 0.219001,-0.042 0.363999,-0.085 0.147999,-0.04 0.308999,-0.093 0.485,-0.159999 0.178001,-0.067 0.355,-0.140999 0.529,-0.224001 0.174002,-0.083 0.339999,-0.176001 0.499,-0.274999 0.158,-0.098 0.289002,-0.202 0.397,-0.308999 l 7.004001,-6.969 c 0.104999,-0.104001 0.176999,-0.207999 0.222999,-0.3200012 0.043,-0.1090016 0.064,-0.219001 0.064,-0.3309997 0,-0.1330016 -0.02899,-0.264 -0.086,-0.3859998 -0.059,-0.1230009 -0.134,-0.2349997 -0.23,-0.3309997 -0.097,-0.096 -0.207001,-0.1710009 -0.330002,-0.2290015 -0.123001,-0.058999 -0.255001,-0.085999 -0.389,-0.085999 -0.113,0 -0.223,0.021014 -0.332999,0.067 -0.109999,0.044999 -0.214001,0.116999 -0.319,0.2210003 z"
    clip-rule="evenodd" fill-rule="nonzero" />
  <path
    d="m 10.873001,2.7609997 v 2.8330001 c 0,0.1280013 0.01901,0.2559988 0.056,0.3810002 0.035,0.1259981 0.089,0.243001 0.152999,0.3499994 0.067,0.1090016 0.147001,0.2099981 0.238998,0.3010016 0.093,0.092999 0.193002,0.1710009 0.303001,0.236999 0.11,0.067 0.228,0.1180007 0.351001,0.1549985 0.126002,0.034998 0.255001,0.053 0.386,0.053 h 2.848 l -0.695,-0.985999 h -2.153 c -0.072,0 -0.139,-0.010998 -0.200999,-0.034998 -0.062,-0.024 -0.115,-0.056001 -0.158,-0.1019982 -0.043,-0.041998 -0.078,-0.096 -0.102002,-0.1540006 -0.024,-0.061999 -0.035,-0.1280013 -0.035,-0.2000013 v -2.142 z"
    clip-rule="evenodd" fill-rule="nonzero" />
  <path
    d="m 14.839001,18.894 v 1.486001 c 0,0.074 -0.013,0.140999 -0.035,0.200001 -0.024,0.061 -0.059,0.111999 -0.102002,0.154 -0.045,0.046 -0.096,0.078 -0.154998,0.102002 -0.062,0.024 -0.128999,0.03402 -0.204,0.03402 H 3.4390003 c -0.072,0 -0.1389997,-0.01002 -0.2009991,-0.03402 -0.058998,-0.024 -0.1130003,-0.056 -0.156,-0.102002 -0.044999,-0.042 -0.077,-0.093 -0.1010003,-0.154 -0.024983,-0.059 -0.034998,-0.126002 -0.034998,-0.200001 V 3.6199998 c 0,-0.073999 0.010016,-0.1409991 0.034998,-0.2000013 0.024,-0.061002 0.056001,-0.1119987 0.1010003,-0.1540006 0.043,-0.046001 0.097002,-0.078002 0.156,-0.1020019 0.061999,-0.024 0.1289991,-0.034016 0.2009991,-0.034016 h 7.7180007 l 3.682,3.659 v 5.374001 l 0.99,-0.984981 V 6.3809999 l -4.259,-4.2380002 H 3.4390003 c -0.1289991,0 -0.2580019,0.017991 -0.3830003,0.053 -0.1260019,0.037002 -0.2439988,0.087999 -0.3519988,0.1549985 -0.1099993,0.066002 -0.2120012,0.144 -0.3030009,0.236999 -0.094001,0.091 -0.171001,0.192 -0.2380006,0.3019994 -0.068001,0.1060006 -0.1189985,0.2240013 -0.156,0.3460006 -0.034999,0.1260019 -0.054002,0.2539994 -0.054002,0.384 V 20.379998 c 0,0.130001 0.019011,0.258002 0.054002,0.384 0.037001,0.122 0.087999,0.24 0.156,0.346001 0.067,0.109999 0.144,0.211 0.2380006,0.301999 0.091,0.093 0.1930016,0.171001 0.3030009,0.236999 0.108,0.067 0.2260007,0.118001 0.3490016,0.154999 0.1260019,0.035 0.255001,0.053 0.3860001,0.053 H 14.343003 c 0.134,0 0.262999,-0.01799 0.386001,-0.053 0.123001,-0.037 0.241001,-0.088 0.351001,-0.154999 0.109999,-0.066 0.209,-0.144 0.303,-0.236999 0.092,-0.091 0.171999,-0.192 0.236002,-0.301999 0.067,-0.106001 0.118,-0.224001 0.156,-0.349002 0.038,-0.125 0.054,-0.253001 0.054,-0.380999 V 17.907 Z"
    clip-rule="evenodd" fill-rule="nonzero" />
</svg>
