<svg width="24" height="24" viewBox="0 0 24 24" fill="none" xmlns="http://www.w3.org/2000/svg">
<g clip-path="url(#clip0_2_2603)">
<path fill-rule="evenodd" clip-rule="evenodd" d="M6.5 2H14.7L19 6.3V20.5C19 21.3284 18.3284 22 17.5 22H6.5C5.67157 22 5 21.3284 5 20.5V3.5C5 2.67157 5.67157 2 6.5 2ZM17.3 6L15 3.7V5.5C15 5.77614 15.2239 6 15.5 6H17.3ZM17.5 21H6.5C6.22386 21 6 20.7761 6 20.5V3.5C6 3.22386 6.22386 3 6.5 3H9.11167V3.91751H8.33428V4.83502H9.11167V5.75253H8.33428V6.67004H9.11167V7.58755H10.2778V6.67004H9.50037V5.75253H10.2778V4.83502H9.50037V3.91751H10.2778V3H14V5.5C14 6.32843 14.6716 7 15.5 7H18V20.5C18 20.7761 17.7761 21 17.5 21ZM9.1113 8.0463C8.68196 8.0463 8.33391 8.45708 8.33391 8.96381V9.82484L8.02326 11.2914C7.94358 11.6676 8.07286 12.0623 8.34622 12.2774L9.06878 12.8459C9.32991 13.0514 9.67009 13.0514 9.93122 12.8459L10.6538 12.2774C10.9271 12.0623 11.0564 11.6676 10.9767 11.2914L10.6661 9.82484V8.96381C10.6661 8.45708 10.318 8.0463 9.8887 8.0463H9.1113ZM9.1113 8.96381H9.8887V9.82484C9.8887 9.89986 9.89649 9.97459 9.91191 10.0474L10.2226 11.514L9.5 12.0825L8.77744 11.514L9.08809 10.0474C9.10351 9.97459 9.1113 9.89986 9.1113 9.82484V8.96381Z" />
</g>
<defs>
<clipPath id="clip0_2_2603">
<rect width="24" height="24" />
</clipPath>
</defs>
</svg>
