<svg width="24" height="24" viewBox="0 0 24 24" fill="none" xmlns="http://www.w3.org/2000/svg">
<path fill-rule="evenodd" clip-rule="evenodd" d="M14.7 2H6.5C5.67157 2 5 2.67157 5 3.5V16H6V3.5C6 3.22386 6.22386 3 6.5 3H14V5.5C14 6.32843 14.6716 7 15.5 7H18V20.5C18 20.7761 17.7761 21 17.5 21H15V22H17.5C18.3284 22 19 21.3284 19 20.5V6.3L14.7 2ZM15 3.7L17.3 6H15.5C15.2239 6 15 5.77614 15 5.5V3.7Z"/>
<path d="M4.825 20.5186H4.0074V21.964H3V17H4.825C6.00273 17 6.5916 17.5743 6.5916 18.7228C6.5916 19.3019 6.44073 19.7472 6.139 20.0587C5.84213 20.3653 5.40413 20.5186 4.825 20.5186ZM4.0074 19.6572H4.8177C5.31897 19.6572 5.5696 19.3457 5.5696 18.7228C5.5696 18.4162 5.50877 18.1972 5.3871 18.0658C5.26543 17.9295 5.07563 17.8614 4.8177 17.8614H4.0074V19.6572Z"/>
<path d="M9.12373 20.5186H8.30613V21.964H7.29873V17H9.12373C10.3015 17 10.8903 17.5743 10.8903 18.7228C10.8903 19.3019 10.7395 19.7472 10.4377 20.0587C10.1409 20.3653 9.70286 20.5186 9.12373 20.5186ZM8.30613 19.6572H9.11643C9.6177 19.6572 9.86833 19.3457 9.86833 18.7228C9.86833 18.4162 9.8075 18.1972 9.68583 18.0658C9.56416 17.9295 9.37436 17.8614 9.11643 17.8614H8.30613V19.6572Z"/>
<path d="M11.1522 17.8906V17H14.8022V17.8906H13.4882V21.964H12.4808V17.8906H11.1522Z"/>
</svg>
