<svg width="24" height="24" viewBox="0 0 24 24" fill="none" xmlns="http://www.w3.org/2000/svg">
<path fill-rule="evenodd" clip-rule="evenodd" d="M6.5 2H14.7L19 6.3V16H18V7H15.5C14.6716 7 14 6.32843 14 5.5V3H6.5C6.22386 3 6 3.22386 6 3.5V16H5V3.5C5 2.67157 5.67157 2 6.5 2ZM17.3 6L15 3.7V5.5C15 5.77614 15.2239 6 15.5 6H17.3Z" />
<path d="M4.3501 22.4V21.5496C4.53907 21.5496 4.67608 21.5142 4.76112 21.4433C4.84616 21.3724 4.88868 21.2402 4.88868 21.0465V17.085H5.85955L5.86663 21.089C5.86663 21.6039 5.75089 21.9512 5.51939 22.1307C5.29262 22.3102 4.90285 22.4 4.3501 22.4Z" />
<path d="M8.35941 17.8504C7.84444 17.8504 7.58696 18.0205 7.58696 18.3606C7.58696 18.5118 7.65074 18.6276 7.7783 18.7079C7.90586 18.7882 8.2035 18.9039 8.67122 19.0551C9.14366 19.2063 9.47437 19.3787 9.66334 19.5724C9.85232 19.7614 9.94681 20.0543 9.94681 20.4512C9.94681 20.9567 9.79326 21.3394 9.48618 21.5992C9.17909 21.8591 8.77752 21.989 8.28145 21.989C7.91295 21.989 7.46177 21.9323 6.92791 21.8189L6.67279 21.7693L6.772 21.011C7.40507 21.0961 7.88933 21.1386 8.22476 21.1386C8.72555 21.1386 8.97594 20.9307 8.97594 20.515C8.97594 20.3638 8.91689 20.2457 8.79878 20.1606C8.68539 20.0756 8.45626 19.9835 8.11137 19.8843C7.56334 19.7283 7.17594 19.5441 6.94917 19.3315C6.72712 19.1142 6.6161 18.8142 6.6161 18.4315C6.6161 17.9496 6.76255 17.5906 7.05547 17.3543C7.34838 17.1181 7.74996 17 8.26019 17C8.6098 17 9.05389 17.0472 9.59248 17.1417L9.84759 17.1913L9.76964 17.9638C9.1035 17.8882 8.63342 17.8504 8.35941 17.8504Z" />
<path d="M11.7322 20.7701C11.874 21.0157 12.1362 21.1386 12.5189 21.1386C12.9015 21.1386 13.1614 21.0157 13.2984 20.7701C13.4401 20.5197 13.511 20.1039 13.511 19.5228C13.511 18.937 13.4401 18.5118 13.2984 18.2472C13.1567 17.9827 12.8968 17.8504 12.5189 17.8504C12.1409 17.8504 11.8811 17.9827 11.7393 18.2472C11.5976 18.5118 11.5267 18.937 11.5267 19.5228C11.5267 20.1039 11.5952 20.5197 11.7322 20.7701ZM14.0637 21.3937C13.7661 21.7906 13.2511 21.989 12.5189 21.989C11.7866 21.989 11.2693 21.7906 10.9669 21.3937C10.6693 20.9921 10.5204 20.3661 10.5204 19.5157C10.5204 18.6654 10.6693 18.0346 10.9669 17.6236C11.2693 17.2079 11.7866 17 12.5189 17C13.2511 17 13.7661 17.2079 14.0637 17.6236C14.3661 18.0346 14.5173 18.6654 14.5173 19.5157C14.5173 20.3661 14.3661 20.9921 14.0637 21.3937Z" />
<path d="M15.3559 21.9039V17.085H17.0071L18.1693 21.0535H18.2402V17.085H19.2181V21.9039H17.6095L16.4048 17.9354H16.3339V21.9039H15.3559Z" />
</svg>
