<svg width="24" height="24" viewBox="0 0 24 24" fill="none" xmlns="http://www.w3.org/2000/svg">
<g clip-path="url(#clip0_2_2591)">
<path fill-rule="evenodd" clip-rule="evenodd" d="M6.5 2H14.7L19 6.3V20.5C19 21.3284 18.3284 22 17.5 22H6.5C5.67157 22 5 21.3284 5 20.5V3.5C5 2.67157 5.67157 2 6.5 2ZM17.3 6L15 3.7V5.5C15 5.77614 15.2239 6 15.5 6H17.3ZM17.5 21H6.5C6.22386 21 6 20.7761 6 20.5V3.5C6 3.22386 6.22386 3 6.5 3H14V5.5C14 6.32843 14.6716 7 15.5 7H18V20.5C18 20.7761 17.7761 21 17.5 21ZM12 9.72691L15 9V11.7505L13 12.2505V15.8601C13 16.3555 12.6988 16.7427 12.338 16.9832C11.9737 17.2261 11.4992 17.3601 11 17.3601C10.5008 17.3601 10.0263 17.2261 9.66199 16.9832C9.30115 16.7427 9 16.3555 9 15.8601C9 15.3648 9.30115 14.9775 9.66199 14.737C10.0263 14.4941 10.5008 14.3601 11 14.3601C11.3563 14.3601 11.7 14.4284 12 14.5557V9.72691Z" />
</g>
<defs>
<clipPath id="clip0_2_2591">
<rect width="24" height="24" />
</clipPath>
</defs>
</svg>
