<svg xmlns="http://www.w3.org/2000/svg" viewBox="0 0 24 24"><defs><style>.cls-1{fill:#06c;}</style></defs><title>it-file</title><g id="Livello_14" data-name="Livello 14"><path class="cls-1" d="M19,5.41,16.59,3l-.92-.92L15.59,2H5.5A1.5,1.5,0,0,0,4,3.5v17A1.5,1.5,0,0,0,5.5,22h13A1.5,1.5,0,0,0,20,20.5V6.41Zm-.37,1H16.1a.5.5,0,0,1-.5-.5V3.42ZM18.5,21H5.5a.5.5,0,0,1-.5-.5V3.5A.5.5,0,0,1,5.5,3h9.1V6a1.5,1.5,0,0,0,1.5,1.5H19V20.5A.5.5,0,0,1,18.5,21Z"/><rect class="cls-1" x="6.98" y="13.01" width="10.02" height="1.01" rx="0.5"/><rect class="cls-1" x="6.98" y="15.99" width="10.02" height="1.01" rx="0.5"/></g></svg>