<svg width="24" height="24" viewBox="0 0 6.3500001 6.3500001" xmlns="http://www.w3.org/2000/svg">
  <path
    d="m 2.9313189,4.7696438 c -0.02196,-0.02249 -0.04101,-0.047096 -0.056621,-0.0762 -0.016404,-0.028046 -0.031221,-0.05715 -0.045508,-0.086783 -0.014817,-0.029633 -0.029898,-0.058473 -0.046037,-0.086783 -0.01561,-0.028046 -0.034925,-0.053446 -0.058208,-0.0762 -0.022754,-0.021696 -0.050535,-0.040217 -0.083079,-0.053446 -0.032544,-0.013494 -0.073025,-0.020638 -0.12065,-0.020638 -0.024077,0 -0.049477,0.00212 -0.076729,0.00635 -0.026723,0.00423 -0.055298,0.012171 -0.085725,0.023283 -0.031221,0.010583 -0.063235,0.0254 -0.097102,0.043127 -0.034131,0.018256 -0.070379,0.04154 -0.1071563,0.06985 -0.00794,-0.0127 -0.017198,-0.024606 -0.027781,-0.036777 -0.011377,-0.011906 -0.024871,-0.021696 -0.04101,-0.030956 -0.016404,-0.00926 -0.035454,-0.016139 -0.056885,-0.02196 -0.02196,-0.00503 -0.047625,-0.00767 -0.075935,-0.00767 -0.048154,0 -0.097896,0.00635 -0.1489604,0.020373 -0.050271,0.013494 -0.1008063,0.031221 -0.1518709,0.052388 -0.050271,0.021167 -0.1008062,0.044979 -0.1502833,0.071173 -0.049742,0.026723 -0.09816,0.052123 -0.1455208,0.078317 -0.046831,0.0254 -0.09234,0.049477 -0.1362605,0.071173 -0.043392,0.021167 -0.085196,0.038894 -0.1240895,0.0508 l 0.080169,0.2492375 c 0.038894,-0.0127 0.080169,-0.029633 0.1227667,-0.050271 0.042598,-0.021167 0.085725,-0.042863 0.1296458,-0.065617 0.044185,-0.023283 0.088106,-0.046567 0.1320271,-0.070379 0.044715,-0.024077 0.087312,-0.046037 0.1299104,-0.065617 0.041804,-0.019844 0.082285,-0.037571 0.12065,-0.051594 0.038365,-0.014023 0.074348,-0.02249 0.1071563,-0.026723 -7.938e-4,0.00767 -7.938e-4,0.015346 -0.00159,0.023283 -5.292e-4,0.00767 -0.00132,0.015346 -0.00212,0.02249 0,0.00767 -5.292e-4,0.01561 -5.292e-4,0.023283 -7.937e-4,0.00847 -7.937e-4,0.01614 -7.937e-4,0.024077 0,0.027517 0.00714,0.051329 0.02196,0.072496 0.014288,0.020638 0.032015,0.035454 0.053975,0.045244 0.021167,0.00979 0.044715,0.014287 0.070115,0.011906 0.024871,-0.00212 0.048419,-0.011906 0.069585,-0.029633 0.029104,-0.0254 0.060325,-0.051329 0.093133,-0.07964 0.032544,-0.02831 0.065881,-0.05424 0.099219,-0.078317 0.033338,-0.023283 0.066675,-0.043127 0.1008063,-0.059267 0.033867,-0.01561 0.066675,-0.023283 0.099219,-0.023283 0.011377,0 0.021431,0.00423 0.029104,0.0127 0.00847,0.00847 0.016404,0.020373 0.024077,0.03519 0.00794,0.01561 0.01561,0.033338 0.024871,0.05371 0.00847,0.021167 0.019315,0.043127 0.032015,0.06694 0.0127,0.024077 0.02831,0.049477 0.046831,0.075671 0.018521,0.025929 0.04101,0.052917 0.067998,0.079111 z"
    clip-rule="evenodd" fill-rule="nonzero" />
  <polygon points="28927,11013 28927,12000 32891,12000 32891,11013 " clip-rule="evenodd" fill-rule="nonzero"
    transform="matrix(2.6458334e-4,0,0,2.6458334e-4,-6.3500001,-9.845581e-8)" />
  <polygon points="28927,9042 28927,10029 36857,10029 36857,9042 " clip-rule="evenodd" fill-rule="nonzero"
    transform="matrix(2.6458334e-4,0,0,2.6458334e-4,-6.3500001,-9.845581e-8)" />
  <path
    d="m 5.3117752,2.3606125 -1.8531417,1.844675 c -0.028575,0.028046 -0.056092,0.0635 -0.082285,0.1050396 -0.026458,0.04101 -0.050535,0.08546 -0.072496,0.1312333 -0.022754,0.046567 -0.042598,0.093133 -0.059531,0.1397 -0.017727,0.046567 -0.032015,0.0889 -0.043392,0.127 -0.011377,0.0381 -0.018256,0.06985 -0.022754,0.096044 -0.00344,0.026194 -0.00344,0.04154 0.00238,0.046567 0.00476,0.00503 0.020373,0.00556 0.046831,0.00132 0.0254,-0.00344 0.057944,-0.011113 0.096308,-0.02249 0.039158,-0.010583 0.081756,-0.024606 0.1283229,-0.042333 0.047096,-0.017727 0.093927,-0.037306 0.1399646,-0.059267 0.046038,-0.02196 0.089958,-0.046567 0.1320271,-0.07276 0.041804,-0.025929 0.076465,-0.053446 0.1050396,-0.081756 L 5.6821904,2.7297041 c 0.027781,-0.027517 0.046831,-0.055033 0.059002,-0.084667 0.011377,-0.02884 0.016933,-0.057944 0.016933,-0.087577 0,-0.03519 -0.00767,-0.06985 -0.022754,-0.1021291 -0.01561,-0.032544 -0.035454,-0.062177 -0.060854,-0.087577 -0.025665,-0.0254 -0.054769,-0.045244 -0.087313,-0.06059 -0.032544,-0.01561 -0.067469,-0.022754 -0.102923,-0.022754 -0.029898,0 -0.059002,0.00556 -0.088106,0.017727 -0.029104,0.011906 -0.056621,0.030956 -0.084402,0.058473 z"
    clip-rule="evenodd" fill-rule="nonzero" />
  <path
    d="m 2.8768147,0.7305145 v 0.7495646 c 0,0.033867 0.00503,0.067733 0.014817,0.1008063 0.00926,0.033337 0.023548,0.064294 0.040481,0.092604 0.017727,0.02884 0.038894,0.055562 0.063235,0.07964 0.024606,0.024606 0.051065,0.045244 0.080169,0.062706 0.029104,0.017727 0.060325,0.031221 0.092869,0.04101 0.033338,0.00926 0.067469,0.014023 0.1021291,0.014023 H 4.0240481 L 3.8401627,1.6099895 h -0.569648 c -0.01905,0 -0.036777,-0.00291 -0.053181,-0.00926 -0.016404,-0.00635 -0.030427,-0.014817 -0.041804,-0.026987 -0.011377,-0.011112 -0.020638,-0.0254 -0.026988,-0.040746 -0.00635,-0.016404 -0.00926,-0.033867 -0.00926,-0.052917 V 0.913342 Z"
    clip-rule="evenodd" fill-rule="nonzero" />
  <path
    d="m 3.9261522,4.9990375 v 0.3931709 c 0,0.019579 -0.00344,0.037306 -0.00926,0.052917 -0.00635,0.01614 -0.01561,0.029633 -0.026988,0.040746 -0.011906,0.012171 -0.0254,0.020638 -0.04101,0.026988 -0.016404,0.00635 -0.034131,0.009 -0.053975,0.009 H 0.90990215 c -0.01905,0 -0.036777,-0.00265 -0.053181,-0.009 -0.01561,-0.00635 -0.029898,-0.014817 -0.041275,-0.026988 -0.011906,-0.011112 -0.020373,-0.024606 -0.026723,-0.040746 -0.00661,-0.01561 -0.00926,-0.033338 -0.00926,-0.052917 V 0.9577916 c 0,-0.019579 0.00265,-0.037306 0.00926,-0.052917 0.00635,-0.01614 0.014817,-0.029633 0.026723,-0.040746 0.011377,-0.012171 0.025665,-0.020638 0.041275,-0.026988 0.016404,-0.00635 0.034131,-0.009 0.053181,-0.009 H 2.9519564 L 3.9261522,1.796251 V 3.2181219 L 4.1880897,2.9575125 V 1.6883062 L 3.0612293,0.567002 H 0.90990215 c -0.034131,0 -0.068263,0.00476 -0.1013355,0.014023 -0.033338,0.00979 -0.064558,0.023283 -0.093133,0.04101 -0.029104,0.017463 -0.056092,0.0381 -0.080169,0.062706 -0.024871,0.024077 -0.045244,0.0508 -0.062971,0.079904 -0.017992,0.028046 -0.031485,0.059267 -0.041275,0.091546 -0.00926,0.033338 -0.014288,0.067204 -0.014288,0.1016 v 4.4344168 c 0,0.034396 0.00503,0.068263 0.014288,0.1016 0.00979,0.032279 0.023283,0.0635 0.041275,0.091546 0.017727,0.029104 0.0381,0.055827 0.062971,0.079904 0.024077,0.024606 0.051065,0.045244 0.080169,0.062706 0.028575,0.017727 0.059796,0.031221 0.09234,0.04101 0.033338,0.00926 0.067469,0.014023 0.1021292,0.014023 H 3.7949196 c 0.035454,0 0.069585,-0.00476 0.1021292,-0.014023 0.032544,-0.00979 0.063765,-0.023283 0.092869,-0.04101 0.029104,-0.017463 0.055298,-0.0381 0.080169,-0.062706 0.024342,-0.024077 0.045508,-0.0508 0.062442,-0.079904 0.017727,-0.028046 0.031221,-0.059267 0.041275,-0.09234 0.010054,-0.033073 0.014288,-0.06694 0.014288,-0.1008062 V 4.7378938 Z"
    clip-rule="evenodd" fill-rule="nonzero" />
</svg>
