<svg width="24" height="24" viewBox="0 0 24 24" fill="none" xmlns="http://www.w3.org/2000/svg">
<path fill-rule="evenodd" clip-rule="evenodd" d="M6.5 2H14.7L19 6.3V20.5C19 21.3284 18.3284 22 17.5 22H16V21H17.5C17.7761 21 18 20.7761 18 20.5V7H15.5C14.6716 7 14 6.32843 14 5.5V3H6.5C6.22386 3 6 3.22386 6 3.5V16H5V3.5C5 2.67157 5.67157 2 6.5 2ZM17.3 6L15 3.7V5.5C15 5.77614 15.2239 6 15.5 6H17.3Z" />
<path d="M4.21449 20.7784C4.35653 21.0246 4.61932 21.1477 5.00284 21.1477C5.38636 21.1477 5.64678 21.0246 5.78409 20.7784C5.92614 20.5275 5.99716 20.1108 5.99716 19.5284C5.99716 18.9413 5.92614 18.5152 5.78409 18.25C5.64205 17.9848 5.38163 17.8523 5.00284 17.8523C4.62405 17.8523 4.36364 17.9848 4.22159 18.25C4.07955 18.5152 4.00852 18.9413 4.00852 19.5284C4.00852 20.1108 4.07718 20.5275 4.21449 20.7784ZM6.55114 21.4034C6.25284 21.8011 5.73674 22 5.00284 22C4.26894 22 3.75047 21.8011 3.44744 21.4034C3.14915 21.0009 3 20.3736 3 19.5213C3 18.669 3.14915 18.0369 3.44744 17.625C3.75047 17.2083 4.26894 17 5.00284 17C5.73674 17 6.25284 17.2083 6.55114 17.625C6.85417 18.0369 7.00568 18.669 7.00568 19.5213C7.00568 20.3736 6.85417 21.0009 6.55114 21.4034Z" />
<path d="M9.47261 21.9148H7.84619V17.0852H9.47261C9.88928 17.0852 10.2326 17.1302 10.5024 17.2202C10.7723 17.3054 10.9807 17.4498 11.1274 17.6534C11.279 17.8523 11.3831 18.089 11.4399 18.3636C11.4968 18.6335 11.5252 18.9863 11.5252 19.4219C11.5252 19.8575 11.4991 20.2197 11.447 20.5085C11.395 20.7926 11.2955 21.0483 11.1487 21.2756C11.0067 21.4981 10.7984 21.6615 10.5237 21.7656C10.2491 21.8651 9.89875 21.9148 9.47261 21.9148ZM10.5024 19.9972C10.5119 19.8456 10.5166 19.6373 10.5166 19.3722C10.5166 19.1023 10.5072 18.8868 10.4882 18.7259C10.4693 18.5649 10.4243 18.4181 10.3533 18.2855C10.2823 18.1529 10.1757 18.063 10.0337 18.0156C9.89638 17.9635 9.70935 17.9375 9.47261 17.9375H8.8263V21.0625H9.47261C9.82773 21.0625 10.0858 20.9725 10.2468 20.7926C10.3841 20.6458 10.4693 20.3807 10.5024 19.9972Z" />
<path d="M14.1508 20.5085H13.3554V21.9148H12.3753V17.0852H14.1508C15.2967 17.0852 15.8696 17.6439 15.8696 18.7614C15.8696 19.3248 15.7228 19.758 15.4293 20.0611C15.1404 20.3594 14.7143 20.5085 14.1508 20.5085ZM13.3554 19.6705H14.1437C14.6314 19.6705 14.8753 19.3674 14.8753 18.7614C14.8753 18.4631 14.8161 18.25 14.6977 18.1222C14.5793 17.9896 14.3947 17.9233 14.1437 17.9233H13.3554V19.6705Z" />
</svg>
