<svg width="24" height="24" viewBox="0 0 24 24" fill="none" xmlns="http://www.w3.org/2000/svg">
<g clip-path="url(#clip0_2_2555)">
<path fill-rule="evenodd" clip-rule="evenodd" d="M14.7 2H6.5C5.67157 2 5 2.67157 5 3.5V16H6V3.5C6 3.22386 6.22386 3 6.5 3H14V5.5C14 6.32843 14.6716 7 15.5 7H18V20.5C18 20.7761 17.7761 21 17.5 21H16V22H17.5C18.3284 22 19 21.3284 19 20.5V6.3L14.7 2ZM15 3.7L17.3 6H15.5C15.2239 6 15 5.77614 15 5.5V3.7ZM5.00192 17C5.34036 17 5.73946 17.0447 6.19923 17.1341L6.4387 17.182L6.40038 18.0057C5.89591 17.9547 5.52235 17.9291 5.27969 17.9291C4.79438 17.9291 4.46871 18.0377 4.30268 18.2548C4.13665 18.4719 4.05364 18.8806 4.05364 19.4808C4.05364 20.0811 4.13346 20.4962 4.2931 20.7261C4.45275 20.9559 4.7848 21.0709 5.28927 21.0709L6.40996 20.9943L6.4387 21.8276C5.79374 21.9425 5.30843 22 4.98276 22C4.25479 22 3.74074 21.8052 3.44061 21.4157C3.14687 21.0198 3 20.3748 3 19.4808C3 18.5868 3.15645 17.9515 3.46935 17.5747C3.78225 17.1916 4.2931 17 5.00192 17ZM10.7719 18.092C10.0184 17.9898 9.47238 17.9387 9.13393 17.9387C8.79549 17.9387 8.55922 17.9802 8.42512 18.0632C8.29741 18.1398 8.23355 18.2644 8.23355 18.4368C8.23355 18.6092 8.30379 18.7305 8.44428 18.8008C8.59115 18.871 8.92959 18.954 9.4596 19.0498C9.996 19.1392 10.376 19.2829 10.5995 19.4808C10.823 19.6788 10.9347 20.03 10.9347 20.5345C10.9347 21.039 10.7719 21.4093 10.4462 21.6456C10.1269 21.8819 9.65756 22 9.03815 22C8.64862 22 8.15692 21.9457 7.56305 21.8372L7.26612 21.7893L7.30443 20.9176C8.07072 21.0198 8.62308 21.0709 8.96152 21.0709C9.29996 21.0709 9.53943 21.0294 9.67991 20.9464C9.82678 20.8633 9.90022 20.7261 9.90022 20.5345C9.90022 20.3429 9.82998 20.212 9.68949 20.1418C9.55539 20.0651 9.22653 19.9853 8.7029 19.9023C8.18566 19.8129 7.80571 19.6756 7.56305 19.4904C7.3204 19.3052 7.19907 18.9668 7.19907 18.4751C7.19907 17.9834 7.3651 17.6162 7.69715 17.3736C8.03559 17.1309 8.46663 17.0096 8.99026 17.0096C9.39894 17.0096 9.90022 17.0607 10.4941 17.1628L10.791 17.2203L10.7719 18.092ZM12.5237 17.1054H11.4317L12.6674 21.8946H14.5256L15.7708 17.1054H14.7076L13.7497 21.0038H13.4432L12.5237 17.1054Z" />
</g>
<defs>
<clipPath id="clip0_2_2555">
<rect width="24" height="24" />
</clipPath>
</defs>
</svg>
