<svg xmlns="http://www.w3.org/2000/svg" viewBox="0 0 24 24">
  <title>it-files</title>
  <g>
    <rect x="9.52" y="10.98" width="7.99" height="1" rx="0.5"/>
    <rect x="9.53" y="13.51" width="7.99" height="1" rx="0.5"/>
    <path d="M19,5.58,16.41,3l-.4-.4-.6-.6H8.5A1.5,1.5,0,0,0,7,3.49V5H5.5A1.49,1.49,0,0,0,4,6.51v14A1.5,1.5,0,0,0,5.5,22h10a1.5,1.5,0,0,0,1.5-1.5V19h1.5a1.49,1.49,0,0,0,1.5-1.5V8h0V6.58ZM19,7H16.51a.52.52,0,0,1-.5-.52V4ZM16,20.51a.51.51,0,0,1-.5.5H5.5a.51.51,0,0,1-.5-.5v-14A.5.5,0,0,1,5.5,6H7V17.49A1.49,1.49,0,0,0,8.5,19H16Zm3-3a.5.5,0,0,1-.5.5H8.5a.5.5,0,0,1-.5-.5v-14A.5.5,0,0,1,8.5,3H15V6.45A1.52,1.52,0,0,0,16.51,8H19Z"/>
  </g>
</svg>
