<?xml version="1.0" encoding="utf-8"?>
<!-- Generator: Adobe Illustrator 25.4.1, SVG Export Plug-In . SVG Version: 6.00 Build 0)  -->
<svg version="1.1" id="Livello_1" xmlns="http://www.w3.org/2000/svg" xmlns:xlink="http://www.w3.org/1999/xlink" x="0px" y="0px"
	 viewBox="0 0 24 24" style="enable-background:new 0 0 24 24;" xml:space="preserve">
<g transform="translate(3.000000, 3.000000)">
	<path d="M17,0H1C0.4,0,0,0.4,0,1v16c0,0.6,0.4,1,1,1h8.6v-6.9H7.3V8.3h2.3v-2c-0.1-1,0.2-1.9,0.9-2.6s1.6-1.1,2.6-1
		c0.7,0,1.4,0,2.1,0.1v2.4h-1.4c-1.1,0-1.3,0.5-1.3,1.3v1.7h2.7l-0.4,2.7h-2.3v7H17c0.6,0,1-0.4,1-1l0,0V1C18,0.4,17.6,0,17,0z"/>
</g>
</svg>
