<svg width="24" height="24" viewBox="0 0 24 24" fill="none" xmlns="http://www.w3.org/2000/svg">
<path fill-rule="evenodd" clip-rule="evenodd" d="M5.5 6C5.5 4.067 7.067 2.5 9 2.5H12.5V9.5H9C7.067 9.5 5.5 7.933 5.5 6ZM9 3.5C7.61929 3.5 6.5 4.61929 6.5 6C6.5 7.38071 7.61929 8.5 9 8.5H11.5V3.5H9Z" />
<path fill-rule="evenodd" clip-rule="evenodd" d="M18.5 6C18.5 4.067 16.933 2.5 15 2.5H11.5V9.5H15C16.933 9.5 18.5 7.933 18.5 6ZM15 3.5C16.3807 3.5 17.5 4.61929 17.5 6C17.5 7.38071 16.3807 8.5 15 8.5H12.5V3.5H15Z" />
<path fill-rule="evenodd" clip-rule="evenodd" d="M18.5 12C18.5 10.067 16.933 8.5 15 8.5C13.067 8.5 11.5 10.067 11.5 12C11.5 13.933 13.067 15.5 15 15.5C16.933 15.5 18.5 13.933 18.5 12ZM15 9.5C16.3807 9.5 17.5 10.6193 17.5 12C17.5 13.3807 16.3807 14.5 15 14.5C13.6193 14.5 12.5 13.3807 12.5 12C12.5 10.6193 13.6193 9.5 15 9.5Z" />
<path fill-rule="evenodd" clip-rule="evenodd" d="M5.5 12C5.5 10.067 7.067 8.5 9 8.5H12.5V15.5H9C7.067 15.5 5.5 13.933 5.5 12ZM9 9.5C7.61929 9.5 6.5 10.6193 6.5 12C6.5 13.3807 7.61929 14.5 9 14.5H11.5V9.5H9Z" />
<path fill-rule="evenodd" clip-rule="evenodd" d="M5.5 18C5.5 16.067 7.067 14.5 9 14.5H12.5V18C12.5 19.933 10.933 21.5 9 21.5C7.067 21.5 5.5 19.933 5.5 18ZM9 15.5C7.61929 15.5 6.5 16.6193 6.5 18C6.5 19.3807 7.61929 20.5 9 20.5C10.3807 20.5 11.5 19.3807 11.5 18V15.5H9Z" />
</svg>
