<svg width="24" height="24" viewBox="0 0 24 24" fill="none" xmlns="http://www.w3.org/2000/svg">
<path fill-rule="evenodd" clip-rule="evenodd" d="M6.5 2H14.7L19 6.3V20.5C19 21.3284 18.3284 22 17.5 22H17V21H17.5C17.7761 21 18 20.7761 18 20.5V7H15.5C14.6716 7 14 6.32843 14 5.5V3H6.5C6.22386 3 6 3.22386 6 3.5V16H5V3.5C5 2.67157 5.67157 2 6.5 2ZM17.3 6L15 3.7V5.5C15 5.77614 15.2239 6 15.5 6H17.3Z"/>
<path d="M3.11917 17L4.04085 18.8382L4.98446 17H6.03049L4.59678 19.5515L6.03049 22H4.91132L3.98964 20.2721L3.04603 22H2L3.43371 19.6029L2 17H3.11917Z"/>
<path d="M6.64008 22V17H8.35907L9.23686 20.6471L10.1146 17H11.8336V22H10.8242V18.1324H10.7145L9.74158 21.7794H8.73213L7.75925 18.1324H7.64953V22H6.64008Z"/>
<path d="M15.75 22H12.9191V17H13.9286V21.1029H15.75V22Z"/>
</svg>
