<svg width="24" height="24" viewBox="0 0 24 24" fill="none" xmlns="http://www.w3.org/2000/svg">
<path fill-rule="evenodd" clip-rule="evenodd" d="M6.5 2H14.7L19 6.3V20.5C19 21.3284 18.3284 22 17.5 22H6.5C5.67157 22 5 21.3284 5 20.5V3.5C5 2.67157 5.67157 2 6.5 2ZM17.3 6L15 3.7V5.5C15 5.77614 15.2239 6 15.5 6H17.3ZM17.5 21H6.5C6.22386 21 6 20.7761 6 20.5V3.5C6 3.22386 6.22386 3 6.5 3H14V5.5C14 6.32843 14.6716 7 15.5 7H18V20.5C18 20.7761 17.7761 21 17.5 21ZM8.50386 9.43798C8.53514 9.18777 8.74784 9 9 9H15C15.2522 9 15.4649 9.18777 15.4961 9.43798L15.9961 13.438C16.0139 13.5803 15.9698 13.7234 15.8748 13.8309C15.7799 13.9384 15.6434 14 15.5 14H12.5V16H14V17H10V16H11.5V14H8.5C8.35659 14 8.22008 13.9384 8.12516 13.8309C8.03025 13.7234 7.98608 13.5803 8.00386 13.438L8.50386 9.43798ZM11 10.2208V12.7792C11 12.8764 11.106 12.9364 11.1893 12.8864L13.3214 11.6072C13.4023 11.5586 13.4023 11.4414 13.3214 11.3928L11.1893 10.1136C11.106 10.0636 11 10.1236 11 10.2208Z" />
</svg>
