<svg xmlns="http://www.w3.org/2000/svg" xmlns:xlink="http://www.w3.org/1999/xlink" viewBox="0 0 24 24">
  <title>it-hear</title>
  <path d="M14.83,21.35a3.06,3.06,0,0,1-3.19-3.15c-.06-1.08-1.79-2.67-2.49-3.29-1.41-1.26-2.91-2.79-2.91-5.06A5.87,5.87,0,0,1,12.11,4,6,6,0,0,1,18,10H17a5,5,0,0,0-4.89-5A4.87,4.87,0,0,0,7.25,9.85c0,1.85,1.27,3.14,2.57,4.3s2.75,2.67,2.83,4a2.07,2.07,0,0,0,2.18,2.2A2.19,2.19,0,0,0,17,18h1A3.25,3.25,0,0,1,14.83,21.35Z"/>
  <circle cx="12.02" cy="9.5" r="2"/>
  <path d="M5.31,14.44a6.67,6.67,0,0,1-2-4.3A7.41,7.41,0,0,1,7,3.28l.5.86a6.44,6.44,0,0,0-3.19,6A5.85,5.85,0,0,0,6,13.77Z"/>
</svg>
