<svg xmlns="http://www.w3.org/2000/svg" viewBox="0 0 24 24"><title>it-help-circle</title><g><path d="M12,3a9,9,0,1,1-9,9,9,9,0,0,1,9-9m0-1A10,10,0,1,0,22,12,10,10,0,0,0,12,2Z"/><path d="M11.89,15.2a.88.88,0,0,0-1,.91.9.9,0,0,0,.25.64.92.92,0,0,0,.7.25,1,1,0,0,0,.71-.25.86.86,0,0,0,.25-.64.88.88,0,0,0-.25-.65A1,1,0,0,0,11.89,15.2Z"/><path d="M14.83,8.48a2.2,2.2,0,0,0-.6-.81,2.73,2.73,0,0,0-1-.5A4.51,4.51,0,0,0,12,7a4.2,4.2,0,0,0-1.2.16,2.9,2.9,0,0,0-1,.49,2.45,2.45,0,0,0-.65.81,2.52,2.52,0,0,0-.24,1.08h0v0h0a.78.78,0,0,0,.78.76h0a.79.79,0,0,0,.79-.76h0A1.22,1.22,0,0,1,10.67,9,1.1,1.1,0,0,1,11,8.63a1.4,1.4,0,0,1,.46-.22A2.33,2.33,0,0,1,12,8.34a1.53,1.53,0,0,1,1.06.33,1.25,1.25,0,0,1,.37,1,1.39,1.39,0,0,1-.12.57,2.67,2.67,0,0,1-.32.53,4,4,0,0,1-.42.5l-.46.46a6.52,6.52,0,0,0-.52.5,1.63,1.63,0,0,0-.28.47,2.2,2.2,0,0,0-.12.57c0,.21,0,.48,0,.8h1.51c0-.18,0-.34,0-.46a1.1,1.1,0,0,1,.06-.37,1,1,0,0,1,.16-.33,2.7,2.7,0,0,1,.3-.36q.33-.29.66-.6a5.43,5.43,0,0,0,.59-.68,3.3,3.3,0,0,0,.43-.78A2.35,2.35,0,0,0,15,9.59,2.82,2.82,0,0,0,14.83,8.48Z"/></g></svg>
