<?xml version="1.0" encoding="utf-8"?>
<!-- Generator: Adobe Illustrator 25.4.1, SVG Export Plug-In . SVG Version: 6.00 Build 0)  -->
<svg version="1.1" id="Livello_1" xmlns="http://www.w3.org/2000/svg" xmlns:xlink="http://www.w3.org/1999/xlink" x="0px" y="0px"
	 viewBox="0 0 24 24" style="enable-background:new 0 0 24 24;" xml:space="preserve">
<g>
	<path d="M5,9c-1.7,0-3,1.3-3,3s1.3,3,3,3h0.5L7,19.3c0.3,1,1.3,1.7,2.3,1.7h0.2c0.5,0,0.9-0.2,1.2-0.6c0.3-0.4,0.4-0.9,0.2-1.4
		l-1.3-4h1.8l8.6,3.8V4.7L11.4,9H5z M10,19.3c0,0.2,0,0.4-0.1,0.5L9.5,20H9.3c-0.6,0-1.2-0.4-1.4-1l-1.3-4h1.9L10,19.3z M5,14
		c-1.1,0-2-0.9-2-2s0.9-2,2-2h6v4H5z M19,17.2l-7-3V9.8l7-3.5V17.2z M22,9v6h-1V9H22z"/>
</g>
</svg>
