<?xml version="1.0" encoding="utf-8"?>
<!-- Generator: Adobe Illustrator 25.4.1, SVG Export Plug-In . SVG Version: 6.00 Build 0)  -->
<svg version="1.1" id="Livello_1" xmlns="http://www.w3.org/2000/svg" xmlns:xlink="http://www.w3.org/1999/xlink" x="0px" y="0px"
	 viewBox="0 0 24 24" style="enable-background:new 0 0 24 24;" xml:space="preserve">
<g>
	<path d="M20,9L20,9c0,2.5-1.3,4.8-3.5,6l-2,1.1c-0.9,0.6-1.5,1.6-1.5,2.7c0,1.8-1.4,3.2-3.2,3.2l0,0H9.2c-1.3-0.1-2.5-0.9-3-2.1
		l0.9-0.5C7.4,20.3,8.2,21,9.2,21h0.6c0.6,0,1.2-0.2,1.6-0.7c0.4-0.4,0.6-0.9,0.6-1.5c0-1.4,0.8-2.8,2-3.5l2-1.2c1.8-1,3-3,3-5.1
		c0-3.3-2.7-6-6-6l0,0c-1.9,0-3.7,0.9-4.8,2.4L7.4,4.8C8.7,3,10.8,2,13,2l0,0C16.9,2,20,5.1,20,9z M7.5,12C7.5,9,5,6.5,2,6.5v1
		c2.5,0,4.5,2,4.5,4.5s-2,4.5-4.5,4.5v1C5,17.5,7.5,15,7.5,12z M5,12c0.1-1.6-1.2-2.9-2.8-3C2.1,9,2.1,9,2,9v1c1.1,0,2,0.9,2,2
		s-0.9,2-2,2v1c1.6,0.1,2.9-1.2,3-2.8C5,12.1,5,12.1,5,12z M10,12c0-4.4-3.6-8-8-8v1c3.9,0,7,3.1,7,7s-3.1,7-7,7v1
		C6.4,20,10,16.4,10,12z M15.9,12.3c0.8-0.9,1.2-2,1.2-3.2c0-1.2-0.4-2.3-1.2-3.2c-0.8-0.9-2-1.4-3.2-1.4C11.5,4.6,10.3,5.1,9.5,6
		L9.2,6.3l0.2,0.3c0.6,0.9,1.1,1.9,1.3,3V10h0.4c0.8,0,1.5,0.7,1.5,1.5S11.9,13,11.1,13v1c1.4,0,2.5-1.1,2.5-2.5
		c0-1.2-0.8-2.2-2-2.5c-0.2-0.9-0.6-1.8-1.1-2.6c0.6-0.5,1.4-0.8,2.2-0.9c0.9,0,1.8,0.4,2.4,1c0.7,0.7,1,1.6,1,2.6
		c0,1-0.3,1.9-1,2.6L15.9,12.3z"/>
</g>
</svg>
