<?xml version="1.0" encoding="utf-8"?>
<!-- Generator: Adobe Illustrator 25.4.1, SVG Export Plug-In . SVG Version: 6.00 Build 0)  -->
<svg version="1.1" id="Livello_1" xmlns="http://www.w3.org/2000/svg" xmlns:xlink="http://www.w3.org/1999/xlink" x="0px" y="0px"
	 viewBox="0 0 24 24" style="enable-background:new 0 0 24 24;" xml:space="preserve">
<g>
	<path d="M12.8,22h-1.4v-2.1h1.4L12.8,22z M12.7,17.1h-1.2c-0.1-0.6-0.1-1.1-0.1-1.7c0-0.4,0.1-0.8,0.3-1.2c0.2-0.5,0.4-0.9,0.7-1.3
		l2.3-2.1c0.7-0.6,1.3-1.3,1.8-2.1C16.9,8,17,7.2,17,6.4c0.1-1-0.3-2-1.1-2.6c-1-0.6-2.2-0.8-3.4-0.7c-1.2,0.1-2.4,0.2-3.6,0.5
		l-1,0.3L7.7,2.7h0.1c1.5-0.5,3.1-0.7,4.7-0.8c1.5-0.1,3,0.2,4.3,1c1,0.9,1.5,2.2,1.4,3.5c0.1,0.9-0.1,1.9-0.5,2.7
		c-0.5,0.8-1.1,1.6-1.9,2.2c-0.6,0.5-1.2,1-1.8,1.6c-0.3,0.4-0.6,0.8-0.9,1.2c-0.3,0.4-0.4,0.9-0.4,1.4L12.7,17.1z"/>
</g>
</svg>
