<svg xmlns="http://www.w3.org/2000/svg" viewBox="0 0 24 24"><title>it-horn</title><g><path d="M19.68,4a1.14,1.14,0,0,0-.68.23L15.36,6.85,15.18,7H7a4,4,0,0,0-.39,8V19.5A1.5,1.5,0,0,0,8.12,21h1a1.5,1.5,0,0,0,1.5-1.5V15H15.2l.14.1L19,17.72a1.14,1.14,0,0,0,.68.23A1.57,1.57,0,0,0,21,16.23V5.73A1.57,1.57,0,0,0,19.68,4ZM9.62,19.5a.5.5,0,0,1-.5.5h-1a.5.5,0,0,1-.5-.5V15h2ZM15,8.34V14H6.93A3,3,0,0,1,7,8h5.87v6h1V8H15ZM20,11v5.25c0,.48-.27.72-.38.72a.21.21,0,0,1-.1,0L16,14.33V7.62L19.58,5s.07,0,.1,0a.22.22,0,0,1,.15.09.85.85,0,0,1,.22.63Z"/></g></svg>
