<svg xmlns="http://www.w3.org/2000/svg" viewBox="0 0 24 24"><title>it-help</title><g><path d="M11.76,19a1,1,0,0,0-.76.3,1,1,0,0,0-.28.72.94.94,0,0,0,.28.69,1,1,0,0,0,.76.28,1,1,0,0,0,.76-.28.88.88,0,0,0,.29-.69,1,1,0,0,0-.29-.72A1,1,0,0,0,11.76,19Z"/><path d="M16.54,5.64a3.92,3.92,0,0,0-1-1.43,4.21,4.21,0,0,0-1.5-.92,6,6,0,0,0-2-.32,5.74,5.74,0,0,0-1.93.31,4.76,4.76,0,0,0-1.56.88,4.22,4.22,0,0,0-1,1.38,4.41,4.41,0,0,0-.42,1.8h0a.73.73,0,1,0,1.45,0h0A3.2,3.2,0,0,1,8.88,6a2.93,2.93,0,0,1,.76-1,3.44,3.44,0,0,1,1.1-.6,4.52,4.52,0,0,1,1.34-.2,3.84,3.84,0,0,1,1.4.23,2.79,2.79,0,0,1,1,.65,2.83,2.83,0,0,1,.67,1,3.8,3.8,0,0,1,.23,1.34,3.74,3.74,0,0,1-.21,1.28,4.56,4.56,0,0,1-.56,1.1,8.07,8.07,0,0,1-.79,1c-.3.32-.61.62-.92.92a10,10,0,0,0-.92.93,3.93,3.93,0,0,0-.59.91,4.08,4.08,0,0,0-.32,1A8.18,8.18,0,0,0,11,16h1.46a7.06,7.06,0,0,1,.06-1,3.84,3.84,0,0,1,.22-.84,3.57,3.57,0,0,1,.41-.74,4.32,4.32,0,0,1,.66-.72c.39-.33.77-.69,1.14-1.06a8.13,8.13,0,0,0,1-1.22,6.33,6.33,0,0,0,.68-1.38,4.56,4.56,0,0,0,.26-1.58A4.78,4.78,0,0,0,16.54,5.64Z"/></g></svg>
