<svg xmlns="http://www.w3.org/2000/svg" viewBox="0 0 24 24"><title>it-instagram</title><g><path d="M12,4.62c2.4,0,2.69,0,3.64,0A5.12,5.12,0,0,1,17.31,5a2.77,2.77,0,0,1,1,.68,2.77,2.77,0,0,1,.68,1,5.12,5.12,0,0,1,.31,1.67c0,1,.05,1.24.05,3.64s0,2.69-.05,3.64A5.12,5.12,0,0,1,19,17.31,3.08,3.08,0,0,1,17.31,19a5.12,5.12,0,0,1-1.67.31c-1,0-1.24.05-3.64.05s-2.69,0-3.64-.05A5.12,5.12,0,0,1,6.69,19a2.77,2.77,0,0,1-1-.68,2.77,2.77,0,0,1-.68-1,5.12,5.12,0,0,1-.31-1.67c0-1,0-1.24,0-3.64s0-2.69,0-3.64A5.12,5.12,0,0,1,5,6.69a2.77,2.77,0,0,1,.68-1,2.77,2.77,0,0,1,1-.68,5.12,5.12,0,0,1,1.67-.31c1,0,1.24,0,3.64,0M12,3c-2.44,0-2.75,0-3.71,0a6.9,6.9,0,0,0-2.19.42A4.64,4.64,0,0,0,3.47,6.1a6.9,6.9,0,0,0-.42,2.19c0,1,0,1.27,0,3.71s0,2.75,0,3.71a6.9,6.9,0,0,0,.42,2.19A4.64,4.64,0,0,0,6.1,20.53,6.9,6.9,0,0,0,8.29,21c1,0,1.27.05,3.71.05s2.75,0,3.71-.05a6.9,6.9,0,0,0,2.19-.42,4.64,4.64,0,0,0,2.63-2.63A6.9,6.9,0,0,0,21,15.71c0-1,.05-1.27.05-3.71S21,9.25,21,8.29a6.9,6.9,0,0,0-.42-2.19A4.64,4.64,0,0,0,17.9,3.47a6.9,6.9,0,0,0-2.19-.42c-1,0-1.27,0-3.71,0Z"/><path d="M12,7.38A4.62,4.62,0,1,0,16.62,12,4.62,4.62,0,0,0,12,7.38ZM12,15a3,3,0,1,1,3-3A3,3,0,0,1,12,15Z"/><circle cx="16.8" cy="7.2" r="1.08"/></g></svg>
