<?xml version="1.0" encoding="utf-8"?>
<!-- Generator: Adobe Illustrator 25.4.1, SVG Export Plug-In . SVG Version: 6.00 Build 0)  -->
<svg version="1.1" id="Livello_1" xmlns="http://www.w3.org/2000/svg" xmlns:xlink="http://www.w3.org/1999/xlink" x="0px" y="0px"
	 viewBox="0 0 24 24" style="enable-background:new 0 0 24 24;" xml:space="preserve">
<path d="M12,4.6L12,4.6C9.6,4.7,9.4,4.7,8.4,4.7C7.8,4.7,7.2,4.8,6.7,5C6.3,5.2,6,5.4,5.7,5.7C5.4,6,5.2,6.3,5,6.7
	C4.8,7.2,4.7,7.8,4.7,8.4c0,0.9,0,1.2,0,3.6s0,2.6,0,3.6c0,0.6,0.1,1.1,0.3,1.7c0.2,0.4,0.4,0.7,0.7,1c0.3,0.3,0.6,0.5,1,0.7
	c0.5,0.2,1.1,0.3,1.7,0.3c1,0.1,1.2,0.1,3.6,0.1s2.6-0.1,3.6-0.1c0.6,0,1.1-0.1,1.7-0.3c0.8-0.3,1.4-0.9,1.7-1.7
	c0.2-0.5,0.3-1.1,0.3-1.7c0.1-0.9,0.1-1.2,0.1-3.6s-0.1-2.6-0.1-3.6c0-0.6-0.1-1.1-0.3-1.7c-0.2-0.4-0.4-0.7-0.7-1
	c-0.3-0.3-0.6-0.5-1-0.7c-0.5-0.2-1.1-0.3-1.7-0.4C14.7,4.6,14.4,4.6,12,4.6z M12,3L12,3c2.4,0,2.7,0,3.7,0c0.7,0,1.5,0.2,2.2,0.4
	c1.2,0.5,2.2,1.4,2.7,2.6C20.8,6.8,21,7.5,21,8.3c0,1,0,1.3,0,3.7s0,2.7,0,3.7c0,0.8-0.2,1.5-0.5,2.2c-0.5,1.2-1.4,2.2-2.6,2.6
	c-0.7,0.3-1.4,0.4-2.2,0.4c-1,0-1.3,0-3.7,0s-2.7,0-3.7,0c-0.8,0-1.5-0.2-2.2-0.5c-1.2-0.5-2.2-1.4-2.6-2.6
	c-0.3-0.7-0.4-1.4-0.4-2.2c0-1,0-1.3,0-3.7s0-2.7,0-3.7c0-0.7,0.2-1.5,0.4-2.2c0.5-1.2,1.4-2.2,2.6-2.7C6.8,3.2,7.5,3,8.3,3
	C9.3,3,9.6,3,12,3z M12,7.4c1.2,0,2.4,0.5,3.3,1.4s1.4,2,1.4,3.3c0,2.6-2.1,4.6-4.6,4.6S7.4,14.6,7.4,12S9.4,7.4,12,7.4z M12,15
	c0.8,0,1.6-0.3,2.1-0.9c0.6-0.6,0.9-1.3,0.9-2.1c0-1.7-1.3-3-3-3s-3,1.3-3,3S10.3,15,12,15z M16.8,8.3c-0.6,0-1.1-0.5-1.1-1.1
	s0.5-1.1,1.1-1.1c0.6,0,1.1,0.5,1.1,1.1S17.4,8.3,16.8,8.3z"/>
</svg>
