<svg xmlns="http://www.w3.org/2000/svg" viewBox="0 0 24 24">
  <title>it-key</title>
  <g>
    <path
      d="M12,5.75A1.75,1.75,0,1,1,10.25,7.5,1.75,1.75,0,0,1,12,5.75m0-1A2.75,2.75,0,1,0,14.75,7.5,2.75,2.75,0,0,0,12,4.75Z"/>
    <path
      d="M12,3a4.51,4.51,0,0,1,4.5,4.5,4.46,4.46,0,0,1-2.46,4l-.54.28v8.68l-1,.49-1.68-1.48.44-.69.35-.54-.34-.54-.56-.88.56-.85.37-.56-.37-.55L10.7,14l.47-.75.69-1.09-1.23-.39a4.54,4.54,0,0,1-3-5.2A4.46,4.46,0,0,1,11,3.1,4.73,4.73,0,0,1,12,3m0-1a6,6,0,0,0-1.18.12,5.5,5.5,0,0,0-.49,10.62l-.72,1.14a.29.29,0,0,0,0,.32l.81,1.21-.82,1.24a.27.27,0,0,0,0,.32l.8,1.27-.77,1.19a.3.3,0,0,0,0,.39l2.38,2.1a.85.85,0,0,0,.72,0l1.71-.84V12.4A5.5,5.5,0,0,0,12,2Z"/>
  </g>
</svg>
