<?xml version="1.0" encoding="utf-8"?>
<!-- Generator: Adobe Illustrator 25.4.1, SVG Export Plug-In . SVG Version: 6.00 Build 0)  -->
<svg version="1.1" id="Livello_1" xmlns="http://www.w3.org/2000/svg" xmlns:xlink="http://www.w3.org/1999/xlink" x="0px" y="0px"
	 viewBox="0 0 24 24" style="enable-background:new 0 0 24 24;" xml:space="preserve">
<g>
	<path d="M18,10c-1.1,0-2,0.9-2,2s0.9,2,2,2s2-0.9,2-2S19.1,10,18,10z M18,13c-0.6,0-1-0.4-1-1s0.4-1,1-1s1,0.4,1,1
		c0.1,0.5-0.3,0.9-0.8,1C18.1,13,18.1,13,18,13z M17,7c-2,0-3.8,1.2-4.6,3H3.3l-2,2l3,3H7v-1h0.3l1,1H11v-1h1.4c0.8,1.8,2.6,3,4.6,3
		c2.8,0,5-2.2,5-5S19.8,7,17,7z M17,16c-1.7,0-3.2-1.1-3.8-2.7V13H10v1H8.7l-1-1H6v1H4.7l-2-2l1-1h9.4v-0.3C13.7,9.1,15.3,8,17,8
		c2.2,0,4,1.8,4,4S19.2,16,17,16z"/>
</g>
</svg>
