<?xml version="1.0" encoding="utf-8"?>
<!-- Generator: Adobe Illustrator 25.4.1, SVG Export Plug-In . SVG Version: 6.00 Build 0)  -->
<svg version="1.1" id="Livello_1" xmlns="http://www.w3.org/2000/svg" xmlns:xlink="http://www.w3.org/1999/xlink" x="0px" y="0px"
	 viewBox="0 0 24 24" style="enable-background:new 0 0 24 24;" xml:space="preserve">
<g>
	<path d="M13.4,13.4l-0.7-0.7c0.6-0.5,0.9-1.3,0.9-2.1c0-0.8-0.3-1.6-0.9-2.1L9.2,4.9C8,3.8,6.1,3.8,4.9,4.9C3.8,6.1,3.8,8,4.9,9.2
		L7.8,12l-0.7,0.7L4.2,9.9c-1.5-1.6-1.5-4.1,0-5.7c1.6-1.5,4.1-1.5,5.7,0l3.5,3.6c0.8,0.7,1.2,1.7,1.2,2.8
		C14.6,11.7,14.2,12.7,13.4,13.4z M19.8,19.8c1.5-1.6,1.5-4.1,0-5.7l-2.9-2.8L16.2,12l2.9,2.8c1.1,1.2,1.1,3.1,0,4.3
		c-1.2,1.1-3.1,1.1-4.3,0l-3.5-3.6c-0.6-0.5-0.9-1.3-0.9-2.1c0-0.8,0.3-1.6,0.9-2.1l-0.7-0.7c-0.8,0.7-1.2,1.7-1.2,2.8
		c0,1.1,0.4,2.1,1.2,2.8l3.5,3.6c0.7,0.7,1.8,1.1,2.8,1.1C18,21,19,20.6,19.8,19.8z"/>
</g>
</svg>
