<svg width="24" height="24" viewBox="0 0 24 24" xmlns="http://www.w3.org/2000/svg">
  <path d="M16.5,8.7c-1.4,0-2.8,0.7-3.5,1.9l0,0V9H9.4v12h3.7v-5.9c0-1.6,0.3-3.1,2.2-3.1s1.9,1.8,1.9,3.2V21H21v-6.6
    C21,11.2,20.3,8.7,16.5,8.7z M5.2,3C4,3,3,4,3,5.2c0,1.2,1,2.2,2.2,2.2s2.2-1,2.2-2.2c0-0.6-0.2-1.1-0.6-1.5C6.3,3.2,5.7,3,5.2,3z
     M3.3,9v12H7V9H3.3z M16.5,8.7c-1.4-0.1-2.8,0.7-3.5,1.9l0,0V9H9.4v12h3.7v-5.9c0-1.6,0.3-3.1,2.2-3.1s1.9,1.8,1.9,3.2V21H21v-6.6
    C21,11.2,20.3,8.7,16.5,8.7L16.5,8.7z M3.3,21H7V9H3.3V21z M5.2,3C4,3,3,4,3,5.2c0,1.2,1,2.2,2.2,2.2s2.2-1,2.2-2.2
    c0-0.6-0.2-1.1-0.6-1.5C6.3,3.2,5.7,3,5.2,3z" />
</svg>
