<?xml version="1.0" encoding="utf-8"?>
<!-- Generator: Adobe Illustrator 25.4.1, SVG Export Plug-In . SVG Version: 6.00 Build 0)  -->
<svg version="1.1" id="Livello_1" xmlns="http://www.w3.org/2000/svg" xmlns:xlink="http://www.w3.org/1999/xlink" x="0px" y="0px"
	 viewBox="0 0 24 24" style="enable-background:new 0 0 24 24;" xml:space="preserve">
<g>
	<path d="M18.5,8.5H17V8l0,0c0-2.8-2.2-5-5-5S7,5.2,7,8v0.5H5.5C4.7,8.5,4,9.2,4,10v8.5C4,19.3,4.7,20,5.5,20h13
		c0.8,0,1.5-0.7,1.5-1.5V10C20,9.2,19.3,8.5,18.5,8.5z M8,8c0-2.2,1.8-4,4-4s4,1.8,4,4v0.5H8V8z M19,18.5c0,0.3-0.2,0.5-0.5,0.5h-13
		C5.2,19,5,18.8,5,18.5V10c0-0.3,0.2-0.5,0.5-0.5h13c0.3,0,0.5,0.2,0.5,0.5V18.5z"/>
	<path d="M12,13.3c0.6,0,1,0.4,1,1s-0.4,1-1,1s-1-0.4-1-1S11.4,13.3,12,13.3 M12,12.3c-1.1,0-2,0.9-2,2s0.9,2,2,2s2-0.9,2-2
		S13.1,12.3,12,12.3z"/>
</g>
</svg>
