<svg xmlns="http://www.w3.org/2000/svg" viewBox="0 0 24 24"><defs><style>.cls-1{fill:#06c;}</style></defs><title>it-link</title><g id="Layer_44" data-name="Layer 44"><path class="cls-1" d="M8.22,19.79a4,4,0,0,1-2.83-6.85l2.48-2.48a4,4,0,0,1,6.29.79.5.5,0,0,1-.86.51,3,3,0,0,0-.46-.6,3.08,3.08,0,0,0-4.26,0L6.09,13.65a3,3,0,1,0,4.26,4.26L12.25,16a.49.49,0,1,1,.7.7l-1.89,1.89A4,4,0,0,1,8.22,19.79Z"/><path class="cls-1" d="M13.29,14.72a4,4,0,0,1-3.46-2,.5.5,0,0,1,.86-.51,3,3,0,0,0,4.73.61l2.49-2.49a3,3,0,1,0-4.26-4.26L11.76,8a.5.5,0,0,1-.71,0,.48.48,0,0,1,0-.7l1.89-1.89a4,4,0,0,1,5.67,5.67l-2.48,2.48A4,4,0,0,1,13.29,14.72Z"/></g></svg>