<svg xmlns="http://www.w3.org/2000/svg" viewBox="0 0 24 24"><title>it-linkedin</title><g><path d="M16.53,8.68A3.94,3.94,0,0,0,13,10.62H13V9H9.37V21H13.1V15.05c0-1.57.29-3.09,2.24-3.09s1.93,1.8,1.93,3.19V21H21V14.4C21,11.17,20.31,8.68,16.53,8.68ZM5.16,3A2.17,2.17,0,1,0,7.32,5.18,2.16,2.16,0,0,0,5.16,3ZM3.29,9V21H7V9Zm13.24-.3A3.94,3.94,0,0,0,13,10.62H13V9H9.37V21H13.1V15.05c0-1.57.29-3.09,2.24-3.09s1.93,1.8,1.93,3.19V21H21V14.4C21,11.17,20.31,8.68,16.53,8.68ZM3.29,21H7V9H3.29ZM5.16,3A2.17,2.17,0,1,0,7.32,5.18,2.16,2.16,0,0,0,5.16,3Z"/></g></svg>
