<svg width="24px" height="24px" viewBox="0 0 24 24" version="1.1"
     xmlns="http://www.w3.org/2000/svg">
  <title>Logo Linkedin Square</title>
  <g stroke="none" stroke-width="1">
    <g>
      <rect x="0" y="0" width="24" height="24" fill="none"></rect>
    </g>
    <path
      d="M19.67,3 L4.33,3 C3.60483395,2.99442324 3.01096625,3.57489542 3,4.3 L3,19.7 C3.01096625,20.4251046 3.60483395,21.0055768 4.33,21 L19.67,21 C20.3951661,21.0055768 20.9890338,20.4251046 21,19.7 L21,4.3 C20.9890338,3.57489542 20.3951661,2.99442324 19.67,3 Z M8.34,18.34 L5.67,18.34 L5.67,9.75 L8.34,9.75 L8.34,18.34 Z M7,8.57 C6.14657783,8.56992895 5.45376637,7.87999529 5.45014301,7.02658081 C5.44651965,6.17316634 6.13344771,5.47737469 6.98683851,5.47005699 C7.8402293,5.46273929 8.5389881,6.14664888 8.55,7 C8.55810198,7.41534645 8.3980564,7.8163491 8.10619525,8.1119762 C7.81433409,8.4076033 7.41541619,8.57277658 7,8.57 L7,8.57 Z M18.34,18.34 L15.67,18.34 L15.67,14.16 C15.67,13.16 15.67,11.88 14.28,11.88 C12.89,11.88 12.68,12.97 12.68,14.09 L12.68,18.34 L10,18.34 L10,9.75 L12.56,9.75 L12.56,10.92 L12.56,10.92 C13.0858651,10.0290499 14.0559914,9.49605567 15.09,9.53 C17.79,9.53 18.29,11.31 18.29,13.63 L18.34,18.34 Z"
    ></path>
  </g>
</svg>
