<svg xmlns="http://www.w3.org/2000/svg" width="24" height="24" viewBox="0 0 24 24">
  <title>Lock</title>
  <g>
    <path d="M18.5,8.5H17V8h0A5,5,0,0,0,7,8V8.5H5.5A1.5,1.5,0,0,0,4,10v8.5A1.5,1.5,0,0,0,5.5,20h13A1.5,1.5,0,0,0,20,18.5V10A1.5,1.5,0,0,0,18.5,8.5ZM8,8a4,4,0,0,1,8,0V8.5H8ZM19,18.5a.5.5,0,0,1-.5.5H5.5a.5.5,0,0,1-.5-.5V10a.5.5,0,0,1,.5-.5h13a.5.5,0,0,1,.5.5Z"/>
    <path d="M12,13.25a1,1,0,1,1-1,1,1,1,0,0,1,1-1m0-1a2,2,0,1,0,2,2,2,2,0,0,0-2-2Z"/>
  </g>
  <g>
    <rect width="24" height="24" fill="none"/>
  </g>
</svg>
