<?xml version="1.0" encoding="utf-8"?>
<!-- Generator: Adobe Illustrator 25.4.1, SVG Export Plug-In . SVG Version: 6.00 Build 0)  -->
<svg version="1.1" id="Livello_1" xmlns="http://www.w3.org/2000/svg" xmlns:xlink="http://www.w3.org/1999/xlink" x="0px" y="0px"
	 viewBox="0 0 24 24" style="enable-background:new 0 0 24 24;" xml:space="preserve">
<g>
	<path d="M4,12c0.1,0.5-0.3,0.9-0.8,1c-0.1,0-0.1,0-0.2,0c-0.6,0-1-0.4-1-1s0.4-1,1-1c0.5-0.1,0.9,0.3,1,0.8C4,11.9,4,11.9,4,12z
		 M3,4.5C2.5,4.4,2.1,4.8,2,5.3c0,0.1,0,0.1,0,0.2C1.9,6,2.3,6.4,2.8,6.5c0.1,0,0.1,0,0.2,0c0.5,0.1,0.9-0.3,1-0.8
		c0-0.1,0-0.1,0-0.2c0.1-0.5-0.3-0.9-0.8-1C3.1,4.5,3.1,4.5,3,4.5z M3,17.5c-0.6,0-1,0.4-1,1s0.4,1,1,1s1-0.4,1-1S3.6,17.5,3,17.5z
		 M6,5v1h16V5H6z M6,12.5h16v-1H6V12.5z M6,19h16v-1H6V19z"/>
</g>
</svg>
