<svg width="24px" height="24px" viewBox="0 0 24 24" version="1.1"
     xmlns="http://www.w3.org/2000/svg">
  <title>Logo Linkedin</title>
  <g stroke="none" stroke-width="1">
    <g>
      <rect x="0" y="0" width="24" height="24"
            fill="none"></rect>
    </g>
    <path
      d="M16.53,8.68 C15.0867199,8.63087991 13.7322181,9.37528033 13,10.62 L13,10.62 L13,9 L9.37,9 L9.37,21 L13.1,21 L13.1,15.05 C13.1,13.48 13.39,11.96 15.34,11.96 C17.29,11.96 17.27,13.76 17.27,15.15 L17.27,21 L21,21 L21,14.4 C21,11.17 20.31,8.68 16.53,8.68 Z M5.16,3 C3.96156076,2.99448996 2.98556467,3.96154565 2.98004615,5.15998485 C2.97452763,6.35842405 3.94157641,7.33442699 5.14001557,7.33995399 C6.33845474,7.34548099 7.31446451,6.37843912 7.32,5.18 C7.32533657,4.60367497 7.10012386,4.0491185 6.69446543,3.63970398 C6.288807,3.23028945 5.73634974,2.99997529 5.16,3 Z M3.29,9 L3.29,21 L7,21 L7,9 L3.29,9 Z M16.53,8.7 C15.0908678,8.64677631 13.7373497,9.38296744 13,10.62 L13,10.62 L13,9 L9.37,9 L9.37,21 L13.1,21 L13.1,15.05 C13.1,13.48 13.39,11.96 15.34,11.96 C17.29,11.96 17.27,13.76 17.27,15.15 L17.27,21 L21,21 L21,14.4 C21,11.17 20.31,8.68 16.53,8.68 L16.53,8.7 Z M3.29,21 L7,21 L7,9 L3.29,9 L3.29,21 Z M5.16,3 C3.96156076,2.99448996 2.98556467,3.96154565 2.98004615,5.15998485 C2.97452763,6.35842405 3.94157641,7.33442699 5.14001557,7.33995399 C6.33845474,7.34548099 7.31446451,6.37843912 7.32,5.18 C7.32533657,4.60367497 7.10012386,4.0491185 6.69446543,3.63970398 C6.288807,3.23028945 5.73634974,2.99997529 5.16,3 Z"
    ></path>
  </g>
</svg>
