<svg xmlns="http://www.w3.org/2000/svg" viewBox="0 0 24 24"><title>it-link</title><g><path d="M8.12,20a4.12,4.12,0,0,1-2.91-7l2.55-2.55a4.14,4.14,0,0,1,5.83,0,4.25,4.25,0,0,1,.63.82.51.51,0,0,1-.88.52,3.12,3.12,0,0,0-4.86-.61L5.93,13.69a3.1,3.1,0,0,0,4.38,4.38l1.94-1.94a.5.5,0,0,1,.73,0,.51.51,0,0,1,0,.72L11,18.79A4.11,4.11,0,0,1,8.12,20Z"/><path d="M13.33,14.79a4.1,4.1,0,0,1-2.92-1.2,4.71,4.71,0,0,1-.64-.83.52.52,0,0,1,.18-.7.51.51,0,0,1,.71.18,2.64,2.64,0,0,0,.48.62,3.17,3.17,0,0,0,4.38,0l2.55-2.55a3.1,3.1,0,0,0-4.38-4.38L11.75,7.87a.5.5,0,0,1-.73,0,.51.51,0,0,1,0-.72L13,5.21A4.12,4.12,0,0,1,18.79,11l-2.55,2.55A4.08,4.08,0,0,1,13.33,14.79Z"/></g></svg>
