<?xml version="1.0" encoding="utf-8"?>
<!-- Generator: Adobe Illustrator 25.4.1, SVG Export Plug-In . SVG Version: 6.00 Build 0)  -->
<svg version="1.1" id="Livello_1" xmlns="http://www.w3.org/2000/svg" xmlns:xlink="http://www.w3.org/1999/xlink" x="0px" y="0px"
	 viewBox="0 0 24 24" style="enable-background:new 0 0 24 24;" xml:space="preserve">
<g>
	<path d="M16.5,12H16V7c0-2.2-1.8-4-4-4S8,4.8,8,7v5H7.5c-0.6,0-1.1,0.5-1.1,1.1l0,0v6.8c0,0.6,0.5,1.1,1.1,1.1h9
		c0.6,0,1.1-0.5,1.1-1.1l0,0v-6.8C17.6,12.5,17.1,12,16.5,12L16.5,12z M9,7c0-1.7,1.3-3,3-3s3,1.3,3,3v5H9V7z M16.6,19.9
		c0,0.1,0,0.1-0.1,0.1l0,0h-9c-0.1,0-0.1,0-0.1-0.1l0,0v-6.8h9.2V19.9z M13,15.5c0,0.3-0.2,0.7-0.5,0.8v1.5h-1v-1.5
		c-0.3-0.1-0.5-0.5-0.5-0.8c0-0.6,0.4-1,1-1S13,14.9,13,15.5z"/>
</g>
</svg>
