<?xml version="1.0" encoding="utf-8"?>
<!-- Generator: Adobe Illustrator 25.4.1, SVG Export Plug-In . SVG Version: 6.00 Build 0)  -->
<svg version="1.1" id="Livello_1" xmlns="http://www.w3.org/2000/svg" xmlns:xlink="http://www.w3.org/1999/xlink" x="0px" y="0px"
	 viewBox="0 0 24 24" style="enable-background:new 0 0 24 24;" xml:space="preserve">
<path d="M3,3h18v18H3V3z M7.3,14.4c0,0.2,0,0.4-0.2,0.5l-1.3,1.5v0.2h3.6v-0.2l-1.3-1.5C8,14.8,8,14.6,8,14.4V9.7l3.2,6.9h0.4
	l2.7-6.9v5.5c0,0.2,0,0.2-0.1,0.3l-1,1v0.2h4.7v-0.2l-0.9-1c-0.1-0.1-0.1-0.2-0.1-0.3V8.5c0-0.1,0-0.2,0.1-0.3l1-0.9V7.1h-3.4
	L12.2,13L9.5,7.1H6v0.2l1.1,1.4C7.2,8.7,7.3,8.9,7.3,9V14.4z"/>
</svg>
