<svg width="24" height="24" viewBox="0 0 24 24" fill="none" xmlns="http://www.w3.org/2000/svg">
<path d="M15.5273 16.7195C17.794 16.4502 19.7677 15.0606 20.0158 13.7908C20.4066 11.7906 20.3744 8.90969 20.3744 8.90969C20.3744 5.00494 17.8031 3.86039 17.8031 3.86039C16.5067 3.26795 14.2805 3.01881 11.9676 3H11.9108C9.59796 3.01881 7.37322 3.26795 6.07669 3.86039C6.07669 3.86039 3.50535 5.00494 3.50535 8.90969C3.50535 9.14641 3.50412 9.39539 3.50284 9.65459C3.49928 10.3744 3.49534 11.1731 3.51627 12.0067C3.60964 15.8253 4.2199 19.5888 7.76836 20.5233C9.40448 20.9541 10.8092 21.0443 11.9405 20.9825C13.9922 20.8693 15.1439 20.254 15.1439 20.254L15.0762 18.7729C15.0762 18.7729 13.6101 19.2329 11.9635 19.1768C10.3322 19.1212 8.61001 19.0018 8.34616 17.009C8.32179 16.8339 8.30961 16.6467 8.30961 16.4502C8.30961 16.4502 9.91103 16.8396 11.9405 16.9322C13.1815 16.9888 14.3453 16.8598 15.5273 16.7195ZM17.3414 13.9406H15.4588V9.35161C15.4588 8.38425 15.0497 7.89325 14.2314 7.89325C13.3267 7.89325 12.8733 8.4757 12.8733 9.62742V12.1393H11.0018V9.62742C11.0018 8.4757 10.5483 7.89325 9.64355 7.89325C8.8253 7.89325 8.41622 8.38425 8.41622 9.35161V13.9406H6.5336V9.21264C6.5336 8.24635 6.78088 7.47847 7.27758 6.91037C7.78978 6.34227 8.46057 6.05104 9.29325 6.05104C10.2566 6.05104 10.9862 6.41946 11.4686 7.1564L11.9375 7.93854L12.4065 7.1564C12.8888 6.41946 13.6183 6.05104 14.5818 6.05104C15.4144 6.05104 16.0852 6.34227 16.5975 6.91037C17.0941 7.47847 17.3414 8.24635 17.3414 9.21264V13.9406Z" fill="black"/>
</svg>
