<svg xmlns="http://www.w3.org/2000/svg" viewBox="0 0 24 24"><title>it-mail</title><g><path d="M19,6a2,2,0,0,1,1.84,1,1.3,1.3,0,0,1,.16.62v8.76A1.85,1.85,0,0,1,19,18H5a1.85,1.85,0,0,1-2-1.62V7.62A1.25,1.25,0,0,1,3.17,7,2,2,0,0,1,5,6H19m0-1H5A3,3,0,0,0,2.29,6.51,2.27,2.27,0,0,0,2,7.62v8.76A2.83,2.83,0,0,0,5,19H19a2.83,2.83,0,0,0,3-2.62V7.62a2.37,2.37,0,0,0-.27-1.08A3,3,0,0,0,19,5Z"/><path d="M19,6a2,2,0,0,1,1.45.62l-7,7a2,2,0,0,1-1.42.59,1.94,1.94,0,0,1-1.41-.59l-7-7A2,2,0,0,1,5,6H19m0-1H5A3,3,0,0,0,2.29,6.73L9.9,14.34a3,3,0,0,0,4.25,0l7.58-7.58A3,3,0,0,0,19,5Z"/><polygon points="15.32 12.37 14.61 13.08 20.23 18.71 20.94 18 15.32 12.37 15.32 12.37"/><polygon points="8.79 12.27 3.06 18 3.77 18.71 9.5 12.98 8.79 12.27 8.79 12.27"/></g></svg>
