<svg width="24px" height="24px" viewBox="0 0 24 24" version="1.1"
     xmlns="http://www.w3.org/2000/svg">
  <title>Logo Medium Square</title>
  <g stroke="none" stroke-width="1">
    <g>
      <rect x="0" y="0" width="24" height="24" fill="none"></rect>
    </g>
    <path
      d="M3,3 L21,3 L21,21 L3,21 L3,3 Z M7.3,14.36 C7.33035394,14.5566395 7.26752574,14.7562115 7.13,14.9 L5.86,16.44 L5.86,16.64 L9.46,16.64 L9.46,16.44 L8.19,14.9 C8.0490876,14.7574781 7.97937862,14.5593579 8,14.36 L8,9.74 L11.16,16.64 L11.53,16.64 L14.24,9.74 L14.24,15.24 C14.24,15.39 14.24,15.41 14.15,15.51 L13.15,16.51 L13.15,16.71 L17.89,16.71 L17.89,16.51 L17,15.53 C16.9137173,15.469232 16.8707486,15.3637634 16.89,15.26 L16.89,8.46 C16.8732232,8.35650343 16.9156738,8.25230648 17,8.19 L18,7.26 L18,7.06 L14.61,7.06 L12.23,13 L9.52,7.06 L6,7.06 L6,7.26 L7.14,8.62 C7.24550779,8.717757 7.30380632,8.85621601 7.3,9 L7.3,14.36 Z"
    ></path>
  </g>
</svg>
