<svg xmlns="http://www.w3.org/2000/svg" viewBox="0 0 24 24"><defs><style>.cls-1{fill:#12100e;}.cls-2{fill:#fff;}</style></defs><title>it-medium-square</title><g id="Layer_15" data-name="Layer 15"><g id="Page-1"><g id="Monogram"><rect id="Rectangle-path" class="cls-1" x="3" y="3" width="18" height="18"/><path id="Shape" class="cls-2" d="M7.3,9a.5.5,0,0,0-.16-.4L6,7.26v-.2H9.52L12.23,13l2.38-5.94H18v.2l-1,.93a.28.28,0,0,0-.11.27v6.8a.27.27,0,0,0,.11.27l.94.93v.2H13.19v-.2l1-1c.09-.1.09-.12.09-.27V9.74l-2.71,6.9h-.37L8,9.74v4.62a.67.67,0,0,0,.17.54l1.27,1.54v.2H5.86v-.2L7.13,14.9a.64.64,0,0,0,.17-.54Z"/></g></g></g></svg>