<svg width="24px" height="24px" viewBox="0 0 24 24" version="1.1"
     xmlns="http://www.w3.org/2000/svg">
  <title>Logo Medium</title>
  <g stroke="none" stroke-width="1">
    <g>
      <rect x="0" y="0" width="24" height="24" fill="none"></rect>
    </g>
    <path
      d="M5,7.63 C5.04456222,7.403283 4.97761086,7.16895326 4.82,7 L3.13,5 L3.13,4.7 L8.35,4.7 L12.35,13.54 L15.89,4.7 L20.89,4.7 L20.89,5 L19.47,6.4 C19.3489034,6.49507487 19.2878782,6.64763775 19.31,6.8 L19.31,16.92 C19.2883037,17.0752034 19.3489137,17.2305166 19.47,17.33 L20.87,18.7 L20.87,19 L13.87,19 L13.87,18.7 L15.32,17.29 C15.46,17.15 15.46,17.11 15.46,16.89 L15.46,8.71 L11.37,19 L10.82,19 L6.12,8.71 L6.12,15.59 C6.07753158,15.8795747 6.17385435,16.1722477 6.38,16.38 L8.27,18.67 L8.27,19 L2.91,19 L2.91,18.7 L4.8,16.38 C4.98601974,16.1621633 5.05995746,15.8701094 5,15.59 L5,7.63 Z"
    ></path>
  </g>
</svg>
