<svg width="24" height="24" viewBox="0 0 24 24" fill="none" xmlns="http://www.w3.org/2000/svg">
<path fill-rule="evenodd" clip-rule="evenodd" d="M12 22L6.31001 11.63C4.99676 9.25198 5.30085 6.30809 7.07246 4.24872C8.84407 2.18935 11.7095 1.4489 14.257 2.39217C16.8045 3.33544 18.4968 5.76346 18.5 8.48C18.4997 9.57513 18.2209 10.6522 17.69 11.61L12 22ZM12 3C10.0517 2.99538 8.24688 4.02372 7.25751 5.70214C6.26815 7.38057 6.24246 9.45762 7.19 11.16L12 19.94L16.82 11.13C17.2627 10.3166 17.4963 9.40602 17.5 8.48C17.4835 5.45253 15.0275 3.00545 12 3ZM8.5 9V8H15.5V9H8.5Z" />
</svg>
