<svg xmlns="http://www.w3.org/2000/svg" viewBox="0 0 24 24"><defs><style>.cls-1{fill:#06c;}</style></defs><title>it-mail</title><g id="Layer_43" data-name="Layer 43"><path class="cls-1" d="M19,4H5A3,3,0,0,0,2.29,5.73,2.85,2.85,0,0,0,2,7V17a3,3,0,0,0,3,3H19a3,3,0,0,0,3-3V7a3,3,0,0,0-.27-1.24A3,3,0,0,0,19,4Zm-7,9.22a1.94,1.94,0,0,1-1.41-.59l-7-7a1.44,1.44,0,0,1,.33-.28l.08,0a1.76,1.76,0,0,1,.37-.17l.13,0A2.16,2.16,0,0,1,5,5H19a2.16,2.16,0,0,1,.51.07l.13,0a2.43,2.43,0,0,1,.37.16l.1.06a1.81,1.81,0,0,1,.33.29l-7,7a2,2,0,0,1-1.42.59ZM3.2,17.86A2.05,2.05,0,0,1,3,17V7a2,2,0,0,1,.07-.49l5.74,5.74L3.2,17.86Zm17.6,0-5.58-5.59,5.72-5.72A1.74,1.74,0,0,1,21,7V17a2.05,2.05,0,0,1-.2.86ZM5,19a2,2,0,0,1-1.15-.37L9.52,13l.38.38a3,3,0,0,0,4.25,0l.36-.36,5.64,5.65A2,2,0,0,1,19,19Z"/></g></svg>