<svg width="24" height="24" viewBox="0 0 24 24" fill="none" xmlns="http://www.w3.org/2000/svg">
<path fill-rule="evenodd" clip-rule="evenodd" d="M21 19.8582V20C21 20.5523 20.5523 21 20 21H4C3.44772 21 3 20.5523 3 20V19.8581L11.9999 14.4581L21 19.8582ZM21 18.692V10.933L14.5342 14.8125L21 18.692ZM21 9.76685V8.23607C21 7.8573 20.786 7.51103 20.4472 7.34164L12.4472 3.34164C12.1657 3.20088 11.8343 3.20088 11.5528 3.34164L3.55279 7.34164C3.214 7.51103 3 7.8573 3 8.23607V9.76694L10.4374 14.2294L11.9999 13.2919L13.5624 14.2294L21 9.76685ZM3 10.9331V18.6919L9.46562 14.8125L3 10.9331ZM2 8.23607C2 7.47852 2.428 6.786 3.10557 6.44721L11.1056 2.44721C11.6686 2.16569 12.3314 2.16569 12.8944 2.44721L20.8944 6.44721C21.572 6.786 22 7.47852 22 8.23607V20C22 21.1046 21.1046 22 20 22H4C2.89543 22 2 21.1046 2 20V8.23607Z" />
</svg>
