<svg width="24" height="24" viewBox="0 0 24 24" fill="none" xmlns="http://www.w3.org/2000/svg">
<rect width="24" height="24" fill="white"/>
<path fill-rule="evenodd" clip-rule="evenodd" d="M3.5655 1.33H20.3274C20.9336 1.33 21.515 1.57082 21.9436 1.99947C22.3723 2.42813 22.6131 3.00951 22.6131 3.61572V20.3776C22.6131 20.9838 22.3723 21.5652 21.9436 21.9939C21.515 22.4225 20.9336 22.6633 20.3274 22.6633H3.5655C2.95929 22.6633 2.37791 22.4225 1.94926 21.9939C1.5206 21.5652 1.27979 20.9838 1.27979 20.3776V3.61572C1.27979 3.00951 1.5206 2.42813 1.94926 1.99947C2.37791 1.57082 2.95929 1.33 3.5655 1.33ZM8.33312 6.77445L14.5553 6.33L9.66645 9.88556H4.77756V14.008C5.03591 14.2808 5.22201 14.9869 5.22201 15.6633C5.22201 16.5224 4.92334 16.9967 4.55534 16.9967C4.18734 16.9967 3.88867 16.3002 3.88867 15.4411C3.88867 14.7648 4.07484 14.1954 4.33312 13.981V9.88556H2.99979L8.33312 6.77445ZM9.88867 10.33L12.1109 8.55222C12.1262 8.56866 12.1414 8.58481 12.1564 8.60077C12.3758 8.83417 12.5553 9.02511 12.5553 9.44111C12.5157 9.47428 12.4894 9.49439 12.4654 9.51279C12.4322 9.53828 12.4032 9.56047 12.3487 9.60952C11.3239 10.53 10.6018 11.5424 10.3418 12.33C9.06539 11.2734 6.71532 11.4177 6.3813 11.4382C6.36408 11.4393 6.35222 11.44 6.34614 11.4402C6.30125 11.2225 6.27756 10.9969 6.27756 10.7658C6.27756 10.5868 6.28496 10.5531 6.3092 10.4426C6.31584 10.4124 6.32375 10.3764 6.33312 10.33H9.88867ZM13.222 10.0279C13.9313 9.3897 14.8651 8.99667 15.8887 8.99667H16.3331C18.5331 8.99667 20.3331 10.7967 20.3331 12.9967V18.33H17.6665V13.2189C17.6665 12.3633 16.9665 11.6633 16.1109 11.6633C15.2553 11.6633 14.5553 12.3633 14.5553 13.2189V18.33H11.8887V13.2189C11.8887 12.5918 11.5094 12.0562 10.9711 11.8118C11.3369 11.182 11.9039 10.4884 12.6265 9.83955C12.6638 9.80618 12.7016 9.77399 12.7392 9.74193C12.7567 9.72702 12.7741 9.71214 12.7915 9.69719C12.9417 9.79852 13.0873 9.90703 13.222 10.0279ZM6.1109 12.9967C6.1109 12.5313 6.19769 12.0867 6.34614 11.6703C7.47458 11.6961 8.47549 11.9007 9.16038 12.2163C8.92571 12.487 8.77756 12.834 8.77756 13.2189V18.33H6.1109V12.9967Z" fill="#1E1E1E"/>
</svg>
