<svg xmlns="http://www.w3.org/2000/svg" width="24" height="24" viewBox="0 0 24 24">
<title>Maximize alternative</title>
  <g>
    <polygon points="15.1,18.1 15.8,18.8 12,22.7 8.1,18.8 8.8,18.1 11.5,20.8 11.5,13.5 12.5,13.5 12.5,20.8 "/>
    <polygon points="18.9,8.1 18.1,8.8 20.8,11.5 13.5,11.5 13.5,12.5 20.8,12.5 18.2,15.1 18.9,15.8 22.7,12 "/>
    <polygon points="11.5,3.2 11.5,10.5 12.5,10.5 12.5,3.2 15.1,5.8 15.8,5.1 12,1.3 8.1,5.1 8.8,5.8 "/>
    <polygon points="10.5,12.5 10.5,11.5 3.2,11.5 5.8,8.8 5.2,8.1 1.3,12 5.1,15.8 5.8,15.1 3.2,12.5 "/>
  </g>
  <g>
    <rect width="24" height="24" fill="none"/>
  </g>
</svg>
