<svg width="24" height="24" viewBox="0 0 24 24" fill="none" xmlns="http://www.w3.org/2000/svg">
<path fill-rule="evenodd" clip-rule="evenodd" d="M3.56696 1.33333H20.3289C20.9351 1.33333 21.5165 1.57414 21.9451 2.0028C22.3738 2.43145 22.6146 3.01283 22.6146 3.61904V20.3809C22.6146 20.9872 22.3738 21.5685 21.9451 21.9972C21.5165 22.4258 20.9351 22.6667 20.3289 22.6667H3.56696C2.96076 22.6667 2.37937 22.4258 1.95072 21.9972C1.52207 21.5685 1.28125 20.9872 1.28125 20.3809V3.61904C1.28125 3.01283 1.52207 2.43145 1.95072 2.0028C2.37937 1.57414 2.96076 1.33333 3.56696 1.33333ZM8.51239 16.5C11.0046 16.5 13.0249 14.4852 13.0249 11.9999C13.0249 9.51465 11.0045 7.5 8.51239 7.5C6.0203 7.5 4 9.51405 4 11.9999C4 14.4858 6.02015 16.5 8.51239 16.5ZM15.719 16.2359C16.965 16.2359 17.9753 14.3395 17.9753 11.9999C17.9753 9.66095 16.965 7.76392 15.719 7.76392C14.4729 7.76392 13.4627 9.66095 13.4627 11.9999C13.4627 14.3389 14.4729 16.2359 15.719 16.2359ZM19.2064 15.7952C19.6447 15.7952 20 14.0961 20 11.9999C20 9.90393 19.645 8.20464 19.2066 8.20464C18.7682 8.20464 18.4129 9.90438 18.4129 11.9999C18.4129 14.0955 18.7682 15.7952 19.2064 15.7952Z"/>
</svg>
