<?xml version="1.0" encoding="utf-8"?>
<!-- Generator: Adobe Illustrator 25.4.1, SVG Export Plug-In . SVG Version: 6.00 Build 0)  -->
<svg version="1.1" id="Livello_1" xmlns="http://www.w3.org/2000/svg" xmlns:xlink="http://www.w3.org/1999/xlink" x="0px" y="0px"
	 viewBox="0 0 24 24" style="enable-background:new 0 0 24 24;" xml:space="preserve">
<g>
	<path d="M6,10c-1.1,0-2,0.9-2,2s0.9,2,2,2s2-0.9,2-2S7.1,10,6,10z M6,13c-0.6,0-1-0.4-1-1s0.4-1,1-1s1,0.4,1,1S6.6,13,6,13z M12,10
		c-1.1,0-2,0.9-2,2s0.9,2,2,2s2-0.9,2-2S13.1,10,12,10z M12,13c-0.6,0-1-0.4-1-1s0.4-1,1-1s1,0.4,1,1c0.1,0.5-0.3,0.9-0.8,1
		C12.1,13,12.1,13,12,13z M18,10c-1.1,0-2,0.9-2,2s0.9,2,2,2s2-0.9,2-2S19.1,10,18,10z M18,13c-0.6,0-1-0.4-1-1s0.4-1,1-1s1,0.4,1,1
		c0.1,0.5-0.3,0.9-0.8,1C18.1,13,18.1,13,18,13z"/>
</g>
</svg>
