<?xml version="1.0" encoding="utf-8"?>
<!-- Generator: Adobe Illustrator 25.4.1, SVG Export Plug-In . SVG Version: 6.00 Build 0)  -->
<svg version="1.1" id="Livello_1" xmlns="http://www.w3.org/2000/svg" xmlns:xlink="http://www.w3.org/1999/xlink" x="0px" y="0px"
	 viewBox="0 0 24 24" style="enable-background:new 0 0 24 24;" xml:space="preserve">
<g>
	<path d="M12,18c0.6,0,1,0.4,1,1s-0.4,1-1,1s-1-0.4-1-1c-0.1-0.5,0.3-0.9,0.8-1C11.9,18,11.9,18,12,18 M12,17c-1.1,0-2,0.9-2,2
		s0.9,2,2,2s2-0.9,2-2S13.1,17,12,17z M12,11c0.6,0,1,0.4,1,1s-0.4,1-1,1s-1-0.4-1-1c-0.1-0.5,0.3-0.9,0.8-1C11.9,11,11.9,11,12,11
		 M12,10c-1.1,0-2,0.9-2,2s0.9,2,2,2s2-0.9,2-2S13.1,10,12,10z M12,4c0.5-0.1,0.9,0.3,1,0.8c0,0.1,0,0.1,0,0.2c0,0.6-0.4,1-1,1
		s-1-0.4-1-1c-0.1-0.5,0.3-0.9,0.8-1C11.9,4,11.9,4,12,4 M12,3c-1.1,0-2,0.9-2,2s0.9,2,2,2s2-0.9,2-2S13.1,3,12,3z"/>
</g>
</svg>
