<svg width="24" height="24" viewBox="0 0 24 24" fill="none" xmlns="http://www.w3.org/2000/svg">
<path fill-rule="evenodd" clip-rule="evenodd" d="M14.5556 6L8.33333 6.44444L3 9.55556H4.33333V13.651C4.07506 13.8654 3.88889 14.4348 3.88889 15.1111C3.88889 15.9702 4.18756 16.6667 4.55556 16.6667C4.92356 16.6667 5.22222 16.1924 5.22222 15.3333C5.22222 14.6569 5.03613 13.9508 4.77778 13.678V9.55556H9.66667L14.5556 6ZM12.1111 8.22222L9.88889 10H6.33333C6.28978 10.2156 6.27778 10.2078 6.27778 10.4358C6.27778 10.6669 6.30147 10.8925 6.34635 11.1102C6.47035 11.1058 8.99979 10.8889 10.342 12C10.602 11.2124 11.3241 10.2 12.349 9.27951C12.4427 9.19507 12.4609 9.19022 12.5556 9.11111C12.5556 8.66667 12.3507 8.47911 12.1111 8.22222ZM15.8889 8.66667C14.8653 8.66667 13.9316 9.05969 13.2222 9.69792C13.0876 9.57703 12.9419 9.46852 12.7917 9.36719C12.737 9.4143 12.6814 9.46066 12.6267 9.50955C11.9041 10.1584 11.3371 10.852 10.9714 11.4818C11.5096 11.7262 11.8889 12.2618 11.8889 12.8889V18H14.5556V12.8889C14.5556 12.0333 15.2556 11.3333 16.1111 11.3333C16.9667 11.3333 17.6667 12.0333 17.6667 12.8889V18H20.3333V12.6667C20.3333 10.4667 18.5333 8.66667 16.3333 8.66667H15.8889ZM6.34635 11.3403C6.19791 11.7567 6.11111 12.2013 6.11111 12.6667V18H8.77778V12.8889C8.77778 12.504 8.92592 12.157 9.16059 11.8863C8.4757 11.5707 7.4748 11.3661 6.34635 11.3403Z" fill="black"/>
</svg>
