<?xml version="1.0" encoding="utf-8"?>
<!-- Generator: Adobe Illustrator 25.4.1, SVG Export Plug-In . SVG Version: 6.00 Build 0)  -->
<svg version="1.1" id="Livello_1" xmlns="http://www.w3.org/2000/svg" xmlns:xlink="http://www.w3.org/1999/xlink" x="0px" y="0px"
	 viewBox="0 0 24 24" style="enable-background:new 0 0 24 24;" xml:space="preserve">
<path d="M5,7.6C5,7.4,5,7.2,4.8,7L3.1,5V4.7h5.2l4,8.8l3.5-8.8h5V5l-1.4,1.4c-0.1,0.1-0.2,0.2-0.2,0.4v10.1c0,0.2,0,0.3,0.2,0.4
	l1.4,1.4V19h-7v-0.3l1.4-1.4c0.1-0.1,0.1-0.2,0.1-0.4V8.7L11.4,19h-0.6L6.1,8.7v6.9c0,0.3,0.1,0.6,0.3,0.8l1.9,2.3V19H2.9v-0.3
	l1.9-2.3C5,16.2,5.1,15.9,5,15.6V7.6z"/>
</svg>
