<svg width="24" height="24" viewBox="0 0 24 24" fill="none" xmlns="http://www.w3.org/2000/svg">
<path fill-rule="evenodd" clip-rule="evenodd" d="M3.56696 1.33333H20.3289C20.9351 1.33333 21.5165 1.57414 21.9451 2.0028C22.3738 2.43145 22.6146 3.01283 22.6146 3.61904V20.3809C22.6146 20.9872 22.3738 21.5685 21.9451 21.9972C21.5165 22.4258 20.9351 22.6667 20.3289 22.6667H3.56696C2.96076 22.6667 2.37937 22.4258 1.95072 21.9972C1.52207 21.5685 1.28125 20.9872 1.28125 20.3809V3.61904C1.28125 3.01283 1.52207 2.43145 1.95072 2.0028C2.37937 1.57414 2.96076 1.33333 3.56696 1.33333ZM19.1807 13.5918C18.9602 14.7205 17.2058 15.9557 15.1909 16.1951C14.1403 16.3198 13.1058 16.4345 12.0027 16.3841C10.1987 16.3019 8.77521 15.9557 8.77521 15.9557C8.77521 16.1304 8.78604 16.2968 8.8077 16.4524C9.04223 18.2238 10.5731 18.3299 12.0231 18.3794C13.4867 18.4292 14.79 18.0204 14.79 18.0204L14.8501 19.3369C14.8501 19.3369 13.8264 19.8838 12.0027 19.9844C10.9971 20.0394 9.74843 19.9592 8.2941 19.5762C5.13991 18.7456 4.59746 15.4003 4.51446 12.006C4.49586 11.265 4.49936 10.5551 4.50252 9.91519C4.50366 9.68479 4.50475 9.46347 4.50475 9.25305C4.50475 5.78217 6.79039 4.7648 6.79039 4.7648C7.94286 4.23818 9.92041 4.01672 11.9763 4H12.0268C14.0826 4.01672 16.0615 4.23818 17.2139 4.7648C17.2139 4.7648 19.4994 5.78217 19.4994 9.25305C19.4994 9.25305 19.5281 11.8139 19.1807 13.5918ZM15.13 13.725H16.8034V9.52235C16.8034 8.66342 16.5836 7.98086 16.1422 7.47588C15.6868 6.9709 15.0906 6.71204 14.3505 6.71204C13.4941 6.71204 12.8456 7.03952 12.4169 7.69458L12 8.38981L11.5832 7.69458C11.1544 7.03952 10.5059 6.71204 9.64955 6.71204C8.90939 6.71204 8.31314 6.9709 7.85785 7.47588C7.41634 7.98086 7.19653 8.66342 7.19653 9.52235V13.725H8.86997V9.64588C8.86997 8.786 9.2336 8.34955 9.96093 8.34955C10.7651 8.34955 11.1683 8.86729 11.1683 9.89104V12.1238H12.8318V9.89104C12.8318 8.86729 13.2349 8.34955 14.039 8.34955C14.7664 8.34955 15.13 8.786 15.13 9.64588V13.725Z" fill="black"/>
</svg>
