<svg xmlns="http://www.w3.org/2000/svg" width="24" height="24" viewBox="0 0 24 24">
  <g>
    <rect width="24" height="24" fill="none"/>
  </g>
  <g transform="translate(2 2)">
    <path d="M10,0A10,10,0,0,0,6.82,19.48l1.75-5.75.29-1A3,3,0,0,1,7,10a3,3,0,0,1,6,0,3,3,0,0,1-1.87,2.76l.3,1,1.75,5.75A10,10,0,0,0,10,0Zm3.82,18.15-1.49-4.91a2.15,2.15,0,0,0,.23-.18,1.21,1.21,0,0,0,.24-.21,1.8,1.8,0,0,0,.19-.2,3.79,3.79,0,0,0,.72-1.15l.11-.31a2.5,2.5,0,0,0,.07-.26,2.67,2.67,0,0,0,.08-.48A3.4,3.4,0,0,0,14,10a4,4,0,0,0-8,0c0,.16,0,.5,0,.5a3.58,3.58,0,0,0,.09.45,3,3,0,0,0,.14.45,4.16,4.16,0,0,0,.43.84c.09.13.19.25.29.37a2.57,2.57,0,0,0,.33.33,3.94,3.94,0,0,0,.36.3L6.18,18.15a9,9,0,1,1,7.64,0Z"/>
  </g>
</svg>
