<?xml version="1.0" encoding="utf-8"?>
<!-- Generator: Adobe Illustrator 25.4.1, SVG Export Plug-In . SVG Version: 6.00 Build 0)  -->
<svg version="1.1" id="Livello_1" xmlns="http://www.w3.org/2000/svg" xmlns:xlink="http://www.w3.org/1999/xlink" x="0px" y="0px"
	 viewBox="0 0 24 24" style="enable-background:new 0 0 24 24;" xml:space="preserve">
<g>
	<path d="M21,9.5C21,8.7,20.3,8,19.5,8H17V3H7v5H4.5C3.7,8,3,8.7,3,9.5V16h2v3h2v2h10v-2h2v-3h2V9.5z M8,4h8v4H8V4z M6,18v-4h1v4H6z
		 M16,20H8v-6h8V20z M18,18h-1v-4h1V18z M20,15h-1v-2H5v2H4V9.5C4,9.2,4.2,9,4.5,9h15C19.8,9,20,9.2,20,9.5V15z M6,11h4v1H6V11z"/>
</g>
</svg>
