<?xml version="1.0" encoding="utf-8"?>
<!-- Generator: Adobe Illustrator 25.4.1, SVG Export Plug-In . SVG Version: 6.00 Build 0)  -->
<svg version="1.1" id="Livello_1" xmlns="http://www.w3.org/2000/svg" xmlns:xlink="http://www.w3.org/1999/xlink" x="0px" y="0px"
	 viewBox="0 0 24 24" style="enable-background:new 0 0 24 24;" xml:space="preserve">
<g>
	<path d="M21.8,11.5C19,6.1,12.4,3.9,7,6.7c-2.1,1.1-3.7,2.7-4.8,4.8L2,12l0.2,0.5c2.8,5.4,9.4,7.6,14.8,4.8
		c2.1-1.1,3.7-2.7,4.8-4.8L22,12L21.8,11.5z M12,17.5c-3.8,0-7.2-2.1-8.9-5.5C4.8,8.6,8.2,6.5,12,6.5c3.8,0,7.2,2.1,8.9,5.5
		C19.2,15.4,15.8,17.5,12,17.5z M12,8c-2.2,0-4,1.8-4,4s1.8,4,4,4s4-1.8,4-4S14.2,8,12,8z M12,15c-1.7,0-3-1.3-3-3s1.3-3,3-3
		s3,1.3,3,3c0.1,1.6-1.2,2.9-2.8,3C12.1,15,12.1,15,12,15z"/>
</g>
</svg>
