<svg xmlns="http://www.w3.org/2000/svg" width="24" height="24"
     viewBox="0 0 24 24">
  <title>Presentation</title>
  <g>
    <path
      d="M4,5V15.6A2.4,2.4,0,0,0,6.4,18H9.5L8.4,22h1l1.1-4h2.7l1.2,4h1l-1.2-4h3.5A2.3,2.3,0,0,0,20,15.7V5ZM19,15.7A1.3,1.3,0,0,1,17.7,17H6.4A1.4,1.4,0,0,1,5,15.6V6H19ZM21,3V4H3V3ZM12,16a4.5,4.5,0,1,0-4.5-4.5A4.5,4.5,0,0,0,12,16Zm-.5-7.9V11H8.6A3.4,3.4,0,0,1,11.5,8.1Zm1,3.9V8a3.5,3.5,0,0,1-.5,7,3.4,3.4,0,0,1-3.4-3Z"
    />
  </g>
  <g>
    <rect width="24" height="24" fill="none"/>
  </g>
</svg>
