<svg xmlns="http://www.w3.org/2000/svg"
     xmlns:xlink="http://www.w3.org/1999/xlink" viewBox="0 0 24 24">
  <title>it-pencil</title>
  <g>
    <path d="M14.41,2.77,3.8,13.39h0a1,1,0,0,0-.27.67l-.07,4.56a2.13,2.13,0,0,0,2.16,2.16l4.57-.06a1,1,0,0,0,.67-.28h0L21.49,9.85c.82-.83-.08-3.08-2-5S15.24,2,14.41,2.77ZM9.12,17.25,7,15.15,16.2,6l2.09,2.1ZM14.41,4.19l1.08,1.08L6.32,14.45,5.25,13.37h0l9-9ZM5.62,19.79a1.1,1.1,0,0,1-.82-.33,1.14,1.14,0,0,1-.33-.81l.07-4.53,1,1.05h0l.7.7h0L8.39,18h0l.7.7h0l1.05,1.05ZM10.89,19h0L9.82,18,19,8.77l1.07,1.08-.19.19ZM20.8,9.13h0L19.71,8.07,19,7.36,16.91,5.27l-.71-.71L15.13,3.49c.32-.14,1.85.27,3.61,2S20.93,8.86,20.8,9.13Z"/>
  </g>
</svg>
