<svg xmlns="http://www.w3.org/2000/svg" width="24" height="24"
     viewBox="0 0 24 24">
  <title>Pencil</title>
  <g>
    <path
      d="M20.5,3.5a2.9,2.9,0,0,0-2.1-.9,3.1,3.1,0,0,0-2.2.9L4.6,15.2l-1,5.2,5.2-1L20.5,7.8A3,3,0,0,0,20.5,3.5ZM14.8,6.3l.7-.7,2.9,2.9-.7.7Zm-.7.8,1.1,1L6.8,16.5,5.7,15.4ZM5.7,18.3a.7.7,0,0,0-.6-.3l.3-1.5,2.1,2.1L6,18.9A.7.7,0,0,0,5.7,18.3Zm2.9,0L7.5,17.2l8.4-8.4,1,1.1ZM19.8,7.1l-.7.7L16.2,4.9l.7-.7a2.2,2.2,0,0,1,1.5-.6,2,2,0,0,1,1.4.6A2.1,2.1,0,0,1,19.8,7.1Z"
    />
  </g>
  <g>
    <rect width="24" height="24" fill="none"/>
  </g>
</svg>
