<svg xmlns="http://www.w3.org/2000/svg" viewBox="0 0 24 24"><title>it-print</title><g><path d="M19.5,8.5H19V4.55a1.5,1.5,0,0,0-1.5-1.5H6.5A1.5,1.5,0,0,0,5,4.55v4H4.5A1.5,1.5,0,0,0,3,10v5a1.5,1.5,0,0,0,1.5,1.5H5v3A1.5,1.5,0,0,0,6.5,21h11A1.5,1.5,0,0,0,19,19.5v-3h.5A1.5,1.5,0,0,0,21,15V10A1.5,1.5,0,0,0,19.5,8.5ZM6,4.55a.5.5,0,0,1,.5-.5h11a.5.5,0,0,1,.5.5V8.49H6Zm12,15a.5.5,0,0,1-.5.5H6.5a.5.5,0,0,1-.5-.5v-5a.5.5,0,0,1,.5-.5h11a.5.5,0,0,1,.5.5v5ZM20,15a.5.5,0,0,1-.5.5H19v-1A1.5,1.5,0,0,0,17.5,13H6.5A1.5,1.5,0,0,0,5,14.5v1H4.5A.5.5,0,0,1,4,15V10a.5.5,0,0,1,.5-.5h15a.5.5,0,0,1,.5.5Z"/><rect x="7.99" y="16.42" width="8" height="1" rx="0.5"/></g></svg>
