<svg xmlns="http://www.w3.org/2000/svg" viewBox="0 0 24 24"><title>it-pa</title><g><path d="M12,4.17l4.88,3.11,2.31,1.47H4.81L7.12,7.28,12,4.17M12,3a.53.53,0,0,0-.27.08L6.54,6.36,3.33,8.41c-.56.36-.36,1.43.27,1.43H20.4c.63,0,.83-1.07.27-1.43l-3.21-2L12.27,3.05A.53.53,0,0,0,12,3Z"/><path d="M19.51,18H18.46v-7a.48.48,0,0,0-.48-.47h-.05a.47.47,0,0,0-.47.47v7h-2v-7a.47.47,0,0,0-.47-.47h-.05a.47.47,0,0,0-.48.47v7h-2v-7a.48.48,0,0,0-.48-.47h-.05a.47.47,0,0,0-.47.47v7h-2v-7A.47.47,0,0,0,9,10.47H8.91a.47.47,0,0,0-.47.47v7h-2V10.93A.45.45,0,0,0,6,10.47h0a.49.49,0,0,0-.49.49v7H4.49a1.51,1.51,0,1,0,0,3h15a1.51,1.51,0,1,0,0-3Zm0,2h-15A.5.5,0,0,1,4,19.5.51.51,0,0,1,4.49,19h15a.51.51,0,0,1,.51.51A.5.5,0,0,1,19.51,20Z"/></g></svg>
