<?xml version="1.0" encoding="UTF-8"?>
<svg xmlns="http://www.w3.org/2000/svg" xmlns:xlink="http://www.w3.org/1999/xlink" x="0px" y="0px" viewBox="0 0 24 24" version="1.1">
<path style=" stroke:none;fill-rule:nonzero;fill:rgb(0%,0%,0%);fill-opacity:1;" d="M 11.9971 3 C 7.0195 3 3 7.0498 3 12.0451 C 3 15.8769 5.3701 19.1521 8.7158 20.4716 C 8.6338 19.7559 8.5693 18.6543 8.7451 17.8738 C 8.9092 17.167 9.7969 13.3763 9.7969 13.3763 C 9.7969 13.3763 9.5303 12.8344 9.5303 12.0362 C 9.5303 10.7786 10.2568 9.842 11.1592 9.842 C 11.9297 9.842 12.2988 10.4222 12.2988 11.1143 C 12.2988 11.889 11.8125 13.0494 11.5518 14.1274 C 11.3379 15.0287 12.0029 15.765 12.8848 15.765 C 14.4844 15.765 15.7119 14.0685 15.7119 11.6268 C 15.7119 9.462 14.165 7.9511 11.9531 7.9511 C 9.3896 7.9511 7.8867 9.8773 7.8867 11.8742 C 7.8867 12.6459 8.1826 13.4824 8.5547 13.9359 C 8.6279 14.0243 8.6338 14.1068 8.6133 14.1951 C 8.5459 14.4779 8.3906 15.0964 8.3613 15.223 C 8.3232 15.388 8.2266 15.4233 8.0566 15.3409 C 6.9463 14.8048 6.252 13.1525 6.252 11.8271 C 6.252 8.976 8.3086 6.3577 12.1963 6.3577 C 15.3135 6.3577 17.7422 8.5902 17.7422 11.5826 C 17.7422 14.7017 15.7881 17.2111 13.0781 17.2111 C 12.167 17.2111 11.3086 16.734 11.0186 16.1685 C 11.0186 16.1685 10.5674 17.8944 10.4561 18.3186 C 10.2568 19.1079 9.709 20.0916 9.3369 20.6954 C 10.1836 20.9546 11.0713 21.096 12.0029 21.096 C 16.9717 21.096 21 17.0462 21 12.0509 C 20.9912 7.0498 16.9658 3 11.9971 3 Z M 11.9971 3"/>
</svg>
