<svg xmlns="http://www.w3.org/2000/svg" viewBox="0 0 24 24"><title>it-password-invisible</title><g><path d="M12,8.5A3.5,3.5,0,0,0,8.5,12a3.41,3.41,0,0,0,.21,1.16l4.45-4.45A3.41,3.41,0,0,0,12,8.5Z"/><path d="M15.29,10.84l-4.45,4.45A3.41,3.41,0,0,0,12,15.5,3.5,3.5,0,0,0,15.5,12a3.41,3.41,0,0,0-.21-1.16Z"/><path d="M5.24,16.64,6,15.92A10.91,10.91,0,0,1,3.09,12,9.37,9.37,0,0,1,12,6a10,10,0,0,1,3.34.54l.78-.78A10.89,10.89,0,0,0,12,5C6.58,5,3.61,8.27,2.09,11.8a.47.47,0,0,0,0,.4A12,12,0,0,0,5.24,16.64Z"/><path d="M21.91,11.8a12,12,0,0,0-3.15-4.44L18,8.08A10.91,10.91,0,0,1,20.91,12c-1.25,2.78-3.8,6-8.91,6a10,10,0,0,1-3.34-.54l-.78.78A10.89,10.89,0,0,0,12,19c5.42,0,8.39-3.27,9.91-6.8A.47.47,0,0,0,21.91,11.8Z"/><rect x="2" y="11.5" width="20" height="1" rx="0.5" transform="translate(-4.97 12) rotate(-45)"/></g></svg>
