<svg xmlns="http://www.w3.org/2000/svg" width="24" height="24"
     viewBox="0 0 24 24">
  <title>Password Invisible</title>
  <g>
    <path
      d="M15,12a3.2,3.2,0,0,0-.7-1.9L14.7,9A4.2,4.2,0,0,1,16,12a4,4,0,0,1-3.9,4l.4-1.1A2.9,2.9,0,0,0,15,12ZM3.1,12A9.8,9.8,0,0,1,12,6.5h.4l.4-.9H12a10.9,10.9,0,0,0-9.8,6L2,12l.2.5a11,11,0,0,0,6.1,5.3l.3-.9A9.8,9.8,0,0,1,3.1,12Zm18.7-.5a11,11,0,0,0-6.1-5.3l-.3.9A9.8,9.8,0,0,1,20.9,12,9.8,9.8,0,0,1,12,17.5h-.4l-.4.9H12a10.9,10.9,0,0,0,9.8-6L22,12ZM11.5,9.1,11.9,8A4,4,0,0,0,8,12a4.2,4.2,0,0,0,1.3,3l.4-1.1A3.2,3.2,0,0,1,9,12,2.9,2.9,0,0,1,11.5,9.1Zm3.1-5.7L8.5,20.3l.9.3L15.5,3.7Z"
    />
  </g>
  <g>
    <rect width="24" height="24" fill="none"/>
  </g>
</svg>
