<svg width="24" height="24" viewBox="0 0 24 24" fill="none" xmlns="http://www.w3.org/2000/svg">
<path d="M12 3.00007C7.02944 3.00007 3 7.02951 3 12C3 15.8129 5.37224 19.0723 8.72015 20.3837C8.6415 19.6716 8.57038 18.5765 8.75135 17.7991C8.91491 17.0967 9.80671 13.3255 9.80671 13.3255C9.80671 13.3255 9.5375 12.7864 9.5375 11.9893C9.5375 10.7379 10.2629 9.8036 11.166 9.8036C11.9339 9.8036 12.3047 10.3801 12.3047 11.0714C12.3047 11.8436 11.8131 12.9981 11.5594 14.0679C11.3473 14.9637 12.0086 15.6942 12.8921 15.6942C14.4917 15.6942 15.7213 14.0076 15.7213 11.5729C15.7213 9.41805 14.1729 7.91142 11.962 7.91142C9.40116 7.91142 7.89807 9.83215 7.89807 11.8171C7.89807 12.5907 8.19605 13.4201 8.56787 13.871C8.64143 13.9602 8.6522 14.0382 8.63029 14.1292C8.56197 14.4134 8.41014 15.0247 8.38034 15.1499C8.34109 15.3146 8.2499 15.3496 8.07934 15.2702C6.9553 14.747 6.25252 13.1036 6.25252 11.7836C6.25252 8.94457 8.31527 6.33728 12.1992 6.33728C15.3212 6.33728 17.7475 8.56204 17.7475 11.5352C17.7475 14.637 15.7918 17.1332 13.0773 17.1332C12.1653 17.1332 11.308 16.6594 11.0145 16.0998C11.0145 16.0998 10.5632 17.8182 10.4538 18.2393C10.2506 19.021 9.70209 20.0009 9.33521 20.5987C10.1773 20.8594 11.0722 21 12 21C16.9706 21 21 16.9706 21 12C21 7.02951 16.9706 3.00007 12 3.00007Z" />
</svg>
