<svg xmlns="http://www.w3.org/2000/svg" viewBox="0 0 24 24"><title>it-pin</title><g><path d="M18.17,5.74c-1.65-1.65-3.44-2.67-4.53-2.67a1,1,0,0,0-.73.26c-.49.49-.26,1.57.48,2.83L8.59,11a4.47,4.47,0,0,0-2.09-.74,1,1,0,0,0-.74.26c-.75.75.21,2.93,2.14,5L4.27,19.07s-.58.89-.38,1.09S5,19.8,5,19.77L8.6,16.15c1.52,1.4,3.1,2.25,4.09,2.25a1,1,0,0,0,.74-.25c.46-.47.27-1.47-.39-2.65l4.89-4.89a4.22,4.22,0,0,0,1.92.65,1,1,0,0,0,.73-.26C21.36,10.21,20.29,7.86,18.17,5.74Zm.24,4-.66-.37-.53.54-4.88,4.88-.54.53.37.66a3.7,3.7,0,0,1,.52,1.42c-.71,0-2.28-.83-3.81-2.37-1.81-1.81-2.39-3.32-2.38-3.81a3.51,3.51,0,0,1,1.58.6l.67.4.55-.55,4.8-4.8.55-.55-.4-.67a3.57,3.57,0,0,1-.6-1.58,7.56,7.56,0,0,1,3.81,2.38c1.8,1.8,2.39,3.31,2.38,3.81A3.58,3.58,0,0,1,18.41,9.74Z"/></g></svg>
