<svg width="24" height="24" viewBox="0 0 24 24" fill="none" xmlns="http://www.w3.org/2000/svg">
<path fill-rule="evenodd" clip-rule="evenodd" d="M3.56696 1.33333H20.3289C20.9351 1.33333 21.5165 1.57414 21.9451 2.0028C22.3738 2.43145 22.6146 3.01283 22.6146 3.61904V20.3809C22.6146 20.9872 22.3738 21.5685 21.9451 21.9972C21.5165 22.4258 20.9351 22.6667 20.3289 22.6667H3.56696C2.96076 22.6667 2.37937 22.4258 1.95072 21.9972C1.52207 21.5685 1.28125 20.9872 1.28125 20.3809V3.61904C1.28125 3.01283 1.52207 2.43145 1.95072 2.0028C2.37937 1.57414 2.96076 1.33333 3.56696 1.33333ZM4 12C4 7.58174 7.58174 4 12 4C16.4183 4 20.0001 7.58174 20.0001 12C20.0001 16.4183 16.4183 20 12 20C11.1753 20 10.3798 19.875 9.63132 19.6433C9.95744 19.1119 10.445 18.2409 10.6256 17.546C10.7229 17.1717 11.124 15.6442 11.124 15.6442C11.3849 16.1417 12.147 16.5629 12.9576 16.5629C15.3705 16.5629 17.1089 14.344 17.1089 11.5869C17.1089 8.944 14.9523 6.96642 12.1771 6.96642C8.7247 6.96642 6.89114 9.28402 6.89114 11.8076C6.89114 12.9809 7.51584 14.4417 8.51498 14.9068C8.6666 14.9774 8.74766 14.9463 8.78254 14.7999C8.7941 14.7513 8.82629 14.6206 8.86396 14.4676C8.91265 14.2699 8.97048 14.035 9.00472 13.8926C9.0242 13.8117 9.01462 13.7423 8.94924 13.6631C8.61873 13.2623 8.35386 12.525 8.35386 11.8374C8.35386 10.073 9.68995 8.36566 11.9662 8.36566C13.9315 8.36566 15.3079 9.7049 15.3079 11.6204C15.3079 13.7845 14.2149 15.2838 12.793 15.2838C12.0077 15.2838 11.4199 14.6344 11.6084 13.8382C11.69 13.4941 11.7992 13.1401 11.9055 12.796C12.0929 12.189 12.2709 11.6126 12.2709 11.1745C12.2709 10.56 11.9412 10.0476 11.2587 10.0476C10.4559 10.0476 9.81114 10.8781 9.81114 11.9905C9.81114 12.699 10.0504 13.1782 10.0504 13.1782C10.0504 13.1782 9.25772 16.5304 9.11233 17.1548C8.95147 17.8458 9.01469 18.8192 9.0846 19.4522C6.10866 18.2865 4 15.3892 4 12Z" />
</svg>
