<?xml version="1.0" encoding="UTF-8"?>
<svg xmlns="http://www.w3.org/2000/svg" xmlns:xlink="http://www.w3.org/1999/xlink" x="0px" y="0px" viewBox="0 0 24 24" version="1.1">
<path style=" stroke:none;fill-rule:nonzero;fill:rgb(0%,0%,0%);fill-opacity:1;" d="M 11.996094 0 C 5.359375 0 0 5.371094 0 11.996094 C 0 17.078125 3.160156 21.421875 7.621094 23.171875 C 7.511719 22.222656 7.425781 20.761719 7.660156 19.726562 C 7.878906 18.789062 9.0625 13.761719 9.0625 13.761719 C 9.0625 13.761719 8.707031 13.042969 8.707031 11.984375 C 8.707031 10.316406 9.675781 9.074219 10.878906 9.074219 C 11.90625 9.074219 12.398438 9.84375 12.398438 10.761719 C 12.398438 11.789062 11.75 13.328125 11.402344 14.757812 C 11.117188 15.953125 12.003906 16.929688 13.179688 16.929688 C 15.3125 16.929688 16.949219 14.679688 16.949219 11.441406 C 16.949219 8.570312 14.886719 6.566406 11.9375 6.566406 C 8.519531 6.566406 6.515625 9.121094 6.515625 11.769531 C 6.515625 12.792969 6.910156 13.902344 7.40625 14.503906 C 7.503906 14.621094 7.511719 14.730469 7.484375 14.847656 C 7.394531 15.222656 7.1875 16.042969 7.148438 16.210938 C 7.097656 16.429688 6.96875 16.476562 6.742188 16.367188 C 5.261719 15.65625 4.335938 13.464844 4.335938 11.707031 C 4.335938 7.925781 7.078125 4.453125 12.261719 4.453125 C 16.417969 4.453125 19.65625 7.414062 19.65625 11.382812 C 19.65625 15.519531 17.050781 18.847656 13.4375 18.847656 C 12.222656 18.847656 11.078125 18.214844 10.691406 17.464844 C 10.691406 17.464844 10.089844 19.753906 9.941406 20.316406 C 9.675781 21.363281 8.945312 22.667969 8.449219 23.46875 C 9.578125 23.8125 10.761719 24 12.003906 24 C 18.628906 24 24 18.628906 24 12.003906 C 23.988281 5.371094 18.621094 0 11.996094 0 Z M 11.996094 0 "/>
</svg>
