<svg xmlns="http://www.w3.org/2000/svg" width="24" height="24" viewBox="0 0 24 24" >
<title>Plug</title>
  <g>
    <path d="M7.7,10.6l-2.8,2.8c-0.8,0.8-0.8,2,0,2.8c0,0,0,0,0,0L6,17.3l-3.3,3.3l0.7,0.7L6.7,18l1.1,1.1c0.8,0.8,2,0.8,2.8,0 c0,0,0,0,0,0l2.8-2.8L7.7,10.6z M9.9,18.4c-0.4,0.4-1,0.4-1.4,0l-2.8-2.9c-0.4-0.4-0.4-1,0-1.4L7.7,12l4.2,4.2L9.9,18.4z"/>
    <path d="M18,6.6l3.3-3.3l-0.7-0.7L17.3,6l-1-1c-0.4-0.4-0.9-0.6-1.4-0.6c-0.5,0-1,0.2-1.4,0.6l-2.9,2.8l1.4,1.4l-1,1
      c-0.2,0.2-0.2,0.5,0,0.7c0.2,0.2,0.5,0.2,0.7,0l0,0l1-1l1.4,1.4l-1,1c-0.2,0.2-0.2,0.5,0,0.7c0,0,0,0,0,0c0.2,0.2,0.5,0.2,0.7,0
      c0,0,0,0,0,0l1-1l1.4,1.4l2.8-2.8c0.8-0.8,0.8-2,0-2.8c0,0,0,0,0,0L18,6.6z M18.5,9.9L16.3,12l-4.2-4.3l2.1-2.1
      c0.4-0.4,1-0.4,1.4,0c0,0,0,0,0,0l2.8,2.8C18.8,8.9,18.8,9.5,18.5,9.9C18.5,9.9,18.5,9.9,18.5,9.9L18.5,9.9z"/>
  </g>
  <g>
    <rect width="24" height="24" fill="none"/>
  </g>
</svg>
