<?xml version="1.0" encoding="UTF-8"?>
<svg xmlns="http://www.w3.org/2000/svg" xmlns:xlink="http://www.w3.org/1999/xlink" x="0px" y="0px" viewBox="0 0 24 24" version="1.1">
<path style=" stroke:none;fill-rule:nonzero;fill:rgb(0%,0%,0%);fill-opacity:1;" d="M 12.5929 17.108 C 11.9655 15.874 11.2292 14.6251 9.7919 14.6251 C 9.5091 14.6222 9.2264 14.6752 8.9643 14.7842 L 8.4783 13.8064 C 9.0703 13.2968 10.0305 12.8963 11.238 12.8963 C 13.1554 12.8963 14.1392 13.8211 14.9226 15.0021 C 15.388 13.9949 15.6089 12.6341 15.6089 10.9465 C 15.6089 6.7347 14.2923 4.5993 11.2145 4.5993 C 8.1779 4.5993 6.8731 6.7612 6.8731 10.9465 C 6.8731 15.1288 8.1837 17.273 11.2145 17.273 C 11.6592 17.2789 12.104 17.2229 12.534 17.1022 Z M 13.341 18.5778 C 12.6665 18.7604 11.9714 18.8546 11.2734 18.8546 C 7.2354 18.8576 3.2798 15.6354 3.2798 10.9494 C 3.2798 6.2192 7.2354 3 11.2734 3 C 15.3762 3 19.2876 6.2016 19.2876 10.9494 C 19.3082 13.3704 18.189 15.659 16.2657 17.1316 C 16.8165 17.9975 17.4409 18.5748 18.2714 18.5748 C 19.1757 18.5748 19.5409 17.8738 19.6057 17.3231 L 20.7867 17.3231 C 20.8545 18.0535 20.4863 21.0931 17.1905 21.0931 C 15.1906 21.0931 14.1333 19.9355 13.341 18.5778 Z M 13.341 18.5778"/>
</svg>
