<svg width="24" height="24" viewBox="0 0 24 24" fill="none" xmlns="http://www.w3.org/2000/svg">
<path fill-rule="evenodd" clip-rule="evenodd" d="M3.56696 1.33333H20.3289C20.9351 1.33333 21.5165 1.57414 21.9451 2.0028C22.3738 2.43145 22.6146 3.01283 22.6146 3.61904V20.3809C22.6146 20.9872 22.3738 21.5685 21.9451 21.9972C21.5165 22.4258 20.9351 22.6667 20.3289 22.6667H3.56696C2.96076 22.6667 2.37937 22.4258 1.95072 21.9972C1.52207 21.5685 1.28125 20.9872 1.28125 20.3809V3.61904C1.28125 3.01283 1.52207 2.43145 1.95072 2.0028C2.37937 1.57414 2.96076 1.33333 3.56696 1.33333ZM9.75735 14.2828C11.0259 14.2828 11.6763 15.3849 12.2307 16.476C11.876 16.5795 11.4901 16.6263 11.0641 16.6263C8.38355 16.6263 7.22538 14.734 7.22538 11.03C7.22538 7.30631 8.38355 5.39432 11.0641 5.39432C13.7842 5.39432 14.9488 7.30631 14.9488 11.03C14.9488 12.5211 14.7537 13.7241 14.3432 14.6149C13.6519 13.5715 12.781 12.7541 11.084 12.7541C9.99321 12.7541 9.14459 13.1114 8.61941 13.562L9.05036 14.4245C9.27264 14.323 9.51485 14.2828 9.75735 14.2828ZM11.0641 18.0201C11.6832 18.0201 12.3075 17.9331 12.8952 17.7756C13.5955 18.9762 14.5294 20 16.2957 20C19.2118 20 19.5352 17.3128 19.4742 16.6662H18.4308C18.3768 17.1518 18.0536 17.7709 17.2524 17.7709C16.5182 17.7709 15.991 17.2614 15.4789 16.494C17.064 15.2664 18.1545 13.3672 18.1545 11.03C18.1545 6.82824 14.6933 4 11.0641 4C7.49476 4 4 6.84876 4 11.03C4 15.1719 7.49476 18.0201 11.0641 18.0201Z" />
</svg>
