<svg width="24" height="24" viewBox="0 0 24 24" fill="none" xmlns="http://www.w3.org/2000/svg">
<path d="M12.7307 16.476C12.1763 15.3849 11.5259 14.2828 10.2574 14.2828C10.0148 14.2828 9.77264 14.323 9.55037 14.4245L9.11941 13.562C9.64459 13.1114 10.4932 12.7541 11.584 12.7541C13.281 12.7541 14.1519 13.5715 14.8432 14.6149C15.2537 13.7241 15.4488 12.5211 15.4488 11.03C15.4488 7.30631 14.2842 5.39432 11.5641 5.39432C8.88355 5.39432 7.72538 7.30631 7.72538 11.03C7.72538 14.734 8.88355 16.6263 11.5641 16.6263C11.9901 16.6263 12.376 16.5795 12.7307 16.476ZM13.3952 17.7756C12.8075 17.9331 12.1832 18.0201 11.5641 18.0201C7.99476 18.0201 4.5 15.1719 4.5 11.03C4.5 6.84876 7.99476 4 11.5641 4C15.1933 4 18.6545 6.82824 18.6545 11.03C18.6545 13.3672 17.564 15.2664 15.9789 16.494C16.491 17.2614 17.0182 17.7709 17.7524 17.7709C18.5536 17.7709 18.8768 17.1518 18.9308 16.6662H19.9742C20.0352 17.3128 19.7118 20 16.7957 20C15.0294 20 14.0955 18.9762 13.3952 17.7756Z" />
</svg>
