<?xml version="1.0" encoding="UTF-8"?>
<svg xmlns="http://www.w3.org/2000/svg" xmlns:xlink="http://www.w3.org/1999/xlink" x="0px" y="0px" viewBox="0 0 24 24" version="1.1">
<path style=" stroke:none;fill-rule:nonzero;fill:rgb(0%,0%,0%);fill-opacity:1;" d="M 47.726562 16.515625 C 47.3125 15.703125 46.832031 14.882812 45.886719 14.882812 C 45.703125 14.878906 45.523438 14.914062 45.359375 14.992188 L 45.035156 14.347656 C 45.429688 14.011719 46.0625 13.746094 46.875 13.746094 C 48.136719 13.746094 48.789062 14.355469 49.300781 15.136719 C 49.609375 14.480469 49.75 13.578125 49.75 12.464844 C 49.75 9.691406 48.882812 8.269531 46.824219 8.269531 C 44.828125 8.269531 43.96875 9.734375 43.96875 12.464844 C 43.96875 15.199219 44.832031 16.640625 46.824219 16.640625 C 47.117188 16.640625 47.40625 16.605469 47.691406 16.53125 Z M 48.222656 17.480469 C 47.777344 17.601562 47.316406 17.664062 46.855469 17.664062 C 44.199219 17.664062 41.597656 15.542969 41.597656 12.460938 C 41.597656 9.347656 44.160156 7.226562 46.855469 7.226562 C 49.558594 7.226562 52.136719 9.332031 52.136719 12.460938 C 52.136719 14.203125 51.324219 15.613281 50.148438 16.53125 C 50.527344 17.101562 50.921875 17.480469 51.464844 17.480469 C 52.0625 17.480469 52.304688 17.019531 52.34375 16.65625 L 53.117188 16.65625 C 53.164062 17.140625 52.925781 19.140625 50.75 19.140625 C 49.433594 19.140625 48.738281 18.378906 48.21875 17.480469 Z M 53.847656 14.835938 L 53.847656 11.273438 C 53.847656 10.90625 53.699219 10.6875 53.230469 10.6875 L 52.734375 10.6875 L 52.734375 9.734375 L 55.980469 9.734375 L 55.980469 14.789062 C 55.980469 15.640625 56.441406 16.015625 57.144531 16.015625 C 57.71875 16.015625 58.296875 15.761719 58.609375 15.175781 L 58.609375 11.273438 C 58.609375 10.90625 58.460938 10.6875 57.996094 10.6875 L 57.472656 10.6875 L 57.472656 9.734375 L 60.746094 9.734375 L 60.746094 15.03125 C 60.746094 15.558594 60.941406 15.765625 61.542969 15.765625 L 61.65625 15.765625 L 61.65625 16.742188 L 58.726562 17.207031 L 58.726562 16.199219 L 58.667969 16.199219 C 58.0625 16.960938 57.132812 17.386719 56.164062 17.355469 C 54.882812 17.355469 53.859375 16.707031 53.859375 14.792969 Z M 65.898438 16.445312 C 67.054688 16.445312 67.492188 15.441406 67.511719 13.421875 C 67.53125 11.445312 67.050781 10.492188 65.898438 10.492188 C 64.894531 10.492188 64.261719 11.453125 64.261719 13.421875 C 64.261719 15.441406 64.882812 16.445312 65.898438 16.445312 Z M 65.898438 17.398438 C 64.84375 17.410156 63.824219 16.996094 63.078125 16.25 C 62.332031 15.5 61.917969 14.484375 61.933594 13.425781 C 61.933594 11.09375 63.769531 9.546875 65.898438 9.546875 C 68.121094 9.546875 69.902344 11.128906 69.902344 13.425781 C 69.902344 15.804688 68.121094 17.398438 65.898438 17.398438 Z M 69.96875 17.25 L 69.96875 16.300781 L 70.285156 16.300781 C 71.070312 16.300781 71.140625 16.070312 71.140625 15.394531 L 71.140625 11.273438 C 71.140625 10.90625 70.929688 10.6875 70.410156 10.6875 L 69.988281 10.6875 L 69.988281 9.734375 L 72.960938 9.734375 L 73.105469 11.285156 L 73.210938 11.285156 C 73.574219 10.171875 74.429688 9.582031 75.257812 9.582031 C 75.949219 9.582031 76.480469 9.972656 76.480469 10.765625 C 76.480469 11.3125 76.21875 11.863281 75.476562 11.863281 C 74.808594 11.863281 74.675781 11.414062 74.121094 11.414062 C 73.628906 11.414062 73.25 11.882812 73.25 12.566406 L 73.25 15.347656 C 73.25 16.023438 73.414062 16.25 74.183594 16.25 L 74.621094 16.25 L 74.621094 17.203125 L 69.964844 17.203125 Z M 79.871094 16.152344 C 80.824219 16.152344 81.210938 15.253906 81.210938 14.351562 L 81.210938 13.144531 C 80.480469 13.859375 78.90625 13.886719 78.90625 15.164062 C 78.90625 15.785156 79.277344 16.152344 79.867188 16.152344 Z M 81.253906 16.148438 C 80.863281 16.902344 80.0625 17.40625 78.9375 17.40625 C 77.636719 17.40625 76.792969 16.675781 76.792969 15.496094 C 76.792969 13.046875 80.207031 13.695312 81.210938 12.070312 L 81.210938 11.894531 C 81.210938 10.652344 80.71875 10.449219 80.179688 10.449219 C 78.660156 10.449219 79.351562 12.082031 77.953125 12.082031 C 77.28125 12.082031 77.019531 11.714844 77.019531 11.222656 C 77.019531 10.300781 78.117188 9.554688 80.195312 9.554688 C 82.15625 9.554688 83.359375 10.09375 83.359375 12.042969 L 83.359375 15.152344 C 83.359375 15.636719 83.535156 15.894531 83.957031 15.894531 C 84.113281 15.898438 84.269531 15.855469 84.402344 15.765625 L 84.660156 16.375 C 84.453125 16.691406 83.90625 17.246094 82.828125 17.246094 C 81.925781 17.246094 81.363281 16.824219 81.285156 16.136719 L 81.261719 16.136719 Z M 12.722656 18.710938 C 11.890625 17.074219 10.914062 15.417969 9.007812 15.417969 C 8.632812 15.414062 8.257812 15.484375 7.910156 15.628906 L 7.265625 14.332031 C 8.050781 13.65625 9.324219 13.125 10.925781 13.125 C 13.46875 13.125 14.773438 14.351562 15.8125 15.917969 C 16.429688 14.582031 16.722656 12.777344 16.722656 10.539062 C 16.722656 4.953125 14.976562 2.121094 10.894531 2.121094 C 6.867188 2.121094 5.136719 4.988281 5.136719 10.539062 C 5.136719 16.085938 6.875 18.929688 10.894531 18.929688 C 11.484375 18.9375 12.074219 18.863281 12.644531 18.703125 Z M 13.714844 20.660156 C 12.820312 20.902344 11.898438 21.027344 10.972656 21.027344 C 5.617188 21.03125 0.371094 16.757812 0.371094 10.542969 C 0.371094 4.269531 5.617188 0 10.972656 0 C 16.414062 0 21.601562 4.246094 21.601562 10.542969 C 21.628906 13.753906 20.144531 16.789062 17.59375 18.742188 C 18.324219 19.890625 19.152344 20.65625 20.253906 20.65625 C 21.453125 20.65625 21.9375 19.726562 22.023438 18.996094 L 23.589844 18.996094 C 23.679688 19.964844 23.191406 23.996094 18.820312 23.996094 C 16.167969 23.996094 14.765625 22.460938 13.714844 20.660156 Z M 13.714844 20.660156 "/>
</svg>
