<svg xmlns="http://www.w3.org/2000/svg" width="24" height="24" viewBox="0 0 24 24">
  <g>
    <rect width="24" height="24" fill="none"/>
  </g>
  <g transform="translate(3 3)">
    <path d="M14.62,0H3.37A3.37,3.37,0,0,0,0,3.38V14.62A3.37,3.37,0,0,0,3.37,18H14.62A3.38,3.38,0,0,0,18,14.62V3.38A3.38,3.38,0,0,0,14.62,0ZM4.5,15.75A2.25,2.25,0,1,1,6.75,13.5,2.25,2.25,0,0,1,4.5,15.75Zm4.5,0A6.75,6.75,0,0,0,2.25,9V6.75a9,9,0,0,1,9,9Zm4.5,0A11.25,11.25,0,0,0,2.25,4.5V2.25a13.5,13.5,0,0,1,13.5,13.5Z"/>
  </g>
</svg>
