<svg xmlns="http://www.w3.org/2000/svg" width="24" height="24" viewBox="0 0 24 24">
  <g>
    <rect width="24" height="24" fill="none"/>
  </g>
  <g transform="translate(3 3)">
    <path d="M2.67,12.66a2.67,2.67,0,1,0,2.67,2.67A2.68,2.68,0,0,0,2.67,12.66Z"/>
    <path d="M.28,5.88A.28.28,0,0,0,0,6.16V9.55a.29.29,0,0,0,.28.28,7.9,7.9,0,0,1,7.89,7.89.29.29,0,0,0,.28.28h3.41a.28.28,0,0,0,.27-.28h0A11.93,11.93,0,0,0,.28,5.88Z"/>
    <path d="M18,17.72A17.84,17.84,0,0,0,.28,0,.29.29,0,0,0,0,.28V3.77A.28.28,0,0,0,.28,4,13.69,13.69,0,0,1,14,17.72a.29.29,0,0,0,.28.28h3.5a.29.29,0,0,0,.29-.28Z"/>
  </g>
</svg>
