<svg width="24" height="24" viewBox="0 0 24 24" fill="none" xmlns="http://www.w3.org/2000/svg">
<path fill-rule="evenodd" clip-rule="evenodd" d="M3.56696 1.33333H20.3289C20.9351 1.33333 21.5165 1.57414 21.9451 2.0028C22.3738 2.43145 22.6146 3.01283 22.6146 3.61904V20.3809C22.6146 20.9872 22.3738 21.5685 21.9451 21.9972C21.5165 22.4258 20.9351 22.6667 20.3289 22.6667H3.56696C2.96076 22.6667 2.37937 22.4258 1.95072 21.9972C1.52207 21.5685 1.28125 20.9872 1.28125 20.3809V3.61904C1.28125 3.01283 1.52207 2.43145 1.95072 2.0028C2.37937 1.57414 2.96076 1.33333 3.56696 1.33333ZM12 20C16.4183 20 20 16.4183 20 12C20 7.58172 16.4183 4 12 4C7.58172 4 4 7.58172 4 12C4 16.4183 7.58172 20 12 20ZM15.3604 11.1599C15.5704 10.9594 15.8568 10.8353 16.1719 10.8353C16.8115 10.8353 17.3366 11.3508 17.3366 12C17.3366 12.4773 17.0502 12.8878 16.6492 13.0692C16.6683 13.1838 16.6778 13.3079 16.6778 13.4224C16.6778 15.2267 14.5872 16.6778 12.0096 16.6778C9.43202 16.6778 7.34133 15.2172 7.34133 13.4224C7.34133 13.2983 7.35088 13.1838 7.36997 13.0692C6.96901 12.8878 6.68262 12.4869 6.68262 12.0095C6.68262 11.3699 7.19813 10.8449 7.8473 10.8449C8.16233 10.8449 8.44873 10.969 8.65875 11.1694C9.47021 10.5871 10.5872 10.2148 11.8282 10.1766L12.4201 7.389C12.4296 7.33173 12.4583 7.28399 12.506 7.25535C12.5442 7.22671 12.6015 7.21717 12.6588 7.22671L14.5967 7.63721C14.7303 7.36036 15.0167 7.16943 15.3413 7.16943C15.7996 7.16943 16.1719 7.54175 16.1719 7.99998C16.1719 8.45822 15.7996 8.83053 15.3413 8.83053C14.8926 8.83053 14.5299 8.47731 14.5108 8.03817L12.7733 7.66585L12.2387 10.167C13.4607 10.2148 14.5585 10.5871 15.3604 11.1599ZM9.33656 12.8305C9.33656 12.3723 9.70887 12 10.1671 12C10.6253 12 10.9977 12.3723 10.9977 12.8305C10.9977 13.2888 10.6253 13.6611 10.1671 13.6611C9.70887 13.6706 9.33656 13.2888 9.33656 12.8305ZM13.9857 15.0358C13.4129 15.6086 12.3246 15.6468 12.0096 15.6468C11.685 15.6468 10.5967 15.599 10.0335 15.0358C9.94753 14.9499 9.94753 14.8162 10.0335 14.7303C10.1194 14.6444 10.253 14.6444 10.3389 14.7303C10.7017 15.0931 11.4654 15.2172 12.0096 15.2172C12.5537 15.2172 13.327 15.0931 13.6802 14.7303C13.7661 14.6444 13.8998 14.6444 13.9857 14.7303C14.0621 14.8162 14.0621 14.9499 13.9857 15.0358ZM13.0024 12.8401C13.0024 13.2983 13.3747 13.6706 13.833 13.6706C14.2912 13.6706 14.6635 13.2888 14.6635 12.8401C14.6635 12.3818 14.2912 12.0095 13.833 12.0095C13.3747 12.0095 13.0024 12.3818 13.0024 12.8401Z" />
</svg>
