<svg xmlns="http://www.w3.org/2000/svg" xmlns:xlink="http://www.w3.org/1999/xlink" version="1.1" width="256" height="256" viewBox="0 0 256 256" xml:space="preserve">

<defs>
</defs>
<g style="stroke: none; stroke-width: 0; stroke-dasharray: none; stroke-linecap: butt; stroke-linejoin: miter; stroke-miterlimit: 10; fill: none; fill-rule: nonzero; opacity: 1;" transform="translate(1.4065934065934016 1.4065934065934016) scale(2.81 2.81)" >
	<path d="M 39.027 49.508 c 0 -2.483 -2.025 -4.508 -4.508 -4.508 c -2.483 0 -4.508 2.025 -4.508 4.508 c 0 2.483 2.014 4.485 4.508 4.508 C 37.002 54.016 39.027 51.991 39.027 49.508 z" style="stroke: none; stroke-width: 1; stroke-dasharray: none; stroke-linecap: butt; stroke-linejoin: miter; stroke-miterlimit: 10; fill: rgb(0,0,0); fill-rule: nonzero; opacity: 1;" transform=" matrix(1 0 0 1 0 0) " stroke-linecap="round" />
	<path d="M 54.395 60.258 c -2.74 1.957 -6.051 2.919 -9.407 2.74 c -3.355 0.157 -6.655 -0.85 -9.362 -2.83 c -0.459 -0.369 -1.097 -0.369 -1.544 0 c -0.515 0.425 -0.593 1.196 -0.168 1.711 c 3.2 2.405 7.114 3.636 11.119 3.468 c 4.005 0.167 7.92 -1.063 11.119 -3.468 v 0.179 c 0.492 -0.481 0.503 -1.286 0.022 -1.778 C 55.692 59.788 54.887 59.777 54.395 60.258 z" style="stroke: none; stroke-width: 1; stroke-dasharray: none; stroke-linecap: butt; stroke-linejoin: miter; stroke-miterlimit: 10; fill: rgb(0,0,0); fill-rule: nonzero; opacity: 1;" transform=" matrix(1 0 0 1 0 0) " stroke-linecap="round" />
	<path d="M 55.347 45.156 c -2.483 0 -4.508 2.025 -4.508 4.508 c 0 2.483 2.025 4.508 4.508 4.508 l -0.034 0.168 c 0.079 0 0.146 0 0.224 0 c 2.483 -0.101 4.418 -2.192 4.318 -4.676 C 59.855 47.181 57.83 45.156 55.347 45.156 z" style="stroke: none; stroke-width: 1; stroke-dasharray: none; stroke-linecap: butt; stroke-linejoin: miter; stroke-miterlimit: 10; fill: rgb(0,0,0); fill-rule: nonzero; opacity: 1;" transform=" matrix(1 0 0 1 0 0) " stroke-linecap="round" />
	<path d="M 45 0 C 20.147 0 0 20.147 0 45 c 0 24.853 20.147 45 45 45 c 24.853 0 45 -20.147 45 -45 C 90 20.147 69.853 0 45 0 z M 71.375 50.985 c 0.045 0.66 0.045 1.32 0 1.98 c 0 10.089 -11.745 18.277 -26.23 18.277 s -26.23 -8.199 -26.23 -18.277 c -0.045 -0.66 -0.045 -1.32 0 -1.98 c -0.66 -0.291 -1.252 -0.705 -1.767 -1.186 c -2.651 -2.483 -2.774 -6.644 -0.291 -9.284 c 2.483 -2.651 6.644 -2.774 9.284 -0.291 c 5.19 -3.512 11.286 -5.436 17.55 -5.537 l 3.322 -15.615 c 0 -0.011 0 -0.011 0 -0.022 c 0.168 -0.761 0.918 -1.231 1.667 -1.063 l 11.029 2.204 c 0.704 -1.231 1.979 -2.059 3.4 -2.204 c 2.472 -0.269 4.686 1.521 4.955 3.993 s -1.521 4.687 -3.993 4.955 c -2.472 0.269 -4.687 -1.521 -4.955 -3.993 l -9.631 -2.025 l -2.919 14.038 c 6.186 0.134 12.204 2.047 17.327 5.537 c 1.163 -1.107 2.695 -1.767 4.306 -1.823 c 3.635 -0.123 6.678 2.707 6.812 6.331 C 75.056 47.528 73.635 49.855 71.375 50.985 z" style="stroke: none; stroke-width: 1; stroke-dasharray: none; stroke-linecap: butt; stroke-linejoin: miter; stroke-miterlimit: 10; fill: rgb(0,0,0); fill-rule: nonzero; opacity: 1;" transform=" matrix(1 0 0 1 0 0) " stroke-linecap="round" />
</g>
</svg>