<?xml version="1.0" encoding="UTF-8"?>
<svg xmlns="http://www.w3.org/2000/svg" xmlns:xlink="http://www.w3.org/1999/xlink" x="0px" y="0px" viewBox="0 0 24 24" version="1.1">
<path style=" stroke:none;fill-rule:nonzero;fill:rgb(0%,0%,0%);fill-opacity:1;" d="M 10.8522 12.9345 C 10.8522 12.4397 10.4487 12.0392 9.9568 12.0392 C 9.462 12.0392 9.0615 12.4397 9.0615 12.9345 C 9.0615 13.4264 9.462 13.824 9.9568 13.8299 C 10.4487 13.8299 10.8522 13.4264 10.8522 12.9345 Z M 10.8522 12.9345"/>
<path style=" stroke:none;fill-rule:nonzero;fill:rgb(0%,0%,0%);fill-opacity:1;" d="M 13.9035 15.0699 C 13.3587 15.4587 12.7019 15.6472 12.0362 15.6118 C 11.3676 15.6442 10.7138 15.4439 10.1748 15.0493 C 10.0835 14.9786 9.9568 14.9786 9.8685 15.0493 C 9.7683 15.1347 9.7507 15.2878 9.8361 15.3909 C 10.4723 15.8681 11.2498 16.1125 12.0451 16.0801 C 12.8403 16.1125 13.6179 15.8681 14.254 15.3909 L 14.254 15.4263 C 14.3512 15.332 14.3542 15.17 14.257 15.0728 C 14.1627 14.9756 14.0007 14.9727 13.9035 15.0699 Z M 13.9035 15.0699"/>
<path style=" stroke:none;fill-rule:nonzero;fill:rgb(0%,0%,0%);fill-opacity:1;" d="M 14.092 12.0686 C 13.6002 12.0686 13.1967 12.4721 13.1967 12.964 C 13.1967 13.4588 13.6002 13.8594 14.092 13.8594 L 14.0862 13.8918 C 14.1009 13.8918 14.1156 13.8918 14.1303 13.8918 C 14.6251 13.8741 15.008 13.4588 14.9874 12.964 C 14.9874 12.4721 14.5869 12.0686 14.092 12.0686 Z M 14.092 12.0686"/>
<path style=" stroke:none;fill-rule:nonzero;fill:rgb(0%,0%,0%);fill-opacity:1;" d="M 12.0392 3.1001 C 7.0999 3.1001 3.1001 7.0999 3.1001 12.0392 C 3.1001 16.9755 7.0999 20.9752 12.0392 20.9752 C 16.9755 20.9752 20.9752 16.9755 20.9752 12.0392 C 20.9752 7.0999 16.9755 3.1001 12.0392 3.1001 Z M 17.2759 13.2261 C 17.2848 13.3587 17.2848 13.4883 17.2759 13.6208 C 17.2759 15.6236 14.9432 17.2494 12.0657 17.2494 C 9.1881 17.2494 6.8554 15.6207 6.8554 13.6208 C 6.8466 13.4883 6.8466 13.3587 6.8554 13.2261 C 6.7258 13.1702 6.608 13.0877 6.5049 12.9905 C 5.9777 12.4986 5.9541 11.671 6.449 11.1467 C 6.9408 10.6195 7.7685 10.596 8.2927 11.0878 C 9.3236 10.3927 10.5341 10.0098 11.777 9.9892 L 12.4368 6.8878 C 12.4368 6.8849 12.4368 6.8849 12.4368 6.8819 C 12.4721 6.7317 12.6194 6.6375 12.7696 6.6728 L 14.9609 7.1087 C 15.0993 6.8643 15.3526 6.7023 15.6354 6.6728 C 16.1273 6.6198 16.5661 6.9732 16.6191 7.4651 C 16.6721 7.957 16.3158 8.3958 15.8268 8.4488 C 15.335 8.5018 14.8961 8.1484 14.8431 7.6565 L 12.9286 7.253 L 12.3484 10.0422 C 13.5766 10.0687 14.7724 10.4487 15.7915 11.1438 C 16.0212 10.9229 16.3246 10.7904 16.6456 10.7815 C 17.3672 10.755 17.971 11.3176 18.0005 12.0392 C 18.0093 12.5399 17.7266 13.0023 17.2759 13.2261 Z M 17.2759 13.2261"/>
</svg>
