<svg width="24" height="24" viewBox="0 0 24 24" fill="none" xmlns="http://www.w3.org/2000/svg">
<path d="M10.1671 12C9.70887 12 9.33656 12.3723 9.33656 12.8305C9.33656 13.2888 9.70887 13.6706 10.1671 13.6611C10.6253 13.6611 10.9977 13.2888 10.9977 12.8305C10.9977 12.3723 10.6253 12 10.1671 12Z" />
<path d="M12.0096 15.6468C12.3246 15.6468 13.4129 15.6086 13.9857 15.0358C14.0621 14.9499 14.0621 14.8162 13.9857 14.7303C13.8998 14.6444 13.7661 14.6444 13.6802 14.7303C13.327 15.0931 12.5537 15.2172 12.0096 15.2172C11.4654 15.2172 10.7017 15.0931 10.3389 14.7303C10.253 14.6444 10.1194 14.6444 10.0335 14.7303C9.94753 14.8162 9.94753 14.9499 10.0335 15.0358C10.5967 15.599 11.685 15.6468 12.0096 15.6468Z" />
<path d="M13.0024 12.8401C13.0024 13.2983 13.3747 13.6706 13.833 13.6706C14.2912 13.6706 14.6635 13.2888 14.6635 12.8401C14.6635 12.3818 14.2912 12.0095 13.833 12.0095C13.3747 12.0095 13.0024 12.3818 13.0024 12.8401Z" />
<path d="M20 12C20 16.4183 16.4183 20 12 20C7.58172 20 4 16.4183 4 12C4 7.58172 7.58172 4 12 4C16.4183 4 20 7.58172 20 12ZM16.1719 10.8353C15.8568 10.8353 15.5704 10.9594 15.3604 11.1599C14.5585 10.5871 13.4607 10.2148 12.2387 10.167L12.7733 7.66585L14.5108 8.03817C14.5299 8.47731 14.8926 8.83053 15.3413 8.83053C15.7996 8.83053 16.1719 8.45822 16.1719 7.99998C16.1719 7.54175 15.7996 7.16943 15.3413 7.16943C15.0167 7.16943 14.7303 7.36036 14.5967 7.63721L12.6588 7.22671C12.6015 7.21717 12.5442 7.22671 12.506 7.25535C12.4583 7.28399 12.4296 7.33173 12.4201 7.389L11.8282 10.1766C10.5872 10.2148 9.47021 10.5871 8.65875 11.1694C8.44873 10.969 8.16233 10.8449 7.8473 10.8449C7.19813 10.8449 6.68262 11.3699 6.68262 12.0095C6.68262 12.4869 6.96901 12.8878 7.36997 13.0692C7.35088 13.1838 7.34133 13.2983 7.34133 13.4224C7.34133 15.2172 9.43202 16.6778 12.0096 16.6778C14.5872 16.6778 16.6778 15.2267 16.6778 13.4224C16.6778 13.3079 16.6683 13.1838 16.6492 13.0692C17.0502 12.8878 17.3366 12.4773 17.3366 12C17.3366 11.3508 16.8115 10.8353 16.1719 10.8353Z" />
</svg>
