<?xml version="1.0" encoding="UTF-8"?>
<svg xmlns="http://www.w3.org/2000/svg" xmlns:xlink="http://www.w3.org/1999/xlink" x="0px" y="0px" viewBox="0 0 24 24" version="1.1">
<path style=" stroke:none;fill-rule:nonzero;fill:rgb(0%,0%,0%);fill-opacity:1;" d="M 10.414062 13.175781 C 10.414062 12.519531 9.878906 11.988281 9.226562 11.988281 C 8.570312 11.988281 8.039062 12.519531 8.039062 13.175781 C 8.039062 13.828125 8.570312 14.355469 9.226562 14.363281 C 9.878906 14.363281 10.414062 13.828125 10.414062 13.175781 Z M 10.414062 13.175781 "/>
<path style=" stroke:none;fill-rule:nonzero;fill:rgb(0%,0%,0%);fill-opacity:1;" d="M 14.460938 16.007812 C 13.738281 16.523438 12.867188 16.773438 11.984375 16.726562 C 11.097656 16.769531 10.230469 16.503906 9.515625 15.980469 C 9.394531 15.886719 9.226562 15.886719 9.109375 15.980469 C 8.976562 16.09375 8.953125 16.296875 9.066406 16.433594 C 9.910156 17.066406 10.941406 17.390625 11.996094 17.347656 C 13.050781 17.390625 14.082031 17.066406 14.925781 16.433594 L 14.925781 16.480469 C 15.054688 16.355469 15.058594 16.140625 14.929688 16.011719 C 14.804688 15.882812 14.589844 15.878906 14.460938 16.007812 Z M 14.460938 16.007812 "/>
<path style=" stroke:none;fill-rule:nonzero;fill:rgb(0%,0%,0%);fill-opacity:1;" d="M 14.710938 12.027344 C 14.058594 12.027344 13.523438 12.5625 13.523438 13.214844 C 13.523438 13.871094 14.058594 14.402344 14.710938 14.402344 L 14.703125 14.445312 C 14.722656 14.445312 14.742188 14.445312 14.761719 14.445312 C 15.417969 14.421875 15.925781 13.871094 15.898438 13.214844 C 15.898438 12.5625 15.367188 12.027344 14.710938 12.027344 Z M 14.710938 12.027344 "/>
<path style=" stroke:none;fill-rule:nonzero;fill:rgb(0%,0%,0%);fill-opacity:1;" d="M 11.988281 0.132812 C 5.4375 0.132812 0.132812 5.4375 0.132812 11.988281 C 0.132812 18.535156 5.4375 23.839844 11.988281 23.839844 C 18.535156 23.839844 23.839844 18.535156 23.839844 11.988281 C 23.839844 5.4375 18.535156 0.132812 11.988281 0.132812 Z M 18.933594 13.5625 C 18.945312 13.738281 18.945312 13.910156 18.933594 14.085938 C 18.933594 16.742188 15.839844 18.898438 12.023438 18.898438 C 8.207031 18.898438 5.113281 16.738281 5.113281 14.085938 C 5.101562 13.910156 5.101562 13.738281 5.113281 13.5625 C 4.941406 13.488281 4.785156 13.378906 4.648438 13.25 C 3.949219 12.597656 3.917969 11.5 4.574219 10.804688 C 5.226562 10.105469 6.324219 10.074219 7.019531 10.726562 C 8.386719 9.804688 9.992188 9.296875 11.640625 9.269531 L 12.515625 5.15625 C 12.515625 5.152344 12.515625 5.152344 12.515625 5.148438 C 12.5625 4.949219 12.757812 4.824219 12.957031 4.871094 L 15.863281 5.449219 C 16.046875 5.125 16.382812 4.910156 16.757812 4.871094 C 17.410156 4.800781 17.992188 5.269531 18.0625 5.921875 C 18.132812 6.574219 17.660156 7.15625 17.011719 7.226562 C 16.359375 7.296875 15.777344 6.828125 15.707031 6.175781 L 13.167969 5.640625 L 12.398438 9.339844 C 14.027344 9.375 15.613281 9.878906 16.964844 10.800781 C 17.269531 10.507812 17.671875 10.332031 18.097656 10.320312 C 19.054688 10.285156 19.855469 11.03125 19.894531 11.988281 C 19.90625 12.652344 19.53125 13.265625 18.933594 13.5625 Z M 18.933594 13.5625 "/>
</svg>
