<svg width="24" height="24" viewBox="0 0 24 24" fill="none" xmlns="http://www.w3.org/2000/svg">
<path fill-rule="evenodd" clip-rule="evenodd" d="M3.56696 1.33333H20.3289C20.9351 1.33333 21.5165 1.57414 21.9451 2.0028C22.3738 2.43145 22.6146 3.01283 22.6146 3.61904V20.3809C22.6146 20.9872 22.3738 21.5685 21.9451 21.9972C21.5165 22.4258 20.9351 22.6667 20.3289 22.6667H3.56696C2.96076 22.6667 2.37937 22.4258 1.95072 21.9972C1.52207 21.5685 1.28125 20.9872 1.28125 20.3809V3.61904C1.28125 3.01283 1.52207 2.43145 1.95072 2.0028C2.37937 1.57414 2.96076 1.33333 3.56696 1.33333ZM8.01249 5H16.5823C17.6724 5 18.5445 5.92239 18.5445 7.0628V7.73363H6V7.0628C6 5.92239 6.90562 5 8.01249 5ZM6 8.45478H18.5445V11.0375H6V8.45478ZM6 11.7921H18.5445V14.3748H6V11.7921ZM6 15.1128V15.7836C6 16.924 6.90562 17.8464 8.01249 17.8464H13.3791V20.58L16.0289 17.8464H16.6159C17.7227 17.8464 18.6283 16.924 18.6283 15.7836V15.1128H6Z" />
</svg>
