<svg xmlns="http://www.w3.org/2000/svg" width="24" height="24" viewBox="0 0 16 16">
  <path d="M 8 1.7 C 4.3 1.7 1.4 4.5 1.4 8.2 C 1.4 11.6 4.3 14.6 8 14.6 C 11.5 14.6 14.6 11.6 14.6 8.2 C 14.6 4.5 11.5 1.7 8 1.7 m 3.1 9.3 C 10.9 11.1 10.7 11.1 10.5 11 c -1.6 -0.9 -3.5 -1.2 -5.8 -0.7 C 4.4 10.6 4.2 10.4 4.2 10.2 C 4.1 9.9 4.3 9.7 4.4 9.6 c 2.6 -0.6 4.6 -0.4 6.4 0.7 C 11 10.6 11.1 10.7 10.9 10.9 m 0.8 -1.9 C 11.6 9.5 11.2 9.5 11.1 9.4 c -1.9 -1.1 -4.4 -1.4 -6.6 -0.7 C 4.3 8.6 4 8.4 3.9 8.2 C 3.9 8.1 4 7.8 4.3 7.7 c 2.4 -0.7 5.3 -0.4 7.4 0.9 C 11.8 8.6 11.9 8.9 11.7 9.2 m 0.1 -1.9 C 9.8 6.1 6.2 6 4.3 6.6 C 3.9 6.7 3.6 6.5 3.5 6.2 C 3.4 5.8 3.6 5.5 3.9 5.4 c 2.4 -0.7 6.1 -0.6 8.6 0.9 C 12.6 6.4 12.7 6.6 12.7 6.9 C 12.7 7 12.6 7.2 12.4 7.4 C 12.2 7.5 12 7.5 11.8 7.4"/>
</svg>
