<?xml version="1.0" encoding="UTF-8"?>
<svg xmlns="http://www.w3.org/2000/svg" xmlns:xlink="http://www.w3.org/1999/xlink" x="0px" y="0px" viewBox="0 0 24 24" version="1.1">
<defs><clipPath id="inner-part">
<path style=" stroke:none;fill-rule:nonzero;fill:rgb(0%,0%,0%);fill-opacity:1;" d="M 19.76 16.3013 C 16.9663 14.9475 16.52 12.8587 16.5013 12.705 C 16.475 12.5175 16.4487 12.3713 16.655 12.18 C 16.8575 11.9963 17.7425 11.4487 17.9863 11.2763 C 18.3913 10.9913 18.5713 10.71 18.44 10.3613 C 18.3463 10.1213 18.1213 10.0275 17.885 10.0275 C 17.8137 10.0275 17.7387 10.0387 17.6637 10.0537 C 17.2175 10.1513 16.7863 10.3725 16.535 10.4363 C 16.505 10.4437 16.475 10.4475 16.4413 10.4475 C 16.31 10.4475 16.2575 10.3875 16.2725 10.2263 C 16.3025 9.7387 16.37 8.7863 16.2913 7.8975 C 16.1863 6.675 15.7925 6.0713 15.3237 5.535 C 15.0987 5.2725 14.0487 4.1587 12.02 4.1587 C 9.9913 4.1587 8.945 5.2725 8.72 5.5313 C 8.2475 6.0675 7.8537 6.6713 7.7525 7.8937 C 7.6737 8.7825 7.7413 9.735 7.7713 10.2225 C 7.7825 10.3763 7.7337 10.4437 7.5987 10.4437 C 7.5687 10.4437 7.5387 10.44 7.5087 10.4325 C 7.2575 10.3725 6.8263 10.1475 6.38 10.05 C 6.305 10.035 6.23 10.0275 6.155 10.0275 C 5.9187 10.0275 5.6975 10.1175 5.6037 10.3575 C 5.4725 10.7063 5.6487 10.9875 6.0575 11.2725 C 6.3013 11.445 7.1863 11.9925 7.3887 12.1763 C 7.595 12.3675 7.5687 12.5137 7.5425 12.7013 C 7.5237 12.8587 7.0775 14.9475 4.2837 16.2975 C 4.1225 16.3763 3.845 16.545 4.3325 16.815 C 5.105 17.2387 5.6187 17.1937 6.0163 17.4525 C 6.3537 17.67 6.155 18.1387 6.3987 18.3075 C 6.7025 18.5175 7.595 18.2925 8.75 18.675 C 9.7175 18.9937 10.3063 19.8937 12.0237 19.8937 C 13.7375 19.8937 14.345 18.99 15.2937 18.675 C 16.445 18.2925 17.3413 18.5175 17.645 18.3075 C 17.8887 18.1387 17.69 17.67 18.0275 17.4525 C 18.4287 17.1937 18.9387 17.2387 19.7113 16.815 C 20.1987 16.5487 19.9213 16.38 19.76 16.3013 Z M 19.76 16.3013"/>
</clipPath></defs>
<path style=" stroke:none;fill-rule:nonzero;fill:rgb(0%,0%,0%);fill-opacity:1;" mask="url(#inner-part)" d="M 20.975 16.14 C 20.8475 15.7987 20.6075 15.6187 20.3375 15.465 C 20.285 15.435 20.24 15.4125 20.1987 15.3937 C 20.1163 15.3525 20.0337 15.3113 19.9513 15.27 C 19.1037 14.82 18.4437 14.2537 17.9863 13.5825 C 17.855 13.3913 17.7425 13.1925 17.645 12.9825 C 17.6075 12.87 17.6113 12.8063 17.6375 12.7463 C 17.6637 12.705 17.7013 12.6637 17.7463 12.6337 C 17.8925 12.54 18.0425 12.4425 18.1437 12.375 C 18.3237 12.2587 18.47 12.165 18.56 12.0975 C 18.9087 11.8537 19.1525 11.5987 19.3063 11.3063 C 19.52 10.905 19.5463 10.425 19.3813 10.0013 C 19.1525 9.3937 18.5787 9.0187 17.885 9.0187 C 17.7387 9.0187 17.5925 9.0337 17.45 9.0637 C 17.4125 9.0713 17.375 9.0787 17.3375 9.09 C 17.3413 8.6737 17.3337 8.2387 17.2963 7.8075 C 17.165 6.2925 16.6363 5.4975 16.0813 4.8637 C 15.7287 4.47 15.3125 4.1325 14.8475 3.87 C 14.0075 3.3937 13.0587 3.15 12.02 3.15 C 10.9813 3.15 10.0363 3.3937 9.1963 3.87 C 8.7313 4.1325 8.315 4.47 7.9587 4.8675 C 7.4075 5.5013 6.875 6.2963 6.7437 7.8075 C 6.7063 8.2387 6.6987 8.6813 6.7063 9.0937 C 6.6687 9.0825 6.6313 9.075 6.59 9.0637 C 6.4475 9.0337 6.3013 9.0187 6.155 9.0187 C 5.4613 9.0187 4.8875 9.3975 4.6587 10.0013 C 4.4937 10.4287 4.52 10.905 4.7337 11.31 C 4.8875 11.5987 5.1313 11.8575 5.4763 12.1013 C 5.57 12.165 5.7163 12.2587 5.8963 12.3787 C 5.9937 12.4425 6.1363 12.5363 6.2787 12.63 C 6.3275 12.66 6.3687 12.7013 6.3987 12.75 C 6.4287 12.81 6.4325 12.8775 6.3875 12.9975 C 6.2937 13.2 6.1813 13.3987 6.0537 13.5825 C 5.6075 14.2387 4.9625 14.7975 4.145 15.2437 C 3.71 15.4725 3.2563 15.6263 3.065 16.1437 C 2.9225 16.5375 3.0163 16.98 3.3837 17.355 C 3.515 17.4975 3.6725 17.6137 3.8413 17.7037 C 4.1975 17.8987 4.5763 18.0525 4.97 18.1575 C 5.0525 18.1763 5.1275 18.21 5.1987 18.2587 C 5.33 18.375 5.3113 18.5513 5.4913 18.8063 C 5.5775 18.9413 5.6937 19.0537 5.825 19.1475 C 6.1963 19.4025 6.6125 19.4213 7.0587 19.4363 C 7.4563 19.4513 7.9137 19.47 8.4313 19.6387 C 8.645 19.71 8.87 19.8487 9.125 20.01 C 9.7475 20.3887 10.5987 20.9137 12.02 20.9137 C 13.4413 20.9137 14.2963 20.3887 14.9225 20.0063 C 15.1775 19.8487 15.3987 19.71 15.6087 19.6425 C 16.1263 19.47 16.58 19.455 16.9813 19.44 C 17.4237 19.4213 17.8437 19.4063 18.215 19.1475 C 18.3725 19.0387 18.5 18.8963 18.5937 18.735 C 18.725 18.5175 18.7213 18.3637 18.8413 18.2587 C 18.905 18.2137 18.9763 18.18 19.055 18.1613 C 19.4525 18.0563 19.835 17.9025 20.195 17.7075 C 20.3787 17.61 20.5437 17.4787 20.6787 17.3287 L 20.6863 17.3213 C 21.0275 16.9537 21.1137 16.5225 20.975 16.14 Z M 19.7075 16.8187 C 18.9387 17.2463 18.425 17.2013 18.0275 17.4563 C 17.69 17.6737 17.8887 18.1463 17.645 18.315 C 17.3413 18.525 16.4487 18.3 15.2937 18.6825 C 14.3413 18.9937 13.7337 19.9013 12.02 19.9013 C 10.31 19.9013 9.7175 18.9975 8.75 18.6787 C 7.595 18.2963 6.7025 18.5213 6.3987 18.3113 C 6.1513 18.1425 6.3537 17.6737 6.0125 17.4563 C 5.615 17.1975 5.1013 17.2425 4.3325 16.8187 C 3.8413 16.5487 4.1187 16.38 4.2837 16.3013 C 7.0737 14.9513 7.52 12.8625 7.5425 12.7087 C 7.565 12.5213 7.5913 12.3713 7.385 12.1837 C 7.1863 11.9963 6.3013 11.4487 6.0537 11.28 C 5.6487 10.995 5.4687 10.71 5.6 10.3613 C 5.6937 10.1213 5.9187 10.0313 6.155 10.0313 C 6.23 10.0313 6.305 10.0387 6.3763 10.0575 C 6.8225 10.1513 7.2537 10.3763 7.505 10.4363 C 7.535 10.4437 7.565 10.4475 7.5987 10.4475 C 7.73 10.4475 7.7787 10.38 7.7675 10.23 C 7.7413 9.7425 7.67 8.79 7.7487 7.9013 C 7.8537 6.6787 8.2475 6.0713 8.7163 5.535 C 8.9413 5.28 9.9987 4.1625 12.02 4.1625 C 14.0375 4.1625 15.0987 5.2725 15.3237 5.5313 C 15.7925 6.0675 16.1863 6.6713 16.2913 7.8937 C 16.3663 8.7825 16.3025 9.735 16.2687 10.2225 C 16.2575 10.3837 16.3063 10.4437 16.4413 10.4437 C 16.4713 10.4437 16.505 10.44 16.535 10.4325 C 16.7825 10.3725 17.2175 10.1475 17.6637 10.05 C 17.735 10.035 17.81 10.0275 17.885 10.0275 C 18.1213 10.0275 18.3463 10.1175 18.4363 10.3575 C 18.5713 10.7063 18.3913 10.9875 17.9863 11.2725 C 17.7387 11.445 16.8537 11.9925 16.655 12.1763 C 16.4487 12.3675 16.475 12.5137 16.4975 12.7013 C 16.52 12.8587 16.9625 14.9475 19.7563 16.2975 C 19.9213 16.38 20.1987 16.5487 19.7075 16.8187 Z M 19.7075 16.8187"/>
</svg>
