<svg xmlns="http://www.w3.org/2000/svg" width="24" height="24"
     viewBox="0 0 24 24">
  <title>Share</title>
  <g>
    <path
      d="M17.5,15a2.5,2.5,0,0,0-2,1L7.9,12.6A1.3,1.3,0,0,0,8,12a1.3,1.3,0,0,0-.1-.6L15.5,8A2.5,2.5,0,1,0,15,6.5a1.3,1.3,0,0,0,.1.6L7.5,10.5a2.5,2.5,0,1,0,0,3l7.6,3.4a1.3,1.3,0,0,0-.1.6A2.5,2.5,0,1,0,17.5,15Zm0-10A1.5,1.5,0,0,1,19,6.5a1.5,1.5,0,0,1-3,0A1.5,1.5,0,0,1,17.5,5Zm-12,8.5a1.5,1.5,0,0,1,0-3,1.5,1.5,0,0,1,0,3Zm12,5.5A1.5,1.5,0,1,1,19,17.5,1.5,1.5,0,0,1,17.5,19Z"
    />
  </g>
  <g>
    <rect width="24" height="24" fill="none"/>
  </g>
</svg>
