<svg xmlns="http://www.w3.org/2000/svg" viewBox="0 0 24 24"><title>it-settings</title><g><path d="M13,3V5l.75.2a6.9,6.9,0,0,1,1.8.74l.67.39.54-.54.89-.89,1.42,1.41-.89.89-.55.55.39.67a6.54,6.54,0,0,1,.75,1.79L19,11h2v2H19l-.19.75A6.54,6.54,0,0,1,18,15.55l-.39.67.55.55.89.89-1.42,1.41-.89-.89-.54-.54-.67.39a6.9,6.9,0,0,1-1.8.74L13,19v2H11V19l-.75-.2A6.9,6.9,0,0,1,8.45,18l-.67-.39-.54.54-.89.89L4.93,17.66l.89-.89.55-.55L6,15.55a6.54,6.54,0,0,1-.75-1.79L5,13H3V11H5l.19-.76A6.54,6.54,0,0,1,6,8.46l.39-.67-.55-.55-.89-.89L6.35,4.94l.89.89.54.54L8.45,6a6.9,6.9,0,0,1,1.8-.74L11,5V3h2m.5-1h-3a.5.5,0,0,0-.5.5V4.27a7.92,7.92,0,0,0-2.06.85L6.7,3.88a.5.5,0,0,0-.35-.15A.51.51,0,0,0,6,3.88L3.87,6a.51.51,0,0,0,0,.71L5.11,8A8,8,0,0,0,4.26,10H2.51a.5.5,0,0,0-.5.5v3a.5.5,0,0,0,.5.5H4.26a8.06,8.06,0,0,0,.85,2L3.87,17.3a.51.51,0,0,0,0,.71L6,20.13a.51.51,0,0,0,.36.15.5.5,0,0,0,.35-.15l1.24-1.24a7.92,7.92,0,0,0,2.06.85V21.5a.5.5,0,0,0,.5.5h3a.5.5,0,0,0,.5-.5V19.74a7.92,7.92,0,0,0,2.06-.85l1.24,1.24a.5.5,0,0,0,.35.15.51.51,0,0,0,.36-.15L20.13,18a.51.51,0,0,0,0-.71l-1.24-1.24a8.06,8.06,0,0,0,.85-2h1.75a.5.5,0,0,0,.5-.5v-3a.5.5,0,0,0-.5-.5H19.74A8,8,0,0,0,18.89,8l1.24-1.24a.51.51,0,0,0,0-.71L18,3.88a.51.51,0,0,0-.36-.15.5.5,0,0,0-.35.15L16.06,5.12A7.92,7.92,0,0,0,14,4.27V2.51a.5.5,0,0,0-.5-.5Z"/><path d="M12,9.25A2.75,2.75,0,1,1,9.25,12,2.75,2.75,0,0,1,12,9.25m0-1A3.75,3.75,0,1,0,15.75,12,3.75,3.75,0,0,0,12,8.25Z"/></g></svg>
