<svg width="24" height="24" viewBox="0 0 6.3500001 6.3500001" xmlns="http://www.w3.org/2000/svg">
  <path
    d="M 2.7103904,4.769647 C 2.6884304,4.747157 2.6691154,4.722551 2.6535054,4.693447 2.6373654,4.665401 2.6222844,4.636297 2.6082615,4.606664 2.5931805,4.577031 2.5783635,4.548191 2.5619595,4.519881 2.5463495,4.491835 2.5272995,4.466435 2.5037515,4.443681 2.4812616,4.421985 2.4534806,4.403464 2.4209366,4.390235 2.3881286,4.376741 2.3476467,4.369598 2.3002867,4.369598 c -0.024077,0 -0.049742,0.00212 -0.076729,0.00635 -0.026987,0.00423 -0.055298,0.012171 -0.085725,0.023283 -0.031221,0.010583 -0.063236,0.0254 -0.097367,0.043127 -0.033867,0.018256 -0.070115,0.04154 -0.1071562,0.06985 -0.00767,-0.0127 -0.016933,-0.024606 -0.027517,-0.036777 -0.011377,-0.011906 -0.024871,-0.021696 -0.041275,-0.030956 -0.01614,-0.00926 -0.035454,-0.01614 -0.056621,-0.02196 -0.022225,-0.00503 -0.047625,-0.00767 -0.075935,-0.00767 -0.048419,0 -0.097896,0.00635 -0.1489602,0.020373 C 1.5324666,4.448712 1.4821953,4.466439 1.4311309,4.487606 1.3805959,4.508773 1.3303247,4.532585 1.280583,4.558779 1.231106,4.585502 1.1826871,4.610902 1.1350623,4.637096 c -0.046567,0.0254 -0.092075,0.049477 -0.13599568,0.071173 -0.043392,0.021167 -0.0851959,0.038894 -0.12435411,0.0508 l 0.0801689,0.2492321 c 0.039158,-0.0127 0.080169,-0.029633 0.12276665,-0.050271 0.042598,-0.021167 0.08599,-0.042863 0.1299102,-0.065617 0.043921,-0.023283 0.088106,-0.046567 0.132027,-0.070379 0.044715,-0.024077 0.087312,-0.046037 0.1299103,-0.065617 0.041804,-0.019844 0.082286,-0.037571 0.1203854,-0.051594 0.038365,-0.014023 0.074613,-0.02249 0.1071562,-0.026723 -5.292e-4,0.00767 -5.292e-4,0.015346 -0.00132,0.023283 -7.938e-4,0.00767 -0.00159,0.015346 -0.00212,0.02249 0,0.00767 -7.937e-4,0.01561 -7.937e-4,0.023283 -7.938e-4,0.00847 -7.938e-4,0.01614 -7.938e-4,0.024077 0,0.027517 0.00714,0.051329 0.022225,0.072496 0.014023,0.020638 0.03175,0.035454 0.05371,0.045244 0.021431,0.00979 0.044715,0.014288 0.070379,0.011906 0.024871,-0.00212 0.048154,-0.011906 0.069585,-0.029633 0.029104,-0.0254 0.060325,-0.051329 0.092869,-0.07964 0.032808,-0.02831 0.065881,-0.05424 0.099483,-0.078317 0.033338,-0.023283 0.066675,-0.043127 0.1005416,-0.059267 0.034131,-0.01561 0.066675,-0.023283 0.099483,-0.023283 0.011377,0 0.021167,0.00423 0.029104,0.0127 0.00847,0.00847 0.016404,0.020373 0.024077,0.03519 0.00767,0.01561 0.01561,0.033338 0.024871,0.05371 0.00847,0.021167 0.01905,0.043127 0.032015,0.06694 0.0127,0.024077 0.02831,0.049477 0.046567,0.075671 0.018521,0.025929 0.041275,0.052917 0.068262,0.079111 z"
    clip-rule="evenodd" fill-rule="nonzero" />
  <path
    d="M 5.0908448,2.3606157 3.23744,4.2052907 c -0.02831,0.028046 -0.056092,0.0635 -0.082285,0.1050395 -0.026194,0.04101 -0.050271,0.08546 -0.072231,0.1312334 -0.022754,0.046567 -0.042598,0.093133 -0.059796,0.1397 -0.017727,0.046567 -0.03175,0.0889 -0.043127,0.127 -0.011377,0.0381 -0.018521,0.06985 -0.022754,0.096044 -0.00344,0.026194 -0.00344,0.04154 0.00212,0.046567 0.00503,0.00503 0.020637,0.00556 0.046831,0.00132 0.025665,-0.00344 0.058208,-0.011113 0.096573,-0.02249 0.038894,-0.010583 0.081492,-0.024606 0.1283228,-0.042333 0.046831,-0.017727 0.093662,-0.037306 0.1396999,-0.059267 0.046302,-0.02196 0.090223,-0.046567 0.132027,-0.07276 0.041804,-0.025929 0.076729,-0.053446 0.1050395,-0.081756 L 5.4612651,2.7297067 c 0.027517,-0.027517 0.046831,-0.055033 0.058737,-0.084667 0.011377,-0.028839 0.017198,-0.057944 0.017198,-0.087577 0,-0.03519 -0.00794,-0.06985 -0.022754,-0.1021292 -0.01561,-0.032544 -0.035454,-0.062177 -0.061119,-0.087577 -0.0254,-0.0254 -0.054504,-0.045244 -0.087048,-0.06059 -0.032808,-0.01561 -0.067469,-0.022754 -0.1029228,-0.022754 -0.029898,0 -0.059002,0.00556 -0.088106,0.017727 -0.029104,0.011906 -0.056621,0.030956 -0.084402,0.058473 z"
    clip-rule="evenodd" fill-rule="nonzero" />
</svg>
