<svg xmlns="http://www.w3.org/2000/svg" width="24" height="24" viewBox="0 0 16 16">
  <path d="M 8 1.4 C 4.2 1.4 1.2 4.3 1.2 8.1 C 1.2 11.7 4.2 14.8 8 14.8 C 11.7 14.8 14.8 11.7 14.8 8.1 C 14.8 4.3 11.7 1.4 8 1.4 m 3.1 9.7 C 11 11.2 10.7 11.2 10.5 11.1 c -1.6 -0.9 -3.6 -1.2 -6 -0.7 C 4.3 10.6 4.1 10.4 4.1 10.2 C 4 9.9 4.2 9.7 4.3 9.6 c 2.6 -0.6 4.8 -0.4 6.6 0.7 C 11.1 10.6 11.2 10.8 11 11 m 0.8 -1.9 C 11.8 9.5 11.4 9.5 11.2 9.4 c -1.9 -1.1 -4.6 -1.4 -6.8 -0.7 C 4.2 8.6 3.9 8.4 3.8 8.2 C 3.7 8 3.9 7.7 4.2 7.6 c 2.4 -0.7 5.5 -0.4 7.6 0.9 C 12 8.6 12.1 8.9 11.9 9.2 m 0.1 -1.9 C 9.8 6 6.2 5.9 4.2 6.5 C 3.8 6.6 3.4 6.4 3.3 6.1 C 3.2 5.7 3.4 5.4 3.8 5.3 c 2.4 -0.7 6.3 -0.6 8.8 0.9 C 12.8 6.3 12.9 6.5 12.9 6.8 C 12.9 6.9 12.8 7.1 12.6 7.3 C 12.4 7.4 12.2 7.4 12 7.3"/>
</svg>
