<?xml version="1.0" encoding="UTF-8"?>
<svg xmlns="http://www.w3.org/2000/svg" xmlns:xlink="http://www.w3.org/1999/xlink" x="0px" y="0px" viewBox="0 0 24 24" version="1.1">
<path style=" stroke:none;fill-rule:nonzero;fill:rgb(0%,0%,0%);fill-opacity:1;" d="M 17.03125 15.484375 L 19.160156 15.484375 L 19.160156 24 L 0 24 L 0 15.484375 L 2.128906 15.484375 L 2.128906 21.871094 L 17.03125 21.871094 Z M 17.03125 15.484375 "/>
<path style=" stroke:none;fill-rule:nonzero;fill:rgb(0%,0%,0%);fill-opacity:1;" d="M 4.449219 14.851562 L 14.90625 17.046875 L 15.34375 14.957031 L 4.890625 12.757812 Z M 5.832031 9.84375 L 15.519531 14.355469 L 16.421875 12.417969 L 6.734375 7.90625 Z M 8.511719 5.09375 L 16.726562 11.929688 L 18.09375 10.289062 L 9.878906 3.449219 Z M 13.8125 0.0390625 L 12.097656 1.3125 L 18.476562 9.886719 L 20.191406 8.613281 Z M 4.257812 19.742188 L 14.902344 19.742188 L 14.902344 17.613281 L 4.257812 17.613281 Z M 4.257812 19.742188 "/>
</svg>
