<?xml version="1.0" encoding="UTF-8"?>
<svg xmlns="http://www.w3.org/2000/svg" xmlns:xlink="http://www.w3.org/1999/xlink" x="0px" y="0px" viewBox="0 0 24 24" version="1.1">
<path style=" stroke:none;fill-rule:nonzero;fill:rgb(0%,0%,0%);fill-opacity:1;" d="M 17.3245 14.6597 L 18.9276 14.6597 L 18.9276 21.072 L 4.5 21.072 L 4.5 14.6597 L 6.1031 14.6597 L 6.1031 19.4689 L 17.3245 19.4689 Z M 17.3245 14.6597"/>
<path style=" stroke:none;fill-rule:nonzero;fill:rgb(0%,0%,0%);fill-opacity:1;" d="M 7.8503 14.1832 L 15.7244 15.8363 L 16.0538 14.2626 L 8.1826 12.6066 Z M 8.8915 10.4123 L 16.1862 13.8097 L 16.8657 12.3507 L 9.571 8.9534 Z M 10.9093 6.8356 L 17.0951 11.9831 L 18.1246 10.7477 L 11.9388 5.5973 Z M 14.9008 3.0294 L 13.6095 3.9883 L 18.4129 10.4447 L 19.7041 9.4858 Z M 7.7061 17.8659 L 15.7215 17.8659 L 15.7215 16.2628 L 7.7061 16.2628 Z M 7.7061 17.8659"/>
</svg>
