<svg width="24" height="24" viewBox="0 0 24 24" xmlns="http://www.w3.org/2000/svg">
  <path d="m 10.243995,18.027013 c -0.083,-0.085 -0.156,-0.178001 -0.214998,-0.288 -0.061002,-0.106001 -0.1180007,-0.216 -0.1710006,-0.327999 -0.056999,-0.111999 -0.1130003,-0.221001 -0.1749997,-0.327999 -0.058998,-0.106001 -0.1309984,-0.202001 -0.2199988,-0.288 -0.085001,-0.082 -0.1900002,-0.152001 -0.3130012,-0.202001 -0.1239987,-0.051 -0.2770012,-0.078 -0.4559996,-0.078 -0.091,0 -0.1880013,0.008 -0.2899994,0.024 -0.1019981,0.01599 -0.2090003,0.046 -0.324,0.088 -0.1180006,0.04 -0.2390022,0.096 -0.3680012,0.163 -0.1280013,0.069 -0.2650016,0.157001 -0.4049999,0.264 -0.028989,-0.048 -0.063999,-0.093 -0.1040012,-0.139 -0.043,-0.045 -0.094001,-0.082 -0.156,-0.116999 -0.061002,-0.035 -0.1339994,-0.061 -0.2140007,-0.083 -0.084,-0.01901 -0.18,-0.02899 -0.2869984,-0.02899 -0.1830009,0 -0.3700006,0.024 -0.5629992,0.077 -0.1909973,0.051 -0.380999,0.118001 -0.5739983,0.198002 -0.1909985,0.08 -0.3809999,0.169999 -0.569,0.269 -0.1869997,0.101 -0.3700002,0.197 -0.5499995,0.296001 -0.1760013,0.096 -0.348,0.187 -0.5139994,0.269001 -0.1640013,0.08 -0.3220003,0.147001 -0.4699998,0.192 l 0.3030006,0.941979 c 0.1479987,-0.048 0.3030009,-0.111998 0.4640001,-0.19 0.1610003,-0.08 0.3250015,-0.162002 0.4909991,-0.248002 0.1660007,-0.088 0.3329991,-0.176001 0.4989997,-0.265999 0.1690016,-0.091 0.3299982,-0.173998 0.4909996,-0.248001 0.1579994,-0.075 0.3110022,-0.142001 0.4549999,-0.195001 0.1450016,-0.053 0.2820019,-0.085 0.4049999,-0.101 -0.002,0.02899 -0.002,0.058 -0.00499,0.088 -0.003,0.02899 -0.00601,0.058 -0.00801,0.085 0,0.02899 -0.003,0.059 -0.003,0.088 -0.003,0.03201 -0.003,0.061 -0.003,0.091 0,0.104002 0.026986,0.194 0.084,0.274001 0.053,0.078 0.12,0.133999 0.2029984,0.171001 0.080999,0.037 0.1690016,0.054 0.2659994,0.045 0.094001,-0.008 0.1819994,-0.045 0.2629984,-0.111999 0.1099994,-0.096 0.228,-0.193999 0.351001,-0.301001 0.1239987,-0.106999 0.248999,-0.205002 0.3759987,-0.296002 0.1260019,-0.088 0.252,-0.162999 0.3799998,-0.224001 0.128999,-0.059 0.252,-0.088 0.3759987,-0.088 0.043,0 0.080001,0.01599 0.1099994,0.048 0.032013,0.03201 0.061999,0.077 0.091,0.133002 0.028989,0.059 0.058998,0.126002 0.094001,0.202998 0.032013,0.08 0.072,0.163 0.1210016,0.253002 0.048,0.091 0.1069984,0.187 0.1760012,0.286001 0.070001,0.098 0.156,0.200001 0.2579982,0.299002 z" />
  <path d="m 19.240989,8.9220122 -7.004995,6.9719998 c -0.106999,0.106001 -0.212001,0.24 -0.310999,0.397 -0.099,0.154998 -0.19,0.322998 -0.272999,0.496 -0.086,0.176002 -0.161,0.351999 -0.226,0.528 -0.067,0.176002 -0.12,0.336 -0.163,0.48 -0.043,0.144 -0.07,0.264 -0.086,0.363001 -0.013,0.099 -0.013,0.157002 0.008,0.176002 0.01901,0.01901 0.078,0.02101 0.176999,0.005 0.097,-0.013 0.219999,-0.042 0.365001,-0.085 0.147001,-0.04 0.308001,-0.093 0.484999,-0.159999 0.176999,-0.067 0.353998,-0.140999 0.528,-0.224001 0.175,-0.083 0.341,-0.176001 0.499,-0.274999 0.157999,-0.098 0.289999,-0.202 0.396999,-0.308999 l 7.004995,-6.969002 c 0.104002,-0.104001 0.176999,-0.207999 0.221998,-0.3200014 0.043,-0.1089978 0.065,-0.219001 0.065,-0.3309997 0,-0.1330016 -0.03001,-0.264 -0.086,-0.3860001 -0.059,-0.123001 -0.133999,-0.2349997 -0.231001,-0.3309997 -0.096,-0.096 -0.205999,-0.171001 -0.329,-0.2290016 -0.123999,-0.058998 -0.255001,-0.085999 -0.389,-0.085999 -0.113,0 -0.222999,0.021014 -0.332999,0.067 -0.109999,0.044999 -0.214,0.1169991 -0.318999,0.2210003 z" />
</svg>
