<?xml version="1.0" encoding="UTF-8"?>
<svg xmlns="http://www.w3.org/2000/svg" xmlns:xlink="http://www.w3.org/1999/xlink" x="0px" y="0px" viewBox="0 0 24 24" version="1.1">
<path style=" stroke:none;fill-rule:nonzero;fill:rgb(0%,0%,0%);fill-opacity:1;" d="M 20 1.332031 L 4 1.332031 C 2.527344 1.332031 1.332031 2.527344 1.332031 4 L 1.332031 6.667969 L 22.667969 6.667969 L 22.667969 4 C 22.667969 2.527344 21.472656 1.332031 20 1.332031 Z M 1.332031 17.332031 C 1.332031 18.800781 2.535156 20 4 20 L 14.667969 20 L 14.667969 24 L 18.667969 20 L 20 20 C 21.472656 20 22.667969 18.804688 22.667969 17.332031 L 22.667969 14.667969 L 1.332031 14.667969 Z M 22.667969 8 L 1.332031 8 L 1.332031 13.332031 L 22.667969 13.332031 Z M 22.667969 8 "/>
</svg>
