<svg width="24" height="24" viewBox="0 0 24 24" fill="none" xmlns="http://www.w3.org/2000/svg">
<path d="M19.9428 15.5256C19.8316 15.223 19.6199 15.0612 19.3787 14.9271C19.3333 14.9005 19.2916 14.8793 19.256 14.8629C19.1841 14.8257 19.1105 14.7897 19.0373 14.7517C18.2855 14.3531 17.6985 13.8503 17.2914 13.2543C17.1757 13.0865 17.0754 12.9086 16.9917 12.7229C16.957 12.6235 16.9586 12.5671 16.9835 12.5156C17.0083 12.4759 17.041 12.4418 17.0796 12.4154C17.2088 12.33 17.342 12.2433 17.4324 12.1849C17.5935 12.0806 17.721 11.9981 17.8032 11.9396C18.1118 11.7238 18.3277 11.4944 18.4626 11.2381C18.5567 11.061 18.6116 10.8658 18.6235 10.6656C18.6354 10.4654 18.6041 10.265 18.5316 10.078C18.3272 9.53998 17.8191 9.206 17.2035 9.206C17.0736 9.20588 16.9441 9.21958 16.8172 9.24688C16.7832 9.25424 16.7493 9.262 16.7162 9.27059C16.7219 8.90267 16.7137 8.51432 16.681 8.1321C16.5649 6.78839 16.0944 6.08403 15.6039 5.52235C15.2897 5.17038 14.9197 4.8726 14.5087 4.64099C13.7643 4.21584 12.9201 4 11.9999 4C11.0797 4 10.2397 4.21584 9.49442 4.64099C9.0824 4.87267 8.71164 5.17104 8.39721 5.52399C7.90666 6.08567 7.43614 6.79125 7.32004 8.13373C7.28734 8.51595 7.27916 8.90635 7.28447 9.27222C7.25136 9.26364 7.21784 9.25587 7.18391 9.24851C7.05696 9.22122 6.92746 9.20751 6.7976 9.20763C6.18155 9.20763 5.6726 9.54162 5.46902 10.0796C5.39625 10.2667 5.36461 10.4672 5.37625 10.6676C5.38789 10.868 5.44253 11.0636 5.53647 11.241C5.67178 11.4973 5.88762 11.7266 6.19626 11.9425C6.27802 11.9997 6.40597 12.0823 6.56704 12.1877C6.65411 12.2442 6.78125 12.3267 6.90593 12.4093C6.94955 12.4375 6.98663 12.4747 7.01467 12.5185C7.04083 12.572 7.04165 12.6297 7.00281 12.7359C6.92021 12.9178 6.82158 13.092 6.70807 13.2563C6.30991 13.8389 5.74005 14.3327 5.01239 14.728C4.6269 14.9324 4.22628 15.0689 4.05704 15.5288C3.9295 15.8759 4.01289 16.2708 4.33706 16.6035C4.45604 16.7277 4.59403 16.8322 4.74586 16.913C5.06177 17.0866 5.3977 17.221 5.74618 17.3132C5.81809 17.3318 5.88637 17.3623 5.94812 17.4036C6.06627 17.507 6.04951 17.6627 6.20689 17.8908C6.2859 18.0087 6.38628 18.1108 6.50286 18.1917C6.83316 18.4198 7.20435 18.4341 7.59761 18.4493C7.95285 18.4627 8.35552 18.4783 8.81541 18.6299C9.00591 18.6929 9.20376 18.8147 9.4331 18.957C9.98374 19.2955 10.7376 19.7586 11.9991 19.7586C13.2606 19.7586 14.0198 19.293 14.5745 18.9533C14.8022 18.8135 14.9988 18.6929 15.184 18.6316C15.6439 18.4795 16.0466 18.4644 16.4018 18.4509C16.7951 18.4358 17.1663 18.4215 17.4966 18.1933C17.6346 18.0971 17.7497 17.9714 17.8334 17.8254C17.9467 17.6329 17.9438 17.4984 18.0501 17.4044C18.108 17.3651 18.1721 17.3358 18.2398 17.3177C18.593 17.2252 18.9335 17.0896 19.2536 16.9138C19.4149 16.8273 19.5601 16.7136 19.6828 16.5778L19.6869 16.5729C19.991 16.2475 20.0675 15.864 19.9428 15.5256ZM18.8215 16.1281C18.1376 16.5058 17.683 16.4654 17.3294 16.6931C17.0289 16.8864 17.2067 17.3034 16.9884 17.4538C16.7203 17.639 15.9276 17.4408 14.9036 17.7788C14.059 18.058 13.5202 18.8609 12.0011 18.8609C10.4821 18.8609 9.95595 18.0597 9.09748 17.7768C8.07549 17.4387 7.2812 17.637 7.01263 17.4518C6.79474 17.3014 6.97175 16.8844 6.67169 16.691C6.31767 16.4633 5.8631 16.5038 5.17959 16.1281C4.74422 15.8877 4.99114 15.7389 5.13626 15.6686C7.61355 14.4692 8.00886 12.6174 8.02644 12.48C8.04769 12.3137 8.0714 12.1828 7.88826 12.0136C7.71126 11.8501 6.92596 11.364 6.70807 11.212C6.34752 10.9601 6.1889 10.7087 6.30582 10.3997C6.38758 10.1859 6.58707 10.1053 6.79637 10.1053C6.86252 10.1056 6.92846 10.113 6.993 10.1274C7.38872 10.2133 7.77298 10.4115 7.99496 10.4651C8.02169 10.4719 8.04913 10.4757 8.07672 10.4761C8.19527 10.4761 8.23697 10.4164 8.22879 10.2807C8.20344 9.84781 8.14213 9.00406 8.21039 8.21549C8.30401 7.13055 8.65353 6.59298 9.06886 6.11756C9.26835 5.88904 10.2057 4.89853 11.9983 4.89853C13.7908 4.89853 14.7307 5.88495 14.9302 6.11265C15.3459 6.58808 15.6958 7.12564 15.7886 8.21058C15.8569 8.99915 15.798 9.84331 15.7702 10.2758C15.7608 10.4185 15.8038 10.4712 15.9223 10.4712C15.9499 10.4708 15.9773 10.4671 16.0041 10.4602C16.2264 10.4066 16.6107 10.2084 17.0064 10.1225C17.071 10.108 17.1369 10.1006 17.2031 10.1004C17.4136 10.1004 17.6119 10.1822 17.6936 10.3948C17.8105 10.7038 17.6527 10.9552 17.2918 11.207C17.0739 11.3591 16.2886 11.8448 16.1116 12.0087C15.928 12.1779 15.9521 12.3088 15.9734 12.4751C15.991 12.6145 16.3859 14.4664 18.8636 15.6637C19.0099 15.7369 19.2568 15.8857 18.8215 16.1281Z" />
</svg>
