<?xml version="1.0" encoding="UTF-8"?>
<svg xmlns="http://www.w3.org/2000/svg" xmlns:xlink="http://www.w3.org/1999/xlink" x="0px" y="0px" viewBox="0 0 24 24" version="1.1">
<path style=" stroke:none;fill-rule:nonzero;fill:rgb(0%,0%,0%);fill-opacity:1;" d="M 18.3 3.0523 L 5.66 3.0523 C 4.4966 3.0523 3.5523 3.9966 3.5523 5.16 L 3.5523 7.2677 L 20.4077 7.2677 L 20.4077 5.16 C 20.4077 3.9966 19.4634 3.0523 18.3 3.0523 Z M 3.5523 15.6923 C 3.5523 16.8526 4.5028 17.8 5.66 17.8 L 14.0877 17.8 L 14.0877 20.96 L 17.2477 17.8 L 18.3 17.8 C 19.4634 17.8 20.4077 16.8557 20.4077 15.6923 L 20.4077 13.5877 L 3.5523 13.5877 Z M 20.4077 8.32 L 3.5523 8.32 L 3.5523 12.5323 L 20.4077 12.5323 Z M 20.4077 8.32"/>
</svg>
