<svg width="24" height="24" viewBox="0 0 24 24" fill="none" xmlns="http://www.w3.org/2000/svg">
<path fill-rule="evenodd" clip-rule="evenodd" d="M3.56696 1.33333H20.3289C20.9351 1.33333 21.5165 1.57414 21.9451 2.0028C22.3738 2.43145 22.6146 3.01283 22.6146 3.61904V20.3809C22.6146 20.9872 22.3738 21.5685 21.9451 21.9972C21.5165 22.4258 20.9351 22.6667 20.3289 22.6667H3.56696C2.96076 22.6667 2.37937 22.4258 1.95072 21.9972C1.52207 21.5685 1.28125 20.9872 1.28125 20.3809V3.61904C1.28125 3.01283 1.52207 2.43145 1.95072 2.0028C2.37937 1.57414 2.96076 1.33333 3.56696 1.33333ZM9.88926 7.36156C8.96418 7.36156 8.20848 6.60586 8.20848 5.68078C8.20848 4.7557 8.96418 4 9.88926 4C10.8143 4 11.57 4.7557 11.57 5.68078V7.36156H9.88926ZM5.68078 15.7915C6.60586 15.7915 7.36156 15.0358 7.36156 14.1107V12.43H5.68078C4.7557 12.43 4 13.1857 4 14.1107C4 15.0358 4.7557 15.7915 5.68078 15.7915ZM9.88926 12.43C8.96418 12.43 8.20848 13.1857 8.20848 14.1107V18.3192C8.20848 19.2443 8.96418 20 9.88926 20C10.8143 20 11.57 19.2443 11.57 18.3192V14.1107C11.57 13.1857 10.8143 12.43 9.88926 12.43ZM11.57 9.88925C11.57 8.96417 10.8143 8.20847 9.88925 8.20847H5.68078C4.7557 8.20847 4 8.96417 4 9.88925C4 10.8143 4.7557 11.57 5.68078 11.57H9.88925C10.8143 11.57 11.57 10.8143 11.57 9.88925ZM16.6385 9.88925C16.6385 8.96417 17.3942 8.20847 18.3192 8.20847C19.2443 8.20847 20 8.96417 20 9.88925C20 10.8143 19.2443 11.57 18.3192 11.57H16.6385V9.88925ZM14.1107 11.57C15.0358 11.57 15.7915 10.8143 15.7915 9.88925V5.68078C15.7915 4.7557 15.0358 4 14.1107 4C13.1857 4 12.43 4.7557 12.43 5.68078V9.88925C12.43 10.8143 13.1857 11.57 14.1107 11.57ZM14.1108 16.6384C15.0359 16.6384 15.7916 17.3941 15.7916 18.3192C15.7916 19.2443 15.0359 20 14.1108 20C13.1857 20 12.43 19.2443 12.43 18.3192V16.6384H14.1108ZM12.43 14.1107C12.43 15.0358 13.1857 15.7915 14.1107 15.7915H18.3192C19.2443 15.7915 20 15.0358 20 14.1107C20 13.1857 19.2443 12.43 18.3192 12.43H14.1107C13.1857 12.43 12.43 13.1857 12.43 14.1107Z" />
</svg>
