<svg xmlns="http://www.w3.org/2000/svg" width="24" height="24" viewBox="0 0 16 16">
  <path d="M 8.1 1.5 C 4.3 1.5 1.4 4.4 1.4 8.1 C 1.4 11.6 4.3 14.7 8.1 14.7 C 11.7 14.7 14.8 11.6 14.8 8.1 C 14.8 4.4 11.7 1.5 8.1 1.5 m 3.1 9.5 C 11.1 11.1 10.8 11.1 10.6 11 c -1.6 -0.9 -3.6 -1.2 -5.9 -0.7 C 4.4 10.6 4.2 10.4 4.2 10.2 C 4.1 9.9 4.3 9.7 4.4 9.6 c 2.6 -0.6 4.7 -0.4 6.5 0.7 C 11.2 10.6 11.3 10.7 11.1 10.9 m 0.8 -1.9 C 11.8 9.5 11.4 9.5 11.3 9.4 c -1.9 -1.1 -4.5 -1.4 -6.7 -0.7 C 4.3 8.6 4 8.4 3.9 8.2 C 3.9 8 4 7.7 4.3 7.6 c 2.4 -0.7 5.4 -0.4 7.5 0.9 C 12 8.6 12.1 8.9 11.9 9.2 m 0.1 -1.9 C 9.9 6 6.3 5.9 4.3 6.5 C 3.9 6.6 3.6 6.4 3.5 6.1 C 3.4 5.7 3.6 5.4 3.9 5.3 c 2.4 -0.7 6.2 -0.6 8.7 0.9 C 12.8 6.3 12.9 6.5 12.9 6.8 C 12.9 6.9 12.8 7.1 12.6 7.3 C 12.4 7.4 12.2 7.4 12 7.3"/>
</svg>
