<svg width="24" height="24" viewBox="0 0 24 24" xmlns="http://www.w3.org/2000/svg">
  <path d="m 13.120885,21.853286 c 1.160992,-0.136494 2.152377,-0.421473 3.168213,-0.910717 0.490934,-0.236441 0.716368,-0.365176 1.188481,-0.678689 1.407816,-0.934879 2.533421,-2.187724 3.313746,-3.68834 1.5267,-2.935945 1.473462,-6.507325 -0.140005,-9.3919553 C 20.188273,6.3557303 19.674851,5.6782687 18.995459,4.9986738 18.31786,4.3208738 17.643467,3.8101432 16.810932,3.3442899 15.09102,2.3818962 13.117519,1.9637986 11.12144,2.1389384 8.1055523,2.4035583 5.3709224,4.040957 3.7138912,6.5743147 2.8336618,7.9200562 2.3304663,9.3289241 2.1413606,10.977153 c -0.054873,0.478272 -0.055207,1.541878 -6.38e-4,2.034732 0.2642094,2.386277 1.2678521,4.455384 2.961052,6.104496 1.6485183,1.605596 3.8091959,2.585966 6.1001234,2.767828 0.39729,0.03154 1.54503,0.01306 1.918987,-0.03092 z m 2.720048,-5.186816 c -0.0404,-0.01251 -0.174892,-0.08128 -0.298842,-0.152957 -0.281331,-0.162686 -0.937499,-0.480489 -1.22005,-0.590904 -1.197019,-0.467772 -2.442447,-0.689085 -3.867248,-0.687213 -1.0342399,0.0014 -2.0683112,0.116656 -3.1561659,0.351904 -0.3518688,0.07609 -0.5157442,0.08494 -0.6560686,0.03542 -0.1330592,-0.04695 -0.221875,-0.118841 -0.3163777,-0.256075 -0.1583064,-0.229888 -0.1205593,-0.534587 0.093518,-0.75489 0.1242315,-0.127844 0.2236629,-0.159783 0.9317349,-0.299283 1.9106394,-0.376422 3.6667643,-0.422083 5.3098403,-0.13806 1.024302,0.177061 2.028897,0.506539 2.95429,0.968921 0.788091,0.393778 0.979983,0.555372 1.015481,0.855153 0.02797,0.236266 -0.125421,0.514905 -0.345211,0.627049 -0.107178,0.05468 -0.332838,0.07545 -0.444901,0.04093 z m 1.000017,-2.653097 c -0.04671,-0.0179 -0.174799,-0.08565 -0.284635,-0.150538 C 15.930063,13.492882 15.035523,13.107469 14.270775,12.87811 11.999529,12.196932 9.4512211,12.120483 7.2927877,12.66877 6.6412833,12.834266 6.6283354,12.836399 6.467563,12.804765 6.0905074,12.730575 5.8615047,12.470696 5.8396804,12.092232 c -0.012555,-0.217716 0.045958,-0.386755 0.1889272,-0.545795 0.1375526,-0.153015 0.2678139,-0.217047 0.659837,-0.324354 1.1970677,-0.32767 2.3077203,-0.469622 3.6743964,-0.469622 0.966416,0 1.564514,0.04872 2.49854,0.203538 1.365982,0.226412 2.660863,0.638002 3.799313,1.207648 0.796544,0.398566 1.023298,0.553057 1.127387,0.768109 0.185151,0.382531 0.02931,0.842889 -0.351499,1.038344 -0.146295,0.07509 -0.454275,0.09746 -0.595632,0.04327 z m 1.337758,-3.003555 C 18.107898,10.998198 17.97643,10.948158 17.879866,10.896076 17.522779,10.703488 16.777835,10.34685 16.51209,10.241262 14.052898,9.2641531 10.686796,8.9454149 7.7882028,9.415191 7.433655,9.4726526 6.839179,9.6063546 6.5508827,9.6934736 5.996251,9.8610736 5.6191808,9.7788706 5.3532254,9.4323762 5.2182943,9.2565838 5.1583418,9.0747997 5.1571452,8.8378335 5.1561756,8.6458298 5.1621049,8.6179364 5.2340292,8.4761441 5.3244998,8.2977894 5.5167929,8.1022477 5.686055,8.0164814 5.9951974,7.8598371 7.2630397,7.5840382 8.1330204,7.4841828 9.8787011,7.283816 11.512776,7.2909124 13.209188,7.5062274 c 2.127987,0.2700925 3.98106,0.8335648 5.404268,1.6433011 0.34548,0.1965618 0.461786,0.3032603 0.570605,0.5234771 0.08193,0.165804 0.08656,0.187016 0.08656,0.3959904 0,0.208345 -0.0048,0.23053 -0.0852,0.393213 -0.199309,0.403333 -0.59024,0.61598 -1.006726,0.547609 z" />
</svg>
