<svg width="24" height="24" viewBox="0 0 24 24" fill="none" xmlns="http://www.w3.org/2000/svg">
<path fill-rule="evenodd" clip-rule="evenodd" d="M3.56696 1.33333H20.3289C20.9351 1.33333 21.5165 1.57414 21.9451 2.0028C22.3738 2.43145 22.6146 3.01283 22.6146 3.61904V20.3809C22.6146 20.9872 22.3738 21.5685 21.9451 21.9972C21.5165 22.4258 20.9351 22.6667 20.3289 22.6667H3.56696C2.96076 22.6667 2.37937 22.4258 1.95072 21.9972C1.52207 21.5685 1.28125 20.9872 1.28125 20.3809V3.61904C1.28125 3.01283 1.52207 2.43145 1.95072 2.0028C2.37937 1.57414 2.96076 1.33333 3.56696 1.33333ZM14.9944 17.1445H7.85666V15.717H14.9944V17.1445ZM13.1084 4.85193L14.2538 4L18.5137 9.72721L17.3682 10.5792L13.1084 4.85193ZM16.1979 11.9443L10.7132 7.37651L11.6267 6.27955L17.1114 10.8474L16.1979 11.9443ZM15.3931 13.5643L8.92263 10.5508L9.52531 9.25676L15.9957 12.2702L15.3931 13.5643ZM14.9835 15.3635L7.99841 13.8954L8.29201 12.4984L15.2771 13.9665L14.9835 15.3635ZM16.4123 14.2894V18.5722H6.42754V14.2894H5V20H17.8398V14.2894H16.4123Z" />
</svg>
