<?xml version="1.0" encoding="UTF-8"?>
<svg xmlns="http://www.w3.org/2000/svg" xmlns:xlink="http://www.w3.org/1999/xlink" x="0px" y="0px" viewBox="0 0 24 24" version="1.1">
<path style=" stroke:none;fill-rule:nonzero;fill:rgb(100%,100%,100%);fill-opacity:1;" d="M 20.0625 16.355469 C 17.152344 14.945312 16.6875 12.769531 16.667969 12.609375 C 16.640625 12.414062 16.613281 12.261719 16.828125 12.0625 C 17.039062 11.871094 17.960938 11.300781 18.214844 11.121094 C 18.636719 10.824219 18.824219 10.53125 18.6875 10.167969 C 18.589844 9.917969 18.355469 9.820312 18.109375 9.820312 C 18.035156 9.820312 17.957031 9.832031 17.878906 9.847656 C 17.414062 9.949219 16.964844 10.179688 16.703125 10.246094 C 16.671875 10.253906 16.640625 10.257812 16.605469 10.257812 C 16.46875 10.257812 16.414062 10.195312 16.429688 10.027344 C 16.460938 9.519531 16.53125 8.527344 16.449219 7.601562 C 16.339844 6.328125 15.929688 5.699219 15.441406 5.140625 C 15.207031 4.867188 14.113281 3.707031 12 3.707031 C 9.886719 3.707031 8.796875 4.867188 8.5625 5.136719 C 8.070312 5.695312 7.660156 6.324219 7.554688 7.597656 C 7.472656 8.523438 7.542969 9.515625 7.574219 10.023438 C 7.585938 10.183594 7.535156 10.253906 7.394531 10.253906 C 7.363281 10.253906 7.332031 10.25 7.300781 10.242188 C 7.039062 10.179688 6.589844 9.945312 6.125 9.84375 C 6.046875 9.828125 5.96875 9.820312 5.890625 9.820312 C 5.644531 9.820312 5.414062 9.914062 5.316406 10.164062 C 5.179688 10.527344 5.363281 10.820312 5.789062 11.117188 C 6.042969 11.296875 6.964844 11.867188 7.175781 12.058594 C 7.390625 12.257812 7.363281 12.410156 7.335938 12.605469 C 7.316406 12.769531 6.851562 14.945312 3.941406 16.351562 C 3.773438 16.433594 3.484375 16.609375 3.992188 16.890625 C 4.796875 17.332031 5.332031 17.285156 5.746094 17.554688 C 6.097656 17.78125 5.890625 18.269531 6.144531 18.445312 C 6.460938 18.664062 7.390625 18.429688 8.59375 18.828125 C 9.601562 19.160156 10.214844 20.097656 12.003906 20.097656 C 13.789062 20.097656 14.421875 19.15625 15.410156 18.828125 C 16.609375 18.429688 17.542969 18.664062 17.859375 18.445312 C 18.113281 18.269531 17.90625 17.78125 18.257812 17.554688 C 18.675781 17.285156 19.207031 17.332031 20.011719 16.890625 C 20.519531 16.613281 20.230469 16.4375 20.0625 16.355469 Z M 20.0625 16.355469 "/>
<path style=" stroke:none;fill-rule:nonzero;fill:rgb(0%,0%,0%);fill-opacity:1;" d="M 21.328125 16.1875 C 21.195312 15.832031 20.945312 15.644531 20.664062 15.484375 C 20.609375 15.453125 20.5625 15.429688 20.519531 15.410156 C 20.433594 15.367188 20.347656 15.324219 20.261719 15.28125 C 19.378906 14.8125 18.691406 14.222656 18.214844 13.523438 C 18.078125 13.324219 17.960938 13.117188 17.859375 12.898438 C 17.820312 12.78125 17.824219 12.714844 17.851562 12.652344 C 17.878906 12.609375 17.917969 12.566406 17.964844 12.535156 C 18.117188 12.4375 18.273438 12.335938 18.378906 12.265625 C 18.566406 12.144531 18.71875 12.046875 18.8125 11.976562 C 19.175781 11.722656 19.429688 11.457031 19.589844 11.152344 C 19.8125 10.734375 19.839844 10.234375 19.667969 9.792969 C 19.429688 9.160156 18.832031 8.769531 18.109375 8.769531 C 17.957031 8.769531 17.804688 8.785156 17.65625 8.816406 C 17.617188 8.824219 17.578125 8.832031 17.539062 8.84375 C 17.542969 8.410156 17.535156 7.957031 17.496094 7.507812 C 17.359375 5.929688 16.808594 5.101562 16.230469 4.441406 C 15.863281 4.03125 15.429688 3.679688 14.945312 3.40625 C 14.070312 2.910156 13.082031 2.65625 12 2.65625 C 10.917969 2.65625 9.933594 2.910156 9.058594 3.40625 C 8.574219 3.679688 8.140625 4.03125 7.769531 4.445312 C 7.195312 5.105469 6.640625 5.933594 6.503906 7.507812 C 6.464844 7.957031 6.457031 8.417969 6.464844 8.847656 C 6.425781 8.835938 6.386719 8.828125 6.34375 8.816406 C 6.195312 8.785156 6.042969 8.769531 5.890625 8.769531 C 5.167969 8.769531 4.570312 9.164062 4.332031 9.792969 C 4.160156 10.238281 4.1875 10.734375 4.410156 11.15625 C 4.570312 11.457031 4.824219 11.726562 5.183594 11.980469 C 5.28125 12.046875 5.433594 12.144531 5.621094 12.269531 C 5.722656 12.335938 5.871094 12.433594 6.019531 12.53125 C 6.070312 12.5625 6.113281 12.605469 6.144531 12.65625 C 6.175781 12.71875 6.179688 12.789062 6.132812 12.914062 C 6.035156 13.125 5.917969 13.332031 5.785156 13.523438 C 5.320312 14.207031 4.648438 14.789062 3.796875 15.253906 C 3.34375 15.492188 2.871094 15.652344 2.671875 16.191406 C 2.523438 16.601562 2.621094 17.0625 3.003906 17.453125 C 3.140625 17.601562 3.304688 17.722656 3.480469 17.816406 C 3.851562 18.019531 4.246094 18.179688 4.65625 18.289062 C 4.742188 18.308594 4.820312 18.34375 4.894531 18.394531 C 5.03125 18.515625 5.011719 18.699219 5.199219 18.964844 C 5.289062 19.105469 5.410156 19.222656 5.546875 19.320312 C 5.933594 19.585938 6.367188 19.605469 6.832031 19.621094 C 7.246094 19.636719 7.722656 19.65625 8.261719 19.832031 C 8.484375 19.90625 8.71875 20.050781 8.984375 20.21875 C 9.632812 20.613281 10.519531 21.160156 12 21.160156 C 13.480469 21.160156 14.371094 20.613281 15.023438 20.214844 C 15.289062 20.050781 15.519531 19.90625 15.738281 19.835938 C 16.277344 19.65625 16.75 19.640625 17.167969 19.625 C 17.628906 19.605469 18.066406 19.589844 18.453125 19.320312 C 18.617188 19.207031 18.75 19.058594 18.847656 18.890625 C 18.984375 18.664062 18.980469 18.503906 19.105469 18.394531 C 19.171875 18.347656 19.246094 18.3125 19.328125 18.292969 C 19.742188 18.183594 20.140625 18.023438 20.515625 17.820312 C 20.707031 17.71875 20.878906 17.582031 21.019531 17.425781 L 21.027344 17.417969 C 21.382812 17.035156 21.472656 16.585938 21.328125 16.1875 Z M 20.007812 16.894531 C 19.207031 17.339844 18.671875 17.292969 18.257812 17.558594 C 17.90625 17.785156 18.113281 18.277344 17.859375 18.453125 C 17.542969 18.671875 16.613281 18.4375 15.410156 18.835938 C 14.417969 19.160156 13.785156 20.105469 12 20.105469 C 10.21875 20.105469 9.601562 19.164062 8.59375 18.832031 C 7.390625 18.433594 6.460938 18.667969 6.144531 18.449219 C 5.886719 18.273438 6.097656 17.785156 5.742188 17.558594 C 5.328125 17.289062 4.792969 17.335938 3.992188 16.894531 C 3.480469 16.613281 3.769531 16.4375 3.941406 16.355469 C 6.847656 14.949219 7.3125 12.773438 7.335938 12.613281 C 7.359375 12.417969 7.386719 12.261719 7.171875 12.066406 C 6.964844 11.871094 6.042969 11.300781 5.785156 11.125 C 5.363281 10.828125 5.175781 10.53125 5.3125 10.167969 C 5.410156 9.917969 5.644531 9.824219 5.890625 9.824219 C 5.96875 9.824219 6.046875 9.832031 6.121094 9.851562 C 6.585938 9.949219 7.035156 10.183594 7.296875 10.246094 C 7.328125 10.253906 7.359375 10.257812 7.394531 10.257812 C 7.53125 10.257812 7.582031 10.1875 7.570312 10.03125 C 7.542969 9.523438 7.46875 8.53125 7.550781 7.605469 C 7.660156 6.332031 8.070312 5.699219 8.558594 5.140625 C 8.792969 4.875 9.894531 3.710938 12 3.710938 C 14.101562 3.710938 15.207031 4.867188 15.441406 5.136719 C 15.929688 5.695312 16.339844 6.324219 16.449219 7.597656 C 16.527344 8.523438 16.460938 9.515625 16.425781 10.023438 C 16.414062 10.191406 16.464844 10.253906 16.605469 10.253906 C 16.636719 10.253906 16.671875 10.25 16.703125 10.242188 C 16.960938 10.179688 17.414062 9.945312 17.878906 9.84375 C 17.953125 9.828125 18.03125 9.820312 18.109375 9.820312 C 18.355469 9.820312 18.589844 9.914062 18.683594 10.164062 C 18.824219 10.527344 18.636719 10.820312 18.214844 11.117188 C 17.957031 11.296875 17.035156 11.867188 16.828125 12.058594 C 16.613281 12.257812 16.640625 12.410156 16.664062 12.605469 C 16.6875 12.769531 17.148438 14.945312 20.058594 16.351562 C 20.230469 16.4375 20.519531 16.613281 20.007812 16.894531 Z M 20.007812 16.894531 "/>
</svg>
