<svg xmlns="http://www.w3.org/2000/svg" width="24" height="24" viewBox="0 0 24 24">
  <g>
    <rect width="24" height="24" fill="none"/>
  </g>
  <g transform="translate(2 3)">
    <path d="M18.5,0H1.5A1.5,1.5,0,0,0,0,1.5v15A1.5,1.5,0,0,0,1.5,18h17A1.5,1.5,0,0,0,20,16.5V1.5A1.5,1.5,0,0,0,18.5,0ZM19,16.5a.5.5,0,0,1-.5.5H1.5a.5.5,0,0,1-.5-.5V5H19ZM19,4H1V1.5A.5.5,0,0,1,1.5,1h17a.5.5,0,0,1,.5.5Z"/>
    <rect x="10" y="13" width="5" height="1"/>
    <polygon points="10 11.06 4.9 14.75 4.9 13.51 8.29 11.06 4.9 8.61 4.9 7.37 10 11.06"/>
    <line x1="8.29" y1="11.06" x2="4.9" y2="13.51"/><line x1="8.29" y1="11.06" x2="4.9" y2="8.61"/>
  </g>
</svg>
