<svg width="24" height="24" viewBox="0 0 24 24" fill="none" xmlns="http://www.w3.org/2000/svg">
<path d="M6.78176 14.3746C6.78176 15.4153 5.9316 16.2655 4.89088 16.2655C3.85016 16.2655 3 15.4153 3 14.3746C3 13.3339 3.85016 12.4837 4.89088 12.4837H6.78176V14.3746Z" />
<path d="M7.73454 14.3746C7.73454 13.3339 8.5847 12.4837 9.62541 12.4837C10.6661 12.4837 11.5163 13.3339 11.5163 14.3746V19.1091C11.5163 20.1498 10.6661 21 9.62541 21C8.5847 21 7.73454 20.1498 7.73454 19.1091V14.3746Z" />
<path d="M9.62541 6.78176C8.5847 6.78176 7.73454 5.9316 7.73454 4.89088C7.73454 3.85016 8.5847 3 9.62541 3C10.6661 3 11.5163 3.85016 11.5163 4.89088V6.78176H9.62541Z" />
<path d="M9.62541 7.73453C10.6661 7.73453 11.5163 8.58469 11.5163 9.62541C11.5163 10.6661 10.6661 11.5163 9.62541 11.5163H4.89088C3.85016 11.5163 3 10.6661 3 9.62541C3 8.58469 3.85016 7.73453 4.89088 7.73453H9.62541Z" />
<path d="M17.2183 9.62541C17.2183 8.58469 18.0684 7.73453 19.1092 7.73453C20.1499 7.73453 21 8.58469 21 9.62541C21 10.6661 20.1499 11.5163 19.1092 11.5163H17.2183V9.62541Z" />
<path d="M16.2655 9.62541C16.2655 10.6661 15.4153 11.5163 14.3746 11.5163C13.3339 11.5163 12.4837 10.6661 12.4837 9.62541V4.89088C12.4837 3.85016 13.3339 3 14.3746 3C15.4153 3 16.2655 3.85016 16.2655 4.89088V9.62541Z" />
<path d="M14.3746 17.2182C15.4153 17.2182 16.2655 18.0684 16.2655 19.1091C16.2655 20.1498 15.4153 21 14.3746 21C13.3339 21 12.4837 20.1498 12.4837 19.1091V17.2182H14.3746Z" />
<path d="M14.3746 16.2655C13.3339 16.2655 12.4837 15.4153 12.4837 14.3746C12.4837 13.3339 13.3339 12.4837 14.3746 12.4837H19.1091C20.1498 12.4837 21 13.3339 21 14.3746C21 15.4153 20.1498 16.2655 19.1091 16.2655H14.3746Z" />
</svg>
