<svg xmlns="http://www.w3.org/2000/svg" width="24" height="24"
     viewBox="0 0 24 24">
  <title>Settings</title>
  <g>
    <path
      d="M12,7.5A4.5,4.5,0,1,0,16.5,12,4.5,4.5,0,0,0,12,7.5Zm0,8A3.5,3.5,0,1,1,15.5,12,3.5,3.5,0,0,1,12,15.5Zm9.8-1.6A12.3,12.3,0,0,0,22,12a12.3,12.3,0,0,0-.2-1.9l-2.1-.3A8.7,8.7,0,0,0,19,8.1l1.3-1.7a8.7,8.7,0,0,0-2.7-2.7L15.9,5l-1.7-.7-.3-2.1L12,2l-1.9.2L9.8,4.3,8.1,5,6.4,3.7A8.7,8.7,0,0,0,3.7,6.4L5,8.1a8.7,8.7,0,0,0-.7,1.7l-2.1.3A12.3,12.3,0,0,0,2,12a12.3,12.3,0,0,0,.2,1.9l2.1.3A8.7,8.7,0,0,0,5,15.9L3.7,17.6a8.7,8.7,0,0,0,2.7,2.7L8.1,19l1.7.7.3,2.1L12,22l1.9-.2.3-2.1,1.7-.7,1.7,1.3a8.7,8.7,0,0,0,2.7-2.7L19,15.9a8.7,8.7,0,0,0,.7-1.7Zm-2.9-.7-.2.7a3.9,3.9,0,0,1-.6,1.5l-.3.6.4.5.8,1.1A9.3,9.3,0,0,1,17.6,19l-1.1-.8-.5-.4-.6.3a3.9,3.9,0,0,1-1.5.6l-.7.2v.7L13,20.9H11l-.2-1.3v-.7l-.7-.2a3.9,3.9,0,0,1-1.5-.6L8,17.8l-.5.4L6.4,19A9.3,9.3,0,0,1,5,17.6l.8-1.1.4-.5-.3-.6a3.9,3.9,0,0,1-.6-1.5l-.2-.7H4.4L3.1,13A3.4,3.4,0,0,1,3,12a3.4,3.4,0,0,1,.1-1l1.3-.2h.7l.2-.7a3.9,3.9,0,0,1,.6-1.5L6.2,8l-.4-.5L5,6.4,6.4,5l1.1.8.5.4.6-.3a3.9,3.9,0,0,1,1.5-.6l.7-.2V4.4L11,3.1h2l.2,1.3v.7l.7.2a3.9,3.9,0,0,1,1.5.6l.6.3.5-.4L17.6,5A9.3,9.3,0,0,1,19,6.4l-.8,1.1-.4.5.3.6a3.9,3.9,0,0,1,.6,1.5l.2.7h.7l1.3.2a3.4,3.4,0,0,1,.1,1,3.4,3.4,0,0,1-.1,1l-1.3.2Z"
      />
  </g>
  <g>
    <rect width="24" height="24" fill="none"/>
  </g>
</svg>
