<svg xmlns="http://www.w3.org/2000/svg" width="24" height="24"
     viewBox="0 0 24 24">
  <title>Logo Team Digitale</title>
  <g>
    <path
      d="M23.6480078,24 L0.351992178,24 C0.15839648,24 0,23.8416035 0,23.6480078 L0,0.351992178 C0,0.15839648 0.15839648,0 0.351992178,0 L23.6480078,0 C23.8416035,0 24,0.15839648 24,0.351992178 L24,23.6480078 C24,23.8416035 23.8416035,24 23.6480078,24 Z M5.81373747,11.791738 C6.69501707,11.791738 7.40943535,11.0773197 7.40943535,10.1960401 C7.40943535,9.31476049 6.69501707,8.60034221 5.81373747,8.60034221 C4.93245787,8.60034221 4.2180396,9.31476049 4.2180396,10.1960401 C4.2180396,11.0773197 4.93245787,11.791738 5.81373747,11.791738 Z M10,18.9941834 L10,19 L14.4183314,19 C19.1304348,19 20,16.6850112 20,12.2527964 C20,7.9310962 18.9952996,6 14.4183314,6 L10,6 L10,18.9941834 Z M14.4183314,8.2917226 C17.0035253,8.2917226 17.2561692,9.40268456 17.2561692,12.2469799 C17.2561692,15.1378076 17.0035253,16.7024609 14.4183314,16.7024609 L12.6615746,16.7024609 L12.6615746,8.2917226 L14.4183314,8.2917226 Z"></path>
  </g>
</svg>
