<svg xmlns="http://www.w3.org/2000/svg" viewBox="0 0 24 24"><title>it-twitter-square</title><g><path d="M19.5,22H4.5A2.5,2.5,0,0,1,2,19.5V4.5A2.5,2.5,0,0,1,4.5,2h15A2.5,2.5,0,0,1,22,4.5v15A2.5,2.5,0,0,1,19.5,22ZM9.68,17.08A7.24,7.24,0,0,0,17,9.79V9.46a5.22,5.22,0,0,0,1.28-1.33,5.22,5.22,0,0,1-1.48.4,2.56,2.56,0,0,0,1.14-1.42,4.93,4.93,0,0,1-1.64.62,2.53,2.53,0,0,0-1.86-.81,2.57,2.57,0,0,0-2.57,2.57,2.79,2.79,0,0,0,.07.58A7.26,7.26,0,0,1,6.62,7.39a2.59,2.59,0,0,0,.8,3.43,2.78,2.78,0,0,1-1.16-.32v0a2.57,2.57,0,0,0,2.05,2.52,2.46,2.46,0,0,1-.67.09,2.44,2.44,0,0,1-.48-.05,2.55,2.55,0,0,0,2.39,1.78A5.13,5.13,0,0,1,6.37,16a6.08,6.08,0,0,1-.61,0,7.23,7.23,0,0,0,3.92,1.14"/></g></svg>
