<svg width="24" height="24" viewBox="0 0 24 24" fill="none" xmlns="http://www.w3.org/2000/svg">
<path fill-rule="evenodd" clip-rule="evenodd" d="M3.56696 1.33333H20.3289C20.9351 1.33333 21.5165 1.57414 21.9451 2.0028C22.3738 2.43145 22.6146 3.01283 22.6146 3.61904V20.3809C22.6146 20.9872 22.3738 21.5685 21.9451 21.9972C21.5165 22.4258 20.9351 22.6667 20.3289 22.6667H3.56696C2.96076 22.6667 2.37937 22.4258 1.95072 21.9972C1.52207 21.5685 1.28125 20.9872 1.28125 20.3809V3.61904C1.28125 3.01283 1.52207 2.43145 1.95072 2.0028C2.37937 1.57414 2.96076 1.33333 3.56696 1.33333ZM19.5111 4L13.927 10.491H13.9267L20 19.3296H15.5334L11.4436 13.3777L6.32333 19.3296H5L10.8561 12.5228L5 4H9.4666L13.3392 9.63609L18.1879 4H19.5111ZM11.5212 11.7492L12.1146 12.5978V12.5982L16.156 18.3788H18.1885L13.236 11.2947L12.6426 10.4461L8.83269 4.99618H6.80014L11.5212 11.7492Z" fill="black"/>
</svg>
