<svg width="24" height="24" viewBox="0 0 24 24" fill="none" xmlns="http://www.w3.org/2000/svg">
<path d="M13.125 3L15.3532 2.99998C15.514 3.80437 15.9607 4.81917 16.7419 5.82592C17.5074 6.81238 18.5218 7.5 19.875 7.5V9.75C17.9024 9.75 16.4202 8.83474 15.375 7.6928V15.375C15.375 18.4816 12.8566 21 9.75 21C6.6434 21 4.125 18.4816 4.125 15.375C4.125 12.2684 6.6434 9.75 9.75 9.75V12C7.88604 12 6.375 13.511 6.375 15.375C6.375 17.239 7.88604 18.75 9.75 18.75C11.614 18.75 13.125 17.239 13.125 15.375V3Z" />
</svg>
