<?xml version="1.0" encoding="utf-8"?>
<!-- Generator: Adobe Illustrator 25.4.1, SVG Export Plug-In . SVG Version: 6.00 Build 0)  -->
<svg version="1.1" id="Livello_1" xmlns="http://www.w3.org/2000/svg" xmlns:xlink="http://www.w3.org/1999/xlink" x="0px" y="0px"
	 viewBox="0 0 24 24" style="enable-background:new 0 0 24 24;" xml:space="preserve">
<path d="M19.5,22h-15C3.1,22,2,20.9,2,19.5v-15C2,3.1,3.1,2,4.5,2h15C20.9,2,22,3.1,22,4.5v15C22,20.9,20.9,22,19.5,22z M9.7,17.1
	c1.9,0,3.8-0.7,5.2-2.1S17,11.7,17,9.8V9.5c0.5-0.4,0.9-0.8,1.3-1.3c-0.5,0.2-1,0.3-1.5,0.4c0.5-0.3,0.9-0.8,1.1-1.4
	c-0.5,0.3-1.1,0.5-1.6,0.6c-0.5-0.5-1.2-0.8-1.9-0.8c-1.4,0-2.6,1.2-2.6,2.6c0,0.2,0,0.4,0.1,0.6C9.9,10,7.9,9,6.6,7.4
	c-0.7,1.2-0.3,2.7,0.8,3.4c-0.4,0-0.8-0.1-1.2-0.3l0,0c0,1.2,0.9,2.3,2.1,2.5c-0.2,0.1-0.4,0.1-0.7,0.1c-0.2,0-0.3,0-0.5,0
	c0.3,1,1.3,1.8,2.4,1.8c-0.9,0.7-2,1.1-3.2,1.2c-0.2,0-0.4,0-0.6,0C6.9,16.7,8.3,17.1,9.7,17.1L9.7,17.1z"/>
</svg>
