<svg xmlns="http://www.w3.org/2000/svg" viewBox="0 0 24 24"><title>it-twitter</title><g><path d="M8.08,20a10.93,10.93,0,0,0,11-11c0-.17,0-.33,0-.5A8,8,0,0,0,21,6.5a7.85,7.85,0,0,1-2.22.61A3.89,3.89,0,0,0,20.48,5,8,8,0,0,1,18,5.91a3.87,3.87,0,0,0-6.69,2.64,3.65,3.65,0,0,0,.1.88,11,11,0,0,1-8-4,3.85,3.85,0,0,0,1.19,5.16,3.76,3.76,0,0,1-1.75-.48v0A3.87,3.87,0,0,0,6,13.91a3.73,3.73,0,0,1-1,.14A4.3,4.3,0,0,1,4.27,14a3.87,3.87,0,0,0,3.61,2.68,7.73,7.73,0,0,1-4.8,1.66,7,7,0,0,1-.92-.06A10.9,10.9,0,0,0,8.08,20"/></g></svg>
