<?xml version="1.0" encoding="UTF-8"?>
<svg xmlns="http://www.w3.org/2000/svg" xmlns:xlink="http://www.w3.org/1999/xlink" x="0px" y="0px" viewBox="0 0 24 24" version="1.1">
<path style=" stroke:none;fill-rule:nonzero;fill:rgb(0%,0%,0%);fill-opacity:1;" d="M 17.8562 6.85 C 17.7344 6.7875 17.6188 6.7188 17.5031 6.6438 C 17.1688 6.4219 16.8625 6.1625 16.5938 5.8688 C 15.9125 5.0938 15.6594 4.3062 15.5656 3.7531 L 15.5719 3.7531 C 15.4938 3.2969 15.525 3 15.5312 3 L 12.4375 3 L 12.4375 14.9531 C 12.4375 15.1156 12.4375 15.2719 12.4312 15.4312 C 12.4312 15.45 12.4312 15.4688 12.4281 15.4875 C 12.4281 15.4969 12.4281 15.5062 12.4281 15.5156 C 12.4281 15.5188 12.4281 15.5188 12.4281 15.5219 C 12.3594 16.3938 11.8656 17.175 11.1062 17.6062 C 10.7156 17.8281 10.275 17.9438 9.8281 17.9438 C 8.3875 17.9438 7.2188 16.7688 7.2188 15.3188 C 7.2188 13.8688 8.3875 12.6938 9.8281 12.6938 C 10.1 12.6938 10.3719 12.7344 10.6312 12.8188 L 10.6344 9.6719 C 9.0438 9.4656 7.4375 9.9375 6.2094 10.9656 C 5.675 11.4312 5.2281 11.9812 4.8844 12.6 C 4.7531 12.825 4.2625 13.7281 4.2031 15.1969 C 4.1656 16.0281 4.4156 16.8906 4.5344 17.2469 L 4.5344 17.2562 C 4.6094 17.4656 4.9 18.1812 5.3719 18.7875 C 5.7562 19.2719 6.2062 19.6969 6.7125 20.05 L 6.7125 20.0438 L 6.7188 20.05 C 8.2156 21.0656 9.875 21 9.875 21 C 10.1625 20.9875 11.125 21 12.2188 20.4812 C 13.4312 19.9094 14.1188 19.0531 14.1188 19.0531 C 14.5625 18.5406 14.9125 17.9594 15.1562 17.3312 C 15.4375 16.5938 15.5312 15.7125 15.5312 15.3594 L 15.5312 9.0188 C 15.5688 9.0406 16.0656 9.3719 16.0656 9.3719 C 16.0656 9.3719 16.7875 9.8312 17.9094 10.1344 C 18.7156 10.3469 19.8 10.3906 19.8 10.3906 L 19.8 7.3219 C 19.4188 7.3625 18.6469 7.2438 17.8562 6.85 Z M 17.8562 6.85"/>
</svg>
