<?xml version="1.0" encoding="utf-8"?>
<!-- Generator: Adobe Illustrator 25.4.1, SVG Export Plug-In . SVG Version: 6.00 Build 0)  -->
<svg version="1.1" id="Livello_1" xmlns="http://www.w3.org/2000/svg" xmlns:xlink="http://www.w3.org/1999/xlink" x="0px" y="0px"
	 viewBox="0 0 24 24" style="enable-background:new 0 0 24 24;" xml:space="preserve">
<path d="M8.1,20c2.9,0,5.7-1.1,7.8-3.2s3.2-4.9,3.2-7.8c0-0.2,0-0.3,0-0.5c0.8-0.5,1.4-1.2,1.9-2c-0.7,0.3-1.5,0.5-2.2,0.6
	c0.8-0.5,1.4-1.2,1.7-2.1c-0.8,0.4-1.6,0.7-2.5,0.9c-1.1-1.2-2.8-1.5-4.2-0.9s-2.4,2-2.4,3.6c0,0.3,0,0.6,0.1,0.9
	c-3.1-0.1-6-1.6-8-4c-1,1.8-0.5,4,1.2,5.2c-0.6,0-1.2-0.2-1.8-0.5l0,0c0,1.9,1.3,3.5,3.2,3.8C5.7,14,5.3,14,5,14.1
	c-0.2,0-0.5,0-0.7-0.1c0.5,1.6,2,2.6,3.6,2.7c-1.4,1.1-3.1,1.7-4.8,1.7c-0.3,0-0.6,0-0.9-0.1C3.9,19.4,6,20,8.1,20"/>
</svg>
