<?xml version="1.0" encoding="utf-8"?>
<!-- Generator: Adobe Illustrator 25.4.1, SVG Export Plug-In . SVG Version: 6.00 Build 0)  -->
<svg version="1.1" id="Livello_1" xmlns="http://www.w3.org/2000/svg" xmlns:xlink="http://www.w3.org/1999/xlink" x="0px" y="0px"
	 viewBox="0 0 24 24" style="enable-background:new 0 0 24 24;" xml:space="preserve">
<g>
	<path d="M5,3h0.2"/>
	<path d="M20,11.6L20,11.6L20,11.6C20,7.4,16.6,4,12.5,4h-0.1c-0.3,0-0.5,0.2-0.5,0.5c0,0.3,0.2,0.5,0.5,0.5c0,0,0,0,0,0l0,0
		c3.6,0,6.6,3,6.6,6.6c0,0.3,0.3,0.5,0.5,0.5C19.8,12.1,20,11.9,20,11.6L20,11.6C20,11.6,20,11.6,20,11.6z"/>
	<path d="M16.9,11.7c0-2.5-2-4.5-4.5-4.5l0,0c-0.3,0.1-0.5,0.3-0.4,0.6c0,0.2,0.2,0.4,0.4,0.4l0,0c1.9,0,3.5,1.6,3.5,3.5l0,0
		c0,0.3,0.2,0.5,0.5,0.5C16.7,12.2,16.9,12,16.9,11.7L16.9,11.7z"/>
	<path d="M15.7,21.2L15.7,21.2C8.6,20.9,3,15.2,2.9,8.1c0-0.4,0.2-0.8,0.6-0.9c1.7-0.6,4-1,4.7,0.1C8.7,8.2,9,9.2,9.1,10.2v0.2
		c0.2,0.7-0.1,1.3-0.7,1.7l0,0c-0.3,0.1-0.5,0.4-0.5,0.7c0.9,1.4,2,2.6,3.4,3.5c0.2-0.1,0.4-0.3,0.5-0.6c0.1-0.5,0.6-1,1.7-0.9h0.2
		c1,0.1,2,0.4,2.8,0.9c1,0.7,0.6,3,0.1,4.7C16.5,20.9,16.1,21.2,15.7,21.2z M6.6,7.5c-0.9,0-1.9,0.2-2.8,0.5
		c0.1,6.6,5.3,12,11.9,12.2c0.7-2.3,0.7-3.5,0.3-3.8c-0.8-0.4-1.6-0.6-2.5-0.7h-0.2c-0.3,0-0.6,0-0.7,0.1c-0.2,0.6-0.6,1.1-1.3,1.3
		l-0.2,0.1L11,17.2c-1.6-1-2.9-2.4-3.9-4L7,13c-0.1-0.7,0.3-1.4,1-1.7l0,0c0.1-0.1,0.3-0.2,0.3-0.8v-0.2C8.2,9.4,7.9,8.6,7.6,7.8
		C7.3,7.6,7,7.5,6.6,7.5z"/>
</g>
</svg>
