<svg width="24" height="24" viewBox="0 0 24 24" fill="none" xmlns="http://www.w3.org/2000/svg">
<path fill-rule="evenodd" clip-rule="evenodd" d="M3.56696 1.33333H20.3289C20.9351 1.33333 21.5165 1.57414 21.9451 2.0028C22.3738 2.43145 22.6146 3.01283 22.6146 3.61904V20.3809C22.6146 20.9872 22.3738 21.5685 21.9451 21.9972C21.5165 22.4258 20.9351 22.6667 20.3289 22.6667H3.56696C2.96076 22.6667 2.37937 22.4258 1.95072 21.9972C1.52207 21.5685 1.28125 20.9872 1.28125 20.3809V3.61904C1.28125 3.01283 1.52207 2.43145 1.95072 2.0028C2.37937 1.57414 2.96076 1.33333 3.56696 1.33333ZM14.9806 4L13 4.00001V15C13 16.6569 11.6569 18 10 18C8.34314 18 7 16.6569 7 15C7 13.3432 8.34314 12 10 12V10C7.23857 10 5 12.2386 5 15C5 17.7614 7.23857 20 10 20C12.7614 20 15 17.7614 15 15V8.17139C15.9291 9.18644 17.2466 10 19 10V8.00001C17.7971 8.00001 16.8955 7.3888 16.215 6.51194C15.5206 5.61706 15.1236 4.71501 14.9806 4Z" />
</svg>
