<svg xmlns="http://www.w3.org/2000/svg" viewBox="0 0 24 24"><defs><style>.cls-1{fill:#06c;}</style></defs><title>it-unlock</title><g id="Livello_24" data-name="Livello 24"><path class="cls-1" d="M18.5,8.5H17l0-.34h0A5,5,0,0,0,7.17,6.69l-.07.49,1,.15.07-.49A4,4,0,1,1,16.07,8L16,8.5H5.5A1.5,1.5,0,0,0,4,10v8.5A1.5,1.5,0,0,0,5.5,20h13A1.5,1.5,0,0,0,20,18.5V10A1.5,1.5,0,0,0,18.5,8.5Zm.5,10a.5.5,0,0,1-.5.5H5.5a.5.5,0,0,1-.5-.5V10a.5.5,0,0,1,.5-.5h13a.5.5,0,0,1,.5.5Z"/><path class="cls-1" d="M12,12.25a2,2,0,1,0,2,2A2,2,0,0,0,12,12.25Zm0,3a1,1,0,1,1,1-1A1,1,0,0,1,12,15.25Z"/></g></svg>