<svg xmlns="http://www.w3.org/2000/svg" viewBox="0 0 24 24"><title>it-upload</title><g><path d="M3.51,8.48h.13a.5.5,0,0,0,.5-.5v-.5h0V5A1.08,1.08,0,0,1,5.27,4H18.78a1.08,1.08,0,0,1,1.13,1V8a.5.5,0,0,0,.5.5h.13A.5.5,0,0,0,21,8V5a2.14,2.14,0,0,0-2.26-2H5.27A2.14,2.14,0,0,0,3,5V7.48H3V8A.5.5,0,0,0,3.51,8.48Z"/><path d="M8,11.49a.75.75,0,0,0,1.06,0L11.3,9.23v11a.75.75,0,0,0,1.5,0v-11l2.25,2.26a.77.77,0,0,0,1.07,0,.75.75,0,0,0,0-1.06l-3-3a1.51,1.51,0,0,0-2.12,0l-3,3A.75.75,0,0,0,8,11.49Z"/></g></svg>
