<svg xmlns="http://www.w3.org/2000/svg" viewBox="0 0 24 24">
    <title>it-upload</title>
    <g>
        <path d="M20.73,15.49H20.6a.5.5,0,0,0-.5.5v.5h0V19A1.08,1.08,0,0,1,19,20H5.45a1.08,1.08,0,0,1-1.13-1V16a.5.5,0,0,0-.5-.5H3.7a.5.5,0,0,0-.5.5v3a2.14,2.14,0,0,0,2.25,2H19a2.14,2.14,0,0,0,2.26-2v-2.5h0V16A.5.5,0,0,0,20.73,15.49Z"/>
        <path d="M8,7.48A.75.75,0,0,0,9,7.48L11.3,5.22v11a.75.75,0,0,0,1.5,0v-11l2.25,2.26a.77.77,0,0,0,1.07,0,.75.75,0,0,0,0-1.06l-3-3a1.51,1.51,0,0,0-2.12,0l-3,3A.75.75,0,0,0,8,7.48Z"/>
    </g>
</svg>