<?xml version="1.0" encoding="utf-8"?>
<!-- Generator: Adobe Illustrator 25.4.1, SVG Export Plug-In . SVG Version: 6.00 Build 0)  -->
<svg version="1.1" id="Livello_1" xmlns="http://www.w3.org/2000/svg" xmlns:xlink="http://www.w3.org/1999/xlink" x="0px" y="0px"
	 viewBox="0 0 24 24" style="enable-background:new 0 0 24 24;" xml:space="preserve">
<g>
	<path d="M12,13c2.2,0,4-1.8,4-4V6c0-2.2-1.8-4-4-4S8,3.8,8,6v3C8,11.2,9.8,13,12,13z M9,6c0-1.7,1.3-3,3-3s3,1.3,3,3v3
		c0,1.7-1.3,3-3,3s-3-1.3-3-3V6z M20,22h-1c0-3.9-3.1-7-7-7s-7,3.1-7,7H4c0-4.4,3.6-8,8-8S20,17.6,20,22z"/>
</g>
</svg>
