<svg xmlns="http://www.w3.org/2000/svg" viewBox="0 0 24 24"><title>it-unlocked</title><g><path d="M12,12.77a2,2,0,1,0,2,2A2,2,0,0,0,12,12.77Zm0,3a1,1,0,1,1,1-1A1,1,0,0,1,12,15.77Z"/><path d="M18.5,9H16.6c0-.07,0-.13,0-.2A5,5,0,0,0,8.51,4.14a.51.51,0,0,0-.06.71.49.49,0,0,0,.7.06,4,4,0,0,1,6.51,3.74c0,.13-.06.25-.09.37H5.5A1.5,1.5,0,0,0,4,10.52V19a1.51,1.51,0,0,0,1.5,1.51h13A1.51,1.51,0,0,0,20,19V10.52A1.5,1.5,0,0,0,18.5,9ZM19,19a.51.51,0,0,1-.5.51H5.5A.51.51,0,0,1,5,19V10.52a.5.5,0,0,1,.5-.5h13a.5.5,0,0,1,.5.5Z"/></g></svg>
