<?xml version="1.0" encoding="UTF-8"?>
<svg xmlns="http://www.w3.org/2000/svg" xmlns:xlink="http://www.w3.org/1999/xlink" x="0px" y="0px" viewBox="0 0 24 24" version="1.1">
<path style=" stroke:none;fill-rule:nonzero;fill:rgb(0%,0%,0%);fill-opacity:1;" d="M 23.984375 4.625 C 23.878906 6.878906 22.246094 9.957031 19.09375 13.871094 C 15.828125 17.957031 13.070312 20 10.8125 20 C 9.414062 20 8.230469 18.753906 7.261719 16.261719 L 5.328125 9.40625 C 4.609375 6.910156 3.839844 5.664062 3.015625 5.664062 C 2.835938 5.664062 2.207031 6.027344 1.132812 6.757812 L 0.00390625 5.355469 C 1.175781 4.359375 2.339844 3.355469 3.496094 2.339844 C 5.074219 1.027344 6.257812 0.332031 7.046875 0.265625 C 8.910156 0.0898438 10.058594 1.320312 10.488281 3.953125 C 10.953125 6.789062 11.277344 8.554688 11.457031 9.25 C 11.992188 11.605469 12.585938 12.78125 13.230469 12.78125 C 13.734375 12.78125 14.484375 12.019531 15.488281 10.496094 C 16.492188 8.972656 17.03125 7.8125 17.101562 7.015625 C 17.246094 5.699219 16.707031 5.042969 15.488281 5.042969 C 14.914062 5.042969 14.324219 5.164062 13.714844 5.40625 C 14.898438 1.699219 17.15625 -0.101562 20.492188 0.00390625 C 22.964844 0.0742188 24.128906 1.613281 23.984375 4.625 Z M 23.984375 4.625 "/>
</svg>
