<svg width="24" height="24" viewBox="0 0 24 24" fill="none" xmlns="http://www.w3.org/2000/svg">
<path fill-rule="evenodd" clip-rule="evenodd" d="M3.56696 1.33333H20.3289C20.9351 1.33333 21.5165 1.57414 21.9451 2.0028C22.3738 2.43145 22.6146 3.01283 22.6146 3.61904V20.3809C22.6146 20.9872 22.3738 21.5685 21.9451 21.9972C21.5165 22.4258 20.9351 22.6667 20.3289 22.6667H3.56696C2.96076 22.6667 2.37937 22.4258 1.95072 21.9972C1.52207 21.5685 1.28125 20.9872 1.28125 20.3809V3.61904C1.28125 3.01283 1.52207 2.43145 1.95072 2.0028C2.37937 1.57414 2.96076 1.33333 3.56696 1.33333ZM16.7303 14.5966C18.8336 11.8906 19.9209 9.75966 19.9923 8.20373C20.087 6.12013 19.3121 5.05312 17.6676 5.00269C15.4512 4.93381 13.9487 6.18594 13.1603 8.75907C13.5334 8.59258 13.9363 8.50345 14.3448 8.49708C15.159 8.49831 15.5182 8.95525 15.4223 9.8679C15.3755 10.4202 15.0164 11.2252 14.3448 12.283C13.6732 13.3408 13.1708 13.8697 12.8374 13.8697C12.4069 13.8709 12.0115 13.056 11.6511 11.4251C11.5306 10.9491 11.3153 9.72707 11.0054 7.75909C10.7163 5.93379 9.95005 5.08264 8.70654 5.20564C8.17887 5.25484 7.38799 5.73392 6.3339 6.64288C5.56762 7.33659 4.78965 8.0303 4 8.72401L4.75275 9.69447C5.47045 9.19264 5.88926 8.93988 6.00734 8.93988C6.55591 8.93988 7.07004 9.80086 7.54974 11.5228L8.84122 16.2571C9.48573 17.979 10.2748 18.84 11.2083 18.84C12.7138 18.84 14.5545 17.4255 16.7303 14.5966Z" />
</svg>
