<svg width="24" height="24" viewBox="0 0 24 24" fill="none" xmlns="http://www.w3.org/2000/svg">
<path d="M20.9913 7.7292C20.911 9.47962 19.6878 11.8769 17.3216 14.9211C14.8738 18.1037 12.8031 19.695 11.1094 19.695C10.0591 19.695 9.17145 18.7264 8.44637 16.7892L6.99345 11.4632C6.4538 9.52597 5.8754 8.55736 5.25825 8.55736C5.12541 8.55736 4.65425 8.84172 3.84684 9.40628L3 8.31451C3.88836 7.53409 4.76357 6.75366 5.62563 5.97324C6.81149 4.95066 7.70123 4.4117 8.29485 4.35635C9.69381 4.21797 10.5559 5.17552 10.8811 7.22898C11.2298 9.44295 11.4719 10.8177 11.6075 11.3532C12.0129 13.188 12.4578 14.1047 12.9421 14.1034C13.3171 14.1034 13.8824 13.5084 14.6379 12.3183C15.3934 11.1283 15.7975 10.2227 15.85 9.60139C15.958 8.57466 15.5539 8.0606 14.6379 8.05922C14.1784 8.06638 13.725 8.16665 13.3054 8.35395C14.1923 5.45918 15.8826 4.05054 18.376 4.12803C20.2261 4.18476 21.0978 5.38515 20.9913 7.7292Z" />
</svg>
