<?xml version="1.0" encoding="UTF-8"?>
<svg xmlns="http://www.w3.org/2000/svg" xmlns:xlink="http://www.w3.org/1999/xlink" x="0px" y="0px" viewBox="0 0 24 24" version="1.1">
<path style=" stroke:none;fill-rule:nonzero;fill:rgb(0%,0%,0%);fill-opacity:1;" d="M 21.0842 7.9872 C 21.0047 9.6867 19.7736 12.0076 17.3967 14.9588 C 14.9344 18.0396 12.855 19.58 11.1526 19.58 C 10.0982 19.58 9.2058 18.6404 8.4753 16.7613 L 7.0174 11.5923 C 6.4755 9.7103 5.8952 8.7707 5.2738 8.7707 C 5.1383 8.7707 4.6641 9.0446 3.8541 9.5954 L 3.0029 8.538 C 3.8865 7.787 4.7642 7.03 5.6361 6.2642 C 6.826 5.2746 7.7184 4.7504 8.3133 4.7003 C 9.7183 4.5677 10.5842 5.4955 10.9082 7.4807 C 11.2587 9.619 11.5031 10.9502 11.6386 11.4745 C 12.0421 13.2505 12.4898 14.1371 12.9758 14.1371 C 13.3557 14.1371 13.9212 13.5627 14.6782 12.4141 C 15.4351 11.2654 15.8416 10.3906 15.8946 9.7898 C 16.0036 8.7972 15.5971 8.3024 14.6782 8.3024 C 14.2452 8.3024 13.8005 8.3937 13.341 8.5763 C 14.2334 5.7812 15.9358 4.4234 18.4511 4.5029 C 20.3155 4.556 21.1932 5.7164 21.0842 7.9872 Z M 21.0842 7.9872"/>
</svg>
