<svg xmlns="http://www.w3.org/2000/svg" viewBox="0 0 24 24"><title>it-video</title><g><path d="M13.08,5h-8a3,3,0,0,0-3,3v8a3,3,0,0,0,3,3h8a3,3,0,0,0,3-3V8A3,3,0,0,0,13.08,5Zm2,11a2,2,0,0,1-2,2h-8a2,2,0,0,1-2-2V8a2,2,0,0,1,2-2h8a2,2,0,0,1,2,2Z"/><path d="M20.9,7.06a1.1,1.1,0,0,0-.57.16L17,9.11l-1,.55-1,.58V11.4l1-.58L17.54,10l3.29-1.9.07,0a.15.15,0,0,1,.15.15v7.58a.15.15,0,0,1-.15.15l-.07,0L17.54,14l-1.46-.84-1-.58v1.16l1,.58,1,.55,3.29,1.89a1.1,1.1,0,0,0,.57.16,1.15,1.15,0,0,0,1.15-1.15V8.21A1.15,1.15,0,0,0,20.9,7.06Z"/><rect x="5.52" y="14.5" width="3.05" height="1.49" rx="0.75"/></g></svg>
