<?xml version="1.0" encoding="utf-8"?>
<!-- Generator: Adobe Illustrator 25.4.1, SVG Export Plug-In . SVG Version: 6.00 Build 0)  -->
<svg version="1.1" id="Livello_1" xmlns="http://www.w3.org/2000/svg" xmlns:xlink="http://www.w3.org/1999/xlink" x="0px" y="0px"
	 viewBox="0 0 24 24" style="enable-background:new 0 0 24 24;" xml:space="preserve">
<g transform="translate(2.000000, 1.000000)">
</g>
<path d="M19.1,4.6C15.5,1.3,10,1,6.1,4s-5.1,8.4-2.7,12.7L2,21.8l5.3-1.4c1.4,0.8,3.1,1.2,4.7,1.2l0,0c4,0,7.6-2.5,9.1-6.2
	C22.7,11.8,21.9,7.5,19.1,4.6L19.1,4.6z M12,20L12,20c-1.5,0-2.9-0.4-4.2-1.2l-0.3-0.2l-3.1,0.8l0.8-3.1L5,16.1
	C3,12.9,3.5,8.7,6.1,6s6.7-3.3,10-1.5s4.9,5.7,4,9.3C19.1,17.5,15.8,20,12,20L12,20z M16.5,13.8c-0.3-0.1-1.5-0.7-1.7-0.8
	c-0.2-0.1-0.4-0.1-0.6,0.1c-0.2,0.3-0.5,0.7-0.8,1c-0.1,0.2-0.3,0.2-0.5,0.1c-0.7-0.3-1.4-0.7-2-1.2c-0.5-0.5-1-1.1-1.4-1.7
	c-0.1-0.3,0-0.4,0.1-0.5c0.1-0.1,0.3-0.3,0.4-0.4c0.1-0.1,0.2-0.3,0.3-0.4c0.1-0.1,0.1-0.3,0-0.4c0-0.2-0.5-1.4-0.8-1.9
	S9.1,7.1,9,7.1H8.5C8.3,7.1,8,7.2,7.8,7.4C7.3,7.9,7,8.7,7,9.4c0.1,0.9,0.4,1.8,1,2.6c1.1,1.6,2.5,2.9,4.3,3.8
	c0.5,0.2,0.9,0.4,1.4,0.5c0.5,0.2,1,0.2,1.6,0.1c0.7-0.1,1.3-0.6,1.7-1.2c0.2-0.4,0.2-0.8,0.2-1.2C17,13.9,16.8,13.9,16.5,13.8
	L16.5,13.8z"/>
</svg>
