<svg xmlns="http://www.w3.org/2000/svg" viewBox="0 0 24 24"><title>it-whatsapp</title><g><path d="M19.09,4.63a10,10,0,0,0-15.68,12L2,21.8l5.28-1.38A10,10,0,0,0,12,21.63h0a10,10,0,0,0,7.05-17ZM12,20h0a8.18,8.18,0,0,1-4.21-1.16l-.31-.18-3.13.83.84-3.06L5,16.07A8.28,8.28,0,1,1,12,20Zm4.54-6.2c-.25-.13-1.47-.73-1.7-.81s-.39-.13-.56.12a12.44,12.44,0,0,1-.79,1c-.14.16-.29.18-.54.06a6.92,6.92,0,0,1-2-1.23,7.27,7.27,0,0,1-1.38-1.73c-.15-.25,0-.38.11-.51s.25-.29.37-.43a1.51,1.51,0,0,0,.25-.42.46.46,0,0,0,0-.43C10.26,9.22,9.76,8,9.55,7.5s-.4-.42-.56-.43H8.52a1,1,0,0,0-.67.31A2.81,2.81,0,0,0,7,9.45,4.73,4.73,0,0,0,8,12a11,11,0,0,0,4.25,3.76,14.84,14.84,0,0,0,1.42.53,3.28,3.28,0,0,0,1.56.09,2.54,2.54,0,0,0,1.68-1.18A2.09,2.09,0,0,0,17.06,14C17,13.93,16.83,13.87,16.58,13.75Z"/></g></svg>
