<svg xmlns="http://www.w3.org/2000/svg" viewBox="0 0 24 24"><title>it-whatsapp-square</title><g><path d="M16,8.07a5.34,5.34,0,0,0-9.11,3.77,5.28,5.28,0,0,0,.82,2.84l.12.2-.53,2,2-.53.2.11a5.29,5.29,0,0,0,2.71.75h0A5.34,5.34,0,0,0,16,8.07Zm-.83,5.83a1.66,1.66,0,0,1-1.08.76,2.23,2.23,0,0,1-1-.06c-.23-.08-.53-.18-.91-.34A7.16,7.16,0,0,1,9.4,11.84a3.13,3.13,0,0,1-.66-1.66A1.83,1.83,0,0,1,9.3,8.84a.59.59,0,0,1,.43-.2H10c.1,0,.23,0,.36.27s.45,1.11.49,1.19a.3.3,0,0,1,0,.28,1.2,1.2,0,0,1-.16.27c-.08.1-.17.21-.24.28s-.17.17-.07.33a4.73,4.73,0,0,0,.89,1.11,4.31,4.31,0,0,0,1.29.8c.16.08.25.06.34,0s.4-.47.51-.63.21-.14.36-.08.94.44,1.1.52.26.12.3.19A1.36,1.36,0,0,1,15.14,13.9Z"/><path d="M21,7.09a8.26,8.26,0,0,0-.09-1.15,3.49,3.49,0,0,0-1.85-2.51,3.89,3.89,0,0,0-1-.32A8.36,8.36,0,0,0,16.91,3H7.09a8.26,8.26,0,0,0-1.15.09A3.49,3.49,0,0,0,3.43,5a3.89,3.89,0,0,0-.32,1A8.36,8.36,0,0,0,3,7.09c0,.17,0,.38,0,.48v8.86c0,.1,0,.31,0,.48a8.26,8.26,0,0,0,.09,1.15A3.49,3.49,0,0,0,5,20.57a3.89,3.89,0,0,0,1,.32,8.36,8.36,0,0,0,1.16.1h9.82a8.26,8.26,0,0,0,1.15-.09,3.49,3.49,0,0,0,2.51-1.85,3.89,3.89,0,0,0,.32-1,8.36,8.36,0,0,0,.1-1.16c0-.17,0-.38,0-.48V7.57C21,7.47,21,7.26,21,7.09ZM12.2,18.26h0a6.39,6.39,0,0,1-3.06-.78l-3.41.89.92-3.32a6.33,6.33,0,0,1-.86-3.21,6.41,6.41,0,0,1,11-4.53,6.33,6.33,0,0,1,1.88,4.54A6.42,6.42,0,0,1,12.2,18.26Z"/></g></svg>
