<svg width="24px" height="24px" viewBox="0 0 24 24" version="1.1"
     xmlns="http://www.w3.org/2000/svg">
  <title>Logo Whatsapp</title>
  <g stroke="none" stroke-width="1">
    <g>
      <rect x="0" y="0" width="24" height="24" fill="none"></rect>
    </g>
    <g transform="translate(2.000000, 1.000000)">
      <path
        d="M17.09,3.63 C13.5244729,0.256762976 8.03786048,-0.0300844188 4.14001869,2.95295776 C0.242176913,5.93599994 -0.9144699,11.3069743 1.41,15.63 L0,20.8 L5.28,19.42 C6.72949907,20.2063405 8.35096541,20.622013 10,20.63 L10,20.63 C14.0098187,20.5935002 17.6100532,18.1652278 19.1461643,14.4611299 C20.6822755,10.757032 19.8571555,6.49353915 17.05,3.63 L17.09,3.63 Z M10,19 L10,19 C8.5174775,19.0019828 7.06228684,18.6010276 5.79,17.84 L5.48,17.66 L2.35,18.49 L3.19,15.43 L3,15.07 C1.0170612,11.8582988 1.45717339,7.71202444 4.0701509,4.98816333 C6.6831284,2.26430223 10.807544,1.65234974 14.0988371,3.5001757 C17.3901301,5.34800166 19.0151703,9.1878629 18.0501891,12.8369562 C17.0852079,16.4860495 13.7744726,19.0206741 10,19 L10,19 Z M14.54,12.8 C14.29,12.67 13.07,12.07 12.84,11.99 C12.61,11.91 12.45,11.86 12.28,12.11 C12.0339248,12.4566117 11.7702456,12.7903829 11.49,13.11 C11.35,13.27 11.2,13.29 10.95,13.17 C10.2181362,12.876919 9.54173518,12.4609324 8.95,11.94 C8.40441247,11.4371343 7.93902196,10.8537099 7.57,10.21 C7.42,9.96 7.57,9.83 7.68,9.7 C7.79,9.57 7.93,9.41 8.05,9.27 C8.15558911,9.14450564 8.24002839,9.00264764 8.3,8.85 C8.37111566,8.71548778 8.37111566,8.55451222 8.3,8.42 C8.26,8.22 7.76,7 7.55,6.5 C7.34,6 7.15,6.08 6.99,6.07 L6.52,6.07 C6.26530249,6.08409691 6.02562044,6.19499458 5.85,6.38 C5.29229924,6.92256141 4.98452698,7.67207738 5,8.45 C5.07454068,9.38002318 5.42246476,10.2672296 6,11 C7.06344752,12.6034566 8.52887495,13.8999289 10.25,14.76 C10.7139965,14.9607391 11.1879478,15.1376364 11.67,15.29 C12.1751565,15.4452348 12.7103428,15.4761109 13.23,15.38 C13.9310928,15.2405867 14.5409888,14.8122074 14.91,14.2 C15.0771623,13.823522 15.1293474,13.4060417 15.06,13 C15,12.93 14.83,12.87 14.58,12.75 L14.54,12.8 Z"
        ></path>
    </g>
  </g>
</svg>
