<?xml version="1.0" encoding="utf-8"?>
<!-- Generator: Adobe Illustrator 25.4.1, SVG Export Plug-In . SVG Version: 6.00 Build 0)  -->
<svg version="1.1" id="Livello_1" xmlns="http://www.w3.org/2000/svg" xmlns:xlink="http://www.w3.org/1999/xlink" x="0px" y="0px"
	 viewBox="0 0 24 24" style="enable-background:new 0 0 24 24;" xml:space="preserve">
<path d="M16,8.1c-1.5-1.5-3.8-2-5.8-1.2s-3.3,2.8-3.3,4.9c0,1,0.3,2,0.8,2.8l0.1,0.2l-0.5,2l2-0.5l0.2,0.1c0.8,0.5,1.8,0.7,2.7,0.8
	l0,0c2.2,0,4.1-1.3,5-3.3C18,11.9,17.5,9.6,16,8.1z M15.2,13.9c-0.2,0.4-0.6,0.7-1.1,0.8c-0.3,0.1-0.7,0-1-0.1
	c-0.2-0.1-0.5-0.2-0.9-0.3c-1.1-0.6-2.1-1.4-2.8-2.4c-0.4-0.5-0.6-1.1-0.7-1.7c0-0.5,0.2-1,0.6-1.3c0.1-0.1,0.3-0.2,0.4-0.2H10
	c0.1,0,0.2,0,0.4,0.3c0.1,0.3,0.5,1.1,0.5,1.2c0,0.1,0,0.2,0,0.3c0,0.1-0.1,0.2-0.2,0.3c-0.1,0.1-0.2,0.2-0.2,0.3
	c-0.1,0.1-0.2,0.2-0.1,0.3c0.2,0.4,0.5,0.8,0.9,1.1c0.4,0.3,0.8,0.6,1.3,0.8c0.2,0.1,0.3,0.1,0.3,0c0.1-0.1,0.4-0.5,0.5-0.6
	c0.1-0.2,0.2-0.1,0.4-0.1c0.1,0.1,0.9,0.4,1.1,0.5c0.2,0.1,0.3,0.1,0.3,0.2C15.2,13.4,15.2,13.7,15.2,13.9L15.2,13.9z"/>
<path d="M21,7.1c0-0.4,0-0.8-0.1-1.2c-0.2-1.1-0.9-2-1.9-2.5c-0.3-0.2-0.7-0.3-1-0.3C17.7,3,17.3,3,16.9,3H7.1C6.7,3,6.3,3,5.9,3.1
	C4.8,3.3,3.9,4,3.4,5C3.3,5.3,3.2,5.7,3.1,6C3,6.4,3,6.7,3,7.1c0,0.2,0,0.4,0,0.5v8.9c0,0.1,0,0.3,0,0.5c0,0.4,0,0.8,0.1,1.1
	c0.2,1.1,0.9,2,1.9,2.5c0.3,0.2,0.7,0.3,1,0.3C6.4,21,6.8,21,7.2,21H17c0.4,0,0.8,0,1.1-0.1c1.1-0.2,2-0.9,2.5-1.9
	c0.2-0.3,0.3-0.7,0.3-1c0.1-0.4,0.1-0.8,0.1-1.2c0-0.2,0-0.4,0-0.5V7.6C21,7.5,21,7.3,21,7.1z M12.2,18.3L12.2,18.3
	c-1.1,0-2.1-0.3-3.1-0.8l-3.4,0.9l0.9-3.3c-0.6-1-0.9-2.1-0.9-3.2c0-2.6,1.5-5,4-6s5.2-0.4,7,1.5c1.2,1.2,1.9,2.8,1.9,4.5
	c0,1.7-0.7,3.3-1.9,4.6C15.6,17.6,13.9,18.3,12.2,18.3z"/>
</svg>
