<?xml version="1.0" encoding="utf-8"?>
<!-- Generator: Adobe Illustrator 25.4.1, SVG Export Plug-In . SVG Version: 6.00 Build 0)  -->
<svg version="1.1" id="Livello_1" xmlns="http://www.w3.org/2000/svg" xmlns:xlink="http://www.w3.org/1999/xlink" x="0px" y="0px"
	 viewBox="0 0 24 24" style="enable-background:new 0 0 24 24;" xml:space="preserve">
<path d="M21.6,7.2c-0.2-0.9-0.9-1.5-1.8-1.8C18.2,5,12,5,12,5S5.8,5,4.2,5.4C3.3,5.7,2.7,6.3,2.4,7.2C2.1,8.8,2,10.4,2,12
	c0,1.6,0.1,3.2,0.4,4.8c0.2,0.9,0.9,1.5,1.8,1.8C5.8,19,12,19,12,19s6.2,0,7.8-0.4c0.9-0.2,1.5-0.9,1.8-1.8c0.3-1.6,0.4-3.2,0.4-4.8
	C22,10.4,21.9,8.8,21.6,7.2z M10,15V9l5.2,3L10,15z"/>
</svg>
