<svg width="24px" height="24px" viewBox="0 0 24 24" version="1.1"
     xmlns="http://www.w3.org/2000/svg">
  <title>Logo Youtube</title>
  <g stroke="none" stroke-width="1">
    <g>
      <rect x="0" y="0" width="24" height="24" fill="none"></rect>
    </g>
    <path
      d="M21.56,7.2 C21.3309127,6.3383804 20.6603078,5.66396527 19.8,5.43 C18.24,5 12,5 12,5 C12,5 5.76,5 4.2,5.42 C3.33714249,5.65574969 2.66598515,6.33453381 2.44,7.2 C2.14340004,8.78269881 1.99608663,10.3897541 2,12 C1.98949077,13.6096175 2.13010765,15.2166676 2.42,16.8 C2.65265281,17.6667095 3.33199354,18.3422337 4.2,18.57 C5.76,19 12,19 12,19 C12,19 18.24,19 19.8,18.58 C20.6603078,18.3460347 21.3309127,17.6716196 21.56,16.81 C21.8572241,15.2240185 22.0045402,13.6135857 22,12 C22.0039134,10.3897541 21.8566,8.78269881 21.56,7.2 Z M10,15 L10,9 L15.19,12 L10,15 Z"
    ></path>
  </g>
</svg>
