<?xml version="1.0" encoding="utf-8"?>
<!-- Generator: Adobe Illustrator 25.4.1, SVG Export Plug-In . SVG Version: 6.00 Build 0)  -->
<svg version="1.1" id="Livello_1" xmlns="http://www.w3.org/2000/svg" xmlns:xlink="http://www.w3.org/1999/xlink" x="0px" y="0px"
	 viewBox="0 0 24 24" style="enable-background:new 0 0 24 24;" xml:space="preserve">
<g>
	<path d="M6.2,9.5h7.5v1H6.2V9.5z M21.1,21.9L15.3,16c-1.5,1.3-3.4,2-5.3,2c-4.4,0-8-3.6-8-8s3.6-8,8-8s8,3.6,8,8
		c0,1.9-0.7,3.8-2,5.3l5.9,5.8L21.1,21.9z M17,10c0-3.9-3.1-7-7-7s-7,3.1-7,7s3.1,7,7,7S17,13.9,17,10z"/>
</g>
</svg>
