<!-- Generated by IcoMoon.io -->
<svg version="1.1" xmlns="http://www.w3.org/2000/svg" width="32" height="32" viewBox="0 0 32 32">
<title>linkedin</title>
<path d="M32 19.52v11.84h-6.88v-11.040c0-2.72-0.96-4.64-3.52-4.64-1.92 0-3.040 1.28-3.52 2.56-0.16 0.48-0.16 1.12-0.16 1.6v11.52h-6.88c0 0 0.16-18.72 0-20.64h6.88v2.88c0 0 0 0 0 0v0 0c0.96-1.44 2.56-3.36 6.24-3.36 4.48 0 7.84 2.88 7.84 9.28zM3.84 0.64c-2.24 0-3.84 1.6-3.84 3.68 0 1.92 1.44 3.52 3.84 3.52v0c2.4 0 3.84-1.6 3.84-3.52 0-2.080-1.44-3.68-3.84-3.68zM0.48 31.36h6.88v-20.64h-6.88v20.64z"></path>
</svg>
