<!-- Generated by IcoMoon.io -->
<svg version="1.1" xmlns="http://www.w3.org/2000/svg" width="32" height="32" viewBox="0 0 32 32">
<title>link</title>
<path d="M15.644 11.556c1.067 0 1.956 0.711 1.956 1.778v3.733h1.956v-3.733c0-1.956-1.778-3.556-3.911-3.556v0h-11.733c-2.133 0-3.911 1.6-3.911 3.556v7.111c0 1.956 1.778 3.556 3.911 3.556h7.822v-1.778h-7.822c-1.067 0-1.956-0.711-1.956-1.778v-7.111c0-1.067 0.889-1.778 1.956-1.778h11.733zM16.356 20.444c-1.067 0-1.956-0.711-1.956-1.778v-3.733h-1.956v3.733c0 1.956 1.778 3.556 3.911 3.556v0h11.733c2.133 0 3.911-1.6 3.911-3.556v-7.111c0-1.956-1.778-3.556-3.911-3.556h-7.822v1.778h7.822c1.067 0 1.956 0.711 1.956 1.778v7.111c0 1.067-0.889 1.778-1.956 1.778h-11.733z"></path>
</svg>
