<!-- Generated by IcoMoon.io -->
<svg version="1.1" xmlns="http://www.w3.org/2000/svg" width="32" height="32" viewBox="0 0 32 32">
<title>lock</title>
<path d="M19.048 21.333c0 1.683-1.364 3.048-3.048 3.048s-3.048-1.364-3.048-3.048c0-1.683 1.364-3.048 3.048-3.048s3.048 1.364 3.048 3.048zM26.667 10.667h-2.895v-3.048c0-4.267-3.352-7.619-7.619-7.619s-7.619 3.352-7.619 7.619v0 3.048h-3.2c-0.914 0-1.524 0.61-1.524 1.524v18.286c0 0.914 0.61 1.524 1.524 1.524h21.333c0.914 0 1.524-0.61 1.524-1.524v-18.286c0-0.914-0.61-1.524-1.524-1.524zM10.057 7.619c0-3.352 2.743-6.095 6.095-6.095s6.095 2.743 6.095 6.095v3.048h-12.19v-3.048zM26.667 30.476h-21.333v-18.286h21.333v18.286z"></path>
</svg>
