<!-- Generated by IcoMoon.io -->
<svg version="1.1" xmlns="http://www.w3.org/2000/svg" width="32" height="32" viewBox="0 0 32 32">
<title>pdf</title>
<path d="M30.222 3.556h-5.333v-1.778c0-1.067-0.711-1.778-1.778-1.778h-21.333c-1.067 0-1.778 0.711-1.778 1.778v24.889c0 1.067 0.711 1.778 1.778 1.778h5.333v1.778c0 1.067 0.711 1.778 1.778 1.778h21.333c1.067 0 1.778-0.711 1.778-1.778v-24.889c0-1.067-0.711-1.778-1.778-1.778zM1.778 26.667v-24.889h21.333v24.889h-21.333zM30.222 30.222h-21.333v-1.778h14.222c1.067 0 1.778-0.711 1.778-1.778v-21.333h5.333v24.889zM6.045 14.578h-1.244v2.311h-1.422v-7.822h2.844c1.778 0 2.667 0.889 2.667 2.667 0 0.889-0.178 1.6-0.711 2.133s-1.244 0.711-2.133 0.711zM4.8 13.156h1.244c0.711 0 1.244-0.533 1.244-1.422 0-0.533-0.178-0.889-0.356-1.067-0.178 0-0.356-0.178-0.889-0.178h-1.244v2.667zM12.444 16.711h-2.489v-7.644h2.489c0.711 0 1.244 0 1.6 0.178s0.711 0.356 1.067 0.711c0.178 0.356 0.356 0.711 0.533 1.067s0.178 1.067 0.178 1.6 0 1.244-0.178 1.778c0 0.533-0.178 0.889-0.533 1.244-0.178 0.356-0.533 0.533-1.067 0.711-0.356 0.356-0.889 0.356-1.6 0.356zM14.044 13.689c0-0.178 0-0.533 0-1.067s0-0.711 0-1.067c0-0.178-0.178-0.533-0.178-0.711 0 0-0.178-0.178-0.533-0.178-0.178 0-0.533-0.178-0.889-0.178h-0.889v4.978h0.889c0.533 0 0.889-0.178 1.244-0.356 0.178-0.356 0.356-0.711 0.356-1.422zM17.067 16.711v-7.644h4.8v1.422h-3.378v2.311h2.844v1.422h-2.667v2.667h-1.6z"></path>
</svg>
