<!-- Generated by IcoMoon.io -->
<svg version="1.1" xmlns="http://www.w3.org/2000/svg" width="32" height="32" viewBox="0 0 32 32">
<title>print</title>
<path d="M29.474 6.905v13.474h-26.947v-13.474h26.947zM29.474 5.221h-26.947c-1.011 0-1.684 0.674-1.684 1.684v13.474c0 1.011 0.674 1.684 1.684 1.684h26.947c1.011 0 1.684-0.674 1.684-1.684v-13.474c0-1.011-0.674-1.684-1.684-1.684v0zM27.789 10.274c0 0.93-0.754 1.684-1.684 1.684s-1.684-0.754-1.684-1.684c0-0.93 0.754-1.684 1.684-1.684s1.684 0.754 1.684 1.684zM24.421 1.684v3.368h-16.842v-3.368h16.842zM26.105 0h-20.211v6.737h20.211v-6.737zM24.421 22.063v8.253h-16.842v-8.253h16.842zM26.105 20.379h-20.211v11.621h20.211v-11.621zM9.263 23.747h13.474v1.684h-13.474v-1.684zM9.263 27.116h13.474v1.684h-13.474v-1.684z"></path>
</svg>
