<!-- Generated by IcoMoon.io -->
<svg version="1.1" xmlns="http://www.w3.org/2000/svg" width="32" height="32" viewBox="0 0 32 32">
<title>rss</title>
<path d="M8.751 27.403c0 1.238-0.53 2.298-1.238 3.006-0.884 1.061-1.945 1.414-3.005 1.414-1.238 0-2.298-0.354-3.006-1.238s-1.414-1.945-1.414-3.182 0.354-2.298 1.238-3.006 1.768-1.238 3.005-1.238c1.238 0 2.298 0.354 3.005 1.238 0.884 0.884 1.414 1.945 1.414 3.006zM20.42 30.232c0 0.354 0 0.707-0.354 1.061-0.177 0.354-0.707 0.53-1.061 0.53h-3.006c-0.354 0-0.707-0.177-0.884-0.354-0.354-0.177-0.53-0.53-0.53-0.884-0.354-3.359-1.768-6.365-4.243-8.84s-5.304-3.713-8.84-4.066c-0.354 0-0.707-0.177-0.884-0.53-0.53-0.354-0.53-0.707-0.53-1.061v-3.005c0-0.354 0.177-0.707 0.53-1.061 0.177-0.354 0.53-0.354 0.884-0.354h0.177c2.298 0.177 4.597 0.707 6.895 1.768s4.066 2.298 5.834 4.066c1.768 1.591 3.006 3.713 4.066 5.834s1.591 4.597 1.945 6.895v0zM31.912 30.409c0 0.354 0 0.707-0.354 1.061-0.177 0.354-0.707 0.53-1.061 0.53h-3.182c-0.354 0-0.707-0.177-1.061-0.354-0.177-0.177-0.354-0.707-0.354-0.884-0.177-3.182-0.884-6.365-2.298-9.193-1.414-3.006-3.006-5.481-5.304-7.602-2.122-2.122-4.597-3.89-7.602-5.304s-6.011-2.475-9.193-2.475c-0.354 0-0.707-0.177-0.884-0.53-0.354-0.354-0.53-0.707-0.53-1.061v-3.182c0-0.354 0.177-0.707 0.53-1.061 0.177-0.354 0.53-0.354 0.884-0.354v0c3.89 0.177 7.779 1.061 11.315 2.652 3.713 1.591 6.895 3.713 9.724 6.718 2.829 2.829 4.95 6.011 6.718 9.547 1.591 3.713 2.475 7.425 2.652 11.492v0z"></path>
</svg>
