<!-- Generated by IcoMoon.io -->
<svg version="1.1" xmlns="http://www.w3.org/2000/svg" width="32" height="32" viewBox="0 0 32 32">
<title>settings</title>
<path d="M18.48 1.6l0.48 3.52 0.16 0.96 0.8 0.32c0.8 0.32 1.6 0.8 2.4 1.28l0.8 0.48 0.64-0.16 3.36-1.44 2.56 4.32-2.88 2.24-0.64 0.48 0.16 0.96c0 0.48 0.16 0.96 0.16 1.44s0 0.8-0.16 1.44l-0.16 0.96 0.64 0.48 2.88 2.24-2.56 4.32-3.36-1.44-0.8-0.32-0.64 0.48c-0.8 0.64-1.6 1.12-2.4 1.44l-0.8 0.32-0.16 0.96-0.48 3.52h-4.96l-0.48-3.52-0.32-0.96-0.8-0.32c-0.8-0.32-1.6-0.8-2.4-1.28l-0.8-0.48-0.64 0.16-3.36 1.44-2.56-4.32 2.88-2.24 0.64-0.48-0.16-0.96c0-0.48-0.16-0.96-0.16-1.44s0-0.8 0.16-1.44l0.16-0.96-0.64-0.48-2.88-2.080 2.56-4.48 3.36 1.44 0.8 0.32 0.64-0.64c0.8-0.48 1.6-0.96 2.4-1.28l0.8-0.32 0.16-0.96 0.48-3.52h5.12zM15.92 23.2c4 0 7.2-3.2 7.2-7.2s-3.2-7.2-7.2-7.2-7.2 3.2-7.2 7.2 3.2 7.2 7.2 7.2zM19.12 0h-6.4c-0.32 0-0.8 0.32-0.8 0.64l-0.64 4.32c-0.96 0.32-1.76 0.96-2.72 1.6l-3.84-1.6c-0.16-0.16-0.32-0.16-0.32-0.16-0.32 0-0.64 0.16-0.8 0.48l-3.2 5.6c-0.16 0.16 0 0.64 0.32 0.96l3.36 2.56c0 0.48-0.16 0.96-0.16 1.6s0 1.12 0.16 1.6l-3.36 2.72c-0.32 0.16-0.32 0.64-0.16 0.96l3.2 5.6c0 0.16 0.32 0.32 0.64 0.32 0.16 0 0.16 0 0.32 0l4-1.6c0.8 0.64 1.76 1.12 2.72 1.6l0.64 4.16c0 0.32 0.32 0.64 0.8 0.64h6.4c0.32 0 0.8-0.32 0.8-0.64l0.64-4.16c0.96-0.32 1.92-0.96 2.72-1.6l4 1.6c0.16 0 0.16 0 0.32 0 0.32 0 0.48-0.16 0.64-0.48l3.2-5.6c0.16-0.32 0.16-0.8-0.16-0.96l-3.68-2.56c0-0.48 0.16-0.96 0.16-1.6s0-1.12-0.16-1.6l3.36-2.72c0.32-0.16 0.32-0.64 0.16-0.96l-3.2-5.6c0-0.16-0.32-0.32-0.64-0.32-0.16 0-0.16 0-0.32 0l-4 1.6c-0.8-0.64-1.76-1.12-2.72-1.6l-0.64-4.32c0.16-0.16-0.16-0.48-0.64-0.48v0zM15.92 21.6c-3.040 0-5.6-2.56-5.6-5.6s2.56-5.6 5.6-5.6 5.6 2.56 5.6 5.6-2.56 5.6-5.6 5.6v0z"></path>
</svg>
