<!-- Generated by IcoMoon.io -->
<svg version="1.1" xmlns="http://www.w3.org/2000/svg" width="32" height="32" viewBox="0 0 32 32">
<title>share</title>
<path d="M11.2 16c0 0.2 0 0.2 0 0.4l11.4 5.8c1-0.8 2.2-1.4 3.6-1.4 3.2 0 5.6 2.6 5.6 5.6 0 3.2-2.6 5.6-5.6 5.6-3.2 0-5.6-2.6-5.6-5.6 0-0.2 0-0.2 0-0.4l-11.4-5.8c-1 0.8-2.2 1.4-3.6 1.4-3 0-5.6-2.4-5.6-5.6s2.6-5.6 5.6-5.6c1.4 0 2.6 0.4 3.6 1.4l11.6-5.8c0-0.2 0-0.2 0-0.4 0-3.2 2.6-5.6 5.6-5.6s5.6 2.6 5.6 5.6-2.6 5.6-5.6 5.6c-1.4 0-2.6-0.4-3.6-1.4l-11.4 5.8c-0.2 0.2-0.2 0.2-0.2 0.4z"></path>
</svg>
