<!-- Generated by IcoMoon.io -->
<svg version="1.1" xmlns="http://www.w3.org/2000/svg" width="32" height="32" viewBox="0 0 32 32">
<title>slideshare</title>
<path d="M1.9 0v15.4c-0.4-0.2-1-0.6-1.4-0.2s0.2 0.8 0.2 1.2c2 2 4.2 3.4 6.6 4.4-0.6 1.6-0.8 3.4-0.6 5.2 0.4 3 2.4 6 5.6 6 1.6 0 3.2-1 3.2-2.8v-6.8c0.4 0 0.8 0.2 1.2 0.4v6.2c0 0.4 0 0.8 0.2 1.2 0.6 1 1.8 1.6 3 1.6 3.4-0.2 5.2-3 5.6-6 0.2-1.8 0-3.6-0.6-5.2 2.2-1 6.4-2.8 7-5.4 0-0.4-0.2-0.4-0.6-0.4s-0.8 0.2-1 0.4v-15.2h-28.4zM3.7 1.6h25.6v14.8c-0.4 0.2-0.8 0.4-1.2 0.6l-22.8 0.4c-0.6-0.2-1.2-0.6-1.6-0.8v-15zM12.1 9.4c-2.2 0-3.8 1.6-3.8 3.8 0 2 1.6 3.8 3.8 3.8 2 0 3.8-1.8 3.8-3.8s-1.6-3.8-3.8-3.8zM21.1 9.4c-2 0-3.8 1.6-3.8 3.8 0 2 1.8 3.8 3.8 3.8 2.2 0 3.8-1.8 3.8-3.8s-1.6-3.8-3.8-3.8z"></path>
</svg>
