<!-- Generated by IcoMoon.io -->
<svg version="1.1" xmlns="http://www.w3.org/2000/svg" width="32" height="32" viewBox="0 0 32 32">
<title>video</title>
<path d="M31.111 6.756c-0.178-0.178-0.533-0.178-0.711-0.178-0.356 0-0.711 0.178-1.067 0.356l-4.444 3.556v-3.378c0-1.067-0.711-1.778-1.778-1.778h-21.333c-1.067 0-1.778 0.711-1.778 1.778v17.778c0 1.067 0.711 1.778 1.778 1.778h21.333c1.067 0 1.778-0.711 1.778-1.778v-3.022l4.444 3.556c0.356 0.178 0.711 0.356 1.067 0.356 0.178 0 0.533 0 0.711-0.178 0.533-0.356 0.889-0.889 0.889-1.422v-16c0-0.533-0.356-1.244-0.889-1.422zM23.111 24.889h-21.333v-17.778h21.333v17.778zM30.4 24l-5.511-4.267v-7.111l5.511-4.622v16z"></path>
</svg>
