<!-- Generated by IcoMoon.io -->
<svg version="1.1" xmlns="http://www.w3.org/2000/svg" width="32" height="32" viewBox="0 0 32 32">
<title>warning</title>
<path d="M14.333 26c0-1 0.667-1.667 1.667-1.667s1.667 0.667 1.667 1.667c0 1-0.667 1.667-1.667 1.667s-1.667-0.667-1.667-1.667zM15 22.667l-0.333-15h2.667l-0.333 15zM16 2.667c1 0 2 0.5 2.5 1.333l10.333 20.833c0.5 0.833 0.5 2 0 2.833s-1.5 1.5-2.5 1.5h-20.667c-1 0-2-0.5-2.5-1.5-0.5-0.833-0.5-2 0-2.833v0 0l10.333-20.833c0.5-0.833 1.5-1.333 2.5-1.333zM16 1c-1.5 0-3 0.833-4 2.333l-10.333 20.833c-1.667 3 0.5 6.833 4 6.833h20.667c3.5 0 5.667-3.833 4-6.833l-10.333-20.833c-1-1.667-2.5-2.333-4-2.333v0z"></path>
</svg>
