<!-- Generated by IcoMoon.io -->
<svg version="1.1" xmlns="http://www.w3.org/2000/svg" width="32" height="32" viewBox="0 0 32 32">
<title>whatsapp</title>
<path d="M20.356 17.6c0.178 0 0.889 0.356 1.956 0.889 1.244 0.533 1.778 0.889 1.778 1.067 0 0 0 0.178 0 0.356 0 0.533-0.178 1.067-0.356 1.6s-0.711 1.067-1.422 1.422c-0.711 0.356-1.422 0.533-2.133 0.533s-2.133-0.356-3.911-1.244c-1.244-0.711-2.489-1.422-3.556-2.489s-1.956-2.311-3.022-3.911c-0.889-1.422-1.244-2.844-1.244-3.911v-0.178c0-1.244 0.533-2.311 1.6-3.2 0.178-0.356 0.533-0.533 0.889-0.533 0 0 0.178 0 0.356 0s0.356 0 0.356 0 0.356 0 0.533 0.178c0.178 0 0.178 0.178 0.356 0.533 0 0.356 0.356 0.889 0.711 1.956 0.356 0.889 0.533 1.422 0.533 1.6 0 0.356-0.178 0.711-0.711 1.244-0.356 0.178-0.711 0.533-0.711 0.711 0 0 0 0.178 0 0.356 0.533 1.067 1.244 1.956 2.133 2.844 0.711 0.711 1.778 1.422 3.2 2.133 0.178 0 0.356 0.178 0.533 0.178s0.533-0.356 1.067-1.067c0.533-0.711 0.889-1.067 1.067-1.067v0zM16.267 28.622c1.778 0 3.378-0.356 5.156-1.067 1.6-0.711 3.022-1.6 4.089-2.667s2.133-2.489 2.667-4.089c0.711-1.6 1.067-3.378 1.067-5.156s-0.356-3.378-1.067-4.978c-0.711-1.778-1.6-3.2-2.844-4.267s-2.489-2.133-4.089-2.844c-1.6-0.711-3.378-1.067-5.156-1.067s-3.378 0.533-4.978 1.067c-1.6 0.711-3.022 1.6-4.089 2.844s-2.133 2.489-2.844 4.089c-0.711 1.6-0.889 3.378-0.889 5.156 0 2.844 0.711 5.333 2.489 7.644l-1.6 4.8 4.978-1.6c2.133 1.422 4.444 2.133 7.111 2.133zM16.267-0c2.133 0 4.089 0.356 6.044 1.244 1.956 0.711 3.556 1.956 4.978 3.378s2.489 3.022 3.378 4.978c0.889 1.956 1.244 3.911 1.244 6.044s-0.356 4.089-1.244 6.044c-0.711 1.956-1.956 3.556-3.378 4.978s-3.022 2.489-4.978 3.378c-1.956 0.711-3.911 1.244-6.044 1.244-2.667 0-5.156-0.711-7.467-1.956l-8.711 2.667 2.667-8.355c-1.422-2.311-2.133-5.156-2.133-8 0-2.133 0.356-4.089 1.244-6.044 0.711-1.956 1.956-3.556 3.378-4.978s3.022-2.489 4.978-3.378c1.778-0.889 3.911-1.244 6.044-1.244z"></path>
</svg>
