<!-- Generated by IcoMoon.io -->
<svg version="1.1" xmlns="http://www.w3.org/2000/svg" width="32" height="32" viewBox="0 0 32 32">
<title>youtube-text</title>
<path d="M19.626 22.227v3.783c0 0.788-0.315 1.261-0.631 1.261s-0.631-0.158-0.788-0.315v-5.36c0.315-0.315 0.473-0.473 0.788-0.473 0.473 0 0.631 0.473 0.631 1.103v0zM25.773 22.384v0.788h-1.576v-0.788c0-0.788 0.315-1.261 0.788-1.261s0.788 0.473 0.788 1.261v0zM8.276 18.443h1.892v-1.576h-5.517v1.576h1.892v10.246h1.892v-10.246zM13.478 28.69h1.576v-8.828h-1.576v6.778c-0.315 0.473-0.631 0.788-0.946 0.788s-0.315-0.158-0.315-0.315c0 0 0-0.315 0-0.631v-6.463h-1.576v7.094c0 0.631 0 0.946 0.158 1.261 0.158 0.473 0.473 0.631 1.103 0.631s1.261-0.315 1.892-1.103v0.788zM21.202 26.010v-3.626c0-0.788 0-1.419-0.158-1.734-0.158-0.631-0.631-0.946-1.261-0.946s-1.261 0.315-1.734 0.946v-3.941h-1.576v11.98h1.576v-0.946c0.631 0.631 1.103 0.946 1.734 0.946s1.103-0.315 1.261-0.946c0.158-0.315 0.158-0.788 0.158-1.734zM27.35 25.852v-0.315h-1.576c0 0.631 0 0.946 0 1.103 0 0.315-0.315 0.631-0.631 0.631-0.631 0-0.788-0.473-0.788-1.261v-1.576h3.153v-1.892c0-0.946-0.158-1.576-0.473-2.049-0.473-0.631-1.103-0.946-1.892-0.946s-1.419 0.315-1.892 0.946c-0.315 0.473-0.473 1.103-0.473 2.049v3.153c0 0.946 0.158 1.576 0.631 2.049 0.473 0.631 1.103 0.946 1.892 0.946s1.576-0.315 1.892-0.946c0.315-0.315 0.315-0.631 0.315-0.946-0.158 0-0.158-0.473-0.158-0.946zM16.315 9.458v-3.783c0-0.788-0.315-1.261-0.788-1.261s-0.788 0.473-0.788 1.261v3.783c0 0.788 0.315 1.261 0.788 1.261 0.631 0 0.788-0.473 0.788-1.261zM29.399 22.857c0 2.837-0.158 4.887-0.473 6.305-0.158 0.631-0.473 1.261-0.946 1.734-0.631 0.473-1.103 0.788-1.892 0.788-2.207 0.315-5.517 0.315-10.089 0.315s-7.882 0-10.089-0.158c-0.631 0-1.261-0.315-1.892-0.788-0.473-0.473-0.946-1.103-0.946-1.734-0.315-1.419-0.473-3.468-0.473-6.305s0.158-4.887 0.473-6.305c0.158-0.788 0.473-1.261 0.946-1.892 0.631-0.473 1.103-0.788 1.892-0.788 2.207-0.315 5.517-0.315 9.931-0.315s7.882 0.158 10.089 0.315c0.631 0 1.261 0.315 1.892 0.788 0.473 0.473 0.946 1.103 0.946 1.892 0.473 1.261 0.631 3.31 0.631 6.148v0zM11.429 0h1.892l-2.365 7.094v4.887h-1.734v-4.887c-0.158-0.788-0.473-2.049-1.103-3.783-0.473-1.261-0.788-2.365-1.103-3.31h1.892l1.261 4.729 1.261-4.729zM18.049 5.99v3.153c0 0.946-0.158 1.734-0.473 2.207-0.473 0.631-1.103 0.946-1.892 0.946s-1.419-0.315-1.892-0.946c-0.315-0.473-0.473-1.261-0.473-2.207v-3.153c0-0.946 0.158-1.576 0.473-2.049 0.473-0.631 1.103-0.946 1.892-0.946s1.419 0.315 1.892 0.946c0.315 0.315 0.473 1.103 0.473 2.049zM24.039 2.995v8.985h-1.576v-0.946c-0.631 0.788-1.261 1.103-1.892 1.103s-0.946-0.158-1.103-0.631c-0.158-0.315-0.158-0.788-0.158-1.419v-7.094h1.576v6.621c0 0.315 0 0.631 0 0.631 0 0.315 0.158 0.315 0.315 0.315 0.315 0 0.631-0.315 0.946-0.788v-6.778h1.892z"></path>
</svg>
