<!-- Generated by IcoMoon.io -->
<svg version="1.1" xmlns="http://www.w3.org/2000/svg" width="32" height="32" viewBox="0 0 32 32">
<title>youtube</title>
<path d="M31.52 8.48c-0.32-1.76-1.76-2.88-3.52-3.2-4-0.48-8-0.48-12-0.48s-8 0-12 0.48c-1.6 0.16-3.040 1.44-3.52 3.2-0.48 2.4-0.48 4.96-0.48 7.52s0 5.12 0.48 7.52c0.32 1.76 1.76 2.88 3.52 3.2 4 0.48 8 0.48 12 0.48s8 0 12-0.48c1.6-0.16 3.040-1.44 3.52-3.2 0.48-2.4 0.48-4.96 0.48-7.52s0-5.12-0.48-7.52zM11.84 20.96c0-3.52 0-7.040 0-10.56 3.36 1.76 6.72 3.52 10.24 5.28-3.36 1.76-6.88 3.52-10.24 5.28z"></path>
</svg>
