<!-- Generated by IcoMoon.io -->
<svg version="1.1" xmlns="http://www.w3.org/2000/svg" width="32" height="32" viewBox="0 0 32 32">
<title>zoom-in</title>
<path d="M0 30.749l10.011-10.011c-1.966-2.145-3.039-5.006-3.039-8.223 0-6.972 5.542-12.514 12.514-12.514s12.514 5.542 12.514 12.514c0 6.972-5.542 12.514-12.514 12.514-3.218 0-6.078-1.251-8.223-3.039l-10.011 10.011-1.251-1.251zM19.486 23.419c5.899 0 10.726-4.827 10.726-10.726s-4.827-10.726-10.726-10.726-10.726 4.827-10.726 10.726 4.827 10.726 10.726 10.726zM14.123 11.978h4.469v-4.469h1.788v4.469h4.469v1.788h-4.469v4.469h-1.788v-4.469h-4.469z"></path>
</svg>
